<?xml version="1.0" encoding="UTF-8"?>
<!DOCTYPE svg PUBLIC "-//W3C//DTD SVG 1.1//EN" "http://www.w3.org/Graphics/SVG/1.1/DTD/svg11.dtd">
<!-- Creator: CorelDRAW X8 -->
<svg xmlns="http://www.w3.org/2000/svg" xml:space="preserve" width="6.44233in" height="7.31117in" version="1.1" style="shape-rendering:geometricPrecision; text-rendering:geometricPrecision; image-rendering:optimizeQuality; fill-rule:evenodd; clip-rule:evenodd"
viewBox="0 0 6442 7311"
 xmlns:xlink="http://www.w3.org/1999/xlink">
 <defs>
  <style type="text/css">
   <![CDATA[
    .str1 {stroke:#332C2B;stroke-width:7.87402}
    .str0 {stroke:black;stroke-width:7.87402}
    .fil3 {fill:none}
    .fil15 {fill:#FEFEFE}
    .fil11 {fill:#FEFEFE}
    .fil25 {fill:#C9CACA}
    .fil22 {fill:#D59961}
    .fil24 {fill:#E95A6F}
    .fil18 {fill:#E95A6F}
    .fil16 {fill:#E61D4C}
    .fil23 {fill:#CC8946}
    .fil21 {fill:#BD7F43}
    .fil19 {fill:#AF3548}
    .fil26 {fill:#AF3548}
    .fil14 {fill:#1D1819}
    .fil20 {fill:#1D1819}
    .fil6 {fill:#1D1819}
    .fil0 {fill:black}
    .fil5 {fill:#663D00}
    .fil4 {fill:#855000}
    .fil7 {fill:#AD7600}
    .fil12 {fill:#D4991A}
    .fil2 {fill:#D4991A}
    .fil9 {fill:#E8C979}
    .fil10 {fill:#F4B732}
    .fil1 {fill:#F4B732}
    .fil13 {fill:#F7CA68}
    .fil17 {fill:#F8DD96}
    .fil8 {fill:#F8DD96}
   ]]>
  </style>
     <clipPath id="id0">
      <path d="M2042 4400c0,0 -583,299 -998,235 -414,-65 -537,-505 -511,-576 27,-70 -80,-61 -80,-61 0,0 -143,385 309,674 451,290 1129,104 1226,131 98,27 54,-403 54,-403z"/>
     </clipPath>
     <clipPath id="id1">
      <path d="M560 4080c0,0 -126,14 -221,-91 -95,-105 -102,-209 -164,-264 -61,-55 -85,-63 -85,-63 0,0 63,-12 99,4 35,16 35,16 35,16 0,0 -21,-160 57,-291 78,-132 123,-149 123,-149l-31 89c0,0 186,-220 378,-193 191,26 228,39 228,39 0,0 -235,166 -227,417 9,251 -49,409 -192,486z"/>
     </clipPath>
       <mask id="id2">
  <linearGradient id="id3" gradientUnits="userSpaceOnUse" x1="226.802" y1="4253.63" x2="609.207" y2="2560.38">
   <stop offset="0" style="stop-opacity:1; stop-color:white"/>
   <stop offset="1" style="stop-opacity:0; stop-color:white"/>
  </linearGradient>
        <rect style="fill:url(#id3)" x="-402" y="3029" width="1390" height="1300"/>
       </mask>
      <clipPath id="id4">
       <path d="M1202 426c-84,-12 -213,-5 -213,-5 0,0 -121,134 -130,149 -9,16 -69,167 -69,167 0,0 -173,626 217,1092 389,466 716,343 887,256 171,-86 158,-386 158,-386l28 -448c0,0 -78,-305 -878,-825z"/>
      </clipPath>
        <mask id="id5">
  <linearGradient id="id6" gradientUnits="userSpaceOnUse" x1="2208.57" y1="1309.83" x2="-176.854" y2="1179.63">
   <stop offset="0" style="stop-opacity:1; stop-color:white"/>
   <stop offset="1" style="stop-opacity:0; stop-color:white"/>
  </linearGradient>
         <rect style="fill:url(#id6)" x="1220" y="660" width="786" height="1270"/>
        </mask>
     <clipPath id="id7">
      <path d="M5441 426c84,-12 213,-5 213,-5 0,0 121,134 130,149 9,16 69,167 69,167 0,0 173,626 -216,1092 -390,466 -717,343 -888,256 -171,-86 -158,-386 -158,-386l-27 -448c0,0 77,-305 877,-825z"/>
     </clipPath>
       <mask id="id8">
  <linearGradient id="id9" gradientUnits="userSpaceOnUse" x1="4434.59" y1="1309.83" x2="6820.02" y2="1179.63">
   <stop offset="0" style="stop-opacity:1; stop-color:white"/>
   <stop offset="1" style="stop-opacity:0; stop-color:white"/>
  </linearGradient>
        <rect style="fill:url(#id9)" x="4638" y="660" width="786" height="1270"/>
       </mask>
    <clipPath id="id10">
     <path d="M4360 3660c0,0 49,73 116,205 55,101 111,221 165,362 146,378 195,801 179,1211 -13,333 -79,585 -170,773 -194,397 -544,603 -718,582 -255,-31 -287,-370 -241,-809 44,-419 -621,-419 -577,0 46,439 14,778 -242,809 -173,21 -523,-185 -717,-582 -91,-188 -157,-440 -170,-773 -16,-410 33,-833 179,-1211 54,-141 110,-261 165,-362 66,-132 116,-205 116,-205l9 -2c169,-247 302,-320 302,-320l646 130 647 -130c0,0 133,73 302,320l9 2z"/>
    </clipPath>
     <clipPath id="id11">
      <path d="M3368 3508c-422,0 -764,391 -764,874 0,483 342,875 764,875 422,0 764,-392 764,-875 0,-483 -342,-874 -764,-874z"/>
     </clipPath>
     <clipPath id="id12">
      <path d="M4360 3660c0,0 49,73 116,205 55,101 111,221 165,362 146,378 195,801 179,1211 -13,333 -79,585 -170,773 -194,397 -544,603 -718,582 -255,-31 -287,-370 -241,-809 44,-419 -621,-419 -577,0 46,439 14,778 -242,809 -173,21 -523,-185 -717,-582 -91,-188 -157,-440 -170,-773 -16,-410 33,-833 179,-1211 54,-141 110,-261 165,-362 66,-132 116,-205 116,-205l9 -2c169,-247 302,-320 302,-320l646 130 647 -130c0,0 133,73 302,320l9 2z"/>
     </clipPath>
    <clipPath id="id13">
     <path d="M4687 958c331,400 465,873 567,1018 102,144 414,591 96,1116 -319,525 -1568,683 -1899,670 -29,-1 -56,-3 -83,-5 -27,2 -55,4 -83,5 -332,13 -1580,-145 -1899,-670 -319,-525 -6,-972 96,-1116 102,-145 235,-618 567,-1018 211,-255 504,-425 825,-510 -41,-16 -64,-42 -14,-83 112,-94 362,-60 362,-60 0,0 -279,-71 -125,-115 153,-44 377,89 377,89 0,0 3,-3 -73,-55 -75,-52 -145,-203 68,-96 153,76 302,232 374,315 328,83 629,255 844,515z"/>
    </clipPath>
      <mask id="id14">
  <linearGradient id="id15" gradientUnits="userSpaceOnUse" x1="3258.85" y1="-29.2677" x2="3281.59" y2="611.902">
   <stop offset="0" style="stop-opacity:1; stop-color:white"/>
   <stop offset="1" style="stop-opacity:0; stop-color:white"/>
  </linearGradient>
       <rect style="fill:url(#id15)" x="2040" y="-37" width="2652" height="1061"/>
      </mask>
    <clipPath id="id16">
     <path d="M3353 2362c-27,5 -78,9 -126,-16 -71,-36 -98,-39 -153,-10 -54,28 -49,107 -39,126 11,20 34,46 56,30 22,-16 32,-27 76,-8 44,20 75,80 125,98 61,21 90,21 151,0 51,-18 81,-78 126,-98 44,-19 53,-8 75,8 22,16 46,-10 56,-30 11,-19 16,-98 -39,-126 -55,-29 -82,-26 -152,10 -49,25 -100,21 -128,16 -8,-2 -19,-2 -28,0z"/>
    </clipPath>
      <mask id="id17">
  <linearGradient id="id18" gradientUnits="userSpaceOnUse" x1="3407.91" y1="2771" x2="3382.53" y2="2264.53">
   <stop offset="0" style="stop-opacity:1; stop-color:white"/>
   <stop offset="1" style="stop-opacity:0; stop-color:white"/>
  </linearGradient>
       <rect style="fill:url(#id18)" x="2983" y="2363" width="811" height="314"/>
      </mask>
    <clipPath id="id19">
     <path d="M2607 4061l697 933 157 74 -18 -172 -694 -936c0,0 -169,-78 -142,101z"/>
    </clipPath>
      <mask id="id20">
  <linearGradient id="id21" gradientUnits="userSpaceOnUse" x1="3345.6" y1="4925.67" x2="3479.29" y2="5131.4">
   <stop offset="0" style="stop-opacity:1; stop-color:white"/>
   <stop offset="1" style="stop-opacity:0; stop-color:white"/>
  </linearGradient>
       <rect style="fill:url(#id21)" x="3283" y="4891" width="254" height="243"/>
      </mask>
    <clipPath id="id22">
     <path d="M2331 4266c0,0 389,77 659,265 271,187 287,615 -540,483 -826,-132 -993,-243 -979,-542 14,-298 278,-900 552,-940 274,-39 474,-47 308,734z"/>
    </clipPath>
      <mask id="id23">
  <linearGradient id="id24" gradientUnits="userSpaceOnUse" x1="1892.44" y1="5343.65" x2="1991.91" y2="3381.84">
   <stop offset="0" style="stop-opacity:1; stop-color:white"/>
   <stop offset="1" style="stop-opacity:0; stop-color:white"/>
  </linearGradient>
       <rect style="fill:url(#id24)" x="1154" y="4040" width="2520" height="1387"/>
      </mask>
    <clipPath id="id25">
     <path d="M4630 4237c0,0 -389,77 -660,264 -271,188 -286,616 540,484 827,-132 993,-243 979,-542 -14,-299 -277,-901 -552,-940 -274,-39 -474,-47 -307,734z"/>
    </clipPath>
      <mask id="id26">
  <linearGradient id="id27" gradientUnits="userSpaceOnUse" x1="5067.93" y1="5314.44" x2="4968.46" y2="3352.63">
   <stop offset="0" style="stop-opacity:1; stop-color:white"/>
   <stop offset="1" style="stop-opacity:0; stop-color:white"/>
  </linearGradient>
       <rect style="fill:url(#id27)" x="3287" y="4011" width="2520" height="1387"/>
      </mask>
 </defs>
 <g id="Layer_x0020_1">
  <metadata id="CorelCorpID_0Corel-Layer"/>
  <g id="_1916738416416">
   <g>
    <path class="fil0" d="M342 4109c-26,-17 -50,-37 -70,-60 -48,-53 -79,-108 -109,-173 -11,-23 -29,-67 -48,-84 -14,-13 -41,-38 -59,-47 -36,-15 -59,-50 -56,-90 3,-41 33,-75 74,-82 18,-3 39,-5 60,-5 8,-80 32,-161 70,-223 33,-57 101,-161 167,-187 20,-8 41,-9 60,-3 51,-37 106,-68 158,-86 56,-20 115,-28 174,-20 63,8 128,18 191,30 17,4 38,8 55,14 33,11 54,38 59,72 5,35 -9,66 -37,86 -36,25 -75,66 -101,100 -54,69 -91,152 -88,240 8,209 -26,433 -212,552 2,10 5,18 7,24 17,53 43,105 74,151 82,123 200,205 347,228 106,16 221,6 326,-13 145,-27 289,-74 426,-128 64,-26 130,-54 191,-85 27,-14 57,-14 84,1 27,15 44,39 47,70 7,69 10,142 10,212 -1,91 -3,251 -109,286 -22,6 -44,7 -66,1 -14,-1 -36,1 -49,2 -36,3 -73,7 -109,11 -105,12 -211,21 -317,23 -267,6 -550,-31 -779,-178 -184,-117 -330,-285 -364,-506 -7,-40 -9,-86 -7,-133z"/>
   </g>
   <g>
    <path class="fil1" d="M2042 4400c0,0 -583,299 -998,235 -414,-65 -537,-505 -511,-576 27,-70 -80,-61 -80,-61 0,0 -143,385 309,674 451,290 1129,104 1226,131 98,27 54,-403 54,-403z"/>
    <g style="clip-path:url(#id0)">
     <g>
      <path id="1" class="fil2" d="M2009 4660c0,0 -543,212 -1069,29 -525,-184 -443,-679 -487,-691 -44,-12 -168,-28 -168,27 -1,55 27,490 36,507 8,17 808,454 898,472 90,17 289,132 535,27 246,-105 255,-371 255,-371z"/>
     </g>
    </g>
    <path class="fil3" d="M2042 4400c0,0 -583,299 -998,235 -414,-65 -537,-505 -511,-576 27,-70 -80,-61 -80,-61 0,0 -143,385 309,674 451,290 1129,104 1226,131 98,27 54,-403 54,-403z"/>
    <path class="fil4" d="M560 4080c0,0 -126,14 -221,-91 -95,-105 -102,-209 -164,-264 -61,-55 -85,-63 -85,-63 0,0 63,-12 99,4 35,16 35,16 35,16 0,0 -21,-160 57,-291 78,-132 123,-149 123,-149l-31 89c0,0 186,-220 378,-193 191,26 228,39 228,39 0,0 -235,166 -227,417 9,251 -49,409 -192,486z"/>
    <g style="clip-path:url(#id1)">
     <g>
      <path id="1" class="fil5" style="mask:url(#id2)" d="M839 3785c-1,-12 -81,-270 -81,-270 0,0 -46,13 -67,210 -21,197 -113,311 -238,273 -125,-37 -148,-103 -153,-190 -5,-87 -210,-146 -210,-146l45 -56 88 65 41 33c0,0 21,-217 55,-267 34,-50 34,-50 34,-50l-9 44c0,0 184,-203 376,-236 193,-32 259,-18 259,-18 0,0 38,-63 -96,-103 -135,-41 -346,-52 -437,-28 -92,24 -316,189 -375,228 -59,38 -307,151 -354,250 -47,100 -251,346 31,506 281,161 129,373 542,267 414,-106 659,-140 549,-512z"/>
     </g>
    </g>
    <path class="fil3" d="M560 4080c0,0 -126,14 -221,-91 -95,-105 -102,-209 -164,-264 -61,-55 -85,-63 -85,-63 0,0 63,-12 99,4 35,16 35,16 35,16 0,0 -21,-160 57,-291 78,-132 123,-149 123,-149l-31 89c0,0 186,-220 378,-193 191,26 228,39 228,39 0,0 -235,166 -227,417 9,251 -49,409 -192,486z"/>
   </g>
   <g>
    <g>
     <path class="fil0 str0" d="M2159 1430c24,-6 48,-14 71,-23 112,-43 216,-114 284,-215 139,-206 71,-444 -60,-634l-28 -41 -49 2c-67,2 -154,-12 -218,-25 -195,-38 -385,-113 -559,-209 -195,-108 -420,-152 -623,-39 -113,63 -227,189 -255,319 -8,38 -24,106 -23,162 -30,118 -41,267 -37,385 7,284 92,555 276,775 149,179 345,341 585,367 148,16 281,-22 412,-88 34,-18 64,-42 90,-70 88,-99 122,-266 118,-396l16 -270z"/>
    </g>
    <g>
     <path class="fil2" d="M1202 426c-84,-12 -213,-5 -213,-5 0,0 -121,134 -130,149 -9,16 -69,167 -69,167 0,0 -173,626 217,1092 389,466 716,343 887,256 171,-86 158,-386 158,-386l28 -448c0,0 -78,-305 -878,-825z"/>
     <g style="clip-path:url(#id4)">
      <g>
       <path id="1" class="fil6" d="M1326 604c-26,30 -337,149 -334,560 3,411 228,670 403,725 175,56 442,-97 442,-97 0,0 -29,224 -523,302 -495,78 -1170,-809 -1088,-928 82,-120 517,-667 517,-667l248 -10c0,0 292,-9 335,115z"/>
       <path class="fil7" style="mask:url(#id5)" d="M1664 883c-112,-63 -441,-219 -441,-219 0,0 202,318 233,622 31,305 -37,640 -37,640 0,0 1127,-165 245,-1043z"/>
      </g>
     </g>
     <path class="fil3 str1" d="M1202 426c-84,-12 -213,-5 -213,-5 0,0 -121,134 -130,149 -9,16 -69,167 -69,167 0,0 -173,626 217,1092 389,466 716,343 887,256 171,-86 158,-386 158,-386l28 -448c0,0 -78,-305 -878,-825z"/>
     <path class="fil1" d="M2380 609c0,0 -359,12 -823,-245 -465,-257 -716,80 -747,220 -31,140 -18,165 -18,165 0,0 105,-309 399,-109 295,201 313,585 625,700 312,116 952,-167 564,-731z"/>
    </g>
   </g>
   <g>
    <path class="fil0 str0" d="M4484 1430c-24,-6 -48,-14 -71,-23 -112,-43 -216,-114 -284,-215 -139,-206 -71,-444 60,-634l28 -41 49 2c67,2 154,-12 219,-25 194,-38 385,-113 558,-209 195,-108 420,-152 623,-39 113,63 227,189 255,319 9,38 24,106 23,162 30,118 41,267 38,385 -8,284 -93,555 -276,775 -150,179 -346,341 -585,367 -149,16 -282,-22 -413,-88 -34,-18 -64,-42 -90,-70 -87,-99 -122,-266 -117,-396l-17 -270z"/>
   </g>
   <g>
    <path class="fil2" d="M5441 426c84,-12 213,-5 213,-5 0,0 121,134 130,149 9,16 69,167 69,167 0,0 173,626 -216,1092 -390,466 -717,343 -888,256 -171,-86 -158,-386 -158,-386l-27 -448c0,0 77,-305 877,-825z"/>
    <g style="clip-path:url(#id7)">
     <g>
      <path id="1" class="fil6" d="M5317 604c27,30 337,149 334,560 -3,411 -227,670 -403,725 -175,56 -442,-97 -442,-97 0,0 29,224 524,302 494,78 1169,-809 1087,-928 -82,-120 -516,-667 -516,-667l-249 -10c0,0 -292,-9 -335,115z"/>
      <path class="fil7" style="mask:url(#id8)" d="M4979 883c112,-63 441,-219 441,-219 0,0 -202,318 -233,622 -31,305 37,640 37,640 0,0 -1126,-165 -245,-1043z"/>
     </g>
    </g>
    <path class="fil3 str1" d="M5441 426c84,-12 213,-5 213,-5 0,0 121,134 130,149 9,16 69,167 69,167 0,0 173,626 -216,1092 -390,466 -717,343 -888,256 -171,-86 -158,-386 -158,-386l-27 -448c0,0 77,-305 877,-825z"/>
    <path class="fil1" d="M4263 609c0,0 359,12 824,-245 464,-257 716,80 746,220 31,140 18,165 18,165 0,0 -105,-309 -399,-109 -295,201 -313,585 -625,700 -312,116 -951,-167 -564,-731z"/>
   </g>
   <g>
    <path class="fil0" d="M4556 3823c64,120 120,245 169,372 151,392 201,827 185,1246 -11,274 -58,561 -179,809 -91,187 -227,358 -394,481 -110,81 -274,168 -415,151 -57,-6 -111,-26 -157,-60 -225,-163 -189,-606 -164,-847 8,-70 -9,-134 -68,-176 -37,-27 -85,-39 -131,-39 -128,0 -212,83 -199,215 26,241 62,684 -163,847 -47,34 -100,54 -157,60 -141,17 -305,-70 -415,-151 -167,-123 -303,-294 -394,-481 -121,-248 -168,-535 -179,-809 -16,-419 33,-854 185,-1246 49,-127 104,-252 169,-372 35,-71 77,-148 121,-214l21 -30 10 -2c60,-85 129,-168 206,-238 31,-27 70,-60 106,-80l29 -15 660 132 661 -132 29 15c36,20 75,53 105,80 77,70 146,153 207,238l10 2 20 30c45,66 86,143 122,214z"/>
   </g>
   <path class="fil1" d="M4360 3660c0,0 49,73 116,205 55,101 111,221 165,362 146,378 195,801 179,1211 -13,333 -79,585 -170,773 -194,397 -544,603 -718,582 -255,-31 -287,-370 -241,-809 44,-419 -621,-419 -577,0 46,439 14,778 -242,809 -173,21 -523,-185 -717,-582 -91,-188 -157,-440 -170,-773 -16,-410 33,-833 179,-1211 54,-141 110,-261 165,-362 66,-132 116,-205 116,-205l9 -2c169,-247 302,-320 302,-320l646 130 647 -130c0,0 133,73 302,320l9 2z"/>
   <g style="clip-path:url(#id10)">
    <g>
     <path id="1" class="fil2" d="M4598 3749c-51,16 -443,249 -1298,174 -855,-75 -1144,-222 -1144,-222 0,0 230,-292 269,-300 40,-8 1160,-44 1208,-16 47,28 585,190 633,218 47,27 332,146 332,146z"/>
     <path class="fil2" d="M3368 3508c-422,0 -764,391 -764,874 0,483 342,875 764,875 422,0 764,-392 764,-875 0,-483 -342,-874 -764,-874z"/>
    </g>
    <g style="clip-path:url(#id11)">
     <g>
      <ellipse class="fil8" cx="3376" cy="4303" rx="764" ry="875"/>
      <path class="fil9" d="M4598 3749c-51,16 -443,249 -1298,174 -855,-75 -1144,-222 -1144,-222 0,0 230,-292 269,-300 40,-8 1160,-44 1208,-16 47,28 585,190 633,218 47,27 332,146 332,146z"/>
     </g>
    </g>
    <g style="clip-path:url(#id12)">
     <path class="fil3" d="M3368 3508c-422,0 -764,391 -764,874 0,483 342,875 764,875 422,0 764,-392 764,-875 0,-483 -342,-874 -764,-874z"/>
     <path class="fil8" d="M4709 6504c0,0 -71,-238 -360,-353 -289,-114 -669,-34 -669,-34l-83 470 210 162c0,0 123,75 162,75 40,0 428,-43 467,-55 40,-12 273,-265 273,-265z"/>
     <path class="fil8" d="M3118 6121l-254 55c0,0 -297,83 -435,392 -139,309 483,499 483,499l225 -345 103 -372 -122 -229z"/>
    </g>
   </g>
   <path class="fil3" d="M4360 3660c0,0 49,73 116,205 55,101 111,221 165,362 146,378 195,801 179,1211 -13,333 -79,585 -170,773 -194,397 -544,603 -718,582 -255,-31 -287,-370 -241,-809 44,-419 -621,-419 -577,0 46,439 14,778 -242,809 -173,21 -523,-185 -717,-582 -91,-188 -157,-440 -170,-773 -16,-410 33,-833 179,-1211 54,-141 110,-261 165,-362 66,-132 116,-205 116,-205l9 -2c169,-247 302,-320 302,-320l646 130 647 -130c0,0 133,73 302,320l9 2z"/>
   <g>
    <path class="fil0" d="M3368 3848c-27,2 -53,3 -80,4 -143,6 -306,-12 -449,-31 -211,-29 -424,-72 -629,-132 -314,-92 -724,-258 -901,-550 -144,-238 -191,-501 -120,-771 43,-166 121,-305 219,-444 29,-42 55,-103 76,-149 38,-84 74,-168 113,-251 105,-222 225,-434 382,-624 200,-241 468,-410 763,-507 4,-34 24,-68 60,-98 42,-35 98,-58 158,-71 0,-2 0,-3 0,-5 1,-65 55,-100 112,-116 50,-14 107,-15 166,-6 2,-16 8,-31 17,-46 60,-90 180,-42 255,-4 140,70 276,197 382,316 335,90 642,268 864,537 157,190 278,402 382,624 39,83 75,167 113,251 21,46 47,107 77,149 98,139 175,278 219,444 70,270 24,533 -120,771 -178,292 -588,458 -901,550 -205,60 -418,103 -630,132 -142,19 -305,37 -449,31 -26,-1 -53,-2 -79,-4z"/>
   </g>
   <path class="fil10" d="M4687 958c331,400 465,873 567,1018 102,144 414,591 96,1116 -319,525 -1568,683 -1899,670 -29,-1 -56,-3 -83,-5 -27,2 -55,4 -83,5 -332,13 -1580,-145 -1899,-670 -319,-525 -6,-972 96,-1116 102,-145 235,-618 567,-1018 211,-255 504,-425 825,-510 -41,-16 -64,-42 -14,-83 112,-94 362,-60 362,-60 0,0 -279,-71 -125,-115 153,-44 377,89 377,89 0,0 3,-3 -73,-55 -75,-52 -145,-203 68,-96 153,76 302,232 374,315 328,83 629,255 844,515z"/>
   <g style="clip-path:url(#id13)">
    <g>
     <path id="1" class="fil11" d="M9808 2025c-1087,70 -1922,478 -1922,972 0,542 1007,981 2248,981 1242,0 2248,-439 2248,-981 0,-494 -834,-902 -1921,-972 41,-114 65,-250 65,-398 0,-398 -175,-720 -392,-720 -216,0 -391,322 -391,720 0,148 24,284 65,398z"/>
     <path class="fil12" d="M5673 2884l-184 -270c0,0 -80,626 -1502,848 -1422,221 -2327,-111 -2691,-768 -364,-657 -736,641 -736,688 0,48 316,768 498,816 182,47 1987,166 2209,166 221,0 950,71 1068,0 119,-71 341,-214 436,-293 95,-79 902,-1187 902,-1187z"/>
     <path class="fil13" style="mask:url(#id14)" d="M4509 620l178 400c-668,-753 -1948,-657 -2643,-4 0,0 194,-574 221,-598 28,-23 922,-463 978,-451 55,12 570,127 609,155 40,27 309,110 353,150 43,40 304,348 304,348z"/>
    </g>
   </g>
   <path class="fil3" d="M4687 958c331,400 465,873 567,1018 102,144 414,591 96,1116 -319,525 -1568,683 -1899,670 -29,-1 -56,-3 -83,-5 -27,2 -55,4 -83,5 -332,13 -1580,-145 -1899,-670 -319,-525 -6,-972 96,-1116 102,-145 235,-618 567,-1018 211,-255 504,-425 825,-510 -41,-16 -64,-42 -14,-83 112,-94 362,-60 362,-60 0,0 -279,-71 -125,-115 153,-44 377,89 377,89 0,0 3,-3 -73,-55 -75,-52 -145,-203 68,-96 153,76 302,232 374,315 328,83 629,255 844,515z"/>
   <ellipse class="fil14" cx="4149" cy="1898" rx="265" ry="352"/>
   <ellipse class="fil15" cx="4037" cy="2003" rx="78" ry="104"/>
   <ellipse class="fil14" cx="2597" cy="1898" rx="265" ry="352"/>
   <path class="fil3" d="M3791 2615c0,0 -105,176 -289,172 -184,-4 -168,-210 -168,-210"/>
   <path class="fil3" d="M2867 2615c0,0 104,176 288,172 184,-4 169,-210 169,-210"/>
   <g>
    <ellipse class="fil16" cx="2366" cy="2445" rx="208" ry="125"/>
    <ellipse class="fil16" cx="4370" cy="2445" rx="208" ry="125"/>
   </g>
   <ellipse class="fil17" cx="3368" cy="3024" rx="926" ry="623"/>
   <path class="fil18" d="M3353 2362c-27,5 -78,9 -126,-16 -71,-36 -98,-39 -153,-10 -54,28 -49,107 -39,126 11,20 34,46 56,30 22,-16 32,-27 76,-8 44,20 75,80 125,98 61,21 90,21 151,0 51,-18 81,-78 126,-98 44,-19 53,-8 75,8 22,16 46,-10 56,-30 11,-19 16,-98 -39,-126 -55,-29 -82,-26 -152,10 -49,25 -100,21 -128,16 -8,-2 -19,-2 -28,0z"/>
   <g style="clip-path:url(#id16)">
    <g>
     <path id="1" class="fil19" style="mask:url(#id17)" d="M2987 2433c4,-4 53,-61 53,-61 0,0 -6,88 44,72 49,-16 59,-32 97,-20 39,12 93,110 159,119 65,8 113,-23 140,-55 26,-31 73,-76 114,-78 41,-3 48,15 69,34 21,20 46,-37 35,-68 -12,-30 51,27 51,27l40 117c0,0 -50,62 -121,77 -70,14 -183,31 -204,37 -21,7 -73,63 -165,27 -92,-36 -131,-37 -198,-62 -68,-25 -114,-166 -114,-166z"/>
    </g>
   </g>
   <path class="fil3" d="M3353 2362c-27,5 -78,9 -126,-16 -71,-36 -98,-39 -153,-10 -54,28 -49,107 -39,126 11,20 34,46 56,30 22,-16 32,-27 76,-8 44,20 75,80 125,98 61,21 90,21 151,0 51,-18 81,-78 126,-98 44,-19 53,-8 75,8 22,16 46,-10 56,-30 11,-19 16,-98 -39,-126 -55,-29 -82,-26 -152,10 -49,25 -100,21 -128,16 -8,-2 -19,-2 -28,0z"/>
   <g>
    <path class="fil11" d="M3815 2556c0,0 508,-130 812,-130 305,0 357,18 357,18 0,0 -396,-18 -1169,112z"/>
    <path class="fil11" d="M3877 2639c0,0 524,-9 821,61 296,70 342,100 342,100 0,0 -381,-108 -1163,-161z"/>
    <path class="fil11" d="M3806 2755c0,0 514,105 788,238 274,133 313,172 313,172 0,0 -349,-189 -1101,-410z"/>
   </g>
   <g>
    <path class="fil11" d="M2943 2556c0,0 -508,-130 -812,-130 -305,0 -357,18 -357,18 0,0 396,-18 1169,112z"/>
    <path class="fil11" d="M2881 2639c0,0 -524,-9 -821,61 -296,70 -343,100 -343,100 0,0 382,-108 1164,-161z"/>
    <path class="fil11" d="M2952 2755c0,0 -514,105 -788,238 -274,133 -313,172 -313,172 0,0 349,-189 1101,-410z"/>
   </g>
   <ellipse class="fil15" cx="2516" cy="2014" rx="78" ry="104"/>
   <path class="fil20" d="M3008 2920c2,18 127,135 312,130 185,-5 258,-143 258,-143 0,0 21,-29 -28,-36 -83,-11 -101,123 -235,123 -57,0 -119,-15 -238,-87 -33,-20 -76,-19 -69,13z"/>
   <g>
    <path class="fil0" d="M49 5331c-2,-19 4,-38 16,-54l465 -603c16,-20 37,-31 63,-31l5343 0c27,0 49,12 64,34l428 603c11,15 16,33 14,51l0 272c0,43 -35,78 -79,78l-140 0 0 1552c0,43 -35,78 -78,78l-5799 0c-43,0 -79,-35 -79,-78l0 -1552 -140 0c-43,0 -78,-35 -78,-78l0 -272z"/>
   </g>
   <g>
    <rect class="fil21" x="346" y="5295" width="5799" height="1938"/>
    <rect class="fil22" x="127" y="5325" width="6236" height="278"/>
    <polygon class="fil23" points="127,5325 6363,5325 5936,4722 593,4722 "/>
   </g>
   <g>
    <path class="fil0" d="M2471 4701l2053 0c32,0 58,26 58,58l0 368c0,32 -26,58 -58,58l-2053 0c-32,0 -59,-26 -59,-58l0 -368c0,-32 27,-58 59,-58z"/>
   </g>
   <rect class="fil11" x="2471" y="4759" width="2053" height="368"/>
   <g>
    <path class="fil0" d="M2557 4068c-9,-63 -1,-136 65,-164 45,-20 105,-9 148,11 8,4 14,8 19,15l694 936c6,8 9,16 10,25l18 171c2,19 -6,36 -21,46 -15,11 -33,13 -50,5l-157 -74c-8,-4 -14,-8 -19,-15l-697 -934c-5,-6 -8,-13 -10,-22z"/>
   </g>
   <path class="fil24" d="M2607 4061l697 933 157 74 -18 -172 -694 -936c0,0 -169,-78 -142,101z"/>
   <g style="clip-path:url(#id19)">
    <g>
     <rect class="fil25" transform="matrix(0.855896 -0.517148 0.517148 0.855896 2582.6 4069.28)" width="234.374" height="53.8189"/>
     <path class="fil26" style="mask:url(#id20)" d="M3287 5012l17 -18 139 -98c0,0 73,-4 75,3 3,7 15,176 15,176 0,0 -180,65 -185,54 -4,-11 -61,-117 -61,-117z"/>
    </g>
   </g>
   <path class="fil3" d="M2607 4061l697 933 157 74 -18 -172 -694 -936c0,0 -169,-78 -142,101z"/>
   <g>
    <path class="fil0" d="M2434 4200c37,9 74,20 110,31 136,41 272,95 396,165 35,19 68,40 100,62 124,86 229,237 199,393 -24,126 -125,202 -241,240 -170,55 -388,37 -562,10 -136,-22 -272,-46 -407,-75 -97,-22 -197,-47 -291,-82 -129,-48 -258,-117 -318,-248 -33,-72 -40,-150 -37,-228 14,-306 284,-974 628,-1023 105,-15 229,-32 325,24 99,57 132,166 141,273 11,142 -14,310 -43,458z"/>
   </g>
   <path class="fil10" d="M2331 4266c0,0 389,77 659,265 271,187 287,615 -540,483 -826,-132 -993,-243 -979,-542 14,-298 278,-900 552,-940 274,-39 474,-47 308,734z"/>
   <g style="clip-path:url(#id22)">
    <g>
     <ellipse class="fil8" cx="3002" cy="4858" rx="559" ry="486"/>
     <path class="fil2" style="mask:url(#id23)" d="M1207 4396l377 -352c0,0 -241,489 340,764 582,275 1320,182 1187,-153 -133,-336 388,-100 409,-51 21,49 208,531 132,611 -77,80 -188,281 -639,181 -452,-101 278,128 -597,-101 -875,-229 -1431,-229 -1209,-899z"/>
    </g>
   </g>
   <path class="fil3" d="M2331 4266c0,0 389,77 659,265 271,187 287,615 -540,483 -826,-132 -993,-243 -979,-542 14,-298 278,-900 552,-940 274,-39 474,-47 308,734z"/>
   <g>
    <path class="fil0" d="M4526 4170c-29,-147 -54,-315 -42,-457 8,-107 42,-216 140,-273 97,-56 221,-39 326,-24 344,49 613,717 627,1023 4,78 -3,156 -36,228 -61,130 -190,200 -319,248 -94,34 -193,60 -291,81 -134,30 -271,54 -407,75 -174,28 -391,46 -562,-10 -116,-37 -217,-113 -241,-239 -30,-157 76,-308 199,-393 32,-22 66,-43 100,-62 124,-70 261,-124 397,-165 35,-11 72,-22 109,-32z"/>
   </g>
   <path class="fil10" d="M4630 4237c0,0 -389,77 -660,264 -271,188 -286,616 540,484 827,-132 993,-243 979,-542 -14,-299 -277,-901 -552,-940 -274,-39 -474,-47 -307,734z"/>
   <g style="clip-path:url(#id25)">
    <g>
     <ellipse class="fil8" cx="3958" cy="4828" rx="559" ry="486"/>
     <path class="fil2" style="mask:url(#id26)" d="M5753 4367l-376 -352c0,0 240,489 -341,764 -581,275 -1320,182 -1187,-154 133,-335 -387,-99 -408,-50 -21,48 -209,531 -132,611 76,80 187,281 639,181 451,-101 -278,128 597,-101 875,-229 1430,-229 1208,-899z"/>
    </g>
   </g>
   <path class="fil3" d="M4630 4237c0,0 -389,77 -660,264 -271,188 -286,616 540,484 827,-132 993,-243 979,-542 -14,-299 -277,-901 -552,-940 -274,-39 -474,-47 -307,734z"/>
  </g>
 </g>
</svg>
