<?xml version="1.0" encoding="UTF-8"?>
<!DOCTYPE svg PUBLIC "-//W3C//DTD SVG 1.1//EN" "http://www.w3.org/Graphics/SVG/1.1/DTD/svg11.dtd">
<!-- Creator: CorelDRAW X8 -->
<svg xmlns="http://www.w3.org/2000/svg" xml:space="preserve" width="6.03237in" height="6.88453in" version="1.1" style="shape-rendering:geometricPrecision; text-rendering:geometricPrecision; image-rendering:optimizeQuality; fill-rule:evenodd; clip-rule:evenodd"
viewBox="0 0 5403 6166"
 xmlns:xlink="http://www.w3.org/1999/xlink">
 <defs>
  <style type="text/css">
   <![CDATA[
    .str1 {stroke:#332C2B;stroke-width:7.0521}
    .str0 {stroke:black;stroke-width:7.0521}
    .fil3 {fill:none}
    .fil16 {fill:#FEFEFE}
    .fil12 {fill:#FEFEFE}
    .fil19 {fill:#E95A6F}
    .fil17 {fill:#E61D4C}
    .fil20 {fill:#AF3548}
    .fil15 {fill:#1D1819}
    .fil22 {fill:#1D1819}
    .fil6 {fill:#1D1819}
    .fil0 {fill:black}
    .fil5 {fill:#663D00}
    .fil4 {fill:#855000}
    .fil7 {fill:#AD7600}
    .fil13 {fill:#D4991A}
    .fil2 {fill:#D4991A}
    .fil9 {fill:#E8C979}
    .fil10 {fill:#E8C979}
    .fil11 {fill:#F4B732}
    .fil1 {fill:#F4B732}
    .fil14 {fill:#F7CA68}
    .fil21 {fill:#F7CA68}
    .fil18 {fill:#F8DD96}
    .fil8 {fill:#F8DD96}
   ]]>
  </style>
     <clipPath id="id0">
      <path d="M1889 4497c0,0 -492,321 -867,302 -376,-19 -526,-399 -509,-464 17,-66 -77,-47 -77,-47 0,0 -92,356 337,571 430,215 1016,-14 1105,1 90,16 11,-363 11,-363z"/>
     </clipPath>
     <clipPath id="id1">
      <path d="M538 4351c0,0 -111,24 -205,-61 -94,-85 -111,-177 -170,-220 -60,-43 -82,-48 -82,-48 0,0 55,-16 88,-5 33,10 33,10 33,10 0,0 -34,-140 23,-264 58,-125 96,-145 96,-145l-20 83c0,0 146,-213 319,-208 173,6 207,14 207,14 0,0 -194,170 -163,393 32,223 -6,368 -126,451z"/>
     </clipPath>
       <mask id="id2">
  <linearGradient id="id3" gradientUnits="userSpaceOnUse" x1="257.934" y1="4536.28" x2="439.857" y2="2992.27">
   <stop offset="0" style="stop-opacity:1; stop-color:white"/>
   <stop offset="1" style="stop-opacity:0; stop-color:white"/>
  </linearGradient>
        <rect style="fill:url(#id3)" x="-345" y="3407" width="1178" height="1209"/>
       </mask>
      <clipPath id="id4">
       <path d="M1081 381c-75,-10 -191,-4 -191,-4 0,0 -108,120 -116,134 -8,14 -62,149 -62,149 0,0 -155,561 194,978 349,417 642,307 795,230 153,-78 142,-346 142,-346l24 -401c0,0 -69,-273 -786,-740z"/>
      </clipPath>
        <mask id="id5">
  <linearGradient id="id6" gradientUnits="userSpaceOnUse" x1="1982.35" y1="1173.11" x2="-154.081" y2="1056.49">
   <stop offset="0" style="stop-opacity:1; stop-color:white"/>
   <stop offset="1" style="stop-opacity:0; stop-color:white"/>
  </linearGradient>
         <rect style="fill:url(#id6)" x="1097" y="591" width="704" height="1137"/>
        </mask>
     <clipPath id="id7">
      <path d="M4878 381c74,-10 191,-4 191,-4 0,0 108,120 116,134 7,14 62,149 62,149 0,0 155,561 -194,978 -350,417 -642,307 -795,230 -154,-78 -142,-346 -142,-346l-24 -401c0,0 69,-273 786,-740z"/>
     </clipPath>
       <mask id="id8">
  <linearGradient id="id9" gradientUnits="userSpaceOnUse" x1="3976.01" y1="1173.11" x2="6112.43" y2="1056.49">
   <stop offset="0" style="stop-opacity:1; stop-color:white"/>
   <stop offset="1" style="stop-opacity:0; stop-color:white"/>
  </linearGradient>
        <rect style="fill:url(#id9)" x="4158" y="591" width="704" height="1137"/>
       </mask>
    <clipPath id="id10">
     <path d="M3770 3600c59,-45 66,-333 66,-333l376 -91c0,0 419,498 753,758 334,260 438,438 297,601 -141,164 -505,127 -772,-81 -268,-208 -750,-683 -750,-683l30 -171z"/>
    </clipPath>
     <clipPath id="id11">
      <path d="M5018 3976c-93,72 -235,200 -303,363 -33,78 -54,150 -69,213 238,116 501,116 616,-17 133,-154 47,-321 -244,-559z"/>
     </clipPath>
     <clipPath id="id12">
      <path d="M3770 3600c59,-45 66,-333 66,-333l376 -91c0,0 419,498 753,758 334,260 438,438 297,601 -141,164 -505,127 -772,-81 -268,-208 -750,-683 -750,-683l30 -171z"/>
     </clipPath>
    <clipPath id="id13">
     <path d="M3909 3278c0,0 45,65 104,183 49,91 99,199 148,325 130,338 174,717 160,1084 -12,299 -70,525 -152,692 -174,357 -487,541 -643,522 -229,-27 -257,-331 -216,-725 39,-375 -556,-375 -517,0 41,394 13,698 -216,725 -156,19 -469,-165 -643,-522 -82,-167 -140,-393 -152,-692 -14,-367 30,-746 160,-1084 49,-126 99,-234 148,-325 60,-118 104,-183 104,-183l8 -2c151,-221 271,-286 271,-286l579 116 578 -116c0,0 120,65 271,286l8 2z"/>
    </clipPath>
     <clipPath id="id14">
      <path d="M3021 3141c-378,0 -685,351 -685,784 0,432 307,783 685,783 377,0 684,-351 684,-783 0,-433 -307,-784 -684,-784z"/>
     </clipPath>
     <clipPath id="id15">
      <path d="M3909 3278c0,0 45,65 104,183 49,91 99,199 148,325 130,338 174,717 160,1084 -12,299 -70,525 -152,692 -174,357 -487,541 -643,522 -229,-27 -257,-331 -216,-725 39,-375 -556,-375 -517,0 41,394 13,698 -216,725 -156,19 -469,-165 -643,-522 -82,-167 -140,-393 -152,-692 -14,-367 30,-746 160,-1084 49,-126 99,-234 148,-325 60,-118 104,-183 104,-183l8 -2c151,-221 271,-286 271,-286l579 116 578 -116c0,0 120,65 271,286l8 2z"/>
     </clipPath>
    <clipPath id="id16">
     <path d="M4202 858c297,359 416,782 508,911 91,130 371,530 85,1000 -285,471 -1403,612 -1700,600 -26,-1 -50,-2 -74,-4 -25,2 -49,3 -75,4 -297,12 -1415,-129 -1700,-600 -286,-470 -6,-870 85,-1000 92,-129 211,-552 508,-911 189,-229 452,-381 739,-457 -36,-14 -57,-37 -12,-75 100,-84 324,-53 324,-53 0,0 -250,-63 -112,-103 137,-39 338,79 338,79 0,0 2,-2 -65,-48 -68,-47 -131,-182 60,-87 137,69 270,209 335,283 294,74 563,228 756,461z"/>
    </clipPath>
      <mask id="id17">
  <linearGradient id="id18" gradientUnits="userSpaceOnUse" x1="2922.99" y1="-26.2127" x2="2943.36" y2="548.029">
   <stop offset="0" style="stop-opacity:1; stop-color:white"/>
   <stop offset="1" style="stop-opacity:0; stop-color:white"/>
  </linearGradient>
       <rect style="fill:url(#id18)" x="1831" y="-33" width="2375" height="950"/>
      </mask>
    <clipPath id="id19">
     <path d="M3008 2115c-25,5 -71,9 -114,-14 -63,-32 -87,-35 -136,-9 -49,26 -45,96 -35,113 9,18 30,41 50,27 20,-14 28,-25 68,-7 39,17 67,72 112,87 55,19 81,19 135,0 45,-15 73,-70 112,-87 40,-18 48,-7 68,7 20,14 41,-9 50,-27 10,-17 14,-87 -35,-113 -49,-26 -73,-23 -136,9 -44,23 -90,19 -114,14 -8,-1 -18,-1 -25,0z"/>
    </clipPath>
      <mask id="id20">
  <linearGradient id="id21" gradientUnits="userSpaceOnUse" x1="3056.5" y1="2481.76" x2="3033.76" y2="2028.15">
   <stop offset="0" style="stop-opacity:1; stop-color:white"/>
   <stop offset="1" style="stop-opacity:0; stop-color:white"/>
  </linearGradient>
       <rect style="fill:url(#id21)" x="2676" y="2117" width="726" height="281"/>
      </mask>
    <clipPath id="id22">
     <path d="M2376 2865c341,-28 315,349 -60,864 -375,515 -570,662 -840,489 -525,-335 418,-1313 900,-1353z"/>
    </clipPath>
     <clipPath id="id23">
      <path d="M1846 3131c64,99 183,263 306,327 102,52 207,82 280,99 260,-425 245,-717 -56,-692 -151,13 -348,118 -530,266z"/>
     </clipPath>
     <clipPath id="id24">
      <path d="M2376 2865c341,-28 315,349 -60,864 -375,515 -570,662 -840,489 -525,-335 418,-1313 900,-1353z"/>
     </clipPath>
 </defs>
 <g id="Layer_x0020_1">
  <metadata id="CorelCorpID_0Corel-Layer"/>
  <g id="_1916735664016">
   <g>
    <path class="fil0" d="M347 4398c-24,-13 -47,-29 -68,-48 -48,-43 -80,-89 -113,-144 -12,-19 -32,-57 -51,-71 -14,-10 -40,-29 -57,-36 -34,-10 -57,-39 -58,-75 -1,-37 22,-69 58,-80 17,-4 35,-8 53,-10 0,-72 14,-146 41,-205 25,-54 76,-153 132,-182 17,-9 36,-12 53,-8 42,-38 88,-71 133,-92 47,-23 100,-36 153,-34 57,2 115,4 172,9 16,2 35,3 51,7 30,7 52,29 59,59 8,30 -2,59 -25,80 -28,25 -59,64 -79,96 -42,66 -68,145 -57,225 26,185 18,388 -137,511 3,8 6,15 8,21 20,45 48,89 80,128 85,101 197,163 331,169 96,5 197,-15 289,-42 126,-37 251,-92 367,-153 55,-29 111,-60 163,-94 23,-15 49,-17 75,-7 25,11 42,31 48,58 12,61 22,126 28,188 9,81 21,224 -70,265 -19,8 -39,10 -59,7 -12,0 -32,4 -43,7 -32,6 -64,13 -96,20 -93,20 -186,38 -280,50 -238,30 -493,24 -711,-86 -175,-87 -320,-223 -372,-416 -9,-35 -15,-76 -18,-117z"/>
   </g>
   <g>
    <path class="fil1" d="M1889 4497c0,0 -492,321 -867,302 -376,-19 -526,-399 -509,-464 17,-66 -77,-47 -77,-47 0,0 -92,356 337,571 430,215 1016,-14 1105,1 90,16 11,-363 11,-363z"/>
    <g style="clip-path:url(#id0)">
     <g>
      <path id="1" class="fil2" d="M1884 4731c0,0 -465,240 -950,126 -485,-114 -458,-563 -498,-569 -40,-7 -152,-9 -148,40 5,49 70,433 80,447 9,14 762,329 844,336 81,7 270,91 479,-26 209,-116 193,-354 193,-354z"/>
     </g>
    </g>
    <path class="fil3" d="M1889 4497c0,0 -492,321 -867,302 -376,-19 -526,-399 -509,-464 17,-66 -77,-47 -77,-47 0,0 -92,356 337,571 430,215 1016,-14 1105,1 90,16 11,-363 11,-363z"/>
    <path class="fil4" d="M538 4351c0,0 -111,24 -205,-61 -94,-85 -111,-177 -170,-220 -60,-43 -82,-48 -82,-48 0,0 55,-16 88,-5 33,10 33,10 33,10 0,0 -34,-140 23,-264 58,-125 96,-145 96,-145l-20 83c0,0 146,-213 319,-208 173,6 207,14 207,14 0,0 -194,170 -163,393 32,223 -6,368 -126,451z"/>
    <g style="clip-path:url(#id1)">
     <g>
      <path id="1" class="fil5" style="mask:url(#id2)" d="M759 4062c-2,-11 -97,-234 -97,-234 0,0 -40,17 -40,194 0,177 -71,287 -186,266 -115,-22 -142,-78 -155,-155 -13,-77 -200,-111 -200,-111l35 -54 84 50 39 25c0,0 -1,-195 25,-243 25,-47 25,-47 25,-47l-4 39c0,0 145,-198 313,-245 169,-46 229,-40 229,-40 0,0 28,-60 -96,-83 -123,-24 -312,-14 -391,16 -80,30 -264,198 -313,238 -49,40 -259,163 -292,257 -32,93 -191,331 75,447 266,117 150,320 509,187 358,-133 573,-187 440,-507z"/>
     </g>
    </g>
    <path class="fil3" d="M538 4351c0,0 -111,24 -205,-61 -94,-85 -111,-177 -170,-220 -60,-43 -82,-48 -82,-48 0,0 55,-16 88,-5 33,10 33,10 33,10 0,0 -34,-140 23,-264 58,-125 96,-145 96,-145l-20 83c0,0 146,-213 319,-208 173,6 207,14 207,14 0,0 -194,170 -163,393 32,223 -6,368 -126,451z"/>
   </g>
   <g>
    <g>
     <path class="fil0 str0" d="M1938 1281c22,-6 43,-13 63,-21 101,-38 194,-102 255,-192 124,-185 64,-398 -54,-569l-25 -36 -44 2c-59,2 -138,-11 -195,-22 -175,-35 -345,-102 -500,-188 -175,-96 -377,-136 -559,-34 -101,56 -203,169 -228,285 -8,34 -21,95 -20,145 -28,106 -37,239 -34,345 6,254 82,497 247,694 134,160 309,305 524,329 133,14 252,-20 369,-79 31,-16 58,-37 81,-63 78,-88 109,-238 105,-354l15 -242z"/>
    </g>
    <g>
     <path class="fil2" d="M1081 381c-75,-10 -191,-4 -191,-4 0,0 -108,120 -116,134 -8,14 -62,149 -62,149 0,0 -155,561 194,978 349,417 642,307 795,230 153,-78 142,-346 142,-346l24 -401c0,0 -69,-273 -786,-740z"/>
     <g style="clip-path:url(#id4)">
      <g>
       <path id="1" class="fil6" d="M1192 541c-24,27 -302,133 -299,501 2,368 204,601 361,650 156,50 396,-87 396,-87 0,0 -27,200 -469,270 -443,70 -1048,-724 -974,-831 73,-107 462,-597 462,-597l223 -9c0,0 261,-8 300,103z"/>
       <path class="fil7" style="mask:url(#id5)" d="M1495 791c-100,-56 -395,-197 -395,-197 0,0 180,285 208,558 28,273 -32,573 -32,573 0,0 1008,-147 219,-934z"/>
      </g>
     </g>
     <path class="fil3 str1" d="M1081 381c-75,-10 -191,-4 -191,-4 0,0 -108,120 -116,134 -8,14 -62,149 -62,149 0,0 -155,561 194,978 349,417 642,307 795,230 153,-78 142,-346 142,-346l24 -401c0,0 -69,-273 -786,-740z"/>
     <path class="fil1" d="M2136 545c0,0 -321,11 -738,-219 -416,-230 -641,72 -668,197 -28,125 -17,148 -17,148 0,0 94,-277 358,-97 264,179 281,523 560,626 279,104 852,-150 505,-655z"/>
    </g>
   </g>
   <g>
    <path class="fil0 str0" d="M4021 1281c-22,-6 -44,-13 -64,-21 -100,-38 -194,-102 -255,-192 -124,-185 -63,-398 54,-569l25 -36 44 2c60,2 138,-11 196,-22 174,-35 345,-102 500,-188 175,-96 376,-136 558,-34 101,56 203,169 228,285 8,34 22,95 21,145 27,106 36,239 34,345 -7,254 -83,497 -248,694 -134,160 -309,305 -524,329 -133,14 -252,-20 -369,-79 -31,-16 -58,-37 -81,-63 -78,-88 -109,-238 -105,-354l-14 -242z"/>
   </g>
   <g>
    <path class="fil2" d="M4878 381c74,-10 191,-4 191,-4 0,0 108,120 116,134 7,14 62,149 62,149 0,0 155,561 -194,978 -350,417 -642,307 -795,230 -154,-78 -142,-346 -142,-346l-24 -401c0,0 69,-273 786,-740z"/>
    <g style="clip-path:url(#id7)">
     <g>
      <path id="1" class="fil6" d="M4767 541c23,27 302,133 299,501 -3,368 -204,601 -361,650 -157,50 -397,-87 -397,-87 0,0 27,200 470,270 442,70 1047,-724 974,-831 -74,-107 -463,-597 -463,-597l-223 -9c0,0 -261,-8 -299,103z"/>
      <path class="fil7" style="mask:url(#id8)" d="M4463 791c101,-56 395,-197 395,-197 0,0 -180,285 -208,558 -28,273 33,573 33,573 0,0 -1009,-147 -220,-934z"/>
     </g>
    </g>
    <path class="fil3 str1" d="M4878 381c74,-10 191,-4 191,-4 0,0 108,120 116,134 7,14 62,149 62,149 0,0 155,561 -194,978 -350,417 -642,307 -795,230 -154,-78 -142,-346 -142,-346l-24 -401c0,0 69,-273 786,-740z"/>
    <path class="fil1" d="M3823 545c0,0 321,11 737,-219 416,-230 641,72 669,197 27,125 16,148 16,148 0,0 -94,-277 -358,-97 -264,179 -280,523 -560,626 -279,104 -852,-150 -504,-655z"/>
   </g>
   <g>
    <path class="fil0" d="M3717 3540c26,-44 38,-225 40,-275l1 -62 483 -116 32 38c48,56 97,112 147,167 107,120 218,237 334,349 82,80 169,159 260,230 203,158 545,442 308,717 -99,115 -264,140 -407,125 -170,-18 -340,-92 -474,-196 -110,-85 -216,-180 -318,-274 -149,-135 -296,-274 -439,-415l-30 -30 42 -243 21 -15z"/>
   </g>
   <path class="fil1" d="M3770 3600c59,-45 66,-333 66,-333l376 -91c0,0 419,498 753,758 334,260 438,438 297,601 -141,164 -505,127 -772,-81 -268,-208 -750,-683 -750,-683l30 -171z"/>
   <g style="clip-path:url(#id10)">
    <g>
     <path id="1" class="fil2" d="M5399 4541l-112 -151c0,0 -116,137 -428,77 -312,-59 -683,-585 -683,-585l-75 582 1294 538 4 -461z"/>
     <path class="fil8" d="M5108 3914c0,0 -287,170 -393,425 -107,256 -96,447 -96,447 0,0 432,85 468,67 35,-17 418,-127 446,-184 29,-57 128,-259 114,-301 -14,-43 -149,-245 -149,-245l-390 -209z"/>
    </g>
    <g style="clip-path:url(#id11)">
     <g>
      <path id="1" class="fil9" d="M5399 4541l-112 -151c0,0 -116,137 -428,77 -312,-59 -683,-585 -683,-585l-75 582 1294 538 4 -461z"/>
     </g>
    </g>
    <g style="clip-path:url(#id12)">
     <path class="fil3" d="M5108 3914c0,0 -287,170 -393,425 -107,256 -96,447 -96,447 0,0 432,85 468,67 35,-17 418,-127 446,-184 29,-57 128,-259 114,-301 -14,-43 -149,-245 -149,-245l-390 -209z"/>
    </g>
   </g>
   <path class="fil3" d="M3770 3600c59,-45 66,-333 66,-333l376 -91c0,0 419,498 753,758 334,260 438,438 297,601 -141,164 -505,127 -772,-81 -268,-208 -750,-683 -750,-683l30 -171z"/>
   <g>
    <path class="fil0" d="M4085 3424c57,107 107,219 151,333 136,351 180,741 165,1116 -9,245 -52,503 -160,725 -81,167 -203,320 -353,431 -98,72 -245,150 -371,135 -51,-6 -99,-23 -141,-54 -201,-146 -169,-543 -146,-759 6,-62 -9,-120 -61,-157 -34,-24 -77,-35 -117,-35 -116,0 -191,74 -179,192 23,216 55,613 -146,759 -42,31 -90,48 -140,54 -127,15 -274,-63 -372,-135 -150,-111 -272,-264 -353,-431 -108,-222 -151,-480 -160,-725 -15,-375 29,-765 165,-1116 44,-114 94,-226 151,-333 32,-63 69,-133 109,-191l19 -28 8 -1c55,-77 116,-151 186,-213 27,-25 62,-54 94,-72l26 -14 592 119 591 -119 26 14c32,18 67,47 94,72 70,62 131,136 186,213l8 1 19 28c40,58 77,128 109,191z"/>
   </g>
   <path class="fil1" d="M3909 3278c0,0 45,65 104,183 49,91 99,199 148,325 130,338 174,717 160,1084 -12,299 -70,525 -152,692 -174,357 -487,541 -643,522 -229,-27 -257,-331 -216,-725 39,-375 -556,-375 -517,0 41,394 13,698 -216,725 -156,19 -469,-165 -643,-522 -82,-167 -140,-393 -152,-692 -14,-367 30,-746 160,-1084 49,-126 99,-234 148,-325 60,-118 104,-183 104,-183l8 -2c151,-221 271,-286 271,-286l579 116 578 -116c0,0 120,65 271,286l8 2z"/>
   <g style="clip-path:url(#id13)">
    <g>
     <path id="1" class="fil2" d="M4123 3358c-46,14 -397,223 -1163,156 -766,-68 -1024,-199 -1024,-199 0,0 205,-262 241,-269 35,-7 1038,-39 1081,-14 42,24 524,170 567,194 42,25 298,132 298,132z"/>
     <path class="fil2" d="M3021 3141c-378,0 -685,351 -685,784 0,432 307,783 685,783 377,0 684,-351 684,-783 0,-433 -307,-784 -684,-784z"/>
    </g>
    <g style="clip-path:url(#id14)">
     <g>
      <ellipse class="fil8" cx="3028" cy="3854" rx="684" ry="783"/>
      <path class="fil10" d="M4123 3358c-46,14 -397,223 -1163,156 -766,-68 -1024,-199 -1024,-199 0,0 205,-262 241,-269 35,-7 1038,-39 1081,-14 42,24 524,170 567,194 42,25 298,132 298,132z"/>
     </g>
    </g>
    <g style="clip-path:url(#id15)">
     <path class="fil3" d="M3021 3141c-378,0 -685,351 -685,784 0,432 307,783 685,783 377,0 684,-351 684,-783 0,-433 -307,-784 -684,-784z"/>
     <path class="fil8" d="M4222 5825c0,0 -64,-213 -323,-316 -258,-102 -599,-30 -599,-30l-74 420 188 146c0,0 110,67 145,67 36,0 383,-39 418,-50 36,-10 245,-237 245,-237z"/>
     <path class="fil8" d="M2796 5482l-226 49c0,0 -266,75 -390,351 -124,277 432,447 432,447l202 -309 92 -333 -110 -205z"/>
    </g>
   </g>
   <path class="fil3" d="M3909 3278c0,0 45,65 104,183 49,91 99,199 148,325 130,338 174,717 160,1084 -12,299 -70,525 -152,692 -174,357 -487,541 -643,522 -229,-27 -257,-331 -216,-725 39,-375 -556,-375 -517,0 41,394 13,698 -216,725 -156,19 -469,-165 -643,-522 -82,-167 -140,-393 -152,-692 -14,-367 30,-746 160,-1084 49,-126 99,-234 148,-325 60,-118 104,-183 104,-183l8 -2c151,-221 271,-286 271,-286l579 116 578 -116c0,0 120,65 271,286l8 2z"/>
   <g>
    <path class="fil0" d="M3021 3446c-24,2 -48,3 -72,4 -128,5 -274,-11 -402,-28 -189,-26 -380,-64 -563,-118 -282,-82 -649,-231 -808,-493 -129,-213 -170,-448 -107,-690 39,-149 108,-274 196,-398 26,-38 50,-92 69,-134 33,-74 66,-150 101,-224 93,-199 201,-389 342,-559 178,-216 419,-367 683,-454 4,-30 22,-61 54,-88 37,-31 87,-51 141,-64 0,-1 0,-2 0,-3 1,-59 50,-90 100,-105 46,-13 97,-13 149,-5 2,-14 7,-28 16,-41 53,-81 161,-38 227,-4 126,63 248,176 343,283 300,80 575,241 774,481 141,170 249,360 342,559 35,74 68,150 101,224 19,42 43,96 69,134 88,124 157,249 196,398 63,242 22,477 -107,690 -159,262 -526,411 -808,493 -183,54 -374,92 -563,118 -128,17 -274,33 -402,28 -24,-1 -48,-2 -71,-4z"/>
   </g>
   <path class="fil11" d="M4202 858c297,359 416,782 508,911 91,130 371,530 85,1000 -285,471 -1403,612 -1700,600 -26,-1 -50,-2 -74,-4 -25,2 -49,3 -75,4 -297,12 -1415,-129 -1700,-600 -286,-470 -6,-870 85,-1000 92,-129 211,-552 508,-911 189,-229 452,-381 739,-457 -36,-14 -57,-37 -12,-75 100,-84 324,-53 324,-53 0,0 -250,-63 -112,-103 137,-39 338,79 338,79 0,0 2,-2 -65,-48 -68,-47 -131,-182 60,-87 137,69 270,209 335,283 294,74 563,228 756,461z"/>
   <g style="clip-path:url(#id16)">
    <g>
     <path id="1" class="fil12" d="M8788 1814c-973,62 -1721,428 -1721,870 0,485 902,879 2014,879 1112,0 2013,-394 2013,-879 0,-442 -747,-808 -1721,-870 37,-102 59,-225 59,-357 0,-356 -157,-645 -351,-645 -194,0 -351,289 -351,645 0,132 21,255 58,357z"/>
     <path class="fil13" d="M5085 2583l-165 -241c0,0 -72,560 -1345,758 -1273,199 -2084,-99 -2410,-687 -326,-589 -660,574 -660,616 0,43 284,688 447,731 163,42 1780,148 1978,148 199,0 851,64 957,0 106,-63 305,-191 390,-262 85,-71 808,-1063 808,-1063z"/>
     <path class="fil14" style="mask:url(#id17)" d="M4043 556l159 358c-598,-675 -1745,-589 -2367,-4 0,0 173,-514 198,-535 25,-22 826,-415 876,-404 49,10 510,113 546,138 35,25 276,99 315,135 39,35 273,312 273,312z"/>
    </g>
   </g>
   <path class="fil3" d="M4202 858c297,359 416,782 508,911 91,130 371,530 85,1000 -285,471 -1403,612 -1700,600 -26,-1 -50,-2 -74,-4 -25,2 -49,3 -75,4 -297,12 -1415,-129 -1700,-600 -286,-470 -6,-870 85,-1000 92,-129 211,-552 508,-911 189,-229 452,-381 739,-457 -36,-14 -57,-37 -12,-75 100,-84 324,-53 324,-53 0,0 -250,-63 -112,-103 137,-39 338,79 338,79 0,0 2,-2 -65,-48 -68,-47 -131,-182 60,-87 137,69 270,209 335,283 294,74 563,228 756,461z"/>
   <ellipse class="fil15" cx="3721" cy="1700" rx="237" ry="315"/>
   <ellipse class="fil16" cx="3778" cy="1516" rx="70" ry="93"/>
   <ellipse class="fil15" cx="2330" cy="1700" rx="237" ry="315"/>
   <path class="fil3" d="M3400 2342c0,0 -94,158 -259,154 -165,-4 -151,-188 -151,-188"/>
   <path class="fil3" d="M2572 2342c0,0 94,158 258,154 165,-4 151,-188 151,-188"/>
   <g>
    <ellipse class="fil17" cx="2123" cy="2190" rx="186" ry="112"/>
    <ellipse class="fil17" cx="3918" cy="2190" rx="186" ry="112"/>
   </g>
   <ellipse class="fil18" cx="3021" cy="2708" rx="830" ry="558"/>
   <path class="fil19" d="M3008 2115c-25,5 -71,9 -114,-14 -63,-32 -87,-35 -136,-9 -49,26 -45,96 -35,113 9,18 30,41 50,27 20,-14 28,-25 68,-7 39,17 67,72 112,87 55,19 81,19 135,0 45,-15 73,-70 112,-87 40,-18 48,-7 68,7 20,14 41,-9 50,-27 10,-17 14,-87 -35,-113 -49,-26 -73,-23 -136,9 -44,23 -90,19 -114,14 -8,-1 -18,-1 -25,0z"/>
   <g style="clip-path:url(#id19)">
    <g>
     <path id="1" class="fil20" style="mask:url(#id20)" d="M2679 2179c4,-3 48,-54 48,-54 0,0 -5,79 39,64 44,-15 53,-29 88,-18 34,11 83,99 141,106 59,8 102,-20 126,-48 23,-29 66,-69 102,-71 37,-2 43,14 62,31 19,18 41,-33 31,-61 -11,-27 46,24 46,24l36 105c0,0 -45,56 -108,69 -63,12 -165,28 -183,33 -19,6 -66,57 -148,25 -82,-33 -117,-34 -178,-56 -60,-22 -102,-149 -102,-149z"/>
    </g>
   </g>
   <path class="fil3" d="M3008 2115c-25,5 -71,9 -114,-14 -63,-32 -87,-35 -136,-9 -49,26 -45,96 -35,113 9,18 30,41 50,27 20,-14 28,-25 68,-7 39,17 67,72 112,87 55,19 81,19 135,0 45,-15 73,-70 112,-87 40,-18 48,-7 68,7 20,14 41,-9 50,-27 10,-17 14,-87 -35,-113 -49,-26 -73,-23 -136,9 -44,23 -90,19 -114,14 -8,-1 -18,-1 -25,0z"/>
   <g>
    <path class="fil12" d="M3421 2289c0,0 455,-117 728,-117 272,0 319,17 319,17 0,0 -355,-16 -1047,100z"/>
    <path class="fil12" d="M3477 2364c0,0 469,-9 734,54 266,63 308,90 308,90 0,0 -342,-97 -1042,-144z"/>
    <path class="fil12" d="M3413 2468c0,0 460,93 706,212 245,119 280,154 280,154 0,0 -312,-169 -986,-366z"/>
   </g>
   <g>
    <path class="fil12" d="M2640 2289c0,0 -455,-117 -727,-117 -273,0 -320,17 -320,17 0,0 355,-16 1047,100z"/>
    <path class="fil12" d="M2585 2364c0,0 -470,-9 -735,54 -266,63 -307,90 -307,90 0,0 341,-97 1042,-144z"/>
    <path class="fil12" d="M2648 2468c0,0 -460,93 -705,212 -246,119 -281,154 -281,154 0,0 312,-169 986,-366z"/>
   </g>
   <g>
    <path class="fil0" d="M2370 2788c92,-8 189,8 254,79 95,102 76,260 39,382 -56,184 -171,371 -284,526 -106,145 -227,308 -361,430 -92,84 -202,157 -332,160 -92,1 -176,-33 -252,-81 -77,-49 -136,-116 -167,-202 -53,-149 -8,-313 59,-449 78,-158 198,-307 323,-431 175,-171 469,-394 721,-414z"/>
   </g>
   <path class="fil1" d="M2376 2865c341,-28 315,349 -60,864 -375,515 -570,662 -840,489 -525,-335 418,-1313 900,-1353z"/>
   <g style="clip-path:url(#id22)">
    <g>
     <path id="1" class="fil2" d="M1438 4391c-4,-33 -49,-249 -49,-249 0,0 196,141 454,-22 258,-163 606,-683 668,-938 63,-254 -93,-318 -93,-318 0,0 126,-153 173,-115 46,37 262,153 271,237 10,84 130,-93 -33,322 -164,415 -33,457 -332,737 -298,280 -331,490 -545,425 -215,-66 -514,-79 -514,-79z"/>
     <path class="fil8" d="M1798 3052c0,0 172,312 354,406 182,93 373,116 373,116 0,0 311,-528 271,-569 -40,-41 -23,-317 -142,-303 -119,14 -502,-9 -567,28 -65,37 -289,322 -289,322z"/>
    </g>
    <g style="clip-path:url(#id23)">
     <g>
      <path id="1" class="fil21" d="M1438 4391c-4,-33 -49,-249 -49,-249 0,0 196,141 454,-22 258,-163 606,-683 668,-938 63,-254 -93,-318 -93,-318 0,0 126,-153 173,-115 46,37 262,153 271,237 10,84 130,-93 -33,322 -164,415 -33,457 -332,737 -298,280 -331,490 -545,425 -215,-66 -514,-79 -514,-79z"/>
     </g>
    </g>
    <g style="clip-path:url(#id24)">
     <path class="fil3" d="M1798 3052c0,0 172,312 354,406 182,93 373,116 373,116 0,0 311,-528 271,-569 -40,-41 -23,-317 -142,-303 -119,14 -502,-9 -567,28 -65,37 -289,322 -289,322z"/>
    </g>
   </g>
   <path class="fil3" d="M2376 2865c341,-28 315,349 -60,864 -375,515 -570,662 -840,489 -525,-335 418,-1313 900,-1353z"/>
   <ellipse class="fil16" cx="2392" cy="1516" rx="70" ry="93"/>
   <path class="fil22" d="M2698 2688c2,-16 114,-121 280,-117 165,5 231,129 231,129 0,0 18,25 -25,31 -74,10 -91,-109 -211,-110 -50,0 -106,14 -213,79 -29,17 -68,16 -62,-12z"/>
  </g>
 </g>
</svg>
