<?xml version="1.0" encoding="UTF-8"?>
<!DOCTYPE svg PUBLIC "-//W3C//DTD SVG 1.1//EN" "http://www.w3.org/Graphics/SVG/1.1/DTD/svg11.dtd">
<!-- Creator: CorelDRAW X8 -->
<svg xmlns="http://www.w3.org/2000/svg" xml:space="preserve" width="10in" height="10in" version="1.1" style="shape-rendering:geometricPrecision; text-rendering:geometricPrecision; image-rendering:optimizeQuality; fill-rule:evenodd; clip-rule:evenodd"
viewBox="0 0 10000 10000"
 xmlns:xlink="http://www.w3.org/1999/xlink">
 <defs>
  <style type="text/css">
   <![CDATA[
    .str1 {stroke:#332C2B;stroke-width:7.87402}
    .str0 {stroke:black;stroke-width:7.87402}
    .fil0 {fill:none}
    .fil16 {fill:#FEFEFE}
    .fil12 {fill:#FEFEFE}
    .fil19 {fill:#E95A6F}
    .fil17 {fill:#E61D4C}
    .fil20 {fill:#AF3548}
    .fil15 {fill:#1D1819}
    .fil22 {fill:#1D1819}
    .fil6 {fill:#1D1819}
    .fil1 {fill:black}
    .fil5 {fill:#663D00}
    .fil4 {fill:#855000}
    .fil7 {fill:#AD7600}
    .fil13 {fill:#D4991A}
    .fil3 {fill:#D4991A}
    .fil9 {fill:#E8C979}
    .fil10 {fill:#E8C979}
    .fil11 {fill:#F4B732}
    .fil2 {fill:#F4B732}
    .fil14 {fill:#F7CA68}
    .fil21 {fill:#F7CA68}
    .fil18 {fill:#F8DD96}
    .fil8 {fill:#F8DD96}
   ]]>
  </style>
     <clipPath id="id0">
      <path d="M3741 6550c0,0 -549,358 -968,337 -419,-21 -587,-445 -568,-518 19,-73 -86,-53 -86,-53 0,0 -103,398 377,639 479,240 1134,-16 1234,1 99,17 11,-406 11,-406z"/>
     </clipPath>
     <clipPath id="id1">
      <path d="M2233 6387c0,0 -124,27 -229,-68 -105,-95 -124,-197 -190,-246 -67,-48 -92,-54 -92,-54 0,0 62,-17 99,-5 37,12 37,12 37,12 0,0 -38,-157 26,-296 64,-139 107,-161 107,-161l-22 92c0,0 162,-238 355,-231 194,6 232,15 232,15 0,0 -217,190 -182,438 35,249 -7,412 -141,504z"/>
     </clipPath>
       <mask id="id2">
  <linearGradient id="id3" gradientUnits="userSpaceOnUse" x1="1920.28" y1="6594" x2="2123.4" y2="4870.03">
   <stop offset="0" style="stop-opacity:1; stop-color:white"/>
   <stop offset="1" style="stop-opacity:0; stop-color:white"/>
  </linearGradient>
        <rect style="fill:url(#id3)" x="1247" y="5333" width="1315" height="1350"/>
       </mask>
      <clipPath id="id4">
       <path d="M2839 1955c-83,-12 -213,-5 -213,-5 0,0 -121,134 -130,149 -8,16 -69,167 -69,167 0,0 -173,626 217,1092 389,466 716,343 887,256 171,-86 159,-386 159,-386l27 -448c0,0 -78,-305 -878,-825z"/>
      </clipPath>
        <mask id="id5">
  <linearGradient id="id6" gradientUnits="userSpaceOnUse" x1="3845.67" y1="2838.85" x2="1460.24" y2="2708.64">
   <stop offset="0" style="stop-opacity:1; stop-color:white"/>
   <stop offset="1" style="stop-opacity:0; stop-color:white"/>
  </linearGradient>
         <rect style="fill:url(#id6)" x="2857" y="2189" width="786" height="1270"/>
        </mask>
     <clipPath id="id7">
      <path d="M7079 1955c83,-12 213,-5 213,-5 0,0 120,134 129,149 9,16 70,167 70,167 0,0 172,626 -217,1092 -390,466 -717,343 -888,256 -171,-86 -158,-386 -158,-386l-27 -448c0,0 77,-305 878,-825z"/>
     </clipPath>
       <mask id="id8">
  <linearGradient id="id9" gradientUnits="userSpaceOnUse" x1="6071.69" y1="2838.85" x2="8457.11" y2="2708.64">
   <stop offset="0" style="stop-opacity:1; stop-color:white"/>
   <stop offset="1" style="stop-opacity:0; stop-color:white"/>
  </linearGradient>
        <rect style="fill:url(#id9)" x="6275" y="2189" width="786" height="1270"/>
       </mask>
    <clipPath id="id10">
     <path d="M5841 5549c66,-50 75,-373 75,-373l419 -101c0,0 468,556 841,847 373,290 489,489 331,671 -157,182 -563,141 -862,-91 -298,-232 -837,-763 -837,-763l33 -190z"/>
    </clipPath>
     <clipPath id="id11">
      <path d="M7235 5969c-104,80 -263,223 -339,405 -36,87 -60,167 -76,237 266,131 559,130 687,-18 149,-172 54,-359 -272,-624z"/>
     </clipPath>
     <clipPath id="id12">
      <path d="M5841 5549c66,-50 75,-373 75,-373l419 -101c0,0 468,556 841,847 373,290 489,489 331,671 -157,182 -563,141 -862,-91 -298,-232 -837,-763 -837,-763l33 -190z"/>
     </clipPath>
    <clipPath id="id13">
     <path d="M5997 5189c0,0 50,73 116,205 55,101 111,221 165,362 146,378 195,801 179,1211 -13,333 -79,585 -170,773 -194,397 -544,603 -718,582 -255,-31 -287,-370 -241,-809 44,-419 -621,-419 -577,0 46,439 14,778 -241,809 -174,21 -524,-185 -718,-582 -91,-188 -157,-440 -170,-773 -16,-410 33,-833 179,-1211 54,-141 110,-261 165,-362 66,-132 116,-205 116,-205l9 -2c169,-247 302,-320 302,-320l646 130 647 -130c0,0 133,73 302,320l9 2z"/>
    </clipPath>
     <clipPath id="id14">
      <path d="M5005 5037c-422,0 -764,391 -764,874 0,483 342,875 764,875 422,0 764,-392 764,-875 0,-483 -342,-874 -764,-874z"/>
     </clipPath>
     <clipPath id="id15">
      <path d="M5997 5189c0,0 50,73 116,205 55,101 111,221 165,362 146,378 195,801 179,1211 -13,333 -79,585 -170,773 -194,397 -544,603 -718,582 -255,-31 -287,-370 -241,-809 44,-419 -621,-419 -577,0 46,439 14,778 -241,809 -174,21 -524,-185 -718,-582 -91,-188 -157,-440 -170,-773 -16,-410 33,-833 179,-1211 54,-141 110,-261 165,-362 66,-132 116,-205 116,-205l9 -2c169,-247 302,-320 302,-320l646 130 647 -130c0,0 133,73 302,320l9 2z"/>
     </clipPath>
    <clipPath id="id16">
     <path d="M6324 2487c331,400 465,873 567,1018 102,144 414,591 96,1116 -319,525 -1568,683 -1899,670 -29,-1 -56,-3 -83,-5 -27,2 -55,4 -83,5 -332,13 -1580,-145 -1899,-670 -319,-525 -6,-972 96,-1116 102,-145 235,-618 567,-1018 211,-255 504,-425 825,-510 -41,-16 -64,-42 -14,-83 112,-94 362,-60 362,-60 0,0 -279,-71 -125,-115 153,-44 377,89 377,89 0,0 3,-3 -73,-55 -75,-52 -145,-203 68,-96 153,76 302,232 374,315 328,83 629,255 844,515z"/>
    </clipPath>
      <mask id="id17">
  <linearGradient id="id18" gradientUnits="userSpaceOnUse" x1="4895.94" y1="1499.74" x2="4918.69" y2="2140.91">
   <stop offset="0" style="stop-opacity:1; stop-color:white"/>
   <stop offset="1" style="stop-opacity:0; stop-color:white"/>
  </linearGradient>
       <rect style="fill:url(#id18)" x="3677" y="1492" width="2652" height="1061"/>
      </mask>
    <clipPath id="id19">
     <path d="M4990 3891c-27,5 -78,9 -126,-16 -70,-36 -98,-39 -152,-10 -55,28 -50,107 -40,126 11,20 34,46 56,30 23,-16 32,-27 76,-8 44,20 75,80 126,98 60,21 89,21 150,0 51,-18 81,-78 126,-98 44,-19 53,-8 75,8 22,16 46,-10 56,-30 11,-19 16,-98 -39,-126 -55,-29 -82,-26 -152,10 -49,25 -100,21 -128,16 -8,-2 -19,-2 -28,0z"/>
    </clipPath>
      <mask id="id20">
  <linearGradient id="id21" gradientUnits="userSpaceOnUse" x1="5045.01" y1="4300.02" x2="5019.63" y2="3793.54">
   <stop offset="0" style="stop-opacity:1; stop-color:white"/>
   <stop offset="1" style="stop-opacity:0; stop-color:white"/>
  </linearGradient>
       <rect style="fill:url(#id21)" x="4620" y="3892" width="811" height="314"/>
      </mask>
    <clipPath id="id22">
     <path d="M4285 4728c380,-31 352,389 -67,964 -418,576 -636,739 -938,547 -585,-374 467,-1467 1005,-1511z"/>
    </clipPath>
     <clipPath id="id23">
      <path d="M3693 5025c71,110 204,294 342,365 114,58 232,92 313,110 290,-474 274,-800 -63,-772 -169,14 -388,131 -592,297z"/>
     </clipPath>
     <clipPath id="id24">
      <path d="M4285 4728c380,-31 352,389 -67,964 -418,576 -636,739 -938,547 -585,-374 467,-1467 1005,-1511z"/>
     </clipPath>
 </defs>
 <g id="Layer_x0020_1">
  <metadata id="CorelCorpID_0Corel-Layer"/>
  <rect class="fil0" width="10000" height="10000"/>
  <g id="_2049980238736">
   <g>
    <path class="fil1" d="M2020 6439c-27,-14 -53,-32 -76,-53 -53,-48 -90,-100 -127,-161 -13,-22 -35,-64 -56,-79 -16,-11 -45,-32 -64,-40 -38,-11 -63,-44 -65,-84 -1,-41 25,-78 66,-89 17,-5 38,-9 58,-12 0,-80 16,-163 46,-229 28,-59 85,-171 147,-203 19,-10 40,-13 60,-9 46,-42 98,-79 148,-102 53,-26 111,-40 170,-38 64,2 129,4 193,10 18,2 39,3 57,8 33,8 58,32 66,66 8,33 -2,66 -28,89 -32,27 -66,71 -88,107 -47,74 -76,162 -64,251 29,206 20,433 -153,571 3,9 6,17 9,23 22,51 54,100 89,143 95,113 220,182 370,189 107,6 220,-17 322,-47 141,-41 281,-103 411,-171 60,-32 123,-67 181,-105 26,-17 55,-19 84,-8 28,12 47,35 53,65 14,68 26,141 32,210 9,90 23,250 -78,295 -21,10 -43,12 -66,9 -13,0 -35,5 -48,7 -36,7 -71,15 -107,22 -104,23 -208,43 -313,57 -265,33 -550,26 -793,-96 -196,-98 -358,-249 -416,-465 -10,-39 -17,-85 -20,-131z"/>
   </g>
   <g>
    <path class="fil2" d="M3741 6550c0,0 -549,358 -968,337 -419,-21 -587,-445 -568,-518 19,-73 -86,-53 -86,-53 0,0 -103,398 377,639 479,240 1134,-16 1234,1 99,17 11,-406 11,-406z"/>
    <g style="clip-path:url(#id0)">
     <g>
      <path id="1" class="fil3" d="M3735 6811c0,0 -518,269 -1060,141 -541,-128 -511,-628 -556,-636 -45,-7 -170,-10 -165,45 5,55 78,484 89,500 10,16 851,367 942,375 92,8 302,101 535,-29 234,-130 215,-396 215,-396z"/>
     </g>
    </g>
    <path class="fil0" d="M3741 6550c0,0 -549,358 -968,337 -419,-21 -587,-445 -568,-518 19,-73 -86,-53 -86,-53 0,0 -103,398 377,639 479,240 1134,-16 1234,1 99,17 11,-406 11,-406z"/>
    <path class="fil4" d="M2233 6387c0,0 -124,27 -229,-68 -105,-95 -124,-197 -190,-246 -67,-48 -92,-54 -92,-54 0,0 62,-17 99,-5 37,12 37,12 37,12 0,0 -38,-157 26,-296 64,-139 107,-161 107,-161l-22 92c0,0 162,-238 355,-231 194,6 232,15 232,15 0,0 -217,190 -182,438 35,249 -7,412 -141,504z"/>
    <g style="clip-path:url(#id1)">
     <g>
      <path id="1" class="fil5" style="mask:url(#id2)" d="M2480 6064c-2,-12 -109,-260 -109,-260 0,0 -44,18 -44,216 0,198 -80,321 -208,296 -128,-24 -158,-87 -173,-173 -14,-85 -224,-124 -224,-124l39 -59 94 55 44 28c0,0 -1,-217 28,-271 28,-53 28,-53 28,-53l-5 44c0,0 162,-221 350,-273 189,-52 256,-45 256,-45 0,0 31,-67 -107,-93 -138,-26 -349,-16 -438,18 -88,34 -294,221 -349,266 -54,44 -289,182 -325,286 -37,104 -214,370 83,500 297,130 168,357 568,208 400,-148 641,-208 492,-566z"/>
     </g>
    </g>
    <path class="fil0" d="M2233 6387c0,0 -124,27 -229,-68 -105,-95 -124,-197 -190,-246 -67,-48 -92,-54 -92,-54 0,0 62,-17 99,-5 37,12 37,12 37,12 0,0 -38,-157 26,-296 64,-139 107,-161 107,-161l-22 92c0,0 162,-238 355,-231 194,6 232,15 232,15 0,0 -217,190 -182,438 35,249 -7,412 -141,504z"/>
   </g>
   <g>
    <g>
     <path class="fil1 str0" d="M3796 2959c24,-6 48,-14 71,-23 112,-43 216,-114 284,-215 139,-206 71,-444 -60,-634l-28 -41 -49 2c-67,2 -154,-12 -218,-25 -195,-38 -385,-113 -559,-209 -195,-108 -420,-152 -623,-39 -113,63 -227,189 -255,319 -8,38 -23,106 -23,162 -30,118 -40,267 -37,385 7,284 92,555 276,775 149,179 345,341 585,367 148,16 281,-22 412,-88 34,-18 65,-42 90,-70 88,-99 122,-266 118,-396l16 -270z"/>
    </g>
    <g>
     <path class="fil3" d="M2839 1955c-83,-12 -213,-5 -213,-5 0,0 -121,134 -130,149 -8,16 -69,167 -69,167 0,0 -173,626 217,1092 389,466 716,343 887,256 171,-86 159,-386 159,-386l27 -448c0,0 -78,-305 -878,-825z"/>
     <g style="clip-path:url(#id4)">
      <g>
       <path id="1" class="fil6" d="M2963 2133c-26,30 -337,149 -334,560 3,411 228,670 403,725 175,56 442,-97 442,-97 0,0 -29,224 -523,302 -495,78 -1170,-809 -1088,-928 82,-120 517,-667 517,-667l248 -10c0,0 292,-9 335,115z"/>
       <path class="fil7" style="mask:url(#id5)" d="M3301 2412c-112,-63 -440,-219 -440,-219 0,0 201,318 232,622 31,305 -37,640 -37,640 0,0 1127,-165 245,-1043z"/>
      </g>
     </g>
     <path class="fil0 str1" d="M2839 1955c-83,-12 -213,-5 -213,-5 0,0 -121,134 -130,149 -8,16 -69,167 -69,167 0,0 -173,626 217,1092 389,466 716,343 887,256 171,-86 159,-386 159,-386l27 -448c0,0 -78,-305 -878,-825z"/>
     <path class="fil2" d="M4017 2138c0,0 -359,12 -823,-245 -465,-257 -716,80 -747,220 -31,140 -18,165 -18,165 0,0 105,-309 399,-109 295,201 314,585 625,700 312,116 952,-167 564,-731z"/>
    </g>
   </g>
   <g>
    <path class="fil1 str0" d="M6121 2959c-24,-6 -48,-14 -71,-23 -112,-43 -216,-114 -284,-215 -139,-206 -71,-444 60,-634l28 -41 50 2c66,2 153,-12 218,-25 194,-38 385,-113 558,-209 195,-108 420,-152 624,-39 112,63 226,189 254,319 9,38 24,106 23,162 30,118 41,267 38,385 -8,284 -93,555 -276,775 -150,179 -345,341 -585,367 -149,16 -282,-22 -413,-88 -34,-18 -64,-42 -90,-70 -87,-99 -122,-266 -117,-396l-17 -270z"/>
   </g>
   <g>
    <path class="fil3" d="M7079 1955c83,-12 213,-5 213,-5 0,0 120,134 129,149 9,16 70,167 70,167 0,0 172,626 -217,1092 -390,466 -717,343 -888,256 -171,-86 -158,-386 -158,-386l-27 -448c0,0 77,-305 878,-825z"/>
    <g style="clip-path:url(#id7)">
     <g>
      <path id="1" class="fil6" d="M6954 2133c27,30 338,149 335,560 -3,411 -228,670 -404,725 -175,56 -442,-97 -442,-97 0,0 30,224 524,302 494,78 1169,-809 1087,-928 -81,-120 -516,-667 -516,-667l-249 -10c0,0 -292,-9 -335,115z"/>
      <path class="fil7" style="mask:url(#id8)" d="M6616 2412c112,-63 441,-219 441,-219 0,0 -201,318 -233,622 -31,305 37,640 37,640 0,0 -1126,-165 -245,-1043z"/>
     </g>
    </g>
    <path class="fil0 str1" d="M7079 1955c83,-12 213,-5 213,-5 0,0 120,134 129,149 9,16 70,167 70,167 0,0 172,626 -217,1092 -390,466 -717,343 -888,256 -171,-86 -158,-386 -158,-386l-27 -448c0,0 77,-305 878,-825z"/>
    <path class="fil2" d="M5900 2138c0,0 359,12 824,-245 464,-257 716,80 746,220 31,140 18,165 18,165 0,0 -104,-309 -399,-109 -295,201 -313,585 -625,700 -312,116 -951,-167 -564,-731z"/>
   </g>
   <g>
    <path class="fil1" d="M5783 5481c29,-49 42,-250 44,-307l1 -68 540 -131 35 43c54,63 109,125 164,187 120,133 244,264 373,389 92,90 189,178 290,257 228,177 609,494 345,800 -111,129 -295,157 -455,140 -190,-19 -380,-102 -530,-219 -122,-95 -240,-201 -354,-305 -166,-151 -331,-307 -491,-464l-33 -33 47 -272 24 -17z"/>
   </g>
   <path class="fil2" d="M5841 5549c66,-50 75,-373 75,-373l419 -101c0,0 468,556 841,847 373,290 489,489 331,671 -157,182 -563,141 -862,-91 -298,-232 -837,-763 -837,-763l33 -190z"/>
   <g style="clip-path:url(#id10)">
    <g>
     <path id="1" class="fil3" d="M7660 6599l-125 -168c0,0 -129,153 -477,86 -348,-66 -763,-653 -763,-653l-83 649 1444 601 4 -515z"/>
     <path class="fil8" d="M7336 5899c0,0 -321,190 -440,475 -118,285 -106,499 -106,499 0,0 482,95 522,75 40,-20 467,-142 499,-206 31,-63 142,-289 126,-336 -15,-48 -166,-273 -166,-273l-435 -234z"/>
    </g>
    <g style="clip-path:url(#id11)">
     <g>
      <path id="1" class="fil9" d="M7660 6599l-125 -168c0,0 -129,153 -477,86 -348,-66 -763,-653 -763,-653l-83 649 1444 601 4 -515z"/>
     </g>
    </g>
    <g style="clip-path:url(#id12)">
     <path class="fil0" d="M7336 5899c0,0 -321,190 -440,475 -118,285 -106,499 -106,499 0,0 482,95 522,75 40,-20 467,-142 499,-206 31,-63 142,-289 126,-336 -15,-48 -166,-273 -166,-273l-435 -234z"/>
    </g>
   </g>
   <path class="fil0" d="M5841 5549c66,-50 75,-373 75,-373l419 -101c0,0 468,556 841,847 373,290 489,489 331,671 -157,182 -563,141 -862,-91 -298,-232 -837,-763 -837,-763l33 -190z"/>
   <g>
    <path class="fil1" d="M6193 5352c64,120 120,245 169,372 151,392 201,827 185,1246 -11,274 -58,561 -179,809 -91,187 -227,358 -394,481 -110,81 -274,168 -415,151 -57,-6 -110,-26 -157,-59 -225,-164 -189,-607 -164,-848 8,-70 -9,-134 -68,-176 -37,-27 -85,-39 -131,-39 -128,0 -212,83 -199,215 26,241 62,684 -163,848 -47,33 -100,53 -157,59 -141,17 -305,-70 -415,-151 -167,-123 -303,-294 -394,-481 -121,-248 -168,-535 -179,-809 -16,-419 33,-854 185,-1246 49,-127 104,-252 169,-372 36,-70 77,-148 121,-214l21 -30 10 -2c60,-85 129,-168 207,-238 30,-27 69,-60 105,-80l29 -15 660 132 661 -132 29 15c36,20 75,53 105,80 78,70 147,153 207,238l10 2 20 30c45,66 86,144 122,214z"/>
   </g>
   <path class="fil2" d="M5997 5189c0,0 50,73 116,205 55,101 111,221 165,362 146,378 195,801 179,1211 -13,333 -79,585 -170,773 -194,397 -544,603 -718,582 -255,-31 -287,-370 -241,-809 44,-419 -621,-419 -577,0 46,439 14,778 -241,809 -174,21 -524,-185 -718,-582 -91,-188 -157,-440 -170,-773 -16,-410 33,-833 179,-1211 54,-141 110,-261 165,-362 66,-132 116,-205 116,-205l9 -2c169,-247 302,-320 302,-320l646 130 647 -130c0,0 133,73 302,320l9 2z"/>
   <g style="clip-path:url(#id13)">
    <g>
     <path id="1" class="fil3" d="M6235 5278c-51,16 -443,249 -1298,174 -855,-75 -1144,-222 -1144,-222 0,0 230,-292 270,-300 39,-8 1159,-44 1207,-16 47,28 585,190 633,218 47,27 332,146 332,146z"/>
     <path class="fil3" d="M5005 5037c-422,0 -764,391 -764,874 0,483 342,875 764,875 422,0 764,-392 764,-875 0,-483 -342,-874 -764,-874z"/>
    </g>
    <g style="clip-path:url(#id14)">
     <g>
      <ellipse class="fil8" cx="5013" cy="5832" rx="764" ry="875"/>
      <path class="fil10" d="M6235 5278c-51,16 -443,249 -1298,174 -855,-75 -1144,-222 -1144,-222 0,0 230,-292 270,-300 39,-8 1159,-44 1207,-16 47,28 585,190 633,218 47,27 332,146 332,146z"/>
     </g>
    </g>
    <g style="clip-path:url(#id15)">
     <path class="fil0" d="M5005 5037c-422,0 -764,391 -764,874 0,483 342,875 764,875 422,0 764,-392 764,-875 0,-483 -342,-874 -764,-874z"/>
     <path class="fil8" d="M6346 8033c0,0 -71,-238 -360,-353 -289,-114 -669,-34 -669,-34l-83 470 210 162c0,0 123,75 162,75 40,0 428,-43 467,-55 40,-12 273,-265 273,-265z"/>
     <path class="fil8" d="M4755 7650l-254 55c0,0 -296,83 -435,392 -139,309 483,499 483,499l225 -345 103 -372 -122 -229z"/>
    </g>
   </g>
   <path class="fil0" d="M5997 5189c0,0 50,73 116,205 55,101 111,221 165,362 146,378 195,801 179,1211 -13,333 -79,585 -170,773 -194,397 -544,603 -718,582 -255,-31 -287,-370 -241,-809 44,-419 -621,-419 -577,0 46,439 14,778 -241,809 -174,21 -524,-185 -718,-582 -91,-188 -157,-440 -170,-773 -16,-410 33,-833 179,-1211 54,-141 110,-261 165,-362 66,-132 116,-205 116,-205l9 -2c169,-247 302,-320 302,-320l646 130 647 -130c0,0 133,73 302,320l9 2z"/>
   <g>
    <path class="fil1" d="M5005 5377c-27,2 -53,3 -80,4 -143,6 -306,-12 -448,-31 -212,-29 -425,-72 -630,-132 -314,-92 -724,-258 -901,-550 -144,-238 -191,-501 -120,-771 43,-166 121,-305 219,-444 29,-42 55,-103 76,-149 38,-84 74,-168 113,-251 105,-222 225,-434 382,-624 200,-241 468,-410 763,-507 4,-34 24,-68 60,-98 42,-35 98,-58 158,-71 0,-2 0,-3 0,-4 1,-66 55,-101 112,-117 50,-14 108,-15 166,-6 2,-16 8,-31 17,-46 60,-90 180,-42 255,-4 140,70 276,197 382,316 335,90 642,269 865,537 156,190 277,402 381,624 39,83 76,167 113,251 21,46 47,107 77,149 98,139 176,278 219,444 70,270 24,533 -120,771 -177,292 -587,458 -901,550 -205,60 -418,103 -630,132 -142,19 -305,37 -449,31 -26,-1 -53,-2 -79,-4z"/>
   </g>
   <path class="fil11" d="M6324 2487c331,400 465,873 567,1018 102,144 414,591 96,1116 -319,525 -1568,683 -1899,670 -29,-1 -56,-3 -83,-5 -27,2 -55,4 -83,5 -332,13 -1580,-145 -1899,-670 -319,-525 -6,-972 96,-1116 102,-145 235,-618 567,-1018 211,-255 504,-425 825,-510 -41,-16 -64,-42 -14,-83 112,-94 362,-60 362,-60 0,0 -279,-71 -125,-115 153,-44 377,89 377,89 0,0 3,-3 -73,-55 -75,-52 -145,-203 68,-96 153,76 302,232 374,315 328,83 629,255 844,515z"/>
   <g style="clip-path:url(#id16)">
    <g>
     <path id="1" class="fil12" d="M11445 3555c-1087,69 -1922,477 -1922,971 0,542 1007,981 2248,981 1242,0 2249,-439 2249,-981 0,-494 -835,-902 -1922,-971 41,-115 65,-251 65,-399 0,-398 -175,-720 -392,-720 -216,0 -391,322 -391,720 0,148 24,284 65,399z"/>
     <path class="fil13" d="M7310 4413l-184 -270c0,0 -80,626 -1502,848 -1421,221 -2327,-111 -2691,-768 -364,-657 -736,641 -736,688 0,48 316,768 498,816 182,47 1987,166 2209,166 221,0 950,71 1068,0 119,-71 341,-214 436,-293 95,-79 902,-1187 902,-1187z"/>
     <path class="fil14" style="mask:url(#id17)" d="M6146 2149l179 400c-669,-753 -1949,-657 -2644,-4 0,0 194,-574 221,-598 28,-23 923,-463 978,-451 55,12 570,127 609,155 40,27 309,110 353,150 43,40 304,348 304,348z"/>
    </g>
   </g>
   <path class="fil0" d="M6324 2487c331,400 465,873 567,1018 102,144 414,591 96,1116 -319,525 -1568,683 -1899,670 -29,-1 -56,-3 -83,-5 -27,2 -55,4 -83,5 -332,13 -1580,-145 -1899,-670 -319,-525 -6,-972 96,-1116 102,-145 235,-618 567,-1018 211,-255 504,-425 825,-510 -41,-16 -64,-42 -14,-83 112,-94 362,-60 362,-60 0,0 -279,-71 -125,-115 153,-44 377,89 377,89 0,0 3,-3 -73,-55 -75,-52 -145,-203 68,-96 153,76 302,232 374,315 328,83 629,255 844,515z"/>
   <ellipse class="fil15" cx="5786" cy="3427" rx="265" ry="352"/>
   <ellipse class="fil16" cx="5851" cy="3222" rx="78" ry="104"/>
   <ellipse class="fil15" cx="4234" cy="3427" rx="265" ry="352"/>
   <path class="fil0" d="M5428 4144c0,0 -105,176 -289,172 -184,-4 -168,-210 -168,-210"/>
   <path class="fil0" d="M4504 4144c0,0 104,176 289,172 184,-4 168,-210 168,-210"/>
   <g>
    <ellipse class="fil17" cx="4003" cy="3974" rx="208" ry="125"/>
    <ellipse class="fil17" cx="6007" cy="3974" rx="208" ry="125"/>
   </g>
   <ellipse class="fil18" cx="5005" cy="4553" rx="926" ry="623"/>
   <path class="fil19" d="M4990 3891c-27,5 -78,9 -126,-16 -70,-36 -98,-39 -152,-10 -55,28 -50,107 -40,126 11,20 34,46 56,30 23,-16 32,-27 76,-8 44,20 75,80 126,98 60,21 89,21 150,0 51,-18 81,-78 126,-98 44,-19 53,-8 75,8 22,16 46,-10 56,-30 11,-19 16,-98 -39,-126 -55,-29 -82,-26 -152,10 -49,25 -100,21 -128,16 -8,-2 -19,-2 -28,0z"/>
   <g style="clip-path:url(#id19)">
    <g>
     <path id="1" class="fil20" style="mask:url(#id20)" d="M4624 3962c4,-4 53,-61 53,-61 0,0 -6,88 44,72 49,-16 59,-32 97,-20 39,12 94,110 159,119 65,8 114,-23 140,-55 26,-31 73,-76 114,-78 41,-3 48,15 69,34 21,20 46,-37 35,-68 -12,-30 51,27 51,27l41 117c0,0 -51,62 -122,77 -70,14 -183,31 -204,37 -21,7 -73,63 -165,27 -92,-36 -131,-37 -198,-62 -68,-25 -114,-166 -114,-166z"/>
    </g>
   </g>
   <path class="fil0" d="M4990 3891c-27,5 -78,9 -126,-16 -70,-36 -98,-39 -152,-10 -55,28 -50,107 -40,126 11,20 34,46 56,30 23,-16 32,-27 76,-8 44,20 75,80 126,98 60,21 89,21 150,0 51,-18 81,-78 126,-98 44,-19 53,-8 75,8 22,16 46,-10 56,-30 11,-19 16,-98 -39,-126 -55,-29 -82,-26 -152,10 -49,25 -100,21 -128,16 -8,-2 -19,-2 -28,0z"/>
   <g>
    <path class="fil12" d="M5452 4085c0,0 508,-130 812,-130 305,0 357,18 357,18 0,0 -396,-18 -1169,112z"/>
    <path class="fil12" d="M5514 4168c0,0 524,-9 821,61 296,70 343,100 343,100 0,0 -382,-108 -1164,-161z"/>
    <path class="fil12" d="M5443 4284c0,0 514,105 788,238 274,133 313,172 313,172 0,0 -349,-189 -1101,-410z"/>
   </g>
   <g>
    <path class="fil12" d="M4580 4085c0,0 -508,-130 -812,-130 -305,0 -357,18 -357,18 0,0 396,-18 1169,112z"/>
    <path class="fil12" d="M4518 4168c0,0 -524,-9 -820,61 -297,70 -343,100 -343,100 0,0 381,-108 1163,-161z"/>
    <path class="fil12" d="M4589 4284c0,0 -514,105 -788,238 -274,133 -313,172 -313,172 0,0 349,-189 1101,-410z"/>
   </g>
   <g>
    <path class="fil1" d="M4278 4641c103,-8 211,10 285,90 105,113 84,290 42,426 -62,206 -191,414 -316,587 -119,162 -254,344 -403,480 -103,94 -226,176 -371,178 -103,2 -197,-36 -282,-90 -85,-55 -151,-129 -186,-225 -59,-166 -9,-350 66,-502 87,-177 221,-342 361,-480 194,-192 523,-440 804,-464z"/>
   </g>
   <path class="fil2" d="M4285 4728c380,-31 352,389 -67,964 -418,576 -636,739 -938,547 -585,-374 467,-1467 1005,-1511z"/>
   <g style="clip-path:url(#id22)">
    <g>
     <path id="1" class="fil3" d="M3238 6431c-5,-36 -54,-277 -54,-277 0,0 218,157 506,-25 288,-182 676,-763 746,-1047 70,-284 -104,-355 -104,-355 0,0 141,-171 193,-129 52,42 293,171 303,265 11,94 145,-104 -38,360 -182,463 -36,510 -369,823 -334,312 -370,547 -610,474 -239,-73 -573,-89 -573,-89z"/>
     <path class="fil8" d="M3639 4936c0,0 193,349 396,454 203,104 417,130 417,130 0,0 347,-590 302,-636 -45,-45 -26,-354 -159,-338 -133,15 -560,-11 -633,31 -73,42 -323,359 -323,359z"/>
    </g>
    <g style="clip-path:url(#id23)">
     <g>
      <path id="1" class="fil21" d="M3238 6431c-5,-36 -54,-277 -54,-277 0,0 218,157 506,-25 288,-182 676,-763 746,-1047 70,-284 -104,-355 -104,-355 0,0 141,-171 193,-129 52,42 293,171 303,265 11,94 145,-104 -38,360 -182,463 -36,510 -369,823 -334,312 -370,547 -610,474 -239,-73 -573,-89 -573,-89z"/>
     </g>
    </g>
    <g style="clip-path:url(#id24)">
     <path class="fil0" d="M3639 4936c0,0 193,349 396,454 203,104 417,130 417,130 0,0 347,-590 302,-636 -45,-45 -26,-354 -159,-338 -133,15 -560,-11 -633,31 -73,42 -323,359 -323,359z"/>
    </g>
   </g>
   <path class="fil0" d="M4285 4728c380,-31 352,389 -67,964 -418,576 -636,739 -938,547 -585,-374 467,-1467 1005,-1511z"/>
   <ellipse class="fil16" cx="4303" cy="3222" rx="78" ry="104"/>
   <path class="fil22" d="M4645 4530c2,-18 127,-135 312,-130 185,5 258,143 258,143 0,0 21,29 -27,35 -83,12 -102,-122 -236,-122 -57,-1 -118,15 -238,87 -33,20 -76,18 -69,-13z"/>
  </g>
 </g>
</svg>
