<?xml version="1.0" encoding="UTF-8"?>
<!DOCTYPE svg PUBLIC "-//W3C//DTD SVG 1.1//EN" "http://www.w3.org/Graphics/SVG/1.1/DTD/svg11.dtd">
<!-- Creator: CorelDRAW X8 -->
<svg xmlns="http://www.w3.org/2000/svg" xml:space="preserve" width="6.23816in" height="6.88417in" version="1.1" style="shape-rendering:geometricPrecision; text-rendering:geometricPrecision; image-rendering:optimizeQuality; fill-rule:evenodd; clip-rule:evenodd"
viewBox="0 0 6238 6884"
 xmlns:xlink="http://www.w3.org/1999/xlink">
 <defs>
  <style type="text/css">
   <![CDATA[
    .str1 {stroke:#332C2B;stroke-width:7.87402}
    .str0 {stroke:black;stroke-width:7.87402}
    .fil3 {fill:none}
    .fil10 {fill:#FEFEFE}
    .fil13 {fill:#FEFEFE}
    .fil11 {fill:#B6B6B7}
    .fil24 {fill:#B6B6B7}
    .fil25 {fill:#757475}
    .fil23 {fill:#474443}
    .fil22 {fill:#E95A6F}
    .fil19 {fill:#E95A6F}
    .fil17 {fill:#E61D4C}
    .fil26 {fill:#E62129}
    .fil20 {fill:#AF3548}
    .fil16 {fill:#1D1819}
    .fil8 {fill:#1D1819}
    .fil0 {fill:black}
    .fil5 {fill:#663D00}
    .fil4 {fill:#855000}
    .fil9 {fill:#AD7600}
    .fil14 {fill:#D4991A}
    .fil2 {fill:#D4991A}
    .fil7 {fill:#E8C979}
    .fil12 {fill:#F4B732}
    .fil1 {fill:#F4B732}
    .fil15 {fill:#F7CA68}
    .fil18 {fill:#F8DD96}
    .fil6 {fill:#F8DD96}
    .fil21 {fill:url(#id27)}
   ]]>
  </style>
     <clipPath id="id0">
      <path d="M4129 5020c0,0 550,359 968,338 419,-21 587,-445 569,-519 -19,-73 86,-52 86,-52 0,0 102,398 -377,638 -480,240 -1135,-15 -1234,1 -100,17 -12,-406 -12,-406z"/>
     </clipPath>
     <clipPath id="id1">
      <path d="M5637 4857c0,0 124,28 229,-67 105,-95 124,-197 191,-246 66,-48 91,-54 91,-54 0,0 -62,-18 -98,-6 -37,12 -37,12 -37,12 0,0 38,-156 -26,-295 -64,-139 -107,-161 -107,-161l22 92c0,0 -163,-238 -356,-232 -193,6 -231,16 -231,16 0,0 216,189 181,438 -35,249 7,411 141,503z"/>
     </clipPath>
       <mask id="id2">
  <linearGradient id="id3" gradientUnits="userSpaceOnUse" x1="5950.16" y1="5064.63" x2="5747.04" y2="3340.67">
   <stop offset="0" style="stop-opacity:1; stop-color:white"/>
   <stop offset="1" style="stop-opacity:0; stop-color:white"/>
  </linearGradient>
        <rect style="fill:url(#id3)" x="5308" y="3804" width="1315" height="1350"/>
       </mask>
    <clipPath id="id4">
     <path d="M1648 4338c26,-78 329,-188 329,-188l-36 -430c0,0 -676,-268 -1069,-530 -393,-262 -618,-310 -741,-103 -124,207 44,580 358,789 315,210 988,554 988,554l171 -92z"/>
    </clipPath>
     <clipPath id="id5">
      <path d="M809 3148c-43,125 -129,320 -278,450 -71,62 -140,110 -201,147 -207,-211 -300,-489 -199,-658 116,-195 324,-164 678,61z"/>
     </clipPath>
     <clipPath id="id6">
      <path d="M1648 4338c26,-78 329,-188 329,-188l-36 -430c0,0 -676,-268 -1069,-530 -393,-262 -618,-310 -741,-103 -124,207 44,580 358,789 315,210 988,554 988,554l171 -92z"/>
     </clipPath>
      <clipPath id="id7">
       <path d="M661 426c-83,-12 -213,-5 -213,-5 0,0 -121,134 -129,149 -9,15 -70,167 -70,167 0,0 -173,625 217,1092 390,466 717,343 888,256 171,-86 158,-386 158,-386l27 -448c0,0 -77,-305 -878,-825z"/>
      </clipPath>
        <mask id="id8">
  <linearGradient id="id9" gradientUnits="userSpaceOnUse" x1="1668.14" y1="1309.48" x2="-717.283" y2="1179.27">
   <stop offset="0" style="stop-opacity:1; stop-color:white"/>
   <stop offset="1" style="stop-opacity:0; stop-color:white"/>
  </linearGradient>
         <rect style="fill:url(#id9)" x="679" y="659" width="786" height="1270"/>
        </mask>
     <clipPath id="id10">
      <path d="M4901 426c83,-12 213,-5 213,-5 0,0 121,134 130,149 8,15 69,167 69,167 0,0 173,625 -217,1092 -390,466 -717,343 -888,256 -170,-86 -158,-386 -158,-386l-27 -448c0,0 77,-305 878,-825z"/>
     </clipPath>
       <mask id="id11">
  <linearGradient id="id12" gradientUnits="userSpaceOnUse" x1="3894.16" y1="1309.48" x2="6279.59" y2="1179.27">
   <stop offset="0" style="stop-opacity:1; stop-color:white"/>
   <stop offset="1" style="stop-opacity:0; stop-color:white"/>
  </linearGradient>
        <rect style="fill:url(#id12)" x="4098" y="659" width="786" height="1270"/>
       </mask>
    <clipPath id="id13">
     <path d="M3820 3660c0,0 49,72 116,204 54,102 110,222 165,363 145,377 194,801 178,1210 -13,334 -78,586 -170,773 -194,398 -544,603 -717,583 -256,-31 -287,-370 -242,-809 44,-419 -620,-419 -577,0 46,439 14,778 -241,809 -174,20 -524,-185 -717,-583 -92,-187 -157,-439 -170,-773 -16,-409 33,-833 178,-1210 55,-141 110,-261 165,-363 67,-132 116,-204 116,-204l9 -2c169,-247 303,-320 303,-320l646 130 646 -130c0,0 133,73 302,320l10 2z"/>
    </clipPath>
     <clipPath id="id14">
      <path d="M2827 3507c-422,0 -764,392 -764,875 0,483 342,875 764,875 422,0 764,-392 764,-875 0,-483 -342,-875 -764,-875z"/>
     </clipPath>
     <clipPath id="id15">
      <path d="M3820 3660c0,0 49,72 116,204 54,102 110,222 165,363 145,377 194,801 178,1210 -13,334 -78,586 -170,773 -194,398 -544,603 -717,583 -256,-31 -287,-370 -242,-809 44,-419 -620,-419 -577,0 46,439 14,778 -241,809 -174,20 -524,-185 -717,-583 -92,-187 -157,-439 -170,-773 -16,-409 33,-833 178,-1210 55,-141 110,-261 165,-363 67,-132 116,-204 116,-204l9 -2c169,-247 303,-320 303,-320l646 130 646 -130c0,0 133,73 302,320l10 2z"/>
     </clipPath>
     <clipPath id="id16">
      <path d="M4146 957c332,401 466,874 567,1018 102,145 415,591 96,1117 -318,525 -1567,683 -1899,669 -28,-1 -56,-2 -83,-4 -27,2 -54,3 -83,4 -331,14 -1580,-144 -1898,-669 -319,-526 -7,-972 95,-1117 102,-144 236,-617 567,-1018 211,-255 505,-425 826,-510 -41,-15 -65,-41 -15,-83 112,-94 362,-60 362,-60 0,0 -278,-70 -125,-114 154,-45 378,88 378,88 0,0 2,-2 -73,-54 -76,-53 -146,-204 68,-97 152,77 301,233 373,316 329,83 629,254 844,514z"/>
     </clipPath>
       <mask id="id17">
  <linearGradient id="id18" gradientUnits="userSpaceOnUse" x1="2718.42" y1="-29.622" x2="2741.17" y2="611.547">
   <stop offset="0" style="stop-opacity:1; stop-color:white"/>
   <stop offset="1" style="stop-opacity:0; stop-color:white"/>
  </linearGradient>
        <rect style="fill:url(#id18)" x="1499" y="-37" width="2652" height="1061"/>
       </mask>
     <clipPath id="id19">
      <path d="M2813 2361c-28,6 -79,10 -127,-15 -70,-37 -97,-39 -152,-11 -55,29 -50,107 -39,127 10,19 34,45 56,30 22,-16 31,-28 75,-8 45,19 75,80 126,98 61,20 90,20 151,0 50,-18 81,-79 125,-98 44,-20 54,-8 76,8 22,15 45,-11 56,-30 10,-20 15,-98 -39,-127 -55,-28 -82,-26 -153,11 -48,25 -100,20 -127,15 -9,-2 -19,-1 -28,0z"/>
     </clipPath>
       <mask id="id20">
  <linearGradient id="id21" gradientUnits="userSpaceOnUse" x1="2867.48" y1="2770.65" x2="2842.1" y2="2264.17">
   <stop offset="0" style="stop-opacity:1; stop-color:white"/>
   <stop offset="1" style="stop-opacity:0; stop-color:white"/>
  </linearGradient>
        <rect style="fill:url(#id21)" x="2442" y="2363" width="811" height="314"/>
       </mask>
     <clipPath id="id22">
      <path d="M2814 2769c-23,27 -61,57 -111,56 -89,-2 -135,-43 -135,-43 0,0 -36,176 4,335 62,253 448,253 511,0 39,-159 3,-335 3,-335 0,0 -45,41 -135,43 -50,1 -87,-29 -110,-56l-27 0z"/>
     </clipPath>
    <clipPath id="id23">
     <path d="M2617 4002l192 916c90,48 154,48 244,0l198 -917c-194,130 -453,140 -634,1z"/>
    </clipPath>
    <clipPath id="id24">
     <path d="M3802 4074c-238,31 -497,82 -611,166 -236,174 -312,480 139,569 334,67 1611,177 1391,-438l0 0c-229,-687 -326,-835 -482,-865 -264,-51 -504,421 -437,568z"/>
    </clipPath>
      <mask id="id25">
  <linearGradient id="id26" gradientUnits="userSpaceOnUse" x1="4187.65" y1="5215.68" x2="4155.13" y2="4120.22">
   <stop offset="0" style="stop-opacity:1; stop-color:white"/>
   <stop offset="1" style="stop-opacity:0; stop-color:white"/>
  </linearGradient>
       <rect style="fill:url(#id26)" x="2902" y="4464" width="2044" height="683"/>
      </mask>
  <linearGradient id="id27" gradientUnits="userSpaceOnUse" x1="2842.95" y1="3317.71" x2="2829.89" y2="2492.07">
   <stop offset="0" style="stop-opacity:1; stop-color:#E61D4C"/>
   <stop offset="1" style="stop-opacity:1; stop-color:#1D1819"/>
  </linearGradient>
 </defs>
 <g id="Layer_x0020_1">
  <metadata id="CorelCorpID_0Corel-Layer"/>
  <g id="_1916738412576">
   <g>
    <path class="fil0" d="M5850 4910c-2,46 -9,91 -20,130 -57,217 -220,368 -415,466 -244,122 -528,129 -793,95 -106,-13 -210,-34 -314,-56 -35,-8 -71,-16 -106,-22 -13,-3 -35,-7 -49,-7 -22,3 -44,0 -65,-9 -102,-45 -88,-205 -79,-296 7,-69 18,-141 32,-209 7,-30 26,-53 54,-65 28,-12 58,-9 84,8 57,37 120,72 181,104 130,69 269,130 410,172 103,30 216,52 323,47 149,-7 274,-76 369,-190 36,-42 67,-92 90,-143 2,-5 5,-13 9,-22 -173,-138 -183,-365 -154,-572 13,-88 -17,-176 -64,-251 -22,-35 -56,-79 -87,-107 -26,-22 -37,-55 -29,-89 9,-33 33,-58 66,-66 18,-4 39,-6 57,-7 64,-6 129,-9 193,-11 34,-1 68,4 102,13 76,20 152,69 217,128 20,-4 40,-1 59,9 63,32 120,143 147,203 31,66 46,149 46,229 21,2 41,6 59,12 40,11 66,47 65,89 -1,40 -27,73 -64,83 -19,8 -49,29 -64,41 -21,15 -44,57 -57,79 -37,61 -73,112 -126,161 -24,21 -49,39 -77,53z"/>
   </g>
   <g>
    <path class="fil1" d="M4129 5020c0,0 550,359 968,338 419,-21 587,-445 569,-519 -19,-73 86,-52 86,-52 0,0 102,398 -377,638 -480,240 -1135,-15 -1234,1 -100,17 -12,-406 -12,-406z"/>
    <g style="clip-path:url(#id0)">
     <g>
      <path id="1" class="fil2" d="M4135 5282c0,0 518,268 1060,141 542,-128 512,-629 557,-636 45,-8 170,-10 164,45 -5,54 -78,484 -88,500 -11,15 -852,367 -943,375 -91,7 -302,101 -535,-29 -233,-130 -215,-396 -215,-396z"/>
     </g>
    </g>
    <path class="fil3" d="M4129 5020c0,0 550,359 968,338 419,-21 587,-445 569,-519 -19,-73 86,-52 86,-52 0,0 102,398 -377,638 -480,240 -1135,-15 -1234,1 -100,17 -12,-406 -12,-406z"/>
    <path class="fil4" d="M5637 4857c0,0 124,28 229,-67 105,-95 124,-197 191,-246 66,-48 91,-54 91,-54 0,0 -62,-18 -98,-6 -37,12 -37,12 -37,12 0,0 38,-156 -26,-295 -64,-139 -107,-161 -107,-161l22 92c0,0 -163,-238 -356,-232 -193,6 -231,16 -231,16 0,0 216,189 181,438 -35,249 7,411 141,503z"/>
    <g style="clip-path:url(#id1)">
     <g>
      <path id="1" class="fil5" style="mask:url(#id2)" d="M5390 4535c3,-12 109,-261 109,-261 0,0 45,19 45,216 0,198 79,321 208,297 128,-24 158,-87 172,-173 14,-86 224,-124 224,-124l-39 -59 -94 54 -44 29c0,0 1,-218 -27,-271 -29,-53 -29,-53 -29,-53l5 44c0,0 -162,-221 -350,-274 -188,-52 -255,-44 -255,-44 0,0 -32,-68 107,-94 138,-26 348,-15 437,19 89,34 294,221 349,265 55,45 289,183 325,287 37,104 214,370 -83,500 -297,130 -168,356 -568,208 -399,-148 -640,-208 -492,-566z"/>
     </g>
    </g>
    <path class="fil3" d="M5637 4857c0,0 124,28 229,-67 105,-95 124,-197 191,-246 66,-48 91,-54 91,-54 0,0 -62,-18 -98,-6 -37,12 -37,12 -37,12 0,0 38,-156 -26,-295 -64,-139 -107,-161 -107,-161l22 92c0,0 -163,-238 -356,-232 -193,6 -231,16 -231,16 0,0 216,189 181,438 -35,249 7,411 141,503z"/>
   </g>
   <g>
    <path class="fil0" d="M1731 4373l-9 28 -244 131 -42 -22c-200,-102 -399,-209 -595,-318 -135,-76 -273,-155 -402,-241 -158,-105 -296,-259 -375,-433 -67,-147 -98,-331 -11,-477 208,-348 629,-86 869,74 107,71 222,135 336,195 159,82 323,159 487,230 76,33 152,66 229,97l52 20 47 554 -65 24c-53,19 -240,95 -277,138z"/>
   </g>
   <path class="fil1" d="M1648 4338c26,-78 329,-188 329,-188l-36 -430c0,0 -676,-268 -1069,-530 -393,-262 -618,-310 -741,-103 -124,207 44,580 358,789 315,210 988,554 988,554l171 -92z"/>
   <g style="clip-path:url(#id4)">
    <g>
     <path id="1" class="fil2" d="M76 2944l200 66c0,0 -104,170 69,480 132,236 564,413 761,484l673 191 -163 406 -891 -332 -109 52 -1027 -1181 487 -166z"/>
     <path class="fil6" d="M843 3031c0,0 -79,364 -312,567 -233,202 -439,259 -439,259 0,0 -243,-429 -237,-472 7,-44 -12,-489 38,-539 50,-50 229,-226 279,-226 50,0 312,72 312,72l359 339z"/>
    </g>
    <g style="clip-path:url(#id5)">
     <g>
      <path id="1" class="fil7" d="M76 2944l200 66c0,0 -104,170 69,480 173,309 860,517 860,517l-589 284 -1027 -1181 487 -166z"/>
     </g>
    </g>
    <g style="clip-path:url(#id6)">
     <path class="fil3" d="M843 3031c0,0 -79,364 -312,567 -233,202 -439,259 -439,259 0,0 -243,-429 -237,-472 7,-44 -12,-489 38,-539 50,-50 229,-226 279,-226 50,0 312,72 312,72l359 339z"/>
    </g>
   </g>
   <path class="fil3" d="M1648 4338c26,-78 329,-188 329,-188l-36 -430c0,0 -676,-268 -1069,-530 -393,-262 -618,-310 -741,-103 -124,207 44,580 358,789 315,210 988,554 988,554l171 -92z"/>
   <g>
    <g>
     <path class="fil0 str0" d="M1618 1430c25,-7 49,-14 71,-23 113,-43 217,-115 285,-215 139,-207 71,-444 -60,-635l-28 -40 -50 1c-66,3 -153,-11 -218,-24 -195,-38 -385,-113 -558,-209 -195,-108 -421,-152 -624,-39 -113,63 -226,189 -254,318 -9,39 -24,107 -23,163 -31,118 -41,266 -38,385 8,283 92,555 276,774 150,179 345,341 585,367 149,17 281,-21 412,-88 35,-17 65,-41 91,-70 87,-98 122,-265 117,-395l16 -270z"/>
    </g>
    <g>
     <path class="fil2" d="M661 426c-83,-12 -213,-5 -213,-5 0,0 -121,134 -129,149 -9,15 -70,167 -70,167 0,0 -173,625 217,1092 390,466 717,343 888,256 171,-86 158,-386 158,-386l27 -448c0,0 -77,-305 -878,-825z"/>
     <g style="clip-path:url(#id7)">
      <g>
       <path id="1" class="fil8" d="M785 603c-26,30 -337,149 -334,560 3,411 228,671 403,726 176,55 443,-97 443,-97 0,0 -30,223 -524,301 -494,78 -1170,-808 -1088,-928 82,-119 517,-666 517,-666l249 -11c0,0 292,-9 334,115z"/>
       <path class="fil9" style="mask:url(#id8)" d="M1124 882c-112,-62 -441,-219 -441,-219 0,0 201,318 233,623 31,305 -37,639 -37,639 0,0 1126,-164 245,-1043z"/>
      </g>
     </g>
     <path class="fil3 str1" d="M661 426c-83,-12 -213,-5 -213,-5 0,0 -121,134 -129,149 -9,15 -70,167 -70,167 0,0 -173,625 217,1092 390,466 717,343 888,256 171,-86 158,-386 158,-386l27 -448c0,0 -77,-305 -878,-825z"/>
     <path class="fil1" d="M1839 608c0,0 -358,12 -823,-245 -464,-257 -716,81 -747,220 -30,140 -18,166 -18,166 0,0 105,-309 400,-109 295,200 313,584 625,700 311,115 951,-168 563,-732z"/>
    </g>
   </g>
   <g>
    <path class="fil0 str0" d="M3944 1430c-25,-7 -48,-14 -71,-23 -112,-43 -217,-115 -284,-215 -139,-207 -71,-444 60,-635l28 -40 49 1c66,3 154,-11 218,-24 195,-38 385,-113 559,-209 195,-108 420,-152 623,-39 113,63 226,189 255,318 8,39 23,107 22,163 31,118 41,266 38,385 -7,283 -92,555 -276,774 -149,179 -345,341 -585,367 -148,17 -281,-21 -412,-88 -35,-17 -65,-41 -90,-70 -88,-98 -122,-265 -118,-395l-16 -270z"/>
   </g>
   <g>
    <path class="fil2" d="M4901 426c83,-12 213,-5 213,-5 0,0 121,134 130,149 8,15 69,167 69,167 0,0 173,625 -217,1092 -390,466 -717,343 -888,256 -170,-86 -158,-386 -158,-386l-27 -448c0,0 77,-305 878,-825z"/>
    <g style="clip-path:url(#id10)">
     <g>
      <path id="1" class="fil8" d="M4777 603c26,30 337,149 334,560 -3,411 -228,671 -403,726 -175,55 -443,-97 -443,-97 0,0 30,223 524,301 494,78 1170,-808 1088,-928 -82,-119 -517,-666 -517,-666l-249 -11c0,0 -291,-9 -334,115z"/>
      <path class="fil9" style="mask:url(#id11)" d="M4438 882c112,-62 441,-219 441,-219 0,0 -201,318 -232,623 -31,305 36,639 36,639 0,0 -1126,-164 -245,-1043z"/>
     </g>
    </g>
    <path class="fil3 str1" d="M4901 426c83,-12 213,-5 213,-5 0,0 121,134 130,149 8,15 69,167 69,167 0,0 173,625 -217,1092 -390,466 -717,343 -888,256 -170,-86 -158,-386 -158,-386l-27 -448c0,0 77,-305 878,-825z"/>
    <path class="fil1" d="M3723 608c0,0 359,12 823,-245 465,-257 716,81 747,220 30,140 18,166 18,166 0,0 -105,-309 -400,-109 -294,200 -313,584 -624,700 -312,115 -952,-168 -564,-732z"/>
   </g>
   <g>
    <path class="fil0" d="M4015 3823c65,120 121,244 170,371 151,393 201,828 184,1247 -11,273 -58,561 -179,809 -91,186 -226,357 -394,481 -109,81 -274,168 -415,151 -57,-7 -110,-26 -156,-60 -226,-164 -189,-606 -164,-848 7,-69 -10,-133 -68,-175 -38,-27 -85,-39 -131,-39 -129,0 -213,83 -199,214 25,242 61,684 -164,848 -46,34 -99,53 -156,60 -141,17 -306,-70 -416,-151 -167,-124 -302,-295 -393,-481 -121,-248 -169,-536 -179,-809 -17,-419 33,-854 184,-1247 49,-127 105,-251 169,-371 36,-71 77,-149 122,-214l21 -30 9 -2c61,-85 130,-168 207,-238 30,-27 69,-60 105,-80l29 -16 661 133 661 -133 28 16c36,20 76,53 106,80 77,70 146,153 207,238l9 2 21 30c45,65 86,143 121,214z"/>
   </g>
   <path class="fil1" d="M3820 3660c0,0 49,72 116,204 54,102 110,222 165,363 145,377 194,801 178,1210 -13,334 -78,586 -170,773 -194,398 -544,603 -717,583 -256,-31 -287,-370 -242,-809 44,-419 -620,-419 -577,0 46,439 14,778 -241,809 -174,20 -524,-185 -717,-583 -92,-187 -157,-439 -170,-773 -16,-409 33,-833 178,-1210 55,-141 110,-261 165,-363 67,-132 116,-204 116,-204l9 -2c169,-247 303,-320 303,-320l646 130 646 -130c0,0 133,73 302,320l10 2z"/>
   <g style="clip-path:url(#id13)">
    <g>
     <path id="1" class="fil2" d="M4058 3749c-52,15 -443,249 -1298,174 -855,-75 -1144,-222 -1144,-222 0,0 229,-293 269,-301 40,-8 1160,-43 1207,-16 48,28 586,190 633,218 48,28 333,147 333,147z"/>
     <path class="fil2" d="M2827 3507c-422,0 -764,392 -764,875 0,483 342,875 764,875 422,0 764,-392 764,-875 0,-483 -342,-875 -764,-875z"/>
    </g>
    <g style="clip-path:url(#id14)">
     <g>
      <ellipse class="fil10" cx="2835" cy="4303" rx="764" ry="875"/>
      <path class="fil11" d="M4058 3749c-52,15 -443,249 -1298,174 -855,-75 -1144,-222 -1144,-222 0,0 229,-293 269,-301 40,-8 1160,-43 1207,-16 48,28 586,190 633,218 48,28 333,147 333,147z"/>
     </g>
    </g>
    <g style="clip-path:url(#id15)">
     <path class="fil3" d="M2827 3507c-422,0 -764,392 -764,875 0,483 342,875 764,875 422,0 764,-392 764,-875 0,-483 -342,-875 -764,-875z"/>
     <path class="fil6" d="M4169 6503c0,0 -71,-237 -360,-352 -289,-115 -669,-34 -669,-34l-83 469 209 163c0,0 123,75 163,75 39,0 427,-44 467,-56 39,-11 273,-265 273,-265z"/>
     <path class="fil6" d="M2577 6120l-253 56c0,0 -297,83 -436,391 -138,309 483,499 483,499l226 -344 103 -372 -123 -230z"/>
    </g>
   </g>
   <path class="fil3" d="M3820 3660c0,0 49,72 116,204 54,102 110,222 165,363 145,377 194,801 178,1210 -13,334 -78,586 -170,773 -194,398 -544,603 -717,583 -256,-31 -287,-370 -242,-809 44,-419 -620,-419 -577,0 46,439 14,778 -241,809 -174,20 -524,-185 -717,-583 -92,-187 -157,-439 -170,-773 -16,-409 33,-833 178,-1210 55,-141 110,-261 165,-363 67,-132 116,-204 116,-204l9 -2c169,-247 303,-320 303,-320l646 130 646 -130c0,0 133,73 302,320l10 2z"/>
   <g>
    <path class="fil0" d="M2827 3847c-26,2 -53,3 -79,4 -144,6 -307,-12 -449,-31 -211,-29 -424,-72 -629,-132 -314,-91 -724,-257 -901,-550 -145,-237 -191,-500 -120,-770 43,-166 120,-306 219,-445 29,-41 55,-102 76,-148 38,-84 74,-168 113,-251 105,-222 225,-434 382,-624 199,-241 468,-410 763,-507 4,-34 24,-68 60,-98 42,-35 98,-58 158,-71 0,-2 0,-3 0,-5 1,-66 55,-100 111,-116 51,-14 108,-15 167,-6 2,-16 7,-31 17,-46 60,-90 179,-42 254,-4 140,70 276,197 383,316 334,90 642,268 864,537 157,190 277,402 381,624 39,83 76,167 113,251 22,46 48,107 77,148 98,139 176,279 219,445 70,270 24,533 -120,770 -177,293 -587,459 -901,550 -205,60 -418,103 -629,132 -143,19 -306,37 -449,31 -27,-1 -53,-2 -80,-4z"/>
   </g>
   <g>
    <path class="fil12" d="M4146 957c332,401 466,874 567,1018 102,145 415,591 96,1117 -318,525 -1567,683 -1899,669 -28,-1 -56,-2 -83,-4 -27,2 -54,3 -83,4 -331,14 -1580,-144 -1898,-669 -319,-526 -7,-972 95,-1117 102,-144 236,-617 567,-1018 211,-255 505,-425 826,-510 -41,-15 -65,-41 -15,-83 112,-94 362,-60 362,-60 0,0 -278,-70 -125,-114 154,-45 378,88 378,88 0,0 2,-2 -73,-54 -76,-53 -146,-204 68,-97 152,77 301,233 373,316 329,83 629,254 844,514z"/>
    <g style="clip-path:url(#id16)">
     <g>
      <path id="1" class="fil13" d="M9267 2025c-1086,69 -1921,478 -1921,971 0,542 1006,982 2248,982 1241,0 2248,-440 2248,-982 0,-493 -835,-902 -1922,-971 42,-114 66,-251 66,-398 0,-398 -176,-720 -392,-720 -216,0 -392,322 -392,720 0,147 24,284 65,398z"/>
      <path class="fil14" d="M5133 2883l-184 -269c0,0 -81,626 -1502,847 -1422,222 -2328,-111 -2692,-768 -364,-657 -736,642 -736,689 0,47 317,768 499,815 182,48 1987,167 2208,167 222,0 950,71 1069,0 119,-72 340,-214 435,-293 95,-79 903,-1188 903,-1188z"/>
      <path class="fil15" style="mask:url(#id17)" d="M3969 620l178 400c-669,-753 -1949,-657 -2644,-4 0,0 194,-574 222,-598 28,-24 922,-463 977,-451 56,12 570,127 610,154 40,28 309,111 352,151 44,39 305,348 305,348z"/>
     </g>
    </g>
    <path class="fil3" d="M4146 957c332,401 466,874 567,1018 102,145 415,591 96,1117 -318,525 -1567,683 -1899,669 -28,-1 -56,-2 -83,-4 -27,2 -54,3 -83,4 -331,14 -1580,-144 -1898,-669 -319,-526 -7,-972 95,-1117 102,-144 236,-617 567,-1018 211,-255 505,-425 826,-510 -41,-15 -65,-41 -15,-83 112,-94 362,-60 362,-60 0,0 -278,-70 -125,-114 154,-45 378,88 378,88 0,0 2,-2 -73,-54 -76,-53 -146,-204 68,-97 152,77 301,233 373,316 329,83 629,254 844,514z"/>
    <ellipse class="fil16" cx="3609" cy="1898" rx="265" ry="352"/>
    <ellipse class="fil10" cx="3677" cy="1792" rx="122" ry="162"/>
    <ellipse class="fil10" cx="3522" cy="1998" rx="71" ry="94"/>
    <ellipse class="fil16" cx="2057" cy="1898" rx="265" ry="352"/>
    <ellipse class="fil10" cx="1989" cy="1792" rx="122" ry="162"/>
    <ellipse class="fil10" cx="2144" cy="1998" rx="71" ry="94"/>
    <path class="fil3" d="M3251 2614c0,0 -105,177 -289,173 -184,-4 -168,-210 -168,-210"/>
    <path class="fil3" d="M2326 2614c0,0 105,177 289,173 184,-4 168,-210 168,-210"/>
    <g>
     <ellipse class="fil17" cx="1825" cy="2445" rx="208" ry="125"/>
     <ellipse class="fil17" cx="3829" cy="2445" rx="208" ry="125"/>
    </g>
    <ellipse class="fil18" cx="2827" cy="3024" rx="926" ry="623"/>
    <path class="fil19" d="M2813 2361c-28,6 -79,10 -127,-15 -70,-37 -97,-39 -152,-11 -55,29 -50,107 -39,127 10,19 34,45 56,30 22,-16 31,-28 75,-8 45,19 75,80 126,98 61,20 90,20 151,0 50,-18 81,-79 125,-98 44,-20 54,-8 76,8 22,15 45,-11 56,-30 10,-20 15,-98 -39,-127 -55,-28 -82,-26 -153,11 -48,25 -100,20 -127,15 -9,-2 -19,-1 -28,0z"/>
    <g style="clip-path:url(#id19)">
     <g>
      <path id="1" class="fil20" style="mask:url(#id20)" d="M2446 2433c4,-4 53,-61 53,-61 0,0 -5,88 44,72 50,-16 59,-33 98,-20 38,12 93,110 158,118 65,9 114,-22 140,-54 26,-32 74,-76 115,-79 41,-2 48,15 69,35 21,19 46,-38 34,-68 -12,-30 52,26 52,26l40 117c0,0 -51,63 -121,77 -70,15 -184,31 -205,38 -20,6 -73,63 -164,27 -92,-36 -131,-37 -199,-62 -68,-25 -114,-166 -114,-166z"/>
     </g>
    </g>
    <path class="fil3" d="M2813 2361c-28,6 -79,10 -127,-15 -70,-37 -97,-39 -152,-11 -55,29 -50,107 -39,127 10,19 34,45 56,30 22,-16 31,-28 75,-8 45,19 75,80 126,98 61,20 90,20 151,0 50,-18 81,-79 125,-98 44,-20 54,-8 76,8 22,15 45,-11 56,-30 10,-20 15,-98 -39,-127 -55,-28 -82,-26 -153,11 -48,25 -100,20 -127,15 -9,-2 -19,-1 -28,0z"/>
    <path class="fil21" d="M2814 2769c-23,27 -61,57 -111,56 -89,-2 -135,-43 -135,-43 0,0 -36,176 4,335 62,253 448,253 511,0 39,-159 3,-335 3,-335 0,0 -45,41 -135,43 -50,1 -87,-29 -110,-56l-27 0z"/>
    <g style="clip-path:url(#id22)">
     <g>
      <path id="1" class="fil22" d="M2957 3104c-52,0 -98,25 -126,63 -29,-38 -75,-63 -127,-63 -88,0 -159,71 -159,159 0,87 71,158 159,158 52,0 98,-25 127,-63 28,38 74,63 126,63 88,0 159,-71 159,-158 0,-88 -71,-159 -159,-159z"/>
     </g>
    </g>
    <path class="fil3" d="M2814 2769c-23,27 -61,57 -111,56 -89,-2 -135,-43 -135,-43 0,0 -36,176 4,335 62,253 448,253 511,0 39,-159 3,-335 3,-335 0,0 -45,41 -135,43 -50,1 -87,-29 -110,-56l-27 0z"/>
   </g>
   <g>
    <path class="fil13" d="M3274 2556c0,0 508,-131 813,-131 305,0 357,19 357,19 0,0 -396,-18 -1170,112z"/>
    <path class="fil13" d="M3336 2639c0,0 525,-10 821,61 297,70 343,100 343,100 0,0 -381,-109 -1164,-161z"/>
    <path class="fil13" d="M3265 2755c0,0 514,104 788,237 275,133 313,172 313,172 0,0 -348,-188 -1101,-409z"/>
   </g>
   <g>
    <path class="fil13" d="M2403 2556c0,0 -508,-131 -813,-131 -305,0 -357,19 -357,19 0,0 396,-18 1170,112z"/>
    <path class="fil13" d="M2341 2639c0,0 -525,-10 -821,61 -296,70 -343,100 -343,100 0,0 381,-109 1164,-161z"/>
    <path class="fil13" d="M2412 2755c0,0 -514,104 -788,237 -274,133 -313,172 -313,172 0,0 348,-188 1101,-409z"/>
   </g>
   <g>
    <path class="fil0" d="M2931 3348c232,0 421,188 421,420 0,233 -189,421 -421,421 -233,0 -421,-188 -421,-421 0,-232 188,-420 421,-420z"/>
   </g>
   <circle class="fil23" cx="2931" cy="3768" r="359"/>
   <g>
    <path class="fil0" d="M2534 3678c10,8 44,18 55,21 29,8 60,13 90,18 50,8 100,13 150,17 117,9 234,-2 347,-31 37,-9 73,-20 108,-33 11,-4 22,-8 32,-13 6,-2 13,-5 19,-6 4,-2 9,-2 13,-1 28,5 35,41 36,64 0,19 -3,40 -15,54 -70,80 -328,101 -429,106 -89,4 -385,10 -447,-64 -19,-23 -28,-54 -23,-84 3,-25 18,-56 47,-56 7,0 13,3 17,8z"/>
   </g>
   <path class="fil24" d="M2517 3693c0,0 30,41 310,64 281,23 495,-79 514,-84 19,-5 28,60 10,80 -102,116 -764,133 -840,42 -34,-40 -17,-102 6,-102z"/>
   <g>
    <path class="fil0" d="M2655 3953c164,125 395,108 561,-4l128 -86 -236 1096 -25 14c-109,58 -195,58 -303,0l-26 -14 -232 -1108 133 102z"/>
   </g>
   <path class="fil25" d="M2617 4002l192 916c90,48 154,48 244,0l198 -917c-194,130 -453,140 -634,1z"/>
   <g style="clip-path:url(#id23)">
    <g>
     <path id="1" class="fil26" d="M2598 4194c0,0 122,87 291,89 168,2 348,-71 348,-71l-21 133c0,0 -189,96 -416,52 -227,-43 -231,-45 -231,-45l29 -158z"/>
    </g>
   </g>
   <path class="fil3" d="M2617 4002l192 916c90,48 154,48 244,0l198 -917c-194,130 -453,140 -634,1z"/>
   <g>
    <path class="fil0" d="M3710 4005c2,-120 69,-260 125,-344 92,-135 243,-268 419,-235 13,3 27,6 39,10 119,38 190,140 245,244 45,84 83,175 117,263 52,132 98,267 142,401 38,106 46,218 -10,319 -130,238 -541,274 -781,280 -133,3 -267,-3 -399,-15 -97,-9 -197,-20 -293,-39 -167,-34 -363,-117 -390,-308 -23,-163 95,-315 219,-406 128,-94 381,-143 567,-170z"/>
   </g>
   <path class="fil1" d="M3802 4074c-238,31 -497,82 -611,166 -236,174 -312,480 139,569 334,67 1611,177 1391,-438l0 0c-229,-687 -326,-835 -482,-865 -264,-51 -504,421 -437,568z"/>
   <g style="clip-path:url(#id24)">
    <g>
     <ellipse class="fil18" cx="3226" cy="4518" rx="399" ry="497"/>
     <path class="fil2" style="mask:url(#id25)" d="M2906 4987c14,-39 101,-429 101,-429 0,0 338,256 1049,179 710,-78 695,-269 695,-269 0,0 148,39 152,91 3,53 111,320 -45,355 -156,34 -538,194 -1045,225 -507,32 -907,-152 -907,-152z"/>
    </g>
   </g>
   <path class="fil3" d="M3802 4074c-238,31 -497,82 -611,166 -236,174 -312,480 139,569 334,67 1611,177 1391,-438l0 0c-229,-687 -326,-835 -482,-865 -264,-51 -504,421 -437,568z"/>
  </g>
 </g>
</svg>
