<?xml version="1.0" encoding="UTF-8"?>
<!DOCTYPE svg PUBLIC "-//W3C//DTD SVG 1.1//EN" "http://www.w3.org/Graphics/SVG/1.1/DTD/svg11.dtd">
<!-- Creator: CorelDRAW X8 -->
<svg xmlns="http://www.w3.org/2000/svg" xml:space="preserve" width="10in" height="10in" version="1.1" style="shape-rendering:geometricPrecision; text-rendering:geometricPrecision; image-rendering:optimizeQuality; fill-rule:evenodd; clip-rule:evenodd"
viewBox="0 0 10000 10000"
 xmlns:xlink="http://www.w3.org/1999/xlink">
 <defs>
  <style type="text/css">
   <![CDATA[
    .str1 {stroke:#332C2B;stroke-width:7.87401}
    .str0 {stroke:black;stroke-width:7.87401}
    .fil0 {fill:none}
    .fil10 {fill:#FEFEFE}
    .fil13 {fill:#FEFEFE}
    .fil11 {fill:#B6B6B7}
    .fil24 {fill:#B6B6B7}
    .fil25 {fill:#757475}
    .fil23 {fill:#474443}
    .fil22 {fill:#E95A6F}
    .fil19 {fill:#E95A6F}
    .fil17 {fill:#E61D4C}
    .fil26 {fill:#E62129}
    .fil20 {fill:#AF3548}
    .fil16 {fill:#1D1819}
    .fil8 {fill:#1D1819}
    .fil1 {fill:black}
    .fil5 {fill:#663D00}
    .fil4 {fill:#855000}
    .fil9 {fill:#AD7600}
    .fil14 {fill:#D4991A}
    .fil3 {fill:#D4991A}
    .fil7 {fill:#E8C979}
    .fil12 {fill:#F4B732}
    .fil2 {fill:#F4B732}
    .fil15 {fill:#F7CA68}
    .fil18 {fill:#F8DD96}
    .fil6 {fill:#F8DD96}
    .fil21 {fill:url(#id27)}
   ]]>
  </style>
     <clipPath id="id0">
      <path d="M6010 6881c0,0 549,359 968,337 419,-21 587,-445 568,-518 -18,-73 87,-53 87,-53 0,0 102,398 -378,639 -479,240 -1134,-16 -1233,1 -100,17 -12,-406 -12,-406z"/>
     </clipPath>
     <clipPath id="id1">
      <path d="M7518 6718c0,0 124,27 229,-68 105,-95 124,-197 190,-245 67,-49 92,-54 92,-54 0,0 -62,-18 -99,-6 -36,12 -36,12 -36,12 0,0 37,-157 -26,-296 -64,-139 -107,-161 -107,-161l22 92c0,0 -163,-238 -356,-231 -193,6 -231,15 -231,15 0,0 216,190 181,438 -35,249 7,412 141,504z"/>
     </clipPath>
       <mask id="id2">
  <linearGradient id="id3" gradientUnits="userSpaceOnUse" x1="7831.08" y1="6925.09" x2="7627.95" y2="5201.12">
   <stop offset="0" style="stop-opacity:1; stop-color:white"/>
   <stop offset="1" style="stop-opacity:0; stop-color:white"/>
  </linearGradient>
        <rect style="fill:url(#id3)" x="7189" y="5664" width="1315" height="1350"/>
       </mask>
    <clipPath id="id4">
     <path d="M3528 6199c27,-79 330,-188 330,-188l-36 -430c0,0 -676,-268 -1069,-531 -393,-262 -618,-309 -741,-102 -124,207 44,579 358,789 315,210 988,554 988,554l170 -92z"/>
    </clipPath>
     <clipPath id="id5">
      <path d="M2690 5009c-43,124 -129,320 -278,449 -71,62 -140,110 -201,147 -207,-211 -300,-489 -199,-657 116,-196 324,-164 678,61z"/>
     </clipPath>
     <clipPath id="id6">
      <path d="M3528 6199c27,-79 330,-188 330,-188l-36 -430c0,0 -676,-268 -1069,-531 -393,-262 -618,-309 -741,-102 -124,207 44,579 358,789 315,210 988,554 988,554l170 -92z"/>
     </clipPath>
      <clipPath id="id7">
       <path d="M2542 2286c-83,-12 -213,-5 -213,-5 0,0 -121,134 -129,150 -9,15 -70,166 -70,166 0,0 -173,626 217,1092 390,466 717,343 888,257 171,-87 158,-387 158,-387l27 -448c0,0 -77,-305 -878,-825z"/>
      </clipPath>
        <mask id="id8">
  <linearGradient id="id9" gradientUnits="userSpaceOnUse" x1="3549.06" y1="3169.94" x2="1163.64" y2="3039.73">
   <stop offset="0" style="stop-opacity:1; stop-color:white"/>
   <stop offset="1" style="stop-opacity:0; stop-color:white"/>
  </linearGradient>
         <rect style="fill:url(#id9)" x="2560" y="2520" width="786" height="1270"/>
        </mask>
     <clipPath id="id10">
      <path d="M6782 2286c83,-12 213,-5 213,-5 0,0 121,134 130,150 8,15 69,166 69,166 0,0 173,626 -217,1092 -390,466 -717,343 -888,257 -171,-87 -158,-387 -158,-387l-27 -448c0,0 77,-305 878,-825z"/>
     </clipPath>
       <mask id="id11">
  <linearGradient id="id12" gradientUnits="userSpaceOnUse" x1="5775.08" y1="3169.94" x2="8160.5" y2="3039.73">
   <stop offset="0" style="stop-opacity:1; stop-color:white"/>
   <stop offset="1" style="stop-opacity:0; stop-color:white"/>
  </linearGradient>
        <rect style="fill:url(#id12)" x="5978" y="2520" width="786" height="1270"/>
       </mask>
    <clipPath id="id13">
     <path d="M5701 5520c0,0 49,73 115,205 55,101 111,221 166,362 145,378 194,801 178,1211 -13,333 -78,585 -170,773 -194,397 -544,603 -717,582 -256,-30 -288,-370 -242,-809 44,-419 -621,-419 -577,0 46,439 14,779 -241,809 -174,21 -524,-185 -718,-582 -91,-188 -156,-440 -170,-773 -16,-410 33,-833 179,-1211 54,-141 110,-261 165,-362 67,-132 116,-205 116,-205l9 -2c169,-246 303,-320 303,-320l646 130 646 -130c0,0 133,74 302,320l10 2z"/>
    </clipPath>
     <clipPath id="id14">
      <path d="M4708 5368c-422,0 -764,391 -764,874 0,483 342,875 764,875 422,0 764,-392 764,-875 0,-483 -342,-874 -764,-874z"/>
     </clipPath>
     <clipPath id="id15">
      <path d="M5701 5520c0,0 49,73 115,205 55,101 111,221 166,362 145,378 194,801 178,1211 -13,333 -78,585 -170,773 -194,397 -544,603 -717,582 -256,-30 -288,-370 -242,-809 44,-419 -621,-419 -577,0 46,439 14,779 -241,809 -174,21 -524,-185 -718,-582 -91,-188 -156,-440 -170,-773 -16,-410 33,-833 179,-1211 54,-141 110,-261 165,-362 67,-132 116,-205 116,-205l9 -2c169,-246 303,-320 303,-320l646 130 646 -130c0,0 133,74 302,320l10 2z"/>
     </clipPath>
     <clipPath id="id16">
      <path d="M6027 2818c332,400 465,873 567,1018 102,144 415,591 96,1116 -319,525 -1567,683 -1899,670 -28,-1 -56,-3 -83,-5 -27,2 -54,4 -83,5 -331,13 -1580,-145 -1899,-670 -318,-525 -6,-972 96,-1116 102,-145 236,-618 567,-1018 211,-255 505,-425 826,-510 -42,-16 -65,-42 -15,-83 112,-94 362,-60 362,-60 0,0 -278,-71 -125,-115 154,-44 378,89 378,89 0,0 2,-3 -73,-55 -76,-52 -146,-203 68,-96 152,76 301,232 373,315 328,83 629,255 844,515z"/>
     </clipPath>
       <mask id="id17">
  <linearGradient id="id18" gradientUnits="userSpaceOnUse" x1="4599.34" y1="1830.84" x2="4622.08" y2="2472.01">
   <stop offset="0" style="stop-opacity:1; stop-color:white"/>
   <stop offset="1" style="stop-opacity:0; stop-color:white"/>
  </linearGradient>
        <rect style="fill:url(#id18)" x="3380" y="1823" width="2652" height="1061"/>
       </mask>
     <clipPath id="id19">
      <path d="M4694 4222c-28,5 -79,9 -127,-16 -70,-36 -97,-39 -152,-10 -55,29 -50,107 -39,126 10,20 34,46 56,30 22,-15 31,-27 75,-8 45,20 75,81 126,98 61,21 90,21 150,0 51,-17 82,-78 126,-98 44,-19 53,-7 76,8 22,16 45,-10 56,-30 10,-19 15,-97 -39,-126 -55,-29 -82,-26 -153,10 -48,25 -100,21 -127,16 -9,-2 -19,-2 -28,0z"/>
     </clipPath>
       <mask id="id20">
  <linearGradient id="id21" gradientUnits="userSpaceOnUse" x1="4748.4" y1="4631.11" x2="4723.02" y2="4124.63">
   <stop offset="0" style="stop-opacity:1; stop-color:white"/>
   <stop offset="1" style="stop-opacity:0; stop-color:white"/>
  </linearGradient>
        <rect style="fill:url(#id21)" x="4323" y="4224" width="811" height="314"/>
       </mask>
     <clipPath id="id22">
      <path d="M4695 4630c-24,27 -61,57 -111,55 -89,-2 -135,-42 -135,-42 0,0 -36,176 3,334 63,254 449,254 512,0 39,-158 3,-334 3,-334 0,0 -45,40 -135,42 -50,2 -87,-28 -110,-55l-27 0z"/>
     </clipPath>
    <clipPath id="id23">
     <path d="M4498 5863l192 916c90,48 154,48 244,0l198 -918c-194,131 -453,140 -634,2z"/>
    </clipPath>
    <clipPath id="id24">
     <path d="M5683 5935c-238,30 -497,82 -611,165 -236,174 -312,480 139,570 334,66 1611,177 1391,-438l0 -1c-229,-687 -326,-835 -482,-865 -264,-50 -504,421 -437,569z"/>
    </clipPath>
      <mask id="id25">
  <linearGradient id="id26" gradientUnits="userSpaceOnUse" x1="6068.57" y1="7076.14" x2="6036.04" y2="5980.68">
   <stop offset="0" style="stop-opacity:1; stop-color:white"/>
   <stop offset="1" style="stop-opacity:0; stop-color:white"/>
  </linearGradient>
       <rect style="fill:url(#id26)" x="4783" y="6324" width="2044" height="683"/>
      </mask>
  <linearGradient id="id27" gradientUnits="userSpaceOnUse" x1="4723.87" y1="5178.17" x2="4710.81" y2="4352.53">
   <stop offset="0" style="stop-opacity:1; stop-color:#E61D4C"/>
   <stop offset="1" style="stop-opacity:1; stop-color:#1D1819"/>
  </linearGradient>
 </defs>
 <g id="Layer_x0020_1">
  <metadata id="CorelCorpID_0Corel-Layer"/>
  <rect class="fil0" width="10000" height="10000"/>
  <g id="_2049891115168">
   <g>
    <path class="fil1" d="M7731 6770c-2,46 -10,92 -20,131 -58,216 -220,367 -415,465 -244,122 -528,129 -793,96 -106,-14 -210,-34 -314,-57 -35,-7 -71,-15 -106,-22 -13,-2 -36,-7 -49,-7 -22,3 -45,1 -65,-8 -102,-46 -88,-206 -79,-296 7,-69 18,-141 32,-210 6,-30 25,-53 54,-64 28,-12 58,-9 83,7 58,38 121,73 182,105 130,68 269,130 410,171 102,30 216,53 323,48 149,-8 274,-77 369,-190 36,-43 67,-92 89,-143 3,-6 6,-14 10,-23 -173,-138 -183,-364 -154,-571 13,-89 -17,-177 -64,-251 -22,-36 -56,-79 -88,-107 -25,-23 -36,-56 -28,-89 9,-34 33,-58 66,-66 18,-5 39,-6 57,-8 64,-6 129,-8 193,-10 34,-1 68,3 101,12 77,21 153,70 218,128 19,-4 40,-1 59,9 63,33 120,144 147,204 31,66 46,148 46,229 21,2 41,6 59,11 40,12 66,48 65,89 -1,40 -27,73 -64,84 -20,8 -49,29 -65,40 -20,15 -43,58 -56,79 -37,61 -73,113 -127,161 -23,21 -48,39 -76,53z"/>
   </g>
   <g>
    <path class="fil2" d="M6010 6881c0,0 549,359 968,337 419,-21 587,-445 568,-518 -18,-73 87,-53 87,-53 0,0 102,398 -378,639 -479,240 -1134,-16 -1233,1 -100,17 -12,-406 -12,-406z"/>
    <g style="clip-path:url(#id0)">
     <g>
      <path id="1" class="fil3" d="M6016 7143c0,0 518,268 1060,140 542,-127 512,-628 557,-636 44,-7 169,-10 164,45 -5,55 -78,484 -88,500 -11,16 -852,367 -943,375 -91,8 -302,101 -535,-29 -233,-130 -215,-395 -215,-395z"/>
     </g>
    </g>
    <path class="fil0" d="M6010 6881c0,0 549,359 968,337 419,-21 587,-445 568,-518 -18,-73 87,-53 87,-53 0,0 102,398 -378,639 -479,240 -1134,-16 -1233,1 -100,17 -12,-406 -12,-406z"/>
    <path class="fil4" d="M7518 6718c0,0 124,27 229,-68 105,-95 124,-197 190,-245 67,-49 92,-54 92,-54 0,0 -62,-18 -99,-6 -36,12 -36,12 -36,12 0,0 37,-157 -26,-296 -64,-139 -107,-161 -107,-161l22 92c0,0 -163,-238 -356,-231 -193,6 -231,15 -231,15 0,0 216,190 181,438 -35,249 7,412 141,504z"/>
    <g style="clip-path:url(#id1)">
     <g>
      <path id="1" class="fil5" style="mask:url(#id2)" d="M7271 6395c3,-12 109,-260 109,-260 0,0 45,18 45,216 0,198 79,321 208,296 128,-24 158,-86 172,-172 14,-86 224,-124 224,-124l-39 -60 -94 55 -44 28c0,0 1,-217 -27,-271 -29,-53 -29,-53 -29,-53l5 44c0,0 -162,-221 -350,-273 -188,-52 -255,-45 -255,-45 0,0 -32,-67 106,-93 138,-26 349,-16 438,18 88,34 294,221 349,266 55,44 289,182 325,286 37,104 214,370 -83,500 -297,130 -168,357 -568,209 -399,-149 -640,-209 -492,-567z"/>
     </g>
    </g>
    <path class="fil0" d="M7518 6718c0,0 124,27 229,-68 105,-95 124,-197 190,-245 67,-49 92,-54 92,-54 0,0 -62,-18 -99,-6 -36,12 -36,12 -36,12 0,0 37,-157 -26,-296 -64,-139 -107,-161 -107,-161l22 92c0,0 -163,-238 -356,-231 -193,6 -231,15 -231,15 0,0 216,190 181,438 -35,249 7,412 141,504z"/>
   </g>
   <g>
    <path class="fil1" d="M3612 6234l-9 27 -244 131 -42 -21c-200,-102 -399,-209 -595,-319 -135,-76 -273,-154 -402,-240 -158,-106 -296,-260 -375,-434 -67,-147 -98,-330 -11,-476 208,-349 629,-87 869,74 107,71 222,135 336,194 159,83 322,159 487,231 76,33 152,66 229,96l52 21 47 554 -65 23c-53,19 -240,96 -277,139z"/>
   </g>
   <path class="fil2" d="M3528 6199c27,-79 330,-188 330,-188l-36 -430c0,0 -676,-268 -1069,-531 -393,-262 -618,-309 -741,-102 -124,207 44,579 358,789 315,210 988,554 988,554l170 -92z"/>
   <g style="clip-path:url(#id4)">
    <g>
     <path id="1" class="fil3" d="M1957 4804l199 66c0,0 -104,171 69,480 133,236 565,414 762,484l673 191 -163 407 -892 -333 -108 53 -1027 -1181 487 -167z"/>
     <path class="fil6" d="M2724 4891c0,0 -79,365 -312,567 -233,203 -440,259 -440,259 0,0 -242,-428 -236,-472 6,-44 -12,-488 38,-538 50,-50 229,-227 279,-227 50,1 312,72 312,72l359 339z"/>
    </g>
    <g style="clip-path:url(#id5)">
     <g>
      <path id="1" class="fil7" d="M1957 4804l199 66c0,0 -104,171 69,480 173,310 861,518 861,518l-589 284 -1027 -1181 487 -167z"/>
     </g>
    </g>
    <g style="clip-path:url(#id6)">
     <path class="fil0" d="M2724 4891c0,0 -79,365 -312,567 -233,203 -440,259 -440,259 0,0 -242,-428 -236,-472 6,-44 -12,-488 38,-538 50,-50 229,-227 279,-227 50,1 312,72 312,72l359 339z"/>
    </g>
   </g>
   <path class="fil0" d="M3528 6199c27,-79 330,-188 330,-188l-36 -430c0,0 -676,-268 -1069,-531 -393,-262 -618,-309 -741,-102 -124,207 44,579 358,789 315,210 988,554 988,554l170 -92z"/>
   <g>
    <g>
     <path class="fil1 str0" d="M3499 3290c25,-6 48,-14 71,-23 112,-42 217,-114 285,-215 139,-206 71,-444 -61,-634l-27 -41 -50 2c-66,2 -153,-12 -218,-24 -195,-39 -385,-114 -558,-210 -195,-108 -421,-152 -624,-39 -113,63 -226,190 -255,319 -8,38 -23,106 -22,162 -31,118 -41,267 -38,385 8,284 92,555 276,775 150,179 345,341 585,367 149,16 281,-22 412,-88 35,-18 65,-41 91,-70 87,-99 122,-266 117,-396l16 -270z"/>
    </g>
    <g>
     <path class="fil3" d="M2542 2286c-83,-12 -213,-5 -213,-5 0,0 -121,134 -129,150 -9,15 -70,166 -70,166 0,0 -173,626 217,1092 390,466 717,343 888,257 171,-87 158,-387 158,-387l27 -448c0,0 -77,-305 -878,-825z"/>
     <g style="clip-path:url(#id7)">
      <g>
       <path id="1" class="fil8" d="M2666 2464c-26,30 -337,149 -334,560 3,411 228,670 403,725 175,56 443,-97 443,-97 0,0 -30,224 -524,302 -494,78 -1170,-809 -1088,-928 82,-120 517,-667 517,-667l249 -10c0,0 291,-9 334,115z"/>
       <path class="fil9" style="mask:url(#id8)" d="M3005 2743c-112,-63 -441,-219 -441,-219 0,0 201,318 232,622 32,305 -36,640 -36,640 0,0 1126,-164 245,-1043z"/>
      </g>
     </g>
     <path class="fil0 str1" d="M2542 2286c-83,-12 -213,-5 -213,-5 0,0 -121,134 -129,150 -9,15 -70,166 -70,166 0,0 -173,626 217,1092 390,466 717,343 888,257 171,-87 158,-387 158,-387l27 -448c0,0 -77,-305 -878,-825z"/>
     <path class="fil2" d="M3720 2469c0,0 -358,12 -823,-245 -464,-257 -716,80 -747,220 -30,140 -18,165 -18,165 0,0 105,-309 400,-109 294,201 313,585 625,700 311,116 951,-167 563,-731z"/>
    </g>
   </g>
   <g>
    <path class="fil1 str0" d="M5825 3290c-25,-6 -48,-14 -71,-23 -112,-42 -217,-114 -284,-215 -139,-206 -71,-444 60,-634l28 -41 49 2c66,2 154,-12 218,-24 195,-39 385,-114 558,-210 196,-108 421,-152 624,-39 113,63 226,190 255,319 8,38 23,106 22,162 31,118 41,267 38,385 -7,284 -92,555 -276,775 -149,179 -345,341 -585,367 -148,16 -281,-22 -412,-88 -35,-18 -65,-41 -90,-70 -88,-99 -122,-266 -118,-396l-16 -270z"/>
   </g>
   <g>
    <path class="fil3" d="M6782 2286c83,-12 213,-5 213,-5 0,0 121,134 130,150 8,15 69,166 69,166 0,0 173,626 -217,1092 -390,466 -717,343 -888,257 -171,-87 -158,-387 -158,-387l-27 -448c0,0 77,-305 878,-825z"/>
    <g style="clip-path:url(#id10)">
     <g>
      <path id="1" class="fil8" d="M6658 2464c26,30 337,149 334,560 -3,411 -228,670 -403,725 -175,56 -443,-97 -443,-97 0,0 30,224 524,302 494,78 1170,-809 1088,-928 -82,-120 -517,-667 -517,-667l-249 -10c0,0 -291,-9 -334,115z"/>
      <path class="fil9" style="mask:url(#id11)" d="M6319 2743c112,-63 441,-219 441,-219 0,0 -201,318 -232,622 -32,305 36,640 36,640 0,0 -1126,-164 -245,-1043z"/>
     </g>
    </g>
    <path class="fil0 str1" d="M6782 2286c83,-12 213,-5 213,-5 0,0 121,134 130,150 8,15 69,166 69,166 0,0 173,626 -217,1092 -390,466 -717,343 -888,257 -171,-87 -158,-387 -158,-387l-27 -448c0,0 77,-305 878,-825z"/>
    <path class="fil2" d="M5604 2469c0,0 358,12 823,-245 465,-257 716,80 747,220 30,140 18,165 18,165 0,0 -105,-309 -400,-109 -294,201 -313,585 -625,700 -311,116 -951,-167 -563,-731z"/>
   </g>
   <g>
    <path class="fil1" d="M5896 5683c65,120 121,245 170,372 151,392 201,828 184,1246 -11,274 -58,561 -179,809 -91,187 -226,358 -394,481 -109,81 -274,168 -415,151 -57,-6 -110,-26 -157,-59 -225,-164 -188,-607 -163,-848 7,-70 -10,-134 -68,-176 -38,-27 -86,-39 -131,-39 -129,0 -213,83 -199,215 25,241 61,684 -164,848 -46,33 -99,53 -156,59 -142,17 -306,-70 -416,-151 -167,-123 -303,-294 -393,-481 -121,-248 -169,-535 -179,-809 -17,-418 33,-854 184,-1246 49,-127 105,-252 169,-372 36,-70 77,-148 122,-214l20 -30 10 -2c61,-85 130,-168 207,-238 30,-27 69,-60 105,-80l29 -15 661 132 660 -132 29 15c36,20 76,53 106,80 77,70 146,153 207,238l9 2 21 30c45,66 86,144 121,214z"/>
   </g>
   <path class="fil2" d="M5701 5520c0,0 49,73 115,205 55,101 111,221 166,362 145,378 194,801 178,1211 -13,333 -78,585 -170,773 -194,397 -544,603 -717,582 -256,-30 -288,-370 -242,-809 44,-419 -621,-419 -577,0 46,439 14,779 -241,809 -174,21 -524,-185 -718,-582 -91,-188 -156,-440 -170,-773 -16,-410 33,-833 179,-1211 54,-141 110,-261 165,-362 67,-132 116,-205 116,-205l9 -2c169,-246 303,-320 303,-320l646 130 646 -130c0,0 133,74 302,320l10 2z"/>
   <g style="clip-path:url(#id13)">
    <g>
     <path id="1" class="fil3" d="M5939 5609c-52,16 -443,249 -1298,174 -855,-75 -1144,-221 -1144,-221 0,0 229,-293 269,-301 40,-8 1160,-44 1207,-16 48,28 586,190 633,218 48,27 333,146 333,146z"/>
     <path class="fil3" d="M4708 5368c-422,0 -764,391 -764,874 0,483 342,875 764,875 422,0 764,-392 764,-875 0,-483 -342,-874 -764,-874z"/>
    </g>
    <g style="clip-path:url(#id14)">
     <g>
      <ellipse class="fil10" cx="4716" cy="6163" rx="764" ry="875"/>
      <path class="fil11" d="M5939 5609c-52,16 -443,249 -1298,174 -855,-75 -1144,-221 -1144,-221 0,0 229,-293 269,-301 40,-8 1160,-44 1207,-16 48,28 586,190 633,218 48,27 333,146 333,146z"/>
     </g>
    </g>
    <g style="clip-path:url(#id15)">
     <path class="fil0" d="M4708 5368c-422,0 -764,391 -764,874 0,483 342,875 764,875 422,0 764,-392 764,-875 0,-483 -342,-874 -764,-874z"/>
     <path class="fil6" d="M6050 8364c0,0 -72,-238 -360,-352 -289,-115 -669,-35 -669,-35l-83 470 209 162c0,0 123,75 163,75 39,0 427,-43 467,-55 39,-12 273,-265 273,-265z"/>
     <path class="fil6" d="M4458 7981l-253 55c0,0 -297,83 -436,392 -138,309 483,499 483,499l226 -345 103 -372 -123 -229z"/>
    </g>
   </g>
   <path class="fil0" d="M5701 5520c0,0 49,73 115,205 55,101 111,221 166,362 145,378 194,801 178,1211 -13,333 -78,585 -170,773 -194,397 -544,603 -717,582 -256,-30 -288,-370 -242,-809 44,-419 -621,-419 -577,0 46,439 14,779 -241,809 -174,21 -524,-185 -718,-582 -91,-188 -156,-440 -170,-773 -16,-410 33,-833 179,-1211 54,-141 110,-261 165,-362 67,-132 116,-205 116,-205l9 -2c169,-246 303,-320 303,-320l646 130 646 -130c0,0 133,74 302,320l10 2z"/>
   <g>
    <path class="fil1" d="M4708 5708c-26,1 -53,3 -79,4 -144,6 -307,-12 -449,-32 -212,-28 -424,-71 -629,-131 -314,-92 -724,-258 -902,-550 -144,-238 -190,-501 -120,-771 44,-166 121,-305 220,-444 29,-42 55,-102 76,-149 38,-84 74,-167 113,-250 105,-223 225,-435 382,-624 199,-242 468,-411 763,-508 4,-33 24,-67 59,-97 43,-36 98,-58 159,-72 0,-1 0,-3 0,-4 1,-66 55,-100 111,-116 51,-15 108,-15 166,-7 3,-15 8,-31 18,-45 59,-90 179,-42 254,-5 140,70 276,197 383,316 334,90 641,269 864,538 157,189 277,401 381,624 39,83 76,166 113,250 21,47 47,107 77,149 98,139 176,278 219,444 70,270 24,533 -120,771 -177,292 -587,458 -901,550 -205,60 -418,103 -630,131 -142,20 -305,38 -448,32 -27,-1 -53,-3 -80,-4z"/>
   </g>
   <g>
    <path class="fil12" d="M6027 2818c332,400 465,873 567,1018 102,144 415,591 96,1116 -319,525 -1567,683 -1899,670 -28,-1 -56,-3 -83,-5 -27,2 -54,4 -83,5 -331,13 -1580,-145 -1899,-670 -318,-525 -6,-972 96,-1116 102,-145 236,-618 567,-1018 211,-255 505,-425 826,-510 -42,-16 -65,-42 -15,-83 112,-94 362,-60 362,-60 0,0 -278,-71 -125,-115 154,-44 378,89 378,89 0,0 2,-3 -73,-55 -76,-52 -146,-203 68,-96 152,76 301,232 373,315 328,83 629,255 844,515z"/>
    <g style="clip-path:url(#id16)">
     <g>
      <path id="1" class="fil13" d="M11148 3886c-1086,69 -1921,477 -1921,971 0,542 1006,981 2248,981 1241,0 2248,-439 2248,-981 0,-494 -835,-902 -1922,-971 42,-114 66,-251 66,-399 0,-397 -176,-720 -392,-720 -217,0 -392,323 -392,720 0,148 24,285 65,399z"/>
      <path class="fil14" d="M7014 4744l-184 -269c0,0 -81,625 -1502,847 -1422,221 -2328,-111 -2692,-768 -364,-657 -736,641 -736,688 0,48 317,768 499,816 182,47 1987,166 2208,166 222,0 950,71 1069,0 119,-71 340,-214 435,-293 95,-79 903,-1187 903,-1187z"/>
      <path class="fil15" style="mask:url(#id17)" d="M5850 2480l178 400c-669,-753 -1949,-657 -2644,-4 0,0 194,-574 222,-597 27,-24 922,-464 977,-452 56,12 570,127 610,155 39,27 309,111 352,150 44,40 305,348 305,348z"/>
     </g>
    </g>
    <path class="fil0" d="M6027 2818c332,400 465,873 567,1018 102,144 415,591 96,1116 -319,525 -1567,683 -1899,670 -28,-1 -56,-3 -83,-5 -27,2 -54,4 -83,5 -331,13 -1580,-145 -1899,-670 -318,-525 -6,-972 96,-1116 102,-145 236,-618 567,-1018 211,-255 505,-425 826,-510 -42,-16 -65,-42 -15,-83 112,-94 362,-60 362,-60 0,0 -278,-71 -125,-115 154,-44 378,89 378,89 0,0 2,-3 -73,-55 -76,-52 -146,-203 68,-96 152,76 301,232 373,315 328,83 629,255 844,515z"/>
    <ellipse class="fil16" cx="5490" cy="3758" rx="265" ry="352"/>
    <ellipse class="fil10" cx="5558" cy="3653" rx="122" ry="162"/>
    <ellipse class="fil10" cx="5403" cy="3859" rx="71" ry="94"/>
    <ellipse class="fil16" cx="3938" cy="3758" rx="265" ry="352"/>
    <ellipse class="fil10" cx="3870" cy="3653" rx="122" ry="162"/>
    <ellipse class="fil10" cx="4025" cy="3859" rx="71" ry="94"/>
    <path class="fil0" d="M5132 4475c0,0 -105,176 -289,172 -184,-4 -168,-210 -168,-210"/>
    <path class="fil0" d="M4207 4475c0,0 105,176 289,172 184,-4 168,-210 168,-210"/>
    <g>
     <ellipse class="fil17" cx="3706" cy="4305" rx="208" ry="125"/>
     <ellipse class="fil17" cx="5710" cy="4305" rx="208" ry="125"/>
    </g>
    <ellipse class="fil18" cx="4708" cy="4884" rx="926" ry="623"/>
    <path class="fil19" d="M4694 4222c-28,5 -79,9 -127,-16 -70,-36 -97,-39 -152,-10 -55,29 -50,107 -39,126 10,20 34,46 56,30 22,-15 31,-27 75,-8 45,20 75,81 126,98 61,21 90,21 150,0 51,-17 82,-78 126,-98 44,-19 53,-7 76,8 22,16 45,-10 56,-30 10,-19 15,-97 -39,-126 -55,-29 -82,-26 -153,10 -48,25 -100,21 -127,16 -9,-2 -19,-2 -28,0z"/>
    <g style="clip-path:url(#id19)">
     <g>
      <path id="1" class="fil20" style="mask:url(#id20)" d="M4327 4293c4,-4 53,-60 53,-60 0,0 -5,88 44,71 50,-16 59,-32 98,-20 38,12 93,110 158,119 65,8 114,-23 140,-54 26,-32 74,-77 115,-79 41,-3 48,15 69,34 20,20 46,-37 34,-68 -12,-30 52,27 52,27l40 117c0,0 -51,62 -121,77 -70,14 -184,31 -205,37 -20,7 -73,64 -164,27 -92,-36 -131,-37 -199,-62 -68,-24 -114,-166 -114,-166z"/>
     </g>
    </g>
    <path class="fil0" d="M4694 4222c-28,5 -79,9 -127,-16 -70,-36 -97,-39 -152,-10 -55,29 -50,107 -39,126 10,20 34,46 56,30 22,-15 31,-27 75,-8 45,20 75,81 126,98 61,21 90,21 150,0 51,-17 82,-78 126,-98 44,-19 53,-7 76,8 22,16 45,-10 56,-30 10,-19 15,-97 -39,-126 -55,-29 -82,-26 -153,10 -48,25 -100,21 -127,16 -9,-2 -19,-2 -28,0z"/>
    <path class="fil21" d="M4695 4630c-24,27 -61,57 -111,55 -89,-2 -135,-42 -135,-42 0,0 -36,176 3,334 63,254 449,254 512,0 39,-158 3,-334 3,-334 0,0 -45,40 -135,42 -50,2 -87,-28 -110,-55l-27 0z"/>
    <g style="clip-path:url(#id22)">
     <g>
      <path id="1" class="fil22" d="M4838 4965c-52,0 -98,24 -127,63 -28,-39 -74,-63 -126,-63 -88,0 -159,71 -159,158 0,88 71,159 159,159 52,0 98,-25 126,-64 29,39 75,64 127,64 88,0 159,-71 159,-159 0,-87 -71,-158 -159,-158z"/>
     </g>
    </g>
    <path class="fil0" d="M4695 4630c-24,27 -61,57 -111,55 -89,-2 -135,-42 -135,-42 0,0 -36,176 3,334 63,254 449,254 512,0 39,-158 3,-334 3,-334 0,0 -45,40 -135,42 -50,2 -87,-28 -110,-55l-27 0z"/>
   </g>
   <g>
    <path class="fil13" d="M5155 4416c0,0 508,-130 813,-130 304,0 357,18 357,18 0,0 -396,-18 -1170,112z"/>
    <path class="fil13" d="M5217 4499c0,0 525,-9 821,61 296,70 343,100 343,100 0,0 -381,-108 -1164,-161z"/>
    <path class="fil13" d="M5146 4615c0,0 514,105 788,238 274,133 313,172 313,172 0,0 -348,-189 -1101,-410z"/>
   </g>
   <g>
    <path class="fil13" d="M4284 4416c0,0 -508,-130 -813,-130 -305,0 -357,18 -357,18 0,0 396,-18 1170,112z"/>
    <path class="fil13" d="M4222 4499c0,0 -525,-9 -821,61 -297,70 -343,100 -343,100 0,0 381,-108 1164,-161z"/>
    <path class="fil13" d="M4292 4615c0,0 -513,105 -787,238 -275,133 -313,172 -313,172 0,0 348,-189 1100,-410z"/>
   </g>
   <g>
    <path class="fil1" d="M4812 5208c232,0 421,188 421,421 0,232 -189,421 -421,421 -233,0 -421,-189 -421,-421 0,-233 188,-421 421,-421z"/>
   </g>
   <circle class="fil23" cx="4812" cy="5629" r="359"/>
   <g>
    <path class="fil1" d="M4415 5539c10,8 44,17 55,20 29,8 60,14 90,18 50,8 100,13 150,17 116,10 234,-2 347,-31 37,-9 73,-20 108,-33 11,-4 21,-8 32,-12 6,-2 13,-5 19,-7 4,-1 9,-1 13,-1 28,5 35,42 36,65 0,18 -3,40 -15,54 -71,79 -328,101 -429,105 -89,5 -385,10 -447,-63 -19,-24 -28,-55 -23,-85 3,-24 18,-56 47,-56 7,1 13,3 17,9z"/>
   </g>
   <path class="fil24" d="M4398 5554c0,0 30,40 310,63 281,23 495,-78 514,-84 19,-5 28,60 10,80 -102,116 -764,134 -840,43 -34,-41 -17,-103 6,-102z"/>
   <g>
    <path class="fil1" d="M4536 5814c163,125 395,107 561,-4l128 -86 -236 1096 -25 13c-109,59 -195,59 -303,0l-26 -13 -232 -1108 133 102z"/>
   </g>
   <path class="fil25" d="M4498 5863l192 916c90,48 154,48 244,0l198 -918c-194,131 -453,140 -634,2z"/>
   <g style="clip-path:url(#id23)">
    <g>
     <path id="1" class="fil26" d="M4479 6055c0,0 122,86 291,88 168,2 348,-71 348,-71l-21 134c0,0 -190,95 -417,52 -227,-44 -230,-45 -230,-45l29 -158z"/>
    </g>
   </g>
   <path class="fil0" d="M4498 5863l192 916c90,48 154,48 244,0l198 -918c-194,131 -453,140 -634,2z"/>
   <g>
    <path class="fil1" d="M5590 5866c3,-120 70,-261 126,-344 92,-136 243,-269 419,-235 13,2 26,6 39,10 119,37 189,139 245,244 45,84 83,174 117,263 51,132 98,266 142,401 38,105 46,218 -10,318 -131,239 -541,275 -781,280 -133,3 -267,-3 -399,-14 -97,-9 -197,-21 -293,-40 -167,-33 -363,-117 -390,-307 -23,-164 95,-316 219,-407 128,-94 381,-142 566,-169z"/>
   </g>
   <path class="fil2" d="M5683 5935c-238,30 -497,82 -611,165 -236,174 -312,480 139,570 334,66 1611,177 1391,-438l0 -1c-229,-687 -326,-835 -482,-865 -264,-50 -504,421 -437,569z"/>
   <g style="clip-path:url(#id24)">
    <g>
     <ellipse class="fil18" cx="5107" cy="6378" rx="399" ry="497"/>
     <path class="fil3" style="mask:url(#id25)" d="M4787 6847c14,-38 101,-429 101,-429 0,0 338,257 1049,179 710,-78 695,-269 695,-269 0,0 148,40 152,92 3,52 111,319 -45,354 -157,35 -538,195 -1045,226 -507,31 -907,-153 -907,-153z"/>
    </g>
   </g>
   <path class="fil0" d="M5683 5935c-238,30 -497,82 -611,165 -236,174 -312,480 139,570 334,66 1611,177 1391,-438l0 -1c-229,-687 -326,-835 -482,-865 -264,-50 -504,421 -437,569z"/>
  </g>
 </g>
</svg>
