<?xml version="1.0" encoding="UTF-8"?>
<!DOCTYPE svg PUBLIC "-//W3C//DTD SVG 1.1//EN" "http://www.w3.org/Graphics/SVG/1.1/DTD/svg11.dtd">
<!-- Creator: CorelDRAW X8 -->
<svg xmlns="http://www.w3.org/2000/svg" xml:space="preserve" width="10in" height="10in" version="1.1" style="shape-rendering:geometricPrecision; text-rendering:geometricPrecision; image-rendering:optimizeQuality; fill-rule:evenodd; clip-rule:evenodd"
viewBox="0 0 10155 10155"
 xmlns:xlink="http://www.w3.org/1999/xlink">
 <defs>
  <style type="text/css">
   <![CDATA[
    .str1 {stroke:#332C2B;stroke-width:7.99618}
    .str0 {stroke:black;stroke-width:7.99618}
    .fil0 {fill:none}
    .fil11 {fill:#FEFEFE}
    .fil17 {fill:#FEFEFE}
    .fil12 {fill:#B6B6B7}
    .fil15 {fill:#EB6A7F}
    .fil10 {fill:#EB6A7F}
    .fil26 {fill:#E95A6F}
    .fil13 {fill:#E95A6F}
    .fil23 {fill:#E95A6F}
    .fil21 {fill:#E61D4C}
    .fil24 {fill:#AF3548}
    .fil14 {fill:#AF3548}
    .fil20 {fill:#1D1819}
    .fil27 {fill:#1D1819}
    .fil8 {fill:#1D1819}
    .fil1 {fill:black}
    .fil5 {fill:#663D00}
    .fil4 {fill:#855000}
    .fil9 {fill:#AD7600}
    .fil18 {fill:#D4991A}
    .fil3 {fill:#D4991A}
    .fil7 {fill:#E8C979}
    .fil16 {fill:#F4B732}
    .fil2 {fill:#F4B732}
    .fil19 {fill:#F7CA68}
    .fil22 {fill:#F8DD96}
    .fil6 {fill:#F8DD96}
    .fil25 {fill:url(#id28)}
   ]]>
  </style>
    <clipPath id="id0">
     <path d="M6026 7016c0,0 558,364 983,343 425,-22 596,-453 577,-527 -19,-74 87,-53 87,-53 0,0 104,404 -383,648 -486,244 -1151,-16 -1252,1 -102,17 -12,-412 -12,-412z"/>
    </clipPath>
    <clipPath id="id1">
     <path d="M7557 6850c0,0 126,28 233,-68 107,-97 125,-201 193,-250 68,-49 93,-55 93,-55 0,0 -63,-18 -100,-5 -37,12 -37,12 -37,12 0,0 38,-160 -27,-301 -65,-141 -109,-163 -109,-163l23 93c0,0 -165,-241 -361,-235 -197,7 -235,16 -235,16 0,0 220,192 184,445 -35,253 7,418 143,511z"/>
    </clipPath>
      <mask id="id2">
  <linearGradient id="id3" gradientUnits="userSpaceOnUse" x1="7875" y1="7060.74" x2="7668.73" y2="5310.03">
   <stop offset="0" style="stop-opacity:1; stop-color:white"/>
   <stop offset="1" style="stop-opacity:0; stop-color:white"/>
  </linearGradient>
       <rect style="fill:url(#id3)" x="7223" y="5780" width="1336" height="1371"/>
      </mask>
   <clipPath id="id4">
    <path d="M3506 6323c26,-80 334,-191 334,-191l-36 -437c0,0 -686,-272 -1086,-538 -399,-266 -628,-315 -753,-104 -125,210 45,588 364,801 320,213 1004,562 1004,562l173 -93z"/>
   </clipPath>
    <clipPath id="id5">
     <path d="M2654 5115c-44,126 -131,325 -282,456 -72,63 -142,112 -204,149 -211,-214 -305,-496 -203,-667 119,-199 329,-167 689,62z"/>
    </clipPath>
    <clipPath id="id6">
     <path d="M3506 6323c26,-80 334,-191 334,-191l-36 -437c0,0 -686,-272 -1086,-538 -399,-266 -628,-315 -753,-104 -125,210 45,588 364,801 320,213 1004,562 1004,562l173 -93z"/>
    </clipPath>
     <clipPath id="id7">
      <path d="M2504 2350c-84,-12 -216,-5 -216,-5 0,0 -123,136 -132,151 -9,16 -70,170 -70,170 0,0 -176,635 220,1108 396,474 728,349 901,261 174,-88 161,-392 161,-392l27 -455c0,0 -78,-310 -891,-838z"/>
     </clipPath>
       <mask id="id8">
  <linearGradient id="id9" gradientUnits="userSpaceOnUse" x1="3526.55" y1="3247.33" x2="1104.12" y2="3115.1">
   <stop offset="0" style="stop-opacity:1; stop-color:white"/>
   <stop offset="1" style="stop-opacity:0; stop-color:white"/>
  </linearGradient>
        <rect style="fill:url(#id9)" x="2522" y="2587" width="798" height="1290"/>
       </mask>
    <clipPath id="id10">
     <path d="M6810 2350c84,-12 216,-5 216,-5 0,0 123,136 131,151 9,16 71,170 71,170 0,0 176,635 -220,1108 -396,474 -728,349 -902,261 -173,-88 -160,-392 -160,-392l-28 -455c0,0 79,-310 892,-838z"/>
    </clipPath>
      <mask id="id11">
  <linearGradient id="id12" gradientUnits="userSpaceOnUse" x1="5787.11" y1="3247.33" x2="8209.54" y2="3115.1">
   <stop offset="0" style="stop-opacity:1; stop-color:white"/>
   <stop offset="1" style="stop-opacity:0; stop-color:white"/>
  </linearGradient>
       <rect style="fill:url(#id12)" x="5994" y="2587" width="798" height="1290"/>
      </mask>
   <clipPath id="id13">
    <path d="M5553 5999c67,-50 76,-378 76,-378l426 -103c0,0 474,565 853,860 379,294 497,497 337,682 -160,185 -572,143 -876,-93 -303,-236 -850,-774 -850,-774l34 -194z"/>
   </clipPath>
    <clipPath id="id14">
     <path d="M6969 6426c-106,81 -267,227 -344,412 -37,88 -62,169 -78,240 270,133 568,132 698,-18 151,-175 54,-365 -276,-634z"/>
    </clipPath>
    <clipPath id="id15">
     <path d="M5553 5999c67,-50 76,-378 76,-378l426 -103c0,0 474,565 853,860 379,294 497,497 337,682 -160,185 -572,143 -876,-93 -303,-236 -850,-774 -850,-774l34 -194z"/>
    </clipPath>
   <clipPath id="id16">
    <path d="M5711 5634c0,0 51,74 118,208 56,103 113,225 168,368 148,383 198,814 181,1229 -13,339 -80,595 -172,785 -197,404 -553,613 -729,592 -259,-32 -292,-376 -245,-822 44,-425 -631,-425 -586,0 47,446 14,790 -245,822 -177,21 -532,-188 -729,-592 -93,-190 -159,-446 -173,-785 -16,-415 34,-846 182,-1229 55,-143 112,-265 168,-368 67,-134 117,-208 117,-208l10 -2c171,-250 307,-325 307,-325l656 132 656 -132c0,0 135,75 307,325l9 2z"/>
   </clipPath>
    <clipPath id="id17">
     <path d="M4704 5479c-429,0 -776,398 -776,888 0,491 347,889 776,889 428,0 775,-398 775,-889 0,-490 -347,-888 -775,-888z"/>
    </clipPath>
    <clipPath id="id18">
     <path d="M5711 5634c0,0 51,74 118,208 56,103 113,225 168,368 148,383 198,814 181,1229 -13,339 -80,595 -172,785 -197,404 -553,613 -729,592 -259,-32 -292,-376 -245,-822 44,-425 -631,-425 -586,0 47,446 14,790 -245,822 -177,21 -532,-188 -729,-592 -93,-190 -159,-446 -173,-785 -16,-415 34,-846 182,-1229 55,-143 112,-265 168,-368 67,-134 117,-208 117,-208l10 -2c171,-250 307,-325 307,-325l656 132 656 -132c0,0 135,75 307,325l9 2z"/>
    </clipPath>
   <clipPath id="id19">
    <path d="M2779 2794c339,0 613,375 613,839 0,463 -274,839 -613,839 -339,0 -614,-376 -614,-839 0,-464 275,-839 614,-839z"/>
   </clipPath>
   <clipPath id="id20">
    <path d="M6545 2794c-339,0 -613,375 -613,839 0,463 274,839 613,839 339,0 614,-376 614,-839 0,-464 -275,-839 -614,-839z"/>
   </clipPath>
    <clipPath id="id21">
     <path d="M6043 2890c337,407 473,887 576,1033 104,147 421,601 97,1134 -323,534 -1591,694 -1928,680 -29,-1 -57,-2 -84,-4 -28,2 -56,3 -85,4 -336,14 -1604,-146 -1928,-680 -323,-533 -6,-987 97,-1134 104,-146 240,-626 576,-1033 214,-259 512,-432 838,-518 -41,-16 -65,-42 -14,-85 114,-95 367,-60 367,-60 0,0 -283,-72 -127,-117 156,-45 384,90 384,90 0,0 3,-3 -74,-55 -77,-53 -148,-207 69,-98 155,77 306,236 379,320 333,85 639,259 857,523z"/>
    </clipPath>
      <mask id="id22">
  <linearGradient id="id23" gradientUnits="userSpaceOnUse" x1="4593.12" y1="1887.45" x2="4616.22" y2="2538.57">
   <stop offset="0" style="stop-opacity:1; stop-color:white"/>
   <stop offset="1" style="stop-opacity:0; stop-color:white"/>
  </linearGradient>
       <rect style="fill:url(#id23)" x="3355" y="1880" width="2693" height="1077"/>
      </mask>
    <clipPath id="id24">
     <path d="M4689 4315c-28,6 -80,10 -128,-15 -72,-37 -100,-40 -155,-11 -56,29 -50,109 -40,128 11,20 35,47 57,31 22,-16 32,-28 77,-8 45,20 76,81 127,99 62,21 91,21 153,0 52,-18 83,-79 128,-99 45,-20 54,-8 76,8 23,16 47,-11 57,-31 11,-19 16,-99 -39,-128 -56,-29 -84,-26 -155,11 -49,25 -102,21 -130,15 -8,-1 -19,-1 -28,0z"/>
    </clipPath>
      <mask id="id25">
  <linearGradient id="id26" gradientUnits="userSpaceOnUse" x1="4744.5" y1="4731.17" x2="4718.72" y2="4216.84">
   <stop offset="0" style="stop-opacity:1; stop-color:white"/>
   <stop offset="1" style="stop-opacity:0; stop-color:white"/>
  </linearGradient>
       <rect style="fill:url(#id26)" x="4313" y="4317" width="823" height="319"/>
      </mask>
    <clipPath id="id27">
     <path d="M4690 4730c-24,27 -62,57 -112,56 -91,-2 -137,-43 -137,-43 0,0 -37,179 3,340 64,257 456,257 519,0 40,-161 4,-340 4,-340 0,0 -47,41 -137,43 -51,1 -89,-29 -113,-56l-27 0z"/>
    </clipPath>
  <linearGradient id="id28" gradientUnits="userSpaceOnUse" x1="4719.59" y1="5286.72" x2="4706.32" y2="4448.27">
   <stop offset="0" style="stop-opacity:1; stop-color:#E61D4C"/>
   <stop offset="1" style="stop-opacity:1; stop-color:#1D1819"/>
  </linearGradient>
 </defs>
 <g id="Layer_x0020_1">
  <metadata id="CorelCorpID_0Corel-Layer"/>
  <rect class="fil0" width="10155" height="10155"/>
  <g id="_2049971203200">
   <path class="fil1" d="M7774 6903c-3,47 -10,94 -21,133 -58,220 -223,373 -422,473 -247,124 -536,131 -805,97 -107,-14 -213,-35 -318,-57 -36,-8 -72,-16 -109,-23 -13,-3 -35,-7 -49,-7 -22,3 -45,0 -66,-9 -104,-46 -89,-208 -80,-300 7,-71 18,-144 33,-213 6,-31 25,-54 54,-66 29,-12 59,-9 85,8 58,38 122,74 184,106 132,70 273,132 417,174 104,31 219,54 327,48 152,-7 279,-77 375,-192 37,-44 68,-94 91,-145 3,-6 6,-14 10,-24 -176,-140 -186,-370 -156,-580 12,-90 -17,-179 -65,-255 -23,-36 -57,-80 -89,-108 -27,-23 -37,-57 -29,-91 8,-34 33,-59 67,-67 18,-4 39,-6 58,-8 65,-6 131,-8 196,-10 34,-1 69,3 103,12 77,21 155,71 220,131 20,-4 41,-1 60,9 64,33 122,145 150,206 31,67 47,151 47,233 21,2 41,6 59,11 41,12 68,49 66,91 -1,40 -27,74 -65,85 -19,8 -49,29 -65,41 -21,15 -44,58 -58,80 -37,62 -74,115 -128,164 -24,21 -50,39 -77,53z"/>
  </g>
  <g id="_2049971204032">
   <path class="fil2" d="M6026 7016c0,0 558,364 983,343 425,-22 596,-453 577,-527 -19,-74 87,-53 87,-53 0,0 104,404 -383,648 -486,244 -1151,-16 -1252,1 -102,17 -12,-412 -12,-412z"/>
   <g style="clip-path:url(#id0)">
    <g>
     <path id="1" class="fil3" d="M6032 7282c0,0 526,272 1076,142 550,-129 520,-638 565,-645 46,-8 173,-10 168,45 -6,56 -80,492 -90,508 -11,16 -865,373 -958,381 -92,8 -306,103 -543,-30 -237,-132 -218,-401 -218,-401z"/>
    </g>
   </g>
   <path class="fil0" d="M6026 7016c0,0 558,364 983,343 425,-22 596,-453 577,-527 -19,-74 87,-53 87,-53 0,0 104,404 -383,648 -486,244 -1151,-16 -1252,1 -102,17 -12,-412 -12,-412z"/>
   <path class="fil4" d="M7557 6850c0,0 126,28 233,-68 107,-97 125,-201 193,-250 68,-49 93,-55 93,-55 0,0 -63,-18 -100,-5 -37,12 -37,12 -37,12 0,0 38,-160 -27,-301 -65,-141 -109,-163 -109,-163l23 93c0,0 -165,-241 -361,-235 -197,7 -235,16 -235,16 0,0 220,192 184,445 -35,253 7,418 143,511z"/>
   <g style="clip-path:url(#id1)">
    <g>
     <path id="1" class="fil5" style="mask:url(#id2)" d="M7306 6523c3,-12 111,-265 111,-265 0,0 45,19 45,220 0,201 81,326 211,301 131,-25 161,-88 176,-176 14,-87 227,-126 227,-126l-40 -60 -95 56 -45 28c0,0 1,-220 -28,-275 -29,-54 -29,-54 -29,-54l6 45c0,0 -165,-225 -356,-278 -191,-53 -259,-45 -259,-45 0,0 -32,-68 108,-95 140,-26 355,-16 444,19 90,34 299,225 355,270 55,44 293,185 330,290 37,106 217,376 -84,508 -302,132 -171,362 -577,212 -406,-151 -650,-212 -500,-575z"/>
    </g>
   </g>
   <path class="fil0" d="M7557 6850c0,0 126,28 233,-68 107,-97 125,-201 193,-250 68,-49 93,-55 93,-55 0,0 -63,-18 -100,-5 -37,12 -37,12 -37,12 0,0 38,-160 -27,-301 -65,-141 -109,-163 -109,-163l23 93c0,0 -165,-241 -361,-235 -197,7 -235,16 -235,16 0,0 220,192 184,445 -35,253 7,418 143,511z"/>
  </g>
  <g id="_2049971136032">
   <path class="fil1" d="M3590 6359l-9 28 -247 132 -43 -21c-203,-104 -406,-212 -605,-324 -137,-77 -276,-157 -407,-244 -161,-107 -302,-263 -382,-440 -67,-149 -99,-336 -10,-484 211,-354 638,-88 882,75 109,72 225,137 341,197 162,85 328,162 495,235 77,33 154,67 232,98l53 20 47 563 -66 24c-53,19 -243,97 -281,141z"/>
  </g>
  <path class="fil2" d="M3506 6323c26,-80 334,-191 334,-191l-36 -437c0,0 -686,-272 -1086,-538 -399,-266 -628,-315 -753,-104 -125,210 45,588 364,801 320,213 1004,562 1004,562l173 -93z"/>
  <g style="clip-path:url(#id4)">
   <g id="_2049971138112">
    <path id="1" class="fil3" d="M1910 4907l202 67c0,0 -105,173 70,487 135,240 573,420 774,492l683 194 -165 413 -906 -338 -110 53 -1043 -1199 495 -169z"/>
    <path class="fil6" d="M2689 4996c0,0 -81,369 -317,575 -237,206 -447,263 -447,263 0,0 -246,-435 -239,-479 6,-45 -13,-496 38,-547 51,-51 233,-230 284,-230 50,0 316,73 316,73l365 345z"/>
   </g>
   <g style="clip-path:url(#id5)">
    <g>
     <path id="1" class="fil7" d="M1910 4907l202 67c0,0 -105,173 70,487 176,315 875,526 875,526l-599 288 -1043 -1199 495 -169z"/>
    </g>
   </g>
   <g style="clip-path:url(#id6)">
    <path class="fil0" d="M2689 4996c0,0 -81,369 -317,575 -237,206 -447,263 -447,263 0,0 -246,-435 -239,-479 6,-45 -13,-496 38,-547 51,-51 233,-230 284,-230 50,0 316,73 316,73l365 345z"/>
   </g>
  </g>
  <path class="fil0" d="M3506 6323c26,-80 334,-191 334,-191l-36 -437c0,0 -686,-272 -1086,-538 -399,-266 -628,-315 -753,-104 -125,210 45,588 364,801 320,213 1004,562 1004,562l173 -93z"/>
  <g id="_2049971138784">
   <g>
    <path class="fil1 str0" d="M3476 3370c25,-7 49,-15 72,-24 114,-43 220,-116 289,-218 141,-210 72,-451 -61,-644l-29 -42 -50 2c-67,2 -156,-12 -221,-25 -198,-39 -391,-115 -567,-212 -198,-110 -427,-155 -633,-40 -115,64 -230,192 -259,324 -9,39 -24,107 -23,164 -31,120 -42,271 -38,392 7,288 93,563 280,786 152,182 350,346 594,373 151,17 286,-22 419,-90 35,-17 65,-41 91,-71 89,-100 124,-270 120,-401l16 -274z"/>
   </g>
   <g>
    <path class="fil3" d="M2504 2350c-84,-12 -216,-5 -216,-5 0,0 -123,136 -132,151 -9,16 -70,170 -70,170 0,0 -176,635 220,1108 396,474 728,349 901,261 174,-88 161,-392 161,-392l27 -455c0,0 -78,-310 -891,-838z"/>
    <g style="clip-path:url(#id7)">
     <g>
      <path id="1" class="fil8" d="M2630 2530c-26,31 -342,151 -339,569 3,417 231,681 409,737 178,56 450,-99 450,-99 0,0 -31,227 -532,306 -502,79 -1188,-821 -1105,-942 83,-121 525,-677 525,-677l252 -10c0,0 297,-10 340,116z"/>
      <path class="fil9" style="mask:url(#id8)" d="M2974 2814c-114,-64 -448,-223 -448,-223 0,0 205,323 236,633 32,309 -37,649 -37,649 0,0 1144,-167 249,-1059z"/>
     </g>
    </g>
    <path class="fil0 str1" d="M2504 2350c-84,-12 -216,-5 -216,-5 0,0 -123,136 -132,151 -9,16 -70,170 -70,170 0,0 -176,635 220,1108 396,474 728,349 901,261 174,-88 161,-392 161,-392l27 -455c0,0 -78,-310 -891,-838z"/>
    <path class="fil2" d="M3700 2535c0,0 -364,13 -835,-248 -472,-261 -728,81 -759,223 -31,142 -18,168 -18,168 0,0 106,-314 406,-111 299,204 318,594 634,711 317,117 966,-170 572,-743z"/>
   </g>
  </g>
  <g id="_2049971141568">
   <path class="fil1 str0" d="M5838 3370c-25,-7 -49,-15 -72,-24 -114,-43 -220,-116 -289,-218 -141,-210 -72,-451 61,-644l28 -42 50 2c68,2 156,-12 222,-25 198,-39 391,-115 567,-212 198,-110 427,-155 633,-40 115,64 230,192 259,324 8,39 24,107 23,164 31,120 41,271 38,392 -7,288 -94,563 -280,786 -152,182 -351,346 -594,373 -151,17 -286,-22 -419,-90 -35,-17 -66,-41 -91,-71 -89,-100 -124,-270 -120,-401l-16 -274z"/>
  </g>
  <g id="_2049971141152">
   <path class="fil3" d="M6810 2350c84,-12 216,-5 216,-5 0,0 123,136 131,151 9,16 71,170 71,170 0,0 176,635 -220,1108 -396,474 -728,349 -902,261 -173,-88 -160,-392 -160,-392l-28 -455c0,0 79,-310 892,-838z"/>
   <g style="clip-path:url(#id10)">
    <g>
     <path id="1" class="fil8" d="M6684 2530c26,31 342,151 339,569 -3,417 -232,681 -409,737 -178,56 -450,-99 -450,-99 0,0 30,227 532,306 502,79 1188,-821 1105,-942 -84,-121 -525,-677 -525,-677l-253 -10c0,0 -296,-10 -339,116z"/>
     <path class="fil9" style="mask:url(#id11)" d="M6340 2814c114,-64 447,-223 447,-223 0,0 -204,323 -236,633 -31,309 38,649 38,649 0,0 -1144,-167 -249,-1059z"/>
    </g>
   </g>
   <path class="fil0 str1" d="M6810 2350c84,-12 216,-5 216,-5 0,0 123,136 131,151 9,16 71,170 71,170 0,0 176,635 -220,1108 -396,474 -728,349 -902,261 -173,-88 -160,-392 -160,-392l-28 -455c0,0 79,-310 892,-838z"/>
   <path class="fil2" d="M5613 2535c0,0 364,13 836,-248 472,-261 727,81 758,223 32,142 19,168 19,168 0,0 -107,-314 -406,-111 -299,204 -318,594 -634,711 -317,117 -967,-170 -573,-743z"/>
  </g>
  <g id="_2049971143456">
   <path class="fil1" d="M4704 1303c1137,0 2059,922 2059,2060 0,1137 -922,2059 -2059,2059 -1138,0 -2060,-922 -2060,-2059 0,-1138 922,-2060 2060,-2060zm0 465c-881,0 -1595,714 -1595,1595 0,881 714,1594 1595,1594 880,0 1594,-713 1594,-1594 0,-881 -714,-1595 -1594,-1595z"/>
  </g>
  <path class="fil10" d="M4704 1411c1078,0 1952,874 1952,1952 0,1078 -874,1952 -1952,1952 -1078,0 -1952,-874 -1952,-1952 0,-1078 874,-1952 1952,-1952zm0 249c940,0 1702,763 1702,1703 0,940 -762,1702 -1702,1702 -940,0 -1703,-762 -1703,-1702 0,-940 763,-1703 1703,-1703z"/>
  <g id="_2049971143936">
   <path class="fil1" d="M5494 5931c29,-50 43,-255 44,-312l2 -70 548 -132 36 43c54,64 110,127 166,190 122,135 248,269 379,395 94,91 192,181 295,261 231,180 618,502 349,813 -112,130 -299,159 -462,142 -192,-20 -385,-104 -537,-222 -124,-97 -244,-204 -360,-310 -169,-154 -336,-312 -498,-472l-34 -33 48 -276 24 -17z"/>
  </g>
  <path class="fil2" d="M5553 5999c67,-50 76,-378 76,-378l426 -103c0,0 474,565 853,860 379,294 497,497 337,682 -160,185 -572,143 -876,-93 -303,-236 -850,-774 -850,-774l34 -194z"/>
  <g style="clip-path:url(#id13)">
   <g id="_2049971145760">
    <path id="1" class="fil3" d="M7400 7066l-127 -171c0,0 -131,155 -485,88 -353,-68 -774,-664 -774,-664l-85 659 1467 611 4 -523z"/>
    <path class="fil6" d="M7071 6355c0,0 -326,193 -446,483 -121,289 -109,506 -109,506 0,0 490,96 531,76 40,-20 474,-144 506,-209 32,-64 145,-293 129,-341 -16,-48 -169,-278 -169,-278l-442 -237z"/>
   </g>
   <g style="clip-path:url(#id14)">
    <g>
     <path id="1" class="fil7" d="M7400 7066l-127 -171c0,0 -131,155 -485,88 -353,-68 -774,-664 -774,-664l-85 659 1467 611 4 -523z"/>
    </g>
   </g>
   <g style="clip-path:url(#id15)">
    <path class="fil0" d="M7071 6355c0,0 -326,193 -446,483 -121,289 -109,506 -109,506 0,0 490,96 531,76 40,-20 474,-144 506,-209 32,-64 145,-293 129,-341 -16,-48 -169,-278 -169,-278l-442 -237z"/>
   </g>
  </g>
  <path class="fil0" d="M5553 5999c67,-50 76,-378 76,-378l426 -103c0,0 474,565 853,860 379,294 497,497 337,682 -160,185 -572,143 -876,-93 -303,-236 -850,-774 -850,-774l34 -194z"/>
  <g id="_2049971146880">
   <path class="fil1" d="M5910 5800c66,121 122,248 172,377 154,398 204,841 188,1266 -11,277 -59,570 -182,821 -93,190 -230,363 -400,489 -112,82 -279,171 -422,153 -58,-7 -112,-26 -159,-60 -229,-167 -192,-616 -166,-861 7,-71 -10,-136 -69,-179 -38,-27 -87,-40 -133,-40 -131,0 -216,85 -202,219 25,245 62,694 -166,861 -48,34 -102,53 -159,60 -144,18 -311,-71 -422,-153 -170,-126 -308,-299 -400,-489 -123,-251 -171,-544 -182,-821 -17,-425 34,-868 188,-1266 49,-129 106,-256 172,-377 36,-72 77,-151 123,-217l21 -31 10 -2c61,-87 131,-171 210,-242 30,-28 70,-61 107,-81l29 -16 671 135 671 -135 29 16c36,20 76,54 107,81 78,71 149,155 210,242l10 2 21 31c45,66 87,145 123,217z"/>
  </g>
  <path class="fil2" d="M5711 5634c0,0 51,74 118,208 56,103 113,225 168,368 148,383 198,814 181,1229 -13,339 -80,595 -172,785 -197,404 -553,613 -729,592 -259,-32 -292,-376 -245,-822 44,-425 -631,-425 -586,0 47,446 14,790 -245,822 -177,21 -532,-188 -729,-592 -93,-190 -159,-446 -173,-785 -16,-415 34,-846 182,-1229 55,-143 112,-265 168,-368 67,-134 117,-208 117,-208l10 -2c171,-250 307,-325 307,-325l656 132 656 -132c0,0 135,75 307,325l9 2z"/>
  <g style="clip-path:url(#id16)">
   <g id="_2049971147488">
    <path id="1" class="fil3" d="M5953 5724c-52,16 -450,254 -1318,177 -868,-76 -1162,-225 -1162,-225 0,0 234,-297 274,-305 40,-8 1177,-45 1226,-16 48,28 595,192 643,221 48,28 337,148 337,148z"/>
    <path class="fil3" d="M4704 5479c-429,0 -776,398 -776,888 0,491 347,889 776,889 428,0 775,-398 775,-889 0,-490 -347,-888 -775,-888z"/>
   </g>
   <g style="clip-path:url(#id17)">
    <g>
     <ellipse class="fil11" cx="4712" cy="6287" rx="776" ry="888"/>
     <path class="fil12" d="M5953 5724c-52,16 -450,254 -1318,177 -868,-76 -1162,-225 -1162,-225 0,0 234,-297 274,-305 40,-8 1177,-45 1226,-16 48,28 595,192 643,221 48,28 337,148 337,148z"/>
    </g>
   </g>
   <g style="clip-path:url(#id18)">
    <path class="fil0" d="M4704 5479c-429,0 -776,398 -776,888 0,491 347,889 776,889 428,0 775,-398 775,-889 0,-490 -347,-888 -775,-888z"/>
    <path class="fil6" d="M6066 8522c0,0 -72,-241 -366,-358 -293,-117 -679,-35 -679,-35l-84 477 213 165c0,0 124,76 164,76 41,0 435,-44 475,-56 40,-12 277,-269 277,-269z"/>
    <path class="fil6" d="M4450 8133l-258 56c0,0 -301,84 -442,398 -140,313 491,506 491,506l229 -349 104 -378 -124 -233z"/>
   </g>
  </g>
  <path class="fil0" d="M5711 5634c0,0 51,74 118,208 56,103 113,225 168,368 148,383 198,814 181,1229 -13,339 -80,595 -172,785 -197,404 -553,613 -729,592 -259,-32 -292,-376 -245,-822 44,-425 -631,-425 -586,0 47,446 14,790 -245,822 -177,21 -532,-188 -729,-592 -93,-190 -159,-446 -173,-785 -16,-415 34,-846 182,-1229 55,-143 112,-265 168,-368 67,-134 117,-208 117,-208l10 -2c171,-250 307,-325 307,-325l656 132 656 -132c0,0 135,75 307,325l9 2z"/>
  <g id="_2049971150336">
   <path class="fil1" d="M2779 2709c385,0 698,414 698,924 0,510 -313,924 -698,924 -386,0 -698,-414 -698,-924 0,-510 312,-924 698,-924z"/>
  </g>
  <path class="fil13" d="M2779 2794c339,0 613,375 613,839 0,463 -274,839 -613,839 -339,0 -614,-376 -614,-839 0,-464 275,-839 614,-839z"/>
  <g style="clip-path:url(#id19)">
   <g id="_2049971150048">
    <ellipse class="fil14" cx="2990" cy="3576" rx="335" ry="839"/>
    <path class="fil15" d="M1788 3189l727 -314c0,0 -422,385 -238,1005 184,621 604,811 604,811l-772 -360 -321 -1142z"/>
   </g>
  </g>
  <path class="fil0" d="M2779 2794c339,0 613,375 613,839 0,463 -274,839 -613,839 -339,0 -614,-376 -614,-839 0,-464 275,-839 614,-839z"/>
  <g id="_2049971151264">
   <path class="fil1" d="M6545 2709c46,0 92,6 136,17 175,46 314,173 407,324 106,173 155,381 155,583 0,202 -49,409 -155,583 -93,151 -232,278 -407,323 -44,12 -90,18 -136,18 -45,0 -91,-6 -135,-18 -176,-45 -315,-172 -407,-323 -106,-174 -156,-381 -156,-583 0,-202 50,-410 156,-583 92,-151 231,-278 407,-324 44,-11 90,-17 135,-17z"/>
  </g>
  <path class="fil13" d="M6545 2794c-339,0 -613,375 -613,839 0,463 274,839 613,839 339,0 614,-376 614,-839 0,-464 -275,-839 -614,-839z"/>
  <g style="clip-path:url(#id20)">
   <g id="_2049971151552">
    <ellipse class="fil14" cx="6334" cy="3576" rx="335" ry="839"/>
    <path class="fil15" d="M7536 3189l-727 -314c0,0 422,385 238,1005 -184,621 -604,811 -604,811l772 -360 321 -1142z"/>
   </g>
  </g>
  <path class="fil0" d="M6545 2794c-339,0 -613,375 -613,839 0,463 274,839 613,839 339,0 614,-376 614,-839 0,-464 -275,-839 -614,-839z"/>
  <g id="_2049971151296">
   <path class="fil1" d="M4704 5824c-27,2 -54,4 -81,5 -146,5 -311,-13 -456,-32 -215,-29 -431,-73 -639,-134 -319,-93 -735,-262 -915,-558 -146,-242 -193,-509 -122,-783 44,-169 123,-310 223,-451 30,-43 56,-104 77,-151 39,-85 76,-170 115,-255 106,-225 228,-441 388,-633 202,-245 475,-417 774,-516 5,-34 25,-68 61,-99 43,-36 100,-59 161,-72 0,-2 0,-3 0,-5 1,-67 56,-101 113,-118 52,-14 110,-15 169,-6 2,-16 8,-32 18,-47 60,-91 182,-42 258,-4 142,71 280,200 388,321 340,91 652,273 878,546 159,192 281,408 387,633 40,85 77,170 115,255 22,47 48,108 78,151 99,141 178,282 222,451 72,274 25,541 -122,783 -180,296 -596,465 -915,558 -208,61 -424,105 -639,134 -144,19 -310,37 -456,32 -26,-1 -53,-3 -80,-5z"/>
  </g>
  <g id="_2049971154912">
   <path class="fil16" d="M6043 2890c337,407 473,887 576,1033 104,147 421,601 97,1134 -323,534 -1591,694 -1928,680 -29,-1 -57,-2 -84,-4 -28,2 -56,3 -85,4 -336,14 -1604,-146 -1928,-680 -323,-533 -6,-987 97,-1134 104,-146 240,-626 576,-1033 214,-259 512,-432 838,-518 -41,-16 -65,-42 -14,-85 114,-95 367,-60 367,-60 0,0 -283,-72 -127,-117 156,-45 384,90 384,90 0,0 3,-3 -74,-55 -77,-53 -148,-207 69,-98 155,77 306,236 379,320 333,85 639,259 857,523z"/>
   <g style="clip-path:url(#id21)">
    <g>
     <path id="1" class="fil17" d="M11244 3974c-1104,70 -1952,485 -1952,986 0,551 1022,997 2283,997 1261,0 2283,-446 2283,-997 0,-501 -847,-916 -1951,-986 42,-116 66,-255 66,-404 0,-404 -178,-732 -398,-732 -219,0 -398,328 -398,732 0,149 25,288 67,404z"/>
     <path class="fil18" d="M7045 4846l-187 -274c0,0 -82,635 -1525,860 -1444,225 -2364,-112 -2733,-779 -370,-668 -748,651 -748,699 0,48 322,780 506,828 185,48 2018,169 2243,169 225,0 965,72 1085,0 121,-73 346,-217 442,-298 97,-80 917,-1205 917,-1205z"/>
     <path class="fil19" style="mask:url(#id22)" d="M5863 2547l181 406c-679,-765 -1979,-667 -2685,-4 0,0 197,-583 225,-607 28,-24 937,-470 993,-458 56,12 579,129 619,157 40,28 313,112 358,152 44,41 309,354 309,354z"/>
    </g>
   </g>
   <path class="fil0" d="M6043 2890c337,407 473,887 576,1033 104,147 421,601 97,1134 -323,534 -1591,694 -1928,680 -29,-1 -57,-2 -84,-4 -28,2 -56,3 -85,4 -336,14 -1604,-146 -1928,-680 -323,-533 -6,-987 97,-1134 104,-146 240,-626 576,-1033 214,-259 512,-432 838,-518 -41,-16 -65,-42 -14,-85 114,-95 367,-60 367,-60 0,0 -283,-72 -127,-117 156,-45 384,90 384,90 0,0 3,-3 -74,-55 -77,-53 -148,-207 69,-98 155,77 306,236 379,320 333,85 639,259 857,523z"/>
   <ellipse class="fil20" cx="5497" cy="3845" rx="269" ry="358"/>
   <ellipse class="fil11" cx="5566" cy="3737" rx="124" ry="165"/>
   <ellipse class="fil11" cx="5409" cy="3947" rx="72" ry="96"/>
   <ellipse class="fil20" cx="3921" cy="3845" rx="269" ry="358"/>
   <ellipse class="fil11" cx="3852" cy="3737" rx="124" ry="165"/>
   <ellipse class="fil11" cx="4009" cy="3947" rx="72" ry="96"/>
   <path class="fil0" d="M5134 4572c0,0 -107,179 -294,175 -187,-4 -171,-213 -171,-213"/>
   <path class="fil0" d="M4195 4572c0,0 106,179 293,175 187,-4 171,-213 171,-213"/>
   <g>
    <ellipse class="fil21" cx="3686" cy="4400" rx="211" ry="127"/>
    <ellipse class="fil21" cx="5721" cy="4400" rx="211" ry="127"/>
   </g>
   <ellipse class="fil22" cx="4704" cy="4988" rx="941" ry="633"/>
   <path class="fil23" d="M4689 4315c-28,6 -80,10 -128,-15 -72,-37 -100,-40 -155,-11 -56,29 -50,109 -40,128 11,20 35,47 57,31 22,-16 32,-28 77,-8 45,20 76,81 127,99 62,21 91,21 153,0 52,-18 83,-79 128,-99 45,-20 54,-8 76,8 23,16 47,-11 57,-31 11,-19 16,-99 -39,-128 -56,-29 -84,-26 -155,11 -49,25 -102,21 -130,15 -8,-1 -19,-1 -28,0z"/>
   <g style="clip-path:url(#id24)">
    <g>
     <path id="1" class="fil24" style="mask:url(#id25)" d="M4317 4388c4,-4 54,-62 54,-62 0,0 -6,90 44,73 50,-16 60,-33 99,-20 39,12 95,112 161,120 66,9 116,-22 142,-55 27,-32 75,-77 117,-80 41,-2 49,15 70,35 21,20 46,-38 35,-69 -12,-31 52,27 52,27l41 119c0,0 -52,63 -123,78 -71,15 -186,32 -208,38 -21,7 -74,64 -167,28 -93,-37 -133,-38 -202,-63 -68,-25 -115,-169 -115,-169z"/>
    </g>
   </g>
   <path class="fil0" d="M4689 4315c-28,6 -80,10 -128,-15 -72,-37 -100,-40 -155,-11 -56,29 -50,109 -40,128 11,20 35,47 57,31 22,-16 32,-28 77,-8 45,20 76,81 127,99 62,21 91,21 153,0 52,-18 83,-79 128,-99 45,-20 54,-8 76,8 23,16 47,-11 57,-31 11,-19 16,-99 -39,-128 -56,-29 -84,-26 -155,11 -49,25 -102,21 -130,15 -8,-1 -19,-1 -28,0z"/>
   <path class="fil25" d="M4690 4730c-24,27 -62,57 -112,56 -91,-2 -137,-43 -137,-43 0,0 -37,179 3,340 64,257 456,257 519,0 40,-161 4,-340 4,-340 0,0 -47,41 -137,43 -51,1 -89,-29 -113,-56l-27 0z"/>
   <g style="clip-path:url(#id27)">
    <g>
     <path id="1" class="fil26" d="M4836 5070c-53,0 -100,25 -129,64 -29,-39 -76,-64 -129,-64 -88,0 -160,72 -160,161 0,89 72,161 160,161 53,0 100,-25 129,-64 29,39 76,64 129,64 88,0 161,-72 161,-161 0,-89 -73,-161 -161,-161z"/>
    </g>
   </g>
   <path class="fil0" d="M4690 4730c-24,27 -62,57 -112,56 -91,-2 -137,-43 -137,-43 0,0 -37,179 3,340 64,257 456,257 519,0 40,-161 4,-340 4,-340 0,0 -47,41 -137,43 -51,1 -89,-29 -113,-56l-27 0z"/>
  </g>
  <g id="_2049971160128">
   <path class="fil17" d="M5158 4513c0,0 515,-132 825,-132 309,0 362,18 362,18 0,0 -402,-18 -1187,114z"/>
   <path class="fil17" d="M5221 4597c0,0 532,-9 833,62 301,71 348,102 348,102 0,0 -387,-111 -1181,-164z"/>
   <path class="fil17" d="M5149 4715c0,0 521,106 800,241 278,135 318,175 318,175 0,0 -354,-192 -1118,-416z"/>
  </g>
  <g id="_2049971161664">
   <path class="fil17" d="M4272 4513c0,0 -515,-132 -825,-132 -309,0 -362,18 -362,18 0,0 402,-18 1187,114z"/>
   <path class="fil17" d="M4209 4597c0,0 -532,-9 -833,62 -301,71 -348,102 -348,102 0,0 387,-111 1181,-164z"/>
   <path class="fil17" d="M4282 4715c0,0 -522,106 -801,241 -278,135 -318,175 -318,175 0,0 355,-192 1119,-416z"/>
  </g>
  <ellipse class="fil16" cx="3917" cy="3813" rx="405" ry="454"/>
  <ellipse class="fil16" cx="5481" cy="3813" rx="405" ry="454"/>
  <path class="fil27" d="M3596 3878c0,0 88,-179 292,-197 205,-18 251,173 251,222 0,49 -61,74 -61,74 0,0 -17,-197 -161,-215 -145,-18 -257,171 -257,171 0,0 -121,41 -64,-55z"/>
  <path class="fil27" d="M5710 3878c0,0 -88,-179 -293,-197 -204,-18 -250,173 -250,222 0,49 61,74 61,74 0,0 16,-197 161,-215 145,-18 257,171 257,171 0,0 121,41 64,-55z"/>
 </g>
</svg>
