<?xml version="1.0" encoding="UTF-8"?>
<!DOCTYPE svg PUBLIC "-//W3C//DTD SVG 1.1//EN" "http://www.w3.org/Graphics/SVG/1.1/DTD/svg11.dtd">
<!-- Creator: CorelDRAW X8 -->
<svg xmlns="http://www.w3.org/2000/svg" xml:space="preserve" width="10in" height="10in" version="1.1" style="shape-rendering:geometricPrecision; text-rendering:geometricPrecision; image-rendering:optimizeQuality; fill-rule:evenodd; clip-rule:evenodd"
viewBox="0 0 10000 10000"
 xmlns:xlink="http://www.w3.org/1999/xlink">
 <defs>
  <style type="text/css">
   <![CDATA[
    .str1 {stroke:#332C2B;stroke-width:7.87401}
    .str0 {stroke:black;stroke-width:7.87401}
    .fil0 {fill:none}
    .fil15 {fill:#FEFEFE}
    .fil11 {fill:#FEFEFE}
    .fil25 {fill:#C9CACA}
    .fil22 {fill:#D59961}
    .fil24 {fill:#E95A6F}
    .fil18 {fill:#E95A6F}
    .fil16 {fill:#E61D4C}
    .fil23 {fill:#CC8946}
    .fil21 {fill:#BD7F43}
    .fil19 {fill:#AF3548}
    .fil26 {fill:#AF3548}
    .fil14 {fill:#1D1819}
    .fil20 {fill:#1D1819}
    .fil6 {fill:#1D1819}
    .fil1 {fill:black}
    .fil5 {fill:#663D00}
    .fil4 {fill:#855000}
    .fil7 {fill:#AD7600}
    .fil12 {fill:#D4991A}
    .fil3 {fill:#D4991A}
    .fil9 {fill:#E8C979}
    .fil10 {fill:#F4B732}
    .fil2 {fill:#F4B732}
    .fil13 {fill:#F7CA68}
    .fil17 {fill:#F8DD96}
    .fil8 {fill:#F8DD96}
   ]]>
  </style>
     <clipPath id="id0">
      <path d="M3821 5744c0,0 -584,300 -998,235 -414,-65 -537,-504 -511,-575 27,-71 -80,-61 -80,-61 0,0 -143,385 308,674 452,289 1130,103 1227,130 97,28 54,-403 54,-403z"/>
     </clipPath>
     <clipPath id="id1">
      <path d="M2338 5425c0,0 -126,14 -220,-91 -95,-106 -103,-210 -164,-265 -61,-55 -85,-63 -85,-63 0,0 63,-11 99,5 35,15 35,15 35,15 0,0 -21,-160 57,-291 78,-131 123,-149 123,-149l-32 89c0,0 187,-219 378,-193 192,27 229,40 229,40 0,0 -236,166 -227,417 9,251 -49,408 -193,486z"/>
     </clipPath>
       <mask id="id2">
  <linearGradient id="id3" gradientUnits="userSpaceOnUse" x1="2005.64" y1="5598.03" x2="2388.04" y2="3904.79">
   <stop offset="0" style="stop-opacity:1; stop-color:white"/>
   <stop offset="1" style="stop-opacity:0; stop-color:white"/>
  </linearGradient>
        <rect style="fill:url(#id3)" x="1376" y="4374" width="1390" height="1300"/>
       </mask>
      <clipPath id="id4">
       <path d="M2981 1770c-84,-11 -213,-5 -213,-5 0,0 -121,135 -130,150 -9,15 -69,167 -69,167 0,0 -173,625 216,1091 390,466 717,343 888,257 171,-87 158,-386 158,-386l27 -448c0,0 -77,-305 -877,-826z"/>
      </clipPath>
        <mask id="id5">
  <linearGradient id="id6" gradientUnits="userSpaceOnUse" x1="3987.4" y1="2654.24" x2="1601.98" y2="2524.03">
   <stop offset="0" style="stop-opacity:1; stop-color:white"/>
   <stop offset="1" style="stop-opacity:0; stop-color:white"/>
  </linearGradient>
         <rect style="fill:url(#id6)" x="2998" y="2004" width="786" height="1270"/>
        </mask>
     <clipPath id="id7">
      <path d="M7220 1770c84,-11 213,-5 213,-5 0,0 121,135 130,150 9,15 69,167 69,167 0,0 173,625 -217,1091 -389,466 -716,343 -887,257 -171,-87 -158,-386 -158,-386l-28 -448c0,0 78,-305 878,-826z"/>
     </clipPath>
       <mask id="id8">
  <linearGradient id="id9" gradientUnits="userSpaceOnUse" x1="6213.42" y1="2654.24" x2="8598.85" y2="2524.03">
   <stop offset="0" style="stop-opacity:1; stop-color:white"/>
   <stop offset="1" style="stop-opacity:0; stop-color:white"/>
  </linearGradient>
        <rect style="fill:url(#id9)" x="6417" y="2004" width="786" height="1270"/>
       </mask>
    <clipPath id="id10">
     <path d="M6139 5004c0,0 49,73 116,205 55,102 111,222 165,362 146,378 195,802 179,1211 -14,334 -79,586 -170,773 -194,398 -544,603 -718,582 -255,-30 -287,-369 -241,-808 44,-419 -621,-419 -577,0 46,439 14,778 -242,808 -173,21 -523,-184 -717,-582 -92,-187 -157,-439 -170,-773 -16,-409 33,-833 178,-1211 55,-140 111,-260 166,-362 66,-132 116,-205 116,-205l9 -1c169,-247 302,-320 302,-320l646 129 646 -129c0,0 134,73 303,320l9 1z"/>
    </clipPath>
     <clipPath id="id11">
      <path d="M5147 4852c-422,0 -764,392 -764,875 0,483 342,874 764,874 421,0 763,-391 763,-874 0,-483 -342,-875 -763,-875z"/>
     </clipPath>
     <clipPath id="id12">
      <path d="M6139 5004c0,0 49,73 116,205 55,102 111,222 165,362 146,378 195,802 179,1211 -14,334 -79,586 -170,773 -194,398 -544,603 -718,582 -255,-30 -287,-369 -241,-808 44,-419 -621,-419 -577,0 46,439 14,778 -242,808 -173,21 -523,-184 -717,-582 -92,-187 -157,-439 -170,-773 -16,-409 33,-833 178,-1211 55,-140 111,-260 166,-362 66,-132 116,-205 116,-205l9 -1c169,-247 302,-320 302,-320l646 129 646 -129c0,0 134,73 303,320l9 1z"/>
     </clipPath>
    <clipPath id="id13">
     <path d="M6466 2302c331,401 465,874 567,1018 102,144 414,591 95,1116 -318,526 -1567,683 -1898,670 -29,-1 -57,-2 -83,-4 -27,2 -55,3 -84,4 -331,13 -1580,-144 -1898,-670 -319,-525 -7,-972 95,-1116 102,-144 236,-617 567,-1018 212,-255 505,-425 826,-510 -41,-15 -64,-41 -14,-83 112,-94 362,-60 362,-60 0,0 -279,-70 -125,-115 153,-44 377,89 377,89 0,0 3,-3 -73,-55 -75,-52 -146,-203 68,-96 153,76 301,233 374,315 328,84 629,255 844,515z"/>
    </clipPath>
      <mask id="id14">
  <linearGradient id="id15" gradientUnits="userSpaceOnUse" x1="5037.68" y1="1315.14" x2="5060.43" y2="1956.31">
   <stop offset="0" style="stop-opacity:1; stop-color:white"/>
   <stop offset="1" style="stop-opacity:0; stop-color:white"/>
  </linearGradient>
       <rect style="fill:url(#id15)" x="3819" y="1307" width="2652" height="1061"/>
      </mask>
    <clipPath id="id16">
     <path d="M5132 3706c-27,5 -78,10 -126,-15 -71,-37 -98,-39 -153,-11 -54,29 -49,107 -39,127 11,19 34,45 56,29 22,-15 31,-27 76,-7 44,19 75,80 125,97 61,21 90,21 151,0 51,-17 81,-78 125,-97 45,-20 54,-8 76,7 22,16 46,-10 56,-29 10,-20 16,-98 -39,-127 -55,-28 -82,-26 -152,11 -49,25 -101,20 -128,15 -9,-2 -19,-2 -28,0z"/>
    </clipPath>
      <mask id="id17">
  <linearGradient id="id18" gradientUnits="userSpaceOnUse" x1="5186.75" y1="4115.41" x2="5161.36" y2="3608.94">
   <stop offset="0" style="stop-opacity:1; stop-color:white"/>
   <stop offset="1" style="stop-opacity:0; stop-color:white"/>
  </linearGradient>
       <rect style="fill:url(#id18)" x="4762" y="3708" width="811" height="314"/>
      </mask>
    <clipPath id="id19">
     <path d="M4385 5405l698 933 157 74 -18 -172 -694 -935c0,0 -170,-78 -143,100z"/>
    </clipPath>
      <mask id="id20">
  <linearGradient id="id21" gradientUnits="userSpaceOnUse" x1="5124.43" y1="6270.08" x2="5258.12" y2="6475.81">
   <stop offset="0" style="stop-opacity:1; stop-color:white"/>
   <stop offset="1" style="stop-opacity:0; stop-color:white"/>
  </linearGradient>
       <rect style="fill:url(#id21)" x="5061" y="6235" width="254" height="243"/>
      </mask>
    <clipPath id="id22">
     <path d="M4109 5611c0,0 389,76 660,264 271,187 286,615 -540,483 -826,-132 -993,-243 -979,-541 14,-299 278,-901 552,-940 274,-40 474,-48 307,734z"/>
    </clipPath>
      <mask id="id23">
  <linearGradient id="id24" gradientUnits="userSpaceOnUse" x1="3671.28" y1="6688.05" x2="3770.74" y2="4726.25">
   <stop offset="0" style="stop-opacity:1; stop-color:white"/>
   <stop offset="1" style="stop-opacity:0; stop-color:white"/>
  </linearGradient>
       <rect style="fill:url(#id24)" x="2933" y="5385" width="2520" height="1387"/>
      </mask>
    <clipPath id="id25">
     <path d="M6409 5581c0,0 -389,77 -660,265 -271,187 -286,615 540,483 826,-132 993,-243 979,-542 -14,-298 -278,-900 -552,-940 -274,-39 -474,-47 -307,734z"/>
    </clipPath>
      <mask id="id26">
  <linearGradient id="id27" gradientUnits="userSpaceOnUse" x1="6846.76" y1="6658.84" x2="6747.3" y2="4697.04">
   <stop offset="0" style="stop-opacity:1; stop-color:white"/>
   <stop offset="1" style="stop-opacity:0; stop-color:white"/>
  </linearGradient>
       <rect style="fill:url(#id27)" x="5065" y="5356" width="2520" height="1387"/>
      </mask>
 </defs>
 <g id="Layer_x0020_1">
  <metadata id="CorelCorpID_0Corel-Layer"/>
  <rect class="fil0" width="10000" height="10000"/>
  <g id="_2049891169216">
   <g>
    <path class="fil1" d="M2121 5454c-26,-18 -50,-38 -70,-60 -48,-54 -79,-109 -109,-173 -11,-23 -29,-68 -48,-85 -15,-13 -41,-37 -59,-47 -37,-15 -59,-50 -56,-89 3,-42 33,-75 74,-83 18,-3 39,-5 60,-5 8,-80 32,-160 69,-223 34,-57 102,-161 168,-187 20,-8 41,-8 60,-2 51,-37 106,-68 158,-87 56,-19 115,-28 174,-20 63,9 128,18 191,31 17,3 38,7 55,13 33,12 54,39 59,73 4,34 -9,66 -37,85 -36,26 -75,66 -101,101 -54,68 -91,151 -88,240 7,208 -26,433 -212,552 2,9 5,17 7,23 17,53 42,105 73,152 83,123 200,204 348,227 106,17 221,6 326,-13 145,-27 289,-73 426,-128 64,-25 130,-53 191,-85 27,-14 57,-13 84,1 27,15 44,40 47,70 7,70 10,142 10,212 -1,91 -4,252 -110,286 -21,7 -44,7 -65,2 -14,-2 -36,0 -49,2 -37,3 -73,7 -109,11 -106,11 -211,20 -317,23 -268,6 -550,-31 -779,-178 -184,-118 -330,-285 -365,-507 -6,-40 -8,-86 -6,-132z"/>
   </g>
   <g>
    <path class="fil2" d="M3821 5744c0,0 -584,300 -998,235 -414,-65 -537,-504 -511,-575 27,-71 -80,-61 -80,-61 0,0 -143,385 308,674 452,289 1130,103 1227,130 97,28 54,-403 54,-403z"/>
    <g style="clip-path:url(#id0)">
     <g>
      <path id="1" class="fil3" d="M3788 6004c0,0 -543,213 -1069,29 -525,-183 -443,-678 -487,-690 -44,-12 -168,-28 -168,27 -1,55 27,490 35,506 9,17 809,455 899,472 90,17 289,132 535,27 245,-105 255,-371 255,-371z"/>
     </g>
    </g>
    <path class="fil0" d="M3821 5744c0,0 -584,300 -998,235 -414,-65 -537,-504 -511,-575 27,-71 -80,-61 -80,-61 0,0 -143,385 308,674 452,289 1130,103 1227,130 97,28 54,-403 54,-403z"/>
    <path class="fil4" d="M2338 5425c0,0 -126,14 -220,-91 -95,-106 -103,-210 -164,-265 -61,-55 -85,-63 -85,-63 0,0 63,-11 99,5 35,15 35,15 35,15 0,0 -21,-160 57,-291 78,-131 123,-149 123,-149l-32 89c0,0 187,-219 378,-193 192,27 229,40 229,40 0,0 -236,166 -227,417 9,251 -49,408 -193,486z"/>
    <g style="clip-path:url(#id1)">
     <g>
      <path id="1" class="fil5" style="mask:url(#id2)" d="M2618 5130c-1,-12 -81,-271 -81,-271 0,0 -47,14 -67,210 -21,197 -113,311 -238,274 -125,-38 -148,-103 -153,-190 -6,-87 -210,-147 -210,-147l45 -55 88 64 41 33c0,0 21,-216 55,-266 34,-50 34,-50 34,-50l-10 43c0,0 185,-203 377,-235 193,-33 259,-18 259,-18 0,0 38,-64 -97,-104 -134,-40 -345,-52 -437,-28 -91,25 -315,190 -374,228 -60,38 -307,151 -354,251 -47,100 -251,345 30,506 282,160 130,372 543,266 413,-105 659,-140 549,-511z"/>
     </g>
    </g>
    <path class="fil0" d="M2338 5425c0,0 -126,14 -220,-91 -95,-106 -103,-210 -164,-265 -61,-55 -85,-63 -85,-63 0,0 63,-11 99,5 35,15 35,15 35,15 0,0 -21,-160 57,-291 78,-131 123,-149 123,-149l-32 89c0,0 187,-219 378,-193 192,27 229,40 229,40 0,0 -236,166 -227,417 9,251 -49,408 -193,486z"/>
   </g>
   <g>
    <g>
     <path class="fil1 str0" d="M3938 2775c24,-7 48,-15 71,-23 112,-43 216,-115 284,-215 139,-207 71,-444 -60,-635l-28 -41 -49 2c-67,2 -154,-11 -219,-24 -194,-39 -385,-114 -558,-210 -195,-108 -420,-152 -623,-38 -113,63 -227,189 -255,318 -9,38 -24,106 -23,162 -30,119 -41,267 -38,386 8,283 93,554 276,774 150,179 346,341 585,367 149,17 282,-22 413,-88 34,-17 64,-41 90,-70 87,-99 122,-266 117,-395l17 -270z"/>
    </g>
    <g>
     <path class="fil3" d="M2981 1770c-84,-11 -213,-5 -213,-5 0,0 -121,135 -130,150 -9,15 -69,167 -69,167 0,0 -173,625 216,1091 390,466 717,343 888,257 171,-87 158,-386 158,-386l27 -448c0,0 -77,-305 -877,-826z"/>
     <g style="clip-path:url(#id4)">
      <g>
       <path id="1" class="fil6" d="M3105 1948c-27,30 -337,149 -334,560 3,411 227,670 403,726 175,55 442,-98 442,-98 0,0 -29,224 -524,302 -494,78 -1169,-808 -1087,-928 82,-119 516,-666 516,-666l249 -11c0,0 292,-9 335,115z"/>
       <path class="fil7" style="mask:url(#id5)" d="M3443 2227c-112,-62 -441,-219 -441,-219 0,0 202,318 233,623 31,304 -37,639 -37,639 0,0 1126,-164 245,-1043z"/>
      </g>
     </g>
     <path class="fil0 str1" d="M2981 1770c-84,-11 -213,-5 -213,-5 0,0 -121,135 -130,150 -9,15 -69,167 -69,167 0,0 -173,625 216,1091 390,466 717,343 888,257 171,-87 158,-386 158,-386l27 -448c0,0 -77,-305 -877,-826z"/>
     <path class="fil2" d="M4159 1953c0,0 -359,12 -824,-245 -464,-257 -716,80 -746,220 -31,140 -18,165 -18,165 0,0 105,-308 399,-108 295,200 313,584 625,700 312,115 951,-168 564,-732z"/>
    </g>
   </g>
   <g>
    <path class="fil1 str0" d="M6263 2775c-24,-7 -48,-15 -71,-23 -112,-43 -216,-115 -284,-215 -139,-207 -71,-444 60,-635l28 -41 49 2c67,2 154,-11 218,-24 195,-39 385,-114 559,-210 195,-108 420,-152 623,-38 113,63 227,189 255,318 8,38 24,106 23,162 30,119 41,267 37,386 -7,283 -92,554 -276,774 -149,179 -345,341 -585,367 -148,17 -281,-22 -412,-88 -34,-17 -64,-41 -90,-70 -88,-99 -122,-266 -118,-395l-16 -270z"/>
   </g>
   <g>
    <path class="fil3" d="M7220 1770c84,-11 213,-5 213,-5 0,0 121,135 130,150 9,15 69,167 69,167 0,0 173,625 -217,1091 -389,466 -716,343 -887,257 -171,-87 -158,-386 -158,-386l-28 -448c0,0 78,-305 878,-826z"/>
    <g style="clip-path:url(#id7)">
     <g>
      <path id="1" class="fil6" d="M7096 1948c26,30 337,149 334,560 -3,411 -228,670 -403,726 -175,55 -442,-98 -442,-98 0,0 29,224 523,302 495,78 1170,-808 1088,-928 -82,-119 -517,-666 -517,-666l-248 -11c0,0 -292,-9 -335,115z"/>
      <path class="fil7" style="mask:url(#id8)" d="M6758 2227c112,-62 440,-219 440,-219 0,0 -201,318 -232,623 -31,304 37,639 37,639 0,0 -1127,-164 -245,-1043z"/>
     </g>
    </g>
    <path class="fil0 str1" d="M7220 1770c84,-11 213,-5 213,-5 0,0 121,135 130,150 9,15 69,167 69,167 0,0 173,625 -217,1091 -389,466 -716,343 -887,257 -171,-87 -158,-386 -158,-386l-28 -448c0,0 78,-305 878,-826z"/>
    <path class="fil2" d="M6042 1953c0,0 359,12 823,-245 465,-257 716,80 747,220 31,140 18,165 18,165 0,0 -105,-308 -399,-108 -295,200 -314,584 -625,700 -312,115 -952,-168 -564,-732z"/>
   </g>
   <g>
    <path class="fil1" d="M6335 5167c64,120 120,245 169,372 151,392 201,828 184,1246 -10,274 -58,562 -179,810 -90,186 -226,357 -393,481 -110,81 -274,168 -416,151 -57,-7 -110,-26 -156,-60 -225,-164 -189,-606 -164,-848 7,-69 -9,-134 -68,-176 -38,-26 -85,-39 -131,-39 -128,0 -213,83 -199,215 25,242 62,684 -163,848 -47,34 -100,53 -157,60 -141,17 -306,-70 -415,-151 -168,-124 -303,-295 -394,-481 -121,-248 -168,-536 -179,-810 -17,-418 33,-854 185,-1246 48,-127 104,-252 169,-372 35,-70 77,-148 121,-213l21 -31 9 -2c61,-85 130,-168 207,-237 30,-28 70,-60 106,-80l28 -16 661 133 661 -133 29 16c36,19 75,52 105,80 77,69 146,152 207,237l10 2 20 31c45,65 86,143 122,213z"/>
   </g>
   <path class="fil2" d="M6139 5004c0,0 49,73 116,205 55,102 111,222 165,362 146,378 195,802 179,1211 -14,334 -79,586 -170,773 -194,398 -544,603 -718,582 -255,-30 -287,-369 -241,-808 44,-419 -621,-419 -577,0 46,439 14,778 -242,808 -173,21 -523,-184 -717,-582 -92,-187 -157,-439 -170,-773 -16,-409 33,-833 178,-1211 55,-140 111,-260 166,-362 66,-132 116,-205 116,-205l9 -1c169,-247 302,-320 302,-320l646 129 646 -129c0,0 134,73 303,320l9 1z"/>
   <g style="clip-path:url(#id10)">
    <g>
     <path id="1" class="fil3" d="M6377 5093c-51,16 -443,250 -1298,175 -855,-76 -1144,-222 -1144,-222 0,0 230,-293 269,-301 40,-8 1160,-43 1207,-16 48,28 586,190 634,218 47,28 332,146 332,146z"/>
     <path class="fil3" d="M5147 4852c-422,0 -764,392 -764,875 0,483 342,874 764,874 421,0 763,-391 763,-874 0,-483 -342,-875 -763,-875z"/>
    </g>
    <g style="clip-path:url(#id11)">
     <g>
      <ellipse class="fil8" cx="5154" cy="5647" rx="764" ry="875"/>
      <path class="fil9" d="M6377 5093c-51,16 -443,250 -1298,175 -855,-76 -1144,-222 -1144,-222 0,0 230,-293 269,-301 40,-8 1160,-43 1207,-16 48,28 586,190 634,218 47,28 332,146 332,146z"/>
     </g>
    </g>
    <g style="clip-path:url(#id12)">
     <path class="fil0" d="M5147 4852c-422,0 -764,392 -764,875 0,483 342,874 764,874 421,0 763,-391 763,-874 0,-483 -342,-875 -763,-875z"/>
     <path class="fil8" d="M6488 7848c0,0 -71,-237 -360,-352 -289,-115 -669,-34 -669,-34l-83 469 210 162c0,0 122,76 162,76 40,0 427,-44 467,-56 40,-12 273,-265 273,-265z"/>
     <path class="fil8" d="M4896 7465l-253 55c0,0 -297,84 -435,392 -139,309 483,499 483,499l225 -344 103 -372 -123 -230z"/>
    </g>
   </g>
   <path class="fil0" d="M6139 5004c0,0 49,73 116,205 55,102 111,222 165,362 146,378 195,802 179,1211 -14,334 -79,586 -170,773 -194,398 -544,603 -718,582 -255,-30 -287,-369 -241,-808 44,-419 -621,-419 -577,0 46,439 14,778 -242,808 -173,21 -523,-184 -717,-582 -92,-187 -157,-439 -170,-773 -16,-409 33,-833 178,-1211 55,-140 111,-260 166,-362 66,-132 116,-205 116,-205l9 -1c169,-247 302,-320 302,-320l646 129 646 -129c0,0 134,73 303,320l9 1z"/>
   <g>
    <path class="fil1" d="M5147 5192c-27,2 -53,3 -80,4 -143,6 -307,-12 -449,-31 -211,-28 -424,-72 -629,-131 -314,-92 -724,-258 -901,-551 -145,-237 -191,-501 -121,-770 44,-167 121,-306 220,-445 29,-42 55,-102 76,-149 38,-83 74,-167 113,-250 105,-222 225,-435 382,-624 199,-242 468,-411 763,-508 4,-33 24,-67 60,-97 42,-36 98,-58 158,-72 0,-1 0,-3 0,-4 1,-66 55,-100 112,-116 50,-15 107,-15 166,-7 2,-15 7,-31 17,-45 60,-90 180,-42 254,-5 140,70 277,197 383,316 335,90 642,269 864,538 157,189 278,402 382,624 39,83 75,167 113,250 21,47 47,107 77,149 98,139 175,278 219,445 70,269 24,533 -120,770 -178,293 -588,459 -902,551 -205,59 -418,103 -629,131 -142,19 -305,37 -449,31 -26,-1 -53,-2 -79,-4z"/>
   </g>
   <path class="fil10" d="M6466 2302c331,401 465,874 567,1018 102,144 414,591 95,1116 -318,526 -1567,683 -1898,670 -29,-1 -57,-2 -83,-4 -27,2 -55,3 -84,4 -331,13 -1580,-144 -1898,-670 -319,-525 -7,-972 95,-1116 102,-144 236,-617 567,-1018 212,-255 505,-425 826,-510 -41,-15 -64,-41 -14,-83 112,-94 362,-60 362,-60 0,0 -279,-70 -125,-115 153,-44 377,89 377,89 0,0 3,-3 -73,-55 -75,-52 -146,-203 68,-96 153,76 301,233 374,315 328,84 629,255 844,515z"/>
   <g style="clip-path:url(#id13)">
    <g>
     <path id="1" class="fil11" d="M11587 3370c-1087,69 -1922,477 -1922,971 0,542 1007,982 2248,982 1242,0 2248,-440 2248,-982 0,-494 -835,-902 -1921,-971 41,-114 65,-251 65,-398 0,-398 -175,-721 -392,-721 -216,0 -392,323 -392,721 0,147 24,284 66,398z"/>
     <path class="fil12" d="M7452 4228l-184 -269c0,0 -80,625 -1502,847 -1422,221 -2327,-111 -2691,-768 -365,-657 -737,641 -737,689 0,47 317,768 499,815 182,48 1987,166 2209,166 221,0 949,72 1068,0 119,-71 341,-213 436,-293 95,-79 902,-1187 902,-1187z"/>
     <path class="fil13" style="mask:url(#id14)" d="M6288 1965l178 399c-668,-753 -1949,-656 -2644,-4 0,0 194,-573 222,-597 28,-24 922,-463 978,-451 55,12 570,126 609,154 40,28 309,111 352,150 44,40 305,349 305,349z"/>
    </g>
   </g>
   <path class="fil0" d="M6466 2302c331,401 465,874 567,1018 102,144 414,591 95,1116 -318,526 -1567,683 -1898,670 -29,-1 -57,-2 -83,-4 -27,2 -55,3 -84,4 -331,13 -1580,-144 -1898,-670 -319,-525 -7,-972 95,-1116 102,-144 236,-617 567,-1018 212,-255 505,-425 826,-510 -41,-15 -64,-41 -14,-83 112,-94 362,-60 362,-60 0,0 -279,-70 -125,-115 153,-44 377,89 377,89 0,0 3,-3 -73,-55 -75,-52 -146,-203 68,-96 153,76 301,233 374,315 328,84 629,255 844,515z"/>
   <ellipse class="fil14" cx="5928" cy="3243" rx="265" ry="352"/>
   <ellipse class="fil15" cx="5816" cy="3348" rx="78" ry="104"/>
   <ellipse class="fil14" cx="4376" cy="3243" rx="265" ry="352"/>
   <path class="fil0" d="M5570 3959c0,0 -105,176 -289,172 -184,-4 -168,-209 -168,-209"/>
   <path class="fil0" d="M4645 3959c0,0 105,176 289,172 184,-4 168,-209 168,-209"/>
   <g>
    <ellipse class="fil16" cx="4145" cy="3790" rx="208" ry="125"/>
    <ellipse class="fil16" cx="6149" cy="3790" rx="208" ry="125"/>
   </g>
   <ellipse class="fil17" cx="5147" cy="4369" rx="926" ry="623"/>
   <path class="fil18" d="M5132 3706c-27,5 -78,10 -126,-15 -71,-37 -98,-39 -153,-11 -54,29 -49,107 -39,127 11,19 34,45 56,29 22,-15 31,-27 76,-7 44,19 75,80 125,97 61,21 90,21 151,0 51,-17 81,-78 125,-97 45,-20 54,-8 76,7 22,16 46,-10 56,-29 10,-20 16,-98 -39,-127 -55,-28 -82,-26 -152,11 -49,25 -101,20 -128,15 -9,-2 -19,-2 -28,0z"/>
   <g style="clip-path:url(#id16)">
    <g>
     <path id="1" class="fil19" style="mask:url(#id17)" d="M4766 3778c3,-4 53,-61 53,-61 0,0 -6,88 44,72 49,-17 59,-33 97,-21 39,13 93,110 158,119 65,8 114,-22 140,-54 26,-32 74,-76 115,-79 41,-2 48,15 69,35 21,19 46,-38 34,-68 -11,-31 52,26 52,26l40 117c0,0 -51,63 -121,77 -70,14 -183,31 -204,38 -21,6 -73,63 -165,27 -92,-36 -131,-38 -199,-62 -67,-25 -113,-166 -113,-166z"/>
    </g>
   </g>
   <path class="fil0" d="M5132 3706c-27,5 -78,10 -126,-15 -71,-37 -98,-39 -153,-11 -54,29 -49,107 -39,127 11,19 34,45 56,29 22,-15 31,-27 76,-7 44,19 75,80 125,97 61,21 90,21 151,0 51,-17 81,-78 125,-97 45,-20 54,-8 76,7 22,16 46,-10 56,-29 10,-20 16,-98 -39,-127 -55,-28 -82,-26 -152,11 -49,25 -101,20 -128,15 -9,-2 -19,-2 -28,0z"/>
   <g>
    <path class="fil11" d="M5594 3900c0,0 507,-130 812,-130 305,0 357,18 357,18 0,0 -396,-17 -1169,112z"/>
    <path class="fil11" d="M5656 3984c0,0 524,-10 820,60 297,71 343,100 343,100 0,0 -381,-108 -1163,-160z"/>
    <path class="fil11" d="M5585 4100c0,0 513,104 788,237 274,133 313,172 313,172 0,0 -349,-188 -1101,-409z"/>
   </g>
   <g>
    <path class="fil11" d="M4722 3900c0,0 -508,-130 -813,-130 -304,0 -356,18 -356,18 0,0 396,-17 1169,112z"/>
    <path class="fil11" d="M4660 3984c0,0 -524,-10 -821,60 -296,71 -343,100 -343,100 0,0 382,-108 1164,-160z"/>
    <path class="fil11" d="M4731 4100c0,0 -514,104 -788,237 -274,133 -313,172 -313,172 0,0 349,-188 1101,-409z"/>
   </g>
   <ellipse class="fil15" cx="4295" cy="3358" rx="78" ry="104"/>
   <path class="fil20" d="M4786 4264c3,18 128,135 313,130 185,-5 258,-143 258,-143 0,0 20,-29 -28,-35 -83,-11 -101,122 -235,123 -57,0 -119,-16 -239,-88 -32,-20 -75,-18 -69,13z"/>
   <g>
    <path class="fil1" d="M1827 6675c-1,-19 4,-38 17,-54l465 -603c16,-19 37,-30 62,-30l5344 0c26,0 49,12 64,33l427 603c12,16 16,34 15,52l0 271c0,43 -35,79 -79,79l-140 0 0 1551c0,43 -35,79 -78,79l-5799 0c-43,0 -79,-36 -79,-79l0 -1551 -140 0c-43,0 -79,-36 -79,-79l0 -272z"/>
   </g>
   <g>
    <rect class="fil21" x="2125" y="6639" width="5799" height="1938"/>
    <rect class="fil22" x="1906" y="6669" width="6236" height="278"/>
    <polygon class="fil23" points="1906,6669 8142,6669 7715,6067 2371,6067 "/>
   </g>
   <g>
    <path class="fil1" d="M4249 6045l2054 0c32,0 58,26 58,58l0 368c0,32 -26,59 -58,59l-2054 0c-32,0 -58,-27 -58,-59l0 -368c0,-32 26,-58 58,-58z"/>
   </g>
   <rect class="fil11" x="4249" y="6103" width="2053" height="368"/>
   <g>
    <path class="fil1" d="M4336 5413c-9,-64 -1,-136 65,-165 45,-19 105,-8 148,11 7,4 14,9 19,16l694 936c6,7 9,15 10,24l18 172c1,18 -6,35 -21,46 -15,10 -33,12 -50,4l-157 -74c-8,-3 -14,-8 -19,-15l-697 -933c-6,-7 -8,-14 -10,-22z"/>
   </g>
   <path class="fil24" d="M4385 5405l698 933 157 74 -18 -172 -694 -935c0,0 -170,-78 -143,100z"/>
   <g style="clip-path:url(#id19)">
    <g>
     <rect class="fil25" transform="matrix(0.855896 -0.517148 0.517148 0.855896 4361.43 5413.69)" width="234.374" height="53.8189"/>
     <path class="fil26" style="mask:url(#id20)" d="M5065 6357l18 -19 139 -98c0,0 73,-4 75,3 3,7 15,176 15,176 0,0 -181,65 -185,54 -4,-11 -62,-116 -62,-116z"/>
    </g>
   </g>
   <path class="fil0" d="M4385 5405l698 933 157 74 -18 -172 -694 -935c0,0 -170,-78 -143,100z"/>
   <g>
    <path class="fil1" d="M4213 5544c37,10 74,20 110,31 136,42 272,96 396,165 35,20 68,40 100,63 124,85 229,236 199,393 -24,125 -125,202 -241,239 -170,55 -388,38 -562,10 -136,-22 -272,-45 -407,-75 -98,-22 -197,-47 -291,-82 -129,-47 -258,-117 -318,-248 -34,-71 -41,-150 -37,-228 14,-306 283,-973 628,-1022 105,-15 228,-32 325,23 99,57 132,166 141,274 11,141 -14,309 -43,457z"/>
   </g>
   <path class="fil10" d="M4109 5611c0,0 389,76 660,264 271,187 286,615 -540,483 -826,-132 -993,-243 -979,-541 14,-299 278,-901 552,-940 274,-40 474,-48 307,734z"/>
   <g style="clip-path:url(#id22)">
    <g>
     <ellipse class="fil8" cx="4781" cy="6202" rx="559" ry="486"/>
     <path class="fil3" style="mask:url(#id23)" d="M2986 5740l376 -351c0,0 -240,489 341,764 582,275 1320,181 1187,-154 -133,-335 388,-99 409,-51 20,49 208,532 131,612 -76,79 -187,281 -638,180 -452,-101 277,129 -598,-101 -875,-229 -1430,-229 -1208,-899z"/>
    </g>
   </g>
   <path class="fil0" d="M4109 5611c0,0 389,76 660,264 271,187 286,615 -540,483 -826,-132 -993,-243 -979,-541 14,-299 278,-901 552,-940 274,-40 474,-48 307,734z"/>
   <g>
    <path class="fil1" d="M6305 5515c-29,-148 -54,-316 -42,-458 8,-107 41,-216 140,-273 97,-56 220,-39 326,-24 344,50 613,717 627,1023 4,78 -3,157 -36,228 -61,131 -190,200 -319,248 -94,35 -193,60 -291,82 -135,30 -271,53 -407,75 -174,28 -391,45 -562,-10 -116,-38 -217,-114 -241,-239 -30,-157 76,-308 199,-394 32,-22 66,-43 100,-62 124,-70 260,-123 396,-165 36,-11 73,-22 110,-31z"/>
   </g>
   <path class="fil10" d="M6409 5581c0,0 -389,77 -660,265 -271,187 -286,615 540,483 826,-132 993,-243 979,-542 -14,-298 -278,-900 -552,-940 -274,-39 -474,-47 -307,734z"/>
   <g style="clip-path:url(#id25)">
    <g>
     <ellipse class="fil8" cx="5737" cy="6173" rx="559" ry="486"/>
     <path class="fil3" style="mask:url(#id26)" d="M7532 5711l-376 -351c0,0 240,488 -341,763 -582,275 -1320,182 -1187,-153 133,-335 -388,-99 -408,-51 -21,49 -209,532 -132,611 76,80 187,282 638,181 452,-101 -277,128 598,-101 875,-229 1430,-229 1208,-899z"/>
    </g>
   </g>
   <path class="fil0" d="M6409 5581c0,0 -389,77 -660,265 -271,187 -286,615 540,483 826,-132 993,-243 979,-542 -14,-298 -278,-900 -552,-940 -274,-39 -474,-47 -307,734z"/>
  </g>
 </g>
</svg>
