<?xml version="1.0" encoding="UTF-8"?>
<!DOCTYPE svg PUBLIC "-//W3C//DTD SVG 1.1//EN" "http://www.w3.org/Graphics/SVG/1.1/DTD/svg11.dtd">
<!-- Creator: CorelDRAW X8 -->
<svg xmlns="http://www.w3.org/2000/svg" xml:space="preserve" width="6.23816in" height="7.48928in" version="1.1" style="shape-rendering:geometricPrecision; text-rendering:geometricPrecision; image-rendering:optimizeQuality; fill-rule:evenodd; clip-rule:evenodd"
viewBox="0 0 6238 7489"
 xmlns:xlink="http://www.w3.org/1999/xlink">
 <defs>
  <style type="text/css">
   <![CDATA[
    .str1 {stroke:#332C2B;stroke-width:7.87402}
    .str0 {stroke:black;stroke-width:7.87402}
    .fil3 {fill:none}
    .fil11 {fill:#FEFEFE}
    .fil17 {fill:#FEFEFE}
    .fil12 {fill:#B6B6B7}
    .fil15 {fill:#EB6A7F}
    .fil10 {fill:#EB6A7F}
    .fil26 {fill:#E95A6F}
    .fil13 {fill:#E95A6F}
    .fil23 {fill:#E95A6F}
    .fil21 {fill:#E61D4C}
    .fil24 {fill:#AF3548}
    .fil14 {fill:#AF3548}
    .fil20 {fill:#1D1819}
    .fil27 {fill:#1D1819}
    .fil8 {fill:#1D1819}
    .fil0 {fill:black}
    .fil5 {fill:#663D00}
    .fil4 {fill:#855000}
    .fil9 {fill:#AD7600}
    .fil18 {fill:#D4991A}
    .fil2 {fill:#D4991A}
    .fil7 {fill:#E8C979}
    .fil16 {fill:#F4B732}
    .fil1 {fill:#F4B732}
    .fil19 {fill:#F7CA68}
    .fil22 {fill:#F8DD96}
    .fil6 {fill:#F8DD96}
    .fil25 {fill:url(#id28)}
   ]]>
  </style>
    <clipPath id="id0">
     <path d="M4129 5625c0,0 550,359 968,338 419,-21 587,-445 569,-518 -19,-74 86,-53 86,-53 0,0 102,398 -377,638 -480,241 -1135,-15 -1234,2 -100,17 -12,-407 -12,-407z"/>
    </clipPath>
    <clipPath id="id1">
     <path d="M5637 5462c0,0 124,28 229,-67 105,-95 124,-197 191,-246 66,-48 91,-54 91,-54 0,0 -62,-17 -98,-5 -37,12 -37,12 -37,12 0,0 38,-157 -26,-296 -64,-139 -107,-161 -107,-161l22 92c0,0 -163,-238 -356,-232 -193,6 -231,16 -231,16 0,0 216,189 181,438 -35,249 7,411 141,503z"/>
    </clipPath>
      <mask id="id2">
  <linearGradient id="id3" gradientUnits="userSpaceOnUse" x1="5950.16" y1="5669.74" x2="5747.04" y2="3945.77">
   <stop offset="0" style="stop-opacity:1; stop-color:white"/>
   <stop offset="1" style="stop-opacity:0; stop-color:white"/>
  </linearGradient>
       <rect style="fill:url(#id3)" x="5308" y="4409" width="1315" height="1350"/>
      </mask>
   <clipPath id="id4">
    <path d="M1648 4944c26,-79 329,-189 329,-189l-36 -430c0,0 -676,-268 -1069,-530 -393,-262 -618,-310 -741,-103 -124,207 44,580 358,790 315,209 988,553 988,553l171 -91z"/>
   </clipPath>
    <clipPath id="id5">
     <path d="M809 3753c-43,125 -129,320 -278,450 -71,62 -140,110 -201,147 -207,-211 -300,-489 -199,-658 116,-195 324,-164 678,61z"/>
    </clipPath>
    <clipPath id="id6">
     <path d="M1648 4944c26,-79 329,-189 329,-189l-36 -430c0,0 -676,-268 -1069,-530 -393,-262 -618,-310 -741,-103 -124,207 44,580 358,790 315,209 988,553 988,553l171 -91z"/>
    </clipPath>
     <clipPath id="id7">
      <path d="M661 1031c-83,-12 -213,-5 -213,-5 0,0 -121,134 -129,149 -9,15 -70,167 -70,167 0,0 -173,626 217,1092 390,466 717,343 888,256 171,-86 158,-386 158,-386l27 -448c0,0 -77,-305 -878,-825z"/>
     </clipPath>
       <mask id="id8">
  <linearGradient id="id9" gradientUnits="userSpaceOnUse" x1="1668.14" y1="1914.59" x2="-717.283" y2="1784.38">
   <stop offset="0" style="stop-opacity:1; stop-color:white"/>
   <stop offset="1" style="stop-opacity:0; stop-color:white"/>
  </linearGradient>
        <rect style="fill:url(#id9)" x="679" y="1265" width="786" height="1270"/>
       </mask>
    <clipPath id="id10">
     <path d="M4901 1031c83,-12 213,-5 213,-5 0,0 121,134 130,149 8,15 69,167 69,167 0,0 173,626 -217,1092 -390,466 -717,343 -888,256 -170,-86 -158,-386 -158,-386l-27 -448c0,0 77,-305 878,-825z"/>
    </clipPath>
      <mask id="id11">
  <linearGradient id="id12" gradientUnits="userSpaceOnUse" x1="3894.16" y1="1914.59" x2="6279.59" y2="1784.38">
   <stop offset="0" style="stop-opacity:1; stop-color:white"/>
   <stop offset="1" style="stop-opacity:0; stop-color:white"/>
  </linearGradient>
       <rect style="fill:url(#id12)" x="4098" y="1265" width="786" height="1270"/>
      </mask>
   <clipPath id="id13">
    <path d="M3664 4624c66,-49 74,-372 74,-372l420 -101c0,0 467,556 840,846 373,290 489,489 332,672 -158,182 -564,141 -862,-91 -299,-233 -837,-763 -837,-763l33 -191z"/>
   </clipPath>
    <clipPath id="id14">
     <path d="M5058 5045c-105,79 -263,223 -339,405 -36,87 -60,167 -76,237 265,130 558,130 687,-18 148,-173 53,-360 -272,-624z"/>
    </clipPath>
    <clipPath id="id15">
     <path d="M3664 4624c66,-49 74,-372 74,-372l420 -101c0,0 467,556 840,846 373,290 489,489 332,672 -158,182 -564,141 -862,-91 -299,-233 -837,-763 -837,-763l33 -191z"/>
    </clipPath>
   <clipPath id="id16">
    <path d="M3820 4265c0,0 49,72 116,204 54,102 110,222 165,363 145,378 194,801 178,1210 -13,334 -78,586 -170,773 -194,398 -544,604 -717,583 -256,-31 -287,-370 -242,-809 44,-419 -620,-419 -577,0 46,439 14,778 -241,809 -174,21 -524,-185 -717,-583 -92,-187 -157,-439 -170,-773 -16,-409 33,-832 178,-1210 55,-141 110,-261 165,-363 67,-132 116,-204 116,-204l9 -2c169,-247 303,-320 303,-320l646 130 646 -130c0,0 133,73 302,320l10 2z"/>
   </clipPath>
    <clipPath id="id17">
     <path d="M2827 4112c-422,0 -764,392 -764,875 0,483 342,875 764,875 422,0 764,-392 764,-875 0,-483 -342,-875 -764,-875z"/>
    </clipPath>
    <clipPath id="id18">
     <path d="M3820 4265c0,0 49,72 116,204 54,102 110,222 165,363 145,378 194,801 178,1210 -13,334 -78,586 -170,773 -194,398 -544,604 -717,583 -256,-31 -287,-370 -242,-809 44,-419 -620,-419 -577,0 46,439 14,778 -241,809 -174,21 -524,-185 -717,-583 -92,-187 -157,-439 -170,-773 -16,-409 33,-832 178,-1210 55,-141 110,-261 165,-363 67,-132 116,-204 116,-204l9 -2c169,-247 303,-320 303,-320l646 130 646 -130c0,0 133,73 302,320l10 2z"/>
    </clipPath>
   <clipPath id="id19">
    <path d="M932 1468c334,0 604,370 604,826 0,457 -270,827 -604,827 -334,0 -604,-370 -604,-827 0,-456 270,-826 604,-826z"/>
   </clipPath>
   <clipPath id="id20">
    <path d="M4641 1468c-334,0 -604,370 -604,826 0,457 270,827 604,827 333,0 604,-370 604,-827 0,-456 -271,-826 -604,-826z"/>
   </clipPath>
    <clipPath id="id21">
     <path d="M4146 1563c332,400 466,873 567,1017 102,145 415,591 96,1117 -318,525 -1567,683 -1899,670 -28,-2 -56,-3 -83,-5 -27,2 -54,3 -83,5 -331,13 -1580,-145 -1898,-670 -319,-526 -7,-972 95,-1117 102,-144 236,-617 567,-1017 211,-256 505,-426 826,-510 -41,-16 -65,-42 -15,-84 112,-93 362,-60 362,-60 0,0 -278,-70 -125,-114 154,-44 378,88 378,88 0,0 2,-2 -73,-54 -76,-52 -146,-203 68,-97 152,77 301,233 373,316 329,83 629,254 844,515z"/>
    </clipPath>
      <mask id="id22">
  <linearGradient id="id23" gradientUnits="userSpaceOnUse" x1="2718.42" y1="575.484" x2="2741.17" y2="1216.65">
   <stop offset="0" style="stop-opacity:1; stop-color:white"/>
   <stop offset="1" style="stop-opacity:0; stop-color:white"/>
  </linearGradient>
       <rect style="fill:url(#id23)" x="1499" y="568" width="2652" height="1061"/>
      </mask>
    <clipPath id="id24">
     <path d="M2813 2966c-28,6 -79,10 -127,-15 -70,-36 -97,-39 -152,-10 -55,28 -50,106 -39,126 10,19 34,45 56,30 22,-16 31,-28 75,-8 45,20 75,80 126,98 61,21 90,21 151,0 50,-18 81,-78 125,-98 44,-20 54,-8 76,8 22,15 45,-11 56,-30 10,-20 15,-98 -39,-126 -55,-29 -82,-26 -153,10 -48,25 -100,21 -127,15 -9,-1 -19,-1 -28,0z"/>
    </clipPath>
      <mask id="id25">
  <linearGradient id="id26" gradientUnits="userSpaceOnUse" x1="2867.48" y1="3375.76" x2="2842.1" y2="2869.28">
   <stop offset="0" style="stop-opacity:1; stop-color:white"/>
   <stop offset="1" style="stop-opacity:0; stop-color:white"/>
  </linearGradient>
       <rect style="fill:url(#id26)" x="2442" y="2968" width="811" height="314"/>
      </mask>
    <clipPath id="id27">
     <path d="M2814 3374c-23,27 -61,57 -111,56 -89,-2 -135,-43 -135,-43 0,0 -36,177 4,335 62,253 448,253 511,0 39,-158 3,-335 3,-335 0,0 -45,41 -135,43 -50,1 -87,-29 -110,-56l-27 0z"/>
    </clipPath>
  <linearGradient id="id28" gradientUnits="userSpaceOnUse" x1="2842.95" y1="3922.82" x2="2829.89" y2="3097.18">
   <stop offset="0" style="stop-opacity:1; stop-color:#E61D4C"/>
   <stop offset="1" style="stop-opacity:1; stop-color:#1D1819"/>
  </linearGradient>
 </defs>
 <g id="Layer_x0020_1">
  <metadata id="CorelCorpID_0Corel-Layer"/>
  <g id="_1916738403296">
   <path class="fil0" d="M5850 5515c-2,46 -9,92 -20,130 -57,217 -220,368 -415,466 -244,122 -528,129 -793,95 -106,-13 -210,-34 -314,-56 -35,-7 -71,-15 -106,-22 -13,-3 -35,-7 -49,-7 -22,3 -44,0 -65,-9 -102,-45 -88,-205 -79,-296 7,-69 18,-141 32,-209 7,-30 26,-53 54,-65 28,-12 58,-9 84,8 57,38 120,72 181,104 130,69 269,130 410,172 103,30 216,53 323,47 149,-7 274,-76 369,-190 36,-42 67,-91 90,-142 2,-6 5,-14 9,-23 -173,-138 -183,-365 -154,-571 13,-89 -17,-177 -64,-252 -22,-35 -56,-79 -87,-107 -26,-22 -37,-55 -29,-89 9,-33 33,-58 66,-66 18,-4 39,-6 57,-7 64,-6 129,-9 193,-11 34,-1 68,4 102,13 76,20 152,69 217,128 20,-4 40,-1 59,9 63,32 120,143 147,203 31,66 46,149 46,229 21,2 41,7 59,12 40,11 66,47 65,89 -1,40 -27,73 -64,84 -19,7 -49,28 -64,40 -21,15 -44,57 -57,79 -37,61 -73,113 -126,161 -24,21 -49,39 -77,53z"/>
  </g>
  <g id="_1916738402912">
   <path class="fil1" d="M4129 5625c0,0 550,359 968,338 419,-21 587,-445 569,-518 -19,-74 86,-53 86,-53 0,0 102,398 -377,638 -480,241 -1135,-15 -1234,2 -100,17 -12,-407 -12,-407z"/>
   <g style="clip-path:url(#id0)">
    <g>
     <path id="1" class="fil2" d="M4135 5887c0,0 518,268 1060,141 542,-128 512,-628 557,-636 45,-7 170,-10 164,45 -5,54 -78,484 -88,500 -11,15 -852,367 -943,375 -91,8 -302,101 -535,-29 -233,-130 -215,-396 -215,-396z"/>
    </g>
   </g>
   <path class="fil3" d="M4129 5625c0,0 550,359 968,338 419,-21 587,-445 569,-518 -19,-74 86,-53 86,-53 0,0 102,398 -377,638 -480,241 -1135,-15 -1234,2 -100,17 -12,-407 -12,-407z"/>
   <path class="fil4" d="M5637 5462c0,0 124,28 229,-67 105,-95 124,-197 191,-246 66,-48 91,-54 91,-54 0,0 -62,-17 -98,-5 -37,12 -37,12 -37,12 0,0 38,-157 -26,-296 -64,-139 -107,-161 -107,-161l22 92c0,0 -163,-238 -356,-232 -193,6 -231,16 -231,16 0,0 216,189 181,438 -35,249 7,411 141,503z"/>
   <g style="clip-path:url(#id1)">
    <g>
     <path id="1" class="fil5" style="mask:url(#id2)" d="M5390 5140c3,-12 109,-261 109,-261 0,0 45,19 45,217 0,197 79,320 208,296 128,-24 158,-87 172,-173 14,-86 224,-124 224,-124l-39 -59 -94 55 -44 28c0,0 1,-217 -27,-271 -29,-53 -29,-53 -29,-53l5 44c0,0 -162,-221 -350,-273 -188,-53 -255,-45 -255,-45 0,0 -32,-67 107,-93 138,-26 348,-16 437,18 89,34 294,221 349,265 55,45 289,183 325,287 37,104 214,370 -83,500 -297,130 -168,357 -568,208 -399,-148 -640,-208 -492,-566z"/>
    </g>
   </g>
   <path class="fil3" d="M5637 5462c0,0 124,28 229,-67 105,-95 124,-197 191,-246 66,-48 91,-54 91,-54 0,0 -62,-17 -98,-5 -37,12 -37,12 -37,12 0,0 38,-157 -26,-296 -64,-139 -107,-161 -107,-161l22 92c0,0 -163,-238 -356,-232 -193,6 -231,16 -231,16 0,0 216,189 181,438 -35,249 7,411 141,503z"/>
  </g>
  <g id="_1916738404864">
   <path class="fil0" d="M1731 4978l-9 28 -244 131 -42 -22c-200,-102 -399,-208 -595,-318 -135,-76 -273,-155 -402,-241 -158,-105 -296,-259 -375,-433 -67,-147 -98,-331 -11,-477 208,-348 629,-86 869,74 107,72 222,135 336,195 159,82 323,159 487,230 76,34 152,66 229,97l52 20 47 554 -65 24c-53,19 -240,95 -277,138z"/>
  </g>
  <path class="fil1" d="M1648 4944c26,-79 329,-189 329,-189l-36 -430c0,0 -676,-268 -1069,-530 -393,-262 -618,-310 -741,-103 -124,207 44,580 358,790 315,209 988,553 988,553l171 -91z"/>
  <g style="clip-path:url(#id4)">
   <g id="_1916738405696">
    <path id="1" class="fil2" d="M76 3549l200 66c0,0 -104,170 69,480 132,236 564,413 761,484l673 191 -163 406 -891 -332 -109 52 -1027 -1181 487 -166z"/>
    <path class="fil6" d="M843 3636c0,0 -79,364 -312,567 -233,202 -439,259 -439,259 0,0 -243,-429 -237,-472 7,-44 -12,-488 38,-538 50,-51 229,-227 279,-227 50,0 312,72 312,72l359 339z"/>
   </g>
   <g style="clip-path:url(#id5)">
    <g>
     <path id="1" class="fil7" d="M76 3549l200 66c0,0 -104,170 69,480 173,309 860,518 860,518l-589 283 -1027 -1181 487 -166z"/>
    </g>
   </g>
   <g style="clip-path:url(#id6)">
    <path class="fil3" d="M843 3636c0,0 -79,364 -312,567 -233,202 -439,259 -439,259 0,0 -243,-429 -237,-472 7,-44 -12,-488 38,-538 50,-51 229,-227 279,-227 50,0 312,72 312,72l359 339z"/>
   </g>
  </g>
  <path class="fil3" d="M1648 4944c26,-79 329,-189 329,-189l-36 -430c0,0 -676,-268 -1069,-530 -393,-262 -618,-310 -741,-103 -124,207 44,580 358,790 315,209 988,553 988,553l171 -91z"/>
  <g id="_1916738407616">
   <g>
    <path class="fil0 str0" d="M1618 2035c25,-7 49,-14 71,-23 113,-43 217,-114 285,-215 139,-206 71,-444 -60,-635l-28 -40 -50 2c-66,2 -153,-12 -218,-25 -195,-38 -385,-113 -558,-209 -195,-108 -421,-152 -624,-39 -113,63 -226,189 -254,318 -9,39 -24,107 -23,163 -31,118 -41,266 -38,385 8,284 92,555 276,774 150,179 345,341 585,368 149,16 281,-22 412,-89 35,-17 65,-41 91,-70 87,-98 122,-265 117,-395l16 -270z"/>
   </g>
   <g>
    <path class="fil2" d="M661 1031c-83,-12 -213,-5 -213,-5 0,0 -121,134 -129,149 -9,15 -70,167 -70,167 0,0 -173,626 217,1092 390,466 717,343 888,256 171,-86 158,-386 158,-386l27 -448c0,0 -77,-305 -878,-825z"/>
    <g style="clip-path:url(#id7)">
     <g>
      <path id="1" class="fil8" d="M785 1209c-26,30 -337,148 -334,559 3,411 228,671 403,726 176,55 443,-97 443,-97 0,0 -30,224 -524,301 -494,78 -1170,-808 -1088,-927 82,-120 517,-667 517,-667l249 -10c0,0 292,-10 334,115z"/>
      <path class="fil9" style="mask:url(#id8)" d="M1124 1487c-112,-62 -441,-218 -441,-218 0,0 201,317 233,622 31,305 -37,640 -37,640 0,0 1126,-165 245,-1044z"/>
     </g>
    </g>
    <path class="fil3 str1" d="M661 1031c-83,-12 -213,-5 -213,-5 0,0 -121,134 -129,149 -9,15 -70,167 -70,167 0,0 -173,626 217,1092 390,466 717,343 888,256 171,-86 158,-386 158,-386l27 -448c0,0 -77,-305 -878,-825z"/>
    <path class="fil1" d="M1839 1213c0,0 -358,13 -823,-244 -464,-257 -716,80 -747,220 -30,139 -18,165 -18,165 0,0 105,-309 400,-109 295,200 313,584 625,700 311,115 951,-168 563,-732z"/>
   </g>
  </g>
  <g id="_1916738410496">
   <path class="fil0 str0" d="M3944 2035c-25,-7 -48,-14 -71,-23 -112,-43 -217,-114 -284,-215 -139,-206 -71,-444 60,-635l28 -40 49 2c66,2 154,-12 218,-25 195,-38 385,-113 559,-209 195,-108 420,-152 623,-39 113,63 226,189 255,318 8,39 23,107 22,163 31,118 41,266 38,385 -7,284 -92,555 -276,774 -149,179 -345,341 -585,368 -148,16 -281,-22 -412,-89 -35,-17 -65,-41 -90,-70 -88,-98 -122,-265 -118,-395l-16 -270z"/>
  </g>
  <g id="_1916738409312">
   <path class="fil2" d="M4901 1031c83,-12 213,-5 213,-5 0,0 121,134 130,149 8,15 69,167 69,167 0,0 173,626 -217,1092 -390,466 -717,343 -888,256 -170,-86 -158,-386 -158,-386l-27 -448c0,0 77,-305 878,-825z"/>
   <g style="clip-path:url(#id10)">
    <g>
     <path id="1" class="fil8" d="M4777 1209c26,30 337,148 334,559 -3,411 -228,671 -403,726 -175,55 -443,-97 -443,-97 0,0 30,224 524,301 494,78 1170,-808 1088,-927 -82,-120 -517,-667 -517,-667l-249 -10c0,0 -291,-10 -334,115z"/>
     <path class="fil9" style="mask:url(#id11)" d="M4438 1487c112,-62 441,-218 441,-218 0,0 -201,317 -232,622 -31,305 36,640 36,640 0,0 -1126,-165 -245,-1044z"/>
    </g>
   </g>
   <path class="fil3 str1" d="M4901 1031c83,-12 213,-5 213,-5 0,0 121,134 130,149 8,15 69,167 69,167 0,0 173,626 -217,1092 -390,466 -717,343 -888,256 -170,-86 -158,-386 -158,-386l-27 -448c0,0 77,-305 878,-825z"/>
   <path class="fil1" d="M3723 1213c0,0 359,13 823,-244 465,-257 716,80 747,220 30,139 18,165 18,165 0,0 -105,-309 -400,-109 -294,200 -313,584 -624,700 -312,115 -952,-168 -564,-732z"/>
  </g>
  <g id="_1916738412160">
   <path class="fil0" d="M2827 0c1120,0 2029,908 2029,2028 0,1120 -909,2028 -2029,2028 -1120,0 -2028,-908 -2028,-2028 0,-1120 908,-2028 2028,-2028zm0 458c-867,0 -1570,703 -1570,1570 0,868 703,1571 1570,1571 868,0 1571,-703 1571,-1571 0,-867 -703,-1570 -1571,-1570z"/>
  </g>
  <path class="fil10" d="M2827 106c1062,0 1923,861 1923,1922 0,1062 -861,1922 -1923,1922 -1061,0 -1922,-860 -1922,-1922 0,-1061 861,-1922 1922,-1922zm0 246c926,0 1677,750 1677,1676 0,926 -751,1677 -1677,1677 -926,0 -1676,-751 -1676,-1677 0,-926 750,-1676 1676,-1676z"/>
  <g id="_1916738411616">
   <path class="fil0" d="M3605 4557c29,-49 43,-251 44,-307l2 -69 539 -130 36 42c53,64 108,126 164,187 120,134 243,265 372,390 93,89 189,178 291,257 227,177 609,493 344,800 -111,128 -294,157 -455,140 -190,-20 -379,-102 -529,-219 -122,-95 -240,-201 -355,-305 -166,-151 -330,-307 -490,-465l-33 -32 47 -272 23 -17z"/>
  </g>
  <path class="fil1" d="M3664 4624c66,-49 74,-372 74,-372l420 -101c0,0 467,556 840,846 373,290 489,489 332,672 -158,182 -564,141 -862,-91 -299,-233 -837,-763 -837,-763l33 -191z"/>
  <g style="clip-path:url(#id13)">
   <g id="_1916738412672">
    <path id="1" class="fil2" d="M5483 5675l-125 -168c0,0 -130,152 -478,86 -348,-67 -763,-654 -763,-654l-83 650 1445 601 4 -515z"/>
    <path class="fil6" d="M5158 4975c0,0 -320,190 -439,475 -119,285 -107,499 -107,499 0,0 483,95 522,75 40,-20 467,-143 499,-206 32,-63 143,-289 127,-336 -16,-48 -166,-273 -166,-273l-436 -234z"/>
   </g>
   <g style="clip-path:url(#id14)">
    <g>
     <path id="1" class="fil7" d="M5483 5675l-125 -168c0,0 -130,152 -478,86 -348,-67 -763,-654 -763,-654l-83 650 1445 601 4 -515z"/>
    </g>
   </g>
   <g style="clip-path:url(#id15)">
    <path class="fil3" d="M5158 4975c0,0 -320,190 -439,475 -119,285 -107,499 -107,499 0,0 483,95 522,75 40,-20 467,-143 499,-206 32,-63 143,-289 127,-336 -16,-48 -166,-273 -166,-273l-436 -234z"/>
   </g>
  </g>
  <path class="fil3" d="M3664 4624c66,-49 74,-372 74,-372l420 -101c0,0 467,556 840,846 373,290 489,489 332,672 -158,182 -564,141 -862,-91 -299,-233 -837,-763 -837,-763l33 -191z"/>
  <g id="_1916738414944">
   <path class="fil0" d="M4015 4428c65,120 121,244 170,371 151,393 201,828 184,1247 -11,273 -58,561 -179,809 -91,186 -226,357 -394,481 -109,81 -274,168 -415,151 -57,-7 -110,-26 -156,-60 -226,-164 -189,-606 -164,-848 7,-69 -10,-133 -68,-175 -38,-27 -85,-39 -131,-39 -129,0 -213,83 -199,214 25,242 61,684 -164,848 -46,34 -99,53 -156,60 -141,17 -306,-70 -416,-151 -167,-124 -302,-295 -393,-481 -121,-248 -169,-536 -179,-809 -17,-419 33,-854 184,-1247 49,-127 105,-251 169,-371 36,-71 77,-148 122,-214l21 -30 9 -2c61,-85 130,-168 207,-238 30,-27 69,-60 105,-80l29 -16 661 133 661 -133 28 16c36,20 76,53 106,80 77,70 146,153 207,238l9 2 21 30c45,66 86,143 121,214z"/>
  </g>
  <path class="fil1" d="M3820 4265c0,0 49,72 116,204 54,102 110,222 165,363 145,378 194,801 178,1210 -13,334 -78,586 -170,773 -194,398 -544,604 -717,583 -256,-31 -287,-370 -242,-809 44,-419 -620,-419 -577,0 46,439 14,778 -241,809 -174,21 -524,-185 -717,-583 -92,-187 -157,-439 -170,-773 -16,-409 33,-832 178,-1210 55,-141 110,-261 165,-363 67,-132 116,-204 116,-204l9 -2c169,-247 303,-320 303,-320l646 130 646 -130c0,0 133,73 302,320l10 2z"/>
  <g style="clip-path:url(#id16)">
   <g id="_1916738414656">
    <path id="1" class="fil2" d="M4058 4354c-52,16 -443,249 -1298,174 -855,-75 -1144,-222 -1144,-222 0,0 229,-293 269,-301 40,-8 1160,-43 1207,-15 48,27 586,190 633,217 48,28 333,147 333,147z"/>
    <path class="fil2" d="M2827 4112c-422,0 -764,392 -764,875 0,483 342,875 764,875 422,0 764,-392 764,-875 0,-483 -342,-875 -764,-875z"/>
   </g>
   <g style="clip-path:url(#id17)">
    <g>
     <ellipse class="fil11" cx="2835" cy="4908" rx="764" ry="875"/>
     <path class="fil12" d="M4058 4354c-52,16 -443,249 -1298,174 -855,-75 -1144,-222 -1144,-222 0,0 229,-293 269,-301 40,-8 1160,-43 1207,-15 48,27 586,190 633,217 48,28 333,147 333,147z"/>
    </g>
   </g>
   <g style="clip-path:url(#id18)">
    <path class="fil3" d="M2827 4112c-422,0 -764,392 -764,875 0,483 342,875 764,875 422,0 764,-392 764,-875 0,-483 -342,-875 -764,-875z"/>
    <path class="fil6" d="M4169 7108c0,0 -71,-237 -360,-352 -289,-115 -669,-34 -669,-34l-83 470 209 162c0,0 123,75 163,75 39,0 427,-44 467,-55 39,-12 273,-266 273,-266z"/>
    <path class="fil6" d="M2577 6725l-253 56c0,0 -297,83 -436,392 -138,308 483,498 483,498l226 -344 103 -372 -123 -230z"/>
   </g>
  </g>
  <path class="fil3" d="M3820 4265c0,0 49,72 116,204 54,102 110,222 165,363 145,378 194,801 178,1210 -13,334 -78,586 -170,773 -194,398 -544,604 -717,583 -256,-31 -287,-370 -242,-809 44,-419 -620,-419 -577,0 46,439 14,778 -241,809 -174,21 -524,-185 -717,-583 -92,-187 -157,-439 -170,-773 -16,-409 33,-832 178,-1210 55,-141 110,-261 165,-363 67,-132 116,-204 116,-204l9 -2c169,-247 303,-320 303,-320l646 130 646 -130c0,0 133,73 302,320l10 2z"/>
  <g id="_1916738416864">
   <path class="fil0" d="M932 1384c380,0 687,408 687,910 0,503 -307,910 -687,910 -380,0 -688,-407 -688,-910 0,-502 308,-910 688,-910z"/>
  </g>
  <path class="fil13" d="M932 1468c334,0 604,370 604,826 0,457 -270,827 -604,827 -334,0 -604,-370 -604,-827 0,-456 270,-826 604,-826z"/>
  <g style="clip-path:url(#id19)">
   <g id="_1916738417152">
    <ellipse class="fil14" cx="1140" cy="2239" rx="330" ry="826"/>
    <path class="fil15" d="M-44 1857l716 -309c0,0 -416,379 -234,990 181,611 595,798 595,798l-761 -354 -316 -1125z"/>
   </g>
  </g>
  <path class="fil3" d="M932 1468c334,0 604,370 604,826 0,457 -270,827 -604,827 -334,0 -604,-370 -604,-827 0,-456 270,-826 604,-826z"/>
  <g id="_1916738417536">
   <path class="fil0" d="M4641 1384c45,0 90,6 134,18 172,44 309,169 400,318 105,171 153,375 153,574 0,199 -48,403 -153,574 -91,149 -228,274 -400,319 -44,11 -89,17 -134,17 -45,0 -90,-6 -134,-17 -172,-45 -309,-170 -401,-319 -104,-171 -153,-375 -153,-574 0,-199 49,-403 153,-574 92,-149 229,-274 401,-318 44,-12 89,-18 134,-18z"/>
  </g>
  <path class="fil13" d="M4641 1468c-334,0 -604,370 -604,826 0,457 270,827 604,827 333,0 604,-370 604,-827 0,-456 -271,-826 -604,-826z"/>
  <g style="clip-path:url(#id20)">
   <g id="_1881411836624">
    <ellipse class="fil14" cx="4432" cy="2239" rx="330" ry="826"/>
    <path class="fil15" d="M5617 1857l-716 -309c0,0 415,379 234,990 -181,611 -595,798 -595,798l761 -354 316 -1125z"/>
   </g>
  </g>
  <path class="fil3" d="M4641 1468c-334,0 -604,370 -604,826 0,457 270,827 604,827 333,0 604,-370 604,-827 0,-456 -271,-826 -604,-826z"/>
  <g id="_1881411837584">
   <path class="fil0" d="M2827 4452c-26,2 -53,3 -79,4 -144,6 -307,-12 -449,-31 -211,-28 -424,-72 -629,-131 -314,-92 -724,-258 -901,-551 -145,-237 -191,-500 -120,-770 43,-166 120,-306 219,-445 29,-41 55,-102 76,-148 38,-84 74,-168 113,-251 105,-222 225,-434 382,-624 199,-241 468,-410 763,-507 4,-34 24,-68 60,-98 42,-35 98,-58 158,-71 0,-2 0,-3 0,-5 1,-65 55,-100 111,-116 51,-14 108,-15 167,-6 2,-16 7,-31 17,-46 60,-89 179,-41 254,-4 140,70 276,197 383,316 334,90 642,269 864,537 157,190 277,402 381,624 39,83 76,167 113,251 22,46 48,107 77,148 98,139 176,279 219,445 70,270 24,533 -120,770 -177,293 -587,459 -901,551 -205,59 -418,103 -629,131 -143,19 -306,37 -449,31 -27,-1 -53,-2 -80,-4z"/>
  </g>
  <g id="_1881411837744">
   <path class="fil16" d="M4146 1563c332,400 466,873 567,1017 102,145 415,591 96,1117 -318,525 -1567,683 -1899,670 -28,-2 -56,-3 -83,-5 -27,2 -54,3 -83,5 -331,13 -1580,-145 -1898,-670 -319,-526 -7,-972 95,-1117 102,-144 236,-617 567,-1017 211,-256 505,-426 826,-510 -41,-16 -65,-42 -15,-84 112,-93 362,-60 362,-60 0,0 -278,-70 -125,-114 154,-44 378,88 378,88 0,0 2,-2 -73,-54 -76,-52 -146,-203 68,-97 152,77 301,233 373,316 329,83 629,254 844,515z"/>
   <g style="clip-path:url(#id21)">
    <g>
     <path id="1" class="fil17" d="M9267 2630c-1086,69 -1921,478 -1921,971 0,543 1006,982 2248,982 1241,0 2248,-439 2248,-982 0,-493 -835,-902 -1922,-971 42,-114 66,-251 66,-398 0,-398 -176,-720 -392,-720 -216,0 -392,322 -392,720 0,147 24,284 65,398z"/>
     <path class="fil18" d="M5133 3488l-184 -269c0,0 -81,626 -1502,847 -1422,222 -2328,-111 -2692,-768 -364,-657 -736,642 -736,689 0,48 317,768 499,815 182,48 1987,167 2208,167 222,0 950,71 1069,0 119,-72 340,-214 435,-293 95,-79 903,-1188 903,-1188z"/>
     <path class="fil19" style="mask:url(#id22)" d="M3969 1225l178 400c-669,-753 -1949,-657 -2644,-4 0,0 194,-574 222,-598 28,-24 922,-463 977,-451 56,12 570,127 610,154 40,28 309,111 352,151 44,39 305,348 305,348z"/>
    </g>
   </g>
   <path class="fil3" d="M4146 1563c332,400 466,873 567,1017 102,145 415,591 96,1117 -318,525 -1567,683 -1899,670 -28,-2 -56,-3 -83,-5 -27,2 -54,3 -83,5 -331,13 -1580,-145 -1898,-670 -319,-526 -7,-972 95,-1117 102,-144 236,-617 567,-1017 211,-256 505,-426 826,-510 -41,-16 -65,-42 -15,-84 112,-93 362,-60 362,-60 0,0 -278,-70 -125,-114 154,-44 378,88 378,88 0,0 2,-2 -73,-54 -76,-52 -146,-203 68,-97 152,77 301,233 373,316 329,83 629,254 844,515z"/>
   <ellipse class="fil20" cx="3609" cy="2503" rx="265" ry="352"/>
   <ellipse class="fil11" cx="3677" cy="2397" rx="122" ry="162"/>
   <ellipse class="fil11" cx="3522" cy="2603" rx="71" ry="94"/>
   <ellipse class="fil20" cx="2057" cy="2503" rx="265" ry="352"/>
   <ellipse class="fil11" cx="1989" cy="2397" rx="122" ry="162"/>
   <ellipse class="fil11" cx="2144" cy="2603" rx="71" ry="94"/>
   <path class="fil3" d="M3251 3220c0,0 -105,176 -289,172 -184,-4 -168,-210 -168,-210"/>
   <path class="fil3" d="M2326 3220c0,0 105,176 289,172 184,-4 168,-210 168,-210"/>
   <g>
    <ellipse class="fil21" cx="1825" cy="3050" rx="208" ry="125"/>
    <ellipse class="fil21" cx="3829" cy="3050" rx="208" ry="125"/>
   </g>
   <ellipse class="fil22" cx="2827" cy="3629" rx="926" ry="623"/>
   <path class="fil23" d="M2813 2966c-28,6 -79,10 -127,-15 -70,-36 -97,-39 -152,-10 -55,28 -50,106 -39,126 10,19 34,45 56,30 22,-16 31,-28 75,-8 45,20 75,80 126,98 61,21 90,21 151,0 50,-18 81,-78 125,-98 44,-20 54,-8 76,8 22,15 45,-11 56,-30 10,-20 15,-98 -39,-126 -55,-29 -82,-26 -153,10 -48,25 -100,21 -127,15 -9,-1 -19,-1 -28,0z"/>
   <g style="clip-path:url(#id24)">
    <g>
     <path id="1" class="fil24" style="mask:url(#id25)" d="M2446 3038c4,-4 53,-61 53,-61 0,0 -5,88 44,72 50,-16 59,-33 98,-20 38,12 93,110 158,118 65,9 114,-22 140,-54 26,-32 74,-76 115,-79 41,-2 48,15 69,35 21,19 46,-37 34,-68 -12,-30 52,26 52,26l40 117c0,0 -51,63 -121,77 -70,15 -184,32 -205,38 -20,7 -73,63 -164,27 -92,-36 -131,-37 -199,-62 -68,-25 -114,-166 -114,-166z"/>
    </g>
   </g>
   <path class="fil3" d="M2813 2966c-28,6 -79,10 -127,-15 -70,-36 -97,-39 -152,-10 -55,28 -50,106 -39,126 10,19 34,45 56,30 22,-16 31,-28 75,-8 45,20 75,80 126,98 61,21 90,21 151,0 50,-18 81,-78 125,-98 44,-20 54,-8 76,8 22,15 45,-11 56,-30 10,-20 15,-98 -39,-126 -55,-29 -82,-26 -153,10 -48,25 -100,21 -127,15 -9,-1 -19,-1 -28,0z"/>
   <path class="fil25" d="M2814 3374c-23,27 -61,57 -111,56 -89,-2 -135,-43 -135,-43 0,0 -36,177 4,335 62,253 448,253 511,0 39,-158 3,-335 3,-335 0,0 -45,41 -135,43 -50,1 -87,-29 -110,-56l-27 0z"/>
   <g style="clip-path:url(#id27)">
    <g>
     <path id="1" class="fil26" d="M2957 3709c-52,0 -98,25 -126,63 -29,-38 -75,-63 -127,-63 -88,0 -159,71 -159,159 0,87 71,158 159,158 52,0 98,-25 127,-63 28,38 74,63 126,63 88,0 159,-71 159,-158 0,-88 -71,-159 -159,-159z"/>
    </g>
   </g>
   <path class="fil3" d="M2814 3374c-23,27 -61,57 -111,56 -89,-2 -135,-43 -135,-43 0,0 -36,177 4,335 62,253 448,253 511,0 39,-158 3,-335 3,-335 0,0 -45,41 -135,43 -50,1 -87,-29 -110,-56l-27 0z"/>
  </g>
  <g id="_1881411833968">
   <path class="fil17" d="M3274 3161c0,0 508,-131 813,-131 305,0 357,19 357,19 0,0 -396,-18 -1170,112z"/>
   <path class="fil17" d="M3336 3244c0,0 525,-10 821,61 297,70 343,100 343,100 0,0 -381,-109 -1164,-161z"/>
   <path class="fil17" d="M3265 3360c0,0 514,104 788,237 275,133 313,172 313,172 0,0 -348,-188 -1101,-409z"/>
  </g>
  <g id="_1881411835760">
   <path class="fil17" d="M2403 3161c0,0 -508,-131 -813,-131 -305,0 -357,19 -357,19 0,0 396,-18 1170,112z"/>
   <path class="fil17" d="M2341 3244c0,0 -525,-10 -821,61 -296,70 -343,100 -343,100 0,0 381,-109 1164,-161z"/>
   <path class="fil17" d="M2412 3360c0,0 -514,104 -788,237 -274,133 -313,172 -313,172 0,0 348,-188 1101,-409z"/>
  </g>
  <ellipse class="fil16" cx="2053" cy="2471" rx="399" ry="447"/>
  <ellipse class="fil16" cx="3593" cy="2471" rx="399" ry="447"/>
  <path class="fil27" d="M1736 2536c0,0 87,-177 288,-194 202,-18 247,170 247,218 0,49 -60,73 -60,73 0,0 -16,-194 -159,-212 -142,-17 -252,168 -252,168 0,0 -120,41 -64,-53z"/>
  <path class="fil27" d="M3818 2536c0,0 -87,-177 -288,-194 -201,-18 -247,170 -247,218 0,49 60,73 60,73 0,0 17,-194 159,-212 143,-17 253,168 253,168 0,0 119,41 63,-53z"/>
 </g>
</svg>
