<?xml version="1.0" encoding="UTF-8"?>
<svg width="160px" height="236px" viewBox="0 0 160 236" version="1.1" xmlns="http://www.w3.org/2000/svg" xmlns:xlink="http://www.w3.org/1999/xlink">
    <title>dollar-sign-svgrepo-com</title>
    <g id="Page-1" stroke="none" stroke-width="1" fill="none" fill-rule="evenodd">
        <g id="dollar-sign-svgrepo-com" transform="translate(0.174393, 0.000000)" fill="#ffffff" fill-rule="nonzero">
            <path d="M79.9256073,235.517 C87.8236073,235.517 94.2356073,229.485 94.2356073,222.034 C94.2356073,214.593 94.2356073,208.561 94.2356073,208.561 C133.304607,204.982 159.167607,184.346 159.167607,150.776 L159.167607,150.227 C159.167607,116.108 137.155607,100.427 93.4096073,90.25 L93.4096073,58.334 C99.7076073,59.873 106.229607,62.054 112.603607,64.883 C122.861607,69.43 135.327607,66.58 141.555607,56.398 C147.788607,46.222 144.421607,31.928 132.874607,26.744 C121.376607,21.588 108.757607,18.036 94.7796073,16.508 L94.7796073,8.251 C94.7796073,3.699 88.3776073,0 80.4746073,0 C72.5716073,0 66.1646073,3.514 66.1646073,7.832 C66.1646073,12.167 66.1646073,15.675 66.1646073,15.675 C24.0606073,18.705 0.400607252,41.266 0.400607252,73.732 L0.400607252,74.287 C0.400607252,108.401 22.9616073,123.543 67.2626073,133.714 L67.2626073,166.735 C56.6346073,165.022 46.2296073,161.492 35.6396073,156.085 C24.3586073,150.33 10.5386073,152.365 3.70160725,162.47 C-3.14039275,172.57 -0.377392748,186.919 10.9956073,192.499 C27.7046073,200.707 46.5886073,206.069 65.6096073,208.017 L65.6096073,221.772 C65.6156073,229.36 72.0226073,235.517 79.9256073,235.517 Z M93.1266073,138.12 C107.442607,142.243 111.564607,146.377 111.564607,153.801 L111.564607,154.356 C111.564607,162.335 105.788607,167.007 93.1266073,168.389 L93.1266073,138.12 Z M48.8246073,70.153 L48.8246073,69.604 C48.8246073,62.452 54.0566073,56.947 67.5346073,55.849 L67.5346073,85.568 C52.6816073,81.439 48.8246073,77.305 48.8246073,70.153 Z" id="Shape"></path>
        </g>
    </g>
</svg>
