<?xml version="1.0" encoding="UTF-8"?>
<svg width="90px" height="88px" viewBox="0 0 90 88" version="1.1" xmlns="http://www.w3.org/2000/svg" xmlns:xlink="http://www.w3.org/1999/xlink">
    <title>Group</title>
    <g id="Page-1" stroke="none" stroke-width="1" fill="none" fill-rule="evenodd">
        <g id="Group" transform="translate(0.988806, -0.000472)" fill="#FFFFFF" fill-rule="nonzero">
            <path d="M20.8511936,51.8004724 L18.9511936,50.2604724 C18.9184583,50.2515431 18.8839289,50.2515431 18.8511936,50.2604724 C18.812363,50.2625283 18.7761367,50.2806415 18.7511936,50.3104724 L15.5011936,54.3104724 C15.4922643,54.3432077 15.4922643,54.377737 15.5011936,54.4104724 C15.5068869,54.4505341 15.5285242,54.4865964 15.5611936,54.5104724 L17.4211936,56.0004724 C17.4571395,56.0107539 17.4952477,56.0107539 17.5311936,56.0004724 C17.5676231,55.9997404 17.6013263,55.9810164 17.6211936,55.9504724 L20.8711936,51.9504724 C20.8845269,51.9184724 20.8845269,51.8824724 20.8711936,51.8504724 C20.8691377,51.8116418 20.8510245,51.7754155 20.8211936,51.7504724 L20.8511936,51.8004724 Z" id="Path"></path>
            <path d="M15.4011936,33.2804724 L22.0111936,38.6304724 L25.0911936,35.0004724 C25.31204,34.7266465 25.6317089,34.550649 25.9811936,34.5104724 C26.3383552,34.4689609 26.6975199,34.569527 26.9811936,34.7904724 C28.3711936,33.2004724 29.7511936,31.5704724 31.1111936,29.9704724 C32.1111936,28.6704724 33.1111936,27.4904724 34.1111936,26.4504724 C35.0646252,25.4000961 36.1425803,24.4698981 37.3211936,23.6804724 C38.5880903,22.8522213 39.9788549,22.2311032 41.4411936,21.8404724 L41.4411936,21.8404724 C43.2357503,21.3826756 45.079216,21.1442675 46.9311936,21.1304724 L47.0111936,21.1304724 C48.5311936,21.0504724 50.3111936,21.1304724 51.8011936,21.1304724 L53.6411936,21.1304724 C61.1211936,21.1304724 64.8411936,24.7904724 67.7211936,27.6404724 L67.7211936,27.6404724 C68.3111936,28.2204724 68.8711936,28.7704724 69.3911936,29.2104724 C69.8249236,29.6198244 70.3211537,29.9573959 70.8611936,30.2104724 L70.8611936,30.2104724 C71.1011936,30.2904724 71.7411936,29.9704724 72.4511936,29.6104724 L72.4511936,29.6104724 C73.0169444,29.3126935 73.6015191,29.0521402 74.2011936,28.8304724 C76.7011936,27.6804724 79.2611936,26.2904724 81.7511936,25.2704724 C82.2794376,25.0532622 82.8524993,24.9674745 83.4211936,25.0204724 C84.0212319,25.0755824 84.6051218,25.2453179 85.1411936,25.5204724 C85.5348789,25.7191689 85.9012445,25.9678942 86.2311936,26.2604724 C86.5675421,26.5562524 86.8664302,26.8920817 87.1211936,27.2604724 L87.1211936,27.3104724 C87.387271,27.6907974 87.6024313,28.1043086 87.7611936,28.5404724 L87.7611936,28.5404724 C88.1833806,29.7861987 88.1263379,31.144529 87.6011936,32.3504724 C87.4213279,32.8565152 87.1650235,33.3320273 86.8411936,33.7604724 C86.2162155,34.5986252 85.3617622,35.2377285 84.3811936,35.6004724 C82.5111936,36.5104724 80.6311936,37.4404724 78.7411936,38.2504724 C77.1595069,38.9888945 75.512367,39.5781153 73.8211936,40.0104724 C71.8838316,40.3991772 69.8885556,40.3991772 67.9511936,40.0104724 L67.7711936,40.0104724 C65.5063228,39.3060712 63.4331773,38.0916048 61.7111936,36.4604724 L60.7111936,46.0904724 C61.4811936,46.4904724 62.2411936,46.8404724 62.9811936,47.1604724 C63.8911936,47.5504724 64.7611936,47.8904724 65.6111936,48.2204724 L65.6111936,48.2204724 C71.0311936,50.3304724 75.4911936,52.0804724 76.9711936,60.3604724 C77.1511936,61.3604724 77.3211936,63.3604724 77.4611936,65.6604724 C77.6911936,69.1104724 77.8611936,73.1404724 77.9011936,74.6104724 L77.9011936,74.6104724 C77.9107271,74.6700937 77.9107271,74.7308511 77.9011936,74.7904724 C77.8204685,75.0892521 77.5506743,75.2977294 77.2411936,75.3004724 L77.1311936,75.3004724 C76.9191878,75.3327318 76.7055012,75.3527649 76.4911936,75.3604724 L74.7511936,75.3604724 C72.7511936,75.3604724 70.2411936,75.3604724 69.0611936,75.3604724 L68.7711936,75.3604724 C68.3511936,75.3604724 68.1511936,75.3604724 67.8911936,75.0804724 C67.7110691,74.8631708 67.6311634,74.5798689 67.6711936,74.3004724 L67.6711936,73.9004724 C67.5811936,72.2304724 67.4011936,69.4304724 67.2211936,66.9004724 C67.0811936,65.1004724 66.9511936,63.4804724 66.8411936,62.6204724 C66.7995927,62.3236743 66.7394754,62.0297676 66.6611936,61.7404724 C66.5797058,61.4676274 66.4725607,61.2031131 66.3411936,60.9504724 L66.2511936,60.7904724 C65.9511936,60.2404724 65.6811936,59.7304724 65.4711936,59.6504724 L65.4711936,59.6504724 C65.0811936,59.4904724 64.5611936,59.3204724 63.9611936,59.1404724 C63.3611936,58.9604724 62.4811936,58.7204724 61.6911936,58.5104724 C60.9011936,58.3004724 59.9711936,58.0804724 59.0111936,57.8604724 L56.7311936,57.3504724 C56.0711936,60.1004724 55.5411936,63.0004724 55.0111936,66.0504724 C53.6911936,73.2804724 52.2911936,80.9404724 49.6611936,87.0504724 C49.5182278,87.3883967 49.1385876,87.5585802 48.7911936,87.4404724 C48.0797048,87.5471974 47.3605147,87.5940284 46.6411936,87.5804724 C44.5111936,87.5804724 41.5611936,87.5804724 40.2911936,87.5004724 L40.0111936,87.5004724 C39.5811936,87.5004724 39.3611936,87.5004724 39.1211936,87.1504724 L39.1211936,87.1504724 C38.9588104,86.8980094 38.9184269,86.5859548 39.0111936,86.3004724 L39.0811936,85.9704724 C39.2111936,85.3004724 39.4211936,84.2604724 39.6911936,82.9704724 L40.8111936,77.7604724 C41.5511936,74.3304724 42.5611936,69.7604724 43.5411936,65.3704724 C44.8111936,59.6304724 45.9411936,54.6204724 46.3311936,52.9004724 C45.9711936,52.4904724 45.6111936,52.0704724 45.3311936,51.6304724 C44.9118068,51.0709042 44.5373071,50.479061 44.2111936,49.8604724 C43.847095,49.154769 43.5748804,48.4053387 43.4011936,47.6304724 C43.2234027,46.8161231 43.1861997,45.9773646 43.2911936,45.1504724 L45.0111936,31.7604724 C44.4035299,31.7657234 43.8050502,31.9093586 43.2611936,32.1804724 L43.2611936,32.1804724 C42.7090048,32.4937183 42.2095603,32.8919241 41.7811936,33.3604724 C41.2911936,33.8804724 40.7811936,34.5104724 40.2811936,35.1804724 L40.2811936,35.1804724 C39.8711936,35.7004724 39.4411936,36.2604724 38.9111936,36.8804724 C37.6211936,38.3804724 36.3211936,39.9404724 35.0111936,41.4504724 C35.1851849,41.8993416 35.1050207,42.4070482 34.8011936,42.7804724 L31.6111936,46.4304724 L38.2011936,51.7804724 C38.575321,52.0853958 38.8186171,52.5218977 38.8811936,53.0004724 C38.935301,53.496858 38.7875538,53.9941532 38.4711936,54.3804724 L35.6111936,58.0004724 C33.0950481,57.8051549 30.6016276,57.3834489 28.1611936,56.7404724 C25.7628837,56.1056759 23.4344996,55.2312755 21.2111936,54.1304724 L22.3511936,52.7204724 C22.6055469,52.4092783 22.7253418,52.0095217 22.684049,51.6097315 C22.6427561,51.2099412 22.443783,50.843109 22.1311936,50.5904724 L19.9311936,48.8004724 L19.9311936,48.8004724 C19.6199995,48.5461191 19.220243,48.4263241 18.8204527,48.467617 C18.4206624,48.5089099 18.0538302,48.707883 17.8011936,49.0204724 L16.6811936,50.4004724 C15.193023,48.4907239 13.8936052,46.4411268 12.8011936,44.2804724 C11.6459969,41.9462115 10.7119194,39.5089055 10.0111936,37.0004724 L12.8011936,33.5704724 C13.4536779,32.7655865 14.6343912,32.6403593 15.4411936,33.2904724 L15.4011936,33.2804724 Z" id="Path"></path>
            <path d="M25.2311936,38.2204724 L23.7211936,40.0004724 L29.9511936,45.0004724 L31.1111936,43.6604724 C29.3411936,42.1404724 26.9011936,39.9604724 25.3411936,38.3304724 L25.2311936,38.2104724 L25.2311936,38.2204724 Z" id="Path"></path>
            <path d="M33.9111936,60.0004724 L26.1411936,69.5804724 C25.8317356,69.9697635 25.3764577,70.215469 24.8811936,70.2604724 C24.3864729,70.3140046 23.8906003,70.1702734 23.5011936,69.8604724 L0.701193608,51.4004724 C0.312016897,51.0852756 0.0638493082,50.6285034 0.0111936082,50.1304724 C-0.0436103784,49.6370987 0.104369627,49.1426289 0.421193608,48.7604724 L8.26119361,39.0904724 C8.94006643,41.149895 9.77239958,43.1555171 10.7511936,45.0904724 C11.9948974,47.5789575 13.5036402,49.9258907 15.2511936,52.0904724 L14.0111936,53.6204724 C13.7579712,53.9329199 13.6398537,54.3334747 13.6830301,54.7333257 C13.7262065,55.1331767 13.927109,55.4992834 14.2411936,55.7504724 L16.4411936,57.5404724 C16.7523877,57.7948257 17.1521443,57.9146206 17.5519345,57.8733277 C17.9517248,57.8320348 18.318557,57.6330618 18.5711936,57.3204724 L19.8611936,55.7304724 L19.8011936,55.8404724 C22.3174835,57.1250356 24.9665159,58.1309972 27.7011936,58.8404724 C29.73927,59.3819014 31.8150961,59.7696564 33.9111936,60.0004724 Z" id="Path"></path>
            <path d="M52.6611936,0.700472385 C53.8014955,0.22604636 55.0261995,-0.0120905253 56.2611936,0.000472385438 C60.028162,-0.0140719576 63.4301832,2.2499909 64.8711936,5.73047239 C65.3471924,6.85694345 65.5920365,8.06756144 65.5912633,9.29047239 C65.605738,13.0574408 63.3416751,16.4594619 59.8611936,17.9004724 C58.7347225,18.3764712 57.5241046,18.6213152 56.3011936,18.6204746 C55.0802543,18.621307 53.8709208,18.3835167 52.7411936,17.9204724 C50.4781257,16.9817485 48.6799175,15.1835403 47.7411936,12.9204724 C47.2578087,11.7854172 47.009477,10.5641694 47.0110443,9.33047239 C46.9899505,5.57322652 49.2364018,2.17393908 52.7011936,0.720472385 L52.6611936,0.700472385 Z" id="Path"></path>
        </g>
    </g>
</svg>
