<?xml version="1.0" encoding="UTF-8"?>
<svg width="512px" height="512px" viewBox="0 0 512 512" version="1.1" xmlns="http://www.w3.org/2000/svg" xmlns:xlink="http://www.w3.org/1999/xlink">
    <title>layer1</title>
    <g id="Page-1" stroke="none" stroke-width="1" fill="none" fill-rule="evenodd">
        <g id="layer1" transform="translate(-0.000000, 0.000000)" fill="#FFFFFF" fill-rule="nonzero">
            <path d="M157.543012,78.36326 L140.571522,95.33396 L95.3155033,140.58786 L38.7445103,197.1582 L100.972012,259.3828 L157.543012,202.8144 L457.371432,502.6268 C469.868685,515.122953 490.130189,515.122953 502.627442,502.6268 C515.124186,490.130131 515.124186,469.869569 502.627442,457.3729 L202.800982,157.5586 L219.772482,140.58786 L270.686962,89.67771 L157.543012,78.36326 Z" id="path1492"></path>
            <path d="M255.989002,0 C255.989002,0 423.996812,127.99997 423.996832,256 C423.996842,319.9999 367.994252,391.9999 271.989752,391.9999 C207.986792,391.9999 167.748562,344.2362 167.748562,344.2362 L156.435542,355.5487 C150.186915,349.30062 140.056159,349.30062 133.807532,355.5487 C132.847642,356.513172 132.014709,357.596146 131.328902,358.7714 C120.149568,355.548727 108.101848,358.647082 99.8645433,366.8632 C94.1368453,372.603321 90.8020027,380.30374 90.5340313,388.4081 C65.1017273,402.1604 22.9692483,428.9833 4.26438846,463.9999 L4.29368646,464.0289 C-1.42074518,473.917133 -1.43191059,486.101211 4.26438846,495.9999 C8.5080353,503.34983 15.4977654,508.713015 23.6959099,510.909612 C31.8940544,513.106208 40.62906,511.95628 47.9793153,507.7128 C83.0048763,489.0048 109.834052,446.861 123.584402,421.4315 C131.683563,421.165291 139.380138,417.836519 145.120562,412.1171 C148.799877,408.428017 151.522732,403.896385 153.052572,398.9159 C177.569042,421.9703 224.497502,455.9999 287.990492,455.9999 C383.995002,455.9999 487.999812,383.9999 487.999812,256 C487.999812,95.99998 255.989002,0 255.989002,0 L255.989002,0 Z" id="path1514"></path>
        </g>
    </g>
</svg>