<?xml version="1.0" encoding="UTF-8"?>
<svg width="260px" height="288px" viewBox="0 0 260 288" version="1.1" xmlns="http://www.w3.org/2000/svg" xmlns:xlink="http://www.w3.org/1999/xlink">
    <title>Group</title>
    <g id="Page-1" stroke="none" stroke-width="1" fill="none" fill-rule="evenodd">
        <g id="Group" transform="translate(0.255853, 0.930000)" fill="#FFFFFF" fill-rule="nonzero">
            <path d="M60.7441471,113.07 L0.7041471,30.08 C-0.1158529,28.94 -0.2758529,27.57 0.5241471,26.88 C1.3241471,26.2 2.7141471,26.53 3.6041471,27.61 L57.5641471,92.94 C58.4541471,94.03 60.0741471,94.17 61.1441471,93.27 L61.9041471,92.63 C62.9841471,91.73 63.1441471,90.09 62.2641471,88.99 L9.3041471,22.84 C8.4241471,21.74 8.3541471,20.3 9.1341471,19.64 C9.9241471,18.98 11.3041471,19.32 12.2241471,20.38 L67.1741471,84.86 C68.0841471,85.93 69.7141471,86.06 70.7841471,85.16 L71.5341471,84.53 C72.6141471,83.63 72.7641471,82 71.8641471,80.92 L17.9041471,15.6 C17.0041471,14.51 16.9241471,13.09 17.7041471,12.43 C18.4841471,11.77 19.8941471,12.09 20.8141471,13.15 L76.7641471,76.8 C77.6941471,77.86 79.3341471,77.98 80.4041471,77.08 L81.1641471,76.44 C82.2441471,75.54 82.3741471,73.92 81.4641471,72.86 L26.4941471,8.37 C25.5841471,7.3 25.5041471,5.88 26.3141471,5.21 C27.1241471,4.54 28.4541471,4.93 29.4341471,5.94 L100.744147,79.48 C116.164147,96.4 93.9741471,103.66 116.434147,130.43 C158.554147,180.63 158.944147,180.13 238.304147,259.3 C244.764147,266.05 244.204147,276.48 237.044147,282.49 C229.884147,288.5 219.514147,287.24 213.984147,279.71 C149.764147,187.83 150.314147,187.55 108.194147,137.35 C85.7241471,110.57 74.7241471,131.17 60.7341471,113.04 L60.7441471,113.07 Z" id="Path"></path>
            <path d="M41.4041471,279.82 C37.1841471,279.82 33.0341471,278.29 29.7241471,275.51 C25.7941471,272.21 23.4841471,267.64 23.2041471,262.64 C22.9341471,257.63 24.7341471,252.83 28.2941471,249.12 C28.9441471,248.46 91.3041471,185.67 128.544147,141.29 C165.844147,96.83 242.164147,6.12 242.934147,5.2 L243.184147,4.91 L243.244147,4.85 C244.804147,3.17 247.004147,2.2 249.294147,2.2 C251.214147,2.2 253.084147,2.88 254.554147,4.12 C255.734147,5.12 256.604147,6.43 257.074147,7.89 L257.404147,7.87 L257.494147,10.14 C258.124147,34.69 229.494147,87.89 190.904147,133.88 C178.424147,148.76 167.184147,151.2 157.274147,153.36 C148.344147,155.31 140.634147,156.98 132.974147,167.37 L55.9541471,272.33 C52.4741471,277.08 47.1641471,279.81 41.3941471,279.81 L41.4041471,279.82 Z" id="Path"></path>
            <path d="M249.304147,4.4 C250.664147,4.4 252.024147,4.86 253.154147,5.8 C254.504147,6.94 255.214147,8.55 255.274147,10.2 L255.304147,10.2 C255.904147,33.67 228.154147,86.07 189.224147,132.47 C166.114147,160.01 148.154147,143.08 131.214147,166.06 L54.1841471,271.03 C51.0141471,275.36 46.2441471,277.61 41.3941471,277.61 C37.8041471,277.61 34.1741471,276.37 31.1241471,273.81 C23.9741471,267.81 23.4041471,257.37 29.8741471,250.63 C29.8741471,250.63 92.4941471,187.66 130.224147,142.69 C167.954147,97.72 244.614147,6.61 244.614147,6.61 L244.744147,6.46 C244.744147,6.46 244.794147,6.41 244.824147,6.38 C246.014147,5.07 247.644147,4.4 249.294147,4.4 M249.294147,0 L249.294147,0 C246.424147,0 243.674147,1.19 241.704147,3.27 L241.694147,3.27 C241.694147,3.27 241.524147,3.46 241.524147,3.46 L241.484147,3.51 L241.444147,3.56 L241.314147,3.71 L241.284147,3.74 L241.254147,3.77 C240.484147,4.68 164.174147,95.4 126.864147,139.86 C89.6841471,184.17 27.3841471,246.9 26.7641471,247.53 L26.7341471,247.56 L26.7041471,247.59 C22.7241471,251.74 20.7041471,257.12 21.0041471,262.75 C21.3141471,268.37 23.9041471,273.5 28.3041471,277.19 C32.0141471,280.3 36.6641471,282.02 41.3941471,282.02 C47.8741471,282.02 53.8241471,278.96 57.7341471,273.64 L134.754147,168.67 C141.914147,158.96 148.894147,157.44 157.744147,155.51 C168.004147,153.28 179.624147,150.75 192.594147,135.3 C211.434147,112.85 228.614147,87.82 240.964147,64.82 C248.144147,51.46 260.124147,26.57 259.704147,10.09 L259.584147,5.52 L258.494147,5.59 C257.874147,4.39 257.024147,3.32 255.974147,2.44 C254.104147,0.87 251.724147,0 249.294147,0 L249.294147,0 L249.294147,0 Z" id="Shape"></path>
        </g>
    </g>
</svg>
