<?xml version="1.0" encoding="UTF-8"?>
<svg width="260px" height="288px" viewBox="0 0 260 288" version="1.1" xmlns="http://www.w3.org/2000/svg" xmlns:xlink="http://www.w3.org/1999/xlink">
    <title>Group</title>
    <g id="Page-1" stroke="none" stroke-width="1" fill="none" fill-rule="evenodd">
        <g id="Group" transform="translate(0.255853, 0.930000)" fill-rule="nonzero">
            <path d="M60.7441471,113.07 L0.7041471,30.08 C-0.1158529,28.94 -0.2758529,27.57 0.5241471,26.88 C1.3241471,26.2 2.7141471,26.53 3.6041471,27.61 L57.5641471,92.94 C58.4541471,94.03 60.0741471,94.17 61.1441471,93.27 L61.9041471,92.63 C62.9841471,91.73 63.1441471,90.09 62.2641471,88.99 L9.3041471,22.84 C8.4241471,21.74 8.3541471,20.3 9.1341471,19.64 C9.9241471,18.98 11.3041471,19.32 12.2241471,20.38 L67.1741471,84.86 C68.0841471,85.93 69.7141471,86.06 70.7841471,85.16 L71.5341471,84.53 C72.6141471,83.63 72.7641471,82 71.8641471,80.92 L17.9041471,15.6 C17.0041471,14.51 16.9241471,13.09 17.7041471,12.43 C18.4841471,11.77 19.8941471,12.09 20.8141471,13.15 L76.7641471,76.8 C77.6941471,77.86 79.3341471,77.98 80.4041471,77.08 L81.1641471,76.44 C82.2441471,75.54 82.3741471,73.92 81.4641471,72.86 L26.4941471,8.37 C25.5841471,7.3 25.5041471,5.88 26.3141471,5.21 C27.1241471,4.54 28.4541471,4.93 29.4341471,5.94 L100.744147,79.48 C116.164147,96.4 93.9741471,103.66 116.434147,130.43 C158.554147,180.63 158.944147,180.13 238.304147,259.3 C244.764147,266.05 244.204147,276.48 237.044147,282.49 C229.884147,288.5 219.514147,287.24 213.984147,279.71 C149.764147,187.83 150.314147,187.55 108.194147,137.35 C85.7241471,110.57 74.7241471,131.17 60.7341471,113.04 L60.7441471,113.07 Z" id="Path" fill="#1D1D1B"></path>
            <g transform="translate(20.974954, 0.000000)">
                <path d="M20.4291929,279.82 C16.2091929,279.82 12.0591929,278.29 8.74919287,275.51 C4.81919287,272.21 2.50919287,267.64 2.22919287,262.64 C1.95919287,257.63 3.75919287,252.83 7.31919287,249.12 C7.96919287,248.46 70.3291929,185.67 107.569193,141.29 C144.869193,96.83 221.189193,6.12 221.959193,5.2 L222.209193,4.91 L222.269193,4.85 C223.829193,3.17 226.029193,2.2 228.319193,2.2 C230.239193,2.2 232.109193,2.88 233.579193,4.12 C234.759193,5.12 235.629193,6.43 236.099193,7.89 L236.429193,7.87 L236.519193,10.14 C237.149193,34.69 208.519193,87.89 169.929193,133.88 C157.449193,148.76 146.209193,151.2 136.299193,153.36 C127.369193,155.31 119.659193,156.98 111.999193,167.37 L34.9791929,272.33 C31.4991929,277.08 26.1891929,279.81 20.4191929,279.81 L20.4291929,279.82 Z" id="Path" fill="#1D1D1B"></path>
                <path d="M228.329193,4.4 C229.689193,4.4 231.049193,4.86 232.179193,5.8 C233.529193,6.94 234.239193,8.55 234.299193,10.2 L234.329193,10.2 C234.929193,33.67 207.179193,86.07 168.249193,132.47 C145.139193,160.01 127.179193,143.08 110.239193,166.06 L33.2091929,271.03 C30.0391929,275.36 25.2691929,277.61 20.4191929,277.61 C16.8291929,277.61 13.1991929,276.37 10.1491929,273.81 C2.99919287,267.81 2.42919287,257.37 8.89919287,250.63 C8.89919287,250.63 71.5191929,187.66 109.249193,142.69 C146.979193,97.72 223.639193,6.61 223.639193,6.61 L223.769193,6.46 C223.769193,6.46 223.819193,6.41 223.849193,6.38 C225.039193,5.07 226.669193,4.4 228.319193,4.4 M228.319193,0 L228.319193,0 C225.449193,0 222.699193,1.19 220.729193,3.27 L220.719193,3.27 C220.719193,3.27 220.549193,3.46 220.549193,3.46 L220.509193,3.51 L220.469193,3.56 L220.339193,3.71 L220.309193,3.74 L220.279193,3.77 C219.509193,4.68 143.199193,95.4 105.889193,139.86 C68.7091929,184.17 6.40919287,246.9 5.78919287,247.53 L5.75919287,247.56 L5.72919287,247.59 C1.74919287,251.74 -0.270807133,257.12 0.029192867,262.75 C0.339192867,268.37 2.92919287,273.5 7.32919287,277.19 C11.0391929,280.3 15.6891929,282.02 20.4191929,282.02 C26.8991929,282.02 32.8491929,278.96 36.7591929,273.64 L113.779193,168.67 C120.939193,158.96 127.919193,157.44 136.769193,155.51 C147.029193,153.28 158.649193,150.75 171.619193,135.3 C190.459193,112.85 207.639193,87.82 219.989193,64.82 C227.169193,51.46 239.149193,26.57 238.729193,10.09 L238.609193,5.52 L237.519193,5.59 C236.899193,4.39 236.049193,3.32 234.999193,2.44 C233.129193,0.87 230.749193,0 228.319193,0 L228.319193,0 L228.319193,0 Z" id="Shape" fill="#FFFFFF"></path>
            </g>
        </g>
    </g>
</svg>
