<?xml version="1.0" encoding="UTF-8"?>
<svg width="180px" height="182px" viewBox="0 0 180 182" version="1.1" xmlns="http://www.w3.org/2000/svg" xmlns:xlink="http://www.w3.org/1999/xlink">
    <title>GitHub-Octocat-logo</title>
    <defs>
        <path d="M7.0993129,36.9476523 C8.21349453,42.1321191 10.9645356,45.1967503 13.6607155,47 L42.3910408,46.9662573 C45.8662501,44.6191547 49.42026,40.1730576 49.42026,31.7760871 L49.42026,10.2432816 C49.42026,10.2432816 49.8661322,4.91391962 54.7757132,3.13845807 C54.7757132,3.13845807 57.6743809,1.14069167 54.5512809,0.0311522559 C54.5512809,0.0311522559 40.9417069,-1.08334932 40.9417069,10.0199843 L40.9417069,26.4477176 C40.9417069,26.4477176 41.479347,32.5025476 38.2644791,34.9935529 L38.2644791,14.7191516 C38.2644791,14.7191516 38.4869165,8.28223515 41.8334512,5.83985904 C41.8334512,5.83985904 44.0648069,1.84531867 39.1572209,2.95386565 C39.1572209,2.95386565 29.785926,4.28570991 29.3400539,15.1637613 L29.1255964,35.9939248 L26.8732937,35.9939248 L26.6608311,15.1637613 C26.214959,4.28570991 16.8436641,2.95386565 16.8436641,2.95386565 C11.9340831,1.84531867 14.1674338,5.83985904 14.1674338,5.83985904 C17.5139685,8.28223515 17.7364059,14.7191516 17.7364059,14.7191516 L17.7364059,35.2257821 C14.5195431,32.9620438 15.059178,26.4477176 15.059178,26.4477176 L15.059178,10.0199843 C15.059178,-1.08334932 1.44960411,0.0311522559 1.44960411,0.0311522559 C-1.67549081,1.14069167 1.22517182,3.13845807 1.22517182,3.13845807 C6.1347528,4.91391962 6.58062495,10.2432816 6.58062495,10.2432816 L6.58062495,25.3074128 L7.0993129,36.9476523" id="path-1"></path>
        <polygon id="path-3" points="0 0 179.349 0 179.349 138.086868 0 138.086868"></polygon>
    </defs>
    <g id="GitHub-Octocat-logo" stroke="none" stroke-width="1" fill="none" fill-rule="evenodd">
        <g id="Group" transform="translate(0.000000, 0.334000)">
            <path d="M140.716,140.003 C140.716,149.733 118.178,157.62 90.377,157.62 C62.574,157.62 40.037,149.733 40.037,140.003 C40.037,130.272 62.574,122.383 90.377,122.383 C118.178,122.383 140.716,130.272 140.716,140.003" id="Fill-1" fill="#9DD6E6"></path>
            <g id="Group-4" transform="translate(62.000000, 134.666000)">
                <mask id="mask-2" fill="white">
                    <use xlink:href="#path-1"></use>
                </mask>
                <g id="Clip-3"></g>
                <path d="M79,5.50148991 C79,15.1660471 56.3901409,23 28.5005016,23 C0.608855869,23 -22,15.1660471 -22,5.50148991 C-22,-4.1640605 0.608855869,-12 28.5005016,-12 C56.3901409,-12 79,-4.1640605 79,5.50148991" id="Fill-2" fill="#7BB4D6" mask="url(#mask-2)"></path>
            </g>
            <g id="Group-8">
                <mask id="mask-4" fill="white">
                    <use xlink:href="#path-3"></use>
                </mask>
                <g id="Clip-6"></g>
                <path d="M32.873,88.198 L31.42,93.26 C31.42,93.26 31.042,95.09 32.766,95.415 C34.566,95.38 34.419,93.696 34.293,93.149 L32.873,88.198" id="Fill-5" fill="#9DD6E6" mask="url(#mask-4)"></path>
                <path d="M179.216,66.971 L179.349,66.313 C164.581,63.36 149.427,63.331 140.259,63.712 C141.765,58.286 142.218,52.042 142.218,45.079 C142.218,35.092 138.466,27.104 132.376,21.025 C133.44,17.589 134.862,9.959 130.956,0.191 C130.956,0.191 124.065,-1.997 108.479,8.435 C102.373,6.909 95.876,6.155 89.367,6.155 C82.207,6.155 74.973,7.067 68.225,8.918 C52.139,-2.057 45.038,0.191 45.038,0.191 C40.402,11.781 43.268,20.363 44.14,22.494 C38.691,28.373 35.365,35.878 35.365,45.079 C35.365,52.025 36.157,58.256 38.089,63.673 C28.843,63.337 14.24,63.465 0,66.313 L0.132,66.971 C14.457,64.106 29.15,64.006 38.341,64.354 C38.767,65.475 39.24,66.563 39.771,67.614 C30.684,67.907 15.167,69.065 0.296,73.26 L0.478,73.905 C15.467,69.678 31.119,68.549 40.119,68.274 C45.549,78.395 56.254,84.932 75.299,86.985 C72.596,88.801 69.839,91.889 68.721,97.114 C65.037,98.876 53.377,103.176 46.381,91.143 C46.381,91.143 42.465,83.983 34.97,83.423 C34.97,83.423 27.698,83.311 34.467,87.954 C34.467,87.954 39.333,90.247 42.689,98.862 C42.689,98.862 47.068,113.557 68.201,108.842 L68.201,124.022 C68.201,124.022 67.754,129.391 62.832,131.18 C62.832,131.18 59.924,133.194 63.057,134.311 C63.057,134.311 76.701,135.43 76.701,124.247 L76.701,107.694 C76.701,107.694 76.161,101.13 79.385,98.848 L79.385,126.036 C79.385,126.036 79.162,132.522 75.807,134.983 C75.807,134.983 73.569,139.008 78.49,137.891 C78.49,137.891 87.885,136.549 88.332,125.588 L88.546,98.075 L90.803,98.075 L91.018,125.588 C91.465,136.549 100.86,137.891 100.86,137.891 C105.78,139.008 103.543,134.983 103.543,134.983 C100.188,132.522 99.965,126.036 99.965,126.036 L99.965,99.083 C103.188,101.592 102.649,107.694 102.649,107.694 L102.649,124.247 C102.649,135.43 116.293,134.311 116.293,134.311 C119.424,133.194 116.518,131.18 116.518,131.18 C111.596,129.391 111.149,124.022 111.149,124.022 L111.149,102.325 C111.149,93.864 107.586,89.383 104.102,87.018 C124.413,85.005 134.159,78.446 138.65,68.256 C147.546,68.501 163.556,69.585 178.871,73.905 L179.052,73.26 C163.826,68.965 147.921,67.854 138.935,67.592 C139.361,66.563 139.732,65.493 140.062,64.391 C149.167,64.003 164.39,64.006 179.216,66.971" id="Fill-7" fill="#0B0B09" mask="url(#mask-4)"></path>
            </g>
            <path d="M122.352,44.608 C126.727,48.571 129.286,53.357 129.286,58.513 C129.286,82.589 111.338,83.241 89.201,83.241 C67.062,83.241 49.115,79.907 49.115,58.513 C49.115,53.391 51.639,48.635 55.96,44.688 C63.166,38.11 75.364,41.593 89.201,41.593 C102.983,41.593 115.135,38.075 122.352,44.608" id="Fill-9" fill="#F1C9AC"></path>
            <path d="M75.871,59.741 C75.871,66.372 72.137,71.747 67.531,71.747 C62.925,71.747 59.189,66.372 59.189,59.741 C59.189,53.11 62.925,47.737 67.531,47.737 C72.137,47.737 75.871,53.11 75.871,59.741" id="Fill-10" fill="#FFFFFE"></path>
            <path d="M73.195,59.891 C73.195,64.311 70.704,67.893 67.635,67.893 C64.562,67.893 62.074,64.311 62.074,59.891 C62.074,55.469 64.562,51.885 67.635,51.885 C70.704,51.885 73.195,55.469 73.195,59.891" id="Fill-11" fill="#A0574D"></path>
            <path d="M120.618,59.741 C120.618,66.372 116.883,71.747 112.276,71.747 C107.67,71.747 103.936,66.372 103.936,59.741 C103.936,53.11 107.67,47.737 112.276,47.737 C116.883,47.737 120.618,53.11 120.618,59.741" id="Fill-12" fill="#FFFFFE"></path>
            <path d="M117.94,59.891 C117.94,64.311 115.45,67.893 112.379,67.893 C109.309,67.893 106.819,64.311 106.819,59.891 C106.819,55.469 109.309,51.885 112.379,51.885 C115.45,51.885 117.94,55.469 117.94,59.891" id="Fill-13" fill="#A0574D"></path>
            <path d="M91.405,70.403 C91.405,71.555 90.471,72.489 89.318,72.489 C88.166,72.489 87.232,71.555 87.232,70.403 C87.232,69.251 88.166,68.317 89.318,68.317 C90.471,68.317 91.405,69.251 91.405,70.403" id="Fill-14" fill="#A0574D"></path>
            <path d="M84.459,75.676 C84.336,75.327 84.52,74.944 84.868,74.821 C85.217,74.698 85.601,74.881 85.724,75.229 C86.26,76.745 87.697,77.762 89.301,77.762 C90.905,77.762 92.342,76.745 92.879,75.229 C93.002,74.88 93.385,74.698 93.735,74.821 C94.084,74.944 94.266,75.327 94.143,75.676 C93.418,77.725 91.471,79.102 89.301,79.102 C87.131,79.102 85.186,77.725 84.459,75.676" id="Fill-15" fill="#A0574D"></path>
            <path d="M38.215,85.214 C38.215,85.77 37.562,86.219 36.76,86.219 C35.957,86.219 35.306,85.77 35.306,85.214 C35.306,84.657 35.957,84.206 36.76,84.206 C37.562,84.206 38.215,84.657 38.215,85.214" id="Fill-16" fill="#C3E1D0"></path>
            <path d="M42.242,87.45 C42.242,88.006 41.59,88.458 40.787,88.458 C39.984,88.458 39.333,88.006 39.333,87.45 C39.333,86.895 39.984,86.444 40.787,86.444 C41.59,86.444 42.242,86.895 42.242,87.45" id="Fill-17" fill="#C3E1D0"></path>
            <path d="M44.703,90.36 C44.703,90.915 44.052,91.366 43.248,91.366 C42.445,91.366 41.795,90.915 41.795,90.36 C41.795,89.803 42.445,89.352 43.248,89.352 C44.052,89.352 44.703,89.803 44.703,90.36" id="Fill-18" fill="#C3E1D0"></path>
            <path d="M46.939,93.715 C46.939,94.272 46.289,94.723 45.486,94.723 C44.683,94.723 44.031,94.272 44.031,93.715 C44.031,93.159 44.683,92.708 45.486,92.708 C46.289,92.708 46.939,93.159 46.939,93.715" id="Fill-19" fill="#C3E1D0"></path>
            <path d="M49.401,96.848 C49.401,97.403 48.75,97.854 47.947,97.854 C47.144,97.854 46.492,97.403 46.492,96.848 C46.492,96.292 47.144,95.84 47.947,95.84 C48.75,95.84 49.401,96.292 49.401,96.848" id="Fill-20" fill="#C3E1D0"></path>
            <path d="M52.758,99.532 C52.758,100.088 52.106,100.54 51.303,100.54 C50.5,100.54 49.85,100.088 49.85,99.532 C49.85,98.977 50.5,98.526 51.303,98.526 C52.106,98.526 52.758,98.977 52.758,99.532" id="Fill-21" fill="#C3E1D0"></path>
            <path d="M57.456,101.323 C57.456,101.878 56.805,102.329 56.002,102.329 C55.198,102.329 54.547,101.878 54.547,101.323 C54.547,100.766 55.198,100.315 56.002,100.315 C56.805,100.315 57.456,100.766 57.456,101.323" id="Fill-22" fill="#C3E1D0"></path>
            <path d="M62.132,101.323 C62.132,101.878 61.48,102.329 60.678,102.329 C59.874,102.329 59.223,101.878 59.223,101.323 C59.223,100.766 59.874,100.315 60.678,100.315 C61.48,100.315 62.132,100.766 62.132,101.323" id="Fill-23" fill="#C3E1D0"></path>
            <path d="M66.878,100.544 C66.878,101.1 66.227,101.551 65.424,101.551 C64.62,101.551 63.969,101.1 63.969,100.544 C63.969,99.987 64.62,99.536 65.424,99.536 C66.227,99.536 66.878,99.987 66.878,100.544" id="Fill-24" fill="#C3E1D0"></path>
        </g>
    </g>
</svg>
