<?xml version="1.0" encoding="UTF-8"?>
<svg width="228px" height="310px" viewBox="0 0 228 310" version="1.1" xmlns="http://www.w3.org/2000/svg" xmlns:xlink="http://www.w3.org/1999/xlink">
    <title>Group</title>
    <g id="Page-1" stroke="none" stroke-width="1" fill="none" fill-rule="evenodd">
        <g id="Group" transform="translate(0.115005, 0.000000)" fill="#FFFFFF" fill-rule="nonzero">
            <path d="M107.493995,165.922 C107.493995,165.922 90.2679948,132.764 90.9149948,108.476 C91.3789948,91.184 130.422995,74.025 145.774995,49.156 C161.125995,24.221 143.900995,1.42108547e-14 143.900995,1.42108547e-14 C143.900995,1.42108547e-14 147.713995,17.872 137.484995,36.39 C127.321995,54.843 89.6219948,65.735 74.9319948,97.65 C60.2929948,129.581 107.493995,165.922 107.493995,165.922 Z" id="Path"></path>
            <path d="M172.001995,65.088 C172.001995,65.088 113.262995,87.42 113.262995,112.935 C113.262995,138.517 129.194995,146.806 131.781995,155.095 C134.317995,163.385 127.321995,177.444 127.321995,177.444 C127.321995,177.444 150.299995,161.445 146.420995,142.993 C142.607995,124.474 124.718995,118.704 134.963995,100.186 C141.827995,87.818 172.001995,65.088 172.001995,65.088 Z" id="Path"></path>
            <path d="M101.159995,199.66 C155.422995,197.721 175.167995,180.611 175.167995,180.611 C140.070995,190.194 46.8799948,189.547 46.2339948,182.551 C45.5869948,175.505 74.9319948,169.735 74.9319948,169.735 C74.9319948,169.735 29.0079948,169.735 25.1949948,181.257 C21.3659948,192.73 46.8799948,201.6 101.159995,199.66 Z" id="Path"></path>
            <path d="M179.644995,226.601 C179.644995,226.601 232.747995,215.261 227.507995,186.381 C221.157995,151.283 184.104995,171.095 184.104995,171.095 C184.104995,171.095 210.282995,171.095 212.802995,187.027 C215.388995,202.959 179.644995,226.601 179.644995,226.601 Z" id="Path"></path>
            <path d="M153.482995,211.249 C153.482995,211.249 140.070995,214.813 120.258995,217.018 C93.6999948,219.986 61.5199948,217.665 58.9999948,213.189 C56.4629948,208.729 63.4589948,206.126 63.4589948,206.126 C31.5279948,213.835 49.0189948,227.182 86.3879948,229.768 C118.500995,231.973 166.231995,220.185 166.231995,220.185 L153.482995,211.249 Z" id="Path"></path>
            <path d="M71.1689948,239.168 C71.1689948,239.168 56.6629948,239.549 55.8169948,247.193 C54.9709948,254.835 64.7529948,261.699 100.496995,263.771 C136.257995,265.91 161.308995,254.056 161.308995,254.056 L145.193995,244.208 C145.193995,244.208 134.963995,246.347 119.213995,248.485 C103.479995,250.624 71.1679948,246.794 69.8749948,243.826 C68.5829948,240.842 71.1689948,239.168 71.1689948,239.168 Z" id="Path"></path>
            <path d="M94.5449948,293.63 C171.089995,293.564 204.778995,279.571 210.282995,273.619 C215.786995,267.651 208.524995,262.992 208.524995,262.992 C208.524995,262.992 211.110995,265.977 207.745995,269.342 C204.313995,272.774 173.227995,281.263 123.424995,283.782 C73.6879948,286.368 19.6239948,279.123 17.9319948,272.774 C16.2419948,266.358 45.5859948,261.252 45.5859948,261.252 C42.2199948,261.699 1.35299483,262.544 0.0599948307,273.619 C-1.23100517,284.694 17.9329948,293.63 94.5449948,293.63 Z" id="Path"></path>
            <path d="M180.490995,298.736 C146.868995,305.483 44.7429948,301.206 44.7429948,301.206 C44.7429948,301.206 111.124995,317.006 186.890995,303.792 C223.098995,297.442 225.171995,279.952 225.171995,279.952 C225.171995,279.952 214.095995,291.873 180.490995,298.736 Z" id="Path"></path>
        </g>
    </g>
</svg>