<?xml version="1.0" encoding="UTF-8"?>
<svg width="275px" height="372px" viewBox="0 0 275 372" version="1.1" xmlns="http://www.w3.org/2000/svg" xmlns:xlink="http://www.w3.org/1999/xlink">
    <!-- Generator: Sketch 43.2 (39069) - http://www.bohemiancoding.com/sketch -->
    <title>Group</title>
    <desc>Created with Sketch.</desc>
    <defs></defs>
    <g id="Page-1" stroke="none" stroke-width="1" fill="none" fill-rule="evenodd">
        <g id="Group" fill-rule="nonzero">
            <path d="M88.681,287.324 C88.681,287.324 74.503,295.569 98.771,298.359 C128.171,301.713 143.197,301.232 175.596,295.1 C175.596,295.1 184.114,300.441 196.01,305.067 C123.38,336.195 31.634,303.264 88.681,287.324" id="Shape" fill="#5382A1"></path>
            <path d="M79.806,246.704 C79.806,246.704 63.904,258.475 88.19,260.987 C119.596,264.227 144.398,264.492 187.315,256.228 C187.315,256.228 193.251,262.246 202.585,265.537 C114.771,291.215 16.962,267.562 79.806,246.704" id="Shape" fill="#5382A1"></path>
            <path d="M154.625,177.799 C172.521,198.403 149.923,216.944 149.923,216.944 C149.923,216.944 195.364,193.486 174.495,164.111 C155.004,136.717 140.057,123.106 220.974,76.177 C220.974,76.177 93.961,107.899 154.625,177.799" id="Shape" fill="#F8981D"></path>
            <path d="M250.684,317.369 C250.684,317.369 261.176,326.014 239.129,332.702 C197.206,345.402 64.641,349.237 27.815,333.208 C14.577,327.449 39.402,319.457 47.211,317.78 C55.355,316.014 60.009,316.343 60.009,316.343 C45.287,305.972 -35.148,336.707 19.152,345.509 C167.236,369.524 289.095,334.695 250.684,317.369" id="Shape" fill="#5382A1"></path>
            <path d="M95.499,204.617 C95.499,204.617 28.068,220.633 71.62,226.449 C90.009,228.911 126.667,228.354 160.813,225.493 C188.719,223.139 216.74,218.134 216.74,218.134 C216.74,218.134 206.9,222.348 199.781,227.209 C131.306,245.218 -0.975,236.84 37.107,218.419 C69.313,202.851 95.499,204.617 95.499,204.617" id="Shape" fill="#5382A1"></path>
            <path d="M216.462,272.231 C286.07,236.06 253.886,201.3 231.422,205.983 C225.916,207.129 223.461,208.122 223.461,208.122 C223.461,208.122 225.505,204.92 229.409,203.534 C273.85,187.91 308.028,249.615 215.063,274.054 C215.063,274.055 216.14,273.092 216.462,272.231" id="Shape" fill="#5382A1"></path>
            <path d="M174.495,0.399 C174.495,0.399 213.045,38.962 137.932,98.261 C77.699,145.829 124.197,172.951 137.907,203.939 C102.748,172.217 76.946,144.292 94.256,118.302 C119.663,80.151 190.049,61.654 174.495,0.399" id="Shape" fill="#F8981D"></path>
            <path d="M102.339,370.246 C169.154,374.523 271.756,367.873 274.186,336.258 C274.186,336.258 269.515,348.243 218.967,357.761 C161.939,368.493 91.603,367.24 49.886,360.362 C49.887,360.361 58.426,367.43 102.339,370.246" id="Shape" fill="#5382A1"></path>
        </g>
    </g>
</svg>