<?xml version="1.0" encoding="UTF-8"?>
<svg width="36px" height="64px" viewBox="0 0 36 64" version="1.1" xmlns="http://www.w3.org/2000/svg" xmlns:xlink="http://www.w3.org/1999/xlink">
    <title>jekyll-small</title>
    <defs>
        <linearGradient x1="41.9946049%" y1="46.043565%" x2="55.7745575%" y2="55.5980413%" id="linearGradient-1">
            <stop stop-color="#919191" offset="0%"></stop>
            <stop stop-color="#FFFFFF" offset="100%"></stop>
        </linearGradient>
    </defs>
    <g id="Page-1" stroke="none" stroke-width="1" fill="none" fill-rule="evenodd">
        <g id="jekyll-small" transform="translate(0.070735, 0.021266)" fill-rule="nonzero">
            <path d="M19.8625868,1.26758714 C19.8339726,1.38219949 19.8333506,1.5055205 19.8574549,1.63537302 C19.8574549,1.63537302 20.2473235,4.22340373 19.8045809,5.3751256 L0.98840641,54.3049547 C-0.354595222,57.8972819 1.44514515,61.9110467 5.03389558,63.2915267 C8.622646,64.6720067 12.6469855,62.8990144 14.0582569,59.3315691 L14.0598121,59.3323467 L32.8775416,10.4029841 C33.245483,9.44580771 35.3439619,7.59132711 35.3439619,7.59132711 C35.4492436,7.51108292 35.5308874,7.41901981 35.5865607,7.31482677 L35.5958914,7.29585431 C35.6059997,7.27532673 35.6176631,7.25573221 35.6259052,7.23442707 C36.1111026,5.97275821 32.9814236,3.59466871 28.6353298,1.92338125 C24.2892359,0.252093782 20.3725107,-0.080235362 19.8873132,1.18158901 C19.8790711,1.20289415 19.8744057,1.22513237 19.8683408,1.24721507 L19.8625868,1.26743163 L19.8625868,1.26758714 Z" id="Path" fill="#000000" opacity="0.3"></path>
            <path d="M19.3187614,0.851903566 C19.2899916,0.96651591 19.287659,1.08983693 19.3136295,1.21968945 C19.3136295,1.21968945 19.7036536,3.80772015 19.2607554,4.95944202 L0.444580946,53.8891157 C-0.898265174,57.4814429 0.90131969,61.4952076 4.49007011,62.8756876 C8.07882054,64.2561676 12.1031601,62.4831753 13.5144315,58.91573 L13.5144315,58.9165076 L32.3338717,9.98714498 C32.7016575,9.02996862 34.800292,7.17548802 34.800292,7.17548802 C34.9055736,7.09524383 34.9872174,7.00333624 35.0428907,6.89898769 L35.0519104,6.88001522 C35.0620187,6.85979866 35.0736821,6.83989313 35.0819242,6.81858798 C35.5671217,5.55691913 32.4374427,3.17898513 28.0916598,1.50754216 C23.745877,-0.163900818 19.8288407,-0.49607445 19.3436433,0.765749918 C19.3354011,0.787055062 19.3307358,0.809293278 19.3246708,0.831375982 L19.3189169,0.851903566 L19.3187614,0.851903566 Z" id="Path" fill="url(#linearGradient-1)"></path>
            <path d="M25.2216859,22.9868596 L11.6601064,58.2751761 C10.6592312,60.8041122 7.74649139,62.1198993 5.16281503,61.1261776 C2.57913866,60.1324559 1.18046373,57.1587555 2.13219717,54.6106913 L10.8032353,32.0642505 C10.8032353,32.0642505 11.8862208,30.3173843 14.0125364,29.0745323 C16.138852,27.8316804 17.8925608,28.0940292 20.253544,27.0446342 C22.6145272,25.9952392 25.2216859,22.9868596 25.2216859,22.9868596 L25.2216859,22.9868596 Z" id="Path" fill="#FFFFFF"></path>
            <ellipse id="Oval" fill="#333333" transform="translate(27.165918, 3.921453) rotate(21.037511) translate(-27.165918, -3.921453) " cx="27.1659185" cy="3.92145282" rx="5.23297273" ry="1.37636141"></ellipse>
            <g id="Group" transform="translate(-0.000000, 1.219378)" fill="#FFFFFF">
                <path d="M19.3136295,8.8817842e-16 C19.3136295,8.8817842e-16 19.6977441,2.60280434 19.2607554,3.73975258 L0.444580946,52.6697372 C-0.898265174,56.2620644 0.90131969,60.2758292 4.49007011,61.6563092 C5.11289567,61.8957977 5.74847322,62.0380911 6.38171808,62.095164 C3.96257341,60.2753626 2.92468632,57.0204965 4.03457547,54.0505283 L4.03302035,54.0499062 L22.4772101,6.09140504 C22.4772101,6.09140504 19.9667799,3.73384312 19.3136295,8.8817842e-16 Z" id="Path" opacity="0.3"></path>
                <circle id="Oval" opacity="0.5" cx="13.2550375" cy="31.5636486" r="1"></circle>
                <circle id="Oval" opacity="0.5" cx="16.8291698" cy="35.5169191" r="1"></circle>
                <circle id="Oval" opacity="0.5" cx="11.3730312" cy="40.2183579" r="1.54190148"></circle>
                <circle id="Oval" opacity="0.5" cx="8.87644159" cy="43.069826" r="1"></circle>
                <circle id="Oval" opacity="0.5" cx="12.1507467" cy="49.167918" r="1"></circle>
            </g>
        </g>
    </g>
</svg>