<?xml version="1.0" encoding="UTF-8"?>
<svg width="84px" height="81px" viewBox="0 0 84 81" version="1.1" xmlns="http://www.w3.org/2000/svg" xmlns:xlink="http://www.w3.org/1999/xlink">
    <title>Group</title>
    <defs>
        <linearGradient x1="16.6340675%" y1="61.2170096%" x2="159.526257%" y2="25.0810033%" id="linearGradient-1">
            <stop stop-color="#F69923" offset="0%"></stop>
            <stop stop-color="#F79A23" offset="31.23%"></stop>
            <stop stop-color="#E97826" offset="83.829999%"></stop>
        </linearGradient>
        <linearGradient x1="-48.8377144%" y1="394.970831%" x2="59.2328122%" y2="13.7454494%" id="linearGradient-2">
            <stop stop-color="#9E2064" offset="32.33%"></stop>
            <stop stop-color="#C92037" offset="63.020003%"></stop>
            <stop stop-color="#CD2335" offset="75.139999%"></stop>
            <stop stop-color="#E97826" offset="100%"></stop>
        </linearGradient>
        <linearGradient x1="-20.6186724%" y1="179.177805%" x2="125.360894%" y2="-119.091455%" id="linearGradient-3">
            <stop stop-color="#282662" offset="0%"></stop>
            <stop stop-color="#662E8D" offset="9.54839%"></stop>
            <stop stop-color="#9F2064" offset="78.820002%"></stop>
            <stop stop-color="#CD2032" offset="94.870001%"></stop>
        </linearGradient>
        <linearGradient x1="24.5920393%" y1="170.497289%" x2="68.8835167%" y2="-44.4029666%" id="linearGradient-4">
            <stop stop-color="#9E2064" offset="32.33%"></stop>
            <stop stop-color="#C92037" offset="63.020003%"></stop>
            <stop stop-color="#CD2335" offset="75.139999%"></stop>
            <stop stop-color="#E97826" offset="100%"></stop>
        </linearGradient>
        <linearGradient x1="43.7656599%" y1="77.304969%" x2="60.4890674%" y2="-41.4214613%" id="linearGradient-5">
            <stop stop-color="#282662" offset="0%"></stop>
            <stop stop-color="#662E8D" offset="9.54839%"></stop>
            <stop stop-color="#9F2064" offset="78.820002%"></stop>
            <stop stop-color="#CD2032" offset="94.870001%"></stop>
        </linearGradient>
        <linearGradient x1="0.498822319%" y1="187.679939%" x2="85.5684521%" y2="-51.0282024%" id="linearGradient-6">
            <stop stop-color="#9E2064" offset="32.33%"></stop>
            <stop stop-color="#C92037" offset="63.020003%"></stop>
            <stop stop-color="#CD2335" offset="75.139999%"></stop>
            <stop stop-color="#E97826" offset="100%"></stop>
        </linearGradient>
        <linearGradient x1="-129.864381%" y1="416.501503%" x2="66.5775346%" y2="20.9792471%" id="linearGradient-7">
            <stop stop-color="#9E2064" offset="32.33%"></stop>
            <stop stop-color="#C92037" offset="63.020003%"></stop>
            <stop stop-color="#CD2335" offset="75.139999%"></stop>
            <stop stop-color="#E97826" offset="100%"></stop>
        </linearGradient>
        <linearGradient x1="-4514.6935%" y1="3209.4855%" x2="2842.37853%" y2="-1880.13969%" id="linearGradient-8">
            <stop stop-color="#9E2064" offset="32.33%"></stop>
            <stop stop-color="#C92037" offset="63.020003%"></stop>
            <stop stop-color="#CD2335" offset="75.139999%"></stop>
            <stop stop-color="#E97826" offset="100%"></stop>
        </linearGradient>
        <linearGradient x1="-15277.8157%" y1="32952.3295%" x2="7529.10757%" y2="-15958.9686%" id="linearGradient-9">
            <stop stop-color="#9E2064" offset="32.33%"></stop>
            <stop stop-color="#C92037" offset="63.020003%"></stop>
            <stop stop-color="#CD2335" offset="75.139999%"></stop>
            <stop stop-color="#E97826" offset="100%"></stop>
        </linearGradient>
        <linearGradient x1="16.6340675%" y1="61.2170096%" x2="159.526257%" y2="25.0810033%" id="linearGradient-10">
            <stop stop-color="#F69923" offset="0%"></stop>
            <stop stop-color="#F79A23" offset="31.23%"></stop>
            <stop stop-color="#E97826" offset="83.829999%"></stop>
        </linearGradient>
        <linearGradient x1="-48.8377144%" y1="394.970831%" x2="59.2328122%" y2="13.7454494%" id="linearGradient-11">
            <stop stop-color="#9E2064" offset="32.33%"></stop>
            <stop stop-color="#C92037" offset="63.020003%"></stop>
            <stop stop-color="#CD2335" offset="75.139999%"></stop>
            <stop stop-color="#E97826" offset="100%"></stop>
        </linearGradient>
        <linearGradient x1="-20.6186724%" y1="179.177805%" x2="125.360894%" y2="-119.091455%" id="linearGradient-12">
            <stop stop-color="#282662" offset="0%"></stop>
            <stop stop-color="#662E8D" offset="9.54839%"></stop>
            <stop stop-color="#9F2064" offset="78.820002%"></stop>
            <stop stop-color="#CD2032" offset="94.870001%"></stop>
        </linearGradient>
        <linearGradient x1="24.5920393%" y1="170.497289%" x2="68.8835167%" y2="-44.4029666%" id="linearGradient-13">
            <stop stop-color="#9E2064" offset="32.33%"></stop>
            <stop stop-color="#C92037" offset="63.020003%"></stop>
            <stop stop-color="#CD2335" offset="75.139999%"></stop>
            <stop stop-color="#E97826" offset="100%"></stop>
        </linearGradient>
        <linearGradient x1="43.7656599%" y1="77.304969%" x2="60.4890674%" y2="-41.4214613%" id="linearGradient-14">
            <stop stop-color="#282662" offset="0%"></stop>
            <stop stop-color="#662E8D" offset="9.54839%"></stop>
            <stop stop-color="#9F2064" offset="78.820002%"></stop>
            <stop stop-color="#CD2032" offset="94.870001%"></stop>
        </linearGradient>
        <linearGradient x1="0.498822319%" y1="187.679939%" x2="85.5684521%" y2="-51.0282024%" id="linearGradient-15">
            <stop stop-color="#9E2064" offset="32.33%"></stop>
            <stop stop-color="#C92037" offset="63.020003%"></stop>
            <stop stop-color="#CD2335" offset="75.139999%"></stop>
            <stop stop-color="#E97826" offset="100%"></stop>
        </linearGradient>
        <linearGradient x1="-129.864381%" y1="416.501503%" x2="66.5775346%" y2="20.9792471%" id="linearGradient-16">
            <stop stop-color="#9E2064" offset="32.33%"></stop>
            <stop stop-color="#C92037" offset="63.020003%"></stop>
            <stop stop-color="#CD2335" offset="75.139999%"></stop>
            <stop stop-color="#E97826" offset="100%"></stop>
        </linearGradient>
        <linearGradient x1="-4514.6935%" y1="3209.4855%" x2="2842.37853%" y2="-1880.13969%" id="linearGradient-17">
            <stop stop-color="#9E2064" offset="32.33%"></stop>
            <stop stop-color="#C92037" offset="63.020003%"></stop>
            <stop stop-color="#CD2335" offset="75.139999%"></stop>
            <stop stop-color="#E97826" offset="100%"></stop>
        </linearGradient>
    </defs>
    <g id="Page-1" stroke="none" stroke-width="1" fill="none" fill-rule="evenodd">
        <g id="Group" transform="translate(0.737330, 0.508857)">
            <g id="g7248" transform="translate(35.643640, 38.347728) rotate(-36.276674) translate(-35.643640, -38.347728) translate(15.481288, 5.577976)">
                <path d="M31.6786132,2.32460059 C30.6823558,2.91761095 29.0219268,4.57803994 27.0531324,6.98566198 L28.8677441,10.4132618 C30.1367862,8.58678994 31.441409,6.95008136 32.7460318,5.55057692 C32.8409134,5.44383506 32.9002145,5.38453402 32.9002145,5.38453402 C32.8527737,5.44383506 32.7934726,5.49127589 32.7460318,5.55057692 C32.3190643,6.013125 31.038162,7.50751109 29.1049482,10.4844231 C30.9670007,10.3895414 33.8253106,10.0100148 36.1617714,9.60676775 C36.8615237,5.71661982 35.4857396,3.93758876 35.4857396,3.93758876 C35.4857396,3.93758876 33.730429,1.10299926 31.6786132,2.32460059 Z" id="path7258" fill="url(#linearGradient-1)" fill-rule="nonzero"></path>
                <path d="M28.5949593,21.8702219 C28.6068195,21.8702219 28.6186797,21.8702219 28.6305399,21.8583617 L28.3696154,21.8820821 C28.3577552,21.8939423 28.3340348,21.8939423 28.3221745,21.9058025 C28.4170562,21.8939423 28.5119379,21.8820821 28.5949593,21.8702219 L28.5949593,21.8702219 Z" id="path7260"></path>
                <path d="M26.744767,28.001949 C26.6024445,28.0375296 26.4482618,28.06125 26.2940791,28.0849704 C26.4482618,28.06125 26.6024445,28.0375296 26.744767,28.001949 Z" id="path7262"></path>
                <path d="M14.1492271,41.7716494 C14.1729475,41.7242086 14.1848077,41.6649075 14.2085281,41.6174667 C14.6117751,40.5619083 15.003162,39.5419305 15.3945488,38.5338129 C15.8333765,37.4189534 16.2722041,36.3278143 16.6991716,35.2722559 C17.1498595,34.1692566 17.6005473,33.0899778 18.039375,32.0581398 C18.5019231,30.9670007 18.9526109,29.9233025 19.4032988,28.9151849 C19.7709652,28.0968306 20.1267714,27.3021967 20.4825777,26.5312833 C20.6011797,26.2703587 20.7197818,26.0212944 20.8383839,25.77223 C21.075588,25.2741013 21.3009319,24.7878328 21.5262759,24.3134245 C21.7397596,23.8745969 21.9413831,23.4476294 22.1430066,23.020662 C22.2141679,22.8783395 22.2853291,22.736017 22.3446302,22.6055547 C22.3564904,22.5818343 22.3683506,22.5581139 22.3802108,22.5343935 L22.1548669,22.5581139 L21.9769637,22.2141679 C21.9651035,22.2497485 21.9413831,22.2853291 21.9295229,22.3209098 C21.6092973,22.9495007 21.2890717,23.5899519 20.9807064,24.2422633 C20.8028032,24.6099297 20.6249001,24.9894564 20.4351368,25.368983 C19.9370081,26.4126812 19.4507396,27.4563794 18.9763314,28.5237981 C18.4900629,29.5912167 18.0156546,30.6704955 17.5531065,31.7379142 C17.0905584,32.7934726 16.6517308,33.8490311 16.2129031,34.9045895 C15.7740754,35.9601479 15.347108,37.0038461 14.9320007,38.0475444 C14.4931731,39.1386834 14.0662056,40.2179623 13.6629586,41.2853809 C13.5680769,41.522585 13.4731953,41.7716494 13.3901738,42.0088535 C13.058088,42.8746487 12.7378624,43.7167234 12.429497,44.5587981 L12.714142,45.1162278 L12.9632064,45.0925074 C12.9750666,45.068787 12.9869268,45.0450665 12.9869268,45.0213461 C13.3545932,43.8946265 13.7578402,42.8153476 14.1492271,41.7716494 L14.1492271,41.7716494 Z" id="path7264"></path>
                <g id="path7266"></g>
                <path d="M25.5706065,31.097463 C25.3334024,31.1449038 25.0961982,31.1804845 24.8589941,31.2160651 C24.8589941,31.2160651 24.8589941,31.2160651 24.8589941,31.2160651 C24.9775961,31.2042049 25.1080584,31.1804845 25.2266605,31.156764 C25.3452626,31.1449038 25.4638646,31.1211834 25.5706065,31.097463 Z" id="path7268" fill="#BE202E" fill-rule="nonzero"></path>
                <path d="M25.5706065,31.097463 C25.3334024,31.1449038 25.0961982,31.1804845 24.8589941,31.2160651 C24.8589941,31.2160651 24.8589941,31.2160651 24.8589941,31.2160651 C24.9775961,31.2042049 25.1080584,31.1804845 25.2266605,31.156764 C25.3452626,31.1449038 25.4638646,31.1211834 25.5706065,31.097463 Z" id="path7270" fill="#BE202E" fill-rule="nonzero" opacity="0.35"></path>
                <path d="M26.1873373,28.0968306 C26.1873373,28.0968306 26.1873373,28.0968306 26.1873373,28.0968306 C26.1754771,28.0968306 26.1754771,28.0968306 26.1873373,28.0968306 C26.2229179,28.0968306 26.2584985,28.0849704 26.2940791,28.0849704 C26.4482618,28.06125 26.6024445,28.0375296 26.744767,28.001949 C26.5668639,28.0375296 26.3771006,28.06125 26.1873373,28.0968306 L26.1873373,28.0968306 L26.1873373,28.0968306 L26.1873373,28.0968306 Z" id="path7272" fill="#BE202E" fill-rule="nonzero"></path>
                <path d="M26.1873373,28.0968306 C26.1873373,28.0968306 26.1873373,28.0968306 26.1873373,28.0968306 C26.1754771,28.0968306 26.1754771,28.0968306 26.1873373,28.0968306 C26.2229179,28.0968306 26.2584985,28.0849704 26.2940791,28.0849704 C26.4482618,28.06125 26.6024445,28.0375296 26.744767,28.001949 C26.5668639,28.0375296 26.3771006,28.06125 26.1873373,28.0968306 L26.1873373,28.0968306 L26.1873373,28.0968306 L26.1873373,28.0968306 Z" id="path7274" fill="#BE202E" fill-rule="nonzero" opacity="0.35"></path>
                <path d="M23.5069305,19.2609763 C24.0643602,18.2291383 24.6217899,17.2210207 25.1792197,16.2366235 C25.7603698,15.2166457 26.3533802,14.2322485 26.9582507,13.2715717 C26.9938313,13.2122707 27.029412,13.1529697 27.0649926,13.1055288 C27.6580029,12.1685725 28.2510133,11.2671967 28.8558839,10.4014016 L27.0412722,6.98566198 C26.9108099,7.15170488 26.7684874,7.31774778 26.6261649,7.49565088 C26.1043158,8.14796227 25.5587463,8.84771449 25.0013166,9.59490754 C24.3727256,10.4369822 23.7322744,11.3264978 23.0681028,12.2634541 C22.4632322,13.1292493 21.8465015,14.0424852 21.2297707,14.9794416 C20.7079216,15.7859356 20.1860725,16.6042899 19.6642234,17.4463646 C19.640503,17.4819453 19.6286427,17.5056657 19.6049223,17.5412463 L21.9651035,22.2023077 C22.4869527,21.2179105 22.9969416,20.2335133 23.5069305,19.2609763 L23.5069305,19.2609763 Z" id="path7286" fill="url(#linearGradient-2)" fill-rule="nonzero"></path>
                <path d="M12.7497226,45.5550555 C12.4413572,46.4089904 12.1211317,47.2866457 11.8127663,48.1880214 C11.8127663,48.1998816 11.8009061,48.2117418 11.8009061,48.2236021 C11.7534652,48.3540643 11.7060244,48.4726664 11.6704438,48.6031287 C11.4569601,49.2079992 11.2790569,49.7535688 10.8520895,50.9870303 C11.5518417,51.3072559 12.1092714,52.1374704 12.6311206,53.086287 C12.5718195,52.1018898 12.1685725,51.1767936 11.397659,50.4651812 C14.8252589,50.6193639 17.7903106,49.7535688 19.3084172,47.2392049 C19.4388794,47.0138609 19.5693417,46.7766568 19.6879438,46.5275924 C18.9881916,47.4052478 18.1342566,47.7847744 16.5094083,47.6898927 C16.5094083,47.6898927 16.4975481,47.6898927 16.4975481,47.6898927 C16.4975481,47.6898927 16.5094083,47.6898927 16.5094083,47.6898927 C18.8933099,46.6224741 20.0911908,45.5906361 21.1467493,43.8946265 C21.3958136,43.4913794 21.6448779,43.0525518 21.8939423,42.5662833 C19.8065458,44.7129808 17.3870636,45.3178513 14.8371191,44.8553032 L12.9276257,45.068787 C12.8683247,45.2348299 12.8090237,45.3890126 12.7497226,45.5550555 Z" id="path7298" fill="url(#linearGradient-3)" fill-rule="nonzero"></path>
                <path d="M13.6392382,41.2735207 C14.0543454,40.2061021 14.4813129,39.1268232 14.9082803,38.0356842 C15.3233876,36.9919859 15.750355,35.9482877 16.1891827,34.8927293 C16.6280103,33.8371708 17.0786982,32.7816124 17.5293861,31.726054 C17.9919342,30.6467751 18.4663424,29.5793565 18.9526109,28.5119379 C19.4270192,27.4563794 19.9251479,26.400821 20.4114164,25.3571228 C20.5893195,24.9775961 20.7672226,24.6099297 20.9569859,24.2304031 C21.2653513,23.5899519 21.5855769,22.9495007 21.9058025,22.3090495 C21.9176627,22.2734689 21.9413831,22.2378883 21.9532433,22.2023077 L19.6167825,17.5531065 C19.5812019,17.6124075 19.5456213,17.6835688 19.4981805,17.7428698 C18.9526109,18.6442456 18.3951812,19.5574815 17.8614719,20.4944379 C17.3159024,21.4432544 16.782193,22.4039312 16.2603439,23.3883284 C15.8215163,24.2185429 15.3945488,25.0487574 14.9675814,25.8908321 C14.8845599,26.056875 14.8015385,26.2347781 14.718517,26.400821 C14.2085281,27.4563794 13.7341198,28.4882174 13.3190126,29.4726146 C12.8446043,30.5874741 12.429497,31.6548927 12.0618306,32.6630103 C11.8246265,33.3271819 11.5992825,33.9676331 11.397659,34.5843639 C11.2316161,35.106213 11.0774334,35.6399223 10.9232507,36.1617714 C10.5674445,37.395233 10.2709393,38.6286945 10.021875,39.862156 L12.3939164,44.5469379 C12.7022818,43.7048631 13.0343676,42.8627884 13.3545932,41.9969933 C13.4494748,41.7597892 13.5443565,41.522585 13.6392382,41.2735207 L13.6392382,41.2735207 Z" id="path7310" fill="url(#linearGradient-4)" fill-rule="nonzero"></path>
                <path d="M9.98629437,40.0281989 C9.6897892,41.522585 9.47630547,43.0169711 9.36956361,44.5113572 C9.36956361,44.5587981 9.3577034,44.6180991 9.3577034,44.6655399 C8.62237056,43.4795192 6.62985577,42.3172189 6.64171597,42.3290791 C8.06494083,44.3927552 9.14421967,46.4327108 9.29840236,48.4370858 C8.53934911,48.5912685 7.49565088,48.3659245 6.29776997,47.9270969 C7.55495192,49.077537 8.49190828,49.3977626 8.8595747,49.480784 C7.70913461,49.5519452 6.5112537,50.3465791 5.30151257,51.2598151 C7.06868343,50.5363424 8.50376849,50.2516975 9.5237463,50.4889016 C7.89889793,55.0788018 6.27404955,60.1549704 4.64920118,65.5395044 C5.14732988,65.3971819 5.44383506,65.0532359 5.60987796,64.6025481 C5.89452293,63.6300111 7.82773668,57.2254992 10.8402293,48.8166124 C10.9232507,48.5794083 11.0181324,48.3422041 11.1011538,48.0931398 C11.1248743,48.0219785 11.1485947,47.9626775 11.1723151,47.8915163 C11.4925407,47.0138609 11.8246265,46.1124852 12.1685725,45.187389 C12.2515939,44.9739053 12.3227552,44.7722818 12.4057766,44.5587981 C12.4057766,44.5587981 12.4057766,44.5469379 12.4057766,44.5469379 L10.0337352,39.862156 C10.0100148,39.9214571 9.99815458,39.9688979 9.98629437,40.0281989 L9.98629437,40.0281989 Z" id="path7322" fill="url(#linearGradient-5)" fill-rule="nonzero"></path>
                <path d="M22.3446302,22.6055547 C22.2734689,22.7478772 22.2141679,22.8783395 22.1430066,23.020662 C21.9413831,23.4476294 21.7278994,23.8745969 21.5262759,24.3134245 C21.3009319,24.7878328 21.075588,25.2741013 20.8383839,25.77223 C20.7197818,26.0212944 20.6011797,26.2703587 20.4825777,26.5312833 C20.1267714,27.3021967 19.7709652,28.0968306 19.4032988,28.9151849 C18.9526109,29.9233025 18.5019231,30.9670007 18.039375,32.0581398 C17.6005473,33.0899778 17.1498595,34.1692566 16.6991716,35.2722559 C16.2722041,36.3278143 15.8333765,37.4070932 15.3945488,38.5338129 C15.003162,39.5300703 14.6117751,40.5619083 14.2085281,41.6174667 C14.1848077,41.6649075 14.1729475,41.7242086 14.1492271,41.7716494 C13.7578402,42.8153476 13.3545932,43.8946265 12.9513461,44.9976257 C12.9394859,45.0213461 12.9276257,45.0450665 12.9276257,45.068787 L14.8371191,44.8553032 C14.8015385,44.843443 14.7659578,44.843443 14.718517,44.8315828 C17.007537,44.5469379 20.04375,42.839068 22.0006842,40.7279512 C22.9020599,39.7554142 23.7204142,38.6168343 24.4794674,37.2766309 C25.0487574,36.2803735 25.5706065,35.1773742 26.0805954,33.9439127 C26.5194231,32.8764941 26.9463905,31.7141938 27.3496376,30.4570118 C26.8277885,30.7297966 26.2229179,30.9314201 25.5587463,31.0737426 C25.4401442,31.097463 25.3215421,31.1211834 25.2029401,31.1449038 C25.084338,31.1686242 24.9657359,31.1804845 24.8352737,31.2042049 L24.8352737,31.2042049 L24.8352737,31.2042049 C24.8352737,31.2042049 24.8352737,31.2042049 24.8352737,31.2042049 C26.9701109,30.3858506 28.3103143,28.808443 29.2828513,26.8633691 C28.7254216,27.2428957 27.8121856,27.7410244 26.7210466,27.9900887 C26.5787241,28.0256694 26.4245414,28.0493898 26.2703587,28.0731102 C26.2347781,28.0731102 26.1991975,28.0849704 26.1517566,28.0849704 L26.1517566,28.0849704 L26.1517566,28.0849704 C26.1517566,28.0849704 26.1517566,28.0849704 26.1517566,28.0849704 C26.1517566,28.0849704 26.1517566,28.0849704 26.1517566,28.0849704 L26.1517566,28.0849704 C26.8870895,27.776605 27.5156805,27.432659 28.06125,27.0175518 C28.1798521,26.9345303 28.2865939,26.8396487 28.3933358,26.744767 C28.5593787,26.6024445 28.7135614,26.4482618 28.8677441,26.2940791 C28.9626257,26.1873373 29.0575074,26.0924556 29.152389,25.9857137 C29.3658728,25.7366494 29.5674963,25.4638646 29.7453994,25.1673595 C29.8047004,25.0724778 29.8640015,24.9894564 29.9114423,24.8945747 C29.9826035,24.7522522 30.0537648,24.6217899 30.1130658,24.4913277 C30.409571,23.8983173 30.6467751,23.364608 30.8365384,22.8901997 C30.9314201,22.6529956 31.0144416,22.4395118 31.0856028,22.2378883 C31.1093232,22.1548669 31.1449038,22.0837056 31.1686242,22.0006842 C31.2397855,21.7753402 31.3109467,21.5737167 31.3583876,21.3958136 C31.4295488,21.134889 31.4769896,20.9214053 31.50071,20.7672226 L31.50071,20.7672226 L31.50071,20.7672226 C31.4295488,20.8265237 31.3465274,20.8858247 31.2516457,20.9332655 C30.6111945,21.3127922 29.5081953,21.6685984 28.6186797,21.8346413 L30.3739904,21.6448779 L28.6186797,21.8346413 C28.6068195,21.8346413 28.5949593,21.8346413 28.5830991,21.8465015 C28.5000777,21.8583617 28.405196,21.8702219 28.3103143,21.8939423 C28.3221745,21.8820821 28.345895,21.8820821 28.3577552,21.8702219 L22.3564904,22.5225333 C22.3683506,22.5699741 22.3564904,22.5936945 22.3446302,22.6055547 L22.3446302,22.6055547 Z" id="path7334" fill="url(#linearGradient-6)" fill-rule="nonzero"></path>
                <path d="M29.1049482,10.4844231 C28.5712389,11.3027774 27.9900887,12.2397337 27.3614978,13.2834319 C27.3259171,13.342733 27.2903365,13.3901738 27.2666161,13.4494748 C26.7210466,14.3627108 26.1517566,15.3589682 25.5468861,16.4619674 C25.025037,17.410784 24.4794674,18.4189016 23.9101775,19.5219009 C23.4120488,20.4707174 22.9139201,21.4788351 22.3802108,22.5462537 L28.3814756,21.8939423 C30.124926,21.0874482 30.9076997,20.3639756 31.6667529,19.3084172 C31.8683765,19.0237722 32.07,18.7154068 32.2716235,18.3951812 C32.8883543,17.4345044 33.4932248,16.378946 34.0269342,15.3233876 C34.5487833,14.3034098 35.0113313,13.2952922 35.3552774,12.3939164 C35.5806213,11.8127663 35.7585244,11.2790569 35.8889867,10.8046487 C35.9957285,10.3895414 36.07875,9.99815458 36.1499112,9.61862795 C33.8253106,10.0100148 30.9670007,10.3895414 29.1049482,10.4844231 Z" id="path7346" fill="url(#linearGradient-7)" fill-rule="nonzero"></path>
                <path d="M25.2266605,31.1686242 C25.1080584,31.1923447 24.9894564,31.2042049 24.8589941,31.2279253 L24.8589941,31.2279253 C24.9775961,31.2042049 25.0961982,31.1804845 25.2266605,31.1686242 Z" id="path7348" fill="#BE202E" fill-rule="nonzero"></path>
                <path d="M25.2266605,31.1686242 C25.1080584,31.1923447 24.9894564,31.2042049 24.8589941,31.2279253 L24.8589941,31.2279253 C24.9775961,31.2042049 25.0961982,31.1804845 25.2266605,31.1686242 Z" id="path7350" fill="#BE202E" fill-rule="nonzero" opacity="0.35"></path>
                <path d="M25.2266605,31.1686242 C25.1080584,31.1923447 24.9894564,31.2042049 24.8589941,31.2279253 L24.8589941,31.2279253 C24.9775961,31.2042049 25.0961982,31.1804845 25.2266605,31.1686242 Z" id="path7362" fill="url(#linearGradient-8)" fill-rule="nonzero"></path>
                <path d="M26.1754771,28.0968306 C26.2110577,28.0968306 26.2466383,28.0849704 26.2940791,28.0849704 C26.2584985,28.0849704 26.2229179,28.0968306 26.1754771,28.0968306 L26.1754771,28.0968306 Z" id="path7364" fill="#BE202E" fill-rule="nonzero"></path>
                <path d="M26.1754771,28.0968306 C26.2110577,28.0968306 26.2466383,28.0849704 26.2940791,28.0849704 C26.2584985,28.0849704 26.2229179,28.0968306 26.1754771,28.0968306 L26.1754771,28.0968306 Z" id="path7366" fill="#BE202E" fill-rule="nonzero" opacity="0.35"></path>
                <path d="M26.1754771,28.0968306 C26.2110577,28.0968306 26.2466383,28.0849704 26.2940791,28.0849704 C26.2584985,28.0849704 26.2229179,28.0968306 26.1754771,28.0968306 L26.1754771,28.0968306 Z" id="path7378" fill="url(#linearGradient-9)" fill-rule="nonzero"></path>
                <g id="path7380"></g>
                <g id="path7382" opacity="0.35"></g>
                <g id="path7394"></g>
            </g>
            <path d="M28.55095,9.9077898 L35.85095,9.9077898 C36.5842833,9.9077898 37.2842833,9.94112313 37.95095,10.0077898 C38.6176167,10.0077898 39.15095,10.1411231 39.55095,10.4077898 C40.2176167,10.8744565 40.55095,11.7411231 40.55095,13.0077898 C40.6176167,14.2077898 40.75095,15.2744565 40.95095,16.2077898 C41.2176167,18.4077898 41.45095,20.6744565 41.65095,23.0077898 C41.85095,25.2744565 42.0842833,27.5411231 42.35095,29.8077898 C42.6176167,31.4077898 42.8176167,33.0411231 42.95095,34.7077898 C43.0842833,36.3744565 43.2842833,37.9744565 43.55095,39.5077898 C43.6176167,40.1077898 43.6842833,40.7411231 43.75095,41.4077898 C43.8842833,42.0744565 44.3176167,42.4077898 45.05095,42.4077898 C45.25095,42.2744565 45.3842833,42.2077898 45.45095,42.2077898 C45.5176167,42.1411231 45.6176167,42.0411231 45.75095,41.9077898 C46.0176167,41.5744565 46.25095,41.2411231 46.45095,40.9077898 C46.65095,40.5744565 46.85095,40.2077898 47.05095,39.8077898 C47.5842833,39.0744565 47.9842833,38.3077898 48.25095,37.5077898 C48.5842833,36.7077898 48.9842833,35.9411231 49.45095,35.2077898 C50.9176167,32.4077898 52.35095,29.6077898 53.75095,26.8077898 C55.15095,23.9411231 56.5842833,21.1077898 58.05095,18.3077898 C58.5842833,17.5077898 59.0176167,16.7077898 59.35095,15.9077898 C59.75095,15.0411231 60.15095,14.2411231 60.55095,13.5077898 C60.8176167,12.9744565 61.0842833,12.4411231 61.35095,11.9077898 C61.6842833,11.3744565 62.0842833,10.9411231 62.55095,10.6077898 C62.75095,10.4744565 63.2176167,10.2744565 63.95095,10.0077898 C64.35095,9.87445647 64.7842833,9.84112313 65.25095,9.9077898 C65.7176167,9.9077898 66.15095,9.9077898 66.55095,9.9077898 L71.45095,9.9077898 C72.1842833,9.9077898 72.85095,9.94112313 73.45095,10.0077898 C74.1176167,10.0077898 74.5842833,10.1744565 74.85095,10.5077898 C75.1842833,10.8411231 75.2176167,11.3411231 74.95095,12.0077898 C74.75095,12.6077898 74.55095,13.1077898 74.35095,13.5077898 C73.8176167,14.4411231 73.2842833,15.4411231 72.75095,16.5077898 C72.2176167,17.5077898 71.6842833,18.4744565 71.15095,19.4077898 C70.8842833,19.8744565 70.65095,20.3411231 70.45095,20.8077898 C70.25095,21.2077898 70.05095,21.6077898 69.85095,22.0077898 C69.3842833,22.7411231 68.95095,23.4744565 68.55095,24.2077898 C68.15095,24.9411231 67.75095,25.6744565 67.35095,26.4077898 C67.2842833,26.6077898 67.1842833,26.8411231 67.05095,27.1077898 C66.9842833,27.3077898 66.8842833,27.5077898 66.75095,27.7077898 C66.15095,28.7077898 65.5842833,29.7411231 65.05095,30.8077898 C64.5176167,31.8077898 63.9842833,32.8077898 63.45095,33.8077898 C62.3176167,35.8077898 61.2176167,37.8744565 60.15095,40.0077898 C59.0842833,42.0744565 57.95095,44.1077898 56.75095,46.1077898 C56.2176167,47.0411231 55.7176167,47.9744565 55.25095,48.9077898 C54.85095,49.7744565 54.3842833,50.6744565 53.85095,51.6077898 C53.65095,51.9411231 53.4842833,52.2411231 53.35095,52.5077898 C53.2176167,52.7077898 53.05095,52.9744565 52.85095,53.3077898 C52.45095,54.0411231 52.05095,54.8077898 51.65095,55.6077898 C51.3176167,56.3411231 50.9176167,57.0744565 50.45095,57.8077898 C49.9842833,58.5411231 49.55095,59.2411231 49.15095,59.9077898 C48.75095,60.5077898 48.1842833,60.9411231 47.45095,61.2077898 C46.85095,61.4077898 46.25095,61.5077898 45.65095,61.5077898 C45.05095,61.4411231 44.45095,61.4077898 43.85095,61.4077898 L37.35095,61.4077898 C36.6176167,61.4077898 35.8842833,61.4077898 35.15095,61.4077898 C34.4842833,61.4077898 33.9176167,61.2744565 33.45095,61.0077898 C33.05095,60.6744565 32.7842833,60.2744565 32.65095,59.8077898 C32.5842833,59.2744565 32.5176167,58.7077898 32.45095,58.1077898 C32.25095,57.3077898 32.0842833,56.4744565 31.95095,55.6077898 C31.8842833,54.7411231 31.7842833,53.9077898 31.65095,53.1077898 C31.5842833,52.8411231 31.55095,52.6077898 31.55095,52.4077898 C31.55095,52.1411231 31.5176167,51.8411231 31.45095,51.5077898 C31.25095,50.7077898 31.1176167,49.8744565 31.05095,49.0077898 C30.9842833,48.1411231 30.85095,47.2744565 30.65095,46.4077898 C30.5842833,46.0744565 30.55095,45.7744565 30.55095,45.5077898 C30.55095,45.1744565 30.5176167,44.8411231 30.45095,44.5077898 C30.3176167,43.9077898 30.2176167,43.3077898 30.15095,42.7077898 C30.0842833,42.0411231 29.9842833,41.4077898 29.85095,40.8077898 C29.7842833,40.6077898 29.75095,40.4077898 29.75095,40.2077898 C29.8176167,39.9411231 29.8176167,39.7077898 29.75095,39.5077898 C29.6176167,38.9077898 29.5176167,38.3077898 29.45095,37.7077898 C29.3842833,37.1077898 29.2842833,36.4744565 29.15095,35.8077898 C28.8842833,34.2744565 28.65095,32.7077898 28.45095,31.1077898 C28.25095,29.4411231 28.05095,27.8077898 27.85095,26.2077898 C27.45095,24.4077898 27.15095,22.6077898 26.95095,20.8077898 C26.8176167,18.9411231 26.5842833,17.1077898 26.25095,15.3077898 L25.95095,12.6077898 C25.8842833,12.4077898 25.85095,12.1744565 25.85095,11.9077898 C25.9176167,11.5744565 26.05095,11.2744565 26.25095,11.0077898 C26.5176167,10.5411231 27.05095,10.2077898 27.85095,10.0077898 C28.1842833,10.0077898 28.4176167,9.97445647 28.55095,9.9077898 Z" id="path4321"></path>
            <g id="g4701" transform="translate(54.642590, 40.044087) rotate(8.347377) translate(-54.642590, -40.044087) translate(31.837632, 2.979323)">
                <path d="M35.830613,2.62927748 C34.7037798,3.30001153 32.8257244,5.17806687 30.5988874,7.90124711 L32.6513336,11.7780899 C34.0867044,9.71222905 35.5623193,7.86100307 37.0379342,6.27807071 C37.1452517,6.15733858 37.2123251,6.09026517 37.2123251,6.09026517 C37.1586664,6.15733858 37.091593,6.2109973 37.0379342,6.27807071 C36.5550057,6.80124327 35.1062202,8.49149307 32.9196272,11.858578 C35.0257321,11.7512606 38.2586702,11.3219908 40.9013624,10.8658916 C41.6928286,6.46587624 40.1367256,4.45367409 40.1367256,4.45367409 C40.1367256,4.45367409 38.1513528,1.24756533 35.830613,2.62927748 Z" id="path4710" fill="url(#linearGradient-10)" fill-rule="nonzero"></path>
                <path d="M32.3427959,24.7366718 C32.3562106,24.7366718 32.3696253,24.7366718 32.3830399,24.7232571 L32.087917,24.7500864 C32.0745023,24.7635011 32.0476729,24.7635011 32.0342582,24.7769158 C32.1415757,24.7635011 32.2488931,24.7500864 32.3427959,24.7366718 L32.3427959,24.7366718 Z" id="path4712"></path>
                <path d="M30.2501057,31.6720618 C30.0891295,31.7123059 29.9147386,31.7391353 29.7403478,31.7659646 C29.9147386,31.7391353 30.0891295,31.7123059 30.2501057,31.6720618 Z" id="path4714"></path>
                <path d="M16.0037144,47.2465065 C16.0305438,47.1928478 16.0439585,47.1257744 16.0707878,47.0721156 C16.526887,45.878209 16.9695715,44.7245465 17.4122559,43.5842986 C17.9085991,42.3233186 18.4049423,41.0891679 18.8878709,39.8952613 C19.3976287,38.647696 19.9073866,37.42696 20.4037298,36.2598827 C20.9269024,35.0257321 21.4366602,33.8452402 21.9464181,32.7049923 C22.3622732,31.7793793 22.7647137,30.8805957 23.1671541,30.0086414 C23.3013009,29.7135184 23.4354477,29.4318101 23.5695945,29.1501018 C23.8378881,28.5866852 24.0927671,28.0366833 24.347646,27.5000961 C24.5891103,27.0037529 24.8171599,26.5208243 25.0452094,26.0378958 C25.1256975,25.8769197 25.2061856,25.7159435 25.273259,25.568382 C25.2866737,25.5415526 25.3000884,25.5147233 25.3135031,25.4878939 L25.0586241,25.5147233 L24.8574039,25.1256975 C24.8439892,25.1659416 24.8171599,25.2061856 24.8037452,25.2464296 C24.4415488,25.9574077 24.0793524,26.6818005 23.7305707,27.419608 C23.5293505,27.8354631 23.3281303,28.2647329 23.1134954,28.6940027 C22.5500788,29.8744946 22.0000768,31.0549865 21.4634896,32.2623078 C20.9134877,33.4696291 20.3769004,34.6903651 19.8537279,35.8976864 C19.3305553,37.091593 18.8342121,38.2854996 18.3378689,39.4794062 C17.8415257,40.6733128 17.3585972,41.8538047 16.8890834,43.0342967 C16.3927402,44.2684473 15.9098117,45.4891833 15.4537125,46.6965046 C15.3463951,46.9647982 15.2390776,47.2465065 15.1451749,47.5148001 C14.7695638,48.4940718 14.4073674,49.4465142 14.0585857,50.3989565 L14.380538,51.0294465 L14.6622463,51.0026172 C14.675661,50.9757878 14.6890757,50.9489584 14.6890757,50.9221291 C15.1049308,49.6477344 15.56103,48.4269984 16.0037144,47.2465065 L16.0037144,47.2465065 Z" id="path4716"></path>
                <g id="path4718"></g>
                <path d="M28.9220522,35.1732936 C28.6537586,35.2269523 28.385465,35.2671964 28.1171714,35.3074404 C28.1171714,35.3074404 28.1171714,35.3074404 28.1171714,35.3074404 C28.2513182,35.2940257 28.3988797,35.2671964 28.5330265,35.240367 C28.6671733,35.2269523 28.8013201,35.2001229 28.9220522,35.1732936 Z" id="path4720" fill="#BE202E" fill-rule="nonzero"></path>
                <path d="M28.9220522,35.1732936 C28.6537586,35.2269523 28.385465,35.2671964 28.1171714,35.3074404 C28.1171714,35.3074404 28.1171714,35.3074404 28.1171714,35.3074404 C28.2513182,35.2940257 28.3988797,35.2671964 28.5330265,35.240367 C28.6671733,35.2269523 28.8013201,35.2001229 28.9220522,35.1732936 Z" id="path4722" fill="#BE202E" fill-rule="nonzero" opacity="0.35"></path>
                <path d="M29.6196157,31.7793793 C29.6196157,31.7793793 29.6196157,31.7793793 29.6196157,31.7793793 C29.606201,31.7793793 29.606201,31.7793793 29.6196157,31.7793793 C29.6598597,31.7793793 29.7001037,31.7659646 29.7403478,31.7659646 C29.9147386,31.7391353 30.0891295,31.7123059 30.2501057,31.6720618 C30.0488854,31.7123059 29.8342505,31.7391353 29.6196157,31.7793793 L29.6196157,31.7793793 L29.6196157,31.7793793 L29.6196157,31.7793793 Z" id="path4724" fill="#BE202E" fill-rule="nonzero"></path>
                <path d="M29.6196157,31.7793793 C29.6196157,31.7793793 29.6196157,31.7793793 29.6196157,31.7793793 C29.606201,31.7793793 29.606201,31.7793793 29.6196157,31.7793793 C29.6598597,31.7793793 29.7001037,31.7659646 29.7403478,31.7659646 C29.9147386,31.7391353 30.0891295,31.7123059 30.2501057,31.6720618 C30.0488854,31.7123059 29.8342505,31.7391353 29.6196157,31.7793793 L29.6196157,31.7793793 L29.6196157,31.7793793 L29.6196157,31.7793793 Z" id="path4726" fill="#BE202E" fill-rule="nonzero" opacity="0.35"></path>
                <path d="M26.5878977,21.7854419 C27.2183878,20.6183647 27.8488778,19.4781168 28.4793678,18.3646983 C29.1366871,17.2110357 29.8074212,16.0976172 30.4915699,15.011028 C30.531814,14.9439546 30.572058,14.8768812 30.612302,14.8232225 C31.2830361,13.7634627 31.9537701,12.743947 32.6379189,11.7646752 L30.5854727,7.90124711 C30.4379112,8.08905264 30.276935,8.27685818 30.1159588,8.47807839 C29.5257129,9.21588585 28.9086376,10.007352 28.2781476,10.8524769 C27.5671695,11.8049193 26.8427767,12.8110204 26.0915545,13.8707802 C25.4074058,14.8500519 24.7098424,15.8829823 24.012279,16.9427421 C23.422033,17.8549404 22.8317871,18.7805534 22.2415411,19.7329958 C22.2147117,19.7732398 22.2012971,19.8000692 22.1744677,19.8403132 L24.8439892,25.1122828 C25.4342352,23.9988643 26.0110665,22.8854458 26.5878977,21.7854419 L26.5878977,21.7854419 Z" id="path4737" fill="url(#linearGradient-11)" fill-rule="nonzero"></path>
                <path d="M14.4207821,51.5257897 C14.0720004,52.4916468 13.709804,53.4843332 13.3610223,54.5038489 C13.3610223,54.5172636 13.3476076,54.5306783 13.3476076,54.544093 C13.2939489,54.6916544 13.2402901,54.8258013 13.2000461,54.9733627 C12.9585818,55.6575115 12.7573616,56.2745868 12.2744331,57.6697136 C13.0658993,58.03191 13.6963893,58.9709377 14.2866353,60.0441122 C14.2195619,58.9306936 13.7634627,57.8843485 12.8915084,57.0794677 C16.7683513,57.2538585 20.1220215,56.2745868 21.8391007,53.4306744 C21.9866622,53.1757955 22.1342237,52.9075019 22.2683705,52.6257936 C21.4769043,53.61848 20.5110473,54.0477498 18.673236,53.9404323 C18.673236,53.9404323 18.6598213,53.9404323 18.6598213,53.9404323 C18.6598213,53.9404323 18.673236,53.9404323 18.673236,53.9404323 C21.3695868,52.733111 22.7244696,51.5660338 23.9183762,49.6477344 C24.2000845,49.1916352 24.4817928,48.695292 24.7635011,48.1452901 C22.4025173,50.5733474 19.6659223,51.2574961 16.7817659,50.7343235 L14.6220023,50.9757878 C14.5549289,51.1635933 14.4878555,51.3379842 14.4207821,51.5257897 Z" id="path4748" fill="url(#linearGradient-12)" fill-rule="nonzero"></path>
                <path d="M15.4268832,46.6830899 C15.896397,45.4757686 16.3793255,44.2550326 16.862254,43.020882 C17.3317679,41.84039 17.8146964,40.6598981 18.3110396,39.4659915 C18.8073828,38.2720849 19.3171406,37.0781783 19.8268985,35.8842717 C20.3500711,34.6635357 20.8866583,33.4562144 21.4366602,32.2488931 C21.9732475,31.0549865 22.5366641,29.8610799 23.086666,28.680588 C23.2878862,28.2513182 23.4891064,27.8354631 23.7037413,27.4061933 C24.052523,26.6818005 24.4147194,25.9574077 24.7769158,25.233015 C24.7903305,25.1927709 24.8171599,25.1525269 24.8305745,25.1122828 L22.1878824,19.8537279 C22.1476383,19.9208013 22.1073943,20.0012894 22.0537356,20.0683628 C21.4366602,21.0878785 20.8061702,22.120809 20.2025096,23.1805688 C19.5854343,24.2537433 18.9817736,25.3403324 18.3915277,26.4537509 C17.8951845,27.3927786 17.4122559,28.3318063 16.9293274,29.2842486 C16.8354247,29.4720542 16.7415219,29.6732744 16.6476191,29.8610799 C16.0707878,31.0549865 15.5342006,32.2220638 15.0646868,33.3354823 C14.5280995,34.5964623 14.0585857,35.8037836 13.6427306,36.9440315 C13.374437,37.6952536 13.119558,38.4196464 12.8915084,39.1172098 C12.7037029,39.7074558 12.5293121,40.3111164 12.3549212,40.9013624 C11.9524808,42.2964892 11.6171137,43.691616 11.3354054,45.0867428 L14.0183416,50.3855418 C14.3671234,49.4330995 14.7427344,48.4806571 15.1049308,47.5013854 C15.2122483,47.2330918 15.3195657,46.9647982 15.4268832,46.6830899 L15.4268832,46.6830899 Z" id="path4759" fill="url(#linearGradient-13)" fill-rule="nonzero"></path>
                <path d="M11.2951614,45.2745484 C10.9597944,46.9647982 10.7183301,48.655048 10.597598,50.3452978 C10.597598,50.3989565 10.5841833,50.4660299 10.5841833,50.5196887 C9.75247309,49.1782206 7.49880668,47.8635818 7.51222136,47.8769965 C9.12198308,50.211151 10.3427191,52.5184761 10.5171099,54.7855572 C9.65857032,54.9599481 8.47807839,54.7050691 7.12319561,54.2087259 C8.5451518,55.50995 9.6049116,55.8721464 10.0207667,55.9660491 C8.71954265,56.0465372 7.36465987,56.9453209 5.99636241,57.9782513 C7.99514988,57.1599557 9.61832628,56.8380034 10.7719888,57.106297 C8.93417755,62.2977786 7.09636625,68.039262 5.25855495,74.1295272 C5.82197155,73.968551 6.15733858,73.5795253 6.34514411,73.0697674 C6.66709646,71.9697636 8.85368946,64.7258358 12.2610184,55.214827 C12.3549212,54.9465334 12.4622387,54.6782398 12.5561414,54.3965315 C12.5829708,54.3160434 12.6098001,54.24897 12.6366295,54.1684819 C12.9988259,53.1757955 13.374437,52.1562797 13.7634627,51.1099346 C13.8573655,50.8684704 13.9378536,50.6404208 14.0317563,50.3989565 C14.0317563,50.3989565 14.0317563,50.3855418 14.0317563,50.3855418 L11.3488201,45.0867428 C11.3219908,45.1538163 11.3085761,45.207475 11.2951614,45.2745484 L11.2951614,45.2745484 Z" id="path4770" fill="url(#linearGradient-14)" fill-rule="nonzero"></path>
                <path d="M25.273259,25.568382 C25.1927709,25.7293582 25.1256975,25.8769197 25.0452094,26.0378958 C24.8171599,26.5208243 24.5756956,27.0037529 24.347646,27.5000961 C24.0927671,28.0366833 23.8378881,28.5866852 23.5695945,29.1501018 C23.4354477,29.4318101 23.3013009,29.7135184 23.1671541,30.0086414 C22.7647137,30.8805957 22.3622732,31.7793793 21.9464181,32.7049923 C21.4366602,33.8452402 20.9269024,35.0257321 20.4037298,36.2598827 C19.9073866,37.42696 19.3976287,38.647696 18.8878709,39.8952613 C18.4049423,41.0891679 17.9085991,42.3099039 17.4122559,43.5842986 C16.9695715,44.7111318 16.526887,45.878209 16.0707878,47.0721156 C16.0439585,47.1257744 16.0305438,47.1928478 16.0037144,47.2465065 C15.56103,48.4269984 15.1049308,49.6477344 14.6488317,50.8952997 C14.635417,50.9221291 14.6220023,50.9489584 14.6220023,50.9757878 L16.7817659,50.7343235 C16.7415219,50.7209089 16.7012778,50.7209089 16.6476191,50.7074942 C19.2366526,50.3855418 22.6708109,48.4538278 24.8842333,46.0660146 C25.903749,44.9660107 26.829362,43.6782013 27.6879016,42.1623424 C28.3318063,41.0355092 28.9220522,39.7879439 29.4988835,38.392817 C29.9952267,37.1854957 30.4781552,35.870857 30.9342544,34.4489008 C30.3440084,34.7574385 29.6598597,34.9854881 28.9086376,35.1464642 C28.7744907,35.1732936 28.6403439,35.2001229 28.5061971,35.2269523 C28.3720503,35.2537817 28.2379035,35.2671964 28.090342,35.2940257 L28.090342,35.2940257 L28.090342,35.2940257 C28.090342,35.2940257 28.090342,35.2940257 28.090342,35.2940257 C30.5049846,34.3684127 32.0208436,32.5842602 33.1208474,30.3842525 C32.4903574,30.8135223 31.4574269,31.3769389 30.2232763,31.6586472 C30.0623001,31.6988912 29.8879093,31.7257206 29.7135184,31.7525499 C29.6732744,31.7525499 29.6330303,31.7659646 29.5793716,31.7659646 L29.5793716,31.7659646 L29.5793716,31.7659646 C29.5793716,31.7659646 29.5793716,31.7659646 29.5793716,31.7659646 C29.5793716,31.7659646 29.5793716,31.7659646 29.5793716,31.7659646 L29.5793716,31.7659646 C30.4110818,31.4171829 31.1220599,31.0281572 31.7391353,30.5586433 C31.8732821,30.4647406 31.9940142,30.3574231 32.1147463,30.2501057 C32.3025519,30.0891295 32.4769427,29.9147386 32.6513336,29.7403478 C32.758651,29.6196157 32.8659685,29.5122982 32.9732859,29.3915661 C33.2147502,29.1098578 33.4427997,28.8013201 33.64402,28.4659531 C33.7110934,28.3586356 33.7781668,28.2647329 33.8318255,28.1574154 C33.9123136,27.9964393 33.9928017,27.8488778 34.0598751,27.7013163 C34.3952421,27.0305822 34.6635357,26.4269216 34.8781706,25.8903343 C34.9854881,25.6220407 35.0793908,25.3805765 35.1598789,25.1525269 C35.1867083,25.0586241 35.2269523,24.978136 35.2537817,24.8842333 C35.3342698,24.6293543 35.4147578,24.4013047 35.4684166,24.2000845 C35.5489047,23.9049615 35.6025634,23.6634973 35.6293927,23.4891064 L35.6293927,23.4891064 L35.6293927,23.4891064 C35.5489047,23.5561798 35.4550019,23.6232532 35.3476844,23.676912 C34.6232917,24.1061818 33.3757263,24.5086222 32.3696253,24.6964277 L34.354998,24.4817928 L32.3696253,24.6964277 C32.3562106,24.6964277 32.3427959,24.6964277 32.3293812,24.7098424 C32.2354784,24.7232571 32.128161,24.7366718 32.0208436,24.7635011 C32.0342582,24.7500864 32.0610876,24.7500864 32.0745023,24.7366718 L25.2866737,25.4744792 C25.3000884,25.5281379 25.2866737,25.5549673 25.273259,25.568382 L25.273259,25.568382 Z" id="path4781" fill="url(#linearGradient-15)" fill-rule="nonzero"></path>
                <path d="M32.9196272,11.858578 C32.3159665,12.784191 31.6586472,13.8439508 30.9476691,15.0244427 C30.907425,15.0915161 30.867181,15.1451749 30.8403516,15.2122483 C30.2232763,16.2451787 29.5793716,17.3720119 28.8952229,18.6195772 C28.3049769,19.6927517 27.6879016,20.8329996 27.0439969,22.0805649 C26.4805803,23.1537394 25.9171637,24.2939873 25.3135031,25.5013086 L32.1013316,24.7635011 C34.0732897,23.8513028 34.9586587,23.0330073 35.8171983,21.8391007 C36.0452479,21.5171483 36.2732974,21.1683666 36.501347,20.8061702 C37.1989104,19.7195811 37.8830591,18.5256745 38.4867198,17.3317679 C39.0769658,16.1781053 39.6001383,15.0378574 39.9891641,14.0183416 C40.244043,13.3610223 40.4452632,12.7573616 40.5928247,12.2207744 C40.7135568,11.7512606 40.8074596,11.3085761 40.8879477,10.8793063 C38.2586702,11.3219908 35.0257321,11.7512606 32.9196272,11.858578 Z" id="path4792" fill="url(#linearGradient-16)" fill-rule="nonzero"></path>
                <path d="M28.5330265,35.2537817 C28.3988797,35.280611 28.2647329,35.2940257 28.1171714,35.3208551 L28.1171714,35.3208551 C28.2513182,35.2940257 28.385465,35.2671964 28.5330265,35.2537817 Z" id="path4794" fill="#BE202E" fill-rule="nonzero"></path>
                <path d="M28.5330265,35.2537817 C28.3988797,35.280611 28.2647329,35.2940257 28.1171714,35.3208551 L28.1171714,35.3208551 C28.2513182,35.2940257 28.385465,35.2671964 28.5330265,35.2537817 Z" id="path4796" fill="#BE202E" fill-rule="nonzero" opacity="0.35"></path>
                <path d="M28.5330265,35.2537817 C28.3988797,35.280611 28.2647329,35.2940257 28.1171714,35.3208551 L28.1171714,35.3208551 C28.2513182,35.2940257 28.385465,35.2671964 28.5330265,35.2537817 Z" id="path4807" fill="url(#linearGradient-17)" fill-rule="nonzero"></path>
                <path d="M29.606201,31.7793793 C29.646445,31.7793793 29.6866891,31.7659646 29.7403478,31.7659646 C29.7001037,31.7659646 29.6598597,31.7793793 29.606201,31.7793793 L29.606201,31.7793793 Z" id="path4809" fill="#BE202E" fill-rule="nonzero"></path>
                <path d="M29.606201,31.7793793 C29.646445,31.7793793 29.6866891,31.7659646 29.7403478,31.7659646 C29.7001037,31.7659646 29.6598597,31.7793793 29.606201,31.7793793 L29.606201,31.7793793 Z" id="path4811" fill="#BE202E" fill-rule="nonzero" opacity="0.35"></path>
                <path d="M29.606201,31.7793793 C29.646445,31.7793793 29.6866891,31.7659646 29.7403478,31.7659646 C29.7001037,31.7659646 29.6598597,31.7793793 29.606201,31.7793793 L29.606201,31.7793793 Z" id="path4822" fill="url(#linearGradient-9)" fill-rule="nonzero"></path>
                <g id="path4824"></g>
                <g id="path4826" opacity="0.35"></g>
                <g id="path4837"></g>
            </g>
        </g>
    </g>
</svg>
