<?xml version="1.0" encoding="UTF-8"?>
<svg width="300px" height="335px" viewBox="0 0 300 335" version="1.1" xmlns="http://www.w3.org/2000/svg" xmlns:xlink="http://www.w3.org/1999/xlink">
    <title>Group</title>
    <defs>
        <path d="M92.733,152.066 C92.475,152.019 92.229,151.972 91.994,151.925 C90.633,151.619 89.624,151.432 88.967,151.362 L78.937,151.362 C78.585,151.457 77.259,151.585 74.96,151.75 C72.566,151.914 69.998,152.055 67.252,152.172 C62.559,152.525 59.919,152.7 59.333,152.7 C53.678,152.7 48.036,151.949 42.404,150.447 C39.049,149.532 36.503,148.641 34.767,147.772 C32.28,146.482 27.822,145.333 21.393,144.323 C17.897,143.784 15.668,143.068 14.706,142.177 C9.638,141.801 5.731,138.236 2.986,131.478 C1.062,126.786 0.1,122.679 0.1,119.16 C0.1,114.374 1.179,109.059 3.338,103.217 C5.544,97.28 8.629,91.415 12.594,85.62 C21.651,72.41 32.854,62.602 46.205,56.197 C52.305,53.264 58.746,49.158 65.526,43.879 C70.125,40.289 76.12,35.128 83.511,28.393 C85.553,26.516 88.532,23.759 92.45,20.122 C95.923,17.025 99.266,14.455 102.48,12.414 C110.411,7.346 120.559,3.568 132.924,1.081 C134.707,1.034 136.502,0.917 138.309,0.729 C139.975,0.846 142.145,0.999 144.82,1.187 C151.202,1.68 155.672,2.231 158.229,2.841 C158.838,3.006 161.491,4.073 166.182,6.044 L166.217,6.044 C168.237,7.147 169.973,8.262 171.427,9.387 C174.055,11.405 180.413,15.324 190.502,21.142 C192.074,22.057 195.265,24.063 200.075,27.16 C200.098,27.184 200.122,27.196 200.145,27.196 C200.24,27.266 200.344,27.337 200.462,27.407 C204.075,29.706 207.23,31.548 209.929,32.933 C218.258,37.25 229.122,40.829 242.52,43.667 C260.516,47.468 274.852,55.539 285.528,67.88 C289.986,73.019 293.412,78.509 295.804,84.352 C298.033,89.772 299.148,94.922 299.148,99.802 C299.148,100.929 299.078,102.348 298.937,104.061 C298.702,107.206 298.315,110.08 297.776,112.684 C297.518,113.904 297.236,115.041 296.931,116.098 C296.884,116.121 296.849,116.157 296.826,116.203 C296.497,117.306 296.016,118.455 295.383,119.652 C294.866,120.59 294.303,121.412 293.694,122.116 C292.615,125.189 286.984,130.163 276.8,137.038 C267.344,143.443 260.458,147.573 256.141,149.427 C247.765,153.017 238.379,156.548 227.985,160.021 C209.567,166.215 195.758,169.312 186.561,169.312 C184.872,169.312 183.534,169.254 182.548,169.136 C182.219,171.107 181.856,173.149 181.457,175.26 C178.523,191.192 177.058,202.184 177.058,208.238 C177.058,208.755 177.316,212.438 177.832,219.289 C178.419,226.657 178.747,231.115 178.817,232.664 C179.051,236.324 179.662,240.289 180.647,244.56 C181.585,248.643 182.794,252.69 184.272,256.703 C184.53,257.407 184.824,258.134 185.152,258.885 C185.457,259.683 185.809,260.516 186.209,261.384 C187.688,264.699 189.6,268.53 191.945,272.875 C194.125,270.169 196.224,267.841 198.244,265.889 C201.905,262.323 203.736,261.724 203.736,264.094 C203.736,264.447 203.148,266.1 201.976,269.057 C200.615,272.458 199.676,275.227 199.16,277.363 C198.875,278.637 198.423,280.602 197.805,283.258 C198.123,283.796 198.448,284.342 198.773,284.895 C200.308,287.519 201.592,289.784 202.627,291.688 C205.588,287.535 207.365,285.459 207.959,285.459 C209.343,285.459 210.457,288.063 211.303,293.271 C211.748,295.875 212.041,298.515 212.183,301.19 C212.183,309.989 206.961,317.908 196.521,324.947 C192.579,327.575 188.391,329.734 183.956,331.423 C179.982,332.92 176.845,333.67 174.542,333.676 C174.798,333.683 175.074,333.788 175.369,333.992 C175.397,334.011 175.421,334.022 175.44,334.027 C174.87,334.639 172.501,334.51 168.33,333.64 C165.508,333.033 162.909,332.292 160.535,331.422 C155.391,331.951 149.894,332.209 144.046,332.197 L122.577,332.197 C119.386,332.337 112.887,331.505 103.079,329.697 C99.912,329.111 97.248,328.571 95.09,328.078 C94.949,328.243 94.726,328.325 94.422,328.325 C92.72,328.325 90.902,327.879 88.966,326.987 C88.022,327.304 86.884,327.715 85.552,328.219 C83.698,328.9 82.677,329.24 82.49,329.24 C80.824,329.24 78.126,327.726 74.395,324.7 C73.714,324.137 73.081,323.609 72.495,323.116 C71.04,322.718 69.632,322.26 68.271,321.743 C66.159,320.946 64.658,320.418 63.766,320.16 C60.669,319.292 57.619,318.071 54.615,316.499 C51.518,314.904 49.348,313.367 48.104,311.889 C43.74,306.821 40.467,303.009 38.285,300.451 C34.367,295.851 32.407,293.4 32.407,293.095 C32.407,292.767 32.419,292.591 32.442,292.567 C32.489,292.521 32.536,292.439 32.583,292.321 C36.712,292.133 42.367,294 49.547,297.918 C56.281,301.602 60.551,304.851 62.358,307.667 C62.64,307.972 62.933,308.324 63.238,308.723 C63.004,308.16 62.746,307.562 62.464,306.928 C61.596,304.886 60.27,301.109 58.487,295.595 C56.868,290.62 55.366,286.656 53.982,283.699 L53.982,282.115 L54.263,281.939 C54.428,281.798 54.685,281.728 55.037,281.728 C55.577,281.728 56.516,283.1 57.852,285.845 C59.331,288.871 60.281,290.55 60.703,290.878 C64.809,294.162 67.906,297.225 69.995,300.064 C70.065,300.159 70.136,300.252 70.206,300.346 C70.041,299.219 69.877,297.906 69.713,296.404 L69.009,287.148 C69.009,282.995 69.138,279.721 69.396,277.329 C69.701,274.49 70.346,270.923 71.332,266.63 C71.849,264.213 72.341,262.453 72.811,261.351 C73.632,259.427 74.77,258.019 76.225,257.127 C77.455,259.475 78.388,262.149 79.023,265.151 C80.063,255.707 80.925,248.68 81.61,244.069 C83.839,229.452 86.831,216.618 90.585,205.566 C94.597,193.741 96.768,187.371 97.096,186.455 C99.724,179.136 102.364,172.659 105.015,167.028 C106.681,163.462 108.535,159.848 110.576,156.187 C109.591,155.999 106.458,155.272 101.179,154.005 C97.637,153.157 94.821,152.513 92.733,152.066 Z M242.24,45.954 C229.993,43.514 219.927,40.464 212.043,36.803 C211.832,37.202 211.527,37.554 211.129,37.859 C210.049,38.68 208.313,39.09 205.92,39.09 C202.4,39.09 199.994,37.776 198.705,35.148 C198.306,34.327 198.035,33.412 197.894,32.403 C197.847,31.558 197.824,31.124 197.824,31.101 C197.824,30.257 198,29.506 198.352,28.849 C195.56,26.995 193.331,25.552 191.665,24.519 C187.253,21.751 183.91,19.651 181.634,18.22 C177.622,15.709 174.22,13.644 171.428,12.025 C170.7,11.579 169.844,10.958 168.859,10.16 C168.296,9.808 167.674,9.421 166.994,8.999 C163.287,6.887 160.951,5.738 159.99,5.55 C157.503,4.964 154.851,4.424 152.036,3.931 C150.98,3.743 149.971,3.579 149.01,3.439 C146.475,3.157 143.684,2.899 140.633,2.665 L135.459,2.665 C122.132,5.246 111.41,9.152 103.292,14.385 C100.171,16.403 96.921,18.937 93.543,21.987 C89.718,25.647 86.786,28.428 84.744,30.328 C77.963,36.64 72.074,41.743 67.076,45.638 C66.161,46.342 65.258,47.034 64.366,47.715 C64.929,48.583 65.211,49.639 65.211,50.882 C65.211,52.594 64.859,54.085 64.155,55.352 C62.982,57.416 60.988,58.449 58.172,58.449 C55.638,58.449 53.644,57.874 52.189,56.724 L51.52,55.879 C50.324,56.513 49.15,57.087 48,57.604 C35.4,63.329 24.467,72.785 15.198,85.971 C11.116,91.766 7.937,97.597 5.66,103.463 C3.361,109.328 2.211,114.561 2.211,119.159 C2.211,122.257 3.208,126.081 5.202,130.633 C7.924,136.827 11.408,139.924 15.655,139.924 C16.359,139.924 17.039,139.89 17.696,139.819 C18.517,139.491 19.55,139.068 20.793,138.552 C25.274,136.346 29.416,133.519 33.217,130.07 C33.569,129.742 35.669,127.666 39.517,123.841 C40.174,123.185 40.819,122.563 41.453,121.976 C41.594,121.835 41.734,121.706 41.875,121.589 C43.587,119.923 45.101,118.585 46.415,117.576 C53.947,111.711 60.305,107.745 65.491,105.68 C72.577,102.818 84.097,100.155 100.052,97.691 C109.437,97.996 117.814,99.111 125.181,101.035 C129.146,102.067 134.931,104.073 142.532,107.053 C149.477,109.752 155.483,111.653 160.552,112.755 C168.342,114.468 177.4,115.324 187.724,115.324 C195.958,115.324 205.813,114.056 217.286,111.522 C228.736,108.989 237.265,107.721 242.873,107.721 C248.152,107.721 255.519,110.161 264.976,115.041 C270.068,117.669 273.481,119.347 275.217,120.074 C278.83,121.599 281.869,122.362 284.333,122.362 C285.106,122.362 285.822,122.35 286.479,122.327 C288.99,121.81 291.078,120.519 292.744,118.455 C293.87,117.071 294.633,115.628 295.031,114.127 C295.055,114.056 295.079,113.997 295.102,113.95 L295.102,113.88 L295.137,113.704 L294.96,113.704 C292.872,113.704 291.383,112.66 290.491,110.571 C289.951,109.375 289.681,108.155 289.681,106.911 C289.681,104.847 290.267,103.145 291.44,101.808 C292.778,100.283 294.643,99.731 297.037,100.154 L297.037,99.52 C297.037,94.968 295.922,90.076 293.693,84.844 C291.299,79.212 287.91,73.909 283.522,68.936 C272.989,56.97 259.228,49.309 242.24,45.954 Z M200.219,30.116 C200.031,30.679 199.937,31.09 199.937,31.348 C199.937,32.592 201.11,34.422 203.456,36.838 L208.489,36.803 C209.052,36.522 209.475,36.158 209.757,35.712 C206.895,34.257 203.785,32.439 200.431,30.257 C200.358,30.21 200.288,30.164 200.219,30.116 Z M234.251,51.092 C236.363,51.233 238.181,51.913 239.706,53.134 C241.349,54.471 242.17,56.09 242.17,57.991 C242.17,62.519 239.649,64.783 234.604,64.783 C230.779,64.783 228.257,63.751 227.037,61.686 C226.662,61.028 226.428,60.29 226.333,59.468 L226.333,58.342 C226.333,55.784 227.155,53.849 228.797,52.535 C230.251,51.409 232.069,50.928 234.251,51.092 Z M240.059,58.096 C240.059,57.275 239.449,56.418 238.229,55.527 C237.055,54.635 235.73,54.037 234.251,53.732 C230.38,52.911 228.444,54.46 228.444,58.378 C228.444,59.457 228.854,60.36 229.675,61.088 C230.731,62.026 232.362,62.495 234.568,62.495 C236.937,62.495 238.556,61.804 239.424,60.419 C239.848,59.762 240.059,58.988 240.059,58.096 Z M195.291,98.922 C196.088,100.213 197.508,100.859 199.549,100.859 C201.638,100.859 203.326,99.92 204.617,98.043 C205.273,97.129 205.709,96.189 205.92,95.228 C205.92,93.61 205.333,92.459 204.16,91.779 C203.127,91.217 201.837,91.088 200.288,91.392 C198.786,91.697 197.496,92.307 196.417,93.222 C195.243,94.231 194.657,95.322 194.657,96.495 C194.657,97.433 194.868,98.242 195.291,98.922 Z M192.545,96.635 C192.545,94.523 193.356,92.74 194.975,91.285 C196.429,89.995 198.2,89.244 200.288,89.032 C202.4,88.821 204.172,89.232 205.602,90.264 C207.22,91.413 208.031,93.126 208.031,95.402 C208.031,96.599 207.48,98.006 206.377,99.626 C204.758,101.973 202.494,103.146 199.584,103.146 C196.463,103.146 194.352,102.09 193.249,99.979 C192.897,99.298 192.675,98.547 192.58,97.726 C192.557,97.045 192.545,96.682 192.545,96.635 Z M181.178,135.173 C182.538,135.783 184.029,136.487 185.648,137.284 C185.741,137.332 185.847,137.379 185.965,137.426 C186.081,137.496 186.211,137.555 186.352,137.602 C187.125,138 187.83,138.353 188.463,138.658 C188.486,138.681 188.522,138.705 188.568,138.728 C188.802,138.845 189.025,138.951 189.236,139.044 C191.207,140.053 192.193,140.64 192.193,140.804 C192.193,141.063 192.146,141.274 192.052,141.438 C191.982,141.532 191.9,141.614 191.806,141.684 L191.771,141.684 C191.49,141.801 190.926,141.861 190.082,141.861 C189.73,141.861 188.779,141.52 187.23,140.84 C186.808,140.629 186.351,140.418 185.858,140.207 L185.858,140.664 C185.858,141.955 185.811,143.387 185.716,144.958 C185.693,145.45 185.658,145.967 185.612,146.507 C185.47,148.337 185.271,150.366 185.013,152.596 C184.896,153.557 184.779,154.567 184.661,155.622 C184.638,155.786 184.614,155.962 184.591,156.15 C184.45,157.159 184.297,158.214 184.133,159.317 C183.734,161.898 183.288,164.69 182.796,167.694 C183.71,167.576 184.907,167.423 186.386,167.236 C187.184,167.142 188.064,167.037 189.025,166.919 C189.095,166.897 189.178,166.885 189.271,166.885 C189.906,166.815 190.527,166.743 191.137,166.673 C191.982,166.556 192.802,166.45 193.601,166.357 C198.199,165.771 201.825,165.231 204.476,164.738 C207.76,164.152 210.517,163.412 212.747,162.52 C215.82,161.3 218.168,160.468 219.786,160.022 C220.067,159.952 220.361,159.87 220.666,159.776 C221.534,159.517 222.449,159.248 223.411,158.966 C226.79,157.956 230.731,156.678 235.237,155.129 C235.846,154.918 236.444,154.719 237.032,154.531 C237.993,154.178 238.944,153.839 239.883,153.51 C245.397,151.538 250.253,149.661 254.453,147.878 C259.615,145.673 264.354,143.15 268.672,140.312 C268.93,140.148 269.328,139.866 269.868,139.467 C270.596,138.927 271.593,138.199 272.859,137.284 C274.384,136.181 276.286,134.786 278.561,133.096 C280.11,131.946 282.713,129.612 286.374,126.092 C286.726,125.764 287.065,125.435 287.395,125.107 C287.137,125.13 286.867,125.142 286.585,125.142 C283.323,125.142 281.118,124.755 279.969,123.981 C279.218,123.746 278.42,123.476 277.575,123.171 C276.894,122.912 276.179,122.631 275.429,122.326 C275.123,122.184 274.737,122.009 274.267,121.798 C272.39,120.953 269.175,119.44 264.624,117.258 C260.682,115.358 257.162,113.832 254.065,112.683 C253.455,112.424 252.856,112.202 252.269,112.014 C248.187,110.583 244.926,109.868 242.486,109.868 C239.624,109.868 236.608,110.079 233.44,110.502 C232.22,110.665 230.988,110.854 229.745,111.064 C229.464,111.111 229.089,111.181 228.619,111.275 C226.577,111.674 222.765,112.496 217.181,113.739 C213.24,114.584 209.369,115.3 205.567,115.885 C204.3,116.073 203.033,116.249 201.765,116.413 C199.49,116.671 197.238,116.893 195.008,117.082 C193.952,117.176 192.897,117.258 191.841,117.328 C188.978,117.492 186.163,117.574 183.394,117.574 C182.174,117.574 180.978,117.562 179.804,117.539 C178.748,117.492 177.693,117.434 176.637,117.363 C174.525,117.222 172.425,117.023 170.337,116.765 C169.68,116.67 169.023,116.588 168.366,116.518 C165.409,116.073 162.499,115.497 159.637,114.793 C158.909,114.605 158.147,114.406 157.349,114.195 C156.832,114.053 156.305,113.913 155.765,113.772 C154.733,113.467 153.642,113.139 152.492,112.787 C152,112.623 151.495,112.459 150.979,112.294 C147.928,111.285 144.561,110.089 140.877,108.704 C138.836,107.93 136.936,107.226 135.176,106.593 C134.355,106.288 133.569,106.007 132.819,105.748 C130.214,104.833 127.95,104.07 126.026,103.461 C125.111,103.179 124.278,102.944 123.527,102.757 C123.339,102.687 123.152,102.628 122.964,102.581 C115.972,100.727 108.898,99.8 101.741,99.8 C100.732,99.8 99.723,99.823 98.715,99.871 C98.128,99.893 97.541,99.929 96.955,99.976 C93.857,100.187 90.725,100.609 87.558,101.243 C86.69,101.407 85.822,101.595 84.954,101.806 C78.596,103.307 72.096,105.63 65.456,108.774 C62.546,110.159 59.813,111.59 57.255,113.068 C56.645,113.397 56.059,113.737 55.495,114.089 C52.539,115.849 49.852,117.667 47.435,119.544 C46.497,120.272 45.452,121.151 44.303,122.184 C43.717,122.701 43.095,123.264 42.438,123.874 C41.875,124.413 41.288,124.977 40.678,125.562 C37.745,128.518 35.516,130.712 33.991,132.144 C29.979,135.945 26.189,138.702 22.623,140.415 C22.458,140.532 22.248,140.661 21.989,140.802 C21.496,141.037 20.827,141.272 19.983,141.506 C19.936,141.529 19.889,141.541 19.842,141.541 C19.725,141.564 19.619,141.6 19.526,141.647 C19.479,141.647 19.444,141.658 19.42,141.681 C19.538,141.704 19.667,141.741 19.807,141.786 C22.763,142.584 25.673,143.394 28.536,144.215 C33.299,145.553 37.956,146.913 42.508,148.298 C44.995,148.954 47.658,149.459 50.497,149.811 C52.304,150.046 54.193,150.222 56.164,150.339 C58.018,150.433 59.953,150.48 61.971,150.48 C63.238,150.48 65.889,150.351 69.925,150.093 C74.665,149.787 77.762,149.483 79.217,149.178 L81.857,149.178 L88.72,149.178 C90.151,149.342 91.547,149.519 92.908,149.706 C94.151,149.87 95.371,150.046 96.568,150.233 C99.454,150.702 102.129,151.23 104.592,151.817 C108.253,152.661 110.611,153.471 111.667,154.245 C114.084,150.021 116.734,145.74 119.621,141.399 C121.756,138.184 123.504,135.721 124.865,134.008 C125.358,133.374 125.803,132.847 126.202,132.424 C126.343,132.236 126.483,132.084 126.624,131.967 C126.53,131.99 126.448,132.025 126.377,132.072 C124.453,132.846 122.6,133.76 120.816,134.817 C120.581,134.606 120.3,134.359 119.971,134.078 C119.83,133.961 119.76,133.878 119.76,133.832 C119.76,133.386 120.1,132.916 120.781,132.424 C121.297,132.025 122.012,131.614 122.928,131.193 C123.326,130.981 123.772,130.782 124.265,130.594 C124.828,130.36 125.45,130.114 126.13,129.855 C126.318,129.785 126.529,129.714 126.763,129.644 C127.045,129.527 127.349,129.41 127.678,129.291 C128.171,129.127 128.664,128.963 129.157,128.799 C131.081,128.189 133.005,127.685 134.929,127.285 C135.468,127.191 136.008,127.097 136.548,127.004 C136.689,126.957 136.841,126.934 137.005,126.934 C137.686,126.793 138.378,126.688 139.081,126.618 C141.052,126.359 143.035,126.219 145.029,126.195 C146.014,126.218 146.976,126.254 147.915,126.3 C149.558,126.347 151.13,126.441 152.632,126.581 C157.418,126.934 161.314,127.555 164.317,128.447 C164.528,128.516 164.739,128.588 164.951,128.658 C165.162,128.728 165.385,128.799 165.619,128.869 C165.853,128.939 166.147,129.057 166.499,129.221 C166.945,129.386 167.484,129.609 168.118,129.89 C168.799,130.195 169.597,130.547 170.512,130.946 C172.459,131.814 174.324,132.471 176.108,132.917 C176.413,133.035 176.741,133.176 177.093,133.34 C177.563,133.528 178.055,133.739 178.572,133.974 C178.642,133.997 178.723,134.033 178.818,134.079 C179.547,134.41 180.333,134.774 181.178,135.173 Z M296.229,101.984 C294.961,102.406 294.105,102.794 293.66,103.145 C293.05,103.591 292.568,104.224 292.217,105.045 C291.936,105.726 291.795,106.348 291.795,106.91 C291.795,108.835 292.557,110.055 294.082,110.57 C294.458,110.688 294.985,110.864 295.666,111.098 C295.713,111.121 295.761,111.145 295.807,111.168 C295.949,110.511 296.077,109.866 296.195,109.232 C296.312,108.715 296.406,108.317 296.476,108.036 C296.664,106.393 296.829,104.281 296.968,101.701 C296.733,101.82 296.487,101.914 296.229,101.984 Z M258.712,82.803 C257.538,83.014 256.494,83.519 255.579,84.317 C254.617,85.138 254.137,85.983 254.137,86.851 C254.137,87.766 254.418,88.611 254.982,89.385 C255.568,90.183 256.519,90.956 257.833,91.707 L260.578,91.707 C261.282,91.637 261.938,90.969 262.549,89.701 C263.042,88.669 263.288,87.93 263.288,87.484 C263.287,83.8 261.762,82.24 258.712,82.803 Z M265.398,87.555 C265.398,88.822 265.046,90.053 264.342,91.25 C263.239,93.08 261.538,93.995 259.238,93.995 C256.305,93.995 254.229,92.822 253.009,90.475 C252.61,89.747 252.328,88.926 252.164,88.011 C252.069,87.26 252.022,86.873 252.022,86.85 C252.022,85.489 252.843,84.058 254.486,82.556 C256.55,80.656 259.132,79.893 262.229,80.268 C263.123,80.785 264.179,83.214 265.398,87.555 Z M191.824,276.709 C190.495,278.574 189.287,280.516 188.199,282.533 C185.869,286.879 184.103,291.571 182.902,296.611 C182.22,299.451 181.388,304.155 180.403,310.724 C179.978,313.594 179.55,316.158 179.118,318.414 C178.647,320.892 178.172,322.998 177.693,324.731 C179.173,322.491 180.588,320.169 181.933,317.762 C185.544,311.339 188.683,304.335 191.348,296.75 C192.783,292.694 194.138,288.3 195.413,283.57 C195.684,282.563 195.954,281.542 196.222,280.508 C197.191,276.683 198.111,272.654 198.986,268.419 L198.916,268.56 C196.79,270.586 194.854,272.728 193.108,274.983 C192.67,275.55 192.242,276.125 191.824,276.709 Z M96.763,318.168 C97.121,317.879 97.796,317.274 98.786,316.356 C100.185,315.059 102.215,313.134 104.875,310.584 C105.603,309.88 107.421,307.287 110.331,302.807 C113.053,298.607 114.507,296.506 114.695,296.506 C115.774,296.506 116.537,298.043 116.983,301.116 C117.218,302.665 117.335,304.202 117.335,305.726 C117.335,308.683 117.03,310.901 116.42,312.378 C116.335,312.585 116.235,312.809 116.121,313.047 C115.326,314.614 113.794,316.796 111.528,319.593 C110.754,320.531 109.393,321.67 107.445,323.007 C105.239,324.509 103.503,325.354 102.236,325.541 C101.861,325.595 100.594,325.688 98.435,325.822 C100.109,326.133 102.01,326.484 104.137,326.878 C114.532,328.778 120.514,329.812 122.087,329.976 L144.084,329.906 C147.97,329.594 151.606,329.264 154.994,328.921 C153.872,328.251 152.758,327.383 151.651,326.317 C150.266,324.885 149.211,323.83 148.483,323.149 C148.427,323.099 148.228,322.946 147.884,322.692 C146.796,321.873 144.238,319.996 140.212,317.061 C135.636,313.729 133.349,311.782 133.349,311.217 C133.349,310.655 133.829,310.161 134.792,309.739 C135.848,309.269 137.185,309.035 138.804,309.035 C145.89,309.035 152.366,310.806 158.232,314.349 C160.135,315.509 162.035,316.888 163.933,318.485 C163.959,318.503 163.983,318.52 164.003,318.538 C165.013,319.406 166.15,320.403 167.417,321.529 L167.664,321.529 C166.772,320.06 165.964,318.675 165.235,317.376 C163.705,314.688 162.52,312.377 161.68,310.443 C159.92,306.36 159.04,302.688 159.04,299.426 C159.04,298.511 159.052,298.03 159.075,297.984 C159.217,297.374 159.674,297.069 160.447,297.069 C163.474,297.069 167.287,301.35 171.886,309.915 C172.87,311.722 173.716,313.821 174.419,316.215 C174.733,317.349 175.167,319.167 175.722,321.671 C175.792,321.966 175.864,322.271 175.933,322.585 L176.038,322.585 C176.083,322.206 176.13,321.818 176.179,321.424 C176.699,317.447 177.567,312.684 178.783,307.135 C180.355,300.331 181.493,295.169 182.196,291.65 C182.667,289.21 183.522,286.652 184.766,283.977 C185.25,282.912 185.772,281.878 186.332,280.88 C187.256,279.207 188.283,277.623 189.411,276.128 C189.834,275.566 190.256,275.014 190.678,274.475 C188.498,270.274 186.644,266.625 185.117,263.529 C184.953,263.177 184.789,262.825 184.625,262.473 C183.404,259.986 182.419,257.886 181.668,256.173 C181.668,256.126 181.656,256.091 181.633,256.068 C180.179,252.689 179.029,248.666 178.184,243.996 C177.996,242.964 177.422,238.987 176.459,232.065 C176.248,230.493 175.955,226.786 175.58,220.943 C175.157,214.702 174.945,210.432 174.945,208.132 C174.945,202.806 175.485,196.787 176.564,190.077 C177.972,182.334 178.993,176.175 179.626,171.599 C179.837,170.027 180.389,166.977 181.28,162.449 C182.03,158.624 182.5,155.609 182.688,153.404 C182.805,152.441 183.016,149.837 183.321,145.591 C183.344,145.122 183.368,144.641 183.391,144.148 C183.485,142.952 183.908,141.45 184.659,139.643 C184.119,139.385 183.614,139.138 183.145,138.904 C180.94,137.848 179.18,137.015 177.866,136.405 C176.411,135.702 175.484,135.267 175.086,135.103 C175.039,135.08 174.991,135.056 174.944,135.033 C164.95,130.458 157.712,128.17 153.229,128.17 C146.073,128.17 140.313,128.546 135.949,129.296 C135.737,129.319 135.538,129.356 135.35,129.401 C134.717,129.519 134.107,129.648 133.52,129.789 C131.69,130.212 129.907,130.739 128.17,131.373 C128.194,131.467 128.206,131.584 128.206,131.725 C128.206,131.889 125.73,135.996 120.78,144.043 C120.522,144.466 120.276,144.876 120.041,145.274 C119.548,146.072 119.067,146.858 118.598,147.632 C117.918,148.758 117.261,149.861 116.627,150.941 C115.595,152.701 114.598,154.424 113.636,156.115 C110.867,161.018 108.45,165.57 106.386,169.77 C103.735,175.213 101.13,181.548 98.573,188.776 C97.752,191.122 95.663,197.457 92.308,207.781 C88.718,218.808 85.844,231.373 83.685,245.474 C82.685,252.017 81.582,261.097 80.376,272.715 C81.177,277.005 82.245,282.178 83.579,288.236 C84.376,292.177 84.963,295.861 85.338,299.288 C85.76,297.48 86.218,295.85 86.711,294.395 C88.612,288.857 91.908,283.32 96.601,277.783 C96.702,277.664 96.802,277.547 96.9,277.431 C98.759,275.283 100.291,273.863 101.493,273.172 C102.901,272.374 103.605,272.703 103.605,274.157 C103.605,277.693 103.447,281.078 103.13,284.311 C103.054,285.138 102.966,285.954 102.866,286.756 C102.491,289.666 101.751,293.971 100.649,299.673 C99.428,306.042 96.718,311.826 92.519,317.024 C92.276,317.318 92.03,317.611 91.78,317.904 C90.513,319.406 88.999,320.966 87.239,322.585 C87.186,322.635 87.133,322.682 87.081,322.727 C87.516,323.004 87.968,323.28 88.436,323.554 C90.8,322.408 93.088,321 95.299,319.33 C95.782,318.96 96.264,318.578 96.742,318.186 L96.763,318.168 Z M165.48,17.763 C167.334,19.475 168.26,21.446 168.26,23.676 C168.26,25.365 167.532,27.043 166.078,28.709 C164.342,30.704 162.218,31.701 159.708,31.701 C155.86,31.701 153.161,30.364 151.612,27.689 C150.792,26.258 150.381,24.721 150.381,23.078 C150.381,19.911 151.308,17.599 153.161,16.145 C154.804,14.878 156.856,14.432 159.32,14.808 C161.691,15.182 163.744,16.167 165.48,17.763 Z M164.072,19.804 C162.711,18.561 161.14,17.727 159.356,17.305 C157.431,16.859 155.861,17.059 154.64,17.904 C153.208,18.913 152.493,20.673 152.493,23.183 C152.493,24.567 152.916,25.822 153.761,26.949 C155.004,28.592 156.951,29.413 159.604,29.413 C161.434,29.413 163.064,28.592 164.496,26.949 C165.645,25.635 166.22,24.579 166.22,23.782 C166.219,22.42 165.504,21.095 164.072,19.804 Z M147.918,66.438 C147.918,67.892 148.528,69.453 149.748,71.119 C151.344,73.348 153.455,74.463 156.084,74.463 C158.5,74.463 160.189,73.817 161.152,72.527 C161.714,71.776 161.996,70.873 161.996,69.817 C161.996,67.917 161.387,66.391 160.166,65.242 C158.523,63.693 155.614,62.496 151.437,61.651 C150.311,61.91 149.408,62.625 148.728,63.798 C148.188,64.713 147.918,65.593 147.918,66.438 Z M149.713,59.645 C152.178,58.331 154.348,58.46 156.225,60.032 C159.111,61.605 161.176,63.199 162.419,64.819 C163.545,66.274 164.107,67.904 164.107,69.712 C164.107,71.424 163.638,72.891 162.699,74.111 C161.34,75.871 159.169,76.75 156.189,76.75 C152.129,76.75 149.197,75.179 147.39,72.034 C146.333,70.204 145.806,68.374 145.806,66.544 C145.807,63.305 147.109,61.006 149.713,59.645 Z M91.36,35.009 C90.351,36.792 89.846,38.305 89.846,39.549 C89.846,41.028 90.456,42.282 91.677,43.315 C93.202,44.606 95.489,45.251 98.54,45.251 C100.746,45.251 102.306,44.676 103.221,43.526 C103.667,42.963 103.902,42.365 103.925,41.731 C103.925,40.417 103.045,38.435 101.285,35.783 C99.15,32.569 96.979,31.102 94.774,31.384 C93.554,31.923 92.416,33.131 91.36,35.009 Z M96.886,29.835 C99.326,30.445 101.426,31.829 103.186,33.988 C105.087,36.334 106.037,38.974 106.037,41.907 C106.037,43.104 105.697,44.159 105.016,45.074 C103.796,46.717 101.673,47.537 98.646,47.537 C94.305,47.537 91.208,46.364 89.354,44.018 C88.275,42.657 87.735,41.155 87.735,39.513 C87.735,35.594 88.685,32.79 90.586,31.101 C92.275,29.624 94.375,29.202 96.886,29.835 Z M78.268,61.687 C80.215,58.542 82.55,57.581 85.272,58.801 C86.492,60.161 87.888,61.734 89.46,63.517 C90.422,64.83 90.903,66.25 90.903,67.775 C90.903,69.324 90.551,70.685 89.847,71.858 C88.768,73.712 87.008,74.638 84.568,74.638 C81.447,74.638 79.124,73.477 77.599,71.154 C76.613,69.7 76.121,68.339 76.121,67.072 C76.121,65.78 76.836,63.985 78.268,61.687 Z M79.711,70.062 C80.978,71.587 82.562,72.35 84.462,72.35 C86.174,72.35 87.406,71.646 88.157,70.238 C88.579,69.417 88.79,68.537 88.79,67.598 C88.79,66.378 88.426,65.229 87.699,64.149 C87.042,63.14 85.998,62.12 84.567,61.087 C83.299,60.149 81.868,60.782 80.273,62.987 C78.912,64.887 78.231,66.26 78.231,67.105 C78.232,67.928 78.725,68.913 79.711,70.062 Z M121.065,76.573 C119,76.573 117.639,77.219 116.982,78.509 C116.724,79.026 116.595,79.8 116.595,80.832 C116.595,82.028 116.712,82.838 116.947,83.261 C117.533,84.434 118.906,85.021 121.065,85.021 C123.364,85.021 125.053,84.317 126.133,82.909 C126.813,82.041 127.154,81.161 127.154,80.269 C127.154,79.166 126.696,78.298 125.781,77.665 C124.725,76.938 123.153,76.573 121.065,76.573 Z M114.483,80.973 C114.483,79.26 114.952,77.806 115.891,76.609 C117.087,75.061 118.906,74.287 121.346,74.287 C126.625,74.287 129.265,76.246 129.265,80.164 C129.265,81.783 128.854,83.191 128.033,84.388 C126.672,86.335 124.326,87.309 120.994,87.309 C117.803,87.309 115.762,86.312 114.87,84.318 C114.589,83.684 114.436,82.969 114.413,82.172 C114.46,81.442 114.483,81.043 114.483,80.973 Z M62.747,49.157 C62.724,49.087 62.7,49.016 62.676,48.946 C59.438,51.245 56.329,53.228 53.349,54.894 C53.396,54.941 53.443,54.988 53.49,55.035 C54.382,55.786 55.907,56.161 58.065,56.161 C60.13,56.161 61.585,55.234 62.429,53.38 C62.851,52.465 63.075,51.538 63.097025,50.6 C63.099,50.318 62.981,49.837 62.747,49.157 Z M38.885,73.688 C40.011,75.635 40.574,77.595 40.574,79.566 C40.574,81.396 40.175,83.038 39.377,84.493 C38.11,86.84 35.987,88.013 33.007,88.013 C30.52,88.013 28.76,87.145 27.728,85.409 C27.141,84.447 26.848,83.438 26.848,82.383 C26.848,80.436 27.352,78.758 28.361,77.35 C29.346,76.013 31.259,74.288 34.098,72.176 C35.905,70.813 37.5,71.317 38.885,73.688 Z M30.438,78.475 C29.452,79.859 28.96,81.067 28.96,82.1 C28.96,82.968 29.194,83.718 29.664,84.352 C30.345,85.267 31.424,85.725 32.902,85.725 C35.06,85.725 36.632,84.728 37.618,82.733 C38.111,81.724 38.392,80.669 38.463,79.566 C38.463,77.126 37.97,75.588 36.985,74.956 C36.14,74.416 35.049,74.545 33.712,75.343 C32.514,76.046 31.423,77.09 30.438,78.475 Z M29.734,110.642 C28.701,109.869 27.446,109.551 25.968,109.692 C24.49,109.857 23.235,110.443 22.202,111.452 C21.076,112.556 20.513,113.951 20.513,115.64 C20.513,116.25 20.806,117.13 21.393,118.28 C22.167,119.829 23.117,120.603 24.244,120.603 C27.13,120.603 29.183,119.653 30.403,117.752 C31.083,116.695 31.424,115.581 31.424,114.408 C31.423,112.742 30.86,111.487 29.734,110.642 Z M33.535,114.127 C33.535,115.863 33.195,117.435 32.514,118.843 C31.224,121.518 28.924,122.855 25.616,122.855 C22.824,122.855 20.794,121.694 19.528,119.371 C18.777,118.011 18.402,116.708 18.402,115.465 C18.402,113.189 19.188,111.323 20.76,109.869 C22.168,108.578 23.904,107.863 25.968,107.722 C28.01,107.581 29.746,108.039 31.177,109.095 C32.749,110.267 33.535,111.944 33.535,114.127 Z M75.382,261.558 C73.904,265.359 72.801,269.641 72.074,274.404 C71.44,278.51 71.123,282.758 71.123,287.145 C71.123,290.313 71.475,293.855 72.179,297.774 C72.531,299.745 72.883,301.622 73.235,303.405 L73.235,304.355 C74.018,305.415 74.868,306.558 75.787,307.787 C76.19,308.329 76.607,308.886 77.036,309.458 C77.433,310.006 77.814,310.54 78.18,311.061 C79.893,313.497 81.318,315.708 82.456,317.695 C82.854,315.372 83.171,313.448 83.406,311.923 C83.547,310.797 83.676,309.777 83.793,308.861 L83.793,308.227 C83.793,307.851 83.752,307.258 83.67,306.45 C83.314,303.245 82.264,296.634 80.52,286.618 C80.177,284.647 79.849,282.781 79.535,281.022 C79.03,278.234 78.561,275.717 78.127,273.472 C77.044,267.85 76.176,263.937 75.523,261.735 L75.382,261.558 Z M165.375,313.329 C165.994,314.518 166.698,315.763 167.486,317.06 C169.216,319.907 171.351,323.016 173.892,326.386 C173.96,326.479 174.031,326.573 174.103,326.667 C174.134,326.651 174.157,326.54 174.173,326.333 L174.173,325.928 C174.173,324.532 174.027,323.067 173.734,321.529 C173.173,318.554 172.066,315.316 170.408,311.816 C167.709,306.161 164.624,302.254 161.152,300.095 C161.387,303.99 162.794,308.401 165.375,313.329 Z M136.973,311.534 C138.405,312.613 140.856,314.349 144.328,316.743 C147.355,318.925 149.478,320.814 150.699,322.409 C151.201,323.062 151.836,323.708 152.599,324.345 C153.878,325.391 155.521,326.411 157.526,327.407 C158.23,327.763 158.952,328.097 159.691,328.41 C161.846,329.338 164.134,330.083 166.554,330.645 C167.86,330.942 169.202,331.188 170.583,331.383 L174.524,331.383 C173.983,330.803 173.374,330.176 172.694,329.5 C171.923,328.735 171.061,327.908 170.108,327.019 C168.167,325.206 165.856,323.147 163.174,320.843 C162.914,320.614 162.651,320.386 162.382,320.156 C159.542,317.692 156.645,315.885 153.688,314.735 C149.958,313.281 144.584,312.095 137.569,311.181 L136.973,311.534 Z M177.271,329.624 C177.271,329.906 177.424,330.258 177.729,330.681 C178.01,331.056 178.209,331.243 178.327,331.243 C181.05,331.243 185.554,329.237 191.843,325.224 C196.911,321.987 200.736,319.171 203.316,316.778 C205.639,314.596 207.387,311.98 208.56,308.929 C209.57,306.325 210.074,303.686 210.074,301.01 C210.074,299.438 209.769,297.397 209.159,294.887 C208.15,290.804 207.635,288.716 207.611,288.621 L207.258,288.656 C206.226,290.038 205.052,291.739 203.739,293.76 C203.194,294.609 202.625,295.512 202.031,296.47 C201.559,297.234 201.073,298.032 200.571,298.864 C197.708,303.627 195.514,307.088 193.989,309.246 C192.874,310.801 190.321,313.892 186.335,318.52 C185.62,319.348 184.864,320.222 184.064,321.142 C182.838,322.558 181.776,323.796 180.878,324.855 C179.717,326.242 178.836,327.328 178.238,328.11 C177.594,328.961 177.271,329.465 177.271,329.624 Z M100.423,283.66 C100.62,280.936 100.861,278.825 101.145,277.325 C99.901,278.331 98.734,279.38 97.643,280.474 C92.498,285.658 89.056,291.87 87.313,299.11 C86.773,301.315 86.304,303.99 85.905,307.134 C85.677,308.83 85.472,310.666 85.289,312.642 C85.141,314.142 85.005,315.719 84.884,317.375 C84.8,318.55 84.718,319.77 84.638,321.036 C84.624,321.188 84.613,321.341 84.602,321.493 L84.638,321.528 C84.748,321.447 84.859,321.365 84.972,321.282 C87.449,319.411 89.613,317.386 91.466,315.211 C95.38,310.601 97.903,305.304 99.033,299.32 C99.526,296.716 99.901,292.962 100.159,288.058 C100.235,286.447 100.324,284.98 100.423,283.66 Z M115.222,305.833 C114.988,303.158 114.87,301.234 114.87,300.061 C111.562,305.223 108.805,309.071 106.599,311.605 C104.847,313.633 102.976,315.528 100.985,317.289 C98.078,319.859 94.916,322.141 91.5,324.135 L93.612,324.523 C98.125,324.354 101.966,323.456 105.138,321.831 C105.619,321.73 106.059,321.484 106.458,321.092 C108.427,319.881 110.104,318.351 111.491,316.498 C112.946,314.563 113.978,312.545 114.588,310.445 C115.011,308.946 115.222,307.41 115.222,305.833 Z M73.728,308.155 C73.094,307.334 72.449,306.513 71.792,305.692 C71.698,305.574 71.616,305.468 71.545,305.375 C68.143,301.198 64.588,297.362 60.881,293.866 C61.35,295.227 62.054,297.937 62.992,301.996 C63.813,305.61 64.658,308.461 65.526,310.549 C67.098,314.303 69.491,317.541 72.706,320.263 C74.935,322.14 77.551,323.771 80.554,325.156 C80.859,325.272 81.164,325.402 81.47,325.543 C81.634,325.284 81.728,325.073 81.751,324.909 C81.774,324.792 81.786,324.499 81.786,324.029 C81.786,323.352 81.692,322.614 81.505,321.812 C80.869,319.171 79.186,315.863 76.455,311.886 C75.639,310.703 74.729,309.46 73.728,308.155 Z M85.307,324.855 C85.328,325.12 85.374,325.15 85.448,324.943 C85.4,324.917 85.354,324.888 85.307,324.855 Z M48,308.684 C52.529,313.752 58.958,317.107 67.287,318.749 C64.472,313.61 61.574,309.622 58.594,306.783 C53.526,301.972 46.792,298.336 38.392,295.872 C39.589,297.163 41.149,299.239 43.073,302.102 C45.091,305.082 46.733,307.275 48,308.684 Z M195.748,290.241 C194.691,292.94 193.191,297.198 191.244,303.017 C189.343,308.342 187.407,312.707 185.436,316.109 L185.436,316.25 C187.265,314.115 191.536,308.05 198.246,298.055 C199.199,296.634 200.086,295.331 200.904,294.148 C199.809,291.941 198.502,289.396 196.98,286.511 C196.572,287.935 196.161,289.179 195.748,290.241 Z" id="path-1"></path>
        <path d="M240.24,43.954 C257.227,47.309 270.989,54.97 281.524,66.936 C285.912,71.91 289.301,77.212 291.695,82.844 C293.924,88.075 295.039,92.968 295.039,97.52 L295.039,98.154 C292.645,97.731 290.78,98.283 289.442,99.808 C288.269,101.145 287.683,102.846 287.683,104.911 C287.683,106.155 287.953,107.375 288.493,108.571 C289.385,110.66 290.874,111.704 292.962,111.704 L293.139,111.704 L293.104,111.88 L293.104,111.95 C293.081,111.997 293.057,112.055 293.033,112.127 C292.635,113.628 291.872,115.071 290.746,116.455 C289.08,118.519 286.992,119.81 284.481,120.327 C283.824,120.35 283.108,120.362 282.335,120.362 C279.871,120.362 276.832,119.599 273.219,118.074 C271.483,117.346 268.07,115.669 262.978,113.041 C253.522,108.161 246.155,105.721 240.875,105.721 C235.268,105.721 226.738,106.989 215.288,109.522 C203.814,112.056 193.96,113.324 185.726,113.324 C175.402,113.324 166.344,112.468 158.554,110.755 C153.486,109.652 147.48,107.752 140.534,105.053 C132.932,102.074 127.148,100.068 123.183,99.035 C115.816,97.111 107.439,95.996 98.054,95.691 C82.099,98.155 70.579,100.818 63.493,103.68 C58.307,105.744 51.949,109.71 44.417,115.576 C43.103,116.585 41.589,117.923 39.877,119.589 C39.736,119.706 39.595,119.835 39.455,119.976 C38.822,120.563 38.176,121.185 37.519,121.841 C33.671,125.666 31.571,127.742 31.219,128.07 C27.418,131.519 23.277,134.346 18.795,136.552 C17.552,137.068 16.519,137.49 15.698,137.819 C15.041,137.89 14.361,137.924 13.657,137.924 C9.41,137.924 5.926,134.827 3.204,128.633 C1.21,124.081 0.213,120.257 0.213,117.159 C0.213,112.56 1.362,107.328 3.662,101.463 C5.938,95.597 9.118,89.766 13.2,83.971 C22.469,70.784 33.402,61.328 46.002,55.604 C47.152,55.088 48.325,54.513 49.522,53.879 L50.191,54.724 C51.646,55.873 53.64,56.449 56.174,56.449 C58.99,56.449 60.984,55.416 62.157,53.352 C62.861,52.085 63.213,50.595 63.213,48.882 C63.213,47.638 62.932,46.583 62.368,45.715 C63.26,45.034 64.163,44.342 65.078,43.638 C70.076,39.743 75.965,34.64 82.746,28.328 C84.788,26.428 87.72,23.647 91.545,19.987 C94.923,16.937 98.173,14.403 101.294,12.385 C109.412,7.153 120.135,3.246 133.461,0.665 L138.635,0.665 C141.686,0.899 144.477,1.158 147.012,1.439 C147.973,1.579 148.983,1.744 150.038,1.931 C152.853,2.424 155.505,2.964 157.992,3.55 C158.953,3.738 161.289,4.887 164.996,6.999 C165.677,7.421 166.298,7.809 166.861,8.16 C167.846,8.958 168.703,9.579 169.43,10.025 C172.222,11.644 175.624,13.709 179.636,16.22 C181.912,17.651 185.255,19.751 189.667,22.519 C191.332,23.552 193.562,24.995 196.354,26.849 C196.001,27.506 195.826,28.257 195.826,29.101 C195.826,29.124 195.849,29.559 195.896,30.403 C196.037,31.412 196.307,32.327 196.707,33.148 C197.996,35.776 200.402,37.09 203.922,37.09 C206.315,37.09 208.051,36.679 209.131,35.859 C209.529,35.554 209.834,35.202 210.045,34.803 C217.927,38.464 227.993,41.514 240.24,43.954 Z M232.251,49.092 C230.069,48.928 228.251,49.409 226.796,50.535 C225.154,51.849 224.332,53.785 224.332,56.342 L224.332,57.468 C224.427,58.289 224.661,59.028 225.036,59.686 C226.257,61.75 228.778,62.783 232.603,62.783 C237.648,62.783 240.169,60.518 240.169,55.991 C240.169,54.09 239.348,52.471 237.705,51.134 C236.181,49.914 234.363,49.233 232.251,49.092 Z M190.545,94.635 C190.545,94.682 190.557,95.045 190.58,95.726 C190.675,96.547 190.897,97.298 191.249,97.979 C192.352,100.09 194.463,101.146 197.584,101.146 C200.494,101.146 202.758,99.973 204.377,97.626 C205.481,96.007 206.031,94.6 206.031,93.402 C206.031,91.127 205.22,89.414 203.602,88.264 C202.171,87.232 200.4,86.821 198.288,87.032 C196.199,87.244 194.429,87.995 192.975,89.285 C191.355,90.74 190.545,92.522 190.545,94.635 Z M263.398,85.555 C262.178,81.214 261.123,78.785 260.231,78.269 C257.133,77.894 254.552,78.657 252.488,80.557 C250.845,82.059 250.024,83.49 250.024,84.851 C250.024,84.874 250.071,85.261 250.166,86.012 C250.33,86.927 250.611,87.748 251.011,88.476 C252.231,90.823 254.307,91.996 257.24,91.996 C259.54,91.996 261.241,91.081 262.344,89.251 C263.047,88.053 263.398,86.821 263.398,85.555 Z M163.48,15.763 C161.744,14.167 159.691,13.182 157.321,12.806 C154.857,12.431 152.804,12.876 151.162,14.143 C149.308,15.598 148.382,17.909 148.382,21.076 C148.382,22.719 148.793,24.256 149.613,25.687 C151.162,28.362 153.861,29.699 157.709,29.699 C160.219,29.699 162.343,28.702 164.079,26.707 C165.533,25.041 166.261,23.364 166.261,21.674 C166.261,19.446 165.334,17.476 163.48,15.763 Z M147.713,57.645 C145.109,59.006 143.807,61.305 143.807,64.543 C143.807,66.373 144.334,68.203 145.391,70.033 C147.198,73.178 150.13,74.749 154.19,74.749 C157.169,74.749 159.34,73.87 160.7,72.11 C161.639,70.889 162.108,69.422 162.108,67.711 C162.108,65.903 161.546,64.273 160.42,62.818 C159.177,61.199 157.111,59.604 154.226,58.031 C152.348,56.46 150.178,56.331 147.713,57.645 Z M76.268,59.687 C74.837,61.986 74.122,63.781 74.122,65.072 C74.122,66.339 74.614,67.7 75.6,69.154 C77.125,71.477 79.448,72.638 82.569,72.638 C85.009,72.638 86.769,71.711 87.848,69.858 C88.552,68.685 88.904,67.324 88.904,65.775 C88.904,64.251 88.423,62.831 87.461,61.517 C85.889,59.734 84.493,58.161 83.273,56.801 C80.55,55.58 78.215,56.542 76.268,59.687 Z M94.886,27.835 C92.375,27.202 90.276,27.624 88.586,29.102 C86.686,30.791 85.735,33.595 85.735,37.514 C85.735,39.156 86.275,40.658 87.354,42.019 C89.208,44.365 92.305,45.538 96.646,45.538 C99.673,45.538 101.796,44.717 103.016,43.075 C103.697,42.16 104.037,41.104 104.037,39.908 C104.037,36.975 103.087,34.335 101.186,31.989 C99.426,29.829 97.326,28.445 94.886,27.835 Z M112.483,78.973 C112.483,79.043 112.46,79.443 112.413,80.17 C112.436,80.968 112.589,81.683 112.87,82.316 C113.762,84.31 115.803,85.307 118.994,85.307 C122.326,85.307 124.672,84.333 126.033,82.386 C126.854,81.19 127.265,79.782 127.265,78.162 C127.265,74.244 124.625,72.285 119.346,72.285 C116.906,72.285 115.087,73.059 113.891,74.607 C112.953,75.806 112.483,77.26 112.483,78.973 Z M36.885,71.688 C35.501,69.318 33.905,68.814 32.098,70.174 C29.259,72.286 27.347,74.011 26.361,75.348 C25.352,76.756 24.848,78.434 24.848,80.381 C24.848,81.437 25.141,82.445 25.728,83.407 C26.761,85.143 28.52,86.011 31.007,86.011 C33.987,86.011 36.11,84.838 37.377,82.491 C38.175,81.036 38.574,79.394 38.574,77.564 C38.574,75.595 38.011,73.635 36.885,71.688 Z M31.535,112.127 C31.535,109.944 30.749,108.267 29.177,107.094 C27.746,106.038 26.01,105.58 23.968,105.721 C21.903,105.863 20.167,106.577 18.76,107.868 C17.188,109.322 16.402,111.187 16.402,113.464 C16.402,114.707 16.777,116.01 17.528,117.37 C18.795,119.693 20.824,120.854 23.616,120.854 C26.924,120.854 29.224,119.517 30.514,116.842 C31.195,115.435 31.535,113.863 31.535,112.127 Z" id="path-3"></path>
        <path d="M180.219,13.116 C180.288,13.163 180.359,13.21 180.43,13.257 C183.784,15.439 186.894,17.257 189.756,18.712 C189.475,19.158 189.052,19.522 188.488,19.803 L183.455,19.838 C181.109,17.421 179.936,15.591 179.936,14.348 C179.937,14.09 180.03,13.679 180.219,13.116 Z M175.291,81.922 C174.868,81.242 174.657,80.433 174.657,79.494 C174.657,78.32 175.243,77.229 176.417,76.221 C177.496,75.306 178.786,74.696 180.288,74.391 C181.837,74.086 183.127,74.215 184.16,74.778 C185.333,75.459 185.92,76.609 185.92,78.227 C185.709,79.189 185.274,80.128 184.617,81.042 C183.326,82.919 181.638,83.858 179.549,83.858 C177.508,83.858 176.088,83.213 175.291,81.922 Z M220.059,41.096 C220.059,41.988 219.848,42.762 219.425,43.419 C218.557,44.804 216.938,45.495 214.569,45.495 C212.363,45.495 210.732,45.026 209.676,44.088 C208.855,43.36 208.445,42.457 208.445,41.378 C208.445,37.46 210.381,35.911 214.252,36.732 C215.731,37.037 217.056,37.636 218.23,38.527 C219.448,39.418 220.059,40.275 220.059,41.096 Z M238.712,65.803 C241.762,65.241 243.287,66.8 243.287,70.485 C243.287,70.93 243.041,71.67 242.548,72.702 C241.938,73.97 241.281,74.638 240.577,74.708 L237.832,74.708 C236.519,73.957 235.567,73.184 234.981,72.386 C234.418,71.612 234.136,70.767 234.136,69.852 C234.136,68.984 234.616,68.139 235.578,67.318 C236.494,66.519 237.538,66.014 238.712,65.803 Z M276.229,84.984 C276.487,84.914 276.733,84.82 276.967,84.703 C276.827,87.283 276.663,89.395 276.475,91.038 C276.405,91.319 276.311,91.718 276.194,92.234 C276.076,92.868 275.948,93.512 275.806,94.17 C275.76,94.147 275.712,94.123 275.665,94.1 C274.984,93.866 274.457,93.69 274.081,93.572 C272.556,93.056 271.794,91.837 271.794,89.912 C271.794,89.35 271.935,88.727 272.216,88.047 C272.568,87.226 273.049,86.593 273.659,86.147 C274.105,85.794 274.962,85.406 276.229,84.984 Z M127.918,49.438 C127.918,48.593 128.188,47.713 128.729,46.798 C129.409,45.624 130.312,44.909 131.438,44.651 C135.615,45.496 138.524,46.693 140.167,48.242 C141.388,49.391 141.997,50.917 141.997,52.817 C141.997,53.873 141.716,54.776 141.153,55.527 C140.19,56.817 138.501,57.463 136.085,57.463 C133.456,57.463 131.345,56.349 129.749,54.119 C128.528,52.452 127.918,50.892 127.918,49.438 Z M144.072,2.804 C145.504,4.095 146.218,5.42 146.218,6.781 C146.218,7.579 145.644,8.635 144.494,9.948 C143.062,11.591 141.432,12.412 139.602,12.412 C136.95,12.412 135.002,11.591 133.759,9.948 C132.914,8.822 132.491,7.567 132.491,6.182 C132.491,3.671 133.207,1.911 134.638,0.903 C135.859,0.058 137.429,-0.141 139.354,0.304 C141.141,0.728 142.711,1.561 144.072,2.804 Z M71.36,18.009 C72.416,16.132 73.554,14.924 74.774,14.384 C76.979,14.102 79.15,15.569 81.285,18.783 C83.045,21.434 83.925,23.417 83.925,24.731 C83.902,25.365 83.667,25.963 83.221,26.526 C82.306,27.676 80.746,28.251 78.54,28.251 C75.49,28.251 73.202,27.606 71.677,26.315 C70.457,25.282 69.846,24.027 69.846,22.549 C69.847,21.305 70.352,19.792 71.36,18.009 Z M101.065,59.573 C103.153,59.573 104.725,59.937 105.781,60.664 C106.696,61.298 107.154,62.166 107.154,63.268 C107.154,64.16 106.814,65.039 106.133,65.908 C105.053,67.316 103.364,68.02 101.065,68.02 C98.906,68.02 97.533,67.433 96.947,66.26 C96.713,65.837 96.595,65.028 96.595,63.831 C96.595,62.799 96.723,62.024 96.982,61.508 C97.639,60.219 99,59.573 101.065,59.573 Z M59.711,53.062 C58.725,51.913 58.232,50.927 58.232,50.106 C58.232,49.261 58.913,47.888 60.274,45.988 C61.869,43.782 63.3,43.149 64.568,44.088 C65.999,45.12 67.043,46.141 67.7,47.15 C68.428,48.23 68.791,49.379 68.791,50.599 C68.791,51.537 68.58,52.417 68.158,53.239 C67.407,54.647 66.175,55.351 64.463,55.351 C62.562,55.351 60.978,54.588 59.711,53.062 Z M42.747,32.157 C42.981,32.837 43.099,33.319 43.099,33.6 C43.076,34.538 42.853,35.465 42.431,36.38 C41.586,38.234 40.132,39.161 38.067,39.161 C35.908,39.161 34.383,38.786 33.492,38.035 C33.445,37.988 33.398,37.941 33.351,37.894 C36.331,36.228 39.44,34.246 42.678,31.946 C42.7,32.016 42.724,32.086 42.747,32.157 Z M9.734,93.642 C10.86,94.488 11.423,95.743 11.423,97.409 C11.423,98.582 11.083,99.696 10.402,100.753 C9.182,102.653 7.129,103.604 4.243,103.604 C3.117,103.604 2.167,102.83 1.392,101.281 C0.805,100.132 0.512,99.252 0.512,98.641 C0.512,96.952 1.075,95.556 2.201,94.453 C3.234,93.444 4.489,92.858 5.967,92.693 C7.447,92.551 8.702,92.868 9.734,93.642 Z M10.438,61.475 C11.423,60.09 12.514,59.046 13.711,58.342 C15.048,57.544 16.139,57.415 16.984,57.955 C17.969,58.588 18.462,60.125 18.462,62.565 C18.392,63.668 18.11,64.723 17.617,65.732 C16.632,67.727 15.059,68.724 12.901,68.724 C11.422,68.724 10.343,68.266 9.663,67.351 C9.194,66.717 8.959,65.967 8.959,65.099 C8.96,64.066 9.452,62.858 10.438,61.475 Z" id="path-5"></path>
        <path d="M72.994,52.926 C73.229,52.973 73.475,53.02 73.733,53.067 L73.663,53.067 C73.404,53.066 73.181,53.02 72.994,52.926 Z M186.567,16.886 C185.042,18.271 181.112,21.544 174.777,26.705 C168.935,31.469 164.734,34.624 162.177,36.173 C161.332,35.775 160.546,35.41 159.819,35.082 C159.724,35.035 159.643,35 159.573,34.977 C159.056,34.743 158.564,34.531 158.094,34.343 C159.314,32.864 162.177,29.509 166.682,24.278 C169.263,21.486 171.316,19.504 172.841,18.33 C173.897,18.26 174.952,18.178 176.008,18.084 C178.237,17.896 180.489,17.673 182.765,17.415 C184.033,17.25 185.301,17.074 186.567,16.886 Z M166.647,38.284 C167.89,36.173 171.656,33.685 177.945,30.823 C179.165,30.283 182.226,28.981 187.131,26.917 C190.416,25.532 192.551,24.523 193.536,23.89 C194.968,22.952 199.097,19.937 205.925,14.845 C207.309,13.86 208.541,13.003 209.62,12.276 C210.09,12.182 210.465,12.112 210.746,12.065 C211.989,11.854 213.222,11.666 214.441,11.503 C217.609,11.08 220.625,10.869 223.487,10.869 C225.927,10.869 229.188,11.585 233.27,13.015 C233.857,13.203 234.456,13.425 235.066,13.684 C234.503,15.303 230.232,17.895 222.254,21.462 C216.928,23.855 211.93,25.884 207.262,27.55 C205.056,28.324 201.888,29.286 197.759,30.437 C196.398,30.835 192.351,31.938 185.616,33.745 C185.147,33.863 182.178,34.966 176.712,37.054 C173.239,38.368 170.858,39.26 169.567,39.729 C169.52,39.706 169.485,39.682 169.462,39.659 C168.828,39.354 168.124,39.002 167.351,38.603 C167.21,38.556 167.08,38.498 166.964,38.427 C166.847,38.379 166.74,38.332 166.647,38.284 Z M168.23,41.839 C169.779,42.52 170.73,42.86 171.082,42.86 C171.927,42.86 172.49,42.8 172.771,42.683 L172.806,42.683 C172.9,42.613 172.982,42.531 173.052,42.437 C173.146,42.273 173.193,42.062 173.193,41.803 C173.193,41.639 172.207,41.052 170.236,40.043 C171.293,40.278 173.615,40.653 177.205,41.17 C181.147,41.709 183.682,41.98 184.808,41.98 C192.832,41.98 206.594,38.73 226.092,32.231 C230.972,30.588 237.576,28.347 245.906,25.508 C249.988,24.171 253.109,23.268 255.267,22.798 C255.737,23.009 256.123,23.185 256.429,23.326 C257.179,23.631 257.895,23.912 258.575,24.171 C259.42,24.476 260.218,24.745 260.969,24.981 C262.118,25.755 264.323,26.142 267.585,26.142 C267.866,26.142 268.137,26.13 268.395,26.107 C268.066,26.435 267.726,26.764 267.374,27.092 C263.713,30.612 261.109,32.946 259.561,34.096 C257.286,35.785 255.384,37.181 253.859,38.284 C252.592,39.199 251.595,39.927 250.868,40.467 L244.814,40.572 C237.681,41.581 230.466,42.461 223.169,43.212 C213.831,44.127 205.618,44.948 198.532,45.676 L181.639,45.676 C177.837,44.738 174.142,44.115 170.552,43.81 C168.792,43.646 167.912,43.271 167.912,42.684 C167.914,42.402 168.02,42.121 168.23,41.839 Z M166.014,53.595 C166.295,53.548 166.613,53.548 166.965,53.595 C167.034,53.783 167.034,54.064 166.965,54.44 C166.894,54.932 166.859,55.296 166.859,55.531 C166.859,56.235 168.149,58.218 170.731,61.479 C173.311,64.716 174.602,66.605 174.602,67.145 L174.602,67.356 C173.803,67.45 172.983,67.555 172.138,67.672 C171.528,67.742 170.907,67.814 170.272,67.884 C170.179,67.884 170.096,67.896 170.026,67.918 C169.065,68.036 168.185,68.142 167.387,68.235 C166.847,67.343 166.319,65.866 165.803,63.8 L165.134,60.316 C165.298,59.213 165.451,58.158 165.592,57.149 C165.615,56.961 165.639,56.785 165.662,56.621 C165.779,55.565 165.896,54.556 166.014,53.595 Z M166.612,47.506 C166.659,46.966 166.693,46.449 166.716,45.957 C168.124,46.122 169.251,46.333 170.095,46.591 C170.683,46.779 171.55,47.083 172.7,47.506 C175.609,48.28 182.319,48.902 192.831,49.371 C204.703,50.309 212.341,51.189 215.743,52.011 C217.267,52.386 218.476,52.844 219.368,53.384 C219.485,53.453 219.99,53.829 220.882,54.51 C219.944,54.838 218.992,55.178 218.031,55.531 C217.443,55.719 216.845,55.918 216.236,56.129 C211.73,57.678 207.789,58.956 204.41,59.966 C203.448,60.247 202.533,60.517 201.665,60.776 C200.562,60.259 199.014,59.473 197.019,58.418 C192.913,56.26 189.699,55.004 187.375,54.652 C184.23,54.135 180.219,53.185 175.338,51.801 C169.684,50.182 166.857,48.986 166.857,48.21 C166.857,47.999 166.927,47.835 167.068,47.718 C166.905,47.646 166.752,47.576 166.612,47.506 Z M23.439,24.876 C24.096,24.266 24.718,23.702 25.304,23.186 C26.453,22.154 27.498,21.274 28.436,20.546 C30.853,18.669 33.54,16.851 36.496,15.091 C37.059,14.739 37.645,14.4 38.256,14.07 C39.007,14.281 39.992,14.657 41.213,15.197 C42.925,15.947 45.073,16.897 47.653,18.048 C48.31,18.259 51.736,18.799 57.93,19.666 C65.204,20.723 69.873,21.426 71.938,21.778 C72.759,21.919 79.047,22.857 90.802,24.593 C94.11,25.203 96.938,25.824 99.284,26.458 C93.864,23.408 89.558,20.956 86.367,19.103 C82.355,16.756 80.313,15.56 80.243,15.513 C77.263,13.683 75.186,12.24 74.014,11.184 C70.166,7.735 67.878,5.659 67.151,4.955 C66.33,4.157 65.919,3.559 65.919,3.16 C65.919,3.043 65.931,2.926 65.954,2.808 C66.822,2.596 67.69,2.409 68.558,2.245 C71.725,1.611 74.858,1.189 77.955,0.978 C78.541,0.93 79.128,0.895 79.715,0.873 C81.075,2.093 82.471,4.04 83.903,6.715 C86.179,11.009 88.338,13.965 90.379,15.584 C91.177,16.382 92.773,17.402 95.166,18.646 C96.527,19.35 98.744,20.489 101.818,22.06 C106.769,24.782 109.549,27.363 110.159,29.803 C109.666,29.967 109.173,30.131 108.68,30.295 C108.351,30.413 108.047,30.53 107.765,30.648 C107.531,30.718 107.319,30.789 107.132,30.859 C106.451,31.118 105.83,31.364 105.267,31.598 C104.774,31.786 104.328,31.985 103.93,32.197 C103.014,32.619 102.299,33.029 101.783,33.428 C100.281,33.757 99.003,34.085 97.947,34.413 L88.655,34.589 C82.226,34.144 74.941,34.977 66.799,37.088 C62.364,38.237 56.909,40.056 50.434,42.543 C47.97,44.42 45.541,46.191 43.148,47.857 C40.942,49.359 38.948,50.521 37.165,51.341 C35.194,51.224 33.305,51.048 31.498,50.813 C28.659,50.461 25.996,49.957 23.509,49.3 C18.957,47.915 14.3,46.555 9.537,45.217 C6.674,44.397 3.765,43.586 0.808,42.788 C0.808,42.694 0.82,42.612 0.843,42.542 C0.89,42.542 0.937,42.53 0.984,42.507 C1.828,42.273 2.497,42.038 2.99,41.803 L3.095,41.803 C4.128,41.803 4.808,41.863 5.137,41.98 C5.325,42.074 5.583,42.226 5.911,42.437 C7.014,42.836 10.557,43.036 16.54,43.036 C18.91,43.036 24.799,42.027 34.207,40.01 C40.941,38.555 46.185,37.346 49.939,36.384 C53.787,35.352 58.515,34.32 64.123,33.287 C71.983,31.832 79.034,30.917 85.275,30.542 L92.42,30.542 C91.153,30.307 89.816,30.049 88.408,29.768 C78.647,27.797 73.509,26.776 72.992,26.706 L64.017,26.848 C61.483,26.8 57.06,26.989 50.748,27.41 C44.202,27.856 40.753,28.079 40.401,28.079 C34.207,28.079 29.338,27.375 25.795,25.968 C24.812,25.567 24.026,25.204 23.439,24.876 Z M120.084,27.621 C119.381,27.691 118.688,27.797 118.008,27.937 C117.844,27.937 117.692,27.96 117.551,28.007 C117.011,28.101 116.471,28.195 115.932,28.288 C114.946,26.294 112.893,21.777 109.773,14.738 C107.262,9.06 105.514,5.399 104.529,3.758 C105.28,3.946 106.113,4.18 107.028,4.462 C108.952,5.071 111.216,5.834 113.821,6.749 C114.571,7.008 115.357,7.289 116.178,7.594 C117.422,9.049 118.418,11.125 119.17,13.823 C120.037,16.92 120.472,20.146 120.472,23.502 C120.472,25.074 120.449,26.048 120.402,26.423 C120.33,26.847 120.225,27.245 120.084,27.621 Z M82.215,25.79 C81.699,25.72 81.323,25.673 81.089,25.649 L81.406,25.79 C82.321,26.049 83.072,26.271 83.658,26.459 C83.001,26.201 82.52,25.979 82.215,25.79 Z M107.379,33.076 C107.332,33.17 107.274,33.287 107.203,33.428 C106.804,33.851 106.358,34.378 105.866,35.012 C103.825,37.076 99.836,40.233 93.9,44.479 C92.516,45.324 91.213,46.016 89.993,46.556 C88.257,47.306 86.11,48.022 83.553,48.702 C82.309,49.03 80.339,49.864 77.64,51.201 C77.617,51.224 77.593,51.236 77.569,51.236 C76.373,51.048 75.152,50.873 73.909,50.709 C72.548,50.521 71.152,50.345 69.721,50.181 L62.858,50.181 C63.421,48.726 66.519,47.237 72.15,45.711 C73.816,45.242 76.315,44.597 79.646,43.774 C82.391,43.071 84.28,42.472 85.313,41.98 C87.73,40.83 91.742,38.695 97.35,35.574 C99.016,34.706 100.494,33.991 101.785,33.428 C101.104,33.92 100.764,34.39 100.764,34.836 C100.764,34.882 100.834,34.965 100.975,35.082 C101.304,35.363 101.585,35.61 101.82,35.821 C103.602,34.765 105.455,33.851 107.379,33.076 Z M131.98,13.296 C132.496,13.461 133.001,13.625 133.493,13.789 C134.643,14.142 135.734,14.47 136.766,14.774 C137.306,14.915 137.833,15.055 138.35,15.197 C138.232,15.995 137.271,18.364 135.464,22.305 C135.3,22.775 135.018,23.971 134.619,25.895 C134.36,26.599 134.032,27.163 133.634,27.584 C132.132,27.443 130.56,27.35 128.917,27.303 L128.917,25.966 C128.917,22.587 129.68,18.939 131.204,15.02 C131.487,14.317 131.745,13.742 131.98,13.296 Z M149.12,30.894 C148.486,30.613 147.947,30.39 147.501,30.225 C147.149,30.061 146.855,29.944 146.621,29.873 C146.387,29.802 146.164,29.732 145.953,29.662 C145.741,29.592 145.53,29.52 145.319,29.451 C144.896,29.098 144.685,28.899 144.685,28.852 C144.685,28.265 145.131,27.092 146.023,25.332 C146.937,23.619 147.431,22.669 147.501,22.481 C147.759,20.932 148.018,19.771 148.275,18.997 C148.509,18.269 148.874,17.776 149.367,17.518 C150.023,17.588 150.68,17.67 151.338,17.765 C153.426,18.023 155.526,18.222 157.638,18.363 C158.694,18.433 159.749,18.492 160.805,18.539 C160.43,19.337 158.823,21.284 155.983,24.382 C152.98,27.644 150.691,29.814 149.12,30.894 Z" id="path-7"></path>
        <path d="M156.095,34.343 C155.742,34.179 155.414,34.038 155.11,33.92 C153.327,33.475 151.462,32.817 149.514,31.949 C148.599,31.551 147.801,31.198 147.12,30.893 C148.691,29.814 150.98,27.643 153.982,24.382 C156.822,21.284 158.429,19.337 158.804,18.539 C159.978,18.562 161.174,18.574 162.394,18.574 C165.164,18.574 167.978,18.492 170.841,18.328 C169.316,19.502 167.263,21.484 164.682,24.276 C160.178,29.509 157.314,32.864 156.095,34.343 Z M163.134,60.316 L163.803,63.8 C164.319,65.865 164.847,67.343 165.387,68.235 C163.908,68.423 162.711,68.575 161.797,68.693 C162.289,65.689 162.734,62.897 163.134,60.316 Z M164.647,38.284 C163.028,37.487 161.538,36.783 160.177,36.173 C162.734,34.624 166.935,31.469 172.777,26.705 C179.112,21.544 183.042,18.27 184.567,16.886 C188.369,16.3 192.24,15.584 196.181,14.74 C201.766,13.497 205.577,12.676 207.619,12.276 C206.54,13.004 205.307,13.86 203.924,14.845 C197.096,19.937 192.967,22.951 191.535,23.89 C190.55,24.524 188.415,25.533 185.13,26.917 C180.226,28.981 177.164,30.283 175.944,30.823 C169.656,33.686 165.891,36.173 164.647,38.284 Z M233.066,13.684 C236.163,14.833 239.682,16.359 243.625,18.259 C248.176,20.441 251.391,21.954 253.268,22.799 C251.11,23.269 247.989,24.172 243.907,25.509 C235.577,28.348 228.972,30.589 224.093,32.232 C204.595,38.731 190.833,41.981 182.809,41.981 C181.683,41.981 179.149,41.71 175.206,41.171 C171.616,40.654 169.294,40.279 168.237,40.044 C168.026,39.95 167.803,39.845 167.569,39.728 C168.86,39.259 171.241,38.368 174.714,37.053 C180.181,34.965 183.15,33.863 183.618,33.744 C190.352,31.937 194.399,30.835 195.761,30.436 C199.89,29.286 203.058,28.324 205.264,27.549 C209.932,25.883 214.93,23.854 220.256,21.461 C228.232,17.895 232.503,15.303 233.066,13.684 Z M164.717,45.957 C164.812,44.386 164.859,42.954 164.859,41.663 L164.859,41.206 C165.352,41.417 165.809,41.628 166.231,41.839 C166.02,42.121 165.915,42.402 165.915,42.684 C165.915,43.271 166.795,43.646 168.555,43.81 C172.145,44.116 175.84,44.738 179.642,45.676 L196.535,45.676 C203.621,44.948 211.834,44.127 221.172,43.212 C228.469,42.461 235.684,41.581 242.817,40.572 L248.871,40.467 C248.331,40.865 247.933,41.148 247.675,41.312 C243.358,44.151 238.618,46.673 233.456,48.878 C229.256,50.661 224.399,52.538 218.886,54.51 C217.994,53.829 217.49,53.453 217.372,53.384 C216.48,52.844 215.271,52.386 213.747,52.011 C210.345,51.19 202.707,50.31 190.835,49.371 C180.323,48.901 173.613,48.28 170.704,47.506 C169.554,47.083 168.686,46.778 168.099,46.591 C167.252,46.333 166.125,46.122 164.717,45.957 Z M172.602,67.355 L172.602,67.144 C172.602,66.604 171.311,64.715 168.731,61.478 C166.149,58.216 164.859,56.234 164.859,55.53 C164.859,55.296 164.894,54.931 164.965,54.439 C165.034,54.063 165.034,53.782 164.965,53.594 C164.612,53.547 164.295,53.547 164.014,53.594 C164.272,51.365 164.471,49.335 164.613,47.505 C164.753,47.575 164.906,47.646 165.07,47.716 C164.929,47.833 164.859,47.997 164.859,48.208 C164.859,48.983 167.686,50.18 173.34,51.799 C178.221,53.183 182.233,54.133 185.377,54.65 C187.7,55.002 190.914,56.257 195.021,58.416 C197.015,59.472 198.564,60.258 199.667,60.774 C199.362,60.868 199.068,60.95 198.787,61.02 C197.169,61.466 194.821,62.298 191.748,63.518 C189.519,64.41 186.762,65.15 183.477,65.736 C180.825,66.229 177.199,66.77 172.602,67.355 Z M102.528,3.759 C103.513,5.401 105.261,9.062 107.772,14.739 C110.892,21.778 112.945,26.295 113.931,28.289 C112.007,28.688 110.083,29.192 108.159,29.803 C107.549,27.363 104.768,24.782 99.818,22.06 C96.744,20.489 94.527,19.35 93.166,18.646 C90.773,17.403 89.177,16.382 88.379,15.584 C86.338,13.965 84.179,11.009 81.903,6.715 C80.471,4.04 79.075,2.093 77.715,0.873 C78.723,0.825 79.733,0.802 80.741,0.802 C87.897,0.802 94.971,1.73 101.964,3.583 C102.153,3.63 102.34,3.688 102.528,3.759 Z M36.256,14.07 C38.814,12.592 41.547,11.161 44.457,9.776 C51.097,6.632 57.596,4.309 63.955,2.808 C63.932,2.925 63.92,3.042 63.92,3.16 C63.92,3.558 64.331,4.157 65.152,4.955 C65.88,5.659 68.167,7.735 72.015,11.184 C73.188,12.24 75.265,13.683 78.244,15.513 C78.314,15.56 80.355,16.756 84.368,19.103 C87.559,20.957 91.865,23.409 97.285,26.458 C94.939,25.824 92.111,25.203 88.803,24.593 C77.048,22.857 70.76,21.918 69.939,21.778 C67.874,21.425 63.205,20.722 55.931,19.666 C49.737,18.799 46.311,18.259 45.654,18.048 C43.073,16.898 40.926,15.947 39.214,15.197 C37.993,14.657 37.007,14.281 36.256,14.07 Z M0.991,41.804 C1.249,41.663 1.46,41.534 1.625,41.417 C5.191,39.704 8.98,36.947 12.993,33.146 C14.518,31.714 16.747,29.52 19.68,26.564 C20.29,25.978 20.877,25.415 21.44,24.876 C22.026,25.204 22.813,25.567 23.798,25.967 C27.341,27.374 32.21,28.078 38.404,28.078 C38.756,28.078 42.205,27.855 48.751,27.409 C55.063,26.987 59.485,26.799 62.02,26.847 L70.995,26.705 C71.511,26.775 76.65,27.797 86.411,29.767 C87.819,30.048 89.156,30.306 90.423,30.541 L83.278,30.541 C77.037,30.916 69.986,31.831 62.126,33.286 C56.519,34.318 51.791,35.35 47.942,36.383 C44.188,37.345 38.944,38.554 32.21,40.009 C22.801,42.027 16.912,43.035 14.543,43.035 C8.56,43.035 5.017,42.836 3.914,42.436 C3.585,42.225 3.327,42.073 3.14,41.979 C2.811,41.862 2.131,41.802 1.098,41.802 C1.05,41.804 1.015,41.804 0.991,41.804 Z M60.857,50.181 L58.217,50.181 C56.762,50.486 53.665,50.79 48.925,51.096 C44.89,51.354 42.238,51.483 40.971,51.483 C38.953,51.483 37.017,51.436 35.164,51.342 C36.947,50.522 38.941,49.36 41.147,47.858 C43.54,46.192 45.969,44.42 48.433,42.544 C54.909,40.057 60.364,38.238 64.798,37.089 C72.94,34.978 80.225,34.145 86.654,34.59 L95.946,34.414 C97.002,34.086 98.28,33.758 99.782,33.429 C98.491,33.992 97.013,34.707 95.347,35.575 C89.739,38.696 85.727,40.831 83.31,41.981 C82.277,42.473 80.389,43.072 77.643,43.775 C74.311,44.597 71.812,45.243 70.147,45.712 C64.518,47.236 61.42,48.726 60.857,50.181 Z M103.866,35.012 C102.505,36.725 100.757,39.188 98.622,42.403 C95.736,46.744 93.085,51.025 90.668,55.249 C89.612,54.476 87.254,53.665 83.593,52.821 C81.13,52.234 78.455,51.706 75.569,51.237 C75.592,51.237 75.616,51.225 75.64,51.202 C78.338,49.865 80.309,49.031 81.553,48.703 C84.11,48.022 86.258,47.307 87.993,46.557 C89.213,46.017 90.515,45.325 91.9,44.48 C97.835,40.232 101.825,37.076 103.866,35.012 Z M126.918,27.304 C125.98,27.257 125.018,27.222 124.032,27.199 C122.038,27.222 120.054,27.363 118.084,27.622 C118.225,27.246 118.33,26.848 118.401,26.425 C118.448,26.05 118.471,25.076 118.471,23.504 C118.471,20.149 118.036,16.922 117.169,13.825 C116.417,11.127 115.421,9.051 114.177,7.596 C115.937,8.23 117.837,8.933 119.878,9.707 C123.562,11.092 126.929,12.288 129.98,13.297 C129.745,13.743 129.487,14.318 129.205,15.022 C127.681,18.941 126.918,22.589 126.918,25.968 L126.918,27.304 Z M131.635,27.585 C132.033,27.163 132.362,26.6 132.62,25.896 C133.018,23.972 133.301,22.776 133.465,22.306 C135.272,18.365 136.233,15.995 136.351,15.198 C137.149,15.409 137.912,15.608 138.639,15.796 C141.5,16.5 144.41,17.075 147.368,17.521 C146.875,17.779 146.511,18.272 146.276,19 C146.018,19.774 145.759,20.936 145.502,22.484 C145.433,22.672 144.939,23.622 144.024,25.335 C143.132,27.095 142.686,28.268 142.686,28.855 C142.686,28.902 142.897,29.101 143.32,29.454 C140.316,28.559 136.421,27.938 131.635,27.585 Z" id="path-9"></path>
        <path d="M105.119,134.528 C103.992,133.613 102.89,133.156 101.81,133.156 C100.52,133.156 99.757,133.508 99.523,134.212 L99.523,135.796 C99.523,137.415 99.816,138.787 100.403,139.913 C100.989,141.063 101.283,142.154 101.283,143.186 C101.283,143.89 101.119,144.676 100.79,145.544 C100.227,146.951 99.394,147.655 98.291,147.655 C97.048,147.655 95.652,146.469 94.103,144.1 C92.531,141.73 91.287,140.545 90.373,140.545 C89.435,140.545 88.519,141.085 87.627,142.164 C86.735,143.243 86.091,143.783 85.691,143.783 C84.47,143.783 83.063,142.41 81.468,139.665 C79.989,136.662 79.11,134.902 78.827,134.386 C76.528,131.43 74.171,129.423 71.753,128.367 C69.196,127.241 67.917,127.933 67.917,130.443 C67.917,131.335 68.915,133.893 70.909,138.116 C72.903,142.34 73.9,146.188 73.9,149.66 C73.9,150.083 73.666,150.74 73.196,151.632 C72.727,152.5 72.492,153.439 72.492,154.447 C72.492,154.541 72.61,155.244 72.845,156.558 C73.454,157.848 74.745,158.494 76.716,158.494 C77.021,158.494 77.737,158.389 78.863,158.178 C79.989,157.967 80.692,157.861 80.975,157.861 C81.327,157.861 82.382,159.316 84.142,162.225 C86.371,165.134 88.799,166.589 91.427,166.589 C92.272,166.589 92.929,166.261 93.398,165.604 C93.727,165.111 93.891,164.583 93.891,164.02 C93.891,162.495 93.14,160.559 91.638,158.213 C90.137,156.148 89.385,155.01 89.385,154.799 C89.385,154.447 89.421,154.236 89.49,154.165 C89.56,154.095 89.596,154.036 89.596,153.989 L91.074,153.637 C91.308,153.778 92.26,154.586 93.926,156.065 C95.756,157.45 97.387,158.142 98.818,158.142 C100.86,158.142 102.384,156.98 103.393,154.658 C104.074,152.171 104.461,150.752 104.555,150.399 C104.873,150.59 105.466,151.084 106.332,151.878 C105.771,152.876 105.25,153.909 104.766,154.975 C103.522,157.65 102.666,160.207 102.196,162.648 C101.493,166.168 100.355,171.33 98.783,178.133 C97.566,183.682 96.698,188.445 96.179,192.422 C96.04,192.525 95.888,192.607 95.722,192.669 C95.167,190.165 94.734,188.347 94.419,187.213 C93.716,184.819 92.87,182.72 91.886,180.913 C87.286,172.349 83.474,168.067 80.447,168.067 C79.674,168.067 79.217,168.372 79.075,168.982 C79.052,169.029 79.04,169.509 79.04,170.424 C79.04,173.686 79.92,177.358 81.68,181.441 C82.52,183.375 83.704,185.685 85.235,188.374 C84.734,188.566 84.358,188.836 84.108,189.185 C84.051,189.271 83.993,189.371 83.932,189.484 C82.034,187.887 80.134,186.508 78.231,185.348 C72.366,181.805 65.889,180.034 58.803,180.034 C57.184,180.034 55.847,180.268 54.791,180.738 C53.828,181.16 53.348,181.653 53.348,182.216 C53.348,182.78 55.635,184.728 60.211,188.06 C64.237,190.995 66.795,192.872 67.883,193.691 C65.742,193.695 63.994,194.14 62.639,195.028 C61.912,195.498 61.22,196.049 60.563,196.682 L58.276,196.682 C57.594,195.931 56.821,194.464 55.953,192.283 C55.225,190.523 54.052,189.116 52.433,188.06 L48.913,188.06 C48.045,188.552 47.095,189.76 46.062,191.684 C45.147,193.397 43.868,194.499 42.226,194.993 L41.874,194.571 C41.804,193.89 41.686,193.315 41.522,192.846 C41.193,191.954 40.606,191.414 39.762,191.227 C37.838,191.719 36.629,191.649 36.137,191.015 C35.972,190.804 35.89,190.253 35.89,189.362 C36.219,187.93 36.336,186.523 36.242,185.138 C36.218,184.744 36.177,184.38 36.118,184.047 C36.232,183.809 36.332,183.585 36.417,183.378 C37.027,181.9 37.332,179.683 37.332,176.726 C37.332,175.202 37.215,173.664 36.98,172.116 C36.534,169.043 35.772,167.506 34.692,167.506 C34.504,167.506 33.05,169.607 30.328,173.807 C27.418,178.287 25.6,180.88 24.872,181.584 C22.212,184.135 20.183,186.06 18.783,187.356 C17.979,187.371 17.357,187.875 16.918,188.869 C16.868,188.975 16.814,189.075 16.76,189.168 L16.742,189.187 C16.264,189.579 15.783,189.96 15.299,190.331 C15.206,190.343 15.112,190.349 15.017,190.349 C14.258,190.349 13.425,189.575 12.518,188.026 C16.717,182.829 19.428,177.045 20.648,170.675 C21.751,164.973 22.49,160.668 22.865,157.758 C22.965,156.955 23.053,156.14 23.129,155.313 C23.275,155.324 23.421,155.331 23.569,155.331 C25.188,155.331 26.584,155.131 27.757,154.732 C28.93,154.31 29.611,154.098 29.799,154.098 C31.23,154.098 32.603,154.931 33.917,156.597 C34.598,157.489 35.689,159.33 37.19,162.122 C38.574,164.703 39.748,166.533 40.71,167.612 C42.188,169.278 43.807,170.111 45.567,170.111 C46.927,170.111 47.866,169.7 48.382,168.88 C48.734,168.34 48.91,167.495 48.91,166.346 C48.91,164.539 48.335,162.592 47.185,160.503 C46.904,160.034 45.543,157.982 43.102,154.344 C41.929,152.608 39.899,150.274 37.014,147.34 C35.324,145.627 34.48,143.939 34.48,142.273 C34.48,141.686 34.656,140.419 35.008,138.472 C35.36,136.525 35.536,135.281 35.536,134.742 C35.536,132.864 34.538,130.682 32.544,128.195 C30.55,126.013 29.553,124.781 29.553,124.5 C29.553,124.219 29.67,123.491 29.905,122.317 C30.139,121.168 30.257,120.44 30.257,120.135 C30.257,118.563 30.21,117.531 30.116,117.038 C29.975,116.404 29.506,115.113 28.708,113.166 C28.356,112.298 26.948,111.254 24.484,110.034 C21.95,108.766 20.484,107.734 20.085,106.937 C19.687,106.185 19.159,103.709 18.502,99.51 C17.892,95.614 17.587,93.198 17.587,92.26 C17.587,91.016 17.939,88.423 18.643,84.482 C19.347,80.541 19.699,78.112 19.699,77.197 C19.699,74.922 19.277,73.994 18.431,74.417 C17.704,74.792 16.789,76.117 15.686,78.394 C13.012,83.978 11.65,89.093 11.603,93.74 C11.204,96.062 10.606,100.027 9.808,105.636 C8.893,112.205 8.435,116.101 8.435,117.321 C8.435,122.483 9.96,126.753 13.011,130.132 C14.958,132.291 16.002,133.487 16.143,133.722 C17.105,135.083 17.586,136.573 17.586,138.192 C17.586,138.498 17.468,139.647 17.234,141.641 C16.999,143.635 16.882,144.774 16.882,145.055 C16.882,145.078 16.859,145.629 16.812,146.709 C16.812,147.307 16.841,147.881 16.9,148.434 C16.802,148.549 16.702,148.666 16.601,148.786 C11.908,154.323 8.612,159.86 6.711,165.398 C6.218,166.852 5.761,168.483 5.338,170.291 C4.963,166.864 4.376,163.181 3.579,159.239 C2.245,153.181 1.177,148.009 0.376,143.718 C1.582,132.1 2.685,123.02 3.685,116.477 C5.843,102.375 8.718,89.811 12.308,78.784 C15.663,68.46 17.751,62.125 18.573,59.779 C21.131,52.551 23.735,46.217 26.386,40.773 C28.45,36.573 30.867,32.021 33.636,27.118 C33.261,28.713 33.073,29.839 33.073,30.496 C33.073,30.543 33.085,31.071 33.108,32.08 C33.483,33.065 34.528,33.559 36.241,33.559 C39.619,33.559 43.374,30.063 47.503,23.071 C47.808,23.517 47.996,24.197 48.066,25.113 C48.113,25.652 48.171,26.462 48.242,27.541 C48.548,29.441 49.709,30.393 51.726,30.393 C52.36,30.393 53.029,30.04 53.732,29.336 C54.413,28.633 54.918,28.28 55.246,28.28 C55.598,28.28 55.808,28.339 55.88,28.456 C55.903,28.526 55.927,28.585 55.95,28.633 C55.95,32.034 55.962,33.818 55.985,33.982 C56.338,36.516 57.439,37.784 59.294,37.784 C59.88,37.784 60.572,36.717 61.37,34.581 C62.379,31.577 63.177,29.22 63.764,27.507 C66.11,20.632 68.468,17.195 70.838,17.195 C71.471,17.195 72.011,17.64 72.457,18.532 C72.738,19.071 73.16,20.069 73.723,21.523 C75.061,24.385 77.231,25.817 80.235,25.817 C81.901,25.817 83.133,25.313 83.93,24.303 C84.517,23.553 84.81,22.685 84.81,21.699 C84.81,20.386 84,19.435 82.382,18.848 C80.622,18.191 79.567,17.019 79.215,15.328 C79.355,13.944 79.227,12.76 78.826,11.773 C78.099,9.873 76.281,8.922 73.371,8.922 C71.494,8.922 69.84,9.802 68.409,11.562 C66.955,13.322 65.324,14.202 63.517,14.202 C62.179,14.202 61.205,15.187 60.595,17.158 C60.243,18.238 59.867,19.774 59.469,21.769 C59.281,21.769 59.023,21.721 58.695,21.628 C58.39,21.533 58.191,21.486 58.097,21.486 C58.097,19.984 58.074,19.046 58.026,18.671 C57.792,17.099 57.216,16.314 56.302,16.314 C56.02,16.314 55.538,16.572 54.859,17.087 C54.108,17.627 53.591,17.92 53.31,17.967 L53.31,17.791 C53.544,16.829 53.755,15.668 53.943,14.307 C54.108,13.111 54.19,12.254 54.19,11.738 C54.19,9.791 53.627,8.183 52.501,6.917 C51.141,5.392 49.721,6.471 48.242,10.154 C47.515,12.032 46.694,13.71 45.779,15.187 C44.348,17.51 43.046,18.671 41.872,18.671 C41.684,18.671 41.368,18.225 40.922,17.333 C40.687,16.864 40.394,16.513 40.042,16.277 C40.277,15.879 40.523,15.468 40.781,15.046 C45.732,6.998 48.207,2.892 48.207,2.728 C48.207,2.587 48.195,2.47 48.171,2.376 C49.907,1.742 51.691,1.215 53.521,0.792 C53.544,0.98 53.65,1.813 53.837,3.291 C54.354,5.168 55.292,6.106 56.653,6.106 C56.841,6.106 57.627,5.848 59.01,5.332 C60.395,4.792 61.862,4.522 63.41,4.522 C65.709,4.522 67.234,5.027 67.984,6.036 C68.713,7.021 69.509,7.515 70.378,7.515 C71.129,7.515 71.845,7.092 72.525,6.247 C73.205,5.379 73.697,4.945 74.003,4.945 C74.496,4.945 75.094,5.731 75.798,7.302 C76.479,8.851 77.487,9.625 78.824,9.625 C80.256,9.625 81.359,9.133 82.133,8.146 C82.932,7.137 83.67,6.633 84.351,6.633 C85.477,6.633 86.791,7.372 88.292,8.85 C89.794,10.305 91.014,11.032 91.953,11.032 C94.978,9.296 96.949,8.088 97.865,7.407 C99.179,8.017 100.939,8.85 103.144,9.906 C102.839,10.868 102.687,12.182 102.687,13.848 C102.687,15.631 101.865,16.593 100.222,16.734 C99.378,16.804 98.815,16.957 98.533,17.192 C98.017,17.567 97.76,18.306 97.76,19.409 C97.76,20.465 97.994,21.803 98.463,23.421 C98.934,25.017 99.168,26.226 99.168,27.047 C99.168,28.29 98.745,29.662 97.9,31.164 C97.689,31.539 96.761,32.935 95.12,35.352 C92.422,39.34 91.072,43.176 91.072,46.861 C91.072,47.87 91.366,49.054 91.953,50.415 C92.539,51.753 92.832,53.267 92.832,54.956 C92.832,58.358 91.965,62.241 90.228,66.605 C88.491,70.969 87.623,73.773 87.623,75.016 C87.623,77.035 87.894,79.076 88.434,81.14 C88.973,83.205 89.243,84.882 89.243,86.173 C89.243,86.361 88.798,87.475 87.906,89.517 C87.014,91.816 86.568,93.669 86.568,95.078 C86.568,96.157 86.756,96.908 87.131,97.33 C87.319,97.518 87.776,97.741 88.503,97.999 C89.982,98.516 90.955,100.028 91.425,102.54 C91.613,103.571 91.765,104.933 91.883,106.622 C92.023,109.086 92.106,110.446 92.129,110.704 C92.199,111.338 92.141,112.781 91.953,115.034 C91.741,117.356 91.682,119.151 91.776,120.418 C92.105,124.759 94.216,126.918 98.111,126.895 C98.862,127.668 100.047,128.936 101.666,130.696 C102.816,131.94 103.801,132.866 104.623,133.476 C104.791,133.824 104.955,134.177 105.119,134.528 Z M33.779,54.108 C34.483,52.325 34.835,50.988 34.835,50.096 C34.835,47.373 33.837,46.505 31.843,47.492 C29.825,48.476 28.194,50.659 26.951,54.038 C26.904,53.568 26.845,53.275 26.775,53.158 C26.564,52.76 26.083,52.559 25.332,52.559 C24.112,52.559 22.821,54.577 21.461,58.613 C20.287,62.109 19.701,64.608 19.701,66.11 L19.701,67.13 C19.865,67.74 20.334,68.046 21.109,68.046 C22.282,68.046 23.608,67.623 25.086,66.778 C26.587,65.91 27.983,65.476 29.274,65.476 C30.072,65.476 30.47,66.344 30.47,68.08 C30.493,69.018 30.424,70.32 30.259,71.986 C30.259,73.276 30.927,74.38 32.265,75.295 C33.063,75.857 34.517,76.668 36.629,77.724 C38.295,78.685 39.034,80.739 38.846,83.883 C38.635,87.73 38.834,90.218 39.445,91.344 C39.891,92.189 40.782,93.42 42.12,95.039 C43.105,96.212 43.61,97.15 43.633,97.854 C43.75,101.491 43.867,103.779 43.985,104.717 C44.173,106.101 44.161,108.894 43.95,113.093 C44.232,116.613 45.827,118.372 48.737,118.372 C49.793,118.372 50.438,117.258 50.673,115.029 L50.673,111.157 C50.72,105.244 50.426,100.809 49.793,97.853 C49.558,96.774 48.772,94.474 47.435,90.955 C46.355,88.069 45.792,85.793 45.746,84.128 C45.699,82.345 44.89,80.057 43.317,77.265 C43.059,76.772 42.074,75.798 40.361,74.343 C39.024,73.171 38.355,71.974 38.355,70.754 C38.355,70.731 38.39,69.557 38.461,67.234 C38.484,65.849 38.449,64.735 38.355,63.89 C38.261,63.069 37.288,61.954 35.434,60.546 C33.627,59.185 32.724,58.2 32.724,57.59 C32.724,57.029 33.076,55.868 33.779,54.108 Z M115.748,161.241 C116.161,160.179 116.572,158.934 116.98,157.511 C118.501,160.396 119.809,162.941 120.904,165.148 C120.086,166.332 119.199,167.634 118.246,169.055 C111.536,179.05 107.266,185.116 105.436,187.25 L105.436,187.109 C107.407,183.708 109.342,179.342 111.244,174.017 C113.191,168.198 114.691,163.94 115.748,161.241 Z" id="path-11"></path>
        <path d="M1.211,3.382 C0.812,2.514 0.459,1.681 0.154,0.883 C0.835,1.704 1.188,2.537 1.211,3.382 Z" id="path-13"></path>
        <path d="M33.044,17.273 C33.396,17.508 33.689,17.86 33.924,18.329 C34.37,19.221 34.687,19.667 34.874,19.667 C36.047,19.667 37.35,18.506 38.781,16.183 C39.696,14.705 40.517,13.028 41.244,11.15 C42.723,7.466 44.142,6.387 45.503,7.913 C46.629,9.18 47.192,10.787 47.192,12.734 C47.192,13.251 47.11,14.107 46.945,15.303 C46.757,16.664 46.547,17.825 46.312,18.787 L46.312,18.963 C46.593,18.916 47.11,18.623 47.861,18.083 C48.541,17.567 49.022,17.31 49.304,17.31 C50.218,17.31 50.793,18.095 51.028,19.667 C51.076,20.042 51.099,20.98 51.099,22.482 C51.193,22.482 51.392,22.529 51.697,22.624 C52.025,22.717 52.284,22.765 52.471,22.765 C52.869,20.77 53.245,19.234 53.597,18.154 C54.207,16.183 55.181,15.198 56.519,15.198 C58.326,15.198 59.957,14.318 61.411,12.558 C62.842,10.798 64.496,9.918 66.373,9.918 C69.283,9.918 71.102,10.868 71.828,12.769 C72.228,13.755 72.356,14.94 72.217,16.324 C72.569,18.014 73.624,19.186 75.384,19.844 C77.002,20.431 77.812,21.381 77.812,22.695 C77.812,23.681 77.519,24.549 76.932,25.299 C76.135,26.309 74.903,26.813 73.237,26.813 C70.233,26.813 68.063,25.381 66.725,22.519 C66.163,21.065 65.741,20.067 65.459,19.528 C65.013,18.636 64.473,18.191 63.84,18.191 C61.47,18.191 59.111,21.628 56.766,28.503 C56.179,30.216 55.381,32.573 54.372,35.577 C53.574,37.713 52.882,38.78 52.296,38.78 C50.442,38.78 49.34,37.512 48.987,34.978 C48.964,34.814 48.952,33.031 48.952,29.629 C48.929,29.581 48.905,29.523 48.882,29.452 C48.811,29.335 48.6,29.276 48.248,29.276 C47.92,29.276 47.415,29.629 46.734,30.332 C46.031,31.036 45.362,31.389 44.728,31.389 C42.71,31.389 41.549,30.438 41.244,28.537 C41.174,27.458 41.115,26.648 41.068,26.109 C40.998,25.193 40.81,24.513 40.505,24.067 C36.376,31.059 32.621,34.555 29.243,34.555 C27.53,34.555 26.486,34.062 26.11,33.076 C26.087,32.067 26.075,31.539 26.075,31.492 C26.075,30.835 26.263,29.709 26.638,28.114 C27.6,26.424 28.597,24.7 29.629,22.94 C30.263,21.86 30.92,20.757 31.6,19.631 C32.07,18.857 32.551,18.071 33.044,17.273 Z M96.148,10.903 C96.617,11.137 97.122,11.384 97.662,11.642 C96.911,13.449 96.488,14.951 96.394,16.147 C96.371,16.64 96.347,17.122 96.324,17.59 C96.019,21.836 95.808,24.441 95.691,25.403 C95.503,27.608 95.033,30.623 94.283,34.448 C93.391,38.976 92.84,42.026 92.629,43.598 C91.995,48.173 90.975,54.332 89.567,62.076 C88.488,68.786 87.948,74.805 87.948,80.131 C87.948,82.431 88.16,86.7 88.583,92.942 C88.958,98.785 89.251,102.492 89.462,104.064 C90.425,110.986 90.999,114.962 91.187,115.995 C92.032,120.665 93.182,124.688 94.636,128.067 C94.659,128.09 94.671,128.126 94.671,128.172 C95.422,129.885 96.407,131.984 97.628,134.472 C96.806,133.862 95.821,132.936 94.671,131.692 C93.052,129.932 91.867,128.665 91.116,127.891 C87.221,127.914 85.11,125.755 84.781,121.414 C84.686,120.147 84.746,118.352 84.958,116.03 C85.146,113.777 85.204,112.334 85.134,111.7 C85.111,111.442 85.028,110.082 84.888,107.618 C84.77,105.929 84.617,104.567 84.43,103.536 C83.96,101.024 82.988,99.512 81.508,98.995 C80.78,98.737 80.323,98.515 80.136,98.326 C79.76,97.904 79.573,97.153 79.573,96.074 C79.573,94.666 80.019,92.812 80.911,90.513 C81.803,88.471 82.248,87.357 82.248,87.169 C82.248,85.878 81.978,84.201 81.439,82.136 C80.899,80.072 80.628,78.031 80.628,76.012 C80.628,74.769 81.496,71.965 83.233,67.601 C84.969,63.237 85.837,59.354 85.837,55.952 C85.837,54.263 85.544,52.749 84.958,51.411 C84.371,50.051 84.077,48.866 84.077,47.857 C84.077,44.172 85.427,40.336 88.125,36.348 C89.767,33.931 90.694,32.535 90.905,32.16 C91.75,30.658 92.173,29.286 92.173,28.043 C92.173,27.222 91.939,26.013 91.468,24.417 C90.999,22.799 90.765,21.461 90.765,20.405 C90.765,19.302 91.023,18.563 91.538,18.188 C91.82,17.953 92.384,17.8 93.227,17.73 C94.87,17.589 95.692,16.627 95.692,14.844 C95.691,13.18 95.844,11.865 96.148,10.903 Z M46.523,1.788 C47.11,1.647 47.72,1.518 48.353,1.4 C48.541,1.354 48.74,1.318 48.952,1.295 C53.316,0.545 59.076,0.169 66.232,0.169 C70.714,0.169 77.953,2.457 87.947,7.032 C87.994,7.055 88.042,7.079 88.089,7.102 C88.487,7.266 89.414,7.701 90.869,8.404 C89.953,9.085 87.982,10.293 84.957,12.029 C84.018,12.029 82.798,11.302 81.296,9.847 C79.795,8.369 78.481,7.63 77.355,7.63 C76.674,7.63 75.936,8.134 75.137,9.143 C74.364,10.129 73.26,10.622 71.828,10.622 C70.491,10.622 69.482,9.848 68.802,8.299 C68.098,6.728 67.5,5.942 67.007,5.942 C66.701,5.942 66.209,6.376 65.529,7.244 C64.848,8.089 64.133,8.512 63.382,8.512 C62.514,8.512 61.717,8.019 60.988,7.033 C60.238,6.024 58.713,5.519 56.414,5.519 C54.865,5.519 53.398,5.789 52.014,6.329 C50.63,6.846 49.844,7.103 49.657,7.103 C48.296,7.103 47.357,6.165 46.841,4.288 C46.652,2.809 46.547,1.976 46.523,1.788 Z M16.133,156.312 C16.45,153.079 16.608,149.694 16.608,146.158 C16.608,144.704 15.904,144.375 14.496,145.173 C13.294,145.863 11.763,147.283 9.903,149.432 C9.844,148.879 9.815,148.305 9.815,147.707 C9.862,146.627 9.885,146.076 9.885,146.053 C9.885,145.772 10.002,144.633 10.237,142.639 C10.471,140.645 10.589,139.495 10.589,139.19 C10.589,137.571 10.108,136.082 9.146,134.72 C9.005,134.486 7.961,133.289 6.014,131.13 C2.963,127.751 1.438,123.482 1.438,118.319 C1.438,117.099 1.896,113.204 2.811,106.634 C3.609,101.026 4.207,97.061 4.606,94.738 C4.653,90.092 6.014,84.976 8.689,79.392 C9.792,77.116 10.707,75.79 11.434,75.415 C12.279,74.992 12.702,75.92 12.702,78.195 C12.702,79.11 12.35,81.539 11.646,85.48 C10.942,89.421 10.59,92.014 10.59,93.258 C10.59,94.196 10.895,96.612 11.505,100.508 C12.162,104.707 12.69,107.183 13.088,107.935 C13.487,108.732 14.953,109.764 17.487,111.032 C19.951,112.252 21.359,113.296 21.711,114.164 C22.508,116.111 22.978,117.402 23.119,118.036 C23.213,118.528 23.26,119.56 23.26,121.133 C23.26,121.438 23.143,122.165 22.908,123.315 C22.673,124.489 22.556,125.216 22.556,125.498 C22.556,125.78 23.553,127.012 25.547,129.193 C27.541,131.68 28.539,133.862 28.539,135.74 C28.539,136.279 28.363,137.523 28.011,139.47 C27.659,141.417 27.483,142.684 27.483,143.271 C27.483,144.937 28.327,146.625 30.017,148.338 C32.903,151.272 34.932,153.606 36.105,155.342 C38.545,158.98 39.906,161.032 40.188,161.501 C41.338,163.59 41.913,165.537 41.913,167.344 C41.913,168.493 41.737,169.338 41.385,169.878 C40.869,170.698 39.93,171.109 38.57,171.109 C36.81,171.109 35.191,170.276 33.713,168.61 C32.751,167.531 31.578,165.701 30.193,163.12 C28.692,160.328 27.6,158.486 26.92,157.595 C25.606,155.929 24.233,155.096 22.802,155.096 C22.614,155.096 21.934,155.308 20.76,155.73 C19.587,156.128 18.191,156.329 16.572,156.329 C16.425,156.329 16.279,156.322 16.133,156.312 Z M8.302,191.33 C6.091,193 3.803,194.407 1.439,195.554 C0.971,195.28 0.519,195.004 0.084,194.727 C0.136,194.682 0.189,194.635 0.242,194.585 C2.002,192.967 3.515,191.406 4.783,189.904 C5.033,189.611 5.279,189.318 5.522,189.024 C6.429,190.573 7.262,191.347 8.021,191.347 C8.115,191.348 8.209,191.342 8.302,191.33 Z M11.786,188.356 C10.796,189.274 10.121,189.878 9.763,190.168 C9.818,190.075 9.871,189.976 9.921,189.869 C10.36,188.875 10.982,188.371 11.786,188.356 Z M88.723,193.671 C88.889,193.609 89.041,193.526 89.18,193.424 C89.131,193.819 89.084,194.206 89.039,194.585 L88.934,194.585 C88.864,194.271 88.793,193.966 88.723,193.671 Z M60.883,194.691 C61.227,194.945 61.426,195.098 61.482,195.148 C62.21,195.829 63.265,196.884 64.65,198.316 C65.756,199.382 66.871,200.251 67.993,200.92 C64.605,201.264 60.969,201.593 57.083,201.905 L35.086,201.975 C33.514,201.811 27.531,200.778 17.136,198.877 C15.009,198.483 13.109,198.132 11.434,197.821 C13.594,197.687 14.861,197.593 15.235,197.54 C16.502,197.352 18.238,196.508 20.444,195.006 C22.391,193.669 23.752,192.53 24.527,191.592 C26.793,188.795 28.324,186.613 29.12,185.046 C29.179,185.379 29.22,185.743 29.244,186.137 C29.338,187.522 29.221,188.929 28.892,190.361 C28.892,191.253 28.974,191.803 29.139,192.014 C29.631,192.648 30.84,192.718 32.764,192.226 C33.608,192.414 34.195,192.954 34.524,193.845 C34.688,194.314 34.805,194.889 34.876,195.57 L35.228,195.992 C36.87,195.499 38.149,194.396 39.064,192.683 C40.097,190.759 41.047,189.551 41.915,189.059 L45.435,189.059 C47.053,190.115 48.227,191.522 48.955,193.282 C49.823,195.464 50.597,196.93 51.278,197.681 L53.565,197.681 C54.222,197.047 54.915,196.496 55.641,196.027 C56.994,195.141 58.742,194.695 60.883,194.691 Z M78.234,189.376 C78.963,190.676 79.771,192.061 80.663,193.529 L80.416,193.529 C79.149,192.403 78.012,191.406 77.002,190.538 C76.981,190.52 76.958,190.503 76.932,190.485 C76.993,190.372 77.051,190.272 77.108,190.186 C77.357,189.838 77.733,189.568 78.234,189.376 Z M98.119,135.528 C99.645,138.625 101.5,142.273 103.68,146.474 C103.258,147.013 102.836,147.565 102.413,148.127 C101.285,149.622 100.258,151.206 99.334,152.879 C98.468,152.085 97.875,151.592 97.557,151.4 C97.463,151.753 97.076,153.171 96.395,155.659 C95.386,157.981 93.862,159.143 91.82,159.143 C90.389,159.143 88.758,158.451 86.928,157.066 C85.262,155.587 84.311,154.779 84.076,154.638 L82.598,154.99 C82.598,155.037 82.562,155.095 82.492,155.166 C82.423,155.236 82.387,155.448 82.387,155.8 C82.387,156.011 83.139,157.149 84.64,159.214 C86.142,161.56 86.893,163.495 86.893,165.021 C86.893,165.584 86.729,166.112 86.4,166.605 C85.931,167.262 85.274,167.59 84.429,167.59 C81.801,167.59 79.372,166.135 77.144,163.226 C75.384,160.317 74.329,158.862 73.977,158.862 C73.694,158.862 72.991,158.968 71.865,159.179 C70.738,159.39 70.022,159.495 69.718,159.495 C67.747,159.495 66.456,158.849 65.847,157.559 C65.613,156.245 65.494,155.541 65.494,155.448 C65.494,154.439 65.729,153.501 66.198,152.633 C66.668,151.741 66.902,151.084 66.902,150.661 C66.902,147.189 65.905,143.341 63.911,139.117 C61.917,134.894 60.919,132.336 60.919,131.444 C60.919,128.934 62.198,128.242 64.755,129.368 C67.173,130.424 69.53,132.43 71.829,135.387 C72.111,135.904 72.991,137.663 74.47,140.666 C76.065,143.411 77.472,144.784 78.693,144.784 C79.092,144.784 79.737,144.244 80.629,143.165 C81.521,142.086 82.437,141.546 83.375,141.546 C84.289,141.546 85.533,142.731 87.105,145.101 C88.654,147.47 90.049,148.656 91.293,148.656 C92.397,148.656 93.229,147.952 93.792,146.545 C94.121,145.677 94.285,144.891 94.285,144.187 C94.285,143.155 93.991,142.064 93.405,140.914 C92.818,139.788 92.525,138.416 92.525,136.797 L92.525,135.213 C92.759,134.509 93.522,134.157 94.812,134.157 C95.891,134.156 96.992,134.613 98.119,135.528 Z M26.779,55.108 C26.075,56.868 25.723,58.029 25.723,58.592 C25.723,59.202 26.626,60.187 28.433,61.548 C30.287,62.956 31.26,64.07 31.354,64.892 C31.448,65.737 31.483,66.851 31.46,68.236 C31.389,70.558 31.354,71.732 31.354,71.756 C31.354,72.976 32.023,74.173 33.36,75.345 C35.073,76.8 36.058,77.774 36.316,78.267 C37.888,81.059 38.698,83.347 38.745,85.13 C38.792,86.795 39.355,89.071 40.434,91.957 C41.771,95.477 42.557,97.776 42.792,98.855 C43.425,101.811 43.719,106.246 43.672,112.159 L43.672,116.031 C43.437,118.26 42.792,119.374 41.736,119.374 C38.826,119.374 37.231,117.614 36.949,114.095 C37.16,109.896 37.172,107.103 36.984,105.719 C36.866,104.781 36.749,102.492 36.632,98.856 C36.609,98.152 36.104,97.213 35.119,96.041 C33.782,94.422 32.89,93.19 32.444,92.346 C31.834,91.22 31.634,88.732 31.845,84.885 C32.033,81.74 31.294,79.687 29.628,78.726 C27.517,77.67 26.062,76.86 25.264,76.297 C23.926,75.382 23.258,74.278 23.258,72.988 C23.423,71.322 23.492,70.02 23.469,69.082 C23.469,67.346 23.071,66.478 22.273,66.478 C20.982,66.478 19.586,66.912 18.085,67.78 C16.606,68.625 15.281,69.048 14.108,69.048 C13.334,69.048 12.864,68.742 12.7,68.132 L12.7,67.112 C12.7,65.61 13.286,63.111 14.46,59.615 C15.82,55.579 17.111,53.561 18.331,53.561 C19.082,53.561 19.563,53.761 19.774,54.16 C19.844,54.277 19.903,54.57 19.95,55.04 C21.193,51.661 22.824,49.478 24.842,48.494 C26.836,47.508 27.834,48.376 27.834,51.098 C27.835,51.988 27.483,53.325 26.779,55.108 Z" id="path-15"></path>
        <path d="M153.824,8.709 C154.242,8.125 154.67,7.55 155.108,6.984 C156.854,4.729 158.79,2.588 160.916,0.561 L160.986,0.42 C160.111,4.654 159.191,8.684 158.222,12.509 C157.954,13.543 157.684,14.565 157.413,15.571 C156.138,20.3 154.782,24.695 153.348,28.751 C150.683,36.336 147.544,43.34 143.933,49.763 C142.587,52.169 141.173,54.492 139.693,56.732 C140.172,54.999 140.647,52.892 141.118,50.415 C141.551,48.158 141.978,45.595 142.403,42.725 C143.388,36.156 144.22,31.452 144.902,28.612 C146.103,23.572 147.869,18.88 150.199,14.534 C151.287,12.516 152.495,10.574 153.824,8.709 Z M98.973,43.534 L99.571,43.182 C106.587,44.096 111.96,45.282 115.69,46.736 C118.647,47.886 121.544,49.693 124.384,52.157 C124.653,52.386 124.916,52.615 125.176,52.844 C127.858,55.148 130.168,57.206 132.11,59.02 C133.063,59.91 133.925,60.737 134.696,61.501 C135.376,62.177 135.985,62.804 136.526,63.384 L132.585,63.384 C131.204,63.189 129.861,62.943 128.556,62.646 C126.136,62.084 123.848,61.338 121.693,60.411 C120.954,60.099 120.232,59.765 119.528,59.408 C117.523,58.412 115.881,57.391 114.601,56.346 C113.837,55.709 113.203,55.064 112.701,54.41 C111.48,52.815 109.357,50.926 106.33,48.744 C102.855,46.35 100.404,44.613 98.973,43.534 Z M77.222,37.833 C77.222,39.41 77.011,40.946 76.589,42.443 C75.979,44.543 74.947,46.561 73.492,48.496 C72.106,50.349 70.428,51.879 68.459,53.09 C68.06,53.483 67.62,53.729 67.139,53.829 C63.967,55.454 60.125,56.352 55.613,56.521 L53.501,56.133 C56.917,54.139 60.079,51.858 62.986,49.287 C64.977,47.526 66.848,45.632 68.6,43.603 C70.806,41.069 73.562,37.221 76.871,32.059 C76.87,33.234 76.988,35.158 77.222,37.833 Z M62.423,15.66 C62.324,16.98 62.235,18.447 62.159,20.059 C61.901,24.962 61.525,28.716 61.033,31.321 C59.903,37.304 57.38,42.601 53.466,47.212 C51.613,49.388 49.449,51.412 46.972,53.283 C46.859,53.366 46.748,53.448 46.638,53.529 L46.602,53.494 C46.612,53.342 46.624,53.189 46.638,53.037 C46.718,51.77 46.8,50.551 46.884,49.376 C47.005,47.72 47.14,46.143 47.289,44.643 C47.473,42.667 47.678,40.831 47.905,39.135 C48.304,35.99 48.773,33.316 49.313,31.111 C51.055,23.871 54.498,17.659 59.643,12.475 C60.734,11.38 61.901,10.331 63.145,9.326 C62.86,10.825 62.62,12.937 62.423,15.66 Z M10,40.684 C8.733,39.276 7.091,37.082 5.073,34.103 C3.149,31.24 1.589,29.164 0.392,27.873 C8.791,30.337 15.526,33.974 20.594,38.784 C23.574,41.623 26.471,45.611 29.287,50.75 C20.958,49.106 14.529,45.752 10,40.684 Z" id="path-17"></path>
        <path d="M15.382,0.558 L15.523,0.734 C16.177,2.936 17.044,6.849 18.127,12.471 C18.561,14.716 19.03,17.233 19.535,20.021 C19.849,21.78 20.177,23.646 20.52,25.617 C22.264,35.633 23.314,42.244 23.67,45.449 C23.752,46.258 23.793,46.85 23.793,47.226 L23.793,47.86 C23.676,48.775 23.546,49.796 23.406,50.922 C23.171,52.447 22.854,54.371 22.456,56.694 C21.318,54.708 19.893,52.496 18.18,50.06 C17.814,49.539 17.433,49.005 17.036,48.457 C16.607,47.885 16.19,47.328 15.787,46.786 C14.869,45.557 14.018,44.414 13.235,43.354 L13.235,42.404 C12.883,40.621 12.531,38.744 12.179,36.773 C11.475,32.854 11.123,29.312 11.123,26.144 C11.123,21.756 11.44,17.509 12.074,13.403 C12.801,8.641 13.904,4.358 15.382,0.558 Z M105.375,52.329 C102.794,47.401 101.387,42.99 101.152,39.096 C104.624,41.254 107.709,45.161 110.408,50.817 C112.066,54.317 113.174,57.555 113.734,60.53 C114.027,62.068 114.173,63.534 114.173,64.929 L114.173,65.334 C114.156,65.541 114.134,65.652 114.103,65.668 C114.031,65.573 113.96,65.48 113.892,65.387 C111.351,62.017 109.216,58.908 107.486,56.061 C106.698,54.763 105.994,53.519 105.375,52.329 Z M117.271,68.624 C117.271,68.465 117.594,67.961 118.239,67.11 C118.837,66.328 119.718,65.242 120.879,63.855 C121.776,62.796 122.839,61.558 124.065,60.142 C124.865,59.222 125.621,58.348 126.336,57.52 C130.322,52.891 132.875,49.8 133.99,48.246 C135.515,46.088 137.709,42.627 140.572,37.864 C141.074,37.032 141.56,36.234 142.032,35.47 C142.626,34.512 143.195,33.609 143.74,32.76 C145.052,30.739 146.226,29.038 147.259,27.656 L147.612,27.621 C147.635,27.716 148.151,29.804 149.16,33.887 C149.77,36.397 150.075,38.438 150.075,40.01 C150.075,42.686 149.571,45.324 148.561,47.929 C147.388,50.98 145.64,53.596 143.317,55.778 C140.737,58.172 136.913,60.987 131.844,64.224 C125.555,68.237 121.051,70.243 118.328,70.243 C118.211,70.243 118.012,70.055 117.73,69.681 C117.424,69.258 117.271,68.906 117.271,68.624 Z M13.728,47.155 C14.73,48.46 15.639,49.703 16.456,50.885 C19.187,54.862 20.871,58.17 21.506,60.811 C21.694,61.613 21.787,62.351 21.787,63.028 C21.787,63.498 21.775,63.791 21.752,63.908 C21.729,64.072 21.635,64.283 21.471,64.542 C21.166,64.401 20.861,64.271 20.555,64.155 C17.552,62.77 14.936,61.139 12.707,59.262 C9.492,56.54 7.099,53.302 5.527,49.548 C4.659,47.46 3.815,44.61 2.993,40.995 C2.055,36.936 1.35,34.226 0.882,32.865 C4.589,36.361 8.144,40.197 11.546,44.374 C11.617,44.468 11.699,44.573 11.793,44.691 C12.449,45.514 13.094,46.334 13.728,47.155 Z" id="path-19"></path>
    </defs>
    <g id="Page-1" stroke="none" stroke-width="1" fill="none" fill-rule="evenodd">
        <g id="Group">
            <g id="Group-3">
                <mask id="mask-2" fill="white">
                    <use xlink:href="#path-1"></use>
                </mask>
                <g id="Clip-2"></g>
                <polygon id="Fill-1" fill="#000000" mask="url(#mask-2)" points="-4.9 339.406093 304.148 339.406093 304.148 -4.271007 -4.9 -4.271007"></polygon>
            </g>
            <g id="Group-6" transform="translate(2.000000, 2.000000)">
                <mask id="mask-4" fill="white">
                    <use xlink:href="#path-3"></use>
                </mask>
                <g id="Clip-5"></g>
                <polygon id="Fill-4" fill="#DD1E00" mask="url(#mask-4)" points="-4.787 142.924 300.039 142.924 300.039 -4.335 -4.787 -4.335"></polygon>
            </g>
            <g id="Group-9" transform="translate(20.000000, 17.000000)">
                <mask id="mask-6" fill="white">
                    <use xlink:href="#path-5"></use>
                </mask>
                <g id="Clip-8"></g>
                <polygon id="Fill-7" fill="#FFFFFF" mask="url(#mask-6)" points="-4.488 108.604 281.967 108.604 281.967 -4.9265 -4.488 -4.9265"></polygon>
            </g>
            <g id="Group-12" transform="translate(19.000000, 99.000000)">
                <mask id="mask-8" fill="white">
                    <use xlink:href="#path-7"></use>
                </mask>
                <g id="Clip-11"></g>
                <polygon id="Fill-10" fill="#C79E55" mask="url(#mask-8)" points="-4.192 73.235 273.395 73.235 273.395 -4.127 -4.192 -4.127"></polygon>
            </g>
            <g id="Group-15" transform="translate(21.000000, 99.000000)">
                <mask id="mask-10" fill="white">
                    <use xlink:href="#path-9"></use>
                </mask>
                <g id="Clip-14"></g>
                <polygon id="Fill-13" fill="#FFDFA8" mask="url(#mask-10)" points="-4.009 73.693 258.268 73.693 258.268 -4.198 -4.009 -4.198"></polygon>
            </g>
            <g id="Group-18" transform="translate(80.000000, 129.000000)">
                <mask id="mask-12" fill="white">
                    <use xlink:href="#path-11"></use>
                </mask>
                <g id="Clip-17"></g>
                <polygon id="Fill-16" fill="#CCA767" mask="url(#mask-12)" points="-4.624 201.682 125.904 201.682 125.904 -4.208 -4.624 -4.208"></polygon>
            </g>
            <g id="Group-21" transform="translate(185.000000, 258.000000)">
                <mask id="mask-14" fill="white">
                    <use xlink:href="#path-13"></use>
                </mask>
                <g id="Clip-20"></g>
                <polygon id="Fill-19" fill="#A3995A" mask="url(#mask-14)" points="-4.846 8.382 6.211 8.382 6.211 -4.117 -4.846 -4.117"></polygon>
            </g>
            <g id="Group-24" transform="translate(87.000000, 128.000000)">
                <mask id="mask-16" fill="white">
                    <use xlink:href="#path-15"></use>
                </mask>
                <g id="Clip-23"></g>
                <polygon id="Fill-22" fill="#C49E5C" mask="url(#mask-16)" points="-4.916 206.975 108.68 206.975 108.68 -4.831 -4.916 -4.831"></polygon>
            </g>
            <g id="Group-27" transform="translate(38.000000, 268.000000)">
                <mask id="mask-18" fill="white">
                    <use xlink:href="#path-17"></use>
                </mask>
                <g id="Clip-26"></g>
                <polygon id="Fill-25" fill="#54D235" mask="url(#mask-18)" points="-4.608 68.384 165.986 68.384 165.986 -4.58 -4.608 -4.58"></polygon>
            </g>
            <g id="Group-30" transform="translate(60.000000, 261.000000)">
                <mask id="mask-20" fill="white">
                    <use xlink:href="#path-19"></use>
                </mask>
                <g id="Clip-29"></g>
                <polygon id="Fill-28" fill="#2E9F13" mask="url(#mask-20)" points="-4.118 75.243 155.075 75.243 155.075 -4.442 -4.118 -4.442"></polygon>
            </g>
        </g>
    </g>
</svg>