<?xml version="1.0" encoding="utf-8"?>
<!-- Svg Vector Icons : http://www.onlinewebfonts.com/icon -->
<!DOCTYPE svg PUBLIC "-//W3C//DTD SVG 1.1//EN" "http://www.w3.org/Graphics/SVG/1.1/DTD/svg11.dtd">
<svg version="1.1" xmlns="http://www.w3.org/2000/svg" xmlns:xlink="http://www.w3.org/1999/xlink" x="0px" y="0px" viewBox="0 0 1000 1000" enable-background="new 0 0 1000 1000" xml:space="preserve">
<metadata> Svg Vector Icons : http://www.onlinewebfonts.com/icon </metadata>
<g><g id="_x35_151e0c8492e5103c096af88a51e4c6f"><path fill="white" d="M709.6,751.1L917.9,936L508,903.8c80.3-48.5,146.6-106.5,196.2-152.6c0.8,0.2,1.7,0.2,2.6,0.2C707.7,751.5,708.6,751.3,709.6,751.1z M940.2,861.6l38.4-502.6c-19,48.5-49,105-87.9,165.3L940.2,861.6z M723.5,739.7l207.9,184.5l-55.5-377.5C830.1,614.7,775.2,684.3,723.5,739.7z M480.7,919.6c-44.8,24.8-90.9,44.6-137.5,59l479-32.2l-341.4-26.8L480.7,919.6z M80.7,677.5l125.5,293.2l103.3-342.1L80.7,677.5z M339.9,611.2l349.4,112.2l-89.2-353.3L339.9,611.2z M619.7,335.1l325.7-21.8l-254.6-208L619.7,335.1z M804.9,14.6l-213.7-1l95,66.5L804.9,14.6z M18.2,553.2l-7,208.4l51.3-93.5L18.2,553.2z M135,636.9c40.6,2.6,81.7-6.4,123.1-24.5c27.9-13.2,56.8-29.9,85.9-49.6c41.6-29.4,83.6-66.2,125.9-108.1C621.9,304,684.4,135.4,617.9,68.3c-15.9-16-38.6-24.2-67.5-24.3c-87.6-0.4-218.4,65.5-330,176.1C113.9,325.8,44.7,451.2,44.4,539.7c-0.1,31.5,8.6,56.2,25.9,73.7C85.6,628.9,107.4,635.2,135,636.9z M452.3,914.6c4.8-2.5,9.5-5,14.2-7.5L325.8,635.8L220,986.3c0.9-0.1,8-1,8-1c9.2-1.2,18.4-2.5,27.4-4.1c58.1-9.9,115.7-28.1,171-54C435.1,923.2,443.8,919,452.3,914.6z M739.4,690.8l3.3-3.8c2.3-2.7,4.7-5.5,7-8.3c0,0,7.2-8.6,10-12c4.7-5.7,9.4-11.5,14.1-17.4c4.3-5.4,8.6-10.8,13-16.4c4.5-5.8,9-11.6,13.5-17.5c10.2-13.4,20.4-27.4,31.4-42.9c11.6-16.4,22.8-32.9,33.4-49.1l-19-11.6c-50.6-30.9-152.2-93.2-219-134.3L713.6,720C721.7,711.2,730.2,701.6,739.4,690.8z M983.7,139.4l-268.9-37.8l256.4,209.7c9-29.7,14.9-58.5,17.4-85.7c0.4-3.8,0.6-7.6,0.8-11.5c0.2-3.6,0.3-7.1,0.4-10.7C990.5,180.2,988.4,158.7,983.7,139.4z M880.3,507.2c0.7-0.9,1.4-1.8,2.2-3c5.1-7.2,12.4-19.1,20.5-33.4c22.5-39.7,50.3-96.4,61.9-138.1L630.5,355c69.8,42.9,171.7,105.3,222.4,136.3l27,16.5C880,507.6,880.2,507.4,880.3,507.2z M479.4,903l1-0.6c73-40.4,138.2-90.2,211.2-161.3L336.1,626.4L479.4,903z M10,799.1c1.6,46.3,11.4,84.5,29.2,113.9l16.6-197.8L10,799.1z M74.8,702.2L55.6,930.4c27.3,35.7,63.8,51.7,118,51.7c5.5,0,11.1-0.2,17.2-0.4l-9.6-23.8C160.5,906.3,101.4,759.4,74.8,702.2z M979.7,125.3c-3.9-12.1-9-23.2-15-33.2C940.5,51.8,898.7,26,840.3,15.4L710,87.4L979.7,125.3z"/></g></g>
</svg>