<?xml version="1.0" encoding="utf-8"?>
<!-- Generator: Adobe Illustrator 21.0.0, SVG Export Plug-In . SVG Version: 6.00 Build 0)  -->
<svg version="1.1" id="Layer_1" xmlns="http://www.w3.org/2000/svg" xmlns:xlink="http://www.w3.org/1999/xlink" x="0px" y="0px"
	 viewBox="0 0 512 512" style="enable-background:new 0 0 512 512;" xml:space="preserve">
<g>
	<path fill="white" d="M256,0C114.8,0,0,114.8,0,256s114.8,256,256,256s256-114.8,256-256S397.2,0,256,0z M256,42.7
		c118.1,0,213.3,95.3,213.3,213.3S374.1,469.3,256,469.3S42.7,374.1,42.7,256S137.9,42.7,256,42.7z M160,170.7
		c-17.7,0-32,14.3-32,32s14.3,32,32,32s32-14.3,32-32S177.7,170.7,160,170.7z M298.7,192v42.7h106.7V192H298.7z M362,278
		c0,35.9-14.4,60.8-35.3,78.7C305.8,374.5,278.1,384,256,384c-45.3,0-76-18.3-100-42l-30,30.7c29.8,29.3,72.8,54,130,54
		c33.2,0,69.6-12.5,98.7-37.3c29.1-24.8,50-63.2,50-111.3H362z"/>
</g>
</svg>
