<?xml version="1.0" encoding="UTF-8"?>
<svg width="25px" height="13px" viewBox="0 0 25 13" version="1.1" xmlns="http://www.w3.org/2000/svg" xmlns:xlink="http://www.w3.org/1999/xlink">
    <title>Group</title>
    <g id="Page-1" stroke="none" stroke-width="1" fill="none" fill-rule="evenodd">
        <g id="Group" transform="translate(0.765628, 0.609378)" fill="#ffffff" fill-rule="nonzero">
            <path d="M8.35937479,0.0937499977 L0.249999994,0.0937499977 L0,3.07812499 L0.328124992,3.07812499 C0.515624987,0.937499977 0.718749982,0.499999988 2.71875,0.499999988 C2.95312493,0.499999988 3.29687492,0.499999988 3.43749998,0.53124932 C3.71874997,0.578123986 3.71874997,0.718749315 3.71874997,1.03124931 L3.71874997,8.0312492 C3.71874997,8.48437419 3.71874997,8.67187418 2.31250001,8.67187418 L1.78125002,8.67187418 L1.78125002,9.07812484 C2.32812494,9.03124984 3.68749997,9.03124984 4.29687489,9.03124984 C4.90624994,9.03124984 6.28124991,9.03124984 6.82812483,9.07812484 L6.82812483,8.67187485 L6.29687484,8.67187485 C4.89062488,8.67187485 4.89062488,8.48437485 4.89062488,8.03124987 L4.89062488,1.03124997 C4.89062488,0.765625048 4.89062488,0.578125052 5.14062487,0.531249987 C5.28124993,0.500000654 5.64062486,0.500000654 5.89062485,0.500000654 C7.8906248,0.500000654 8.09374986,0.937500643 8.28124986,3.07812566 L8.60937478,3.07812566 L8.35937479,0.0937499977 Z" id="path1-path"></path>
            <path d="M8.71093732,10.9062499 C8.71093732,11.3749997 8.67968798,11.5312497 7.64843734,11.5312497 L7.33593735,11.5312497 L7.33593735,11.9374997 L15.007812,11.9374997 L15.5546866,8.51562485 L15.2265626,8.51562485 C14.8984373,10.5624997 14.5859373,11.5312497 12.3046872,11.5312497 L10.5390622,11.5312497 C9.91406222,11.5312497 9.88281222,11.4375004 9.88281222,10.9999997 L9.88281222,7.45312488 L11.0859373,7.45312488 C12.3671872,7.45312488 12.5234372,7.87499987 12.5234372,8.99999984 L12.8515627,8.99999984 L12.8515627,5.48437493 L12.5234372,5.48437493 C12.5234372,6.62499983 12.3671872,7.03124982 11.0859373,7.03124982 L9.88281222,7.03124982 L9.88281222,3.8437499 C9.88281222,3.40624993 9.91406155,3.31249992 10.5390622,3.31249992 L12.2578122,3.31249992 C14.2890626,3.31249992 14.6484373,4.04687497 14.8515626,5.89062492 L15.1796866,5.89062492 L14.820312,2.90624993 L7.33593735,2.90624993 L7.33593735,3.31249992 L7.64843734,3.31249992 C8.67968732,3.31249992 8.71093732,3.46874991 8.71093732,3.9374999 L8.71093732,10.9062499 Z" id="path1-path"></path>
            <path d="M19.6210932,3.95312497 L21.4335931,1.28124997 C21.7304678,0.859375045 22.1835931,0.437499989 23.3554677,0.421875056 L23.3554677,0 C22.8398438,0.0156253329 22.2148438,0.0468746655 21.8867185,0.0468746655 C21.3554678,0.0468746655 20.7148438,0.0468746655 20.1835932,0 L20.1835932,0.421875056 C20.7148438,0.437500389 21.0117185,0.718749982 21.0117185,1.03124997 C21.0117185,1.15624997 20.9804651,1.18749997 20.8867185,1.32812503 L19.3710932,3.57812498 L17.6679679,1.01562504 C17.6367146,0.968750376 17.5742212,0.874999978 17.5742212,0.81249998 C17.5742212,0.656249984 17.8710959,0.437499989 18.4335959,0.421875056 L18.4335959,0 C17.9648466,0.0468746655 16.9960959,0.0468746655 16.4960959,0.0468746655 C16.0898466,0.0468746655 15.2617213,0.0312493326 14.7617213,0 L14.7617213,0.421875056 L15.0273466,0.421875056 C15.7460959,0.421875056 16.0117213,0.515624387 16.2617213,0.890625044 L18.6992212,4.57812495 L16.5273466,7.79687487 C16.3398466,8.06249987 15.9335959,8.67187485 14.5898466,8.67187485 L14.5898466,9.07812484 C15.0742213,9.06249984 15.6367213,9.03124984 16.0742213,9.03124984 C16.5585959,9.03124984 17.2929706,9.03124984 17.7773466,9.07812484 L17.7773466,8.67187485 C17.1523466,8.65624978 16.9335959,8.29687486 16.9335959,8.06249987 C16.9335959,7.93749987 16.9804759,7.87499987 17.0742212,7.73437487 L18.9492212,4.95312494 L21.0585958,8.12499986 C21.0742225,8.17187493 21.1210891,8.23437493 21.1210891,8.26562486 C21.1210891,8.42187486 20.8242145,8.65624985 20.2617145,8.67187485 L20.2617145,9.07812484 C20.7148398,9.03124984 21.6835891,9.03124984 22.1992144,9.03124984 C22.7460891,9.03124984 23.3554637,9.04687484 23.9179637,9.07812484 L23.9179637,8.67187485 L23.6679637,8.67187485 C22.9804638,8.67187485 22.6992144,8.59374979 22.4179638,8.18749986 L19.6210932,3.95312497 Z" id="path1-path"></path>
        </g>
    </g>
</svg>