<svg xmlns="http://www.w3.org/2000/svg" width="458" height="174.002" viewBox="0 0 458 174.002"><path fill-rule="evenodd" clip-rule="evenodd" fill="#00639F" d="M0 0h336.84l-62.72 143.393H0V0z"/><path fill-rule="evenodd" clip-rule="evenodd" fill="#004B87" d="M306.688 0h27.31l-65.763 143.393L306.688 0z"/><path fill-rule="evenodd" clip-rule="evenodd" fill="#74ABCE" d="M322.337 30.61H458v143.393H259.71L322.337 30.61z"/><path fill-rule="evenodd" clip-rule="evenodd" fill="#003F74" d="M336.84 0l-76.353 174.002h-5.682L331.157 0h5.682z"/><path fill="#fff" d="M73.78 31.348c8.283 0 15.462 1.978 21.54 5.928 6.078 3.95 10.486 8.89 13.222 14.816 2.735 5.928 4.103 12.308 4.103 19.147 0 6.84-1.37 13.222-4.103 19.15-2.736 5.924-7.144 10.862-13.222 14.813-6.078 3.95-13.257 5.927-21.54 5.927H43.69V31.348H73.78zm-9.688 18.58v42.625h9.687c4.026 0 7.543-1.045 10.54-3.134 3.004-2.09 5.17-4.732 6.498-7.922 1.33-3.192 1.995-6.61 1.995-10.258 0-3.647-.665-7.064-1.995-10.255-1.328-3.19-3.494-5.832-6.497-7.923-2.997-2.09-6.514-3.134-10.54-3.134H64.09zM176.192 31.348v18.236h-29.518v11.284H173.8v18.124h-27.126V93.01h30.544v18.12h-50.833V31.348h49.807zM207.7 31.348l18.69 45.25h.57l18.236-45.25H264.8v3.077l-33.852 77.618h-8.66l-34.193-77.618v-3.077H207.7zM378.188 77.355V74.85c0-.875.186-1.442.548-1.697.367-.254.877-.383 1.534-.383h7.446c.73 0 1.26.13 1.588.383.132.1.235.255.314.456.12.222.18.51.18.866v14.352h11.727c.875 0 1.44.18 1.7.548.254.366.382.875.382 1.532v5.48c0 .73-.128 1.26-.383 1.586-.258.33-.824.495-1.7.495h-11.727v27.28c0 1.462.112 2.592.33 3.398.22.803.603 1.405 1.15 1.805.55.402 1.296.64 2.248.714.95.072 2.154.108 3.614.108.804 0 1.955-.036 3.448-.108 1.5-.074 2.795-.184 3.895-.33.58-.07 1.02 0 1.312.22.292.22.51.657.657 1.315l.77 5.478c.214 1.242-.26 2.155-1.427 2.74-.95.437-2.063.803-3.34 1.094-1.277.293-2.59.53-3.946.712-1.35.184-2.633.31-3.835.385-1.203.074-2.25.11-3.126.11-3.21 0-5.716-.456-7.503-1.37-1.792-.915-3.126-2.173-4.002-3.78-.87-1.608-1.422-3.467-1.64-5.588-.224-2.12-.33-4.344-.33-6.684V98.47h-5.48c-.804 0-1.35-.165-1.64-.495-.295-.328-.437-.856-.437-1.587V91.02c0-.733.142-1.278.437-1.644.29-.367.836-.548 1.64-.548h5.586V77.542l.006-.15v-.037h.002zM360.875 78.16c0 .88-.072 1.702-.216 2.464-.15.77-.458 1.445-.932 2.028-.478.585-1.135 1.042-1.97 1.37-.844.33-1.96.495-3.346.495-1.46 0-2.61-.183-3.453-.547-.836-.365-1.477-.842-1.92-1.425-.438-.584-.73-1.26-.87-2.027-.15-.767-.22-1.553-.22-2.357 0-1.752.417-3.23 1.257-4.436.84-1.205 2.572-1.806 5.204-1.806 2.7 0 4.457.566 5.26 1.698.806 1.133 1.205 2.648 1.205 4.545zm-.657 65.136l-.005.097h-11.937V93.776c0-1.39.733-2.085 2.19-2.085h7.78c.806 0 1.335.203 1.59.604.254.402.382.894.382 1.48v49.522z"/></svg>