<?xml version="1.0" encoding="utf-8"?>
<!-- Generator: Adobe Illustrator 16.0.3, SVG Export Plug-In . SVG Version: 6.00 Build 0)  -->
<!DOCTYPE svg PUBLIC "-//W3C//DTD SVG 1.1//EN" "http://www.w3.org/Graphics/SVG/1.1/DTD/svg11.dtd">
<svg version="1.1" id="Layer_1" xmlns="http://www.w3.org/2000/svg" xmlns:xlink="http://www.w3.org/1999/xlink" x="0px" y="0px"
	 width="150px" height="28.923px" viewBox="0 0 150 28.923" enable-background="new 0 0 150 28.923" xml:space="preserve">
<g>
	<g>
		<g>
			<path d="M46.425,8.763l0.788,1.934l0.852,2.536l0.834-2.489l0.804-1.98h2.32l-2.536,5.893l2.752,6.015h-2.304l-0.928-1.98
				l-0.943-2.582l-1.006,2.722l-0.866,1.841H43.89l2.752-6.015l-2.536-5.893H46.425z"/>
			<path d="M57.698,8.763c2.875,0,4.221,1.037,4.221,3.557v1.098c0,2.459-1.392,3.603-4.221,3.603h-0.82v3.65h-2.181V8.763H57.698z
				 M57.698,14.965c1.546,0,2.057-0.526,2.057-1.655v-0.881c0-1.129-0.372-1.716-2.026-1.716h-0.867v4.253H57.698z"/>
			<path d="M73.532,8.763c2.877,0,4.068,1.037,4.068,3.557v4.855c0,2.459-1.237,3.495-4.068,3.495h-3.913V8.763H73.532z
				 M73.532,18.737c1.546,0,1.932-0.541,1.932-1.67v-4.639c0-1.129-0.247-1.716-1.901-1.716h-1.825v8.025H73.532z"/>
			<path d="M87.991,20.67h-2.196l-0.604-2.103h-3.046l-0.618,2.103h-2.196l3.294-11.892h2.118L87.991,20.67z M84.649,16.479
				l-0.988-4.406l-0.99,4.406H84.649z"/>
			<path d="M97.484,8.763l-3,6.927v4.995h-2.118V15.69l-3.031-6.927h2.304l0.928,2.196l0.866,2.552l0.866-2.614l0.881-2.134H97.484z
				"/>
			<path d="M102.911,10.573c-1.175,0-1.654,0.371-1.654,1.5c0,1.5,1.19,1.376,2.999,1.654c1.377,0.217,2.691,0.774,2.691,3.154
				c0,2.753-1.19,3.911-4.053,3.911c-2.969,0-3.911-1.438-3.911-3.354h2.149c0.047,0.913,0.448,1.407,1.809,1.407
				c1.284,0,1.871-0.541,1.871-1.887c0-1.407-1.669-1.407-2.938-1.577c-1.346-0.169-2.768-0.835-2.768-3.293
				c0-2.227,1.359-3.387,3.804-3.387c2.149,0,3.572,0.789,3.772,3.169h-2.149C104.474,10.866,103.947,10.573,102.911,10.573z"/>
		</g>
		<g>
			<rect x="114" y="8.429" fill="#EC1C24" width="36" height="12"/>
			<g>
				<path fill="#FFFFFF" d="M119.289,10.642h0.885v4.775c0,1.557-0.497,2.396-2.184,2.396s-2.202-0.839-2.202-2.396v-4.766h0.884
					v4.774c0,1.122,0.222,1.567,1.318,1.567c1.096,0,1.299-0.445,1.299-1.567V10.642z"/>
				<path fill="#FFFFFF" d="M124.586,17.756l-1.824-2.396h-0.396v2.396h-0.875v-7.115h0.875v3.889h0.351l1.668-2.166h1.068
					L123.48,14.9l2.156,2.856H124.586z"/>
				<path fill="#FFFFFF" d="M128.897,13.259c-0.848-0.138-1.512,0.212-1.512,1.041v3.466h-0.874v-5.401h0.802l0.036,0.498
					c0.268-0.405,0.885-0.636,1.548-0.498V13.259z"/>
				<path fill="#FFFFFF" d="M133.541,17.756h-0.792l-0.073-0.729c-0.194,0.396-0.72,0.775-1.373,0.775
					c-1.236,0-1.539-0.655-1.604-1.292c-0.093-0.949,0.553-1.63,1.658-1.788c0.424-0.063,0.875-0.072,1.299-0.083v-0.525
					c0-0.609-0.211-1.004-1.021-1.004c-0.509,0-0.857,0.175-0.848,0.903h-0.858c-0.037-1.198,0.591-1.704,1.732-1.704
					c1.18,0,1.88,0.497,1.88,1.806V17.756z M131.431,15.461c-0.598,0.129-0.911,0.415-0.848,0.939
					c0.037,0.424,0.416,0.563,0.811,0.563c0.969,0,1.254-0.711,1.282-1.596C132.427,15.369,131.892,15.36,131.431,15.461z"/>
				<path fill="#FFFFFF" d="M136.037,11.131c0,0.654-1.06,0.7-1.06,0C134.978,10.458,136.037,10.431,136.037,11.131z
					 M135.061,17.756v-5.354h0.876v5.354H135.061z"/>
				<path fill="#FFFFFF" d="M137.611,12.365h0.784l0.054,0.571c0.324-0.524,0.858-0.635,1.384-0.635
					c1.188,0,1.787,0.507,1.787,1.944v3.511h-0.885v-3.501c0-0.765-0.414-1.152-1.05-1.152c-0.664,0-1.188,0.377-1.188,1.142v3.511
					h-0.886V12.365z"/>
				<path fill="#FFFFFF" d="M146.981,16.19c0,1.041-0.57,1.622-1.972,1.622c-1.438,0-1.99-0.526-1.99-1.973v-1.576
					c0-1.409,0.764-1.925,1.99-1.925c1.207,0,1.99,0.525,1.99,1.925v1.153h-3.114v0.403c0,0.959,0.35,1.182,1.124,1.182
					s1.124-0.259,1.124-0.812H146.981z M143.886,14.652h2.276v-0.389c0-0.949-0.461-1.151-1.152-1.151s-1.124,0.194-1.124,1.151
					V14.652z"/>
			</g>
		</g>
	</g>
	<g>
		<g>
			<g>
				<path fill="#ED3224" d="M13.703,14.883c-0.008-0.003-0.017-0.008-0.024-0.006c-0.037,0.018-0.074,0.034-0.108,0.055
					c-0.801,0.506-1.684,0.733-2.621,0.792c-1.104,0.071-2.146-0.187-3.166-0.571c-0.839-0.317-1.651-0.704-2.513-0.961
					c-0.849-0.254-1.7-0.341-2.531,0.064c-1.265,0.619-1.842,1.691-1.999,3.044c-0.038,0.321-0.007,0.593,0.304,0.764l0,0
					c0.012-0.067,0.348-1.078,0.555-1.495c0,0,0.386-0.779,0.749-1.048c0.46-0.305,0.986-0.396,1.525-0.461
					c-0.416,0.175-0.808,0.384-1.125,0.71c-0.843,1.178-0.604,2.939-0.606,3.36c0.309,0.31,0.618,0.62,0.945,0.948
					c0.159-0.579,0.302-1.124,0.46-1.664c0.177-0.599,0.382-1.185,0.667-1.742c0.192-0.379,0.486-0.548,0.9-0.547
					c0.317,0,0.633,0.024,0.945,0.072c1.133,0.179,2.265,0.374,3.399,0.542c0.703,0.104,1.407,0.164,2.087-0.144
					c0.843-0.383,1.522-0.974,2.157-1.63C13.729,14.94,13.738,14.909,13.703,14.883z"/>
				<path fill="#B92125" d="M2.75,15.77c0.317-0.326,0.709-0.535,1.125-0.71c-0.54,0.064-1.065,0.156-1.525,0.461
					c-0.363,0.269-0.749,1.048-0.749,1.048c-0.208,0.417-0.543,1.428-0.555,1.495l0,0c0.042,0.06,0.999,1.001,1.098,1.066
					C2.146,18.709,1.907,16.948,2.75,15.77z"/>
			</g>
			<g id="Shape_9_copy_2_12_">
				<g>
					<path fill="#981B1F" d="M5.655,14.995c-0.827-0.392-1.407-0.742-1.407-0.742S4.736,14.674,5.655,14.995z M17.163,12.028
						c-2.691-0.843-4.442,2.404-7.547,3.115c-1.709,0.392-3.048,0.171-3.961-0.148c1.232,0.584,3.019,1.263,4.292,1.021
						c3.176-0.604,4.88-2.066,5.66-1.688c0.781,0.377,1.72,2.662,1.72,2.662l2.306-2.056C19.632,14.934,19.265,12.686,17.163,12.028
						z"/>
				</g>
			</g>
			<g>
				<path fill="#ED3224" d="M15.578,14.772c-0.085-0.01-0.107,0.066-0.146,0.113c-0.33,0.391-0.713,0.721-1.145,0.995
					c-1.358,0.864-2.856,1.076-4.429,0.965c-0.987-0.069-1.973-0.2-2.966-0.126c-1.356,0.102-2.313,0.777-2.829,2.036
					c-0.309,0.755-0.3,1.539-0.133,2.332c0.061,0.287,0.17,0.494,0.469,0.564c0.024-0.228-0.2-2.198,0.699-2.986
					c0.289-0.328,0.675-0.503,1.066-0.681c-0.268,0.258-0.541,0.504-0.717,0.833c-0.626,1.243,0.358,3.451,0.377,3.544
					c0.384,0.197,0.77,0.396,1.184,0.609c-0.013-0.224-0.026-0.397-0.033-0.572c-0.042-1.015-0.102-2.029,0.07-3.039
					c0.065-0.383,0.264-0.632,0.638-0.751c0.239-0.074,0.477-0.144,0.722-0.192c1.192-0.235,2.407-0.321,3.601-0.549
					c0.687-0.13,1.378-0.25,1.935-0.73c0.74-0.64,1.235-1.451,1.65-2.321C15.594,14.806,15.583,14.788,15.578,14.772z"/>
				<path fill="#B92125" d="M5.534,18.818c0.177-0.329,0.406-0.575,0.674-0.833c-0.391,0.178-0.799,0.353-1.088,0.681
					c-0.899,0.788-0.599,2.759-0.623,2.986C4.546,21.673,6,22.35,6,22.365c0,0,0-0.002,0-0.003C6,22.269,4.908,20.061,5.534,18.818z
					"/>
			</g>
			<g id="Shape_9_copy_4_5_">
				<path fill="#981B1F" d="M7.812,17.045c-0.903-0.122-1.556-0.281-1.556-0.281S6.844,17.017,7.812,17.045z M17.888,10.729
					c-2.819,0.014-3.504,3.639-6.248,5.257c-1.515,0.894-2.862,1.088-3.829,1.06c1.352,0.186,3.268,0.291,4.408-0.327
					c2.844-1.538,4.025-3.448,4.883-3.325c0.857,0.122,2.444,2.015,2.444,2.015l1.575-2.658
					C21.122,12.75,20.091,10.718,17.888,10.729z"/>
			</g>
		</g>

			<radialGradient id="SVGID_1_" cx="23.48" cy="14.4292" r="13.4943" gradientTransform="matrix(1 0 0 0.9 0 1.4429)" gradientUnits="userSpaceOnUse">
			<stop  offset="0" style="stop-color:#58595B"/>
			<stop  offset="0.1954" style="stop-color:#535355"/>
			<stop  offset="0.4596" style="stop-color:#434244"/>
			<stop  offset="0.762" style="stop-color:#2A2627"/>
			<stop  offset="0.8307" style="stop-color:#231F20"/>
		</radialGradient>
		<path fill="url(#SVGID_1_)" d="M36.598,12.879c0.001,0.064,0.002,0.129,0.008,0.195c-0.063-0.077-0.105-0.098-0.11-0.135
			c-0.271-2.332-1.258-4.89-1.024-4.535c-2.496-5.581-8.626-8.912-14.96-7.441c-4.437,1.03-7.81,4.138-9.324,8.074
			c0.199-0.131-0.733,4.257-0.864,4.367c0.001-0.058,0.001-0.114,0-0.171c-0.04,0.973,0.024,1.965,0.207,2.964
			c0.69,3.777,2.532,6.908,5.525,9.329c1.888,1.528,4.043,2.462,6.476,2.672c2.167,0.187,4.25-0.203,6.147-1.259
			c5.148-2.858,7.606-7.371,7.968-13.134C36.641,13.494,36.622,13.186,36.598,12.879z"/>
		<g id="Shape_14_12_" opacity="0.502">
			<g>
				<path fill="#231F20" d="M13.612,19.338c1.042,0.989,3.978,1.625,4.547,0.405c0.568-1.217,3.41-3.168,3.41-3.168l-9.905-3.329
					C11.664,13.247,11.989,17.795,13.612,19.338z M22.904,16.576c0,0,2.841,1.951,3.409,3.168c0.569,1.22,3.506,0.584,4.547-0.405
					c1.624-1.543,1.948-6.091,1.948-6.091L22.904,16.576z"/>
			</g>
		</g>
		<path fill-rule="evenodd" clip-rule="evenodd" fill="#F7F8F9" d="M33.228,12.775c-0.465,0.011-0.924-0.056-1.386-0.096
			c-0.809-0.069-1.62-0.115-2.431-0.152c-0.987-0.045-1.974-0.086-2.961-0.1c-1.246-0.017-2.492-0.004-3.804-0.004
			c-0.457,0.006-0.979,0.017-1.502,0.038c-0.514,0.02-1.027,0.061-1.542,0.074c-0.253,0.007-0.513,0.023-0.769,0.044
			c-0.708,0.061-1.417,0.127-2.125,0.194c-0.551,0.051-1.104,0.099-1.655,0.161c-0.631,0.072-1.26,0.166-1.893,0.232
			c-0.209,0.022-0.276,0.108-0.25,0.305c0.074,0.549,0.122,1.103,0.249,1.643c0.31,1.311,0.781,2.533,1.794,3.487
			c0.811,0.764,1.773,1.108,2.872,1.123c0.108,0.002,0.167-0.041,0.25-0.124c0.547-0.549,0.812-0.8,1.186-1.235
			c0.266-0.309,0.619-0.545,0.938-0.809c0.609-0.505,1.265-0.939,1.975-1.288c0.146-0.072,0.302-0.177,0.491-0.097
			c0.488,0.208,0.989,0.391,1.469,0.617c1.557,0.736,3.074,1.543,4.408,2.651c0.069,0.057,0.137,0.084,0.225,0.086
			c1.1,0.015,2.058-0.351,2.853-1.103c0.792-0.749,1.195-1.722,1.482-2.748c0.114-0.406,0.171-0.824,0.231-1.243
			c0.07-0.477,0.118-0.953,0.124-1.434C33.459,12.832,33.372,12.772,33.228,12.775z"/>
		<radialGradient id="SVGID_2_" cx="25.2021" cy="15.6401" r="1.7312" gradientUnits="userSpaceOnUse">
			<stop  offset="0" style="stop-color:#58595B"/>
			<stop  offset="0.1954" style="stop-color:#535355"/>
			<stop  offset="0.4596" style="stop-color:#434244"/>
			<stop  offset="0.762" style="stop-color:#2A2627"/>
			<stop  offset="0.8307" style="stop-color:#231F20"/>
		</radialGradient>
		<path fill-rule="evenodd" clip-rule="evenodd" fill="url(#SVGID_2_)" d="M23.878,14.552c0.663-1.086,2.084-0.965,2.677,0.071
			c0.547,0.958,0.163,2.34-0.806,2.722c-0.4,0.201-0.795,0.188-1.192-0.011C23.393,16.752,23.452,15.251,23.878,14.552z"/>
		<radialGradient id="SVGID_3_" cx="18.6802" cy="15.5972" r="1.3264" gradientUnits="userSpaceOnUse">
			<stop  offset="0" style="stop-color:#58595B"/>
			<stop  offset="0.1954" style="stop-color:#535355"/>
			<stop  offset="0.4596" style="stop-color:#434244"/>
			<stop  offset="0.762" style="stop-color:#2A2627"/>
			<stop  offset="0.8307" style="stop-color:#231F20"/>
		</radialGradient>
		<path fill-rule="evenodd" clip-rule="evenodd" fill="url(#SVGID_3_)" d="M18.282,16.981c-0.543-0.256-0.804-0.727-0.822-1.294
			c-0.019-0.576,0.212-1.072,0.736-1.38c0.36-0.21,0.733-0.153,1.07,0.045c0.38,0.224,0.583,0.596,0.623,1.027
			c0.061,0.662-0.094,1.248-0.746,1.585C18.992,17.042,18.395,17.033,18.282,16.981z"/>
		<path d="M29.524,12.429c-0.032,0-0.067,0-0.11,0C29.441,12.429,29.48,12.429,29.524,12.429z"/>
		<linearGradient id="SVGID_4_" gradientUnits="userSpaceOnUse" x1="10.1406" y1="8.7207" x2="36.6058" y2="8.7207">
			<stop  offset="0.5276" style="stop-color:#EC1C24"/>
			<stop  offset="0.7402" style="stop-color:#A60E13"/>
			<stop  offset="1" style="stop-color:#EC1C24"/>
		</linearGradient>
		<path fill="url(#SVGID_4_)" d="M35.675,8.848c-0.05-0.17-0.119-0.316-0.203-0.443c0.093,0.208,0.18,0.418,0.263,0.632
			C35.715,8.974,35.695,8.911,35.675,8.848z"/>
		<path fill="#981B1F" d="M11.814,10.62l8.089-0.625l8.732-0.619l5.497-0.423l-9.037,0.324L10.939,9.74
			c-0.1,0.313-0.189,0.631-0.266,0.953L11.814,10.62z"/>
		<path d="M36.246,10.648c-0.136-0.554-0.31-1.091-0.511-1.611c0.179,0.559,0.402,1.106,0.514,1.687
			c0.002,0.007,0.004,0.013,0.006,0.02l0.014-0.001C36.26,10.712,36.254,10.68,36.246,10.648z"/>
		<linearGradient id="SVGID_5_" gradientUnits="userSpaceOnUse" x1="10.1323" y1="9.8901" x2="36.7413" y2="9.8901">
			<stop  offset="0.5276" style="stop-color:#EC1C24"/>
			<stop  offset="0.7402" style="stop-color:#A60E13"/>
			<stop  offset="1" style="stop-color:#EC1C24"/>
		</linearGradient>
		<path fill="url(#SVGID_5_)" d="M36.246,10.648c-0.136-0.554-0.31-1.091-0.511-1.611c0.179,0.559,0.402,1.106,0.514,1.687
			c0.002,0.007,0.004,0.013,0.006,0.02l0.014-0.001C36.26,10.712,36.254,10.68,36.246,10.648z"/>
		<path d="M10.737,13.06c0.191-0.165,0.4-0.299,0.655-0.337c0.262-0.04,0.527-0.069,0.791-0.1c1.289-0.146,2.583-0.223,3.876-0.312
			c0.066,0,0.133,0.003,0.199-0.001c2.466-0.139,4.936-0.021,7.407-0.05c1.63-0.018,3.26,0.169,4.891,0.169c0.049,0,0.099,0,0.148,0
			c0.017,0,0.033-0.184,0.05-0.183c0.3,0.001,0.6-0.089,0.9-0.087c-0.044,0-0.084-0.043-0.13-0.043c0.17,0,0.429-0.024,0.537-0.023
			c0.664,0.041,1.329,0.047,1.993,0.04c0.365,0.041,0.732,0.048,1.099,0.04c0.067,0.002,0.135,0.001,0.202,0.002
			c0.131,0.009,0.262,0.017,0.393,0.026c0.085,0.005,0.17,0.008,0.255,0.012c0.316,0.018,0.633,0.036,0.95,0.054
			c0.124,0.015,0.249,0.044,0.371,0.041c0.516-0.019,0.882,0.233,1.172,0.632c0.022,0.03,0.047,0.058,0.11,0.135
			c-0.043-0.541-0.077-1.02-0.179-1.493L17.5,12.1l18.754-1.356c-0.002-0.007-0.004-0.013-0.006-0.02
			c-0.111-0.581-0.334-1.128-0.514-1.687c-0.083-0.213-0.17-0.424-0.263-0.632c-0.234-0.354-0.589-0.553-1.026-0.681
			c-0.046-0.014-0.095-0.024-0.144-0.037c-0.308-0.105-0.628-0.128-0.95-0.148c-0.267-0.019-0.53-0.075-0.799-0.057
			c-0.217-0.016-0.434-0.03-0.65-0.045c-0.214-0.005-0.429,0.015-0.644,0.009c-0.6-0.069-1.202-0.017-1.804-0.017
			c-0.216,0-0.433,0-0.65,0s-0.434-0.024-0.65-0.023c-0.2,0.001-0.4-0.011-0.6-0.01c-0.433-0.009-0.867-0.014-1.299,0.035
			c-0.368-0.004-0.734-0.02-1.1,0.038c-1.023,0.006-2.043,0.083-3.064,0.147c-3.205,0.201-6.399,0.514-9.585,0.916
			c-0.437,0.055-0.922,0.244-1.319,0.506c-0.089,0.231-0.172,0.466-0.249,0.703l14.156-0.463l9.037-0.324l-5.497,0.423l-8.732,0.619
			l-8.089,0.625l-1.141,0.073c-0.197,0.823-0.315,1.673-0.35,2.539c0.001,0.057,0.001,0.114,0,0.171
			C10.455,13.294,10.597,13.178,10.737,13.06z"/>
		<linearGradient id="SVGID_6_" gradientUnits="userSpaceOnUse" x1="10.1367" y1="10.397" x2="36.7412" y2="10.397">
			<stop  offset="0.5276" style="stop-color:#EC1C24"/>
			<stop  offset="0.7402" style="stop-color:#A60E13"/>
			<stop  offset="1" style="stop-color:#EC1C24"/>
		</linearGradient>
		<path fill="url(#SVGID_6_)" d="M10.737,13.06c0.191-0.165,0.4-0.299,0.655-0.337c0.262-0.04,0.527-0.069,0.791-0.1
			c1.289-0.146,2.583-0.223,3.876-0.312c0.066,0,0.133,0.003,0.199-0.001c2.466-0.139,4.936-0.021,7.407-0.05
			c1.63-0.018,3.26,0.169,4.891,0.169c0.049,0,0.099,0,0.148,0c0.017,0,0.033-0.184,0.05-0.183c0.3,0.001,0.6-0.089,0.9-0.087
			c-0.044,0-0.084-0.043-0.13-0.043c0.17,0,0.429-0.024,0.537-0.023c0.664,0.041,1.329,0.047,1.993,0.04
			c0.365,0.041,0.732,0.048,1.099,0.04c0.067,0.002,0.135,0.001,0.202,0.002c0.131,0.009,0.262,0.017,0.393,0.026
			c0.085,0.005,0.17,0.008,0.255,0.012c0.316,0.018,0.633,0.036,0.95,0.054c0.124,0.015,0.249,0.044,0.371,0.041
			c0.516-0.019,0.882,0.233,1.172,0.632c0.022,0.03,0.047,0.058,0.11,0.135c-0.043-0.541-0.077-1.02-0.179-1.493L17.5,12.1
			l18.754-1.356c-0.002-0.007-0.004-0.013-0.006-0.02c-0.111-0.581-0.334-1.128-0.514-1.687c-0.083-0.213-0.17-0.424-0.263-0.632
			c-0.234-0.354-0.589-0.553-1.026-0.681c-0.046-0.014-0.095-0.024-0.144-0.037c-0.308-0.105-0.628-0.128-0.95-0.148
			c-0.267-0.019-0.53-0.075-0.799-0.057c-0.217-0.016-0.434-0.03-0.65-0.045c-0.214-0.005-0.429,0.015-0.644,0.009
			c-0.6-0.069-1.202-0.017-1.804-0.017c-0.216,0-0.433,0-0.65,0s-0.434-0.024-0.65-0.023c-0.2,0.001-0.4-0.011-0.6-0.01
			c-0.433-0.009-0.867-0.014-1.299,0.035c-0.368-0.004-0.734-0.02-1.1,0.038c-1.023,0.006-2.043,0.083-3.064,0.147
			c-3.205,0.201-6.399,0.514-9.585,0.916c-0.437,0.055-0.922,0.244-1.319,0.506c-0.089,0.231-0.172,0.466-0.249,0.703l14.156-0.463
			l9.037-0.324l-5.497,0.423l-8.732,0.619l-8.089,0.625l-1.141,0.073c-0.197,0.823-0.315,1.673-0.35,2.539
			c0.001,0.057,0.001,0.114,0,0.171C10.455,13.294,10.597,13.178,10.737,13.06z"/>
		<path d="M33.748,12.2c-0.131-0.009-0.262-0.019-0.393-0.027c-0.067-0.001-0.135-0.002-0.202-0.005
			c-0.367,0.009-0.734-0.004-1.099-0.045c-0.665,0.008-1.33,0.168-1.993,0.127c-0.108-0.002-0.367,0.18-0.537,0.18
			c0.046,0,0.086,0,0.13,0c-0.3,0-0.6-0.006-0.9-0.007c0.3,0.001,0.6,0.007,0.9,0.007c-0.044,0-0.084,0-0.13,0
			c0.17,0,0.429-0.181,0.537-0.18c0.664,0.041,1.329-0.032,1.993-0.039c0.365,0.041,0.732,0.01,1.099,0.001
			c0.067,0.002,0.135-0.018,0.202-0.016c0.131,0.009,0.262,0.007,0.393,0.016c0.085,0.004,0.17,0.003,0.255,0.008
			c0.316,0.018,0.633,0.033,0.95,0.051c-0.316-0.018-0.633-0.037-0.95-0.055C33.918,12.21,33.833,12.204,33.748,12.2z"/>
		<linearGradient id="SVGID_7_" gradientUnits="userSpaceOnUse" x1="10.1362" y1="12.2759" x2="36.7409" y2="12.2759">
			<stop  offset="0.5276" style="stop-color:#EC1C24"/>
			<stop  offset="0.7402" style="stop-color:#A60E13"/>
			<stop  offset="1" style="stop-color:#EC1C24"/>
		</linearGradient>
		<path fill="url(#SVGID_7_)" d="M33.748,12.2c-0.131-0.009-0.262-0.019-0.393-0.027c-0.067-0.001-0.135-0.002-0.202-0.005
			c-0.367,0.009-0.734-0.004-1.099-0.045c-0.665,0.008-1.33,0.168-1.993,0.127c-0.108-0.002-0.367,0.18-0.537,0.18
			c0.046,0,0.086,0,0.13,0c-0.3,0-0.6-0.006-0.9-0.007c0.3,0.001,0.6,0.007,0.9,0.007c-0.044,0-0.084,0-0.13,0
			c0.17,0,0.429-0.181,0.537-0.18c0.664,0.041,1.329-0.032,1.993-0.039c0.365,0.041,0.732,0.01,1.099,0.001
			c0.067,0.002,0.135-0.018,0.202-0.016c0.131,0.009,0.262,0.007,0.393,0.016c0.085,0.004,0.17,0.003,0.255,0.008
			c0.316,0.018,0.633,0.033,0.95,0.051c-0.316-0.018-0.633-0.037-0.95-0.055C33.918,12.21,33.833,12.204,33.748,12.2z"/>
		<path fill="#981B1F" d="M36.268,10.743l-0.014,0.001c0.038,0.116,0.067,0.233,0.093,0.35
			C36.323,10.977,36.296,10.86,36.268,10.743z"/>
		<path fill="#981B1F" d="M36.37,11.208c-0.007-0.038-0.015-0.076-0.023-0.114c-0.025-0.117-0.055-0.234-0.093-0.35L17.5,12.1
			l18.927-0.518c-0.001-0.004-0.002-0.01-0.003-0.015C36.41,11.447,36.392,11.327,36.37,11.208z"/>
		<path fill="#F0564B" d="M30.708,9.217C30.752,9.231,32.153,10,32.153,10l-16.49,0.323L30.708,9.217z"/>
	</g>
</g>
</svg>
