<?xml version="1.0" encoding="UTF-8" standalone="yes"?><svg xmlns="http://www.w3.org/2000/svg" xmlns:xlink="http://www.w3.org/1999/xlink" height="149pt" style="width:307px;height:149px;" version="1.1" viewBox="0 0 307 149" width="307pt"><defs><filter height="300%" id="f1" width="300%" x="-1" y="-1"><feGaussianBlur result="blurOut" stdDeviation="2"/><feColorMatrix in="blurOut" result="blurOut2" type="matrix" values="0 0 0 0 0 0 0 0 0 0 0 0 0 0 0 0 0 0 .4 0"/><feOffset dx="4" dy="4" in="blurOut2" result="blurOut3"/><feBlend in="SourceGraphic" in2="blurOut3" mode="normal"/></filter></defs><g><rect fill="#FEFECE" filter="url(#f1)" height="36.296875" style="stroke: #A80036; stroke-width: 1.5;" width="71.0" x="119.5" y="8.0"/><rect fill="#FEFECE" height="5.0" style="stroke: #A80036; stroke-width: 1.5;" width="10.0" x="114.5" y="13.0"/><rect fill="#FEFECE" height="5.0" style="stroke: #A80036; stroke-width: 1.5;" width="10.0" x="114.5" y="34.296875"/><text fill="#000000" font-size="14" lengthAdjust="spacingAndGlyphs" textLength="51.0" x="129.5" y="32.0">Lucene</text><rect fill="#FEFECE" filter="url(#f1)" height="36.296875" style="stroke: #A80036; stroke-width: 1.5;" width="33.0" x="138.5" y="104.0"/><rect fill="#FEFECE" height="5.0" style="stroke: #A80036; stroke-width: 1.5;" width="10.0" x="133.5" y="109.0"/><rect fill="#FEFECE" height="5.0" style="stroke: #A80036; stroke-width: 1.5;" width="10.0" x="133.5" y="130.296875"/><text fill="#000000" font-size="14" lengthAdjust="spacingAndGlyphs" textLength="13.0" x="148.5" y="128.0">UI</text><rect fill="#FEFECE" filter="url(#f1)" height="36.296875" style="stroke: #A80036; stroke-width: 1.5;" width="73.0" x="225.5" y="8.0"/><rect fill="#FEFECE" height="5.0" style="stroke: #A80036; stroke-width: 1.5;" width="10.0" x="220.5" y="13.0"/><rect fill="#FEFECE" height="5.0" style="stroke: #A80036; stroke-width: 1.5;" width="10.0" x="220.5" y="34.296875"/><text fill="#000000" font-size="14" lengthAdjust="spacingAndGlyphs" textLength="53.0" x="235.5" y="32.0">Scraper</text><rect fill="#FEFECE" filter="url(#f1)" height="36.296875" style="stroke: #A80036; stroke-width: 1.5;" width="78.0" x="6.0" y="8.0"/><rect fill="#FEFECE" height="5.0" style="stroke: #A80036; stroke-width: 1.5;" width="10.0" x="1.0" y="13.0"/><rect fill="#FEFECE" height="5.0" style="stroke: #A80036; stroke-width: 1.5;" width="10.0" x="1.0" y="34.296875"/><text fill="#000000" font-size="14" lengthAdjust="spacingAndGlyphs" textLength="58.0" x="16.0" y="32.0">Analyzer</text><path d="M155,44.241 C155,61.2017 155,86.9455 155,103.8683 " fill="none" style="stroke: #A80036; stroke-width: 1.0;"/><path d="M190.527,26 C202.16,26 213.793,26 225.426,26 " fill="none" style="stroke: #A80036; stroke-width: 1.0;"/><path d="M84.1016,26 C95.8257,26 107.55,26 119.274,26 " fill="none" style="stroke: #A80036; stroke-width: 1.0;"/></g></svg>