<?xml version="1.0" encoding="UTF-8" standalone="yes"?><svg xmlns="http://www.w3.org/2000/svg" xmlns:xlink="http://www.w3.org/1999/xlink" height="149pt" style="width:202px;height:149px;" version="1.1" viewBox="0 0 202 149" width="202pt"><defs><filter height="300%" id="f1" width="300%" x="-1" y="-1"><feGaussianBlur result="blurOut" stdDeviation="2"/><feColorMatrix in="blurOut" result="blurOut2" type="matrix" values="0 0 0 0 0 0 0 0 0 0 0 0 0 0 0 0 0 0 .4 0"/><feOffset dx="4" dy="4" in="blurOut2" result="blurOut3"/><feBlend in="SourceGraphic" in2="blurOut3" mode="normal"/></filter></defs><g><rect fill="#FEFECE" filter="url(#f1)" height="36.296875" style="stroke: #A80036; stroke-width: 1.5;" width="67.0" x="6.0" y="104.0"/><rect fill="#FEFECE" height="5.0" style="stroke: #A80036; stroke-width: 1.5;" width="10.0" x="1.0" y="109.0"/><rect fill="#FEFECE" height="5.0" style="stroke: #A80036; stroke-width: 1.5;" width="10.0" x="1.0" y="130.296875"/><text fill="#000000" font-size="14" lengthAdjust="spacingAndGlyphs" textLength="47.0" x="16.0" y="128.0">GitHub</text><ellipse cx="39.0" cy="18.0" fill="#FEFECE" filter="url(#f1)" rx="8.0" ry="8.0" style="stroke: #A80036; stroke-width: 2.0;"/><text fill="#000000" font-size="14" lengthAdjust="spacingAndGlyphs" textLength="32.0" x="23.0" y="40.0">User</text><rect fill="#FEFECE" filter="url(#f1)" height="36.296875" style="stroke: #A80036; stroke-width: 1.5;" width="70.0" x="102.0" y="8.0"/><rect fill="#FEFECE" height="5.0" style="stroke: #A80036; stroke-width: 1.5;" width="10.0" x="97.0" y="13.0"/><rect fill="#FEFECE" height="5.0" style="stroke: #A80036; stroke-width: 1.5;" width="10.0" x="97.0" y="34.296875"/><text fill="#000000" font-size="14" lengthAdjust="spacingAndGlyphs" textLength="50.0" x="112.0" y="32.0">Service</text><rect fill="#FEFECE" filter="url(#f1)" height="36.296875" style="stroke: #A80036; stroke-width: 1.5;" width="86.0" x="107.0" y="104.0"/><rect fill="#FEFECE" height="5.0" style="stroke: #A80036; stroke-width: 1.5;" width="10.0" x="102.0" y="109.0"/><rect fill="#FEFECE" height="5.0" style="stroke: #A80036; stroke-width: 1.5;" width="10.0" x="102.0" y="130.296875"/><text fill="#000000" font-size="14" lengthAdjust="spacingAndGlyphs" textLength="66.0" x="117.0" y="128.0">Database</text><path d="M39,42.2851 C39,56.3274 39,76.9245 39,93.6639 " fill="none" style="stroke: #A80036; stroke-width: 1.0;"/><polygon fill="#A80036" points="39.0,103.9995,43.5001,93.9995,39.0,98.9995,39.0001,93.9995,39.0001,93.9995,39.0001,93.9995,39.0,98.9995,34.5001,93.99940000000001,39.0,103.9995,39.0,103.9995" style="stroke: #A80036; stroke-width: 1.0;"/><path d="M118.567,44.0569 C103.4693,58.8464 81.9254,79.9506 65.0622,96.4697 " fill="none" style="stroke: #A80036; stroke-width: 1.0;"/><polygon fill="#A80036" points="57.6836,103.6977,67.9762,99.9145,61.2554,100.1988,64.8272,96.6999,64.8272,96.6999,64.8272,96.6999,61.2554,100.1988,61.6782,93.4853,57.6836,103.6977,57.6836,103.6977" style="stroke: #A80036; stroke-width: 1.0;"/><path d="M139.445,44.0569 C141.34,58.047 143.999,77.6875 146.175,93.7524 " fill="none" style="stroke: #A80036; stroke-width: 1.0;"/><polygon fill="#A80036" points="147.522,103.6977,150.639,93.1842,146.851,98.74289999999999,146.18,93.7882,146.18,93.7882,146.18,93.7882,146.851,98.74289999999999,141.72,94.3921,147.522,103.6977,147.522,103.6977" style="stroke: #A80036; stroke-width: 1.0;"/></g></svg>