<?xml version="1.0" encoding="UTF-8" standalone="yes"?><svg xmlns="http://www.w3.org/2000/svg" xmlns:xlink="http://www.w3.org/1999/xlink" height="149pt" style="width:164px;height:149px;" version="1.1" viewBox="0 0 164 149" width="164pt"><defs><filter height="300%" id="f1" width="300%" x="-1" y="-1"><feGaussianBlur result="blurOut" stdDeviation="2"/><feColorMatrix in="blurOut" result="blurOut2" type="matrix" values="0 0 0 0 0 0 0 0 0 0 0 0 0 0 0 0 0 0 .4 0"/><feOffset dx="4" dy="4" in="blurOut2" result="blurOut3"/><feBlend in="SourceGraphic" in2="blurOut3" mode="normal"/></filter></defs><g><rect fill="#FEFECE" filter="url(#f1)" height="36.296875" style="stroke: #A80036; stroke-width: 1.5;" width="87.0" x="39.5" y="8.0"/><rect fill="#FEFECE" height="5.0" style="stroke: #A80036; stroke-width: 1.5;" width="10.0" x="34.5" y="13.0"/><rect fill="#FEFECE" height="5.0" style="stroke: #A80036; stroke-width: 1.5;" width="10.0" x="34.5" y="34.296875"/><text fill="#000000" font-size="14" lengthAdjust="spacingAndGlyphs" textLength="67.0" x="49.5" y="32.0">Controller</text><rect fill="#FEFECE" filter="url(#f1)" height="36.296875" style="stroke: #A80036; stroke-width: 1.5;" width="62.0" x="6.0000000000000036" y="104.0"/><rect fill="#FEFECE" height="5.0" style="stroke: #A80036; stroke-width: 1.5;" width="10.0" x="1.0000000000000036" y="109.0"/><rect fill="#FEFECE" height="5.0" style="stroke: #A80036; stroke-width: 1.5;" width="10.0" x="1.0000000000000036" y="130.296875"/><text fill="#000000" font-size="14" lengthAdjust="spacingAndGlyphs" textLength="42.0" x="16.000000000000004" y="128.0">Model</text><rect fill="#FEFECE" filter="url(#f1)" height="36.296875" style="stroke: #A80036; stroke-width: 1.5;" width="52.0" x="103.0" y="104.0"/><rect fill="#FEFECE" height="5.0" style="stroke: #A80036; stroke-width: 1.5;" width="10.0" x="98.0" y="109.0"/><rect fill="#FEFECE" height="5.0" style="stroke: #A80036; stroke-width: 1.5;" width="10.0" x="98.0" y="130.296875"/><text fill="#000000" font-size="14" lengthAdjust="spacingAndGlyphs" textLength="32.0" x="113.0" y="128.0">View</text><path d="M74.5629,44.241 C66.263,61.2017 53.665,86.9455 45.3836,103.8683 " fill="none" style="stroke: #A80036; stroke-width: 1.0;"/><path d="M91.4371,44.241 C99.737,61.2017 112.335,86.9455 120.616,103.8683 " fill="none" style="stroke: #A80036; stroke-width: 1.0;"/></g></svg>