<?xml version="1.0" encoding="UTF-8" standalone="yes"?><svg xmlns="http://www.w3.org/2000/svg" xmlns:xlink="http://www.w3.org/1999/xlink" height="349px" style="width:572px;height:349px;" version="1.1" viewBox="0 0 572 349" width="572px"><defs><filter height="300%" id="f1" width="300%" x="-1" y="-1"><feGaussianBlur result="blurOut" stdDeviation="2.0"/><feColorMatrix in="blurOut" result="blurOut2" type="matrix" values="0 0 0 0 0 0 0 0 0 0 0 0 0 0 0 0 0 0 .4 0"/><feOffset dx="4.0" dy="4.0" in="blurOut2" result="blurOut3"/><feBlend in="SourceGraphic" in2="blurOut3" mode="normal"/></filter></defs><g><rect fill="#FFFFFF" filter="url(#f1)" height="205.9453" style="stroke: #A80036; stroke-width: 1.0;" width="10" x="121" y="124.7891"/><rect fill="#228B22" filter="url(#f1)" height="14.7891" style="stroke: #A80036; stroke-width: 1.0;" width="10" x="126" y="259.9453"/><rect fill="#FFFFFF" filter="url(#f1)" height="158.1563" style="stroke: #A80036; stroke-width: 1.0;" width="10" x="223.5" y="158.5781"/><rect fill="#FFFFFF" filter="url(#f1)" height="110.3672" style="stroke: #A80036; stroke-width: 1.0;" width="10" x="348.5" y="192.3672"/><rect fill="#FFFFFF" filter="url(#f1)" height="62.5781" style="stroke: #A80036; stroke-width: 1.0;" width="10" x="483.5" y="226.1563"/><line style="stroke: #A80036; stroke-width: 1.0; stroke-dasharray: 5.0,5.0;" x1="36" x2="36" y1="89.7891" y2="348.7344"/><line style="stroke: #A80036; stroke-width: 1.0; stroke-dasharray: 5.0,5.0;" x1="126" x2="126" y1="89.7891" y2="348.7344"/><line style="stroke: #A80036; stroke-width: 1.0; stroke-dasharray: 5.0,5.0;" x1="228" x2="228" y1="89.7891" y2="348.7344"/><line style="stroke: #A80036; stroke-width: 1.0; stroke-dasharray: 5.0,5.0;" x1="353" x2="353" y1="89.7891" y2="348.7344"/><line style="stroke: #A80036; stroke-width: 1.0; stroke-dasharray: 5.0,5.0;" x1="488" x2="488" y1="89.7891" y2="348.7344"/><text fill="#000000" font-family="sans-serif" font-size="17" lengthAdjust="spacingAndGlyphs" textLength="50" x="8" y="85.7798">Client</text><ellipse cx="36" cy="13" fill="#FEFECE" filter="url(#f1)" rx="8" ry="8" style="stroke: #A80036; stroke-width: 2.0;"/><path d="M36,21 L36,48 M23,29 L49,29 M36,48 L23,63 M36,48 L49,63 " fill="#FEFECE" filter="url(#f1)" style="stroke: #A80036; stroke-width: 2.0;"/><rect fill="#FEFECE" filter="url(#f1)" height="33.7891" style="stroke: #A80036; stroke-width: 1.5;" width="44" x="102" y="51"/><text fill="#000000" font-family="Courier New" font-size="17" lengthAdjust="spacingAndGlyphs" textLength="30" x="109" y="73.7798">Foo</text><rect fill="#FEFECE" filter="url(#f1)" height="33.7891" style="stroke: #A80036; stroke-width: 1.5;" width="133" x="160" y="51"/><text fill="#000000" font-family="Courier New" font-size="17" lengthAdjust="spacingAndGlyphs" textLength="119" x="167" y="73.7798">MethodLogger</text><rect fill="#FEFECE" filter="url(#f1)" height="33.7891" style="stroke: #A80036; stroke-width: 1.5;" width="89" x="307" y="51"/><text fill="#000000" font-family="Courier New" font-size="17" lengthAdjust="spacingAndGlyphs" textLength="75" x="314" y="73.7798">JoinPoint</text><rect fill="#FEFECE" filter="url(#f1)" height="33.7891" style="stroke: #A80036; stroke-width: 1.5;" width="153" x="410" y="51"/><text fill="#000000" font-family="Courier New" font-size="17" lengthAdjust="spacingAndGlyphs" textLength="139" x="417" y="73.7798">Foo$AjcClosure1</text><rect fill="#FFFFFF" filter="url(#f1)" height="205.9453" style="stroke: #A80036; stroke-width: 1.0;" width="10" x="121" y="124.7891"/><rect fill="#228B22" filter="url(#f1)" height="14.7891" style="stroke: #A80036; stroke-width: 1.0;" width="10" x="126" y="259.9453"/><rect fill="#FFFFFF" filter="url(#f1)" height="158.1563" style="stroke: #A80036; stroke-width: 1.0;" width="10" x="223.5" y="158.5781"/><rect fill="#FFFFFF" filter="url(#f1)" height="110.3672" style="stroke: #A80036; stroke-width: 1.0;" width="10" x="348.5" y="192.3672"/><rect fill="#FFFFFF" filter="url(#f1)" height="62.5781" style="stroke: #A80036; stroke-width: 1.0;" width="10" x="483.5" y="226.1563"/><polygon fill="#A80036" points="109,120.7891,119,124.7891,109,128.7891,113,124.7891" style="stroke: #A80036; stroke-width: 1.0;"/><line style="stroke: #A80036; stroke-width: 1.0;" x1="36" x2="115" y1="124.7891" y2="124.7891"/><text fill="#000000" font-family="Courier New" font-size="17" lengthAdjust="spacingAndGlyphs" textLength="66" x="43" y="119.5688">power()</text><polygon fill="#A80036" points="211.5,154.5781,221.5,158.5781,211.5,162.5781,215.5,158.5781" style="stroke: #A80036; stroke-width: 1.0;"/><line style="stroke: #A80036; stroke-width: 1.0;" x1="131" x2="217.5" y1="158.5781" y2="158.5781"/><text fill="#000000" font-family="Courier New" font-size="17" lengthAdjust="spacingAndGlyphs" textLength="73" x="138" y="153.3579">around()</text><polygon fill="#A80036" points="336.5,188.3672,346.5,192.3672,336.5,196.3672,340.5,192.3672" style="stroke: #A80036; stroke-width: 1.0;"/><line style="stroke: #A80036; stroke-width: 1.0;" x1="233.5" x2="342.5" y1="192.3672" y2="192.3672"/><text fill="#000000" font-family="Courier New" font-size="17" lengthAdjust="spacingAndGlyphs" textLength="79" x="240.5" y="187.147">proceed()</text><polygon fill="#A80036" points="471.5,222.1563,481.5,226.1563,471.5,230.1563,475.5,226.1563" style="stroke: #A80036; stroke-width: 1.0;"/><line style="stroke: #A80036; stroke-width: 1.0;" x1="358.5" x2="477.5" y1="226.1563" y2="226.1563"/><text fill="#000000" font-family="Courier New" font-size="17" lengthAdjust="spacingAndGlyphs" textLength="43" x="365.5" y="220.936">run()</text><polygon fill="#A80036" points="147,255.9453,137,259.9453,147,263.9453,143,259.9453" style="stroke: #A80036; stroke-width: 1.0;"/><line style="stroke: #A80036; stroke-width: 1.0;" x1="141" x2="482.5" y1="259.9453" y2="259.9453"/><text fill="#000000" font-family="Courier New" font-size="17" lengthAdjust="spacingAndGlyphs" textLength="176" x="153" y="254.7251">power_aroundBody()</text><polygon fill="#A80036" points="471.5,270.7344,481.5,274.7344,471.5,278.7344,475.5,274.7344" style="stroke: #A80036; stroke-width: 1.0;"/><line style="stroke: #A80036; stroke-width: 1.0; stroke-dasharray: 2.0,2.0;" x1="131" x2="477.5" y1="274.7344" y2="274.7344"/><polygon fill="#A80036" points="369.5,284.7344,359.5,288.7344,369.5,292.7344,365.5,288.7344" style="stroke: #A80036; stroke-width: 1.0;"/><line style="stroke: #A80036; stroke-width: 1.0; stroke-dasharray: 2.0,2.0;" x1="363.5" x2="487.5" y1="288.7344" y2="288.7344"/><polygon fill="#A80036" points="244.5,298.7344,234.5,302.7344,244.5,306.7344,240.5,302.7344" style="stroke: #A80036; stroke-width: 1.0;"/><line style="stroke: #A80036; stroke-width: 1.0; stroke-dasharray: 2.0,2.0;" x1="238.5" x2="352.5" y1="302.7344" y2="302.7344"/><polygon fill="#A80036" points="142,312.7344,132,316.7344,142,320.7344,138,316.7344" style="stroke: #A80036; stroke-width: 1.0;"/><line style="stroke: #A80036; stroke-width: 1.0; stroke-dasharray: 2.0,2.0;" x1="136" x2="227.5" y1="316.7344" y2="316.7344"/><polygon fill="#A80036" points="47,326.7344,37,330.7344,47,334.7344,43,330.7344" style="stroke: #A80036; stroke-width: 1.0;"/><line style="stroke: #A80036; stroke-width: 1.0; stroke-dasharray: 2.0,2.0;" x1="41" x2="125" y1="330.7344" y2="330.7344"/></g></svg>