<?xml version="1.0" encoding="UTF-8" standalone="yes"?><svg xmlns="http://www.w3.org/2000/svg" xmlns:xlink="http://www.w3.org/1999/xlink" height="401pt" style="width:546px;height:401px;" version="1.1" viewBox="0 0 546 401" width="546pt"><defs/><g><rect fill="#FFFFFF" height="259.9453125" style="stroke: #A80036; stroke-width: 1.0;" width="10.0" x="113.0" y="120.7890625"/><rect fill="#228B22" height="20.7890625" style="stroke: #A80036; stroke-width: 1.0;" width="10.0" x="118.0" y="279.9453125"/><rect fill="#FFFFFF" height="200.15625" style="stroke: #A80036; stroke-width: 1.0;" width="10.0" x="211.5" y="160.578125"/><rect fill="#FFFFFF" height="140.3671875" style="stroke: #A80036; stroke-width: 1.0;" width="10.0" x="332.5" y="200.3671875"/><rect fill="#FFFFFF" height="80.578125" style="stroke: #A80036; stroke-width: 1.0;" width="10.0" x="463.5" y="240.15625"/><line style="stroke: #A80036; stroke-width: 1.0; stroke-dasharray: 5.0,5.0;" x1="33.0" x2="33.0" y1="81.7890625" y2="400.734375"/><line style="stroke: #A80036; stroke-width: 1.0; stroke-dasharray: 5.0,5.0;" x1="118.0" x2="118.0" y1="81.7890625" y2="400.734375"/><line style="stroke: #A80036; stroke-width: 1.0; stroke-dasharray: 5.0,5.0;" x1="216.0" x2="216.0" y1="81.7890625" y2="400.734375"/><line style="stroke: #A80036; stroke-width: 1.0; stroke-dasharray: 5.0,5.0;" x1="337.0" x2="337.0" y1="81.7890625" y2="400.734375"/><line style="stroke: #A80036; stroke-width: 1.0; stroke-dasharray: 5.0,5.0;" x1="468.0" x2="468.0" y1="81.7890625" y2="400.734375"/><text fill="#000000" font-size="17" lengthAdjust="spacingAndGlyphs" textLength="50.0" x="5.0" y="79.0">Client</text><ellipse cx="33.0" cy="10.0" fill="#FEFECE" rx="8.0" ry="8.0" style="stroke: #A80036; stroke-width: 2.0;"/><path d="M33,18 L33,45 M20,26 L46,26 M33,45 L20,60 M33,45 L46,60 " fill="#FEFECE" style="stroke: #A80036; stroke-width: 2.0;"/><rect fill="#FEFECE" height="33.7890625" style="stroke: #A80036; stroke-width: 1.0;" width="44.0" x="96.0" y="48.0"/><text fill="#000000" font-family="Courier New" font-size="17" lengthAdjust="spacingAndGlyphs" textLength="30.0" x="103.0" y="72.0">Foo</text><rect fill="#FEFECE" height="33.7890625" style="stroke: #A80036; stroke-width: 1.0;" width="133.0" x="150.0" y="48.0"/><text fill="#000000" font-family="Courier New" font-size="17" lengthAdjust="spacingAndGlyphs" textLength="119.0" x="157.0" y="72.0">MethodLogger</text><rect fill="#FEFECE" height="33.7890625" style="stroke: #A80036; stroke-width: 1.0;" width="89.0" x="293.0" y="48.0"/><text fill="#000000" font-family="Courier New" font-size="17" lengthAdjust="spacingAndGlyphs" textLength="75.0" x="300.0" y="72.0">JoinPoint</text><rect fill="#FEFECE" height="33.7890625" style="stroke: #A80036; stroke-width: 1.0;" width="153.0" x="392.0" y="48.0"/><text fill="#000000" font-family="Courier New" font-size="17" lengthAdjust="spacingAndGlyphs" textLength="139.0" x="399.0" y="72.0">Foo$AjcClosure1</text><rect fill="#FFFFFF" height="259.9453125" style="stroke: #A80036; stroke-width: 1.0;" width="10.0" x="113.0" y="120.7890625"/><rect fill="#228B22" height="20.7890625" style="stroke: #A80036; stroke-width: 1.0;" width="10.0" x="118.0" y="279.9453125"/><rect fill="#FFFFFF" height="200.15625" style="stroke: #A80036; stroke-width: 1.0;" width="10.0" x="211.5" y="160.578125"/><rect fill="#FFFFFF" height="140.3671875" style="stroke: #A80036; stroke-width: 1.0;" width="10.0" x="332.5" y="200.3671875"/><rect fill="#FFFFFF" height="80.578125" style="stroke: #A80036; stroke-width: 1.0;" width="10.0" x="463.5" y="240.15625"/><line style="stroke: #A80036; stroke-width: 1.0;" x1="33.0" x2="107.0" y1="120.7890625" y2="120.7890625"/><polygon fill="#A80036" points="101.0,116.7890625,111.0,120.7890625,101.0,124.7890625" style="stroke: #A80036; stroke-width: 1.0;"/><text fill="#000000" font-family="Courier New" font-size="17" lengthAdjust="spacingAndGlyphs" textLength="66.0" x="40.0" y="114.7890625">power()</text><line style="stroke: #A80036; stroke-width: 1.0;" x1="123.0" x2="205.5" y1="160.578125" y2="160.578125"/><polygon fill="#A80036" points="199.5,156.578125,209.5,160.578125,199.5,164.578125" style="stroke: #A80036; stroke-width: 1.0;"/><text fill="#000000" font-family="Courier New" font-size="17" lengthAdjust="spacingAndGlyphs" textLength="73.0" x="130.0" y="154.578125">around()</text><line style="stroke: #A80036; stroke-width: 1.0;" x1="221.5" x2="326.5" y1="200.3671875" y2="200.3671875"/><polygon fill="#A80036" points="320.5,196.3671875,330.5,200.3671875,320.5,204.3671875" style="stroke: #A80036; stroke-width: 1.0;"/><text fill="#000000" font-family="Courier New" font-size="17" lengthAdjust="spacingAndGlyphs" textLength="79.0" x="228.5" y="194.3671875">proceed()</text><line style="stroke: #A80036; stroke-width: 1.0;" x1="342.5" x2="457.5" y1="240.15625" y2="240.15625"/><polygon fill="#A80036" points="451.5,236.15625,461.5,240.15625,451.5,244.15625" style="stroke: #A80036; stroke-width: 1.0;"/><text fill="#000000" font-family="Courier New" font-size="17" lengthAdjust="spacingAndGlyphs" textLength="43.0" x="349.5" y="234.15625">run()</text><line style="stroke: #A80036; stroke-width: 1.0;" x1="133.0" x2="462.5" y1="279.9453125" y2="279.9453125"/><polygon fill="#A80036" points="140.0,275.9453125,130.0,279.9453125,140.0,283.9453125" style="stroke: #A80036; stroke-width: 1.0;"/><text fill="#000000" font-family="Courier New" font-size="17" lengthAdjust="spacingAndGlyphs" textLength="176.0" x="135.0" y="273.9453125">power_aroundBody()</text><line style="stroke: #A80036; stroke-width: 1.0; stroke-dasharray: 2.0,2.0;" x1="123.0" x2="457.5" y1="300.734375" y2="300.734375"/><polygon fill="#A80036" points="451.5,296.734375,461.5,300.734375,451.5,304.734375" style="stroke: #A80036; stroke-width: 1.0;"/><line style="stroke: #A80036; stroke-width: 1.0; stroke-dasharray: 2.0,2.0;" x1="347.5" x2="467.5" y1="320.734375" y2="320.734375"/><polygon fill="#A80036" points="354.5,316.734375,344.5,320.734375,354.5,324.734375" style="stroke: #A80036; stroke-width: 1.0;"/><line style="stroke: #A80036; stroke-width: 1.0; stroke-dasharray: 2.0,2.0;" x1="226.5" x2="336.5" y1="340.734375" y2="340.734375"/><polygon fill="#A80036" points="233.5,336.734375,223.5,340.734375,233.5,344.734375" style="stroke: #A80036; stroke-width: 1.0;"/><line style="stroke: #A80036; stroke-width: 1.0; stroke-dasharray: 2.0,2.0;" x1="128.0" x2="215.5" y1="360.734375" y2="360.734375"/><polygon fill="#A80036" points="135.0,356.734375,125.0,360.734375,135.0,364.734375" style="stroke: #A80036; stroke-width: 1.0;"/><line style="stroke: #A80036; stroke-width: 1.0; stroke-dasharray: 2.0,2.0;" x1="38.0" x2="117.0" y1="380.734375" y2="380.734375"/><polygon fill="#A80036" points="45.0,376.734375,35.0,380.734375,45.0,384.734375" style="stroke: #A80036; stroke-width: 1.0;"/></g></svg>