<?xml version="1.0" encoding="UTF-8" standalone="yes"?><svg xmlns="http://www.w3.org/2000/svg" xmlns:xlink="http://www.w3.org/1999/xlink" height="344pt" style="width:615px;height:344px;" version="1.1" viewBox="0 0 615 344" width="615pt"><defs><filter height="300%" id="f1" width="300%" x="-1" y="-1"><feGaussianBlur result="blurOut" stdDeviation="2.0"/><feColorMatrix in="blurOut" result="blurOut2" type="matrix" values="0 0 0 0 0 0 0 0 0 0 0 0 0 0 0 0 0 0 .4 0"/><feOffset dx="4.0" dy="4.0" in="blurOut2" result="blurOut3"/><feBlend in="SourceGraphic" in2="blurOut3" mode="normal"/></filter></defs><g><rect fill="#FFFFFF" filter="url(#f1)" height="203.2891" style="stroke: #A80036; stroke-width: 1.0;" width="10" x="126" y="122.0215"/><rect fill="#228B22" filter="url(#f1)" height="14.2578" style="stroke: #A80036; stroke-width: 1.0;" width="10" x="131" y="255.0527"/><rect fill="#FFFFFF" filter="url(#f1)" height="156.0313" style="stroke: #A80036; stroke-width: 1.0;" width="10" x="240" y="155.2793"/><rect fill="#FFFFFF" filter="url(#f1)" height="108.7734" style="stroke: #A80036; stroke-width: 1.0;" width="10" x="373" y="188.5371"/><rect fill="#FFFFFF" filter="url(#f1)" height="61.5156" style="stroke: #A80036; stroke-width: 1.0;" width="10" x="521" y="221.7949"/><line style="stroke: #A80036; stroke-width: 1.0; stroke-dasharray: 5.0,5.0;" x1="32" x2="32" y1="87.0215" y2="343.3105"/><line style="stroke: #A80036; stroke-width: 1.0; stroke-dasharray: 5.0,5.0;" x1="131" x2="131" y1="87.0215" y2="343.3105"/><line style="stroke: #A80036; stroke-width: 1.0; stroke-dasharray: 5.0,5.0;" x1="245" x2="245" y1="87.0215" y2="343.3105"/><line style="stroke: #A80036; stroke-width: 1.0; stroke-dasharray: 5.0,5.0;" x1="378" x2="378" y1="87.0215" y2="343.3105"/><line style="stroke: #A80036; stroke-width: 1.0; stroke-dasharray: 5.0,5.0;" x1="526" x2="526" y1="87.0215" y2="343.3105"/><text fill="#000000" font-family="sans-serif" font-size="17" lengthAdjust="spacingAndGlyphs" textLength="48" x="5" y="83.4355">Client</text><ellipse cx="32" cy="10" fill="#FEFECE" filter="url(#f1)" rx="8" ry="8" style="stroke: #A80036; stroke-width: 2.0;"/><path d="M32,18 L32,45 M19,26 L45,26 M32,45 L19,60 M32,45 L45,60 " fill="#FEFECE" filter="url(#f1)" style="stroke: #A80036; stroke-width: 2.0;"/><rect fill="#FEFECE" filter="url(#f1)" height="33.2578" style="stroke: #A80036; stroke-width: 1.5;" width="44" x="107" y="48.7637"/><text fill="#000000" font-family="Courier New" font-size="17" lengthAdjust="spacingAndGlyphs" textLength="30" x="114" y="69.9165">Foo</text><rect fill="#FEFECE" filter="url(#f1)" height="33.2578" style="stroke: #A80036; stroke-width: 1.5;" width="134" x="176" y="48.7637"/><text fill="#000000" font-family="Courier New" font-size="17" lengthAdjust="spacingAndGlyphs" textLength="120" x="183" y="69.9165">MethodLogger</text><rect fill="#FEFECE" filter="url(#f1)" height="33.2578" style="stroke: #A80036; stroke-width: 1.5;" width="104" x="324" y="48.7637"/><text fill="#000000" font-family="Courier New" font-size="17" lengthAdjust="spacingAndGlyphs" textLength="90" x="331" y="69.9165">JoinPoint</text><rect fill="#FEFECE" filter="url(#f1)" height="33.2578" style="stroke: #A80036; stroke-width: 1.5;" width="164" x="442" y="48.7637"/><text fill="#000000" font-family="Courier New" font-size="17" lengthAdjust="spacingAndGlyphs" textLength="150" x="449" y="69.9165">Foo$AjcClosure1</text><rect fill="#FFFFFF" filter="url(#f1)" height="203.2891" style="stroke: #A80036; stroke-width: 1.0;" width="10" x="126" y="122.0215"/><rect fill="#228B22" filter="url(#f1)" height="14.2578" style="stroke: #A80036; stroke-width: 1.0;" width="10" x="131" y="255.0527"/><rect fill="#FFFFFF" filter="url(#f1)" height="156.0313" style="stroke: #A80036; stroke-width: 1.0;" width="10" x="240" y="155.2793"/><rect fill="#FFFFFF" filter="url(#f1)" height="108.7734" style="stroke: #A80036; stroke-width: 1.0;" width="10" x="373" y="188.5371"/><rect fill="#FFFFFF" filter="url(#f1)" height="61.5156" style="stroke: #A80036; stroke-width: 1.0;" width="10" x="521" y="221.7949"/><polygon fill="#A80036" points="114,118.0215,124,122.0215,114,126.0215,118,122.0215" style="stroke: #A80036; stroke-width: 1.0;"/><line style="stroke: #A80036; stroke-width: 1.0;" x1="32" x2="120" y1="122.0215" y2="122.0215"/><text fill="#000000" font-family="Courier New" font-size="17" lengthAdjust="spacingAndGlyphs" textLength="70" x="39" y="115.1743">power()</text><polygon fill="#A80036" points="228,151.2793,238,155.2793,228,159.2793,232,155.2793" style="stroke: #A80036; stroke-width: 1.0;"/><line style="stroke: #A80036; stroke-width: 1.0;" x1="136" x2="234" y1="155.2793" y2="155.2793"/><text fill="#000000" font-family="Courier New" font-size="17" lengthAdjust="spacingAndGlyphs" textLength="80" x="143" y="148.4321">around()</text><polygon fill="#A80036" points="361,184.5371,371,188.5371,361,192.5371,365,188.5371" style="stroke: #A80036; stroke-width: 1.0;"/><line style="stroke: #A80036; stroke-width: 1.0;" x1="250" x2="367" y1="188.5371" y2="188.5371"/><text fill="#000000" font-family="Courier New" font-size="17" lengthAdjust="spacingAndGlyphs" textLength="90" x="257" y="181.6899">proceed()</text><polygon fill="#A80036" points="509,217.7949,519,221.7949,509,225.7949,513,221.7949" style="stroke: #A80036; stroke-width: 1.0;"/><line style="stroke: #A80036; stroke-width: 1.0;" x1="383" x2="515" y1="221.7949" y2="221.7949"/><text fill="#000000" font-family="Courier New" font-size="17" lengthAdjust="spacingAndGlyphs" textLength="50" x="390" y="214.9478">run()</text><polygon fill="#A80036" points="152,251.0527,142,255.0527,152,259.0527,148,255.0527" style="stroke: #A80036; stroke-width: 1.0;"/><line style="stroke: #A80036; stroke-width: 1.0;" x1="146" x2="520" y1="255.0527" y2="255.0527"/><text fill="#000000" font-family="Courier New" font-size="17" lengthAdjust="spacingAndGlyphs" textLength="180" x="158" y="248.2056">power_aroundBody()</text><polygon fill="#A80036" points="509,265.3105,519,269.3105,509,273.3105,513,269.3105" style="stroke: #A80036; stroke-width: 1.0;"/><line style="stroke: #A80036; stroke-width: 1.0; stroke-dasharray: 2.0,2.0;" x1="136" x2="515" y1="269.3105" y2="269.3105"/><polygon fill="#A80036" points="394,279.3105,384,283.3105,394,287.3105,390,283.3105" style="stroke: #A80036; stroke-width: 1.0;"/><line style="stroke: #A80036; stroke-width: 1.0; stroke-dasharray: 2.0,2.0;" x1="388" x2="525" y1="283.3105" y2="283.3105"/><polygon fill="#A80036" points="261,293.3105,251,297.3105,261,301.3105,257,297.3105" style="stroke: #A80036; stroke-width: 1.0;"/><line style="stroke: #A80036; stroke-width: 1.0; stroke-dasharray: 2.0,2.0;" x1="255" x2="377" y1="297.3105" y2="297.3105"/><polygon fill="#A80036" points="147,307.3105,137,311.3105,147,315.3105,143,311.3105" style="stroke: #A80036; stroke-width: 1.0;"/><line style="stroke: #A80036; stroke-width: 1.0; stroke-dasharray: 2.0,2.0;" x1="141" x2="244" y1="311.3105" y2="311.3105"/><polygon fill="#A80036" points="43,321.3105,33,325.3105,43,329.3105,39,325.3105" style="stroke: #A80036; stroke-width: 1.0;"/><line style="stroke: #A80036; stroke-width: 1.0; stroke-dasharray: 2.0,2.0;" x1="37" x2="130" y1="325.3105" y2="325.3105"/></g></svg>