<?xml version="1.0" encoding="UTF-8" standalone="yes"?><svg xmlns="http://www.w3.org/2000/svg" xmlns:xlink="http://www.w3.org/1999/xlink" height="149pt" style="width:138px;height:149px;" version="1.1" viewBox="0 0 138 149" width="138pt"><defs><filter height="300%" id="f1" width="300%" x="-1" y="-1"><feGaussianBlur result="blurOut" stdDeviation="2"/><feColorMatrix in="blurOut" result="blurOut2" type="matrix" values="0 0 0 0 0 0 0 0 0 0 0 0 0 0 0 0 0 0 .4 0"/><feOffset dx="4" dy="4" in="blurOut2" result="blurOut3"/><feBlend in="SourceGraphic" in2="blurOut3" mode="normal"/></filter></defs><g><rect fill="#FEFECE" filter="url(#f1)" height="36.296875" style="stroke: #A80036; stroke-width: 1.5;" width="58.0" x="36.0" y="8.0"/><rect fill="#FEFECE" height="5.0" style="stroke: #A80036; stroke-width: 1.5;" width="10.0" x="31.0" y="13.0"/><rect fill="#FEFECE" height="5.0" style="stroke: #A80036; stroke-width: 1.5;" width="10.0" x="31.0" y="34.296875"/><text fill="#000000" font-size="14" lengthAdjust="spacingAndGlyphs" textLength="38.0" x="46.0" y="32.0">script</text><rect fill="#FEFECE" filter="url(#f1)" height="36.296875" style="stroke: #A80036; stroke-width: 1.5;" width="41.0" x="6.0" y="104.0"/><rect fill="#FEFECE" height="5.0" style="stroke: #A80036; stroke-width: 1.5;" width="10.0" x="1.0" y="109.0"/><rect fill="#FEFECE" height="5.0" style="stroke: #A80036; stroke-width: 1.5;" width="10.0" x="1.0" y="130.296875"/><text fill="#000000" font-size="14" lengthAdjust="spacingAndGlyphs" textLength="21.0" x="16.0" y="128.0">log</text><rect fill="#FEFECE" filter="url(#f1)" height="36.296875" style="stroke: #A80036; stroke-width: 1.5;" width="48.0" x="81.0" y="104.0"/><rect fill="#FEFECE" height="5.0" style="stroke: #A80036; stroke-width: 1.5;" width="10.0" x="76.0" y="109.0"/><rect fill="#FEFECE" height="5.0" style="stroke: #A80036; stroke-width: 1.5;" width="10.0" x="76.0" y="130.296875"/><text fill="#000000" font-size="14" lengthAdjust="spacingAndGlyphs" textLength="28.0" x="91.0" y="128.0">Line</text><path d="M57.6644,44.0569 C51.9268,58.1802 43.8498,78.0621 37.2895,94.2104 " fill="none" style="stroke: #A80036; stroke-width: 1.0;"/><polygon fill="#A80036" points="33.4353,103.6977,41.3682,96.1268,35.3172,99.0654,37.1991,94.43299999999999,37.1991,94.43299999999999,37.1991,94.43299999999999,35.3172,99.0654,33.03,92.7393,33.4353,103.6977,33.4353,103.6977" style="stroke: #A80036; stroke-width: 1.0;"/><path d="M72.5237,44.0569 C78.4084,58.1802 86.6926,78.0621 93.421,94.2104 " fill="none" style="stroke: #A80036; stroke-width: 1.0;"/><polygon fill="#A80036" points="97.374,103.6977,97.6817,92.7361,95.4509,99.0823,93.5278,94.46690000000001,93.5278,94.46690000000001,93.5278,94.46690000000001,95.4509,99.0823,89.374,96.1977,97.374,103.6977,97.374,103.6977" style="stroke: #A80036; stroke-width: 1.0;"/></g></svg>