<?xml version="1.0" encoding="UTF-8" standalone="yes"?><svg xmlns="http://www.w3.org/2000/svg" xmlns:xlink="http://www.w3.org/1999/xlink" height="149pt" style="width:139px;height:149px;" version="1.1" viewBox="0 0 139 149" width="139pt"><defs><filter height="300%" id="f1" width="300%" x="-1" y="-1"><feGaussianBlur result="blurOut" stdDeviation="2"/><feColorMatrix in="blurOut" result="blurOut2" type="matrix" values="0 0 0 0 0 0 0 0 0 0 0 0 0 0 0 0 0 0 .4 0"/><feOffset dx="4" dy="4" in="blurOut2" result="blurOut3"/><feBlend in="SourceGraphic" in2="blurOut3" mode="normal"/></filter></defs><g><rect fill="#FEFECE" filter="url(#f1)" height="36.296875" style="stroke: #A80036; stroke-width: 1.5;" width="58.0" x="37.5" y="8.0"/><rect fill="#FEFECE" height="5.0" style="stroke: #A80036; stroke-width: 1.5;" width="10.0" x="32.5" y="13.0"/><rect fill="#FEFECE" height="5.0" style="stroke: #A80036; stroke-width: 1.5;" width="10.0" x="32.5" y="34.296875"/><text fill="#000000" font-size="14" lengthAdjust="spacingAndGlyphs" textLength="38.0" x="47.5" y="32.0">script</text><rect fill="#FEFECE" filter="url(#f1)" height="36.296875" style="stroke: #A80036; stroke-width: 1.5;" width="41.0" x="6.0" y="104.0"/><rect fill="#FEFECE" height="5.0" style="stroke: #A80036; stroke-width: 1.5;" width="10.0" x="1.0" y="109.0"/><rect fill="#FEFECE" height="5.0" style="stroke: #A80036; stroke-width: 1.5;" width="10.0" x="1.0" y="130.296875"/><text fill="#000000" font-size="14" lengthAdjust="spacingAndGlyphs" textLength="21.0" x="16.0" y="128.0">log</text><rect fill="#FEFECE" filter="url(#f1)" height="36.296875" style="stroke: #A80036; stroke-width: 1.5;" width="48.0" x="82.5" y="104.0"/><rect fill="#FEFECE" height="5.0" style="stroke: #A80036; stroke-width: 1.5;" width="10.0" x="77.5" y="109.0"/><rect fill="#FEFECE" height="5.0" style="stroke: #A80036; stroke-width: 1.5;" width="10.0" x="77.5" y="130.296875"/><text fill="#000000" font-size="14" lengthAdjust="spacingAndGlyphs" textLength="28.0" x="92.5" y="128.0">Line</text><path d="M59.1634,44.241 C53.1866,58.2866 44.6466,78.3555 37.7978,94.4501 " fill="none" style="stroke: #A80036; stroke-width: 1.0;"/><polygon fill="#A80036" points="33.790099999999995,103.8683,41.8464,96.42869999999999,35.7479,99.2675,37.7057,94.66669999999999,37.7057,94.66669999999999,37.7057,94.66669999999999,35.7479,99.2675,33.565,92.90469999999999,33.790099999999995,103.8683,33.790099999999995,103.8683" style="stroke: #A80036; stroke-width: 1.0;"/><path d="M73.8366,44.241 C79.8134,58.2866 88.3534,78.3555 95.2022,94.4501 " fill="none" style="stroke: #A80036; stroke-width: 1.0;"/><polygon fill="#A80036" points="99.2099,103.8683,99.435,92.90469999999999,97.2521,99.2675,95.2943,94.66669999999999,95.2943,94.66669999999999,95.2943,94.66669999999999,97.2521,99.2675,91.1536,96.42869999999999,99.2099,103.8683,99.2099,103.8683" style="stroke: #A80036; stroke-width: 1.0;"/></g></svg>