<?xml version="1.0" encoding="UTF-8" standalone="no"?><svg xmlns="http://www.w3.org/2000/svg" xmlns:xlink="http://www.w3.org/1999/xlink" contentScriptType="application/ecmascript" contentStyleType="text/css" height="297px" preserveAspectRatio="none" style="width:368px;height:297px;" version="1.1" viewBox="0 0 368 297" width="368px" zoomAndPan="magnify"><defs><filter height="300%" id="f1kqucwdlkjggv" width="300%" x="-1" y="-1"><feGaussianBlur result="blurOut" stdDeviation="2.0"/><feColorMatrix in="blurOut" result="blurOut2" type="matrix" values="0 0 0 0 0 0 0 0 0 0 0 0 0 0 0 0 0 0 .4 0"/><feOffset dx="4.0" dy="4.0" in="blurOut2" result="blurOut3"/><feBlend in="SourceGraphic" in2="blurOut3" mode="normal"/></filter></defs><g><!--MD5=[d22815ff63be9cac9a63f8d1ea27d033]
class Article--><rect fill="#FEFECE" filter="url(#f1kqucwdlkjggv)" height="60.8047" id="Article" style="stroke: #A80036; stroke-width: 1.5;" width="86" x="264" y="14.5"/><ellipse cx="285.75" cy="30.5" fill="#B4A7E5" rx="11" ry="11" style="stroke: #A80036; stroke-width: 1.0;"/><path d="M281.6719,26.2656 L281.6719,24.1094 L289.0625,24.1094 L289.0625,26.2656 L286.5938,26.2656 L286.5938,34.3438 L289.0625,34.3438 L289.0625,36.5 L281.6719,36.5 L281.6719,34.3438 L284.1406,34.3438 L284.1406,26.2656 L281.6719,26.2656 Z "/><text fill="#000000" font-family="sans-serif" font-size="12" font-style="italic" lengthAdjust="spacingAndGlyphs" textLength="39" x="301.25" y="34.6543">Article</text><line style="stroke: #A80036; stroke-width: 1.5;" x1="265" x2="349" y1="46.5" y2="46.5"/><line style="stroke: #A80036; stroke-width: 1.5;" x1="265" x2="349" y1="54.5" y2="54.5"/><text fill="#000000" font-family="sans-serif" font-size="11" lengthAdjust="spacingAndGlyphs" textLength="74" x="270" y="68.7104">String head()</text><!--MD5=[f5bea47e70598489df97dbb58a760b13]
class TxtAuthor--><rect fill="#FEFECE" filter="url(#f1kqucwdlkjggv)" height="73.6094" id="TxtAuthor" style="stroke: #A80036; stroke-width: 1.5;" width="92" x="6" y="8"/><ellipse cx="21" cy="24" fill="#ADD1B2" rx="11" ry="11" style="stroke: #A80036; stroke-width: 1.0;"/><path d="M23.9688,29.6406 Q23.3906,29.9375 22.75,30.0859 Q22.1094,30.2344 21.4063,30.2344 Q18.9063,30.2344 17.5859,28.5859 Q16.2656,26.9375 16.2656,23.8125 Q16.2656,20.6875 17.5859,19.0313 Q18.9063,17.375 21.4063,17.375 Q22.1094,17.375 22.7578,17.5313 Q23.4063,17.6875 23.9688,17.9844 L23.9688,20.7031 Q23.3438,20.125 22.75,19.8516 Q22.1563,19.5781 21.5313,19.5781 Q20.1875,19.5781 19.5,20.6484 Q18.8125,21.7188 18.8125,23.8125 Q18.8125,25.9063 19.5,26.9766 Q20.1875,28.0469 21.5313,28.0469 Q22.1563,28.0469 22.75,27.7734 Q23.3438,27.5 23.9688,26.9219 L23.9688,29.6406 Z "/><text fill="#000000" font-family="sans-serif" font-size="12" lengthAdjust="spacingAndGlyphs" textLength="60" x="35" y="28.1543">TxtAuthor</text><line style="stroke: #A80036; stroke-width: 1.5;" x1="7" x2="97" y1="40" y2="40"/><line style="stroke: #A80036; stroke-width: 1.5;" x1="7" x2="97" y1="48" y2="48"/><text fill="#000000" font-family="sans-serif" font-size="11" lengthAdjust="spacingAndGlyphs" textLength="78" x="12" y="62.2104">String name()</text><text fill="#000000" font-family="sans-serif" font-size="11" lengthAdjust="spacingAndGlyphs" textLength="77" x="12" y="75.0151">String email()</text><!--MD5=[cbb7eb15ca94e5c92ab18b4c7709093a]
class TxtHead--><rect fill="#FEFECE" filter="url(#f1kqucwdlkjggv)" height="60.8047" id="TxtHead" style="stroke: #A80036; stroke-width: 1.5;" width="95" x="133.5" y="14.5"/><ellipse cx="153.9" cy="30.5" fill="#ADD1B2" rx="11" ry="11" style="stroke: #A80036; stroke-width: 1.0;"/><path d="M156.8688,36.1406 Q156.2906,36.4375 155.65,36.5859 Q155.0094,36.7344 154.3063,36.7344 Q151.8063,36.7344 150.4859,35.0859 Q149.1656,33.4375 149.1656,30.3125 Q149.1656,27.1875 150.4859,25.5313 Q151.8063,23.875 154.3063,23.875 Q155.0094,23.875 155.6578,24.0313 Q156.3063,24.1875 156.8688,24.4844 L156.8688,27.2031 Q156.2438,26.625 155.65,26.3516 Q155.0563,26.0781 154.4313,26.0781 Q153.0875,26.0781 152.4,27.1484 Q151.7125,28.2188 151.7125,30.3125 Q151.7125,32.4063 152.4,33.4766 Q153.0875,34.5469 154.4313,34.5469 Q155.0563,34.5469 155.65,34.2734 Q156.2438,34 156.8688,33.4219 L156.8688,36.1406 Z "/><text fill="#000000" font-family="sans-serif" font-size="12" lengthAdjust="spacingAndGlyphs" textLength="51" x="169.1" y="34.6543">TxtHead</text><line style="stroke: #A80036; stroke-width: 1.5;" x1="134.5" x2="227.5" y1="46.5" y2="46.5"/><line style="stroke: #A80036; stroke-width: 1.5;" x1="134.5" x2="227.5" y1="54.5" y2="54.5"/><text fill="#000000" font-family="sans-serif" font-size="11" lengthAdjust="spacingAndGlyphs" textLength="83" x="139.5" y="68.7104">String author()</text><!--MD5=[02e6198ef47c431a11cac39b8c979c96]
class SqlArticle--><rect fill="#FEFECE" filter="url(#f1kqucwdlkjggv)" height="48" id="SqlArticle" style="stroke: #A80036; stroke-width: 1.5;" width="90" x="262" y="142"/><ellipse cx="277" cy="158" fill="#ADD1B2" rx="11" ry="11" style="stroke: #A80036; stroke-width: 1.0;"/><path d="M279.9688,163.6406 Q279.3906,163.9375 278.75,164.0859 Q278.1094,164.2344 277.4063,164.2344 Q274.9063,164.2344 273.5859,162.5859 Q272.2656,160.9375 272.2656,157.8125 Q272.2656,154.6875 273.5859,153.0313 Q274.9063,151.375 277.4063,151.375 Q278.1094,151.375 278.7578,151.5313 Q279.4063,151.6875 279.9688,151.9844 L279.9688,154.7031 Q279.3438,154.125 278.75,153.8516 Q278.1563,153.5781 277.5313,153.5781 Q276.1875,153.5781 275.5,154.6484 Q274.8125,155.7188 274.8125,157.8125 Q274.8125,159.9063 275.5,160.9766 Q276.1875,162.0469 277.5313,162.0469 Q278.1563,162.0469 278.75,161.7734 Q279.3438,161.5 279.9688,160.9219 L279.9688,163.6406 Z "/><text fill="#000000" font-family="sans-serif" font-size="12" lengthAdjust="spacingAndGlyphs" textLength="58" x="291" y="162.1543">SqlArticle</text><line style="stroke: #A80036; stroke-width: 1.5;" x1="263" x2="351" y1="174" y2="174"/><line style="stroke: #A80036; stroke-width: 1.5;" x1="263" x2="351" y1="182" y2="182"/><!--MD5=[89112a84c8daddb34abf4f068893e892]
entity PostgreSQL--><rect fill="#FEFECE" filter="url(#f1kqucwdlkjggv)" height="36.2969" style="stroke: #A80036; stroke-width: 1.5;" width="101" x="256.5" y="250"/><rect fill="#FEFECE" height="5" style="stroke: #A80036; stroke-width: 1.5;" width="10" x="251.5" y="255"/><rect fill="#FEFECE" height="5" style="stroke: #A80036; stroke-width: 1.5;" width="10" x="251.5" y="276.2969"/><text fill="#000000" font-family="sans-serif" font-size="14" lengthAdjust="spacingAndGlyphs" textLength="81" x="266.5" y="272.9951">PostgreSQL</text><!--MD5=[bfbc9e822f254e75da3d2897b880f6d9]
reverse link TxtAuthor to TxtHead--><path d="M111.343,45 C118.696,45 126.049,45 133.402,45 " fill="none" id="TxtAuthor&lt;-TxtHead" style="stroke: #A80036; stroke-width: 1.0;"/><polygon fill="#A80036" points="98.1074,45,104.1074,49,110.1074,45,104.1074,41,98.1074,45" style="stroke: #A80036; stroke-width: 1.0;"/><!--MD5=[d2475efb338a171331b3eea876866aaf]
reverse link TxtHead to Article--><path d="M241.925,45 C249.249,45 256.573,45 263.897,45 " fill="none" id="TxtHead&lt;-Article" style="stroke: #A80036; stroke-width: 1.0;"/><polygon fill="#A80036" points="228.742,45,234.742,49,240.742,45,234.742,41,228.742,45" style="stroke: #A80036; stroke-width: 1.0;"/><!--MD5=[05893bd97759a0e224e18adacac57fea]
reverse link Article to SqlArticle--><path d="M307,95.84 C307,111.873 307,128.869 307,141.999 " fill="none" id="Article&lt;-SqlArticle" style="stroke: #A80036; stroke-width: 1.0;"/><polygon fill="none" points="300,95.722,307,75.722,314,95.722,300,95.722" style="stroke: #A80036; stroke-width: 1.0;"/><!--MD5=[fcd9472dd1b213d3f5d93cc14988f3e1]
link SqlArticle to PostgreSQL--><path d="M307,190.1934 C307,206.574 307,228.4045 307,244.6043 " fill="none" id="SqlArticle-&gt;PostgreSQL" style="stroke: #A80036; stroke-width: 1.0; stroke-dasharray: 7.0,7.0;"/><polygon fill="#A80036" points="307,249.8662,311,240.8662,307,244.8662,303,240.8662,307,249.8662" style="stroke: #A80036; stroke-width: 1.0;"/><!--MD5=[cb7bcdeba26ab3ebdf20a8e00e70ffda]
@startuml

allowmixing
Interface Article
TxtAuthor *- TxtHead
TxtHead *- Article
Article : String head()
TxtHead : String author()
TxtAuthor : String name()
TxtAuthor : String email()
Article <|- - SqlArticle
component PostgreSQL
SqlArticle ..> PostgreSQL

@enduml

PlantUML version 1.2020.01(Sun Feb 16 17:40:32 GMT 2020)
(GPL source distribution)
Java Runtime: Java(TM) SE Runtime Environment
JVM: Java HotSpot(TM) 64-Bit Server VM
Java Version: 1.8.0_201-b09
Operating System: Linux
Default Encoding: UTF-8
Language: en
Country: US
--></g></svg>