<?xml version="1.0" encoding="UTF-8" standalone="yes"?><svg xmlns="http://www.w3.org/2000/svg" xmlns:xlink="http://www.w3.org/1999/xlink" height="166pt" style="width:162px;height:166px;" version="1.1" viewBox="0 0 162 166" width="162pt"><defs><filter height="300%" id="f1" width="300%" x="-1" y="-1"><feGaussianBlur result="blurOut" stdDeviation="2"/><feColorMatrix in="blurOut" result="blurOut2" type="matrix" values="0 0 0 0 0 0 0 0 0 0 0 0 0 0 0 0 0 0 .4 0"/><feOffset dx="4" dy="4" in="blurOut2" result="blurOut3"/><feBlend in="SourceGraphic" in2="blurOut3" mode="normal"/></filter></defs><g><polygon fill="#FFFFFF" filter="url(#f1)" points="65.0,60.0,104.0,60.0,111.0,82.296875,155.0,82.296875,155.0,159.0,65.0,159.0,65.0,60.0" style="stroke: #000000; stroke-width: 2.0;"/><line style="stroke: #000000; stroke-width: 2.0;" x1="65.0" x2="111.0" y1="82.296875" y2="82.296875"/><text fill="#000000" font-size="14" font-weight="bold" lengthAdjust="spacingAndGlyphs" textLength="33.0" x="68.0" y="77.0">Line</text><rect fill="#FEFECE" filter="url(#f1)" height="36.296875" style="stroke: #A80036; stroke-width: 1.5;" width="59.0" x="81.0" y="107.0"/><rect fill="#FEFECE" height="5.0" style="stroke: #A80036; stroke-width: 1.5;" width="10.0" x="76.0" y="112.0"/><rect fill="#FEFECE" height="5.0" style="stroke: #A80036; stroke-width: 1.5;" width="10.0" x="76.0" y="133.296875"/><text fill="#000000" font-size="14" lengthAdjust="spacingAndGlyphs" textLength="39.0" x="91.0" y="131.0">new()</text><rect fill="#FEFECE" filter="url(#f1)" height="36.296875" style="stroke: #A80036; stroke-width: 1.5;" width="58.0" x="39.0" y="8.0"/><rect fill="#FEFECE" height="5.0" style="stroke: #A80036; stroke-width: 1.5;" width="10.0" x="34.0" y="13.0"/><rect fill="#FEFECE" height="5.0" style="stroke: #A80036; stroke-width: 1.5;" width="10.0" x="34.0" y="34.296875"/><text fill="#000000" font-size="14" lengthAdjust="spacingAndGlyphs" textLength="38.0" x="49.0" y="32.0">script</text><rect fill="#FEFECE" filter="url(#f1)" height="36.296875" style="stroke: #A80036; stroke-width: 1.5;" width="41.0" x="6.0" y="107.0"/><rect fill="#FEFECE" height="5.0" style="stroke: #A80036; stroke-width: 1.5;" width="10.0" x="1.0" y="112.0"/><rect fill="#FEFECE" height="5.0" style="stroke: #A80036; stroke-width: 1.5;" width="10.0" x="1.0" y="133.296875"/><text fill="#000000" font-size="14" lengthAdjust="spacingAndGlyphs" textLength="21.0" x="16.0" y="131.0">log</text><path d="M60.2966,44.158 C52.7184,62.021 41.2158,89.1341 33.6546,106.957 " fill="none" style="stroke: #A80036; stroke-width: 1.0;"/><path d="M75.7034,44.158 C83.2816,62.021 94.7842,89.1341 102.3454,106.957 " fill="none" style="stroke: #A80036; stroke-width: 1.0;"/></g></svg>