<?xml version="1.0" encoding="UTF-8" standalone="yes"?><svg xmlns="http://www.w3.org/2000/svg" xmlns:xlink="http://www.w3.org/1999/xlink" height="149pt" style="width:357px;height:149px;" version="1.1" viewBox="0 0 357 149" width="357pt"><defs><filter height="300%" id="f1" width="300%" x="-1" y="-1"><feGaussianBlur result="blurOut" stdDeviation="2"/><feColorMatrix in="blurOut" result="blurOut2" type="matrix" values="0 0 0 0 0 0 0 0 0 0 0 0 0 0 0 0 0 0 .4 0"/><feOffset dx="4" dy="4" in="blurOut2" result="blurOut3"/><feBlend in="SourceGraphic" in2="blurOut3" mode="normal"/></filter></defs><g><ellipse cx="34.5" cy="18.0" fill="#FEFECE" filter="url(#f1)" rx="8.0" ry="8.0" style="stroke: #A80036; stroke-width: 2.0;"/><text fill="#000000" font-size="14" lengthAdjust="spacingAndGlyphs" textLength="57.0" x="6.0" y="40.0">Browser</text><rect fill="#FEFECE" filter="url(#f1)" height="36.296875" style="stroke: #A80036; stroke-width: 1.5;" width="56.0" x="98.5" y="8.0"/><rect fill="#FEFECE" height="5.0" style="stroke: #A80036; stroke-width: 1.5;" width="10.0" x="93.5" y="13.0"/><rect fill="#FEFECE" height="5.0" style="stroke: #A80036; stroke-width: 1.5;" width="10.0" x="93.5" y="34.296875"/><text fill="#000000" font-size="14" lengthAdjust="spacingAndGlyphs" textLength="36.0" x="108.5" y="32.0">Edge</text><rect fill="#FEFECE" filter="url(#f1)" height="36.296875" style="stroke: #A80036; stroke-width: 1.5;" width="69.0" x="190.0" y="8.0"/><rect fill="#FEFECE" height="5.0" style="stroke: #A80036; stroke-width: 1.5;" width="10.0" x="185.0" y="13.0"/><rect fill="#FEFECE" height="5.0" style="stroke: #A80036; stroke-width: 1.5;" width="10.0" x="185.0" y="34.296875"/><text fill="#000000" font-size="14" lengthAdjust="spacingAndGlyphs" textLength="49.0" x="200.0" y="32.0">Central</text><rect fill="#FEFECE" filter="url(#f1)" height="36.296875" style="stroke: #A80036; stroke-width: 1.5;" width="57.0" x="196.0" y="104.0"/><rect fill="#FEFECE" height="5.0" style="stroke: #A80036; stroke-width: 1.5;" width="10.0" x="191.0" y="109.0"/><rect fill="#FEFECE" height="5.0" style="stroke: #A80036; stroke-width: 1.5;" width="10.0" x="191.0" y="130.296875"/><text fill="#000000" font-size="14" lengthAdjust="spacingAndGlyphs" textLength="37.0" x="206.0" y="128.0">Relay</text><rect fill="#FEFECE" filter="url(#f1)" height="36.296875" style="stroke: #A80036; stroke-width: 1.5;" width="60.0" x="288.5" y="104.0"/><rect fill="#FEFECE" height="5.0" style="stroke: #A80036; stroke-width: 1.5;" width="10.0" x="283.5" y="109.0"/><rect fill="#FEFECE" height="5.0" style="stroke: #A80036; stroke-width: 1.5;" width="10.0" x="283.5" y="130.296875"/><text fill="#000000" font-size="14" lengthAdjust="spacingAndGlyphs" textLength="40.0" x="298.5" y="128.0">Origin</text><path d="M63.25,26 C71.5642,26 79.8783,26 88.1925,26 " fill="none" style="stroke: #A80036; stroke-width: 1.0;"/><polygon fill="#A80036" points="98.334,26.0,88.334,21.5,93.334,26.0,88.334,26.0,88.334,26.0,88.334,26.0,93.334,26.0,88.3339,30.5,98.334,26.0,98.334,26.0" style="stroke: #A80036; stroke-width: 1.0;"/><path d="M154.828,26 C163.148,26 171.468,26 179.788,26 " fill="none" style="stroke: #A80036; stroke-width: 1.0;"/><polygon fill="#A80036" points="189.936,26.0,179.936,21.5,184.936,26.0,179.936,26.0,179.936,26.0,179.936,26.0,184.936,26.0,179.936,30.5,189.936,26.0,189.936,26.0" style="stroke: #A80036; stroke-width: 1.0;"/><path d="M224.5,44.241 C224.5,58.0216 224.5,77.6003 224.5,93.5349 " fill="none" style="stroke: #A80036; stroke-width: 1.0;"/><polygon fill="#A80036" points="224.5,103.8683,229.0,93.8683,224.5,98.8683,224.5,93.8683,224.5,93.8683,224.5,93.8683,224.5,98.8683,220.0,93.8682,224.5,103.8683,224.5,103.8683" style="stroke: #A80036; stroke-width: 1.0;"/><path d="M253.141,122 C261.49,122 269.839,122 278.189,122 " fill="none" style="stroke: #A80036; stroke-width: 1.0;"/><polygon fill="#A80036" points="288.373,122.0,278.373,117.4999,283.373,122.0,278.373,121.9999,278.373,121.9999,278.373,121.9999,283.373,122.0,278.373,126.4999,288.373,122.0,288.373,122.0" style="stroke: #A80036; stroke-width: 1.0;"/></g></svg>