<?xml version="1.0" encoding="UTF-8" standalone="yes"?><svg xmlns="http://www.w3.org/2000/svg" xmlns:xlink="http://www.w3.org/1999/xlink" height="149pt" style="width:357px;height:149px;" version="1.1" viewBox="0 0 357 149" width="357pt"><defs><filter height="300%" id="f1" width="300%" x="-1" y="-1"><feGaussianBlur result="blurOut" stdDeviation="2"/><feColorMatrix in="blurOut" result="blurOut2" type="matrix" values="0 0 0 0 0 0 0 0 0 0 0 0 0 0 0 0 0 0 .4 0"/><feOffset dx="4" dy="4" in="blurOut2" result="blurOut3"/><feBlend in="SourceGraphic" in2="blurOut3" mode="normal"/></filter></defs><g><ellipse cx="34.25" cy="18.0" fill="#FEFECE" filter="url(#f1)" rx="8.0" ry="8.0" style="stroke: #A80036; stroke-width: 2.0;"/><text fill="#000000" font-size="14" lengthAdjust="spacingAndGlyphs" textLength="57.0" x="5.75" y="40.0">Browser</text><rect fill="#FEFECE" filter="url(#f1)" height="36.296875" style="stroke: #A80036; stroke-width: 1.5;" width="56.0" x="98.5" y="8.0"/><rect fill="#FEFECE" height="5.0" style="stroke: #A80036; stroke-width: 1.5;" width="10.0" x="93.5" y="13.0"/><rect fill="#FEFECE" height="5.0" style="stroke: #A80036; stroke-width: 1.5;" width="10.0" x="93.5" y="34.296875"/><text fill="#000000" font-size="14" lengthAdjust="spacingAndGlyphs" textLength="36.0" x="108.5" y="32.0">Edge</text><rect fill="#FEFECE" filter="url(#f1)" height="36.296875" style="stroke: #A80036; stroke-width: 1.5;" width="69.0" x="189.75" y="8.0"/><rect fill="#FEFECE" height="5.0" style="stroke: #A80036; stroke-width: 1.5;" width="10.0" x="184.75" y="13.0"/><rect fill="#FEFECE" height="5.0" style="stroke: #A80036; stroke-width: 1.5;" width="10.0" x="184.75" y="34.296875"/><text fill="#000000" font-size="14" lengthAdjust="spacingAndGlyphs" textLength="49.0" x="199.75" y="32.0">Central</text><rect fill="#FEFECE" filter="url(#f1)" height="36.296875" style="stroke: #A80036; stroke-width: 1.5;" width="57.0" x="195.75" y="104.0"/><rect fill="#FEFECE" height="5.0" style="stroke: #A80036; stroke-width: 1.5;" width="10.0" x="190.75" y="109.0"/><rect fill="#FEFECE" height="5.0" style="stroke: #A80036; stroke-width: 1.5;" width="10.0" x="190.75" y="130.296875"/><text fill="#000000" font-size="14" lengthAdjust="spacingAndGlyphs" textLength="37.0" x="205.75" y="128.0">Relay</text><rect fill="#FEFECE" filter="url(#f1)" height="36.296875" style="stroke: #A80036; stroke-width: 1.5;" width="60.0" x="288.5" y="104.0"/><rect fill="#FEFECE" height="5.0" style="stroke: #A80036; stroke-width: 1.5;" width="10.0" x="283.5" y="109.0"/><rect fill="#FEFECE" height="5.0" style="stroke: #A80036; stroke-width: 1.5;" width="10.0" x="283.5" y="130.296875"/><text fill="#000000" font-size="14" lengthAdjust="spacingAndGlyphs" textLength="40.0" x="298.5" y="128.0">Origin</text><path d="M62.3906,26 C70.963,26 79.5353,26 88.1077,26 " fill="none" style="stroke: #A80036; stroke-width: 1.0;"/><polygon fill="#A80036" points="98.1709,26.0,88.1709,21.5,93.1709,26.0,88.1709,26.0,88.1709,26.0,88.1709,26.0,93.1709,26.0,88.1709,30.5,98.1709,26.0,98.1709,26.0" style="stroke: #A80036; stroke-width: 1.0;"/><path d="M153.562,26 C162.198,26 170.834,26 179.469,26 " fill="none" style="stroke: #A80036; stroke-width: 1.0;"/><polygon fill="#A80036" points="189.607,26.0,179.607,21.5,184.607,26.0,179.607,26.0,179.607,26.0,179.607,26.0,184.607,26.0,179.607,30.5,189.607,26.0,189.607,26.0" style="stroke: #A80036; stroke-width: 1.0;"/><path d="M224,44.241 C224,58.0216 224,77.6003 224,93.5349 " fill="none" style="stroke: #A80036; stroke-width: 1.0;"/><polygon fill="#A80036" points="224.0,103.8683,228.5,93.8683,224.0,98.8683,224.0,93.8683,224.0,93.8683,224.0,93.8683,224.0,98.8683,219.5,93.8682,224.0,103.8683,224.0,103.8683" style="stroke: #A80036; stroke-width: 1.0;"/><path d="M252.273,122 C260.947,122 269.62,122 278.293,122 " fill="none" style="stroke: #A80036; stroke-width: 1.0;"/><polygon fill="#A80036" points="288.474,122.0,278.474,117.4999,283.474,122.0,278.474,121.9999,278.474,121.9999,278.474,121.9999,283.474,122.0,278.474,126.4999,288.474,122.0,288.474,122.0" style="stroke: #A80036; stroke-width: 1.0;"/></g></svg>