<?xml version="1.0" encoding="UTF-8" standalone="yes"?><svg xmlns="http://www.w3.org/2000/svg" xmlns:xlink="http://www.w3.org/1999/xlink" height="149pt" style="width:354px;height:149px;" version="1.1" viewBox="0 0 354 149" width="354pt"><defs><filter height="300%" id="f1" width="300%" x="-1" y="-1"><feGaussianBlur result="blurOut" stdDeviation="2"/><feColorMatrix in="blurOut" result="blurOut2" type="matrix" values="0 0 0 0 0 0 0 0 0 0 0 0 0 0 0 0 0 0 .4 0"/><feOffset dx="4" dy="4" in="blurOut2" result="blurOut3"/><feBlend in="SourceGraphic" in2="blurOut3" mode="normal"/></filter></defs><g><ellipse cx="34.5" cy="18.0" fill="#FEFECE" filter="url(#f1)" rx="8.0" ry="8.0" style="stroke: #A80036; stroke-width: 2.0;"/><text fill="#000000" font-size="14" lengthAdjust="spacingAndGlyphs" textLength="57.0" x="6.0" y="40.0">Browser</text><rect fill="#FEFECE" filter="url(#f1)" height="36.296875" style="stroke: #A80036; stroke-width: 1.5;" width="56.0" x="97.0" y="8.0"/><rect fill="#FEFECE" height="5.0" style="stroke: #A80036; stroke-width: 1.5;" width="10.0" x="92.0" y="13.0"/><rect fill="#FEFECE" height="5.0" style="stroke: #A80036; stroke-width: 1.5;" width="10.0" x="92.0" y="34.296875"/><text fill="#000000" font-size="14" lengthAdjust="spacingAndGlyphs" textLength="36.0" x="107.0" y="32.0">Edge</text><rect fill="#FEFECE" filter="url(#f1)" height="36.296875" style="stroke: #A80036; stroke-width: 1.5;" width="69.0" x="188.0" y="8.0"/><rect fill="#FEFECE" height="5.0" style="stroke: #A80036; stroke-width: 1.5;" width="10.0" x="183.0" y="13.0"/><rect fill="#FEFECE" height="5.0" style="stroke: #A80036; stroke-width: 1.5;" width="10.0" x="183.0" y="34.296875"/><text fill="#000000" font-size="14" lengthAdjust="spacingAndGlyphs" textLength="49.0" x="198.0" y="32.0">Central</text><rect fill="#FEFECE" filter="url(#f1)" height="36.296875" style="stroke: #A80036; stroke-width: 1.5;" width="57.0" x="194.0" y="104.0"/><rect fill="#FEFECE" height="5.0" style="stroke: #A80036; stroke-width: 1.5;" width="10.0" x="189.0" y="109.0"/><rect fill="#FEFECE" height="5.0" style="stroke: #A80036; stroke-width: 1.5;" width="10.0" x="189.0" y="130.296875"/><text fill="#000000" font-size="14" lengthAdjust="spacingAndGlyphs" textLength="37.0" x="204.0" y="128.0">Relay</text><rect fill="#FEFECE" filter="url(#f1)" height="36.296875" style="stroke: #A80036; stroke-width: 1.5;" width="60.0" x="285.0" y="104.0"/><rect fill="#FEFECE" height="5.0" style="stroke: #A80036; stroke-width: 1.5;" width="10.0" x="280.0" y="109.0"/><rect fill="#FEFECE" height="5.0" style="stroke: #A80036; stroke-width: 1.5;" width="10.0" x="280.0" y="130.296875"/><text fill="#000000" font-size="14" lengthAdjust="spacingAndGlyphs" textLength="40.0" x="295.0" y="128.0">Origin</text><path d="M62.082,26 C70.3526,26 78.6231,26 86.8936,26 " fill="none" style="stroke: #A80036; stroke-width: 1.0;"/><polygon fill="#A80036" points="96.9818,26.0,86.9819,21.5,91.9818,26.0,86.9818,26.0,86.9818,26.0,86.9818,26.0,91.9818,26.0,86.9818,30.5,96.9818,26.0,96.9818,26.0" style="stroke: #A80036; stroke-width: 1.0;"/><path d="M153.039,26 C161.274,26 169.509,26 177.744,26 " fill="none" style="stroke: #A80036; stroke-width: 1.0;"/><polygon fill="#A80036" points="187.789,26.0,177.789,21.5,182.789,26.0,177.789,26.0,177.789,26.0,177.789,26.0,182.789,26.0,177.789,30.5,187.789,26.0,187.789,26.0" style="stroke: #A80036; stroke-width: 1.0;"/><path d="M222,44.0569 C222,57.9138 222,77.3139 222,93.2925 " fill="none" style="stroke: #A80036; stroke-width: 1.0;"/><polygon fill="#A80036" points="222.0,103.6977,226.5,93.6977,222.0,98.6977,222.0,93.6977,222.0,93.6977,222.0,93.6977,222.0,98.6977,217.5,93.6977,222.0,103.6977,222.0,103.6977" style="stroke: #A80036; stroke-width: 1.0;"/><path d="M250.336,122 C258.537,122 266.737,122 274.938,122 " fill="none" style="stroke: #A80036; stroke-width: 1.0;"/><polygon fill="#A80036" points="284.941,122.0,274.941,117.4999,279.941,122.0,274.941,121.9999,274.941,121.9999,274.941,121.9999,279.941,122.0,274.941,126.4999,284.941,122.0,284.941,122.0" style="stroke: #A80036; stroke-width: 1.0;"/></g></svg>