<?xml version="1.0" encoding="UTF-8" standalone="yes"?><svg xmlns="http://www.w3.org/2000/svg" xmlns:xlink="http://www.w3.org/1999/xlink" height="53pt" style="width:363px;height:53px;" version="1.1" viewBox="0 0 363 53" width="363pt"><defs><filter height="300%" id="f1" width="300%" x="-1" y="-1"><feGaussianBlur result="blurOut" stdDeviation="2"/><feColorMatrix in="blurOut" result="blurOut2" type="matrix" values="0 0 0 0 0 0 0 0 0 0 0 0 0 0 0 0 0 0 .4 0"/><feOffset dx="4" dy="4" in="blurOut2" result="blurOut3"/><feBlend in="SourceGraphic" in2="blurOut3" mode="normal"/></filter></defs><g><ellipse cx="34.5" cy="18.0" fill="#FEFECE" filter="url(#f1)" rx="8.0" ry="8.0" style="stroke: #A80036; stroke-width: 2.0;"/><text fill="#000000" font-size="14" lengthAdjust="spacingAndGlyphs" textLength="57.0" x="6.0" y="40.0">Browser</text><rect fill="#FEFECE" filter="url(#f1)" height="36.296875" style="stroke: #A80036; stroke-width: 1.5;" width="56.0" x="98.5" y="8.0"/><rect fill="#FEFECE" height="5.0" style="stroke: #A80036; stroke-width: 1.5;" width="10.0" x="93.5" y="13.0"/><rect fill="#FEFECE" height="5.0" style="stroke: #A80036; stroke-width: 1.5;" width="10.0" x="93.5" y="34.296875"/><text fill="#000000" font-size="14" lengthAdjust="spacingAndGlyphs" textLength="36.0" x="108.5" y="32.0">Edge</text><rect fill="#FEFECE" filter="url(#f1)" height="36.296875" style="stroke: #A80036; stroke-width: 1.5;" width="69.0" x="190.0" y="8.0"/><rect fill="#FEFECE" height="5.0" style="stroke: #A80036; stroke-width: 1.5;" width="10.0" x="185.0" y="13.0"/><rect fill="#FEFECE" height="5.0" style="stroke: #A80036; stroke-width: 1.5;" width="10.0" x="185.0" y="34.296875"/><text fill="#000000" font-size="14" lengthAdjust="spacingAndGlyphs" textLength="49.0" x="200.0" y="32.0">Central</text><rect fill="#FEFECE" filter="url(#f1)" height="36.296875" style="stroke: #A80036; stroke-width: 1.5;" width="60.0" x="294.5" y="8.0"/><rect fill="#FEFECE" height="5.0" style="stroke: #A80036; stroke-width: 1.5;" width="10.0" x="289.5" y="13.0"/><rect fill="#FEFECE" height="5.0" style="stroke: #A80036; stroke-width: 1.5;" width="10.0" x="289.5" y="34.296875"/><text fill="#000000" font-size="14" lengthAdjust="spacingAndGlyphs" textLength="40.0" x="304.5" y="32.0">Origin</text><path d="M63.25,26 C71.5642,26 79.8783,26 88.1925,26 " fill="none" style="stroke: #A80036; stroke-width: 1.0;"/><polygon fill="#A80036" points="98.334,26.0,88.334,21.4999,93.334,26.0,88.334,25.9999,88.334,25.9999,88.334,25.9999,93.334,26.0,88.3339,30.4999,98.334,26.0,98.334,26.0" style="stroke: #A80036; stroke-width: 1.0;"/><path d="M154.828,26 C163.148,26 171.468,26 179.788,26 " fill="none" style="stroke: #A80036; stroke-width: 1.0;"/><polygon fill="#A80036" points="189.936,26.0,179.936,21.4999,184.936,26.0,179.936,25.9999,179.936,25.9999,179.936,25.9999,184.936,26.0,179.936,30.4999,189.936,26.0,189.936,26.0" style="stroke: #A80036; stroke-width: 1.0;"/><path d="M259.266,26 C267.599,26 275.933,26 284.266,26 " fill="none" style="stroke: #A80036; stroke-width: 1.0;"/><polygon fill="#A80036" points="294.431,26.0,284.431,21.4999,289.431,26.0,284.431,25.9999,284.431,25.9999,284.431,25.9999,289.431,26.0,284.431,30.4999,294.431,26.0,294.431,26.0" style="stroke: #A80036; stroke-width: 1.0;"/></g></svg>