<?xml version="1.0" encoding="UTF-8" standalone="no"?><svg xmlns="http://www.w3.org/2000/svg" xmlns:xlink="http://www.w3.org/1999/xlink" contentScriptType="application/ecmascript" contentStyleType="text/css" height="74px" preserveAspectRatio="none" style="width:405px;height:74px;" version="1.1" viewBox="0 0 405 74" width="405px" zoomAndPan="magnify"><defs><filter height="300%" id="f16tlig5bojrlu" width="300%" x="-1" y="-1"><feGaussianBlur result="blurOut" stdDeviation="2.0"/><feColorMatrix in="blurOut" result="blurOut2" type="matrix" values="0 0 0 0 0 0 0 0 0 0 0 0 0 0 0 0 0 0 .4 0"/><feOffset dx="4.0" dy="4.0" in="blurOut2" result="blurOut3"/><feBlend in="SourceGraphic" in2="blurOut3" mode="normal"/></filter></defs><g><!--MD5=[e9dede37b31fdda9664526f66258b036]
entity Browser--><ellipse cx="34.5" cy="31" fill="#FEFECE" filter="url(#f16tlig5bojrlu)" rx="8" ry="8" style="stroke: #A80036; stroke-width: 2.0;"/><text fill="#000000" font-family="sans-serif" font-size="14" lengthAdjust="spacingAndGlyphs" textLength="57" x="6" y="60.9951">Browser</text><!--MD5=[26f6ee68a4ff6eb1ae6bf4da619ad5f5]
entity Edge--><rect fill="#FEFECE" filter="url(#f16tlig5bojrlu)" height="46.2969" style="stroke: #A80036; stroke-width: 1.5;" width="76" x="78.5" y="8"/><rect fill="#FEFECE" height="10" style="stroke: #A80036; stroke-width: 1.5;" width="15" x="134.5" y="13"/><rect fill="#FEFECE" height="2" style="stroke: #A80036; stroke-width: 1.5;" width="4" x="132.5" y="15"/><rect fill="#FEFECE" height="2" style="stroke: #A80036; stroke-width: 1.5;" width="4" x="132.5" y="19"/><text fill="#000000" font-family="sans-serif" font-size="14" lengthAdjust="spacingAndGlyphs" textLength="36" x="93.5" y="40.9951">Edge</text><!--MD5=[3d629f9940ebe89d8aff2bae93c2293b]
entity Central--><rect fill="#FEFECE" filter="url(#f16tlig5bojrlu)" height="46.2969" style="stroke: #A80036; stroke-width: 1.5;" width="89" x="190" y="8"/><rect fill="#FEFECE" height="10" style="stroke: #A80036; stroke-width: 1.5;" width="15" x="259" y="13"/><rect fill="#FEFECE" height="2" style="stroke: #A80036; stroke-width: 1.5;" width="4" x="257" y="15"/><rect fill="#FEFECE" height="2" style="stroke: #A80036; stroke-width: 1.5;" width="4" x="257" y="19"/><text fill="#000000" font-family="sans-serif" font-size="14" lengthAdjust="spacingAndGlyphs" textLength="49" x="205" y="40.9951">Central</text><!--MD5=[2f451ca9b3a67a6fb1e300567ef3c7e5]
entity Origin--><rect fill="#FEFECE" filter="url(#f16tlig5bojrlu)" height="46.2969" style="stroke: #A80036; stroke-width: 1.5;" width="80" x="314.5" y="8"/><rect fill="#FEFECE" height="10" style="stroke: #A80036; stroke-width: 1.5;" width="15" x="374.5" y="13"/><rect fill="#FEFECE" height="2" style="stroke: #A80036; stroke-width: 1.5;" width="4" x="372.5" y="15"/><rect fill="#FEFECE" height="2" style="stroke: #A80036; stroke-width: 1.5;" width="4" x="372.5" y="19"/><text fill="#000000" font-family="sans-serif" font-size="14" lengthAdjust="spacingAndGlyphs" textLength="40" x="329.5" y="40.9951">Origin</text><!--MD5=[5a26ba750396ecacb4e24497fe2fc1e1]
link Browser to Edge--><path d="M43.7891,31 C53.625,31 63.4609,31 73.2968,31 " fill="none" id="Browser-&gt;Edge" style="stroke: #A80036; stroke-width: 1.0;"/><polygon fill="#A80036" points="78.4404,31,69.4404,27,73.4404,31,69.4404,35,78.4404,31" style="stroke: #A80036; stroke-width: 1.0;"/><!--MD5=[8c81ff6cecaaacf3ca5611af3a9b92a4]
link Edge to Central--><path d="M154.758,31 C164.749,31 174.74,31 184.732,31 " fill="none" id="Edge-&gt;Central" style="stroke: #A80036; stroke-width: 1.0;"/><polygon fill="#A80036" points="189.957,31,180.957,27,184.957,31,180.957,35,189.957,31" style="stroke: #A80036; stroke-width: 1.0;"/><!--MD5=[9978a3df4c10bef21d400eb3681a3a27]
link Central to Origin--><path d="M279.031,31 C289.073,31 299.114,31 309.156,31 " fill="none" id="Central-&gt;Origin" style="stroke: #A80036; stroke-width: 1.0;"/><polygon fill="#A80036" points="314.407,31,305.407,27,309.407,31,305.407,35,314.407,31" style="stroke: #A80036; stroke-width: 1.0;"/><!--MD5=[6ea6774f8ea883ca9036386b5edf137b]
@startuml

skinparam componentStyle uml2
Browser -right-> [Edge]
[Edge] -right-> [Central]
[Central] -right-> [Origin]

@enduml

PlantUML version 1.2020.01(Sun Feb 16 17:40:32 GMT 2020)
(GPL source distribution)
Java Runtime: Java(TM) SE Runtime Environment
JVM: Java HotSpot(TM) 64-Bit Server VM
Java Version: 1.8.0_201-b09
Operating System: Linux
Default Encoding: UTF-8
Language: en
Country: US
--></g></svg>