<?xml version="1.0" encoding="UTF-8" standalone="no"?><svg xmlns="http://www.w3.org/2000/svg" xmlns:xlink="http://www.w3.org/1999/xlink" contentScriptType="application/ecmascript" contentStyleType="text/css" height="299px" preserveAspectRatio="none" style="width:410px;height:299px;" version="1.1" viewBox="0 0 410 299" width="410px" zoomAndPan="magnify"><defs><filter height="300%" id="f16mwuu1zdxqcs" width="300%" x="-1" y="-1"><feGaussianBlur result="blurOut" stdDeviation="2.0"/><feColorMatrix in="blurOut" result="blurOut2" type="matrix" values="0 0 0 0 0 0 0 0 0 0 0 0 0 0 0 0 0 0 .4 0"/><feOffset dx="4.0" dy="4.0" in="blurOut2" result="blurOut3"/><feBlend in="SourceGraphic" in2="blurOut3" mode="normal"/></filter></defs><g><!--MD5=[d22815ff63be9cac9a63f8d1ea27d033]
class Article--><rect fill="#FEFECE" filter="url(#f16mwuu1zdxqcs)" height="48" id="Article" style="stroke: #A80036; stroke-width: 1.5;" width="71" x="6" y="21"/><ellipse cx="21" cy="37" fill="#B4A7E5" rx="11" ry="11" style="stroke: #A80036; stroke-width: 1.0;"/><path d="M16.9219,32.7656 L16.9219,30.6094 L24.3125,30.6094 L24.3125,32.7656 L21.8438,32.7656 L21.8438,40.8438 L24.3125,40.8438 L24.3125,43 L16.9219,43 L16.9219,40.8438 L19.3906,40.8438 L19.3906,32.7656 L16.9219,32.7656 Z "/><text fill="#000000" font-family="sans-serif" font-size="12" font-style="italic" lengthAdjust="spacingAndGlyphs" textLength="39" x="35" y="41.1543">Article</text><line style="stroke: #A80036; stroke-width: 1.5;" x1="7" x2="76" y1="53" y2="53"/><line style="stroke: #A80036; stroke-width: 1.5;" x1="7" x2="76" y1="61" y2="61"/><!--MD5=[4741ae9b66e8c8909830097dcbdef570]
class Head--><rect fill="#FEFECE" filter="url(#f16mwuu1zdxqcs)" height="48" id="Head" style="stroke: #A80036; stroke-width: 1.5;" width="65" x="156" y="21"/><ellipse cx="171" cy="37" fill="#B4A7E5" rx="11" ry="11" style="stroke: #A80036; stroke-width: 1.0;"/><path d="M166.9219,32.7656 L166.9219,30.6094 L174.3125,30.6094 L174.3125,32.7656 L171.8438,32.7656 L171.8438,40.8438 L174.3125,40.8438 L174.3125,43 L166.9219,43 L166.9219,40.8438 L169.3906,40.8438 L169.3906,32.7656 L166.9219,32.7656 Z "/><text fill="#000000" font-family="sans-serif" font-size="12" font-style="italic" lengthAdjust="spacingAndGlyphs" textLength="33" x="185" y="41.1543">Head</text><line style="stroke: #A80036; stroke-width: 1.5;" x1="157" x2="220" y1="53" y2="53"/><line style="stroke: #A80036; stroke-width: 1.5;" x1="157" x2="220" y1="61" y2="61"/><!--MD5=[c3f280b58e8dd0683e81b8ec31306a35]
class Author--><rect fill="#FEFECE" filter="url(#f16mwuu1zdxqcs)" height="73.6094" id="Author" style="stroke: #A80036; stroke-width: 1.5;" width="90" x="309.5" y="8"/><ellipse cx="331.7" cy="24" fill="#B4A7E5" rx="11" ry="11" style="stroke: #A80036; stroke-width: 1.0;"/><path d="M327.6219,19.7656 L327.6219,17.6094 L335.0125,17.6094 L335.0125,19.7656 L332.5438,19.7656 L332.5438,27.8438 L335.0125,27.8438 L335.0125,30 L327.6219,30 L327.6219,27.8438 L330.0906,27.8438 L330.0906,19.7656 L327.6219,19.7656 Z "/><text fill="#000000" font-family="sans-serif" font-size="12" font-style="italic" lengthAdjust="spacingAndGlyphs" textLength="42" x="347.3" y="28.1543">Author</text><line style="stroke: #A80036; stroke-width: 1.5;" x1="310.5" x2="398.5" y1="40" y2="40"/><line style="stroke: #A80036; stroke-width: 1.5;" x1="310.5" x2="398.5" y1="48" y2="48"/><text fill="#000000" font-family="sans-serif" font-size="11" lengthAdjust="spacingAndGlyphs" textLength="78" x="315.5" y="62.2104">String name()</text><text fill="#000000" font-family="sans-serif" font-size="11" lengthAdjust="spacingAndGlyphs" textLength="77" x="315.5" y="75.0151">String email()</text><!--MD5=[16382fd0f7017fc696c22072b9105529]
class PgArticle--><rect fill="#FEFECE" filter="url(#f16mwuu1zdxqcs)" height="48" id="PgArticle" style="stroke: #A80036; stroke-width: 1.5;" width="87" x="26" y="143"/><ellipse cx="41" cy="159" fill="#ADD1B2" rx="11" ry="11" style="stroke: #A80036; stroke-width: 1.0;"/><path d="M43.9688,164.6406 Q43.3906,164.9375 42.75,165.0781 Q42.1094,165.2344 41.4063,165.2344 Q38.9063,165.2344 37.5781,163.5938 Q36.2656,161.9375 36.2656,158.8125 Q36.2656,155.6875 37.5781,154.0313 Q38.9063,152.375 41.4063,152.375 Q42.1094,152.375 42.75,152.5313 Q43.4063,152.6875 43.9688,152.9844 L43.9688,155.7031 Q43.3438,155.125 42.75,154.8594 Q42.1563,154.5781 41.5313,154.5781 Q40.1875,154.5781 39.5,155.6563 Q38.8125,156.7188 38.8125,158.8125 Q38.8125,160.9063 39.5,161.9844 Q40.1875,163.0469 41.5313,163.0469 Q42.1563,163.0469 42.75,162.7813 Q43.3438,162.5 43.9688,161.9219 L43.9688,164.6406 Z "/><text fill="#000000" font-family="sans-serif" font-size="12" lengthAdjust="spacingAndGlyphs" textLength="55" x="55" y="163.1543">PgArticle</text><line style="stroke: #A80036; stroke-width: 1.5;" x1="27" x2="112" y1="175" y2="175"/><line style="stroke: #A80036; stroke-width: 1.5;" x1="27" x2="112" y1="183" y2="183"/><!--MD5=[831d91174466ca89ce111f35bfaa7642]
class PgHead--><rect fill="#FEFECE" filter="url(#f16mwuu1zdxqcs)" height="48" id="PgHead" style="stroke: #A80036; stroke-width: 1.5;" width="81" x="148" y="143"/><ellipse cx="163" cy="159" fill="#ADD1B2" rx="11" ry="11" style="stroke: #A80036; stroke-width: 1.0;"/><path d="M165.9688,164.6406 Q165.3906,164.9375 164.75,165.0781 Q164.1094,165.2344 163.4063,165.2344 Q160.9063,165.2344 159.5781,163.5938 Q158.2656,161.9375 158.2656,158.8125 Q158.2656,155.6875 159.5781,154.0313 Q160.9063,152.375 163.4063,152.375 Q164.1094,152.375 164.75,152.5313 Q165.4063,152.6875 165.9688,152.9844 L165.9688,155.7031 Q165.3438,155.125 164.75,154.8594 Q164.1563,154.5781 163.5313,154.5781 Q162.1875,154.5781 161.5,155.6563 Q160.8125,156.7188 160.8125,158.8125 Q160.8125,160.9063 161.5,161.9844 Q162.1875,163.0469 163.5313,163.0469 Q164.1563,163.0469 164.75,162.7813 Q165.3438,162.5 165.9688,161.9219 L165.9688,164.6406 Z "/><text fill="#000000" font-family="sans-serif" font-size="12" lengthAdjust="spacingAndGlyphs" textLength="49" x="177" y="163.1543">PgHead</text><line style="stroke: #A80036; stroke-width: 1.5;" x1="149" x2="228" y1="175" y2="175"/><line style="stroke: #A80036; stroke-width: 1.5;" x1="149" x2="228" y1="183" y2="183"/><!--MD5=[be8612e0fc67b58ccabdbdc10f51b02b]
class PgAuthor--><rect fill="#FEFECE" filter="url(#f16mwuu1zdxqcs)" height="48" id="PgAuthor" style="stroke: #A80036; stroke-width: 1.5;" width="90" x="264.5" y="143"/><ellipse cx="279.5" cy="159" fill="#ADD1B2" rx="11" ry="11" style="stroke: #A80036; stroke-width: 1.0;"/><path d="M282.4688,164.6406 Q281.8906,164.9375 281.25,165.0781 Q280.6094,165.2344 279.9063,165.2344 Q277.4063,165.2344 276.0781,163.5938 Q274.7656,161.9375 274.7656,158.8125 Q274.7656,155.6875 276.0781,154.0313 Q277.4063,152.375 279.9063,152.375 Q280.6094,152.375 281.25,152.5313 Q281.9063,152.6875 282.4688,152.9844 L282.4688,155.7031 Q281.8438,155.125 281.25,154.8594 Q280.6563,154.5781 280.0313,154.5781 Q278.6875,154.5781 278,155.6563 Q277.3125,156.7188 277.3125,158.8125 Q277.3125,160.9063 278,161.9844 Q278.6875,163.0469 280.0313,163.0469 Q280.6563,163.0469 281.25,162.7813 Q281.8438,162.5 282.4688,161.9219 L282.4688,164.6406 Z "/><text fill="#000000" font-family="sans-serif" font-size="12" lengthAdjust="spacingAndGlyphs" textLength="58" x="293.5" y="163.1543">PgAuthor</text><line style="stroke: #A80036; stroke-width: 1.5;" x1="265.5" x2="353.5" y1="175" y2="175"/><line style="stroke: #A80036; stroke-width: 1.5;" x1="265.5" x2="353.5" y1="183" y2="183"/><!--MD5=[89112a84c8daddb34abf4f068893e892]
entity PostgreSQL--><rect fill="#FEFECE" filter="url(#f16mwuu1zdxqcs)" height="36.2969" style="stroke: #A80036; stroke-width: 1.5;" width="101" x="138" y="252"/><rect fill="#FEFECE" height="5" style="stroke: #A80036; stroke-width: 1.5;" width="10" x="133" y="257"/><rect fill="#FEFECE" height="5" style="stroke: #A80036; stroke-width: 1.5;" width="10" x="133" y="278.2969"/><text fill="#000000" font-family="sans-serif" font-size="14" lengthAdjust="spacingAndGlyphs" textLength="81" x="148" y="274.9951">PostgreSQL</text><!--MD5=[7c72b19202b82bfd26cd9b189e33cb3e]
link Article to Head--><path d="M89.0846,45 C89.0846,45 125.866,45 142.4375,45 " fill="none" id="Article-Head" style="stroke: #A80036; stroke-width: 1.0;"/><polygon fill="#A80036" points="155.7561,45,146.7561,41,150.7561,45,146.7561,49,155.7561,45" style="stroke: #A80036; stroke-width: 1.0;"/><line style="stroke: #A80036; stroke-width: 1.0;" x1="150.7561" x2="142.7561" y1="45" y2="44.9999"/><polygon fill="#FFFFFF" points="77.0846,45,83.0846,49,89.0846,45,83.0846,41,77.0846,45" style="stroke: #A80036; stroke-width: 1.0;"/><text fill="#000000" font-family="sans-serif" font-size="13" lengthAdjust="spacingAndGlyphs" textLength="42" x="95.5" y="38.0669">head()</text><!--MD5=[da1e5559b4e39819f30b7ca4d33f9f3c]
link Head to Author--><path d="M233.2963,45 C233.2963,45 275.7556,45 295.9586,45 " fill="none" id="Head-Author" style="stroke: #A80036; stroke-width: 1.0;"/><polygon fill="#A80036" points="309.2049,45,300.2049,41,304.2049,45,300.2049,49,309.2049,45" style="stroke: #A80036; stroke-width: 1.0;"/><line style="stroke: #A80036; stroke-width: 1.0;" x1="304.2049" x2="296.2049" y1="45" y2="44.9999"/><polygon fill="#FFFFFF" points="221.2963,45,227.2963,49,233.2963,45,227.2963,41,221.2963,45" style="stroke: #A80036; stroke-width: 1.0;"/><text fill="#000000" font-family="sans-serif" font-size="13" lengthAdjust="spacingAndGlyphs" textLength="52" x="239.25" y="38.0669">author()</text><!--MD5=[0547a9f5a12172ec5cf176d972378483]
reverse link Article to PgArticle--><path d="M51.5346,88.722 C55.7262,106.9856 60.4347,127.5014 63.9796,142.9468 " fill="none" id="Article&lt;-PgArticle" style="stroke: #A80036; stroke-width: 1.0;"/><polygon fill="none" points="44.6832,90.1623,47.0319,69.1033,58.3284,87.0306,44.6832,90.1623" style="stroke: #A80036; stroke-width: 1.0;"/><!--MD5=[8fa4df9fd3d6c5616dddc5bdc1c163db]
reverse link Head to PgHead--><path d="M188.5,89.3151 C188.5,107.4286 188.5,127.6684 188.5,142.9468 " fill="none" id="Head&lt;-PgHead" style="stroke: #A80036; stroke-width: 1.0;"/><polygon fill="none" points="181.5001,89.1033,188.5,69.1033,195.5001,89.1032,181.5001,89.1033" style="stroke: #A80036; stroke-width: 1.0;"/><!--MD5=[68da4ef254d6a69c1afc60c2db007108]
reverse link Author to PgAuthor--><path d="M333.6636,101.4898 C328.3234,115.9678 322.8575,130.7864 318.478,142.6595 " fill="none" id="Author&lt;-PgAuthor" style="stroke: #A80036; stroke-width: 1.0;"/><polygon fill="none" points="327.2652,98.6087,340.754,82.2669,340.4002,103.4536,327.2652,98.6087" style="stroke: #A80036; stroke-width: 1.0;"/><!--MD5=[97478c74858d906fe0075a550ac7e4ff]
link PgArticle to PgHead--><path d="M125.1953,167 C125.1953,167 131.8614,167 134.6862,167 " fill="none" id="PgArticle-PgHead" style="stroke: #A80036; stroke-width: 1.0;"/><polygon fill="#A80036" points="147.9061,167,138.9061,163,142.9061,167,138.9061,171,147.9061,167" style="stroke: #A80036; stroke-width: 1.0;"/><line style="stroke: #A80036; stroke-width: 1.0;" x1="142.9061" x2="134.9061" y1="167" y2="166.9999"/><polygon fill="#FFFFFF" points="113.1953,167,119.1953,171,125.1953,167,119.1953,163,113.1953,167" style="stroke: #A80036; stroke-width: 1.0;"/><!--MD5=[a3b9b4856e77aab4e894b57f49fa6f0f]
link PgHead to PgAuthor--><path d="M241.1484,167 C241.1484,167 248.2816,167 251.2569,167 " fill="none" id="PgHead-PgAuthor" style="stroke: #A80036; stroke-width: 1.0;"/><polygon fill="#A80036" points="264.3022,167,255.3022,163,259.3022,167,255.3022,171,264.3022,167" style="stroke: #A80036; stroke-width: 1.0;"/><line style="stroke: #A80036; stroke-width: 1.0;" x1="259.3022" x2="251.3023" y1="167" y2="166.9999"/><polygon fill="#FFFFFF" points="229.1484,167,235.1484,171,241.1484,167,235.1484,163,229.1484,167" style="stroke: #A80036; stroke-width: 1.0;"/><!--MD5=[41f3b5951f579d58ad93301d1b20be5b]
link PgArticle to PostgreSQL--><path d="M97.4002,191.1489 C117.3266,208.3961 143.9141,231.4089 163.2199,248.1189 " fill="none" id="PgArticle-&gt;PostgreSQL" style="stroke: #A80036; stroke-width: 1.0; stroke-dasharray: 7.0,7.0;"/><polygon fill="#A80036" points="167.4692,251.7969,163.2819,242.8825,163.6886,248.5247,158.0464,248.9315,167.4692,251.7969" style="stroke: #A80036; stroke-width: 1.0;"/><!--MD5=[a8eb31a1cf8896e56e85123fbbd63176]
link PgHead to PostgreSQL--><path d="M188.5,191.1489 C188.5,207.8164 188.5,229.8683 188.5,246.413 " fill="none" id="PgHead-&gt;PostgreSQL" style="stroke: #A80036; stroke-width: 1.0; stroke-dasharray: 7.0,7.0;"/><polygon fill="#A80036" points="188.5,251.7969,192.5,242.7969,188.5,246.7969,184.5,242.7969,188.5,251.7969" style="stroke: #A80036; stroke-width: 1.0;"/><!--MD5=[4a776ab509ad1c667b121f8a78fc4a78]
link PgAuthor to PostgreSQL--><path d="M281.1309,191.1489 C260.6993,208.5411 233.3804,231.7961 213.7117,248.5388 " fill="none" id="PgAuthor-&gt;PostgreSQL" style="stroke: #A80036; stroke-width: 1.0; stroke-dasharray: 7.0,7.0;"/><polygon fill="#A80036" points="209.8842,251.7969,219.3303,249.0091,213.6916,248.5559,214.1447,242.9173,209.8842,251.7969" style="stroke: #A80036; stroke-width: 1.0;"/><!--MD5=[6d345a2d7b7e81b0f7b7347f5f09984e]
@startuml

allowmixing
Interface Article
Interface Head
Interface Author
Article o-> Head : "head()"
Head o-> Author : "author()"
Author : String name()
Author : String email()
Article <|- - PgArticle
Head <|- - PgHead
Author <|- - PgAuthor
PgArticle o-> PgHead
PgHead o-> PgAuthor
component PostgreSQL
PgArticle ..> PostgreSQL
PgHead ..> PostgreSQL
PgAuthor ..> PostgreSQL

@enduml

PlantUML version 1.2020.01(Sun Feb 16 17:40:32 GMT 2020)
(GPL source distribution)
Java Runtime: OpenJDK Runtime Environment
JVM: OpenJDK 64-Bit Server VM
Java Version: 11.0.9.1+1-Ubuntu-0ubuntu1.18.04
Operating System: Linux
Default Encoding: UTF-8
Language: en
Country: US
--></g></svg>