<?xml version="1.0" encoding="UTF-8" standalone="no"?><svg xmlns="http://www.w3.org/2000/svg" xmlns:xlink="http://www.w3.org/1999/xlink" contentScriptType="application/ecmascript" contentStyleType="text/css" height="299px" preserveAspectRatio="none" style="width:410px;height:299px;" version="1.1" viewBox="0 0 410 299" width="410px" zoomAndPan="magnify"><defs><filter height="300%" id="f16mwuu1zdxqcs" width="300%" x="-1" y="-1"><feGaussianBlur result="blurOut" stdDeviation="2.0"/><feColorMatrix in="blurOut" result="blurOut2" type="matrix" values="0 0 0 0 0 0 0 0 0 0 0 0 0 0 0 0 0 0 .4 0"/><feOffset dx="4.0" dy="4.0" in="blurOut2" result="blurOut3"/><feBlend in="SourceGraphic" in2="blurOut3" mode="normal"/></filter></defs><g><!--MD5=[d22815ff63be9cac9a63f8d1ea27d033]
class Article--><rect fill="#FEFECE" filter="url(#f16mwuu1zdxqcs)" height="48" id="Article" style="stroke: #A80036; stroke-width: 1.5;" width="71" x="6" y="21"/><ellipse cx="21" cy="37" fill="#B4A7E5" rx="11" ry="11" style="stroke: #A80036; stroke-width: 1.0;"/><path d="M16.9219,32.7656 L16.9219,30.6094 L24.3125,30.6094 L24.3125,32.7656 L21.8438,32.7656 L21.8438,40.8438 L24.3125,40.8438 L24.3125,43 L16.9219,43 L16.9219,40.8438 L19.3906,40.8438 L19.3906,32.7656 L16.9219,32.7656 Z "/><text fill="#000000" font-family="sans-serif" font-size="12" font-style="italic" lengthAdjust="spacingAndGlyphs" textLength="39" x="35" y="41.1543">Article</text><line style="stroke: #A80036; stroke-width: 1.5;" x1="7" x2="76" y1="53" y2="53"/><line style="stroke: #A80036; stroke-width: 1.5;" x1="7" x2="76" y1="61" y2="61"/><!--MD5=[4741ae9b66e8c8909830097dcbdef570]
class Head--><rect fill="#FEFECE" filter="url(#f16mwuu1zdxqcs)" height="48" id="Head" style="stroke: #A80036; stroke-width: 1.5;" width="65" x="156" y="21"/><ellipse cx="171" cy="37" fill="#B4A7E5" rx="11" ry="11" style="stroke: #A80036; stroke-width: 1.0;"/><path d="M166.9219,32.7656 L166.9219,30.6094 L174.3125,30.6094 L174.3125,32.7656 L171.8438,32.7656 L171.8438,40.8438 L174.3125,40.8438 L174.3125,43 L166.9219,43 L166.9219,40.8438 L169.3906,40.8438 L169.3906,32.7656 L166.9219,32.7656 Z "/><text fill="#000000" font-family="sans-serif" font-size="12" font-style="italic" lengthAdjust="spacingAndGlyphs" textLength="33" x="185" y="41.1543">Head</text><line style="stroke: #A80036; stroke-width: 1.5;" x1="157" x2="220" y1="53" y2="53"/><line style="stroke: #A80036; stroke-width: 1.5;" x1="157" x2="220" y1="61" y2="61"/><!--MD5=[c3f280b58e8dd0683e81b8ec31306a35]
class Author--><rect fill="#FEFECE" filter="url(#f16mwuu1zdxqcs)" height="73.6094" id="Author" style="stroke: #A80036; stroke-width: 1.5;" width="90" x="309.5" y="8"/><ellipse cx="331.7" cy="24" fill="#B4A7E5" rx="11" ry="11" style="stroke: #A80036; stroke-width: 1.0;"/><path d="M327.6219,19.7656 L327.6219,17.6094 L335.0125,17.6094 L335.0125,19.7656 L332.5438,19.7656 L332.5438,27.8438 L335.0125,27.8438 L335.0125,30 L327.6219,30 L327.6219,27.8438 L330.0906,27.8438 L330.0906,19.7656 L327.6219,19.7656 Z "/><text fill="#000000" font-family="sans-serif" font-size="12" font-style="italic" lengthAdjust="spacingAndGlyphs" textLength="42" x="347.3" y="28.1543">Author</text><line style="stroke: #A80036; stroke-width: 1.5;" x1="310.5" x2="398.5" y1="40" y2="40"/><line style="stroke: #A80036; stroke-width: 1.5;" x1="310.5" x2="398.5" y1="48" y2="48"/><text fill="#000000" font-family="sans-serif" font-size="11" lengthAdjust="spacingAndGlyphs" textLength="78" x="315.5" y="62.2104">String name()</text><text fill="#000000" font-family="sans-serif" font-size="11" lengthAdjust="spacingAndGlyphs" textLength="77" x="315.5" y="75.0151">String email()</text><!--MD5=[16382fd0f7017fc696c22072b9105529]
class PgArticle--><rect fill="#FEFECE" filter="url(#f16mwuu1zdxqcs)" height="48" id="PgArticle" style="stroke: #A80036; stroke-width: 1.5;" width="87" x="26" y="143"/><ellipse cx="41" cy="159" fill="#ADD1B2" rx="11" ry="11" style="stroke: #A80036; stroke-width: 1.0;"/><path d="M43.9688,164.6406 Q43.3906,164.9375 42.75,165.0859 Q42.1094,165.2344 41.4063,165.2344 Q38.9063,165.2344 37.5859,163.5859 Q36.2656,161.9375 36.2656,158.8125 Q36.2656,155.6875 37.5859,154.0313 Q38.9063,152.375 41.4063,152.375 Q42.1094,152.375 42.7578,152.5313 Q43.4063,152.6875 43.9688,152.9844 L43.9688,155.7031 Q43.3438,155.125 42.75,154.8516 Q42.1563,154.5781 41.5313,154.5781 Q40.1875,154.5781 39.5,155.6484 Q38.8125,156.7188 38.8125,158.8125 Q38.8125,160.9063 39.5,161.9766 Q40.1875,163.0469 41.5313,163.0469 Q42.1563,163.0469 42.75,162.7734 Q43.3438,162.5 43.9688,161.9219 L43.9688,164.6406 Z "/><text fill="#000000" font-family="sans-serif" font-size="12" lengthAdjust="spacingAndGlyphs" textLength="55" x="55" y="163.1543">PgArticle</text><line style="stroke: #A80036; stroke-width: 1.5;" x1="27" x2="112" y1="175" y2="175"/><line style="stroke: #A80036; stroke-width: 1.5;" x1="27" x2="112" y1="183" y2="183"/><!--MD5=[831d91174466ca89ce111f35bfaa7642]
class PgHead--><rect fill="#FEFECE" filter="url(#f16mwuu1zdxqcs)" height="48" id="PgHead" style="stroke: #A80036; stroke-width: 1.5;" width="81" x="148" y="143"/><ellipse cx="163" cy="159" fill="#ADD1B2" rx="11" ry="11" style="stroke: #A80036; stroke-width: 1.0;"/><path d="M165.9688,164.6406 Q165.3906,164.9375 164.75,165.0859 Q164.1094,165.2344 163.4063,165.2344 Q160.9063,165.2344 159.5859,163.5859 Q158.2656,161.9375 158.2656,158.8125 Q158.2656,155.6875 159.5859,154.0313 Q160.9063,152.375 163.4063,152.375 Q164.1094,152.375 164.7578,152.5313 Q165.4063,152.6875 165.9688,152.9844 L165.9688,155.7031 Q165.3438,155.125 164.75,154.8516 Q164.1563,154.5781 163.5313,154.5781 Q162.1875,154.5781 161.5,155.6484 Q160.8125,156.7188 160.8125,158.8125 Q160.8125,160.9063 161.5,161.9766 Q162.1875,163.0469 163.5313,163.0469 Q164.1563,163.0469 164.75,162.7734 Q165.3438,162.5 165.9688,161.9219 L165.9688,164.6406 Z "/><text fill="#000000" font-family="sans-serif" font-size="12" lengthAdjust="spacingAndGlyphs" textLength="49" x="177" y="163.1543">PgHead</text><line style="stroke: #A80036; stroke-width: 1.5;" x1="149" x2="228" y1="175" y2="175"/><line style="stroke: #A80036; stroke-width: 1.5;" x1="149" x2="228" y1="183" y2="183"/><!--MD5=[be8612e0fc67b58ccabdbdc10f51b02b]
class PgAuthor--><rect fill="#FEFECE" filter="url(#f16mwuu1zdxqcs)" height="48" id="PgAuthor" style="stroke: #A80036; stroke-width: 1.5;" width="90" x="264.5" y="143"/><ellipse cx="279.5" cy="159" fill="#ADD1B2" rx="11" ry="11" style="stroke: #A80036; stroke-width: 1.0;"/><path d="M282.4688,164.6406 Q281.8906,164.9375 281.25,165.0859 Q280.6094,165.2344 279.9063,165.2344 Q277.4063,165.2344 276.0859,163.5859 Q274.7656,161.9375 274.7656,158.8125 Q274.7656,155.6875 276.0859,154.0313 Q277.4063,152.375 279.9063,152.375 Q280.6094,152.375 281.2578,152.5313 Q281.9063,152.6875 282.4688,152.9844 L282.4688,155.7031 Q281.8438,155.125 281.25,154.8516 Q280.6563,154.5781 280.0313,154.5781 Q278.6875,154.5781 278,155.6484 Q277.3125,156.7188 277.3125,158.8125 Q277.3125,160.9063 278,161.9766 Q278.6875,163.0469 280.0313,163.0469 Q280.6563,163.0469 281.25,162.7734 Q281.8438,162.5 282.4688,161.9219 L282.4688,164.6406 Z "/><text fill="#000000" font-family="sans-serif" font-size="12" lengthAdjust="spacingAndGlyphs" textLength="58" x="293.5" y="163.1543">PgAuthor</text><line style="stroke: #A80036; stroke-width: 1.5;" x1="265.5" x2="353.5" y1="175" y2="175"/><line style="stroke: #A80036; stroke-width: 1.5;" x1="265.5" x2="353.5" y1="183" y2="183"/><!--MD5=[89112a84c8daddb34abf4f068893e892]
entity PostgreSQL--><rect fill="#FEFECE" filter="url(#f16mwuu1zdxqcs)" height="36.2969" style="stroke: #A80036; stroke-width: 1.5;" width="101" x="138" y="252"/><rect fill="#FEFECE" height="5" style="stroke: #A80036; stroke-width: 1.5;" width="10" x="133" y="257"/><rect fill="#FEFECE" height="5" style="stroke: #A80036; stroke-width: 1.5;" width="10" x="133" y="278.2969"/><text fill="#000000" font-family="sans-serif" font-size="14" lengthAdjust="spacingAndGlyphs" textLength="81" x="148" y="274.9951">PostgreSQL</text><!--MD5=[7c72b19202b82bfd26cd9b189e33cb3e]
link Article to Head--><path d="M89.0846,45 C89.0846,45 125.866,45 142.437,45 " fill="none" id="Article-Head" style="stroke: #A80036; stroke-width: 1.0;"/><polygon fill="#A80036" points="155.756,45,146.756,41,150.756,45,146.756,49,155.756,45" style="stroke: #A80036; stroke-width: 1.0;"/><line style="stroke: #A80036; stroke-width: 1.0;" x1="150.756" x2="142.756" y1="45" y2="45"/><polygon fill="#FFFFFF" points="77.0846,45,83.0846,49,89.0846,45,83.0846,41,77.0846,45" style="stroke: #A80036; stroke-width: 1.0;"/><text fill="#000000" font-family="sans-serif" font-size="13" lengthAdjust="spacingAndGlyphs" textLength="42" x="95.5" y="38.0669">head()</text><!--MD5=[da1e5559b4e39819f30b7ca4d33f9f3c]
link Head to Author--><path d="M233.296,45 C233.296,45 275.756,45 295.959,45 " fill="none" id="Head-Author" style="stroke: #A80036; stroke-width: 1.0;"/><polygon fill="#A80036" points="309.205,45,300.205,41,304.205,45,300.205,49,309.205,45" style="stroke: #A80036; stroke-width: 1.0;"/><line style="stroke: #A80036; stroke-width: 1.0;" x1="304.205" x2="296.205" y1="45" y2="45"/><polygon fill="#FFFFFF" points="221.296,45,227.296,49,233.296,45,227.296,41,221.296,45" style="stroke: #A80036; stroke-width: 1.0;"/><text fill="#000000" font-family="sans-serif" font-size="13" lengthAdjust="spacingAndGlyphs" textLength="52" x="239.25" y="38.0669">author()</text><!--MD5=[0547a9f5a12172ec5cf176d972378483]
reverse link Article to PgArticle--><path d="M51.4659,88.711 C55.7294,106.983 60.5386,127.594 64.1179,142.934 " fill="none" id="Article&lt;-PgArticle" style="stroke: #A80036; stroke-width: 1.0;"/><polygon fill="none" points="44.6265,90.205,46.8987,69.137,58.2602,87.023,44.6265,90.205" style="stroke: #A80036; stroke-width: 1.0;"/><!--MD5=[8fa4df9fd3d6c5616dddc5bdc1c163db]
reverse link Head to PgHead--><path d="M188.5,89.305 C188.5,107.428 188.5,127.76 188.5,142.934 " fill="none" id="Head&lt;-PgHead" style="stroke: #A80036; stroke-width: 1.0;"/><polygon fill="none" points="181.5,89.137,188.5,69.137,195.5,89.137,181.5,89.137" style="stroke: #A80036; stroke-width: 1.0;"/><!--MD5=[68da4ef254d6a69c1afc60c2db007108]
reverse link Author to PgAuthor--><path d="M333.912,100.902 C328.365,115.692 322.663,130.899 318.166,142.892 " fill="none" id="Author&lt;-PgAuthor" style="stroke: #A80036; stroke-width: 1.0;"/><polygon fill="none" points="327.422,98.273,340.999,82.004,340.53,103.188,327.422,98.273" style="stroke: #A80036; stroke-width: 1.0;"/><!--MD5=[97478c74858d906fe0075a550ac7e4ff]
link PgArticle to PgHead--><path d="M125.195,167 C125.195,167 131.861,167 134.686,167 " fill="none" id="PgArticle-PgHead" style="stroke: #A80036; stroke-width: 1.0;"/><polygon fill="#A80036" points="147.906,167,138.906,163,142.906,167,138.906,171,147.906,167" style="stroke: #A80036; stroke-width: 1.0;"/><line style="stroke: #A80036; stroke-width: 1.0;" x1="142.906" x2="134.906" y1="167" y2="167"/><polygon fill="#FFFFFF" points="113.195,167,119.195,171,125.195,167,119.195,163,113.195,167" style="stroke: #A80036; stroke-width: 1.0;"/><!--MD5=[a3b9b4856e77aab4e894b57f49fa6f0f]
link PgHead to PgAuthor--><path d="M241.148,167 C241.148,167 248.282,167 251.257,167 " fill="none" id="PgHead-PgAuthor" style="stroke: #A80036; stroke-width: 1.0;"/><polygon fill="#A80036" points="264.302,167,255.302,163,259.302,167,255.302,171,264.302,167" style="stroke: #A80036; stroke-width: 1.0;"/><line style="stroke: #A80036; stroke-width: 1.0;" x1="259.302" x2="251.302" y1="167" y2="167"/><polygon fill="#FFFFFF" points="229.148,167,235.148,171,241.148,167,235.148,163,229.148,167" style="stroke: #A80036; stroke-width: 1.0;"/><!--MD5=[41f3b5951f579d58ad93301d1b20be5b]
link PgArticle to PostgreSQL--><path d="M96.801,191.1714 C117.088,208.3894 144.52,231.6727 164.083,248.276 " fill="none" id="PgArticle-&gt;PostgreSQL" style="stroke: #A80036; stroke-width: 1.0; stroke-dasharray: 7.0,7.0;"/><polygon fill="#A80036" points="168.38,251.923,164.1071,243.0493,164.5681,248.6874,158.9301,249.1484,168.38,251.923" style="stroke: #A80036; stroke-width: 1.0;"/><!--MD5=[a8eb31a1cf8896e56e85123fbbd63176]
link PgHead to PostgreSQL--><path d="M188.5,191.1714 C188.5,207.8107 188.5,230.1143 188.5,246.5795 " fill="none" id="PgHead-&gt;PostgreSQL" style="stroke: #A80036; stroke-width: 1.0; stroke-dasharray: 7.0,7.0;"/><polygon fill="#A80036" points="188.5,251.923,192.5,242.923,188.5,246.923,184.5,242.923,188.5,251.923" style="stroke: #A80036; stroke-width: 1.0;"/><!--MD5=[4a776ab509ad1c667b121f8a78fc4a78]
link PgAuthor to PostgreSQL--><path d="M281.74,191.1714 C260.939,208.5341 232.75,232.0644 212.828,248.6931 " fill="none" id="PgAuthor-&gt;PostgreSQL" style="stroke: #A80036; stroke-width: 1.0; stroke-dasharray: 7.0,7.0;"/><polygon fill="#A80036" points="208.959,251.923,218.4315,249.2263,212.7974,248.7188,213.3048,243.0848,208.959,251.923" style="stroke: #A80036; stroke-width: 1.0;"/><!--MD5=[c99cbc6c548446f3fde11daff15ea2b0]
@startuml

allowmixing
Interface Article
Interface Head
Interface Author
Article o-> Head : "head()"
Head o-> Author : "author()"
Author : String name()
Author : String email()
Article <|- - PgArticle
Head <|- - PgHead
Author <|- - PgAuthor
PgArticle o-> PgHead
PgHead o-> PgAuthor
component PostgreSQL
PgArticle ..> PostgreSQL
PgHead ..> PostgreSQL
PgAuthor ..> PostgreSQL

@enduml

PlantUML version 1.2020.01(Sun Feb 16 17:40:32 GMT 2020)
(GPL source distribution)
Java Runtime: Java(TM) SE Runtime Environment
JVM: Java HotSpot(TM) 64-Bit Server VM
Java Version: 1.8.0_201-b09
Operating System: Linux
Default Encoding: UTF-8
Language: en
Country: US
--></g></svg>