<?xml version="1.0" encoding="UTF-8" standalone="no"?><svg xmlns="http://www.w3.org/2000/svg" xmlns:xlink="http://www.w3.org/1999/xlink" contentScriptType="application/ecmascript" contentStyleType="text/css" height="175px" preserveAspectRatio="none" style="width:980px;height:175px;" version="1.1" viewBox="0 0 980 175" width="980px" zoomAndPan="magnify"><defs><filter height="300%" id="f1wetc1tvuef3p" width="300%" x="-1" y="-1"><feGaussianBlur result="blurOut" stdDeviation="2.0"/><feColorMatrix in="blurOut" result="blurOut2" type="matrix" values="0 0 0 0 0 0 0 0 0 0 0 0 0 0 0 0 0 0 .4 0"/><feOffset dx="4.0" dy="4.0" in="blurOut2" result="blurOut3"/><feBlend in="SourceGraphic" in2="blurOut3" mode="normal"/></filter></defs><g><!--MD5=[0851f84a889f989e7bb0bebc385d0f09]
class Request--><rect fill="#FEFECE" filter="url(#f1wetc1tvuef3p)" height="48" id="Request" style="stroke: #A80036; stroke-width: 1.5;" width="84" x="132.5" y="8"/><ellipse cx="147.5" cy="24" fill="#ADD1B2" rx="11" ry="11" style="stroke: #A80036; stroke-width: 1.0;"/><path d="M150.4688,29.6406 Q149.8906,29.9375 149.25,30.0859 Q148.6094,30.2344 147.9063,30.2344 Q145.4063,30.2344 144.0859,28.5859 Q142.7656,26.9375 142.7656,23.8125 Q142.7656,20.6875 144.0859,19.0313 Q145.4063,17.375 147.9063,17.375 Q148.6094,17.375 149.2578,17.5313 Q149.9063,17.6875 150.4688,17.9844 L150.4688,20.7031 Q149.8438,20.125 149.25,19.8516 Q148.6563,19.5781 148.0313,19.5781 Q146.6875,19.5781 146,20.6484 Q145.3125,21.7188 145.3125,23.8125 Q145.3125,25.9063 146,26.9766 Q146.6875,28.0469 148.0313,28.0469 Q148.6563,28.0469 149.25,27.7734 Q149.8438,27.5 150.4688,26.9219 L150.4688,29.6406 Z "/><text fill="#000000" font-family="sans-serif" font-size="12" lengthAdjust="spacingAndGlyphs" textLength="52" x="161.5" y="28.1543">Request</text><line style="stroke: #A80036; stroke-width: 1.5;" x1="133.5" x2="215.5" y1="40" y2="40"/><line style="stroke: #A80036; stroke-width: 1.5;" x1="133.5" x2="215.5" y1="48" y2="48"/><!--MD5=[0f3341a225de9b2b8557585638687ec1]
class RqChunk--><rect fill="#FEFECE" filter="url(#f1wetc1tvuef3p)" height="48" id="RqChunk" style="stroke: #A80036; stroke-width: 1.5;" width="87" x="6" y="116"/><ellipse cx="21" cy="132" fill="#ADD1B2" rx="11" ry="11" style="stroke: #A80036; stroke-width: 1.0;"/><path d="M23.9688,137.6406 Q23.3906,137.9375 22.75,138.0859 Q22.1094,138.2344 21.4063,138.2344 Q18.9063,138.2344 17.5859,136.5859 Q16.2656,134.9375 16.2656,131.8125 Q16.2656,128.6875 17.5859,127.0313 Q18.9063,125.375 21.4063,125.375 Q22.1094,125.375 22.7578,125.5313 Q23.4063,125.6875 23.9688,125.9844 L23.9688,128.7031 Q23.3438,128.125 22.75,127.8516 Q22.1563,127.5781 21.5313,127.5781 Q20.1875,127.5781 19.5,128.6484 Q18.8125,129.7188 18.8125,131.8125 Q18.8125,133.9063 19.5,134.9766 Q20.1875,136.0469 21.5313,136.0469 Q22.1563,136.0469 22.75,135.7734 Q23.3438,135.5 23.9688,134.9219 L23.9688,137.6406 Z "/><text fill="#000000" font-family="sans-serif" font-size="12" lengthAdjust="spacingAndGlyphs" textLength="55" x="35" y="136.1543">RqChunk</text><line style="stroke: #A80036; stroke-width: 1.5;" x1="7" x2="92" y1="148" y2="148"/><line style="stroke: #A80036; stroke-width: 1.5;" x1="7" x2="92" y1="156" y2="156"/><!--MD5=[16368da136d378d0d889e6d273220fdc]
class RqGreedy--><rect fill="#FEFECE" filter="url(#f1wetc1tvuef3p)" height="48" id="RqGreedy" style="stroke: #A80036; stroke-width: 1.5;" width="92" x="128.5" y="116"/><ellipse cx="143.5" cy="132" fill="#ADD1B2" rx="11" ry="11" style="stroke: #A80036; stroke-width: 1.0;"/><path d="M146.4688,137.6406 Q145.8906,137.9375 145.25,138.0859 Q144.6094,138.2344 143.9063,138.2344 Q141.4063,138.2344 140.0859,136.5859 Q138.7656,134.9375 138.7656,131.8125 Q138.7656,128.6875 140.0859,127.0313 Q141.4063,125.375 143.9063,125.375 Q144.6094,125.375 145.2578,125.5313 Q145.9063,125.6875 146.4688,125.9844 L146.4688,128.7031 Q145.8438,128.125 145.25,127.8516 Q144.6563,127.5781 144.0313,127.5781 Q142.6875,127.5781 142,128.6484 Q141.3125,129.7188 141.3125,131.8125 Q141.3125,133.9063 142,134.9766 Q142.6875,136.0469 144.0313,136.0469 Q144.6563,136.0469 145.25,135.7734 Q145.8438,135.5 146.4688,134.9219 L146.4688,137.6406 Z "/><text fill="#000000" font-family="sans-serif" font-size="12" lengthAdjust="spacingAndGlyphs" textLength="60" x="157.5" y="136.1543">RqGreedy</text><line style="stroke: #A80036; stroke-width: 1.5;" x1="129.5" x2="219.5" y1="148" y2="148"/><line style="stroke: #A80036; stroke-width: 1.5;" x1="129.5" x2="219.5" y1="156" y2="156"/><!--MD5=[87c3cae125c7946cbb8b10689a20d3e3]
class RqMultipart--><rect fill="#FEFECE" filter="url(#f1wetc1tvuef3p)" height="48" id="RqMultipart" style="stroke: #A80036; stroke-width: 1.5;" width="103" x="256" y="116"/><ellipse cx="271" cy="132" fill="#ADD1B2" rx="11" ry="11" style="stroke: #A80036; stroke-width: 1.0;"/><path d="M273.9688,137.6406 Q273.3906,137.9375 272.75,138.0859 Q272.1094,138.2344 271.4063,138.2344 Q268.9063,138.2344 267.5859,136.5859 Q266.2656,134.9375 266.2656,131.8125 Q266.2656,128.6875 267.5859,127.0313 Q268.9063,125.375 271.4063,125.375 Q272.1094,125.375 272.7578,125.5313 Q273.4063,125.6875 273.9688,125.9844 L273.9688,128.7031 Q273.3438,128.125 272.75,127.8516 Q272.1563,127.5781 271.5313,127.5781 Q270.1875,127.5781 269.5,128.6484 Q268.8125,129.7188 268.8125,131.8125 Q268.8125,133.9063 269.5,134.9766 Q270.1875,136.0469 271.5313,136.0469 Q272.1563,136.0469 272.75,135.7734 Q273.3438,135.5 273.9688,134.9219 L273.9688,137.6406 Z "/><text fill="#000000" font-family="sans-serif" font-size="12" lengthAdjust="spacingAndGlyphs" textLength="71" x="285" y="136.1543">RqMultipart</text><line style="stroke: #A80036; stroke-width: 1.5;" x1="257" x2="358" y1="148" y2="148"/><line style="stroke: #A80036; stroke-width: 1.5;" x1="257" x2="358" y1="156" y2="156"/><!--MD5=[6b122236ff12c946aca98029de9447e7]
class Back--><rect fill="#FEFECE" filter="url(#f1wetc1tvuef3p)" height="48" id="Back" style="stroke: #A80036; stroke-width: 1.5;" width="62" x="468.5" y="8"/><ellipse cx="483.5" cy="24" fill="#ADD1B2" rx="11" ry="11" style="stroke: #A80036; stroke-width: 1.0;"/><path d="M486.4688,29.6406 Q485.8906,29.9375 485.25,30.0859 Q484.6094,30.2344 483.9063,30.2344 Q481.4063,30.2344 480.0859,28.5859 Q478.7656,26.9375 478.7656,23.8125 Q478.7656,20.6875 480.0859,19.0313 Q481.4063,17.375 483.9063,17.375 Q484.6094,17.375 485.2578,17.5313 Q485.9063,17.6875 486.4688,17.9844 L486.4688,20.7031 Q485.8438,20.125 485.25,19.8516 Q484.6563,19.5781 484.0313,19.5781 Q482.6875,19.5781 482,20.6484 Q481.3125,21.7188 481.3125,23.8125 Q481.3125,25.9063 482,26.9766 Q482.6875,28.0469 484.0313,28.0469 Q484.6563,28.0469 485.25,27.7734 Q485.8438,27.5 486.4688,26.9219 L486.4688,29.6406 Z "/><text fill="#000000" font-family="sans-serif" font-size="12" lengthAdjust="spacingAndGlyphs" textLength="30" x="497.5" y="28.1543">Back</text><line style="stroke: #A80036; stroke-width: 1.5;" x1="469.5" x2="529.5" y1="40" y2="40"/><line style="stroke: #A80036; stroke-width: 1.5;" x1="469.5" x2="529.5" y1="48" y2="48"/><!--MD5=[28c978d9673ea3f71111303fcdd18331]
class BkParallel--><rect fill="#FEFECE" filter="url(#f1wetc1tvuef3p)" height="48" id="BkParallel" style="stroke: #A80036; stroke-width: 1.5;" width="93" x="394" y="116"/><ellipse cx="409" cy="132" fill="#ADD1B2" rx="11" ry="11" style="stroke: #A80036; stroke-width: 1.0;"/><path d="M411.9688,137.6406 Q411.3906,137.9375 410.75,138.0859 Q410.1094,138.2344 409.4063,138.2344 Q406.9063,138.2344 405.5859,136.5859 Q404.2656,134.9375 404.2656,131.8125 Q404.2656,128.6875 405.5859,127.0313 Q406.9063,125.375 409.4063,125.375 Q410.1094,125.375 410.7578,125.5313 Q411.4063,125.6875 411.9688,125.9844 L411.9688,128.7031 Q411.3438,128.125 410.75,127.8516 Q410.1563,127.5781 409.5313,127.5781 Q408.1875,127.5781 407.5,128.6484 Q406.8125,129.7188 406.8125,131.8125 Q406.8125,133.9063 407.5,134.9766 Q408.1875,136.0469 409.5313,136.0469 Q410.1563,136.0469 410.75,135.7734 Q411.3438,135.5 411.9688,134.9219 L411.9688,137.6406 Z "/><text fill="#000000" font-family="sans-serif" font-size="12" lengthAdjust="spacingAndGlyphs" textLength="61" x="423" y="136.1543">BkParallel</text><line style="stroke: #A80036; stroke-width: 1.5;" x1="395" x2="486" y1="148" y2="148"/><line style="stroke: #A80036; stroke-width: 1.5;" x1="395" x2="486" y1="156" y2="156"/><!--MD5=[1117c89426316d69ae095cd49e14c756]
class BkSafe--><rect fill="#FEFECE" filter="url(#f1wetc1tvuef3p)" height="48" id="BkSafe" style="stroke: #A80036; stroke-width: 1.5;" width="75" x="522" y="116"/><ellipse cx="537" cy="132" fill="#ADD1B2" rx="11" ry="11" style="stroke: #A80036; stroke-width: 1.0;"/><path d="M539.9688,137.6406 Q539.3906,137.9375 538.75,138.0859 Q538.1094,138.2344 537.4063,138.2344 Q534.9063,138.2344 533.5859,136.5859 Q532.2656,134.9375 532.2656,131.8125 Q532.2656,128.6875 533.5859,127.0313 Q534.9063,125.375 537.4063,125.375 Q538.1094,125.375 538.7578,125.5313 Q539.4063,125.6875 539.9688,125.9844 L539.9688,128.7031 Q539.3438,128.125 538.75,127.8516 Q538.1563,127.5781 537.5313,127.5781 Q536.1875,127.5781 535.5,128.6484 Q534.8125,129.7188 534.8125,131.8125 Q534.8125,133.9063 535.5,134.9766 Q536.1875,136.0469 537.5313,136.0469 Q538.1563,136.0469 538.75,135.7734 Q539.3438,135.5 539.9688,134.9219 L539.9688,137.6406 Z "/><text fill="#000000" font-family="sans-serif" font-size="12" lengthAdjust="spacingAndGlyphs" textLength="43" x="551" y="136.1543">BkSafe</text><line style="stroke: #A80036; stroke-width: 1.5;" x1="523" x2="596" y1="148" y2="148"/><line style="stroke: #A80036; stroke-width: 1.5;" x1="523" x2="596" y1="156" y2="156"/><!--MD5=[f5d9479b99b2018679a9b2fbeed7def5]
class Take--><rect fill="#FEFECE" filter="url(#f1wetc1tvuef3p)" height="48" id="Take" style="stroke: #A80036; stroke-width: 1.5;" width="62" x="759.5" y="8"/><ellipse cx="774.5" cy="24" fill="#ADD1B2" rx="11" ry="11" style="stroke: #A80036; stroke-width: 1.0;"/><path d="M777.4688,29.6406 Q776.8906,29.9375 776.25,30.0859 Q775.6094,30.2344 774.9063,30.2344 Q772.4063,30.2344 771.0859,28.5859 Q769.7656,26.9375 769.7656,23.8125 Q769.7656,20.6875 771.0859,19.0313 Q772.4063,17.375 774.9063,17.375 Q775.6094,17.375 776.2578,17.5313 Q776.9063,17.6875 777.4688,17.9844 L777.4688,20.7031 Q776.8438,20.125 776.25,19.8516 Q775.6563,19.5781 775.0313,19.5781 Q773.6875,19.5781 773,20.6484 Q772.3125,21.7188 772.3125,23.8125 Q772.3125,25.9063 773,26.9766 Q773.6875,28.0469 775.0313,28.0469 Q775.6563,28.0469 776.25,27.7734 Q776.8438,27.5 777.4688,26.9219 L777.4688,29.6406 Z "/><text fill="#000000" font-family="sans-serif" font-size="12" lengthAdjust="spacingAndGlyphs" textLength="30" x="788.5" y="28.1543">Take</text><line style="stroke: #A80036; stroke-width: 1.5;" x1="760.5" x2="820.5" y1="40" y2="40"/><line style="stroke: #A80036; stroke-width: 1.5;" x1="760.5" x2="820.5" y1="48" y2="48"/><!--MD5=[be22fbd38765512bea5815d92cb3c33f]
class TkFailure--><rect fill="#FEFECE" filter="url(#f1wetc1tvuef3p)" height="48" id="TkFailure" style="stroke: #A80036; stroke-width: 1.5;" width="88" x="631.5" y="116"/><ellipse cx="646.5" cy="132" fill="#ADD1B2" rx="11" ry="11" style="stroke: #A80036; stroke-width: 1.0;"/><path d="M649.4688,137.6406 Q648.8906,137.9375 648.25,138.0859 Q647.6094,138.2344 646.9063,138.2344 Q644.4063,138.2344 643.0859,136.5859 Q641.7656,134.9375 641.7656,131.8125 Q641.7656,128.6875 643.0859,127.0313 Q644.4063,125.375 646.9063,125.375 Q647.6094,125.375 648.2578,125.5313 Q648.9063,125.6875 649.4688,125.9844 L649.4688,128.7031 Q648.8438,128.125 648.25,127.8516 Q647.6563,127.5781 647.0313,127.5781 Q645.6875,127.5781 645,128.6484 Q644.3125,129.7188 644.3125,131.8125 Q644.3125,133.9063 645,134.9766 Q645.6875,136.0469 647.0313,136.0469 Q647.6563,136.0469 648.25,135.7734 Q648.8438,135.5 649.4688,134.9219 L649.4688,137.6406 Z "/><text fill="#000000" font-family="sans-serif" font-size="12" lengthAdjust="spacingAndGlyphs" textLength="56" x="660.5" y="136.1543">TkFailure</text><line style="stroke: #A80036; stroke-width: 1.5;" x1="632.5" x2="718.5" y1="148" y2="148"/><line style="stroke: #A80036; stroke-width: 1.5;" x1="632.5" x2="718.5" y1="156" y2="156"/><!--MD5=[a29493d9a80a445b627cb9b45dd08520]
class TkGzip--><rect fill="#FEFECE" filter="url(#f1wetc1tvuef3p)" height="48" id="TkGzip" style="stroke: #A80036; stroke-width: 1.5;" width="71" x="755" y="116"/><ellipse cx="770" cy="132" fill="#ADD1B2" rx="11" ry="11" style="stroke: #A80036; stroke-width: 1.0;"/><path d="M772.9688,137.6406 Q772.3906,137.9375 771.75,138.0859 Q771.1094,138.2344 770.4063,138.2344 Q767.9063,138.2344 766.5859,136.5859 Q765.2656,134.9375 765.2656,131.8125 Q765.2656,128.6875 766.5859,127.0313 Q767.9063,125.375 770.4063,125.375 Q771.1094,125.375 771.7578,125.5313 Q772.4063,125.6875 772.9688,125.9844 L772.9688,128.7031 Q772.3438,128.125 771.75,127.8516 Q771.1563,127.5781 770.5313,127.5781 Q769.1875,127.5781 768.5,128.6484 Q767.8125,129.7188 767.8125,131.8125 Q767.8125,133.9063 768.5,134.9766 Q769.1875,136.0469 770.5313,136.0469 Q771.1563,136.0469 771.75,135.7734 Q772.3438,135.5 772.9688,134.9219 L772.9688,137.6406 Z "/><text fill="#000000" font-family="sans-serif" font-size="12" lengthAdjust="spacingAndGlyphs" textLength="39" x="784" y="136.1543">TkGzip</text><line style="stroke: #A80036; stroke-width: 1.5;" x1="756" x2="825" y1="148" y2="148"/><line style="stroke: #A80036; stroke-width: 1.5;" x1="756" x2="825" y1="156" y2="156"/><!--MD5=[462317a0011e05d062647ab57ff98831]
class TkMeasured--><rect fill="#FEFECE" filter="url(#f1wetc1tvuef3p)" height="48" id="TkMeasured" style="stroke: #A80036; stroke-width: 1.5;" width="108" x="861.5" y="116"/><ellipse cx="876.5" cy="132" fill="#ADD1B2" rx="11" ry="11" style="stroke: #A80036; stroke-width: 1.0;"/><path d="M879.4688,137.6406 Q878.8906,137.9375 878.25,138.0859 Q877.6094,138.2344 876.9063,138.2344 Q874.4063,138.2344 873.0859,136.5859 Q871.7656,134.9375 871.7656,131.8125 Q871.7656,128.6875 873.0859,127.0313 Q874.4063,125.375 876.9063,125.375 Q877.6094,125.375 878.2578,125.5313 Q878.9063,125.6875 879.4688,125.9844 L879.4688,128.7031 Q878.8438,128.125 878.25,127.8516 Q877.6563,127.5781 877.0313,127.5781 Q875.6875,127.5781 875,128.6484 Q874.3125,129.7188 874.3125,131.8125 Q874.3125,133.9063 875,134.9766 Q875.6875,136.0469 877.0313,136.0469 Q877.6563,136.0469 878.25,135.7734 Q878.8438,135.5 879.4688,134.9219 L879.4688,137.6406 Z "/><text fill="#000000" font-family="sans-serif" font-size="12" lengthAdjust="spacingAndGlyphs" textLength="76" x="890.5" y="136.1543">TkMeasured</text><line style="stroke: #A80036; stroke-width: 1.5;" x1="862.5" x2="968.5" y1="148" y2="148"/><line style="stroke: #A80036; stroke-width: 1.5;" x1="862.5" x2="968.5" y1="156" y2="156"/><!--MD5=[4bb0a4b47cdd5863ab344ad989cabc0f]
reverse link Request to RqChunk--><path d="M131.925,69.1036 C113.765,84.5034 93.0982,102.0288 77.0019,115.6784 " fill="none" id="Request&lt;-RqChunk" style="stroke: #A80036; stroke-width: 1.0;"/><polygon fill="none" points="127.596,63.597,147.377,56,136.65,74.2746,127.596,63.597" style="stroke: #A80036; stroke-width: 1.0;"/><!--MD5=[1328a9798d9a2058d4fb96511df0ba0e]
reverse link Request to RqGreedy--><path d="M174.5,76.0236 C174.5,89.5792 174.5,104.0381 174.5,115.6784 " fill="none" id="Request&lt;-RqGreedy" style="stroke: #A80036; stroke-width: 1.0;"/><polygon fill="none" points="167.5,76.0005,174.5,56,181.5,76.0004,167.5,76.0005" style="stroke: #A80036; stroke-width: 1.0;"/><!--MD5=[be535a3c4176568c168ff05b4dd1f9bd]
reverse link Request to RqMultipart--><path d="M219.212,68.6353 C238.675,84.1472 260.938,101.8902 278.238,115.6784 " fill="none" id="Request&lt;-RqMultipart" style="stroke: #A80036; stroke-width: 1.0;"/><polygon fill="none" points="214.637,73.9398,203.359,56,223.362,62.992,214.637,73.9398" style="stroke: #A80036; stroke-width: 1.0;"/><!--MD5=[6cf4d1908cc817b697ea196dd6a6ab03]
reverse link Back to BkParallel--><path d="M476.894,73.6133 C468.971,87.8479 460.346,103.3452 453.481,115.6784 " fill="none" id="Back&lt;-BkParallel" style="stroke: #A80036; stroke-width: 1.0;"/><polygon fill="none" points="470.855,70.0714,486.698,56,483.087,76.8802,470.855,70.0714" style="stroke: #A80036; stroke-width: 1.0;"/><!--MD5=[2af5e458d36999a33127e58c75de5eea]
reverse link Back to BkSafe--><path d="M522.489,73.6133 C530.546,87.8479 539.318,103.3452 546.299,115.6784 " fill="none" id="Back&lt;-BkSafe" style="stroke: #A80036; stroke-width: 1.0;"/><polygon fill="none" points="516.279,76.8538,512.519,56,528.463,69.9574,516.279,76.8538" style="stroke: #A80036; stroke-width: 1.0;"/><!--MD5=[42873614f9e10996493db6639a0de03c]
reverse link Take to TkFailure--><path d="M750.821,69.5733 C734.238,84.8589 715.46,102.1673 700.802,115.6784 " fill="none" id="Take&lt;-TkFailure" style="stroke: #A80036; stroke-width: 1.0;"/><polygon fill="none" points="746.097,64.4084,765.547,56,755.585,74.7025,746.097,64.4084" style="stroke: #A80036; stroke-width: 1.0;"/><!--MD5=[c69fd2d711eb29ba80609da4b5776970]
reverse link Take to TkGzip--><path d="M790.5,76.0236 C790.5,89.5792 790.5,104.0381 790.5,115.6784 " fill="none" id="Take&lt;-TkGzip" style="stroke: #A80036; stroke-width: 1.0;"/><polygon fill="none" points="783.5,76.0005,790.5,56,797.5,76.0004,783.5,76.0005" style="stroke: #A80036; stroke-width: 1.0;"/><!--MD5=[772b0d2d086f309cd19a1cb6469ba59f]
reverse link Take to TkMeasured--><path d="M833.075,69.1036 C851.235,84.5034 871.902,102.0288 887.998,115.6784 " fill="none" id="Take&lt;-TkMeasured" style="stroke: #A80036; stroke-width: 1.0;"/><polygon fill="none" points="828.35,74.2746,817.623,56,837.404,63.597,828.35,74.2746" style="stroke: #A80036; stroke-width: 1.0;"/><!--MD5=[da796e15dddf84183af6ce8eff649698]
@startuml

Request <|- - RqChunk
Request <|- - RqGreedy
Request <|- - RqMultipart
Back <|- - BkParallel
Back <|- - BkSafe
Take <|- - TkFailure
Take <|- - TkGzip
Take <|- - TkMeasured

@enduml

PlantUML version 1.2020.01(Sun Feb 16 17:40:32 GMT 2020)
(GPL source distribution)
Java Runtime: Java(TM) SE Runtime Environment
JVM: Java HotSpot(TM) 64-Bit Server VM
Java Version: 1.8.0_201-b09
Operating System: Linux
Default Encoding: UTF-8
Language: en
Country: US
--></g></svg>