<?xml version="1.0" encoding="UTF-8" standalone="no"?><svg xmlns="http://www.w3.org/2000/svg" xmlns:xlink="http://www.w3.org/1999/xlink" contentScriptType="application/ecmascript" contentStyleType="text/css" height="175px" preserveAspectRatio="none" style="width:981px;height:175px;" version="1.1" viewBox="0 0 981 175" width="981px" zoomAndPan="magnify"><defs><filter height="300%" id="f1wetc1tvuef3p" width="300%" x="-1" y="-1"><feGaussianBlur result="blurOut" stdDeviation="2.0"/><feColorMatrix in="blurOut" result="blurOut2" type="matrix" values="0 0 0 0 0 0 0 0 0 0 0 0 0 0 0 0 0 0 .4 0"/><feOffset dx="4.0" dy="4.0" in="blurOut2" result="blurOut3"/><feBlend in="SourceGraphic" in2="blurOut3" mode="normal"/></filter></defs><g><!--MD5=[0851f84a889f989e7bb0bebc385d0f09]
class Request--><rect fill="#FEFECE" filter="url(#f1wetc1tvuef3p)" height="48" id="Request" style="stroke: #A80036; stroke-width: 1.5;" width="84" x="132.5" y="8"/><ellipse cx="147.5" cy="24" fill="#ADD1B2" rx="11" ry="11" style="stroke: #A80036; stroke-width: 1.0;"/><path d="M150.4688,29.6406 Q149.8906,29.9375 149.25,30.0781 Q148.6094,30.2344 147.9063,30.2344 Q145.4063,30.2344 144.0781,28.5938 Q142.7656,26.9375 142.7656,23.8125 Q142.7656,20.6875 144.0781,19.0313 Q145.4063,17.375 147.9063,17.375 Q148.6094,17.375 149.25,17.5313 Q149.9063,17.6875 150.4688,17.9844 L150.4688,20.7031 Q149.8438,20.125 149.25,19.8594 Q148.6563,19.5781 148.0313,19.5781 Q146.6875,19.5781 146,20.6563 Q145.3125,21.7188 145.3125,23.8125 Q145.3125,25.9063 146,26.9844 Q146.6875,28.0469 148.0313,28.0469 Q148.6563,28.0469 149.25,27.7813 Q149.8438,27.5 150.4688,26.9219 L150.4688,29.6406 Z "/><text fill="#000000" font-family="sans-serif" font-size="12" lengthAdjust="spacingAndGlyphs" textLength="52" x="161.5" y="28.1543">Request</text><line style="stroke: #A80036; stroke-width: 1.5;" x1="133.5" x2="215.5" y1="40" y2="40"/><line style="stroke: #A80036; stroke-width: 1.5;" x1="133.5" x2="215.5" y1="48" y2="48"/><!--MD5=[0f3341a225de9b2b8557585638687ec1]
class RqChunk--><rect fill="#FEFECE" filter="url(#f1wetc1tvuef3p)" height="48" id="RqChunk" style="stroke: #A80036; stroke-width: 1.5;" width="87" x="6" y="116"/><ellipse cx="21" cy="132" fill="#ADD1B2" rx="11" ry="11" style="stroke: #A80036; stroke-width: 1.0;"/><path d="M23.9688,137.6406 Q23.3906,137.9375 22.75,138.0781 Q22.1094,138.2344 21.4063,138.2344 Q18.9063,138.2344 17.5781,136.5938 Q16.2656,134.9375 16.2656,131.8125 Q16.2656,128.6875 17.5781,127.0313 Q18.9063,125.375 21.4063,125.375 Q22.1094,125.375 22.75,125.5313 Q23.4063,125.6875 23.9688,125.9844 L23.9688,128.7031 Q23.3438,128.125 22.75,127.8594 Q22.1563,127.5781 21.5313,127.5781 Q20.1875,127.5781 19.5,128.6563 Q18.8125,129.7188 18.8125,131.8125 Q18.8125,133.9063 19.5,134.9844 Q20.1875,136.0469 21.5313,136.0469 Q22.1563,136.0469 22.75,135.7813 Q23.3438,135.5 23.9688,134.9219 L23.9688,137.6406 Z "/><text fill="#000000" font-family="sans-serif" font-size="12" lengthAdjust="spacingAndGlyphs" textLength="55" x="35" y="136.1543">RqChunk</text><line style="stroke: #A80036; stroke-width: 1.5;" x1="7" x2="92" y1="148" y2="148"/><line style="stroke: #A80036; stroke-width: 1.5;" x1="7" x2="92" y1="156" y2="156"/><!--MD5=[16368da136d378d0d889e6d273220fdc]
class RqGreedy--><rect fill="#FEFECE" filter="url(#f1wetc1tvuef3p)" height="48" id="RqGreedy" style="stroke: #A80036; stroke-width: 1.5;" width="92" x="128.5" y="116"/><ellipse cx="143.5" cy="132" fill="#ADD1B2" rx="11" ry="11" style="stroke: #A80036; stroke-width: 1.0;"/><path d="M146.4688,137.6406 Q145.8906,137.9375 145.25,138.0781 Q144.6094,138.2344 143.9063,138.2344 Q141.4063,138.2344 140.0781,136.5938 Q138.7656,134.9375 138.7656,131.8125 Q138.7656,128.6875 140.0781,127.0313 Q141.4063,125.375 143.9063,125.375 Q144.6094,125.375 145.25,125.5313 Q145.9063,125.6875 146.4688,125.9844 L146.4688,128.7031 Q145.8438,128.125 145.25,127.8594 Q144.6563,127.5781 144.0313,127.5781 Q142.6875,127.5781 142,128.6563 Q141.3125,129.7188 141.3125,131.8125 Q141.3125,133.9063 142,134.9844 Q142.6875,136.0469 144.0313,136.0469 Q144.6563,136.0469 145.25,135.7813 Q145.8438,135.5 146.4688,134.9219 L146.4688,137.6406 Z "/><text fill="#000000" font-family="sans-serif" font-size="12" lengthAdjust="spacingAndGlyphs" textLength="60" x="157.5" y="136.1543">RqGreedy</text><line style="stroke: #A80036; stroke-width: 1.5;" x1="129.5" x2="219.5" y1="148" y2="148"/><line style="stroke: #A80036; stroke-width: 1.5;" x1="129.5" x2="219.5" y1="156" y2="156"/><!--MD5=[87c3cae125c7946cbb8b10689a20d3e3]
class RqMultipart--><rect fill="#FEFECE" filter="url(#f1wetc1tvuef3p)" height="48" id="RqMultipart" style="stroke: #A80036; stroke-width: 1.5;" width="103" x="256" y="116"/><ellipse cx="271" cy="132" fill="#ADD1B2" rx="11" ry="11" style="stroke: #A80036; stroke-width: 1.0;"/><path d="M273.9688,137.6406 Q273.3906,137.9375 272.75,138.0781 Q272.1094,138.2344 271.4063,138.2344 Q268.9063,138.2344 267.5781,136.5938 Q266.2656,134.9375 266.2656,131.8125 Q266.2656,128.6875 267.5781,127.0313 Q268.9063,125.375 271.4063,125.375 Q272.1094,125.375 272.75,125.5313 Q273.4063,125.6875 273.9688,125.9844 L273.9688,128.7031 Q273.3438,128.125 272.75,127.8594 Q272.1563,127.5781 271.5313,127.5781 Q270.1875,127.5781 269.5,128.6563 Q268.8125,129.7188 268.8125,131.8125 Q268.8125,133.9063 269.5,134.9844 Q270.1875,136.0469 271.5313,136.0469 Q272.1563,136.0469 272.75,135.7813 Q273.3438,135.5 273.9688,134.9219 L273.9688,137.6406 Z "/><text fill="#000000" font-family="sans-serif" font-size="12" lengthAdjust="spacingAndGlyphs" textLength="71" x="285" y="136.1543">RqMultipart</text><line style="stroke: #A80036; stroke-width: 1.5;" x1="257" x2="358" y1="148" y2="148"/><line style="stroke: #A80036; stroke-width: 1.5;" x1="257" x2="358" y1="156" y2="156"/><!--MD5=[6b122236ff12c946aca98029de9447e7]
class Back--><rect fill="#FEFECE" filter="url(#f1wetc1tvuef3p)" height="48" id="Back" style="stroke: #A80036; stroke-width: 1.5;" width="62" x="468.5" y="8"/><ellipse cx="483.5" cy="24" fill="#ADD1B2" rx="11" ry="11" style="stroke: #A80036; stroke-width: 1.0;"/><path d="M486.4688,29.6406 Q485.8906,29.9375 485.25,30.0781 Q484.6094,30.2344 483.9063,30.2344 Q481.4063,30.2344 480.0781,28.5938 Q478.7656,26.9375 478.7656,23.8125 Q478.7656,20.6875 480.0781,19.0313 Q481.4063,17.375 483.9063,17.375 Q484.6094,17.375 485.25,17.5313 Q485.9063,17.6875 486.4688,17.9844 L486.4688,20.7031 Q485.8438,20.125 485.25,19.8594 Q484.6563,19.5781 484.0313,19.5781 Q482.6875,19.5781 482,20.6563 Q481.3125,21.7188 481.3125,23.8125 Q481.3125,25.9063 482,26.9844 Q482.6875,28.0469 484.0313,28.0469 Q484.6563,28.0469 485.25,27.7813 Q485.8438,27.5 486.4688,26.9219 L486.4688,29.6406 Z "/><text fill="#000000" font-family="sans-serif" font-size="12" lengthAdjust="spacingAndGlyphs" textLength="30" x="497.5" y="28.1543">Back</text><line style="stroke: #A80036; stroke-width: 1.5;" x1="469.5" x2="529.5" y1="40" y2="40"/><line style="stroke: #A80036; stroke-width: 1.5;" x1="469.5" x2="529.5" y1="48" y2="48"/><!--MD5=[28c978d9673ea3f71111303fcdd18331]
class BkParallel--><rect fill="#FEFECE" filter="url(#f1wetc1tvuef3p)" height="48" id="BkParallel" style="stroke: #A80036; stroke-width: 1.5;" width="93" x="394" y="116"/><ellipse cx="409" cy="132" fill="#ADD1B2" rx="11" ry="11" style="stroke: #A80036; stroke-width: 1.0;"/><path d="M411.9688,137.6406 Q411.3906,137.9375 410.75,138.0781 Q410.1094,138.2344 409.4063,138.2344 Q406.9063,138.2344 405.5781,136.5938 Q404.2656,134.9375 404.2656,131.8125 Q404.2656,128.6875 405.5781,127.0313 Q406.9063,125.375 409.4063,125.375 Q410.1094,125.375 410.75,125.5313 Q411.4063,125.6875 411.9688,125.9844 L411.9688,128.7031 Q411.3438,128.125 410.75,127.8594 Q410.1563,127.5781 409.5313,127.5781 Q408.1875,127.5781 407.5,128.6563 Q406.8125,129.7188 406.8125,131.8125 Q406.8125,133.9063 407.5,134.9844 Q408.1875,136.0469 409.5313,136.0469 Q410.1563,136.0469 410.75,135.7813 Q411.3438,135.5 411.9688,134.9219 L411.9688,137.6406 Z "/><text fill="#000000" font-family="sans-serif" font-size="12" lengthAdjust="spacingAndGlyphs" textLength="61" x="423" y="136.1543">BkParallel</text><line style="stroke: #A80036; stroke-width: 1.5;" x1="395" x2="486" y1="148" y2="148"/><line style="stroke: #A80036; stroke-width: 1.5;" x1="395" x2="486" y1="156" y2="156"/><!--MD5=[1117c89426316d69ae095cd49e14c756]
class BkSafe--><rect fill="#FEFECE" filter="url(#f1wetc1tvuef3p)" height="48" id="BkSafe" style="stroke: #A80036; stroke-width: 1.5;" width="75" x="522" y="116"/><ellipse cx="537" cy="132" fill="#ADD1B2" rx="11" ry="11" style="stroke: #A80036; stroke-width: 1.0;"/><path d="M539.9688,137.6406 Q539.3906,137.9375 538.75,138.0781 Q538.1094,138.2344 537.4063,138.2344 Q534.9063,138.2344 533.5781,136.5938 Q532.2656,134.9375 532.2656,131.8125 Q532.2656,128.6875 533.5781,127.0313 Q534.9063,125.375 537.4063,125.375 Q538.1094,125.375 538.75,125.5313 Q539.4063,125.6875 539.9688,125.9844 L539.9688,128.7031 Q539.3438,128.125 538.75,127.8594 Q538.1563,127.5781 537.5313,127.5781 Q536.1875,127.5781 535.5,128.6563 Q534.8125,129.7188 534.8125,131.8125 Q534.8125,133.9063 535.5,134.9844 Q536.1875,136.0469 537.5313,136.0469 Q538.1563,136.0469 538.75,135.7813 Q539.3438,135.5 539.9688,134.9219 L539.9688,137.6406 Z "/><text fill="#000000" font-family="sans-serif" font-size="12" lengthAdjust="spacingAndGlyphs" textLength="43" x="551" y="136.1543">BkSafe</text><line style="stroke: #A80036; stroke-width: 1.5;" x1="523" x2="596" y1="148" y2="148"/><line style="stroke: #A80036; stroke-width: 1.5;" x1="523" x2="596" y1="156" y2="156"/><!--MD5=[f5d9479b99b2018679a9b2fbeed7def5]
class Take--><rect fill="#FEFECE" filter="url(#f1wetc1tvuef3p)" height="48" id="Take" style="stroke: #A80036; stroke-width: 1.5;" width="62" x="760.5" y="8"/><ellipse cx="775.5" cy="24" fill="#ADD1B2" rx="11" ry="11" style="stroke: #A80036; stroke-width: 1.0;"/><path d="M778.4688,29.6406 Q777.8906,29.9375 777.25,30.0781 Q776.6094,30.2344 775.9063,30.2344 Q773.4063,30.2344 772.0781,28.5938 Q770.7656,26.9375 770.7656,23.8125 Q770.7656,20.6875 772.0781,19.0313 Q773.4063,17.375 775.9063,17.375 Q776.6094,17.375 777.25,17.5313 Q777.9063,17.6875 778.4688,17.9844 L778.4688,20.7031 Q777.8438,20.125 777.25,19.8594 Q776.6563,19.5781 776.0313,19.5781 Q774.6875,19.5781 774,20.6563 Q773.3125,21.7188 773.3125,23.8125 Q773.3125,25.9063 774,26.9844 Q774.6875,28.0469 776.0313,28.0469 Q776.6563,28.0469 777.25,27.7813 Q777.8438,27.5 778.4688,26.9219 L778.4688,29.6406 Z "/><text fill="#000000" font-family="sans-serif" font-size="12" lengthAdjust="spacingAndGlyphs" textLength="30" x="789.5" y="28.1543">Take</text><line style="stroke: #A80036; stroke-width: 1.5;" x1="761.5" x2="821.5" y1="40" y2="40"/><line style="stroke: #A80036; stroke-width: 1.5;" x1="761.5" x2="821.5" y1="48" y2="48"/><!--MD5=[be22fbd38765512bea5815d92cb3c33f]
class TkFailure--><rect fill="#FEFECE" filter="url(#f1wetc1tvuef3p)" height="48" id="TkFailure" style="stroke: #A80036; stroke-width: 1.5;" width="88" x="632.5" y="116"/><ellipse cx="647.5" cy="132" fill="#ADD1B2" rx="11" ry="11" style="stroke: #A80036; stroke-width: 1.0;"/><path d="M650.4688,137.6406 Q649.8906,137.9375 649.25,138.0781 Q648.6094,138.2344 647.9063,138.2344 Q645.4063,138.2344 644.0781,136.5938 Q642.7656,134.9375 642.7656,131.8125 Q642.7656,128.6875 644.0781,127.0313 Q645.4063,125.375 647.9063,125.375 Q648.6094,125.375 649.25,125.5313 Q649.9063,125.6875 650.4688,125.9844 L650.4688,128.7031 Q649.8438,128.125 649.25,127.8594 Q648.6563,127.5781 648.0313,127.5781 Q646.6875,127.5781 646,128.6563 Q645.3125,129.7188 645.3125,131.8125 Q645.3125,133.9063 646,134.9844 Q646.6875,136.0469 648.0313,136.0469 Q648.6563,136.0469 649.25,135.7813 Q649.8438,135.5 650.4688,134.9219 L650.4688,137.6406 Z "/><text fill="#000000" font-family="sans-serif" font-size="12" lengthAdjust="spacingAndGlyphs" textLength="56" x="661.5" y="136.1543">TkFailure</text><line style="stroke: #A80036; stroke-width: 1.5;" x1="633.5" x2="719.5" y1="148" y2="148"/><line style="stroke: #A80036; stroke-width: 1.5;" x1="633.5" x2="719.5" y1="156" y2="156"/><!--MD5=[a29493d9a80a445b627cb9b45dd08520]
class TkGzip--><rect fill="#FEFECE" filter="url(#f1wetc1tvuef3p)" height="48" id="TkGzip" style="stroke: #A80036; stroke-width: 1.5;" width="71" x="756" y="116"/><ellipse cx="771" cy="132" fill="#ADD1B2" rx="11" ry="11" style="stroke: #A80036; stroke-width: 1.0;"/><path d="M773.9688,137.6406 Q773.3906,137.9375 772.75,138.0781 Q772.1094,138.2344 771.4063,138.2344 Q768.9063,138.2344 767.5781,136.5938 Q766.2656,134.9375 766.2656,131.8125 Q766.2656,128.6875 767.5781,127.0313 Q768.9063,125.375 771.4063,125.375 Q772.1094,125.375 772.75,125.5313 Q773.4063,125.6875 773.9688,125.9844 L773.9688,128.7031 Q773.3438,128.125 772.75,127.8594 Q772.1563,127.5781 771.5313,127.5781 Q770.1875,127.5781 769.5,128.6563 Q768.8125,129.7188 768.8125,131.8125 Q768.8125,133.9063 769.5,134.9844 Q770.1875,136.0469 771.5313,136.0469 Q772.1563,136.0469 772.75,135.7813 Q773.3438,135.5 773.9688,134.9219 L773.9688,137.6406 Z "/><text fill="#000000" font-family="sans-serif" font-size="12" lengthAdjust="spacingAndGlyphs" textLength="39" x="785" y="136.1543">TkGzip</text><line style="stroke: #A80036; stroke-width: 1.5;" x1="757" x2="826" y1="148" y2="148"/><line style="stroke: #A80036; stroke-width: 1.5;" x1="757" x2="826" y1="156" y2="156"/><!--MD5=[462317a0011e05d062647ab57ff98831]
class TkMeasured--><rect fill="#FEFECE" filter="url(#f1wetc1tvuef3p)" height="48" id="TkMeasured" style="stroke: #A80036; stroke-width: 1.5;" width="108" x="862.5" y="116"/><ellipse cx="877.5" cy="132" fill="#ADD1B2" rx="11" ry="11" style="stroke: #A80036; stroke-width: 1.0;"/><path d="M880.4688,137.6406 Q879.8906,137.9375 879.25,138.0781 Q878.6094,138.2344 877.9063,138.2344 Q875.4063,138.2344 874.0781,136.5938 Q872.7656,134.9375 872.7656,131.8125 Q872.7656,128.6875 874.0781,127.0313 Q875.4063,125.375 877.9063,125.375 Q878.6094,125.375 879.25,125.5313 Q879.9063,125.6875 880.4688,125.9844 L880.4688,128.7031 Q879.8438,128.125 879.25,127.8594 Q878.6563,127.5781 878.0313,127.5781 Q876.6875,127.5781 876,128.6563 Q875.3125,129.7188 875.3125,131.8125 Q875.3125,133.9063 876,134.9844 Q876.6875,136.0469 878.0313,136.0469 Q878.6563,136.0469 879.25,135.7813 Q879.8438,135.5 880.4688,134.9219 L880.4688,137.6406 Z "/><text fill="#000000" font-family="sans-serif" font-size="12" lengthAdjust="spacingAndGlyphs" textLength="76" x="891.5" y="136.1543">TkMeasured</text><line style="stroke: #A80036; stroke-width: 1.5;" x1="863.5" x2="969.5" y1="148" y2="148"/><line style="stroke: #A80036; stroke-width: 1.5;" x1="863.5" x2="969.5" y1="156" y2="156"/><!--MD5=[4bb0a4b47cdd5863ab344ad989cabc0f]
reverse link Request to RqChunk--><path d="M131.92,69.1 C113.76,84.5 93.1,102.03 77,115.68 " fill="none" id="Request&lt;-RqChunk" style="stroke: #A80036; stroke-width: 1.0;"/><polygon fill="none" points="127.6,63.6,147.38,56,136.65,74.27,127.6,63.6" style="stroke: #A80036; stroke-width: 1.0;"/><!--MD5=[1328a9798d9a2058d4fb96511df0ba0e]
reverse link Request to RqGreedy--><path d="M174.5,76.02 C174.5,89.58 174.5,104.04 174.5,115.68 " fill="none" id="Request&lt;-RqGreedy" style="stroke: #A80036; stroke-width: 1.0;"/><polygon fill="none" points="167.5,76,174.5,56,181.5,76,167.5,76" style="stroke: #A80036; stroke-width: 1.0;"/><!--MD5=[be535a3c4176568c168ff05b4dd1f9bd]
reverse link Request to RqMultipart--><path d="M219.21,68.64 C238.68,84.15 260.94,101.89 278.24,115.68 " fill="none" id="Request&lt;-RqMultipart" style="stroke: #A80036; stroke-width: 1.0;"/><polygon fill="none" points="214.64,73.94,203.36,56,223.36,62.99,214.64,73.94" style="stroke: #A80036; stroke-width: 1.0;"/><!--MD5=[6cf4d1908cc817b697ea196dd6a6ab03]
reverse link Back to BkParallel--><path d="M476.89,73.61 C468.97,87.85 460.35,103.35 453.48,115.68 " fill="none" id="Back&lt;-BkParallel" style="stroke: #A80036; stroke-width: 1.0;"/><polygon fill="none" points="470.85,70.07,486.7,56,483.09,76.88,470.85,70.07" style="stroke: #A80036; stroke-width: 1.0;"/><!--MD5=[2af5e458d36999a33127e58c75de5eea]
reverse link Back to BkSafe--><path d="M522.49,73.61 C530.55,87.85 539.32,103.35 546.3,115.68 " fill="none" id="Back&lt;-BkSafe" style="stroke: #A80036; stroke-width: 1.0;"/><polygon fill="none" points="516.28,76.85,512.52,56,528.46,69.96,516.28,76.85" style="stroke: #A80036; stroke-width: 1.0;"/><!--MD5=[42873614f9e10996493db6639a0de03c]
reverse link Take to TkFailure--><path d="M751.82,69.57 C735.24,84.86 716.46,102.17 701.8,115.68 " fill="none" id="Take&lt;-TkFailure" style="stroke: #A80036; stroke-width: 1.0;"/><polygon fill="none" points="747.1,64.41,766.55,56,756.59,74.7,747.1,64.41" style="stroke: #A80036; stroke-width: 1.0;"/><!--MD5=[c69fd2d711eb29ba80609da4b5776970]
reverse link Take to TkGzip--><path d="M791.5,76.02 C791.5,89.58 791.5,104.04 791.5,115.68 " fill="none" id="Take&lt;-TkGzip" style="stroke: #A80036; stroke-width: 1.0;"/><polygon fill="none" points="784.5,76,791.5,56,798.5,76,784.5,76" style="stroke: #A80036; stroke-width: 1.0;"/><!--MD5=[772b0d2d086f309cd19a1cb6469ba59f]
reverse link Take to TkMeasured--><path d="M834.08,69.1 C852.24,84.5 872.9,102.03 889,115.68 " fill="none" id="Take&lt;-TkMeasured" style="stroke: #A80036; stroke-width: 1.0;"/><polygon fill="none" points="829.35,74.27,818.62,56,838.4,63.6,829.35,74.27" style="stroke: #A80036; stroke-width: 1.0;"/><!--MD5=[7322d7bd580fea9398ef28d9b5efd056]
@startuml

Request <|- - RqChunk
Request <|- - RqGreedy
Request <|- - RqMultipart
Back <|- - BkParallel
Back <|- - BkSafe
Take <|- - TkFailure
Take <|- - TkGzip
Take <|- - TkMeasured

@enduml

PlantUML version 1.2020.01(Sun Feb 16 17:40:32 GMT 2020)
(GPL source distribution)
Java Runtime: OpenJDK Runtime Environment
JVM: OpenJDK 64-Bit Server VM
Java Version: 11.0.19+7-post-Ubuntu-0ubuntu122.04.1
Operating System: Linux
Default Encoding: UTF-8
Language: en
Country: US
--></g></svg>