<?xml version="1.0" encoding="UTF-8" standalone="yes"?><svg xmlns="http://www.w3.org/2000/svg" xmlns:xlink="http://www.w3.org/1999/xlink" height="245pt" style="width:102px;height:245px;" version="1.1" viewBox="0 0 102 245" width="102pt"><defs><filter height="300%" id="f1" width="300%" x="-1" y="-1"><feGaussianBlur result="blurOut" stdDeviation="2"/><feColorMatrix in="blurOut" result="blurOut2" type="matrix" values="0 0 0 0 0 0 0 0 0 0 0 0 0 0 0 0 0 0 .4 0"/><feOffset dx="4" dy="4" in="blurOut2" result="blurOut3"/><feBlend in="SourceGraphic" in2="blurOut3" mode="normal"/></filter></defs><g><rect fill="#FEFECE" filter="url(#f1)" height="36.296875" style="stroke: #A80036; stroke-width: 1.5;" width="58.0" x="20.5" y="8.0"/><rect fill="#FEFECE" height="5.0" style="stroke: #A80036; stroke-width: 1.5;" width="10.0" x="15.5" y="13.0"/><rect fill="#FEFECE" height="5.0" style="stroke: #A80036; stroke-width: 1.5;" width="10.0" x="15.5" y="34.296875"/><text fill="#000000" font-size="14" lengthAdjust="spacingAndGlyphs" textLength="38.0" x="30.5" y="32.0">script</text><rect fill="#FEFECE" filter="url(#f1)" height="36.296875" style="stroke: #A80036; stroke-width: 1.5;" width="88.0" x="5.5" y="104.0"/><rect fill="#FEFECE" height="5.0" style="stroke: #A80036; stroke-width: 1.5;" width="10.0" x="0.5" y="109.0"/><rect fill="#FEFECE" height="5.0" style="stroke: #A80036; stroke-width: 1.5;" width="10.0" x="0.5" y="130.296875"/><text fill="#000000" font-size="14" lengthAdjust="spacingAndGlyphs" textLength="68.0" x="15.5" y="128.0">TimedLog</text><rect fill="#FEFECE" filter="url(#f1)" height="36.296875" style="stroke: #A80036; stroke-width: 1.5;" width="45.0" x="26.75" y="200.0"/><rect fill="#FEFECE" height="5.0" style="stroke: #A80036; stroke-width: 1.5;" width="10.0" x="21.75" y="205.0"/><rect fill="#FEFECE" height="5.0" style="stroke: #A80036; stroke-width: 1.5;" width="10.0" x="21.75" y="226.296875"/><text fill="#000000" font-size="14" lengthAdjust="spacingAndGlyphs" textLength="25.0" x="36.75" y="224.0">Log</text><path d="M49,44.241 C49,58.022 49,77.6 49,93.535 " fill="none" style="stroke: #A80036; stroke-width: 1.0;"/><polygon fill="#A80036" points="49.0,103.868,53.5001,93.868,49.0,98.868,49.0001,93.868,49.0001,93.868,49.0001,93.868,49.0,98.868,44.5001,93.868,49.0,103.868,49.0,103.868" style="stroke: #A80036; stroke-width: 1.0;"/><path d="M49,140.241 C49,154.0216 49,173.6003 49,189.5349 " fill="none" style="stroke: #A80036; stroke-width: 1.0;"/><polygon fill="#A80036" points="49.0,199.8683,53.5001,189.8683,49.0,194.8683,49.0001,189.8683,49.0001,189.8683,49.0001,189.8683,49.0,194.8683,44.5001,189.8682,49.0,199.8683,49.0,199.8683" style="stroke: #A80036; stroke-width: 1.0;"/></g></svg>