<?xml version="1.0" encoding="UTF-8" standalone="no"?><svg xmlns="http://www.w3.org/2000/svg" xmlns:xlink="http://www.w3.org/1999/xlink" contentScriptType="application/ecmascript" contentStyleType="text/css" height="289px" preserveAspectRatio="none" style="width:194px;height:289px;" version="1.1" viewBox="0 0 194 289" width="194px" zoomAndPan="magnify"><defs><filter height="300%" id="f9bm64fzmsdgv" width="300%" x="-1" y="-1"><feGaussianBlur result="blurOut" stdDeviation="2.0"/><feColorMatrix in="blurOut" result="blurOut2" type="matrix" values="0 0 0 0 0 0 0 0 0 0 0 0 0 0 0 0 0 0 .4 0"/><feOffset dx="4.0" dy="4.0" in="blurOut2" result="blurOut3"/><feBlend in="SourceGraphic" in2="blurOut3" mode="normal"/></filter></defs><g><!--MD5=[fee662a292a0353a69bd162820bae93b]
entity User--><ellipse cx="166" cy="143" fill="#FEFECE" filter="url(#f9bm64fzmsdgv)" rx="8" ry="8" style="stroke: #A80036; stroke-width: 2.0;"/><text fill="#000000" font-family="sans-serif" font-size="14" lengthAdjust="spacingAndGlyphs" textLength="32" x="150" y="172.9951">User</text><!--MD5=[d94de7339830101782f7d1d85ee30a29]
entity GitHub--><rect fill="#FEFECE" filter="url(#f9bm64fzmsdgv)" height="46.2969" style="stroke: #A80036; stroke-width: 1.5;" width="87" x="68.5" y="8"/><rect fill="#FEFECE" height="10" style="stroke: #A80036; stroke-width: 1.5;" width="15" x="135.5" y="13"/><rect fill="#FEFECE" height="2" style="stroke: #A80036; stroke-width: 1.5;" width="4" x="133.5" y="15"/><rect fill="#FEFECE" height="2" style="stroke: #A80036; stroke-width: 1.5;" width="4" x="133.5" y="19"/><text fill="#000000" font-family="sans-serif" font-size="14" lengthAdjust="spacingAndGlyphs" textLength="47" x="83.5" y="40.9951">GitHub</text><!--MD5=[17737e49c286898813382e12d6080e03]
entity Service--><rect fill="#FEFECE" filter="url(#f9bm64fzmsdgv)" height="46.2969" style="stroke: #A80036; stroke-width: 1.5;" width="90" x="14" y="120"/><rect fill="#FEFECE" height="10" style="stroke: #A80036; stroke-width: 1.5;" width="15" x="84" y="125"/><rect fill="#FEFECE" height="2" style="stroke: #A80036; stroke-width: 1.5;" width="4" x="82" y="127"/><rect fill="#FEFECE" height="2" style="stroke: #A80036; stroke-width: 1.5;" width="4" x="82" y="131"/><text fill="#000000" font-family="sans-serif" font-size="14" lengthAdjust="spacingAndGlyphs" textLength="50" x="29" y="152.9951">Service</text><!--MD5=[fa1e3283224feb76407c84b7e90ed808]
entity Database--><rect fill="#FEFECE" filter="url(#f9bm64fzmsdgv)" height="46.2969" style="stroke: #A80036; stroke-width: 1.5;" width="106" x="6" y="232"/><rect fill="#FEFECE" height="10" style="stroke: #A80036; stroke-width: 1.5;" width="15" x="92" y="237"/><rect fill="#FEFECE" height="2" style="stroke: #A80036; stroke-width: 1.5;" width="4" x="90" y="239"/><rect fill="#FEFECE" height="2" style="stroke: #A80036; stroke-width: 1.5;" width="4" x="90" y="243"/><text fill="#000000" font-family="sans-serif" font-size="14" lengthAdjust="spacingAndGlyphs" textLength="66" x="21" y="264.9951">Database</text><!--MD5=[f426ba80f8e26ec2f490d724d9dcc4fd]
reverse link GitHub to User--><path d="M125.268,59.027 C137.321,83.579 154.349,118.266 162.002,133.856 " fill="none" id="GitHub&lt;-User" style="stroke: #A80036; stroke-width: 1.0;"/><polygon fill="#A80036" points="122.928,54.26,123.3048,64.1016,125.132,58.748,130.4856,60.5752,122.928,54.26" style="stroke: #A80036; stroke-width: 1.0;"/><!--MD5=[bcad0b49751e0c60d142483789409709]
reverse link GitHub to Service--><path d="M99.0504,58.877 C90.0445,77.568 78.182,102.188 69.7094,119.773 " fill="none" id="GitHub&lt;-Service" style="stroke: #A80036; stroke-width: 1.0;"/><polygon fill="#A80036" points="101.2747,54.26,93.765,60.6321,99.1046,58.7645,100.9722,64.1042,101.2747,54.26" style="stroke: #A80036; stroke-width: 1.0;"/><!--MD5=[893b8b98e49bfcbfd73ae705ac5d4176]
reverse link Service to Database--><path d="M59,171.353 C59,189.9849 59,214.3373 59,231.773 " fill="none" id="Service&lt;-Database" style="stroke: #A80036; stroke-width: 1.0;"/><polygon fill="#A80036" points="59,166.26,55,175.26,59,171.26,63,175.26,59,166.26" style="stroke: #A80036; stroke-width: 1.0;"/><!--MD5=[2986f5ca0dc403dd1631377038ece7e4]
@startuml

skinparam componentStyle uml2
User -up-> [GitHub]
[Service] -up-> [GitHub]
[Database] -up-> [Service]

@enduml

PlantUML version 1.2020.01(Sun Feb 16 17:40:32 GMT 2020)
(GPL source distribution)
Java Runtime: Java(TM) SE Runtime Environment
JVM: Java HotSpot(TM) 64-Bit Server VM
Java Version: 1.8.0_201-b09
Operating System: Linux
Default Encoding: UTF-8
Language: en
Country: US
--></g></svg>