<?xml version="1.0" encoding="UTF-8" standalone="yes"?><svg xmlns="http://www.w3.org/2000/svg" xmlns:xlink="http://www.w3.org/1999/xlink" height="245pt" style="width:152px;height:245px;" version="1.1" viewBox="0 0 152 245" width="152pt"><defs><filter height="300%" id="f1" width="300%" x="-1" y="-1"><feGaussianBlur result="blurOut" stdDeviation="2"/><feColorMatrix in="blurOut" result="blurOut2" type="matrix" values="0 0 0 0 0 0 0 0 0 0 0 0 0 0 0 0 0 0 .4 0"/><feOffset dx="4" dy="4" in="blurOut2" result="blurOut3"/><feBlend in="SourceGraphic" in2="blurOut3" mode="normal"/></filter></defs><g><ellipse cx="135.0" cy="114.0" fill="#FEFECE" filter="url(#f1)" rx="8.0" ry="8.0" style="stroke: #A80036; stroke-width: 2.0;"/><text fill="#000000" font-size="14" lengthAdjust="spacingAndGlyphs" textLength="32.0" x="119.0" y="136.0">User</text><rect fill="#FEFECE" filter="url(#f1)" height="36.296875" style="stroke: #A80036; stroke-width: 1.5;" width="67.0" x="59.0" y="8.0"/><rect fill="#FEFECE" height="5.0" style="stroke: #A80036; stroke-width: 1.5;" width="10.0" x="54.0" y="13.0"/><rect fill="#FEFECE" height="5.0" style="stroke: #A80036; stroke-width: 1.5;" width="10.0" x="54.0" y="34.296875"/><text fill="#000000" font-size="14" lengthAdjust="spacingAndGlyphs" textLength="47.0" x="69.0" y="32.0">GitHub</text><rect fill="#FEFECE" filter="url(#f1)" height="36.296875" style="stroke: #A80036; stroke-width: 1.5;" width="70.0" x="14.0" y="104.0"/><rect fill="#FEFECE" height="5.0" style="stroke: #A80036; stroke-width: 1.5;" width="10.0" x="9.0" y="109.0"/><rect fill="#FEFECE" height="5.0" style="stroke: #A80036; stroke-width: 1.5;" width="10.0" x="9.0" y="130.296875"/><text fill="#000000" font-size="14" lengthAdjust="spacingAndGlyphs" textLength="50.0" x="24.0" y="128.0">Service</text><rect fill="#FEFECE" filter="url(#f1)" height="36.296875" style="stroke: #A80036; stroke-width: 1.5;" width="86.0" x="6.0" y="200.0"/><rect fill="#FEFECE" height="5.0" style="stroke: #A80036; stroke-width: 1.5;" width="10.0" x="1.0" y="205.0"/><rect fill="#FEFECE" height="5.0" style="stroke: #A80036; stroke-width: 1.5;" width="10.0" x="1.0" y="226.296875"/><text fill="#000000" font-size="14" lengthAdjust="spacingAndGlyphs" textLength="66.0" x="16.0" y="224.0">Database</text><path d="M104.3092,53.481 C111.913,70.458 121.407,91.653 127.806,105.939 " fill="none" style="stroke: #A80036; stroke-width: 1.0;"/><polygon fill="#A80036" points="100.088,44.05699999999999,100.069,55.022999999999996,102.1319,48.620000000000005,104.1759,53.18299999999999,104.1759,53.18299999999999,104.1759,53.18299999999999,102.1319,48.620000000000005,108.283,51.343999999999994,100.088,44.05699999999999,100.088,44.05699999999999" style="stroke: #A80036; stroke-width: 1.0;"/><path d="M79.6778,53.51 C72.4642,69.615 63.5537,89.508 57.1979,103.698 " fill="none" style="stroke: #A80036; stroke-width: 1.0;"/><polygon fill="#A80036" points="83.912,44.05699999999999,75.7173,51.343999999999994,81.8681,48.620000000000005,79.8241,53.18299999999999,79.8241,53.18299999999999,79.8241,53.18299999999999,81.8681,48.620000000000005,83.931,55.022999999999996,83.912,44.05699999999999,83.912,44.05699999999999" style="stroke: #A80036; stroke-width: 1.0;"/><path d="M49,150.4255 C49,166.3635 49,185.7758 49,199.6977 " fill="none" style="stroke: #A80036; stroke-width: 1.0;"/><polygon fill="#A80036" points="49.0,140.05689999999998,44.5001,150.05689999999998,49.0,145.05689999999998,49.0001,150.05689999999998,49.0001,150.05689999999998,49.0001,150.05689999999998,49.0,145.05689999999998,53.5001,150.0568,49.0,140.05689999999998,49.0,140.05689999999998" style="stroke: #A80036; stroke-width: 1.0;"/></g></svg>