<?xml version="1.0" encoding="UTF-8" standalone="yes"?><svg xmlns="http://www.w3.org/2000/svg" xmlns:xlink="http://www.w3.org/1999/xlink" height="245pt" style="width:152px;height:245px;" version="1.1" viewBox="0 0 152 245" width="152pt"><defs><filter height="300%" id="f1" width="300%" x="-1" y="-1"><feGaussianBlur result="blurOut" stdDeviation="2"/><feColorMatrix in="blurOut" result="blurOut2" type="matrix" values="0 0 0 0 0 0 0 0 0 0 0 0 0 0 0 0 0 0 .4 0"/><feOffset dx="4" dy="4" in="blurOut2" result="blurOut3"/><feBlend in="SourceGraphic" in2="blurOut3" mode="normal"/></filter></defs><g><ellipse cx="135.0" cy="114.0" fill="#FEFECE" filter="url(#f1)" rx="8.0" ry="8.0" style="stroke: #A80036; stroke-width: 2.0;"/><text fill="#000000" font-size="14" lengthAdjust="spacingAndGlyphs" textLength="32.0" x="119.0" y="136.0">User</text><rect fill="#FEFECE" filter="url(#f1)" height="36.296875" style="stroke: #A80036; stroke-width: 1.5;" width="67.0" x="58.75" y="8.0"/><rect fill="#FEFECE" height="5.0" style="stroke: #A80036; stroke-width: 1.5;" width="10.0" x="53.75" y="13.0"/><rect fill="#FEFECE" height="5.0" style="stroke: #A80036; stroke-width: 1.5;" width="10.0" x="53.75" y="34.296875"/><text fill="#000000" font-size="14" lengthAdjust="spacingAndGlyphs" textLength="47.0" x="68.75" y="32.0">GitHub</text><rect fill="#FEFECE" filter="url(#f1)" height="36.296875" style="stroke: #A80036; stroke-width: 1.5;" width="70.0" x="14.0" y="104.0"/><rect fill="#FEFECE" height="5.0" style="stroke: #A80036; stroke-width: 1.5;" width="10.0" x="9.0" y="109.0"/><rect fill="#FEFECE" height="5.0" style="stroke: #A80036; stroke-width: 1.5;" width="10.0" x="9.0" y="130.296875"/><text fill="#000000" font-size="14" lengthAdjust="spacingAndGlyphs" textLength="50.0" x="24.0" y="128.0">Service</text><rect fill="#FEFECE" filter="url(#f1)" height="36.296875" style="stroke: #A80036; stroke-width: 1.5;" width="86.0" x="6.0" y="200.0"/><rect fill="#FEFECE" height="5.0" style="stroke: #A80036; stroke-width: 1.5;" width="10.0" x="1.0" y="205.0"/><rect fill="#FEFECE" height="5.0" style="stroke: #A80036; stroke-width: 1.5;" width="10.0" x="1.0" y="226.296875"/><text fill="#000000" font-size="14" lengthAdjust="spacingAndGlyphs" textLength="66.0" x="16.0" y="224.0">Database</text><path d="M104.1583,53.579 C111.871,70.439 121.575,91.652 128.017,105.734 " fill="none" style="stroke: #A80036; stroke-width: 1.0;"/><polygon fill="#A80036" points="99.8869,44.241000000000014,99.9546,55.206999999999994,101.9668,48.78800000000001,104.0468,53.33500000000001,104.0468,53.33500000000001,104.0468,53.33500000000001,101.9668,48.78800000000001,108.139,51.462999999999994,99.8869,44.241000000000014,99.8869,44.241000000000014" style="stroke: #A80036; stroke-width: 1.0;"/><path d="M79.7974,53.675 C72.4256,69.791 63.2476,89.854 56.8369,103.868 " fill="none" style="stroke: #A80036; stroke-width: 1.0;"/><polygon fill="#A80036" points="84.1131,44.241000000000014,75.861,51.462999999999994,82.0332,48.78800000000001,79.9532,53.33500000000001,79.9532,53.33500000000001,79.9532,53.33500000000001,82.0332,48.78800000000001,84.0454,55.206999999999994,84.1131,44.241000000000014,84.1131,44.241000000000014" style="stroke: #A80036; stroke-width: 1.0;"/><path d="M49,150.5917 C49,166.5455 49,186.1185 49,199.8683 " fill="none" style="stroke: #A80036; stroke-width: 1.0;"/><polygon fill="#A80036" points="49.0,140.24099999999999,44.5001,150.24110000000002,49.0,145.24099999999999,49.0001,150.24099999999999,49.0001,150.24099999999999,49.0001,150.24099999999999,49.0,145.24099999999999,53.5001,150.24099999999999,49.0,140.24099999999999,49.0,140.24099999999999" style="stroke: #A80036; stroke-width: 1.0;"/></g></svg>