<?xml version="1.0" encoding="UTF-8" standalone="yes"?><svg xmlns="http://www.w3.org/2000/svg" xmlns:xlink="http://www.w3.org/1999/xlink" height="53pt" style="width:273px;height:53px;" version="1.1" viewBox="0 0 273 53" width="273pt"><defs><filter height="300%" id="f1" width="300%" x="-1" y="-1"><feGaussianBlur result="blurOut" stdDeviation="2"/><feColorMatrix in="blurOut" result="blurOut2" type="matrix" values="0 0 0 0 0 0 0 0 0 0 0 0 0 0 0 0 0 0 .4 0"/><feOffset dx="4" dy="4" in="blurOut2" result="blurOut3"/><feBlend in="SourceGraphic" in2="blurOut3" mode="normal"/></filter></defs><g><ellipse cx="22.0" cy="18.0" fill="#FEFECE" filter="url(#f1)" rx="8.0" ry="8.0" style="stroke: #A80036; stroke-width: 2.0;"/><text fill="#000000" font-size="14" lengthAdjust="spacingAndGlyphs" textLength="32.0" x="6.0" y="40.0">User</text><rect fill="#FEFECE" filter="url(#f1)" height="36.296875" style="stroke: #A80036; stroke-width: 1.5;" width="70.0" x="73.0" y="8.0"/><rect fill="#FEFECE" height="5.0" style="stroke: #A80036; stroke-width: 1.5;" width="10.0" x="68.0" y="13.0"/><rect fill="#FEFECE" height="5.0" style="stroke: #A80036; stroke-width: 1.5;" width="10.0" x="68.0" y="34.296875"/><text fill="#000000" font-size="14" lengthAdjust="spacingAndGlyphs" textLength="50.0" x="83.0" y="32.0">Service</text><rect fill="#FEFECE" filter="url(#f1)" height="36.296875" style="stroke: #A80036; stroke-width: 1.5;" width="86.0" x="178.0" y="8.0"/><rect fill="#FEFECE" height="5.0" style="stroke: #A80036; stroke-width: 1.5;" width="10.0" x="173.0" y="13.0"/><rect fill="#FEFECE" height="5.0" style="stroke: #A80036; stroke-width: 1.5;" width="10.0" x="173.0" y="34.296875"/><text fill="#000000" font-size="14" lengthAdjust="spacingAndGlyphs" textLength="66.0" x="188.0" y="32.0">Database</text><path d="M38.125,26 C46.3398,26 54.5546,26 62.7693,26 " fill="none" style="stroke: #A80036; stroke-width: 1.0;"/><polygon fill="#A80036" points="72.7896,26.0,62.7896,21.4999,67.78960000000001,26.0,62.7896,25.9999,62.7896,25.9999,62.7896,25.9999,67.78960000000001,26.0,62.7895,30.4999,72.7896,26.0,72.7896,26.0" style="stroke: #A80036; stroke-width: 1.0;"/><path d="M143.312,26 C151.511,26 159.709,26 167.908,26 " fill="none" style="stroke: #A80036; stroke-width: 1.0;"/><polygon fill="#A80036" points="177.908,26.0,167.908,21.4999,172.908,26.0,167.908,25.9999,167.908,25.9999,167.908,25.9999,172.908,26.0,167.908,30.4999,177.908,26.0,177.908,26.0" style="stroke: #A80036; stroke-width: 1.0;"/></g></svg>