<?xml version="1.0" encoding="utf-8"?>
<!-- Generator: Adobe Illustrator 16.0.0, SVG Export Plug-In . SVG Version: 6.00 Build 0)  -->
<!DOCTYPE svg PUBLIC "-//W3C//DTD SVG 1.1//EN" "http://www.w3.org/Graphics/SVG/1.1/DTD/svg11.dtd">
<svg version="1.1" id="Layer_1" xmlns="http://www.w3.org/2000/svg" xmlns:xlink="http://www.w3.org/1999/xlink" x="0px" y="0px"
	 width="364.951px" height="337.399px" viewBox="67.525 96.099 364.951 337.399"
	 enable-background="new 67.525 96.099 364.951 337.399" xml:space="preserve">
<path d="M427.188,126.429c-1.24-5.051-2.47-10.171-4.79-14.841c-2.241-4.108-5.312-7.58-8.85-10.608
	c-3.08-3.421-7.962-3.521-12.052-4.881c-1.93,0.609-3.92,1.061-5.709,2c-2.52,1.069-1.471,4.229-1.909,6.369
	c-3.552,5.37-4.29,11.95-7.62,17.44c-0.08,0.62-0.25,1.88-0.33,2.5c-4.049,6.71-6.21,14.531-11.44,20.51
	c-3.54,3.53-7.68,6.39-11.63,9.44c-3.47,2.089-6.438,5.259-10.58,5.979c1.5-6.129,3.271-12.188,5.24-18.188
	c-0.389-1.971-0.4-4,0.68-5.761c3.401-6.381,4.881-13.78,4.142-20.971c-0.301-3.309-2.562-5.889-4.771-8.16
	c-2.37-0.54-4.63-1.438-6.989-2c-3.579-0.479-7.199-0.13-10.79-0.17c-5,3.79-10.06,8.021-12.409,14.03
	c1.12,1.88,2.37,3.69,3.778,5.38c0.08,3.799,0.66,7.57,0.921,11.36c-0.6,3.88-0.76,7.89-2.189,11.58
	c-2.741,7.67-4.71,15.779-9.271,22.64c-0.889,1.33-1.198,2.92-1.568,4.45c-1.76,2.55-4.101,4.688-5.53,7.46
	c-1.491,3.139-4.83,4.8-6.39,7.91c-10.42-0.4-20.92,0.26-31.25-1.36c-4.691-0.76-8.392-3.991-11.512-7.35
	c-0.479-1.561-1.17-3.04-2.368-4.19c-0.08-1.689-0.141-3.38-0.19-5.069c-1.22,0.181-2.43,0.42-3.62,0.721
	c-1.62,1.88-1.559,4.76-3.438,6.52c-3.951,4.8-9.812,7.46-15.682,9.102c-1.689,1.02-3.35,2.35-5.38,2.52
	c-7.75,0.79-15.76-0.14-23.06-2.85c-4.94,0.269-7.2-4.87-10.2-7.881c-5-4.909-8.61-10.949-12.54-16.699
	c-0.201-0.981-0.401-1.951-0.6-2.931c-2.7-3.25-0.99-7.641-1.802-11.431c-1.09-5.72-4.448-10.86-4.26-16.85
	c-1.8-2.69-3.56-5.41-5.29-8.15c-0.11-1.639-0.13-3.29-0.43-4.91c-1.34-2.47-3.33-4.54-4.47-7.14c-1.861-0.49-3.771-0.76-5.682-0.95
	c-0.7-0.6-1.39-1.2-2.08-1.8c-1.889-0.04-3.769-0.06-5.648-0.07c-2.4,3.102-6.16,4.441-9.08,6.88
	c-3.42,4.881-4.17,11.45-2.09,17.051c1.898,5.12,3.278,10.711,2.17,16.171c-2.46-0.58-5-1.021-7.28-2.15
	c-6.36-3.3-12.82-6.83-17.71-12.17c-2.37-3.7-3.401-8.24-6.68-11.36c-2.892-2.778-3.012-7.329-6.12-9.96
	c-3.57-3.409-8.011-6.899-13.25-6.47c-5.95,0.43-12.54-1.41-17.88,2.021c-3,1.69-3.25,5.511-4.74,8.301
	c-1.08,3.409-3.08,6.449-4.101,9.869c-0.609,3.19-0.52,6.5-1.609,9.601c-1.5,4.72-0.43,9.75-1.28,14.58
	c-1.24,6.49,0.43,13,0.71,19.5c2.03,6.46,5.141,12.96,10.37,17.439c6.76,4.39,14.62,6.659,22.39,8.479
	c4.07-0.09,7.88,1.3,11.69,2.55c0.781,0.771,1.571,1.55,2.35,2.33c-0.02,2.219-0.04,4.429-0.05,6.65c0,0,0.7,1.81-0.74,2.75
	c-3.77,1.909-7.67,3.58-11.42,5.54c-2.58,1.029-1.639,4.149-1.729,6.31c-0.021,4.57,3.279,9.33,8.029,9.82
	c2.949-0.061,5.86-0.65,8.801-0.86c0.389-0.37,1.179-1.12,1.568-1.5c0.561-0.12,1.681-0.35,2.24-0.47
	c2.21-3.12,5.771-4.65,8.75-6.87c1.2-1.05,2.88-1.01,4.36-1.33c-0.061,6.74-0.03,13.49,0.14,20.229
	c0.021,2.989,1.181,5.961,0.41,8.939c0.82,4.611,0.78,9.311,1.229,13.97c-0.529,9.65,0.301,19.32,0.101,29
	c0.17,9.12-0.51,18.32,1.01,27.371c1.169,6.841,0.351,13.94,2.48,20.641c1.269,12.4,3.729,24.76,8.12,36.47
	c4.13,8.71,10.889,16.31,19.408,20.91c5.512,3.47,12.222,4.01,17.92,7.04c2.15,1.16,4.53,1.75,6.9,2.24
	c1.151,0.54,2.26,1.229,3.55,1.409c6.38,0.851,12.32,3.471,18.37,5.5c4.14,1.04,8.26,2.15,12.41,3.141
	c7.25,2.2,14.1,5.83,19.55,11.16c0.151,1.21,0.312,2.42,0.47,3.648c0.75-0.019,1.5-0.028,2.25-0.028
	c4.871-7.55,13.5-10.8,21.021-14.9c9.059-3.609,18.799-4.72,28.149-7.33c5.21-0.639,9.979-3.08,15.229-3.49
	c3.009-1.64,6.28-2.649,9.48-3.84c3.77-2.029,6.85-5.06,10.1-7.8c3.85-2.901,6.21-7.26,8.85-11.18
	c3.972-12.561,4.392-25.86,6.881-38.73c0.93-4.319,0.789-8.76,1.359-13.13c1.86-15.64,3.67-31.281,4.42-47.021
	c1.419-13.469-0.38-27.13,1.98-40.528c1.08-5.29,0.72-10.731,1.51-16.051c2.94,1.659,3.68,5.22,6.021,7.479
	c2.49,2.45,5.061,4.94,6.311,8.3c4.339,1.401,8.929,0.931,13.399,0.641c2.21-1.72,4.681-3.199,6.471-5.399
	c1.779-2.48,2.92-5.33,4.489-7.94c0.04-2.06,0.04-4.119-0.011-6.17c-4.339-8.59-9.699-17.399-18.608-21.84
	c-2.071-1.38-6.071-2.27-5.012-5.59c1.102-4.53,6.602-5.229,10.302-6.65c4.399-1.989,9.569-0.55,13.81-3.039
	c8.95-5.06,16.25-12.439,24.21-18.83c2.75-4.971,6.321-9.521,10.1-13.771c0.441-2.151,0.972-4.311,2.17-6.18
	c0.531-3.921,0.131-7.851-1.149-11.58C430.787,134.469,429.238,130.329,427.188,126.429z"/>
</svg>
