<?xml version="1.0" encoding="utf-8"?>
<!-- Generator: Adobe Illustrator 16.0.0, SVG Export Plug-In . SVG Version: 6.00 Build 0)  -->
<!DOCTYPE svg PUBLIC "-//W3C//DTD SVG 1.1//EN" "http://www.w3.org/Graphics/SVG/1.1/DTD/svg11.dtd">
<svg version="1.1" id="Layer_1" xmlns="http://www.w3.org/2000/svg" xmlns:xlink="http://www.w3.org/1999/xlink" x="0px" y="0px"
	 width="512px" height="512px" viewBox="164.945 41.64 512 512" enable-background="new 164.945 41.64 512 512"
	 xml:space="preserve">
<path d="M190.608,341.466c17.099,24.966,40.698,45.998,70.793,63.099c-2.736,7.866-5.301,15.048-7.695,21.547
	c-2.394,6.497-4.959,12.141-7.695,16.928c-2.736,4.788-5.814,9.576-9.234,14.364s-6.327,8.55-8.721,11.286
	c-2.394,2.735-5.814,6.499-10.26,11.286c-4.446,4.788-7.353,8.037-8.721,9.747c0,0-0.684,0.854-2.052,2.564
	c-1.368,1.711-2.052,2.565-2.052,2.565l-2.052,2.564c-1.026,1.711-1.369,2.566-1.026,2.566c0.341,0,0.171,0.854-0.513,2.564
	c-0.684,1.71-0.684,2.906,0,3.592v0.512c1.026,3.42,2.736,6.156,5.13,8.209c2.394,2.051,5.301,2.906,8.721,2.564
	c12.312-1.711,23.085-3.762,32.319-6.156c50.274-12.996,94.22-36.08,131.841-69.254c14.364,1.367,28.214,2.051,41.553,2.051
	c46.512,0,89.434-8.207,128.763-24.624c39.329-16.415,70.452-38.646,93.366-66.689c22.914-28.045,34.371-58.653,34.371-91.827
	c0-33.174-11.457-63.784-34.371-91.827c-22.914-28.044-54.037-50.274-93.366-66.69s-82.251-24.624-128.763-24.624
	c-34.201,0-67.374,4.788-99.522,14.364c-32.148,9.575-59.508,22.571-82.08,38.988c-22.572,16.416-40.698,35.91-54.378,58.482
	s-20.52,46.341-20.52,71.307C164.786,289.653,173.508,316.5,190.608,341.466z"/>
</svg>
