<?xml version="1.0" encoding="utf-8"?>
<!-- Generator: Adobe Illustrator 16.0.0, SVG Export Plug-In . SVG Version: 6.00 Build 0)  -->
<!DOCTYPE svg PUBLIC "-//W3C//DTD SVG 1.1//EN" "http://www.w3.org/Graphics/SVG/1.1/DTD/svg11.dtd">
<svg version="1.1" id="Layer_1" xmlns="http://www.w3.org/2000/svg" xmlns:xlink="http://www.w3.org/1999/xlink" x="0px" y="0px"
	 width="512px" height="512px" viewBox="164.945 41.64 512 512" enable-background="new 164.945 41.64 512 512"
	 xml:space="preserve">
<path d="M648.865,70.018c-18.72-19.118-41.422-28.677-68.107-28.677H261.131c-26.685,0.398-49.387,9.958-68.107,28.677
	c-18.719,18.72-28.079,41.223-28.079,67.51v320.224c0,25.889,9.36,48.392,28.079,67.51c18.72,19.118,41.423,28.677,68.107,28.677
	h319.627c26.686-0.398,49.388-9.957,68.107-28.677s28.079-41.223,28.079-67.51V137.529
	C676.945,111.64,667.585,89.136,648.865,70.018z M655.437,457.753c0.398,20.312-6.771,37.838-21.508,52.574
	c-14.736,14.736-32.46,22.104-53.171,22.104H420.646V297.64H186.452V137.529c-0.398-20.313,6.771-37.837,21.507-52.574
	c14.737-14.736,32.461-22.105,53.171-22.105h159.515V297.64h234.791V457.753z"/>
</svg>
