<?xml version="1.0" encoding="utf-8"?>
<!DOCTYPE svg PUBLIC "-//W3C//DTD SVG 1.1//EN" "http://www.w3.org/Graphics/SVG/1.1/DTD/svg11.dtd">
<svg version="1.1" id="Layer_1" xmlns="http://www.w3.org/2000/svg" xmlns:xlink="http://www.w3.org/1999/xlink" x="0px" y="0px"
	 width="512px" height="512px" viewBox="164.945 41.64 512 512" enable-background="new 164.945 41.64 512 512"
	 xml:space="preserve">
<path d="M166.945,389.196V216.307h81.333v-71.111h50.667v244H166.945z M217.611,348.307h30.667v-91.556h-30.667V348.307z
	 M319.389,389.196h50.667V216.307h-50.667V389.196z M319.389,195.863h50.667v-50.667h-50.667V195.863z M390.5,450.085V409.64h81.333
	v-20.444H390.5V216.307h132v233.778H390.5z M441.167,348.307h30.666v-91.556h-30.666V348.307z M542.945,450.085V409.64h80.889
	v-20.444h-80.889V216.307h132v233.778H542.945z M593.612,348.307h30.222v-91.556h-30.222V348.307z"/>
</svg>
