<?xml version="1.0" encoding="utf-8"?>
<!-- Generator: Adobe Illustrator 16.0.0, SVG Export Plug-In . SVG Version: 6.00 Build 0)  -->
<!DOCTYPE svg PUBLIC "-//W3C//DTD SVG 1.1//EN" "http://www.w3.org/Graphics/SVG/1.1/DTD/svg11.dtd">
<svg version="1.1" id="Layer_1" xmlns="http://www.w3.org/2000/svg" xmlns:xlink="http://www.w3.org/1999/xlink" x="0px" y="0px"
	 width="512px" height="512px" viewBox="164.945 41.64 512 512" enable-background="new 164.945 41.64 512 512"
	 xml:space="preserve">
<path d="M189.009,492.968c16.042,16.043,35.499,24.064,58.368,24.064h237.568c22.869,0,42.325-8.021,58.368-24.064
	c16.042-16.043,24.063-35.499,24.063-58.368v-91.136c0-2.73-0.853-4.949-2.56-6.655c-1.707-1.708-3.926-2.561-6.656-2.561h-18.432
	c-2.731,0-4.95,0.853-6.656,2.561c-1.707,1.706-2.56,3.925-2.56,6.655v91.136c0,12.289-4.438,23.04-13.312,32.257
	c-8.875,9.216-19.627,13.824-32.256,13.824H247.377c-12.288-0.343-23.04-4.95-32.256-13.824
	c-9.216-8.875-13.825-19.627-13.825-32.257V197.031c0.341-12.629,4.949-23.381,13.825-32.255
	c8.874-8.875,19.626-13.312,32.256-13.312h201.215c2.39,0,4.438-0.853,6.145-2.56c1.706-1.707,2.561-3.926,2.561-6.656v-18.432
	c0-2.731-0.854-4.95-2.561-6.656c-1.707-1.707-3.755-2.56-6.145-2.56H247.377c-22.87,0.341-42.326,8.533-58.368,24.576
	c-16.043,16.042-24.064,35.328-24.064,57.855v237.568C164.945,457.469,172.966,476.925,189.009,492.968z M363.6,359.336
	l32.256,32.256c1.706,2.048,3.925,3.072,6.656,3.072c2.73,0,4.949-1.024,6.656-3.072l186.368-186.368l50.176,50.688
	c3.754,3.072,8.021,4.778,12.801,5.12c4.778,0.341,9.045-1.365,12.8-5.12c3.755-3.755,5.632-8.192,5.632-13.312V96.68
	c-0.342-4.779-2.22-9.045-5.632-12.8c-3.414-3.755-7.681-5.632-12.8-5.632H512.592c-5.461,0-9.899,1.877-13.312,5.632
	c-3.414,3.754-5.12,8.021-5.12,12.8c0,4.778,1.706,9.045,5.12,12.8l50.688,50.176L363.6,346.024
	c-2.048,1.706-3.072,3.925-3.072,6.656C360.529,355.068,361.552,357.288,363.6,359.336z"/>
</svg>
