<?xml version="1.0" encoding="utf-8"?>
<!-- Generator: Adobe Illustrator 16.0.0, SVG Export Plug-In . SVG Version: 6.00 Build 0)  -->
<!DOCTYPE svg PUBLIC "-//W3C//DTD SVG 1.1//EN" "http://www.w3.org/Graphics/SVG/1.1/DTD/svg11.dtd">
<svg version="1.1" id="Layer_1" xmlns="http://www.w3.org/2000/svg" xmlns:xlink="http://www.w3.org/1999/xlink" x="0px" y="0px"
	 width="512px" height="512px" viewBox="164.945 41.64 512 512" enable-background="new 164.945 41.64 512 512"
	 xml:space="preserve">
<path d="M167.551,55.306v484.457c0,5.502,1.375,9.038,4.126,10.609c2.75,1.571,6.286,0,10.608-4.716l233.388-233.388
	c1.964-1.571,3.536-3.732,4.715-6.483v233.978c0,5.502,1.375,9.038,4.126,10.609c2.75,1.571,6.286,0,10.608-4.716L668.51,312.269
	c3.929-4.322,5.895-9.233,5.895-14.734c0-5.5-1.966-10.412-5.895-14.734L435.122,49.413c-4.322-4.322-7.858-5.894-10.608-4.715
	c-2.751,1.179-4.126,4.715-4.126,10.608v233.388c-1.179-1.964-2.75-3.929-4.715-5.894L182.285,49.413
	c-3.929-4.322-7.465-5.894-10.608-4.715C168.532,45.877,167.157,49.413,167.551,55.306z"/>
</svg>
