<?xml version="1.0" encoding="utf-8"?>
<!-- Generator: Adobe Illustrator 16.0.0, SVG Export Plug-In . SVG Version: 6.00 Build 0)  -->
<!DOCTYPE svg PUBLIC "-//W3C//DTD SVG 1.1//EN" "http://www.w3.org/Graphics/SVG/1.1/DTD/svg11.dtd">
<svg version="1.1" id="Layer_1" xmlns="http://www.w3.org/2000/svg" xmlns:xlink="http://www.w3.org/1999/xlink" x="0px" y="0px"
	 width="512px" height="512px" viewBox="164.945 41.64 512 512" enable-background="new 164.945 41.64 512 512"
	 xml:space="preserve">
<path d="M676.155,303.923c0-46.448-11.513-89.125-34.538-128.031c-23.026-38.905-53.793-69.871-92.302-92.896
	c-38.508-23.026-81.383-34.538-128.625-34.538c-47.241,0-89.918,11.512-128.03,34.538c-38.111,23.025-69.077,53.991-92.896,92.896
	c-23.819,38.905-35.133,81.583-33.942,128.03c0,55.579,16.277,105.601,48.83,150.063c32.554,44.463,74.437,75.229,125.648,92.302
	c5.955,1.19,10.322,0.396,13.101-2.383c2.779-2.779,4.169-6.154,4.169-10.123v-70.268c0-21.438,5.756-37.119,17.269-47.044
	c-12.704-1.19-24.018-3.176-33.943-5.954c-9.924-2.779-20.445-7.146-31.561-13.102c-11.115-5.954-20.047-13.299-26.796-22.033
	s-12.704-20.246-17.865-34.538s-7.344-30.965-6.55-50.021c0-26.996,8.734-49.822,26.201-68.481
	c-8.337-20.246-7.344-42.875,2.978-67.886c5.955-1.985,14.888-0.794,26.797,3.573c11.91,4.366,22.033,9.329,30.37,14.887
	l12.505,7.741c20.644-5.955,41.883-8.932,63.717-8.932c21.834,0,43.273,2.977,64.313,8.932c3.176-2.382,7.741-5.359,13.695-8.932
	c5.956-3.573,15.285-7.941,27.989-13.101c12.704-5.161,22.231-6.55,28.582-4.168c9.528,25.011,10.323,47.64,2.384,67.886
	c17.468,18.659,26.2,41.485,26.2,68.481c0,18.66-2.382,35.134-7.146,49.426c-4.764,14.291-10.52,26.002-17.27,35.133
	c-6.748,9.132-15.681,16.476-26.797,22.033c-11.114,5.559-21.437,9.925-30.965,13.102c-9.527,3.176-20.843,5.16-33.943,5.954
	c8.734,7.94,14.094,19.452,16.078,34.538c4.764,1.986,9.727,3.574,14.887,4.765c5.162,1.191,11.514,1.786,19.057,1.786
	s14.689-2.382,21.438-7.146c6.749-4.764,12.902-11.711,18.461-20.843c4.366-7.146,9.726-12.901,16.077-17.269
	c6.353-4.367,11.91-7.146,16.674-8.337l6.55-0.596c4.765,0,7.941,0.396,9.528,1.191c1.589,0.795,2.185,2.184,1.787,4.168
	c-0.396,1.985-1.39,3.573-2.978,4.764c-1.588,1.192-2.978,2.383-4.169,3.574l-2.382,1.786c-4.764,2.383-9.528,6.55-14.292,12.506
	c-4.764,5.954-8.336,11.71-10.719,17.269l-2.977,7.74c-3.177,8.338-8.138,15.086-14.888,20.248
	c-6.749,5.16-14.093,8.535-22.033,10.123c-7.939,1.588-15.681,2.382-23.225,2.382c-7.542,0-13.695-0.397-18.459-1.19l-7.741-1.787
	c0,8.733,0,18.658,0,29.774s-0.199,17.07-0.597,17.864c0,3.971,1.589,7.345,4.764,10.123c3.178,2.78,7.544,3.574,13.102,2.383
	c51.212-17.071,93.096-47.838,125.648-92.301C659.878,409.522,676.155,359.502,676.155,303.923z"/>
</svg>
