<?xml version="1.0" encoding="utf-8"?>
<!DOCTYPE svg PUBLIC "-//W3C//DTD SVG 1.1//EN" "http://www.w3.org/Graphics/SVG/1.1/DTD/svg11.dtd">
<svg version="1.1" id="Layer_1" xmlns="http://www.w3.org/2000/svg" xmlns:xlink="http://www.w3.org/1999/xlink" x="0px" y="0px"
	 width="512px" height="512px" viewBox="164.945 41.64 512 512" enable-background="new 164.945 41.64 512 512"
	 xml:space="preserve">
<path d="M179.445,457.091c0-16.774,4.558-32.09,13.675-45.948c9.117-13.856,21.15-25.526,36.102-35.008
	c26.62-16.774,67.645-26.985,123.075-30.632c-6.564-8.752-11.305-16.228-14.222-22.427c-2.918-6.199-4.559-13.675-4.923-22.427
	c0-7.293,2.188-16.045,6.564-26.256c-9.481,1.094-16.41,1.641-20.786,1.641c-30.268,0-55.612-9.846-76.033-29.538
	s-30.814-44.671-31.179-74.938c0-16.41,3.646-32.455,10.94-48.136c7.293-15.68,17.321-28.991,30.085-39.931
	c15.68-13.493,34.278-23.521,55.794-30.085c21.515-6.564,43.76-9.846,66.734-9.846h127.451l-42.119,26.803h-39.931
	c14.951,12.764,26.256,26.256,33.914,40.478c7.658,14.222,11.486,30.632,11.486,49.23c0,14.587-2.37,27.715-7.11,39.384
	c-4.741,11.67-10.758,21.151-18.051,28.444c-7.294,7.293-14.405,13.857-21.333,19.692c-6.929,5.834-12.946,12.034-18.051,18.598
	c-5.105,6.564-7.658,13.311-7.658,20.239c0,7.293,3.282,14.586,9.846,21.879c6.564,7.294,14.404,14.04,23.521,20.239
	c9.117,6.2,18.416,13.675,27.897,22.427s17.321,19.51,23.521,32.273s9.481,27.168,9.847,43.213c0,18.233-4.924,35.737-14.77,52.512
	c-14.587,24.798-36.102,43.031-64.545,54.7c-28.444,11.669-58.712,17.687-90.802,18.051c-26.985,0-52.147-4.376-75.486-13.128
	s-40.66-22.609-51.965-41.572C183.274,484.623,179.445,471.312,179.445,457.091z M236.332,442.869
	c0,14.222,3.464,26.803,10.393,37.742c6.928,10.94,16.228,19.328,27.897,25.162c11.669,5.835,23.885,10.394,36.649,13.675
	c12.763,3.282,25.709,4.741,38.837,4.376c11.669,0,22.974-1.275,33.914-3.828s20.968-6.564,30.085-12.034
	s16.592-12.945,22.427-22.427c5.834-9.481,8.569-20.604,8.205-33.367c0-5.105-0.73-10.028-2.188-14.77
	c-1.459-4.74-2.918-9.116-4.376-13.128c-1.459-4.011-4.193-8.205-8.205-12.581s-6.929-7.84-8.752-10.393
	c-1.824-2.553-5.835-6.199-12.034-10.939c-6.2-4.741-9.846-7.658-10.94-8.753c-1.094-1.094-5.288-4.011-12.581-8.752
	c-7.294-4.74-11.123-7.475-11.487-8.204c-2.917-0.365-7.658-0.548-14.222-0.548c-10.94,0-21.698,0.73-32.273,2.188
	c-10.576,1.459-21.516,4.012-32.82,7.658c-11.305,3.646-21.151,8.205-29.538,13.675c-8.388,5.47-15.316,13.128-20.786,22.974
	C239.068,420.441,236.332,431.199,236.332,442.869z M268.605,139.284c0,9.481,0.912,19.51,2.735,30.084
	c1.823,10.576,5.105,20.969,9.846,31.179c4.74,10.211,10.028,19.692,15.863,28.444c5.834,8.752,13.492,15.499,22.974,20.239
	s19.327,7.476,29.538,8.205c7.658,0,15.498-1.641,23.521-4.923c8.022-3.282,14.769-7.84,20.239-13.675
	c10.94-11.669,16.41-27.897,16.41-48.683c0-11.669-1.824-24.25-5.47-37.743s-8.57-26.803-14.769-39.931
	c-6.2-13.128-14.769-23.521-25.708-31.179c-10.94-7.658-22.792-11.852-35.555-12.581c-8.752,0-17.14,2.006-25.162,6.017
	s-14.769,9.299-20.239,15.863C273.346,102.635,268.605,118.863,268.605,139.284z M500.532,289.162v-32.82h64.546v-66.187h32.273
	v66.187h65.093v32.82h-65.093v66.734h-32.273v-66.734H500.532z"/>
</svg>
