<?xml version="1.0" encoding="UTF-8" standalone="no"?>
<svg
   xmlns:svg="http://www.w3.org/2000/svg"
   xmlns="http://www.w3.org/2000/svg"
   width="195.62978"
   height="195.7"
   viewBox="0 0 156.50382 156.56"
   version="1.1"
   id="svg3003">
  <path
     d="m 0.02,0 c 52.14,0.06 104.29,0.04 156.43,0.01 0.08,52.18 0.06,104.36 0.01,156.54 C 104.31,156.53 52.16,156.5 0.01,156.56 0,104.37 -0.01,52.19 0.02,0 z"
     style="fill:black;fill-opacity:1"/>
  <path
     d="m 11.14,11.17 c 44.73,0 89.46,-0.03 134.19,0.01 -0.04,44.72 -0.01,89.44 -0.02,134.16 -44.72,0.01 -89.44,-0.03 -134.16,0.02 C 11.11,100.63 11.14,55.9 11.14,11.17 z"
     style="fill:white;fill-opacity:1"/>
  <path
     d="m 30.23,33.61 c 3.7,0.01 7.41,0.01 11.11,-0.01 0.03,13.05 0,26.09 0.02,39.13 6.23,0.03 12.46,0 18.68,0.02 0.06,-13.06 -0.02,-26.12 0.04,-39.18 3.7,0.05 7.4,0.06 11.1,0.02 0,29.81 0.06,59.63 -0.03,89.44 -3.7,-0.04 -7.4,-0.04 -11.09,-0.02 0.01,-13.05 0,-26.1 0.01,-39.16 -6.24,0.05 -12.49,-0.02 -18.73,0.05 0.03,13.03 -0.01,26.06 0.03,39.09 -3.72,0.01 -7.44,0.01 -11.15,0 C 30.23,93.2 30.21,63.4 30.23,33.61 z"
     style="fill:black;fill-opacity:1"/>
  <path
     d="m 86.17,33.6 c 3.73,0.01 7.47,0.01 11.2,0.04 6.11,18.37 12.49,36.65 18.45,55.07 0.44,-18.37 0.03,-36.77 0.21,-55.15 3.69,0.07 7.39,0.08 11.09,0.02 0.02,29.81 0.02,59.62 0,89.43 -3.82,0 -7.64,-0.01 -11.45,-0.04 C 109.61,104.68 103.55,86.38 97.35,68.14 97.29,86.42 97.32,104.71 97.33,122.99 93.6,123 89.88,123 86.16,123 86.17,93.2 86.14,63.4 86.17,33.6 z"
     style="fill:black;fill-opacity:1"/>
</svg>
