<?xml version="1.0" encoding="UTF-8" standalone="no"?>
<svg width="218px" height="218px" viewBox="0 0 218 218" version="1.1" xmlns="http://www.w3.org/2000/svg" xmlns:xlink="http://www.w3.org/1999/xlink">
    <!-- Generator: Sketch 3.8.3 (29802) - http://www.bohemiancoding.com/sketch -->
    <title>Group</title>
    <desc>Created with Sketch.</desc>
    <defs></defs>
    <g id="Page-1" stroke="none" stroke-width="1" fill="none" fill-rule="evenodd">
        <g id="Group">
            <path d="M62.821,88.842 C70.866,71.404 88.462,59.271 108.839,59.271 C129.218,59.271 146.814,71.404 154.86,88.842 L194.89,88.842 L194.89,40.055 C194.89,30.554 187.186,22.823 177.714,22.823 L83.784,22.823 L83.784,47.861 C83.784,51.14 81.135,53.798 77.866,53.798 C74.598,53.798 71.949,51.14 71.949,47.861 L71.949,22.823 L67.683,22.823 L67.683,47.861 C67.683,51.14 65.033,53.798 61.766,53.798 C58.498,53.798 55.849,51.14 55.849,47.861 L55.849,22.823 L50.787,22.823 L50.787,47.861 C50.787,51.14 48.138,53.798 44.87,53.798 C41.602,53.798 38.953,51.14 38.953,47.861 L38.953,22.895 C30.14,23.617 23.184,31.031 23.184,40.056 L23.184,88.843 L62.821,88.843 L62.821,88.842 Z M148.163,46.585 C148.163,42.518 151.45,39.22 155.503,39.22 L170.919,39.22 C174.973,39.22 178.259,42.517 178.259,46.585 L178.259,62.051 C178.259,66.118 174.973,69.415 170.919,69.415 L155.503,69.415 C151.45,69.415 148.163,66.118 148.163,62.051 L148.163,46.585 L148.163,46.585 Z" id="Shape"></path>
            <path d="M82.805,110.131 C82.805,124.534 94.484,136.252 108.839,136.252 C123.196,136.252 134.876,124.534 134.876,110.131 C134.876,95.727 123.196,84.009 108.839,84.009 C94.484,84.009 82.805,95.727 82.805,110.131 L82.805,110.131 Z" id="Shape"></path>
            <path d="M159.399,106.653 C159.477,107.803 159.532,108.961 159.532,110.131 C159.532,138.175 136.792,160.991 108.839,160.991 C80.889,160.991 58.149,138.175 58.149,110.131 C58.149,108.961 58.203,107.804 58.281,106.653 L23.183,106.653 L23.183,177.871 C23.183,187.372 30.888,195.103 40.358,195.103 L177.713,195.103 C187.185,195.103 194.889,187.372 194.889,177.871 L194.889,106.653 L159.399,106.653 L159.399,106.653 Z" id="Shape"></path>
            <path d="M177.714,0.064 L40.358,0.064 C18.38,0.064 0.5,18.004 0.5,40.055 L0.5,177.871 C0.5,199.922 18.38,217.862 40.358,217.862 L177.713,217.862 C199.692,217.862 217.573,199.922 217.573,177.871 L217.573,40.055 C217.574,18.004 199.693,0.064 177.714,0.064 L177.714,0.064 Z M38.952,22.895 L38.952,47.861 C38.952,51.14 41.601,53.798 44.869,53.798 C48.137,53.798 50.786,51.14 50.786,47.861 L50.786,22.823 L55.848,22.823 L55.848,47.861 C55.848,51.14 58.497,53.798 61.765,53.798 C65.033,53.798 67.682,51.14 67.682,47.861 L67.682,22.823 L71.948,22.823 L71.948,47.861 C71.948,51.14 74.598,53.798 77.865,53.798 C81.134,53.798 83.783,51.14 83.783,47.861 L83.783,22.823 L177.713,22.823 C187.185,22.823 194.889,30.553 194.889,40.055 L194.889,88.842 L154.859,88.842 C146.813,71.404 129.217,59.271 108.838,59.271 C88.461,59.271 70.865,71.404 62.82,88.842 L23.183,88.842 L23.183,40.055 C23.183,31.03 30.139,23.617 38.952,22.895 L38.952,22.895 Z M134.876,110.131 C134.876,124.534 123.196,136.252 108.839,136.252 C94.484,136.252 82.805,124.534 82.805,110.131 C82.805,95.727 94.484,84.009 108.839,84.009 C123.196,84.009 134.876,95.727 134.876,110.131 L134.876,110.131 Z M177.714,195.104 L40.358,195.104 C30.887,195.104 23.183,187.373 23.183,177.872 L23.183,106.654 L58.281,106.654 C58.203,107.804 58.149,108.962 58.149,110.132 C58.149,138.176 80.889,160.992 108.839,160.992 C136.792,160.992 159.532,138.176 159.532,110.132 C159.532,108.962 159.477,107.805 159.399,106.654 L194.889,106.654 L194.889,177.872 C194.89,187.372 187.186,195.104 177.714,195.104 L177.714,195.104 Z" id="Shape" fill="#000000"></path>
            <path d="M155.503,69.415 L170.919,69.415 C174.973,69.415 178.259,66.118 178.259,62.051 L178.259,46.585 C178.259,42.518 174.973,39.22 170.919,39.22 L155.503,39.22 C151.45,39.22 148.163,42.517 148.163,46.585 L148.163,62.051 C148.163,66.118 151.45,69.415 155.503,69.415 L155.503,69.415 Z" id="Shape" fill="#000000"></path>
        </g>
    </g>
</svg>