<?xml version="1.0" encoding="UTF-8" standalone="no"?>
<svg width="420px" height="420px" viewBox="0 0 420 420" version="1.1" xmlns="http://www.w3.org/2000/svg" xmlns:xlink="http://www.w3.org/1999/xlink">
    <!-- Generator: Sketch 3.8.3 (29802) - http://www.bohemiancoding.com/sketch -->
    <title>Group</title>
    <desc>Created with Sketch.</desc>
    <defs></defs>
    <g id="Page-1" stroke="none" stroke-width="1" fill="none" fill-rule="evenodd">
        <g id="Group" transform="translate(0.000000, -1.000000)" fill="#000000">
            <path d="M342.818,101.279 C342.820022,111.108342 336.900259,119.970855 327.819517,123.733315 C318.738776,127.495776 308.2857,125.417089 301.335306,118.466694 C294.384911,111.5163 292.306224,101.063224 296.068685,91.9824827 C299.831145,82.9017413 308.693658,76.9819777 318.523,76.984 C331.939614,76.9867603 342.81524,87.8623855 342.818,101.279 L342.818,101.279 Z M420,210.999 L419.995,211.305 L418.615,299.41 C417.869194,365.483238 364.488238,418.864194 298.415,419.61 L210,420.999 L209.694,420.993 L121.589,419.617 C55.5147541,418.871256 2.13204241,365.491209 1.383,299.417 L0,210.999 L0.006,210.693 L1.382,122.585 C2.13315758,56.5116817 55.5146442,3.13285949 121.588,2.385 L210,0.999 L210.306,1.005 L298.411,2.381 C364.483348,3.12892179 417.863078,56.5086521 418.611,122.581 L420,210.999 Z M380.888,210.999 L379.514,123.199 C379.006548,78.2813131 342.717681,41.9920021 297.8,41.484 L210,40.113 L122.2,41.484 C77.2824285,41.993039 40.9935886,78.2814347 40.484,123.199 L39.113,210.999 L40.484,298.799 C40.9920022,343.717233 77.2817609,380.006547 122.2,380.514 L210,381.885 L297.8,380.514 C342.718348,380.007585 379.008134,343.717355 379.514,298.799 L380.888,210.999 Z M317.84,210.999 C317.84,254.616704 291.565276,293.939509 251.267733,310.631188 C210.97019,327.322868 164.585775,318.096266 133.743544,287.253749 C102.901313,256.411232 93.6751414,210.026731 110.367194,169.729343 C127.059247,129.431955 166.382296,103.157596 210,103.158 C269.530906,103.225234 317.773318,151.468093 317.84,210.999 L317.84,210.999 Z M278.733,210.999 C278.733,183.198601 261.98639,158.135627 236.302132,147.496969 C210.617874,136.85831 181.054077,142.739082 161.396369,162.397076 C141.738661,182.05507 135.858319,211.618952 146.497351,237.303056 C157.136384,262.987159 182.199601,279.733404 210,279.733 C247.94214,279.688913 278.689017,248.941141 278.732,210.999 L278.733,210.999 Z" id="Shape"></path>
        </g>
    </g>
</svg>