<?xml version="1.0" encoding="utf-8"?>
<!DOCTYPE svg PUBLIC "-//W3C//DTD SVG 1.1//EN" "http://www.w3.org/Graphics/SVG/1.1/DTD/svg11.dtd">
<svg version="1.1" id="Layer_1" xmlns="http://www.w3.org/2000/svg" xmlns:xlink="http://www.w3.org/1999/xlink" x="0px" y="0px"
	 width="512px" height="512px" viewBox="164.945 41.64 512 512" enable-background="new 164.945 41.64 512 512"
	 xml:space="preserve">
<path d="M164.945,109.748c0-16.33,5.775-29.872,17.326-40.625c11.55-10.754,26.486-16.131,44.807-16.131s33.058,5.377,44.21,16.131
	c11.151,10.754,16.927,24.296,17.325,40.625c0,16.33-5.775,29.872-17.325,40.625c-11.551,10.753-26.487,16.13-44.808,16.13h-0.598
	c-18.321,0-33.058-5.377-44.21-16.13C170.52,139.619,164.945,126.078,164.945,109.748z M171.516,542.289v-330.38h109.928v330.38
	H171.516z M341.785,542.289c0.398-88.817,0.597-160.709,0.597-215.673s0-87.823,0-98.577l-0.597-16.13h109.927v47.794h-0.598
	c4.382-7.169,8.962-13.342,13.741-18.521c4.779-5.177,10.953-10.953,18.521-17.326c7.567-6.372,17.326-11.151,29.274-14.338
	s24.693-4.979,38.235-5.377c37.838,0,68.307,12.546,91.407,37.638s34.651,62.133,34.651,111.123v189.386h-109.33v-176.84
	c0-23.499-4.581-41.82-13.741-54.964c-9.161-13.144-23.3-19.715-42.418-19.715c-13.94,0-25.49,3.784-34.65,11.351
	c-9.161,7.568-16.331,17.127-21.508,28.677c-2.39,6.771-3.585,15.733-3.585,26.885v184.606H341.785z"/>
</svg>
