<?xml version="1.0" encoding="utf-8"?>
<!-- Generator: Adobe Illustrator 16.0.0, SVG Export Plug-In . SVG Version: 6.00 Build 0)  -->
<!DOCTYPE svg PUBLIC "-//W3C//DTD SVG 1.1//EN" "http://www.w3.org/Graphics/SVG/1.1/DTD/svg11.dtd">
<svg version="1.1" id="Layer_1" xmlns="http://www.w3.org/2000/svg" xmlns:xlink="http://www.w3.org/1999/xlink" x="0px" y="0px"
	 width="512px" height="512px" viewBox="164.945 41.64 512 512" enable-background="new 164.945 41.64 512 512"
	 xml:space="preserve">
<path d="M300.627,42.14c-25.056,0-46.184,8.788-63.384,26.364L191.247,114.5c-17.203,17.575-25.803,38.891-25.803,63.945
	c0,25.053,8.787,46.369,26.363,63.945l65.067,63.946c17.201,17.575,38.33,26.362,63.384,26.362c25.803,0,47.679-9.162,65.628-27.483
	l27.485,27.483c-18.324,17.95-27.485,39.638-27.485,65.067c0,25.055,8.788,46.369,26.363,63.945l65.068,65.067
	c17.576,17.573,38.89,26.362,63.944,26.362s46.184-8.975,63.384-26.926l45.436-45.993c17.574-17.201,26.363-38.33,26.363-63.384
	c0-25.43-8.975-46.744-26.926-63.947l-64.505-64.505c-17.575-17.201-38.891-25.803-63.944-25.803
	c-25.43,0-47.118,9.162-65.068,27.486l-27.483-27.486c18.322-17.949,27.483-39.638,27.483-65.066
	c0-25.055-8.786-46.37-26.362-63.946l-65.067-65.066C346.996,50.928,325.68,42.14,300.627,42.14z M300.627,102.159
	c8.226,0,15.332,2.991,21.314,8.975l65.067,65.067c5.609,5.609,8.414,12.713,8.414,21.315c0,8.601-3.178,16.079-9.536,22.437
	c-0.749-0.749-2.805-2.804-6.17-6.171c-3.366-3.365-5.609-5.609-6.731-6.731c-1.121-1.122-2.992-2.618-5.608-4.487
	c-2.619-1.871-5.236-3.179-7.854-3.927c-2.617-0.748-5.609-1.122-8.974-1.122c-8.228,0-15.332,2.805-21.315,8.414
	c-5.983,5.609-8.788,12.714-8.413,21.315c0,3.365,0.373,6.356,1.121,8.974s2.057,5.234,3.927,7.854
	c1.869,2.617,3.365,4.487,4.486,5.608c1.123,1.123,3.366,3.365,6.731,6.731c3.366,3.366,5.422,5.422,6.171,6.17
	c-6.358,6.731-14.023,10.098-22.999,10.098c-8.227,0-15.332-2.805-21.315-8.415l-64.505-64.506
	c-5.983-5.982-8.975-13.088-8.975-21.314c0-8.227,2.804-15.333,8.414-21.315l45.996-45.996
	C285.482,105.151,292.399,102.159,300.627,102.159z M521.07,322.04c8.601,0,15.704,2.992,21.313,8.977l65.068,64.505
	c5.608,5.608,8.412,12.715,8.412,21.316c0,8.226-2.804,15.33-8.412,21.314l-45.436,45.996c-5.983,5.608-12.9,8.412-20.754,8.412
	c-8.601,0-15.705-2.804-21.314-8.412l-65.067-65.069c-5.983-5.982-8.975-13.088-8.975-21.313c0-8.975,3.365-16.455,10.096-22.438
	c0.374,0.374,2.245,2.245,5.609,5.609c3.366,3.365,5.61,5.609,6.732,6.732c1.121,1.121,3.177,2.804,6.169,5.047
	c2.992,2.244,5.608,3.554,7.854,3.928c2.243,0.372,5.048,0.746,8.413,1.121c8.603,0,15.707-2.991,21.315-8.975
	c5.609-5.983,8.601-13.089,8.976-21.316c0-2.989-0.375-5.795-1.122-8.412c-0.749-2.617-2.058-5.237-3.927-7.853
	c-1.87-2.619-3.552-4.676-5.048-6.171c-1.496-1.496-3.741-3.74-6.732-6.731c-2.992-2.992-4.859-4.861-5.608-5.609
	C504.99,325.594,512.469,322.04,521.07,322.04z"/>
</svg>
