<?xml version="1.0" standalone="no"?>
<!DOCTYPE svg PUBLIC "-//W3C//DTD SVG 1.1//EN" "http://www.w3.org/Graphics/SVG/1.1/DTD/svg11.dtd">
<svg xmlns="http://www.w3.org/2000/svg">
<path transform="scale(-1,1)" d="m0 11v607q0 37 26 63t63 26h822q37 0 63-26t26-63v-607q0-37-26-63t-63-27h-822q-36 0-63 27t-26 63z m71 0q0-8 6-13t12-5h822q7 0 12 5t6 13v428q-18-20-39-37-149-114-238-188-28-24-46-38t-48-27-57-13h-2q-26 0-57 13t-48 27-46 38q-88 74-238 188-21 17-39 37v-428z m0 607q0-94 82-159 108-84 224-176 4-3 20-17t25-21 25-17 28-16 24-5h2q11 0 24 5t28 16 25 17 25 21 20 17q116 92 224 176 30 24 56 65t26 73v14t-1 7-1 7-3 5-5 4-8 2h-822q-7 0-12-6t-6-12z" />
</svg>
