<?xml version="1.0" encoding="utf-8"?>
<!-- Generator: Adobe Illustrator 16.0.0, SVG Export Plug-In . SVG Version: 6.00 Build 0)  -->
<!DOCTYPE svg PUBLIC "-//W3C//DTD SVG 1.1//EN" "http://www.w3.org/Graphics/SVG/1.1/DTD/svg11.dtd">
<svg version="1.1" id="Layer_1" xmlns="http://www.w3.org/2000/svg" xmlns:xlink="http://www.w3.org/1999/xlink" x="0px" y="0px"
	 width="512px" height="512px" viewBox="164.945 41.64 512 512" enable-background="new 164.945 41.64 512 512"
	 xml:space="preserve">
<path d="M166.445,451.873V142.9c0-12.556,4.412-23.246,13.234-32.068c8.823-8.823,19.513-13.234,32.068-13.234h418.412
	c12.557,0,23.245,4.411,32.068,13.234c8.823,8.823,13.234,19.512,13.234,32.068v308.973c0,12.556-4.411,23.245-13.234,32.068
	s-19.513,13.404-32.068,13.744H211.747c-12.216,0-22.906-4.582-32.068-13.744C170.517,474.779,166.106,464.09,166.445,451.873z
	 M202.585,451.873c0,2.715,1.018,4.921,3.054,6.617c2.036,1.697,4.072,2.546,6.108,2.546h418.412c2.375,0,4.411-0.849,6.108-2.546
	c1.697-1.696,2.715-3.902,3.054-6.617V234.014c-6.107,6.787-12.725,13.064-19.852,18.833
	c-50.562,38.686-90.943,70.583-121.146,95.695c-9.502,8.145-17.307,14.592-23.415,19.343s-14.253,9.332-24.433,13.743
	c-10.181,4.411-19.852,6.617-29.015,6.617h-1.018c-8.823,0-18.494-2.206-29.014-6.617c-10.52-4.411-18.664-8.992-24.433-13.743
	s-13.574-11.198-23.415-19.343c-29.862-25.112-70.245-57.01-121.146-95.695c-7.126-5.769-13.744-12.047-19.852-18.833V451.873z
	 M202.585,142.9c0,31.898,13.914,58.876,41.74,80.934c36.649,28.505,74.656,58.367,114.02,89.587
	c1.357,1.018,4.751,3.902,10.18,8.653c5.43,4.75,9.671,8.313,12.726,10.689c3.054,2.375,7.296,5.26,12.725,8.653
	c5.43,3.393,10.181,6.107,14.252,8.144c4.072,2.036,8.145,2.885,12.217,2.546h1.018c3.733,0,7.806-0.849,12.217-2.546
	c4.411-1.696,9.162-4.411,14.252-8.144c5.091-3.733,9.333-6.617,12.726-8.653c3.394-2.036,7.636-5.6,12.726-10.689
	c5.091-5.091,8.484-7.975,10.181-8.653c39.364-31.22,77.37-61.083,114.02-89.587c10.181-8.144,19.682-19.173,28.505-33.086
	c8.824-13.914,13.234-26.299,13.234-37.158v-7.126c0,0-0.17-1.188-0.509-3.563c-0.339-2.375-0.509-3.563-0.509-3.563
	s-0.509-0.849-1.527-2.545c-1.018-1.697-1.865-2.375-2.545-2.036c-0.679,0.339-2.036,0-4.072-1.018H211.747
	c-2.375,0-4.411,1.018-6.108,3.054C203.943,138.827,202.925,140.864,202.585,142.9z"/>
</svg>
