<?xml version="1.0" encoding="utf-8"?>
<!-- Generator: Adobe Illustrator 16.0.0, SVG Export Plug-In . SVG Version: 6.00 Build 0)  -->
<!DOCTYPE svg PUBLIC "-//W3C//DTD SVG 1.1//EN" "http://www.w3.org/Graphics/SVG/1.1/DTD/svg11.dtd">
<svg version="1.1" id="Layer_1" xmlns="http://www.w3.org/2000/svg" xmlns:xlink="http://www.w3.org/1999/xlink" x="0px" y="0px"
	 width="512px" height="512px" viewBox="164.945 41.64 512 512" enable-background="new 164.945 41.64 512 512"
	 xml:space="preserve">
<path d="M210.468,544.599c5.102,5.442,11.565,8.164,19.389,8.164h382.685c7.823-0.341,14.287-3.062,19.39-8.164
	s7.653-11.566,7.653-19.39V197.632c0-8.165-1.871-16.668-5.613-25.513c-3.742-8.844-8.334-15.987-13.776-21.43l-88.782-88.783
	c-5.103-5.443-12.246-10.035-21.431-13.777c-9.185-3.742-17.52-5.612-25.002-5.612H229.857c-7.483,0.339-13.947,3.061-19.389,8.164
	c-5.443,5.103-8.164,11.565-8.164,19.389v455.14C202.643,532.693,205.365,539.157,210.468,544.599z M238.531,78.744h218.896v118.888
	c0.34,7.824,3.062,14.287,8.164,19.389c5.103,5.102,11.565,7.654,19.39,7.654h118.377v291.861H238.531V78.744z M277.31,473.165
	c1.02,0.68,1.531,1.021,1.531,1.021l7.143,3.571c2.381,1.361,4.932,2.042,7.654,2.042c17.008,0,39.969-24.833,68.883-74.497
	c32.656-11.225,69.904-19.05,111.744-23.471c11.565,6.123,23.812,11.055,36.738,14.797c12.926,3.741,23.982,5.612,33.166,5.612
	c12.246,0,18.879-3.571,19.899-10.715l0,0l0.511-1.021c0.34,0,0.51-0.17,0.51-0.511c2.721-5.442,2.551-10.375-0.51-14.797
	c-5.783-9.185-22.622-13.776-50.515-13.776c-10.886,0-21.94,0.681-33.166,2.041c-9.865-5.783-17.858-11.056-23.982-15.817
	c-17.349-14.287-31.295-36.908-41.839-67.863c2.38-13.266,3.742-31.465,4.081-54.596v-8.674c0-1.02,0-1.871,0-2.551
	c0.34-0.34,0.681-1.02,1.021-2.041c1.701-8.845,0.85-15.308-2.552-19.389c-2.381-2.722-5.783-4.083-10.205-4.083H401.3
	c-5.783,0-9.695,3.742-11.735,11.225c-2.722,9.524-3.402,21.6-2.042,36.228c1.36,14.627,4.252,29.764,8.674,45.412
	c-6.804,23.811-16.668,48.643-29.594,74.496c-10.545,21.431-20.75,40.14-30.615,56.128c0-0.34-0.17-0.681-0.51-1.021
	c-1.701-2.723-3.912-3.231-6.633-1.531c-15.647,8.845-28.063,18.028-37.248,27.554c-9.184,9.524-14.627,18.198-16.328,26.023
	C274.589,467.722,275.269,471.124,277.31,473.165z M306.905,443.57c6.803-8.504,15.137-16.498,25.002-23.981
	c-15.988,25.513-29.084,40.479-39.289,44.902C295.339,459.048,300.101,452.075,306.905,443.57z M383.442,367.034
	c10.885-21.091,18.879-39.8,23.981-56.128c9.523,20.75,21.601,37.419,36.228,50.004c1.021,1.021,2.552,2.382,4.592,4.082
	c2.041,1.701,3.231,2.552,3.571,2.552c-28.232,5.103-55.276,12.756-81.128,22.961C373.746,385.402,377.999,377.578,383.442,367.034z
	 M406.403,202.735v-1.021c0,0,0-0.17,0-0.511c2.38,2.722,3.572,6.124,3.572,10.205c0.34,0.34,0.51,0.511,0.51,0.511s0,0.17,0,0.51
	c0,0.339,0.17,0.511,0.51,0.511c-0.681,0.68-1.191,1.531-1.531,2.551c-1.36,7.483-2.041,11.565-2.041,12.246
	c-1.021,6.803-1.701,10.884-2.041,12.246C403.001,222.973,403.341,210.558,406.403,202.735z M493.655,81.296
	c5.782,1.701,9.694,3.741,11.736,6.123l89.293,89.293c2.381,2.381,4.422,6.293,6.123,11.736H493.655V81.296z M554.884,386.423
	c0.34,0.34,0.511,0.51,0.511,0.51c-0.681,0.341-2.382,0.511-5.104,0.511c-9.184,0-20.919-2.722-35.206-8.163
	C536.855,379.28,550.121,381.66,554.884,386.423z"/>
</svg>
