<?xml version="1.0" encoding="utf-8"?>
<!-- Generator: Adobe Illustrator 16.0.0, SVG Export Plug-In . SVG Version: 6.00 Build 0)  -->
<!DOCTYPE svg PUBLIC "-//W3C//DTD SVG 1.1//EN" "http://www.w3.org/Graphics/SVG/1.1/DTD/svg11.dtd">
<svg version="1.1" id="Layer_1" xmlns="http://www.w3.org/2000/svg" xmlns:xlink="http://www.w3.org/1999/xlink" x="0px" y="0px"
	 width="512px" height="512px" viewBox="164.945 41.64 512 512" enable-background="new 164.945 41.64 512 512"
	 xml:space="preserve">
<path d="M208.131,438.1c28.171,42.058,65.071,73.205,110.701,93.441c-1.19-23.807,0.198-43.447,4.166-58.922l32.734-138.674
	c-5.555-11.11-8.333-24.601-8.333-40.471c0-19.442,4.761-35.313,14.284-47.613c9.522-12.3,21.227-18.45,35.115-18.45
	c11.109-0.397,19.641,3.174,25.592,10.713c5.951,7.539,8.927,16.665,8.927,27.378c-0.794,7.538-2.182,16.069-4.166,25.592
	c-1.983,9.523-5.157,20.831-9.521,33.924c-4.365,13.094-7.341,23.41-8.928,30.949c-2.777,13.887-0.199,25.592,7.737,35.114
	c7.935,9.523,18.648,14.284,32.138,14.284c23.41-0.396,42.853-13.688,58.326-39.876c15.475-26.188,23.212-58.128,23.212-95.822
	c-0.396-28.965-9.919-52.573-28.568-70.825c-18.648-18.252-44.637-27.378-77.966-27.378c-37.694,0-68.047,12.102-91.06,36.305
	c-23.013,24.203-34.52,52.97-34.52,86.299c0,19.839,5.752,36.503,17.26,49.994c3.571,4.364,4.761,9.125,3.571,14.284
	c-0.794,1.586-1.786,4.959-2.976,10.117c-1.19,5.158-1.984,8.53-2.381,10.118c-1.984,7.142-6.15,9.324-12.499,6.547
	c-17.458-7.143-30.552-19.442-39.281-36.9c-8.729-17.459-13.094-37.694-13.094-60.707c0.396-15.078,2.777-29.957,7.142-44.638
	c4.364-14.681,11.705-28.965,22.021-42.852c10.316-13.888,22.417-25.989,36.305-36.305c13.887-10.317,30.949-18.847,51.184-25.592
	c20.236-6.746,42.058-10.118,65.468-10.118c31.742,0,59.913,7.142,84.514,21.426s43.646,32.337,57.136,54.16
	c13.49,21.822,20.235,45.431,20.235,70.825c0.396,33.329-5.356,63.286-17.26,89.87s-28.369,47.415-49.398,62.492
	c-21.029,15.078-44.836,22.616-71.42,22.616c-13.888,0-26.584-3.174-38.09-9.522c-11.507-6.349-19.442-13.888-23.807-22.616
	c-10.317,39.281-16.467,62.69-18.45,70.229c-3.968,15.871-12.499,34.123-25.592,54.756c23.807,7.142,48.01,10.713,72.61,10.713
	c44.835,0,87.489-11.507,127.959-34.52c40.472-23.014,71.42-53.962,92.847-92.847c21.426-38.884,32.733-81.537,33.924-127.96
	c1.19-46.423-10.117-89.077-33.924-127.96c-23.807-38.885-54.756-69.833-92.847-92.846c-38.09-23.013-80.743-34.52-127.959-34.52
	c-47.217,0-90.069,11.506-128.556,34.52c-38.487,23.013-69.238,53.961-92.25,92.846c-23.013,38.884-34.52,81.538-34.52,127.96
	C165.874,349.221,179.959,396.042,208.131,438.1z"/>
</svg>
