<?xml version="1.0" encoding="UTF-8"?>
<svg width="457px" height="457px" viewBox="0 0 457 457" version="1.1" xmlns="http://www.w3.org/2000/svg" xmlns:xlink="http://www.w3.org/1999/xlink">
    <!-- Generator: Sketch 43.2 (39069) - http://www.bohemiancoding.com/sketch -->
    <title>Group</title>
    <desc>Created with Sketch.</desc>
    <defs></defs>
    <g id="Page-1" stroke="none" stroke-width="1" fill="none" fill-rule="evenodd">
        <g id="Group" fill-rule="nonzero" fill="#000000">
            <path d="M343.772,214.807 L154.672,116.805 C149.954,114.353 144.305,114.546 139.763,117.311 C135.222,120.077 132.45,124.996 132.45,130.317 L132.45,326.321 C132.45,331.642 135.222,336.562 139.763,339.328 C144.305,342.093 149.953,342.286 154.672,339.833 L343.772,241.831 C348.818,239.215 351.992,233.997 351.992,228.319 C351.991,222.641 348.817,217.424 343.772,214.807 Z" id="Shape"></path>
            <path d="M228.318,0 C102.223,0 0,102.223 0,228.319 C0,354.415 102.223,456.637 228.318,456.637 C354.413,456.637 456.637,354.414 456.637,228.319 C456.637,102.224 354.414,0 228.318,0 Z M228.318,410.974 C127.604,410.974 45.663,329.041 45.663,228.319 C45.663,127.597 127.603,45.665 228.318,45.665 C329.032,45.665 410.973,127.598 410.973,228.319 C410.974,329.041 329.033,410.974 228.318,410.974 Z" id="Shape"></path>
        </g>
    </g>
</svg>