<?xml version="1.0" encoding="UTF-8" standalone="no"?>
<svg width="78px" height="81px" viewBox="0 0 78 81" version="1.1" xmlns="http://www.w3.org/2000/svg" xmlns:xlink="http://www.w3.org/1999/xlink">
    <!-- Generator: Sketch 39.1 (31720) - http://www.bohemiancoding.com/sketch -->
    <title>Group</title>
    <desc>Created with Sketch.</desc>
    <defs></defs>
    <g id="Page-1" stroke="none" stroke-width="1" fill="none" fill-rule="evenodd">
        <g id="Group" fill="#000000">
            <path d="M25.768,47.904 C22.8,44.621 21.165,40.374 21.165,35.947 C21.165,30.256 23.787,25.039 28.359,21.634 C29.603,20.707 29.86,18.948 28.934,17.704 C28.007,16.46 26.248,16.203 25.004,17.129 C19.083,21.539 15.548,28.574 15.548,35.947 C15.548,41.769 17.698,47.353 21.601,51.671 C22.156,52.284 22.919,52.596 23.685,52.596 C24.357,52.596 25.03,52.357 25.568,51.871 C26.719,50.83 26.809,49.055 25.768,47.904 L25.768,47.904 Z" id="Shape"></path>
            <path d="M62.452,35.947 C62.452,28.573 58.917,21.538 52.995,17.129 C51.751,16.203 49.991,16.461 49.065,17.704 C48.138,18.948 48.396,20.708 49.64,21.634 C54.212,25.039 56.834,30.255 56.834,35.947 C56.834,40.375 55.199,44.621 52.231,47.904 C51.191,49.055 51.28,50.831 52.43,51.871 C52.968,52.357 53.642,52.596 54.313,52.596 C55.079,52.596 55.843,52.284 56.397,51.671 C60.302,47.354 62.452,41.77 62.452,35.947 L62.452,35.947 Z" id="Shape"></path>
            <path d="M55.646,0.822 C54.244,0.157 52.569,0.754 51.904,2.155 C51.239,3.556 51.836,5.232 53.237,5.897 C64.786,11.379 72.249,23.175 72.249,35.948 C72.249,47.055 66.732,57.385 57.491,63.582 C56.203,64.446 55.859,66.19 56.723,67.479 C57.265,68.287 58.153,68.724 59.058,68.724 C59.596,68.724 60.139,68.57 60.619,68.248 C71.418,61.007 77.866,48.932 77.866,35.949 C77.866,21.017 69.144,7.229 55.646,0.822 L55.646,0.822 Z" id="Shape"></path>
            <path d="M20.509,63.581 C11.268,57.384 5.751,47.054 5.751,35.947 C5.751,23.174 13.214,11.378 24.763,5.896 C26.164,5.231 26.761,3.556 26.096,2.154 C25.431,0.753 23.756,0.156 22.354,0.821 C8.856,7.229 0.134,21.017 0.134,35.948 C0.134,48.931 6.581,61.005 17.38,68.247 C17.86,68.569 18.404,68.723 18.942,68.723 C19.847,68.723 20.735,68.286 21.277,67.478 C22.141,66.19 21.797,64.445 20.509,63.581 L20.509,63.581 Z" id="Shape"></path>
            <path d="M41.922,45.888 C46.221,44.626 49.361,40.655 49.361,35.948 C49.361,30.226 44.722,25.587 39,25.587 C33.278,25.587 28.64,30.226 28.64,35.947 C28.64,40.654 31.78,44.625 36.079,45.887 L32.338,58.473 L25.674,81 L39,81 L52.326,81 L45.663,58.474 L41.922,45.888 L41.922,45.888 Z" id="Shape"></path>
        </g>
    </g>
</svg>