<?xml version="1.0" encoding="utf-8"?>
<!DOCTYPE svg PUBLIC "-//W3C//DTD SVG 1.1//EN" "http://www.w3.org/Graphics/SVG/1.1/DTD/svg11.dtd">
<svg version="1.1" id="Layer_1" xmlns="http://www.w3.org/2000/svg" xmlns:xlink="http://www.w3.org/1999/xlink" x="0px" y="0px"
	 width="512px" height="512px" viewBox="164.945 41.64 512 512" enable-background="new 164.945 41.64 512 512"
	 xml:space="preserve">
<path d="M166.945,292.834c0-15.908,5.66-29.522,16.979-40.842c11.319-11.319,24.934-16.979,40.842-16.979
	c14.072,0,26.769,4.742,38.088,14.226c42.219-26.922,92.697-40.995,151.437-42.219l34.417-108.3
	c0.611-2.447,2.141-4.283,4.589-5.507c2.447-1.224,4.895-1.53,7.342-0.918l88.567,21.109c3.672-8.566,9.483-15.603,17.438-21.109
	c7.954-5.507,16.826-8.107,26.616-7.801c13.154,0,24.321,4.589,33.499,13.767c9.179,9.178,13.768,20.498,13.768,33.958
	c0,13.461-4.589,24.627-13.768,33.5c-9.178,8.872-20.345,13.614-33.499,14.226c-13.155,0-24.322-4.589-33.5-13.767
	c-9.178-9.178-13.92-20.345-14.226-33.5l-80.766-18.815l-29.829,93.615c55.986,2.448,103.864,16.673,143.636,42.677
	c10.707-10.096,23.557-15.144,38.547-15.144c15.908,0,29.522,5.66,40.842,16.979c11.319,11.32,16.979,24.934,16.979,40.842
	c0,10.708-2.601,20.498-7.801,29.37c-5.201,8.872-12.238,15.908-21.109,21.109c0.611,5.507,0.917,10.708,0.917,15.603
	c0,20.497-5.812,40.077-17.438,58.738c-11.626,18.662-28.452,35.183-50.479,49.562c-21.415,14.073-45.736,24.78-72.964,32.123
	c-27.229,7.342-55.986,11.166-86.273,11.472c-29.981,0-58.586-3.823-85.813-11.472c-27.229-7.648-51.55-18.356-72.965-32.123
	c-22.027-14.379-38.854-30.746-50.479-49.103c-11.625-18.355-17.591-38.088-17.897-59.197c0-4.895,0.459-10.555,1.377-16.979
	c-8.26-5.201-14.838-12.237-19.733-21.109C169.392,311.955,166.945,302.624,166.945,292.834z M186.677,292.834
	c0,11.625,4.283,21.109,12.849,28.452c8.566-22.333,24.016-42.372,46.349-60.116c-6.119-4.283-13.155-6.424-21.109-6.424
	c-10.402,0-19.427,3.671-27.075,11.013C190.042,273.101,186.371,282.127,186.677,292.834z M212.375,358.916
	c0,17.132,5.201,33.652,15.603,49.561s24.934,30.135,43.596,42.678c19.885,12.543,42.524,22.333,67.917,29.369
	c25.393,7.037,52.161,10.555,80.307,10.555c28.146,0,54.915-3.518,80.308-10.555c25.392-7.036,48.031-16.826,67.917-29.369
	c19.273-12.543,33.958-26.77,44.054-42.678s15.144-32.429,15.144-49.561c0-17.133-5.048-33.652-15.144-49.562
	c-10.096-15.908-24.78-30.134-44.054-42.677c-19.58-12.849-42.219-22.639-67.917-29.37c-25.698-6.73-52.468-10.249-80.308-10.555
	c-27.84-0.306-54.608,3.212-80.307,10.555c-25.698,7.342-48.337,17.133-67.917,29.37c-18.968,12.543-33.5,26.769-43.596,42.677
	C217.882,325.263,212.681,341.783,212.375,358.916z M309.203,331.382c0-9.79,3.518-18.203,10.555-25.239
	c7.036-7.036,15.296-10.555,24.781-10.555c9.483,0,17.744,3.519,24.78,10.555c7.036,7.036,10.555,15.449,10.555,25.239
	c0,9.484-3.519,17.592-10.555,24.321c-7.037,6.73-15.297,10.249-24.78,10.555c-9.791,0-18.051-3.518-24.781-10.555
	C313.027,348.667,309.509,340.559,309.203,331.382z M336.278,424.079c0-2.753,0.917-5.048,2.753-6.884
	c1.835-1.835,4.13-2.753,6.883-2.753s5.048,0.918,6.883,2.753c13.155,13.155,35.794,19.733,67.917,19.733h0.459
	c32.123,0,54.762-6.578,67.917-19.733c1.836-1.835,4.13-2.753,6.884-2.753c2.753,0,5.048,0.918,6.883,2.753
	c1.836,1.836,2.754,4.131,2.754,6.884c0,2.754-0.918,5.201-2.754,7.343c-16.826,16.826-44.054,25.239-81.684,25.239h-0.459
	c-37.629,0-64.858-8.413-81.684-25.239C337.196,429.28,336.278,426.833,336.278,424.079z M462.016,331.382
	c0-9.79,3.671-18.203,11.014-25.239s15.603-10.555,24.78-10.555s17.438,3.519,24.78,10.555c7.343,7.036,10.708,15.449,10.096,25.239
	c0,9.484-3.365,17.592-10.096,24.321c-6.73,6.73-14.99,10.249-24.78,10.555c-9.79,0-18.203-3.518-25.239-10.555
	C465.533,348.667,462.016,340.559,462.016,331.382z M565.268,132.22c0,7.648,2.754,14.226,8.261,19.732
	c5.506,5.507,12.084,8.26,19.732,8.26c7.647,0,14.226-2.753,19.732-8.26s8.106-12.084,7.801-19.732
	c-0.306-7.648-2.906-14.226-7.801-19.733c-4.896-5.507-11.473-8.26-19.732-8.26c-8.261,0-14.838,2.753-19.732,8.26
	C568.633,117.994,565.88,124.572,565.268,132.22z M595.096,262.088c22.333,17.744,37.477,38.088,45.432,61.034
	c9.789-7.954,14.685-18.05,14.685-30.288c0-10.401-3.672-19.427-11.014-27.075c-7.343-7.648-16.367-11.319-27.075-11.013
	C608.864,254.746,601.521,257.193,595.096,262.088z"/>
</svg>
