<?xml version="1.0" standalone="no"?>
<!DOCTYPE svg PUBLIC "-//W3C//DTD SVG 1.1//EN" "http://www.w3.org/Graphics/SVG/1.1/DTD/svg11.dtd">
<svg xmlns="http://www.w3.org/2000/svg">
<path trasform="scale(-1,-1)" d="m0 100q0 45 31 76t76 31 76-31 31-76-31-76-76-31-76 31-31 76z m0 282v75q0 16 12 26 9 10 24 10h3q89-7 170-45t145-101q63-63 101-145t45-171q1-15-9-26-11-12-27-12h-75q-14 0-24 9t-11 23q-12 128-103 219t-219 103q-14 1-23 11t-9 24z m0 281v80q0 15 11 26 10 10 25 10h1q147-8 280-67t238-164q104-104 164-238t67-280q1-15-10-26-10-11-26-11h-80q-14 0-25 10t-11 23q-6 120-56 228t-129 188-188 129-227 57q-14 0-24 11t-10 24z" />
</svg>
