<?xml version="1.0" encoding="utf-8"?>
<!-- Generator: Adobe Illustrator 16.0.0, SVG Export Plug-In . SVG Version: 6.00 Build 0)  -->
<!DOCTYPE svg PUBLIC "-//W3C//DTD SVG 1.1//EN" "http://www.w3.org/Graphics/SVG/1.1/DTD/svg11.dtd">
<svg version="1.1" id="Layer_1" xmlns="http://www.w3.org/2000/svg" xmlns:xlink="http://www.w3.org/1999/xlink" x="0px" y="0px"
	 width="512px" height="512px" viewBox="164.945 41.64 512 512" enable-background="new 164.945 41.64 512 512"
	 xml:space="preserve">
<path d="M186.479,532.08c13.384,13.383,29.791,20.076,49.219,20.076c19.429,0,35.835-6.693,49.219-20.076
	c13.384-13.385,20.076-29.791,20.076-49.22s-6.692-35.835-20.076-49.219c-13.384-13.385-29.791-20.076-49.219-20.076
	c-19.428,0-35.835,6.691-49.219,20.076c-13.384,13.384-20.076,29.79-20.076,49.219S173.095,518.695,186.479,532.08z
	 M172.232,315.774c3.886,4.317,8.85,6.692,14.895,7.124c55.263,5.181,102.54,27.416,141.829,66.705
	c39.289,39.288,61.524,86.564,66.705,141.828c0.431,6.045,2.806,11.01,7.124,14.896c4.317,3.886,9.498,5.829,15.542,5.829h48.572
	c6.907,0,12.735-2.591,17.485-7.771c4.317-4.75,6.26-10.362,5.828-16.839c-3.022-38.426-12.736-75.34-29.143-110.742
	c-16.406-35.404-38.209-66.705-65.409-93.905c-27.632-27.2-58.934-49.003-93.905-65.41c-34.972-16.407-71.67-26.121-110.096-29.143
	h-1.943c-6.476,0-11.657,2.159-15.543,6.477c-5.181,4.317-7.771,9.93-7.771,16.838v48.571
	C166.403,306.275,168.346,311.457,172.232,315.774z M172.879,133.793c4.317,4.749,9.498,7.124,15.543,7.124
	c50.945,3.454,99.949,15.759,147.01,36.915c47.06,21.155,87.644,49.003,121.752,83.543c34.107,34.54,61.955,75.124,83.543,121.752
	c21.587,46.629,33.677,95.848,36.267,147.657c0,5.612,2.374,10.578,7.124,14.896c4.749,4.317,10.146,6.477,16.19,6.477h51.81
	c6.907,0,12.521-2.375,16.838-7.124c4.749-4.75,6.908-10.362,6.477-16.838c-3.022-63.036-17.485-123.48-43.391-181.334
	c-25.904-57.854-61.308-109.232-106.21-154.134c-45.333-45.333-96.711-80.737-154.133-106.209
	C314.276,61.043,253.832,46.58,190.365,43.126h-0.648c-6.476,0-11.873,2.159-16.19,6.476c-4.75,4.749-7.124,10.362-7.124,16.838
	v51.81C166.403,123.863,168.561,129.043,172.879,133.793z"/>
</svg>
