<?xml version="1.0" encoding="utf-8"?>
<!-- Generator: Adobe Illustrator 16.0.0, SVG Export Plug-In . SVG Version: 6.00 Build 0)  -->
<!DOCTYPE svg PUBLIC "-//W3C//DTD SVG 1.1//EN" "http://www.w3.org/Graphics/SVG/1.1/DTD/svg11.dtd">
<svg version="1.1" id="Layer_1" xmlns="http://www.w3.org/2000/svg" xmlns:xlink="http://www.w3.org/1999/xlink" x="0px" y="0px"
	 width="512px" height="512px" viewBox="164.945 41.64 512 512" enable-background="new 164.945 41.64 512 512"
	 xml:space="preserve">
<path d="M220.105,553.628l9.747,0.513h324.215v-0.513v-9.747V343.298h-34.37v176.985H254.476V343.298h-34.884v210.33H220.105z
	 M485.326,485.399v-43.093H282.691v43.605L485.326,485.399z M486.352,429.995l3.591-43.092l-201.096-18.468l-4.104,43.092
	L486.352,429.995z M492.508,372.026l11.286-41.554l-195.966-52.839L297.055,319.7L492.508,372.026z M506.872,318.161l22.059-36.937
	l-174.42-103.112l-22.059,36.936L506.872,318.161z M536.114,275.069l35.396-24.624L457.624,83.207l-35.397,24.624L536.114,275.069z
	 M579.205,247.88l43.092-7.182L587.413,41.14l-42.579,7.695L579.205,247.88z"/>
</svg>
