<?xml version="1.0" encoding="utf-8"?>
<!DOCTYPE svg PUBLIC "-//W3C//DTD SVG 1.1//EN" "http://www.w3.org/Graphics/SVG/1.1/DTD/svg11.dtd">
<svg version="1.1" id="Layer_1" xmlns="http://www.w3.org/2000/svg" xmlns:xlink="http://www.w3.org/1999/xlink" x="0px" y="0px"
	 width="512px" height="512px" viewBox="164.945 41.64 512 512" enable-background="new 164.945 41.64 512 512"
	 xml:space="preserve">
<path d="M164.904,378.927v-71.242h87.499v69.807c0,7.65,2.709,14.186,8.128,19.604c5.419,5.42,11.794,7.97,19.125,7.65
	c7.331-0.318,13.706-2.868,19.125-7.65c5.419-4.781,8.128-11.315,8.128-19.604V212.058c0-30.282,11.156-56.261,33.469-77.936
	s49.248-32.354,80.805-32.035c31.239,0,58.014,10.838,80.327,32.513c22.312,21.676,33.629,47.813,33.948,78.414v36.338
	l-52.117,15.301l-34.903-16.257V216.84c0-7.331-2.71-13.706-8.129-19.126c-5.419-5.418-11.794-7.968-19.125-7.65
	c-7.331,0.319-13.707,2.869-19.125,7.65c-5.419,4.782-8.128,11.157-8.128,19.126v163.521c0,31.238-11.157,57.854-33.469,79.848
	c-22.313,21.995-49.408,32.992-81.283,32.992c-31.557,0-58.492-11.156-80.805-33.47C176.06,437.419,164.904,410.483,164.904,378.927
	z M448.438,379.884v-71.721l34.903,16.256l52.117-15.3v72.198c0,7.332,2.549,13.707,7.649,19.126c5.1,5.42,11.476,7.969,19.126,7.65
	c7.649-0.319,14.185-2.868,19.603-7.65c5.419-4.782,7.969-11.156,7.65-19.126v-73.632h87.499v71.242
	c0,31.556-11.157,58.491-33.47,80.804c-22.313,22.313-49.248,33.47-80.805,33.47s-58.491-10.997-80.805-32.992
	C459.594,438.216,448.438,411.439,448.438,379.884z"/>
</svg>
