<?xml version="1.0" encoding="utf-8"?>
<!DOCTYPE svg PUBLIC "-//W3C//DTD SVG 1.1//EN" "http://www.w3.org/Graphics/SVG/1.1/DTD/svg11.dtd">
<svg version="1.1" id="twitter" xmlns="http://www.w3.org/2000/svg" xmlns:xlink="http://www.w3.org/1999/xlink" x="0px" y="0px"
	 width="512px" height="512px" viewBox="164.945 41.64 512 512" enable-background="new 164.945 41.64 512 512"
	 xml:space="preserve">
<path d="M677.291,137.699c-18.864,8.413-39.132,14.099-60.407,16.659c21.71-13.095,38.389-33.828,46.25-58.537
	c-20.323,12.126-42.829,20.927-66.795,25.676c-19.185-20.565-46.524-33.413-76.777-33.413c-58.09,0-105.19,47.366-105.19,105.796
	c0,8.292,0.925,16.365,2.72,24.113c-87.417-4.422-164.923-46.535-216.803-110.547c-9.051,15.632-14.242,33.806-14.242,53.193
	c0,36.71,18.572,69.098,46.796,88.066c-17.242-0.544-33.466-5.304-47.637-13.23c-0.01,0.445-0.01,0.891-0.01,1.335
	c0,51.262,36.259,94.019,84.378,103.745c-8.831,2.424-18.115,3.715-27.71,3.715c-6.78,0-13.366-0.664-19.791-1.898
	c13.387,42.029,52.23,72.623,98.257,73.477c-35.998,28.375-81.355,45.289-130.635,45.289c-8.491,0-16.861-0.503-25.091-1.477
	c46.551,30.02,101.843,47.539,161.236,47.539c193.47,0,299.272-161.219,299.272-301.037c0-4.588-0.104-9.144-0.309-13.69
	C645.353,177.549,663.187,158.908,677.291,137.699z"/>
</svg>
