<?xml version="1.0" encoding="utf-8"?>
<!-- Generator: Adobe Illustrator 16.0.0, SVG Export Plug-In . SVG Version: 6.00 Build 0)  -->
<!DOCTYPE svg PUBLIC "-//W3C//DTD SVG 1.1//EN" "http://www.w3.org/Graphics/SVG/1.1/DTD/svg11.dtd">
<svg version="1.1" id="Layer_1" xmlns="http://www.w3.org/2000/svg" xmlns:xlink="http://www.w3.org/1999/xlink" x="0px" y="0px"
	 width="512px" height="512px" viewBox="164.945 41.64 512 512" enable-background="new 164.945 41.64 512 512"
	 xml:space="preserve">
<path d="M176.247,320.232l118.535,118.534l44.597,44.598c6.259,5.868,13.692,8.802,22.299,8.802c8.606,0,16.039-2.934,22.298-8.802
	l44.598-44.598l237.069-237.069c5.868-6.259,8.802-13.692,8.802-22.298c0-8.607-2.934-16.04-8.802-22.298l-44.598-44.598
	c-6.26-6.259-13.692-9.389-22.299-9.389s-16.039,3.129-22.298,9.389L361.677,327.86l-96.236-96.823
	c-6.259-6.259-13.692-9.389-22.298-9.389c-8.607,0-16.04,3.129-22.299,9.389l-44.597,44.597c-5.868,6.259-8.802,13.692-8.802,22.299
	S170.379,313.972,176.247,320.232z"/>
</svg>
