<?xml version="1.0" encoding="utf-8"?>
<!-- Generator: Adobe Illustrator 16.0.0, SVG Export Plug-In . SVG Version: 6.00 Build 0)  -->
<!DOCTYPE svg PUBLIC "-//W3C//DTD SVG 1.1//EN" "http://www.w3.org/Graphics/SVG/1.1/DTD/svg11.dtd">
<svg version="1.1" id="Layer_1" xmlns="http://www.w3.org/2000/svg" xmlns:xlink="http://www.w3.org/1999/xlink" x="0px" y="0px"
	 width="512px" height="512px" viewBox="164.945 41.64 512 512" enable-background="new 164.945 41.64 512 512"
	 xml:space="preserve">
<path d="M217.984,504.93c2.376,11.544,7.809,21.052,16.298,28.522c8.488,7.468,18.165,11.713,29.031,12.731
	c34.972,4.074,87.602,6.112,157.886,6.112s122.744-2.038,157.377-6.112c10.865-0.679,20.542-4.923,29.03-12.731
	c8.488-7.811,14.092-17.316,16.808-28.522c4.754-21.731,7.131-54.837,7.131-99.316c0-45.158-2.377-78.264-7.131-99.314
	c-3.056-11.545-8.658-21.053-16.808-28.522c-8.148-7.47-17.825-11.884-29.03-13.242c-34.634-3.736-87.093-5.603-157.377-5.603
	s-122.914,1.867-157.886,5.603c-10.866,1.018-20.542,5.432-29.031,13.242c-8.489,7.81-13.921,17.317-16.298,28.522
	c-5.093,21.729-7.64,54.835-7.64,99.314C210.344,450.772,212.891,483.878,217.984,504.93z M241.922,308.336h88.62v26.484h-30.559
	v161.961h-28.012V334.82h-30.05V308.336z M296.927,95.953c8.828,26.145,14.6,46.348,17.316,60.608v76.906h28.521v-76.906
	l34.124-113.576h-29.03l-19.354,74.869l-19.863-74.869h-30.559C283.515,58.943,289.797,76.6,296.927,95.953z M334.107,356.212
	h25.465v103.39c0,6.113,0.169,9.507,0.509,10.188c0.339,3.733,2.207,5.602,5.603,5.602c5.093,0,10.525-3.904,16.298-11.714V356.212
	h25.466v140.569h-25.466v-15.279c-10.186,11.544-19.863,17.317-29.031,17.317c-8.489,0-13.921-3.565-16.298-10.696
	c-1.698-4.413-2.546-11.375-2.546-20.881V356.212z M385.038,220.735c7.13,9.847,17.146,14.77,30.049,14.77
	c12.903,0,22.92-4.923,30.05-14.77c5.433-6.791,8.149-17.996,8.149-33.615v-49.403c0-15.279-2.717-26.314-8.149-33.105
	c-7.13-9.847-17.146-14.77-30.05-14.77c-12.902,0-22.919,4.923-30.049,14.77c-5.093,6.791-7.64,17.826-7.64,33.105v49.403
	C377.399,202.399,379.945,213.604,385.038,220.735z M402.864,132.624c0-13.242,4.075-19.863,12.223-19.863
	s12.225,6.621,12.225,19.863v59.589c0,13.242-4.076,19.863-12.225,19.863s-12.223-6.621-12.223-19.863V132.624z M429.349,308.336
	h25.465v61.628c8.148-10.187,16.978-15.28,26.484-15.28c10.186,0,16.978,5.264,20.373,15.789c1.696,4.753,2.546,14.091,2.546,28.012
	v56.024c0,13.921-0.85,23.429-2.546,28.522c-3.396,10.525-10.188,15.788-20.373,15.788c-9.168,0-17.996-5.263-26.484-15.788v13.75
	h-25.465V308.336z M467.546,475.39c7.471,0,11.205-6.282,11.205-18.844v-60.101c0-12.562-3.734-18.844-11.205-18.844
	c-4.413,0-8.658,2.038-12.732,6.112v85.563C458.888,473.352,463.133,475.39,467.546,475.39z M476.204,224.809
	c2.717,7.13,8.319,10.695,16.809,10.695c9.506,0,19.354-5.942,29.539-17.826v15.789h25.975V91.369h-25.975v108.483
	c-5.771,8.149-11.205,12.224-16.297,12.224c-3.396,0-5.434-2.037-6.113-6.112c0-0.34,0-3.735,0-10.186V91.369h-25.975v112.049
	C474.167,213.265,474.846,220.395,476.204,224.809z M524.08,402.051c0-14.94,2.546-25.976,7.64-33.105
	c7.469-9.509,17.656-14.262,30.559-14.262c12.562,0,22.579,4.753,30.049,14.262c5.094,7.13,7.641,18.165,7.641,33.105v29.03h-50.932
	v24.955c0,12.903,4.414,19.354,13.242,19.354c6.111,0,9.847-3.396,11.205-10.187c0.34-1.698,0.51-7.47,0.51-17.316h25.975v3.565
	c0,9.507-0.17,15.108-0.51,16.808c-0.68,5.092-2.717,10.186-6.111,15.279c-6.791,10.187-16.979,15.279-30.559,15.279
	c-12.903,0-23.09-4.925-30.559-14.771c-5.433-7.129-8.149-18.165-8.149-33.104V402.051z M574.502,409.688v-12.731
	c0-12.903-4.245-19.354-12.733-19.354s-12.732,6.451-12.732,19.354v12.731H574.502z"/>
</svg>
