<?xml version="1.0" encoding="UTF-8" standalone="no"?>
<svg width="301px" height="301px" viewBox="0 0 301 301" version="1.1" xmlns="http://www.w3.org/2000/svg" xmlns:xlink="http://www.w3.org/1999/xlink">
    <!-- Generator: Sketch 3.6.1 (26313) - http://www.bohemiancoding.com/sketch -->
    <title>Group 2</title>
    <desc>Created with Sketch.</desc>
    <defs></defs>
    <g id="Page-1" stroke="none" stroke-width="1" fill="none" fill-rule="evenodd">
        <g id="Group-2">
            <g id="Group" fill="#A23646">
                <path d="M300.904,150.977 C300.904,233.814 233.742,300.977 150.905,300.977 C68.068,300.977 0.905,233.814 0.905,150.977 C0.905,68.141 68.068,0.977 150.905,0.977 C233.742,0.977 300.904,68.141 300.904,150.977" id="Fill-1"></path>
            </g>
            <path d="M159.207,78.237 L112.372,113.467 L84.265,113.467 C76.758,113.467 70.661,119.582 70.661,127.108 L70.661,174.935 C70.661,182.405 76.758,188.485 84.265,188.485 L112.372,188.485 L159.207,223.729 C160.123,224.425 161.24,224.772 162.338,224.772 C163.125,224.772 163.932,224.571 164.664,224.205 C166.422,223.345 167.557,221.532 167.557,219.554 L167.557,82.412 C167.557,80.435 166.422,78.603 164.664,77.743 C162.961,76.882 160.801,77.047 159.207,78.237 L159.207,78.237 Z M157.139,209.117 L117.261,179.11 C116.364,178.433 115.265,178.066 114.13,178.066 L84.265,178.066 C82.489,178.066 81.08,176.675 81.08,174.935 L81.08,127.108 C81.08,125.332 82.489,123.867 84.265,123.867 L114.13,123.867 C115.265,123.867 116.364,123.501 117.261,122.842 L157.139,92.831 L157.139,209.117 L157.139,209.117 Z M113.471,127.529 C110.614,127.529 108.271,129.873 108.271,132.748 L108.271,169.204 C108.271,172.079 110.614,174.404 113.471,174.404 C116.345,174.404 118.689,172.079 118.689,169.204 L118.689,132.748 C118.689,129.873 116.345,127.529 113.471,127.529 L113.471,127.529 Z M194.84,118.447 C191.123,114.748 186.563,111.709 180.941,109.164 C178.342,108.047 175.211,109.164 174.039,111.782 C172.885,114.419 174.039,117.513 176.676,118.685 C181.143,120.681 184.658,123.006 187.461,125.808 C201.357,139.687 201.357,162.265 187.461,176.144 C184.658,178.945 181.143,181.27 176.676,183.267 C174.039,184.438 172.885,187.532 174.039,190.151 C174.918,192.092 176.822,193.227 178.799,193.227 C179.514,193.227 180.246,193.081 180.941,192.788 C186.563,190.261 191.123,187.222 194.84,183.505 C212.783,165.56 212.783,136.392 194.84,118.447 L194.84,118.447 Z M211.1,102.187 C205.275,96.346 198.025,91.53 189.602,87.905 C186.856,86.715 183.871,87.96 182.754,90.597 C181.602,93.252 182.828,96.328 185.465,97.445 C192.789,100.612 198.758,104.567 203.738,109.566 C226.59,132.399 226.59,169.552 203.738,192.403 C198.758,197.384 192.789,201.357 185.465,204.507 C182.828,205.642 181.602,208.718 182.754,211.369 C183.596,213.31 185.52,214.482 187.533,214.482 C188.229,214.482 188.906,214.354 189.602,214.061 C198.025,210.435 205.275,205.605 211.1,199.765 C224.117,186.764 231.295,169.424 231.295,150.967 C231.295,132.528 224.117,115.187 211.1,102.187 L211.1,102.187 Z M174.002,170.046 C175.01,171.054 176.346,171.565 177.682,171.565 C179.02,171.565 180.338,171.054 181.363,170.046 C191.891,159.536 191.891,142.434 181.363,131.924 C179.33,129.873 176.035,129.873 174.002,131.924 C171.969,133.956 171.969,137.252 174.002,139.284 C180.447,145.729 180.447,156.24 174.002,162.685 C171.969,164.718 171.969,168.014 174.002,170.046 L174.002,170.046 Z" id="Fill-3" fill="#FFFFFF"></path>
        </g>
    </g>
</svg>
