<?xml version="1.0" encoding="utf-8"?>
<!-- Generator: Adobe Illustrator 16.0.0, SVG Export Plug-In . SVG Version: 6.00 Build 0)  -->
<!DOCTYPE svg PUBLIC "-//W3C//DTD SVG 1.1//EN" "http://www.w3.org/Graphics/SVG/1.1/DTD/svg11.dtd">
<svg version="1.1" id="Layer_1" xmlns="http://www.w3.org/2000/svg" xmlns:xlink="http://www.w3.org/1999/xlink" x="0px" y="0px"
	 width="65.832px" height="65.832px" viewBox="0 0 65.832 65.832" enable-background="new 0 0 65.832 65.832" xml:space="preserve">
<g>
	<circle fill="#2276A5" cx="5.381" cy="5.381" r="5.381"/>
	<circle fill="#BCBEC0" cx="19.148" cy="5.381" r="5.381"/>
	<circle fill="#2276A5" cx="32.916" cy="5.381" r="5.381"/>
	<circle fill="#BCBEC0" cx="46.684" cy="5.381" r="5.381"/>
	<circle fill="#2276A5" cx="60.451" cy="5.381" r="5.381"/>
	<circle fill="#2276A5" cx="5.381" cy="19.148" r="5.381"/>
	<circle fill="#2276A5" cx="19.148" cy="19.148" r="5.381"/>
	<circle fill="#2276A5" cx="32.916" cy="19.148" r="5.381"/>
	<circle fill="#BCBEC0" cx="46.684" cy="19.148" r="5.381"/>
	<circle fill="#2276A5" cx="60.451" cy="19.148" r="5.381"/>
	<circle fill="#2276A5" cx="5.381" cy="32.916" r="5.381"/>
	<circle fill="#2276A5" cx="19.148" cy="32.916" r="5.381"/>
	<circle fill="#BCBEC0" cx="32.916" cy="32.916" r="5.381"/>
	<circle fill="#2276A5" cx="46.684" cy="32.916" r="5.381"/>
	<circle fill="#BCBEC0" cx="60.451" cy="32.916" r="5.381"/>
	<circle fill="#BCBEC0" cx="5.381" cy="46.684" r="5.381"/>
	<circle fill="#2276A5" cx="19.148" cy="46.684" r="5.381"/>
	<circle fill="#2276A5" cx="32.916" cy="46.684" r="5.381"/>
	<circle fill="#2276A5" cx="46.684" cy="46.684" r="5.381"/>
	<circle fill="#2276A5" cx="60.451" cy="46.684" r="5.381"/>
	<circle fill="#BCBEC0" cx="5.381" cy="60.451" r="5.381"/>
	<circle fill="#2276A5" cx="19.148" cy="60.451" r="5.381"/>
	<circle fill="#BCBEC0" cx="32.916" cy="60.451" r="5.381"/>
	<circle fill="#2276A5" cx="46.684" cy="60.451" r="5.381"/>
	<circle fill="#2276A5" cx="60.451" cy="60.451" r="5.381"/>
</g>
</svg>
