<?xml version="1.0" encoding="utf-8"?>
<!-- Generator: Adobe Illustrator 16.0.0, SVG Export Plug-In . SVG Version: 6.00 Build 0)  -->
<!DOCTYPE svg PUBLIC "-//W3C//DTD SVG 1.1//EN" "http://www.w3.org/Graphics/SVG/1.1/DTD/svg11.dtd">
<svg version="1.1" id="Layer_1" xmlns="http://www.w3.org/2000/svg" xmlns:xlink="http://www.w3.org/1999/xlink" x="0px" y="0px"
	 width="468.257px" height="509.301px" viewBox="0 0 468.257 509.301" enable-background="new 0 0 468.257 509.301"
	 xml:space="preserve">
<path fill="#E8DDCD" d="M453.898,367.086c2.579-7.011,4.696-13.758,6.47-21.01c0.686-2.148,1.379-4.286,2.08-6.423
	c0.408-1.239,0.828-2.475,1.243-3.711c-0.153-0.068-0.305-0.122-0.469-0.225c0.056-0.669-0.011-1.383,0.186-2.016
	c1.898-6.118,3.204-12.264,3.988-18.438c0.392-3.087,0.651-6.18,0.793-9.271c0.163-7.853,0.045-14.56-0.545-22.6
	c-3.143-25.887-9.382-49.931-3.854-74.714c0.157-2.73,0.08-5.336-0.196-7.878c-0.275-2.543-0.749-5.025-1.426-7.458
	c-10.977-30.872-39.535-52.283-61.368-75.07c-2.155-2.114-4.348-4.189-6.592-6.211s-4.541-3.992-6.904-5.895
	c-2.311-1.859-1.62-3.517,0.152-5.369c6.247-6.53,12.486-13.042,20.031-18.148c5.065-3.428,10.285-6.543,15.767-9.269
	c3.457-1.719,6.571-8.045,5.745-10.873c-0.958-3.279-5.31-5.778-10.053-5.696c-2.93,0.05-5.859,0.195-8.786,0.319
	c-2.177,0.093-3.83-0.472-5.898-1.732c-8.002-4.879-12.223-12.399-15.753-20.478c-3.369-7.708-8.377-14.28-13.46-20.842
	c-1.228-1.584-2.411-3.186-4.801-2.239c-6.604,2.611-13.441,4.515-19.978,7.408c-11.373,5.032-22.468,10.751-34.59,14.095
	c-3.891,1.073-5.905,0.266-7.943-2.644c-2.373-3.391-4.084-7.214-7.054-10.225c-4.964-5.035-9.802-10.197-14.651-15.344
	c-2.063-2.188-4.565-3.73-7.297-4.803c-3.164-1.243-6.638,1.276-5.438,4.245c1.896,4.688,1.309,9.57,2.231,14.306
	c1.586,8.14,2.21,16.441-0.54,24.642c-1.208,3.604-2.885,5.139-6.915,4.347c-8.851-1.739-17.736-3.442-26.685-4.517
	c-25.969-3.117-51.048-1.51-74.237,12.784c-2.727,1.682-5.452,3.37-8.183,5.068c-28.206,15.697-52.011,35.352-79.137,51.392
	c-2.982,2.4-5.793,4.951-8.438,7.616c-23.811,23.984-34.629,56.625-46.59,87.862c-1.215,2.55-2.22,5.173-3.08,7.845
	c-4.297,13.363-4.969,27.973-10.328,41.114C4.103,274.601,0.891,295.232,0,314.345c0.092,3.403,0.402,6.776,0.911,10.113
	c4.065,26.701,20.816,51.095,39.786,71.149c2.244,2.948,4.407,5.893,6.598,8.819c15.325,20.473,31.926,39.945,56.312,48.421
	c2.744,0.75,5.428,1.683,8.088,2.683c7.982,3,15.756,6.619,24.311,7.857c1.167,0.167,2.217,1.021,3.37,1.41
	c3.758,1.269,7.135,3.232,10.452,5.303c31.559,15.611,61.49,38.787,98.179,38.082c3.425,0.376,6.862,0.66,10.305,0.85
	c27.533,1.508,55.283-3.194,79.686-17.528c2.624-1.455,5.199-2.976,7.729-4.556c17.708-11.064,33.213-25.082,48.195-40.473
	c2.443-1.728,5.03-3.283,7.815-4.6c3.722-4.128,8.014-7.518,12.979-10.035c0.715-1.435,1.319-2.976,3.179-3.31
	c13.568-16.128,23.527-34.643,32.41-53.269C451.547,372.577,452.75,369.849,453.898,367.086z"/>
<path fill="#E4252B" d="M453.898,367.086c2.579-7.011,4.696-13.758,6.47-21.01c0.686-2.148,1.379-4.286,2.08-6.423
	c0.408-1.239,0.828-2.475,1.243-3.711c-0.153-0.068-0.305-0.122-0.469-0.225c0.056-0.669-0.011-1.383,0.186-2.016
	c1.898-6.118,3.204-12.264,3.988-18.438c0.392-3.087,0.651-6.18,0.793-9.271c0.163-7.853,0.045-14.56-0.545-22.6
	c-3.143-25.887-9.382-49.931-3.854-74.714c0.157-2.73,0.08-5.336-0.196-7.878c-0.275-2.543-0.749-5.025-1.426-7.458
	c-10.977-30.872-39.535-52.283-61.368-75.07c-2.155-2.114-4.348-4.189-6.592-6.211s-4.541-3.992-6.904-5.895
	c-2.311-1.859-1.62-3.517,0.152-5.369c6.247-6.53,12.486-13.042,20.031-18.148c5.065-3.428,10.285-6.543,15.767-9.269
	c3.457-1.719,6.571-8.045,5.745-10.873c-0.958-3.279-5.31-5.778-10.053-5.696c-2.93,0.05-5.859,0.195-8.786,0.319
	c-2.177,0.093-3.83-0.472-5.898-1.732c-8.002-4.879-12.223-12.399-15.753-20.478c-3.369-7.708-8.377-14.28-13.46-20.842
	c-1.228-1.584-2.411-3.186-4.801-2.239c-6.604,2.611-13.441,4.515-19.978,7.408c-11.373,5.032-22.468,10.751-34.59,14.095
	c-3.891,1.073-5.905,0.266-7.943-2.644c-2.373-3.391-4.084-7.214-7.054-10.225c-4.964-5.035-9.802-10.197-14.651-15.344
	c-2.063-2.188-4.565-3.73-7.297-4.803c-3.164-1.243-6.638,1.276-5.438,4.245c1.896,4.688,1.309,9.57,2.231,14.306
	c1.586,8.14,2.21,16.441-0.54,24.642c-1.208,3.604-2.885,5.139-6.915,4.347c-8.851-1.739-17.736-3.442-26.685-4.517
	c-25.969-3.117-51.048-1.51-74.237,12.784c-2.727,1.682-5.452,3.37-8.183,5.068c-28.206,15.697-52.011,35.352-79.137,51.392
	c-2.982,2.401-5.793,4.951-8.438,7.616c-23.811,23.984-34.629,56.625-46.59,87.862c-1.216,2.55-2.22,5.173-3.08,7.845
	c-4.297,13.363-4.97,27.973-10.328,41.114C4.103,274.601,0.891,295.232,0,314.345c0.092,3.403,0.402,6.776,0.911,10.113
	c4.065,26.701,20.816,51.095,39.786,71.149c2.244,2.948,4.407,5.893,6.598,8.819c15.325,20.473,31.926,39.945,56.312,48.421
	c2.744,0.75,5.428,1.683,8.088,2.683c7.982,3,15.756,6.619,24.311,7.857c1.167,0.167,2.217,1.021,3.37,1.41
	c3.758,1.269,7.135,3.232,10.452,5.303c31.559,15.611,61.49,38.787,98.179,38.082c3.425,0.376,6.862,0.66,10.305,0.85
	c27.533,1.508,55.283-3.194,79.686-17.528c2.624-1.455,5.199-2.976,7.729-4.556c17.708-11.064,33.213-25.082,48.195-40.473
	c2.443-1.728,5.03-3.283,7.815-4.6c3.722-4.128,8.014-7.518,12.979-10.035c0.715-1.435,1.319-2.976,3.179-3.31
	c13.568-16.128,23.527-34.643,32.41-53.269C451.547,372.577,452.75,369.849,453.898,367.086z M447.443,356.019
	c-9.829,24.966-27.358,45.404-45.382,65.825c-2.267,2.34-4.587,4.611-6.953,6.833c-1.577,1.479-3.178,2.938-4.797,4.378
	c-14.62,12.54-26.896,26.623-45.054,36.784c-2.216,1.158-4.196,2.982-6.064,4.86c-1.867,1.878-3.623,3.812-5.396,5.19
	c-21.105,10.075-46.676,15.85-70.736,12.931c-3.438-0.418-6.842-1.012-10.201-1.797c-33.076-9.123-59.006-33.712-92.654-40.571
	c-2.45-0.436-4.919-0.804-7.4-1.113c-2.48-0.309-4.971-0.56-7.465-0.762c-8.498-0.689-17.015-1.374-25.446-2.596
	c-2.616-0.378-5.194-0.898-7.732-1.541c-25.104-5.502-43.42-22.084-57.657-42.047c-2.034-2.853-3.984-5.773-5.913-8.737
	c-13.094-18.847-26.5-39.894-28.538-61.674c-0.292-3.111-0.351-6.237-0.144-9.375c5.684-32.689,14.096-63.633,22.48-95.359
	c0.932-3.525,1.863-7.06,2.79-10.608c6.977-27.692,9.598-61.019,27.192-83.667c2.199-2.831,4.633-5.495,7.336-7.959
	c28.78-17.757,55.252-38.353,83.899-54.484c2.509-1.569,4.975-3.149,7.462-4.689c26.115-16.167,54.307-17.197,83.44-11.489
	c5.975,1.171,11.944,2.492,17.979,3.204c4.655,0.549,9.202,0.917,13.202,3.704c1.734,1.207,3.632,1.346,5.353-0.253
	c1.807-1.679,4.112-3.588,2.766-6.141c-2.062-3.912-0.771-7.598-0.229-11.356c0.717-4.96,1.131-9.925,0.58-16.768
	c4.169,5.618,7.434,9.741,10.363,14.088c1.417,2.104,3.097,3.842,5.186,5.05c2.863,1.658,5.816,2.738,8.191-1.1
	c1.183-1.912,3.352-2.866,5.418-3.588c15.002-5.239,29.101-12.561,44.518-19.328c2.396,13.141,8.625,24.902,9.803,38.146
	c0.659,7.371,4.189,9.825,11.665,9.143c5.325-0.486,10.677-0.692,16.02-1.023c1.075-0.472,2.807-1.126,3.154-0.127
	c0.626,1.805-1.481,1.752-2.586,2.314c-10.516,7.182-20.025,15.525-28.617,24.907c-1.269,1.387-2.709,1.956-4.438,2.21
	c-1.488,0.219-2.799,0.88-3.891,1.901c-4.98,4.672-4.964,7.333-0.879,13.079c4.111,5.781,9.429,10.195,14.883,14.465
	c1.817,1.423,3.65,2.829,5.46,4.251c26.104,16.666,54.421,37.804,58.87,69.392c0.488,3.512,0.682,7.154,0.541,10.979
	c2.597,33.729,11.23,66.675,8.237,101.067c-0.48,3.53-1.171,7.009-1.962,10.462c-0.789,3.453-1.682,6.881-2.558,10.312
	c-0.361,5.356-0.714,10.73-2.116,16.025C449.236,351.498,448.618,353.725,447.443,356.019z"/>
<g>
	<g>
		<path fill-rule="evenodd" clip-rule="evenodd" fill="#FFFFFF" d="M224.917,456.927c-11.69-16.955-21.891-37.35-16.395-57.689
			c0.743-3.415,1.62-6.806,2.583-10.154c1.929-6.696,4.213-13.222,6.521-19.414c1.347-3.084,2.653-6.183,3.857-9.32
			c3.605-9.408,6.277-19.171,6.357-29.772c-0.471-1.334-3.609-1.726-4.943-1.255c-5.752,8.557-10.453,17.415-14.84,26.296
			c-1.464,2.963-2.892,5.928-4.313,8.887c-3.223,9.911-7.256,19.435-12.169,28.376c-1.229,2.234-2.512,4.434-3.866,6.593
			c-11.121,17.441-32.457,24.977-50.184,34.235c21.221,11.254,46.716,11.25,68.503,22.892c2.37,1.282,4.689,2.708,6.94,4.307
			c2.25,1.598,4.434,3.368,6.538,5.345c1.804,0.862,4.04,0.822,4.683-1.477C226.385,462.465,226.366,459.758,224.917,456.927z"/>
		<path fill-rule="evenodd" clip-rule="evenodd" fill="#FFFFFF" d="M347.273,72.643c3.075,1.287,5.526,0.132,6.058-3.135
			c1.253-7.684,2.542-15.302,6.047-22.384c0.953-1.922,0.229-3.891-1.417-5.255c-1.422-1.178-3.175-1.347-4.806-0.48
			c-1.706,0.905-3.309,2.016-4.919,3.089c-9.558,6.352-19.415,12.062-30.89,14.236c-3.33,0.631-5.85,2.169-7.17,5.619
			c4.964,3.333,10.033,5.593,16.294,5.385C333.494,69.486,340.577,69.841,347.273,72.643z"/>
		<path fill-rule="evenodd" clip-rule="evenodd" fill="#FFFFFF" d="M328.802,93.113c-5.961-5.305-21.298-12.637-20.197-1.027
			c0.392,3.236,0.714,6.438,0.957,9.608c0.241,3.169,0.403,6.306,0.476,9.411c4.339,29.185-16.249,53.703-21.579,81.082
			c2.667-0.942,4.903-0.981,5.766-2.786c12.156-20.791,22.939-43.346,40.523-60.479c1.901-2.025,3.81-4.042,5.711-6.09
			c4.823-5.453,13.647-12.318,7.684-20.711c-2.746-3.529-6.786-4.353-10.824-5.098C334.653,95.942,331.744,94.616,328.802,93.113z"
			/>
		<path fill-rule="evenodd" clip-rule="evenodd" fill="#FFFFFF" d="M359.455,87.74c1.24,1.02,3.007,1.246,4.005,0.09
			c2.29-2.657,5.376-2.84,8.404-3.65c3.112-0.832,5.08-3.088,3.966-6.611c-1.392-4.393-2.981-8.73-4.617-13.042
			c-0.842-2.22-2.681-3.54-5.013-3.675c-2.473-0.144-2.828,2.251-3.883,3.839c-1.699,6.009-3.403,12.062-5.118,18.114
			C356.55,85.094,357.942,86.498,359.455,87.74z"/>
	</g>
</g>
<g>
	<g>
		<path fill="#931A25" d="M234.295,269.957c-23.291-6.175-45.882,6.302-69.393,6.286c-3.607,0.208-7.215,0.408-10.818,0.594
			c-17.998,0.923-35.916,1.456-53.956-1.378c-3.161-0.126-6.143,0.127-8.966,0.709c-25.393,5.256-37.897,37.12-36.686,64.633
			c1.061,9.375,3.886,17.376,6.64,26.205c1.343,3.472,2.961,6.825,4.828,10.023c9.339,15.983,24.962,28.032,44.204,30.872
			c3.153,1.019,6.079,1.914,8.456,2.601c2.377,0.687,4.207,1.164,5.169,1.353c1.37,2.769,4.321,1.645,6.462,2.519
			c3.764,1.532,7.334,1.819,10.72,1.083c3.385-0.737,6.583-2.496,9.613-5.007c29.508-24.012,50.409-56.139,66.997-88.729
			c1.377-2.373,2.756-4.745,4.129-7.119c6.856-11.873,13.494-23.811,18.492-36.315C241.745,273.436,239.708,270.562,234.295,269.957
			z"/>
		<path fill="#931A25" d="M324.249,383.196c-2.341-2.403-4.45-4.812-6.343-7.267c-1.342-1.764-2.612-3.552-3.84-5.357
			c-6.138-9.026-11.162-18.453-18.095-26.977c-2.093-2.988-4.312-6.17-6.562-9.368c-8.995-12.796-18.438-25.865-21.907-27.979
			c-2.859-2.492-3.748-6.183-5.477-9.327c-4.015-7.3-11.105-7.884-15.932-1.013c-3.321,4.725-5.069,9.843-4.514,15.756
			c0.51,5.468,1.311,10.888,2.238,16.284c0.464,2.698,0.96,5.392,1.467,8.086c1.071,4.502,2.053,9.404,2.131,13.876
			c-0.571,3.053-1.077,6.102-1.512,9.15c-0.436,3.048-0.802,6.093-1.098,9.133c-0.59,3.195-1.102,6.381-1.527,9.553
			c-0.425,3.174-0.768,6.334-1.017,9.481c-3.464,31.716-0.947,72.822,32.394,86.546c2.139,0.744,4.239,0.986,6.327,0.894
			s4.163-0.521,6.249-1.117c2.782-0.385,5.626-0.854,8.484-1.431c2.857-0.576,5.729-1.257,8.568-2.069
			c22.93-8.837,59.836-21.119,57.557-48.811c-0.277-15.65-20.909-18.863-30.922-30.448
			C328.361,387.804,326.211,385.203,324.249,383.196z"/>
		<path fill="#931A25" d="M434.113,252.564c-0.622-2.934-1.201-5.839-1.759-8.735c-0.553-2.891-1.098-5.785-1.634-8.683
			c-2.135-11.59-4.089-23.231-5.644-34.931c-0.853-6.426-1.35-13.107-4.108-19.192c-1.191-2.63-2.486-5.173-4.233-7.306
			c-22.811-12.024-44.661-33.554-69.219-40.968c-3.038,0.378-6.026,0.941-8.81,2.002c-2.782,1.061-5.358,2.62-7.577,4.986
			c-0.513,0.496-7.778,9.855-8.302,10.754c-0.446,0.82-14.542,26.575-20.486,38.978c-2.621,4.666-5.677,9.147-7.776,14.038
			c-7.108,16.54-13.975,33.185-20.712,49.88c-1.717,4.26-2.613,8.851-3.889,13.288c-3.367,4.123-2.337,9.547-4.171,14.168
			c-1.215,3.057-0.103,5.969,1.976,8.765c4.328,5.833,8.62,11.764,12.161,18.082c1.698,3.023,22.395,33.166,30.16,41.206
			c4.208,4.359,13.917,13.242,22.916,21.6c3.003,2.787,5.923,5.516,8.56,8.058c1.828,3.335,3.934,6.063,6.259,8.257
			c2.811,2.12,5.734,3.83,8.733,5.162c27.002,11.983,60.244-6.64,73.091-31.424c3.451-7.218,6.901-14.435,7.104-22.823
			c0.604-3.018,1.112-6.092,1.53-9.211c2.927-21.821,1.433-45.749-2.511-67.079C435.155,257.964,434.628,254.992,434.113,252.564z"
			/>
		<path fill="#931A25" d="M96.01,260.616c10.702-2.293,21.667-4.15,32.619-2.959c21.106,2.299,95.225-0.639,104.284-1.812
			c8.638-1.118,15.952-5.188,21.146-12.963c5.004-7.49,9.916-14.999,14.657-22.667c6.354-10.273,19.505-57.929,20.223-59.468
			c1.875-4.021,2.416-8.359,3.304-12.634c1.771-8.539,6.026-31.239,5.319-34.084c-1.702-6.844-4.309-13.393-6.36-20.113
			c-1.333-4.363-3.271-8.037-6.774-10.9c-3.558-4.411-8.718-5.797-13.809-7.307c-11.04-3.279-36.184-7.822-38.433-7.731
			c-4.381,0.176-8.892-0.387-13.125,0.47c-12.885,2.607-25.833,5.076-37.785,11.052c-4.778,2.387-9.831,4.339-14.93,5.945
			c-3.449,1.085-6.701,2.462-9.735,4.197s-5.852,3.826-8.429,6.339c-14.345,11.854-27.938,23.818-44.17,33.747
			c-2.319,1.418-4.692,2.796-7.128,4.125c-10.629,6.003-19.845,16.006-23.216,27.695c-4.509,13.778-9.738,26.346-15.034,39.23
			c-1.059,2.577-2.122,5.167-3.181,7.781c-5.702,16.927-16.797,47.091,5.719,55.638c4.04,0.823,8.982,2.078,12.605,0.48
			c3.683-0.439,7.401-1.06,11.115-1.767C88.605,262.203,92.312,261.41,96.01,260.616z"/>
	</g>
</g>
<g>
	<path fill="#E4252B" d="M250.167,158.57c-5.085-0.554-10.178-0.33-14.807-3.274c-2.345-1.153-4.522-2.589-6.381-4.25
		c-5.576-4.98-8.291-11.977-4.104-19.425c1.636-2.952,3.694-7.687,6.215-9.664c19.252-13.97,41.455,8.934,53.307,23.919
		c0.836,1.141-0.61,3.953-1.753,4.788c-6.845,5.014-16.046,5.616-24.86,7.537C255.257,158.523,252.707,158.673,250.167,158.57z"/>
	<path fill="#FCD5D5" d="M240.951,152.609c-9.374,0.426-14.945-10.015-11.281-18.229c1.021-1.439,3.239-0.298,3.898,0.602
		c2.035,7.499,8.45,12.481,15.346,14.345c-1.8,1.318-2.82,2.757-5.505,3.068C242.673,152.545,241.854,152.631,240.951,152.609z"/>
</g>
<g>
	<path fill="#E4252B" d="M268.385,191.485c-3.59,3.642-6.577,7.775-11.758,9.576c-2.36,1.123-4.837,1.938-7.293,2.364
		c-7.367,1.281-14.536-0.935-17.777-8.84c-1.298-3.115-3.734-7.667-3.719-10.872c0.998-23.765,32.738-26.956,51.842-26.945
		c1.414,0.053,2.721,2.932,2.668,4.346c-0.319,8.479-5.558,16.066-9.524,24.17C271.508,187.465,270.042,189.558,268.385,191.485z"/>
	<path fill="#FCD5D5" d="M257.991,195.01c-5.484,7.614-17.129,5.501-21.293-2.471c-0.496-1.693,1.777-2.725,2.891-2.683
		c7.143,3.06,15.03,1.123,20.773-3.126c-0.084,2.23,0.41,3.923-1.015,6.22C259.009,193.621,258.569,194.316,257.991,195.01z"/>
</g>
<g>
	<path fill="#E4252B" d="M214.97,188.08c-17.373,10.084-27.422,4.629-34.203-7.659c-2.587-3.211-2.45-7.682-0.985-11.664
		c4.812-11.038,16.125-15.165,26.461-16.637c9.847-0.146,21.978,0.896,30.781,5.64c1.748,1.396,1.701,2.664,1.632,4.899
		c-2.487,5.962-9.423,8.212-13.902,15.605C222.766,181.551,218.711,185.909,214.97,188.08z"/>
	<path fill="#FCD5D5" d="M198.433,171.817c-1.48,2.38-2.456,5.035-3.852,6.782c-4.676,6.568-9.36-1.182-10.131-5.232
		c-0.634-8.52,6.766-16.347,15.287-16.98c5.377-0.283,13.967-3.151,18.23,3.691c-4.958,1.19-10.335,1.472-13.665,5.125
		C202.538,166.76,200.035,169.606,198.433,171.817z"/>
</g>
<g>
	<path fill="#E4252B" d="M250.082,116.093c-4.519-1.93-6.809-4.111-9.552-8.527c-0.888-1.924-1.427-4.011-1.657-6.12
		c-2.954-16.126,16.894-27.79,31.352-21.877c4.994,3.012,8.888,6.794,12.114,10.742c5.103,7.481,8.545,17.842,7.7,26.762
		c-0.319,3.386-0.953,7.033-1.481,9.234c-1.291,5.385-0.798,6.222-4.921,8.409c-8.42,3.335-14.566-10.384-23.414-13.28
		C256.609,119.748,253.17,117.981,250.082,116.093z"/>
</g>
<g>
	<path fill="#E4252B" d="M62.499,210.445c0.858-5.042,0.941-10.14,4.158-14.583c1.293-2.271,2.857-4.357,4.627-6.113
		c5.306-5.267,12.454-7.556,19.637-2.929c2.848,1.812,7.45,4.152,9.272,6.786c12.786,20.059-11.412,40.843-27.083,51.771
		c-1.189,0.765-3.91-0.847-4.675-2.037c-4.593-7.136-4.64-16.354-6.026-25.27C62.238,215.53,62.242,212.974,62.499,210.445z"/>
	<path fill="#FCD5D5" d="M69.001,201.605c0.14-9.382,10.896-14.315,18.875-10.165c1.375,1.106,0.102,3.252-0.836,3.855
		c-7.608,1.58-12.966,7.684-15.242,14.455c-1.208-1.876-2.582-2.981-2.73-5.681C68.962,203.327,68.925,202.506,69.001,201.605z"/>
</g>
<g>
	<path fill="#E4252B" d="M104.902,212.916c2.198-4.394,4.513-6.549,9.088-9.021c1.973-0.77,4.089-1.183,6.208-1.285
		c16.275-1.98,26.723,18.534,19.951,32.609c-3.305,4.804-7.316,8.464-11.451,11.447c-7.775,4.643-18.324,7.457-27.176,6.076
		c-3.361-0.522-6.963-1.373-9.129-2.033c-5.297-1.614-6.162-1.174-8.097-5.418c-2.823-8.604,11.241-13.915,14.665-22.574
		C100.861,219.212,102.833,215.885,104.902,212.916z"/>
</g>
<g>
	<path fill="#E4252B" d="M312.349,431.754c-0.38-5.101,0.018-10.184-2.768-14.909c-1.072-2.383-2.434-4.609-4.03-6.522
		c-4.785-5.743-11.686-8.694-19.273-4.765c-3.005,1.535-7.808,3.431-9.869,5.884c-14.618,18.763,7.514,41.734,22.087,54.092
		c1.111,0.872,3.972-0.477,4.845-1.589c5.244-6.672,6.161-15.846,8.38-24.589C312.128,436.841,312.365,434.297,312.349,431.754z"/>
	<path fill="#FCD5D5" d="M306.707,422.341c0.745-9.354-9.499-15.277-17.834-11.896c-1.475,0.97-0.407,3.227,0.47,3.917
		c7.423,2.289,12.184,8.87,13.812,15.826c1.38-1.754,2.854-2.726,3.255-5.398C306.585,424.059,306.695,423.242,306.707,422.341z"/>
</g>
<g>
	<path fill="#E4252B" d="M344.623,451.085c3.762-3.464,7.994-6.308,9.971-11.425c1.204-2.32,2.104-4.769,2.612-7.209
		c1.533-7.318-0.437-14.558-8.229-18.067c-3.067-1.403-7.535-3.993-10.737-4.088c-23.786,0.187-28.059,31.801-28.699,50.893
		c0.006,1.415,2.837,2.817,4.252,2.812c8.486-0.028,16.247-5.005,24.481-8.693C340.499,454.069,342.64,452.675,344.623,451.085z"/>
</g>
<g>
	<path fill="#E4252B" d="M294.491,393.628c10.674-17.017,5.562-27.247-6.486-34.443c-3.119-2.695-7.594-2.71-11.622-1.383
		c-11.196,4.436-15.706,15.6-17.531,25.881c-0.481,9.835,0.146,21.994,4.588,30.955c1.335,1.794,2.605,1.789,4.84,1.796
		c6.044-2.28,8.527-9.137,16.071-13.36C287.702,401.197,292.196,397.294,294.491,393.628z"/>
	<path fill="#FCD5D5" d="M277.643,373.781c2.429-1.397,6.279,0.483,8.072-0.853c6.724-4.451-0.863-9.395-4.887-10.304
		c-8.491-0.925-16.567,6.204-17.49,14.697c-0.465,5.365-3.627,13.853,3.066,18.346c1.359-4.912,1.825-10.277,5.59-13.482
		C273.61,380.478,275.378,375.308,277.643,373.781z"/>
</g>
<g>
	<path fill="#E4252B" d="M387.807,202.128c-1.782,4.795-4.26,9.251-3.699,14.707c-0.019,2.614,0.29,5.203,0.943,7.608
		c1.959,7.215,6.999,12.775,15.534,12.364c3.371-0.142,8.526,0.138,11.424-1.232c21.108-10.961,10.567-41.068,2.473-58.375
		c-0.646-1.256-3.811-1.223-5.068-0.576c-7.546,3.877-12.203,11.834-17.867,18.857C390.128,197.599,388.852,199.811,387.807,202.128
		z"/>
	<path fill="#FCD5D5" d="M389.013,213.038c-4.576,8.191,2.265,17.848,11.25,18.248c1.746-0.267,1.716-2.763,1.205-3.756
		c-5.793-5.175-7.377-13.143-5.956-20.144c-1.986,1.02-3.729,1.289-5.207,3.551C389.839,211.527,389.397,212.222,389.013,213.038z"
		/>
</g>
<g>
	<path fill="#E4252B" d="M366.528,171.104c-4.862,1.581-9.896,2.401-13.826,6.229c-2.061,1.606-3.899,3.457-5.38,5.461
		c-4.442,6.014-5.669,13.417-0.052,19.854c2.205,2.555,5.186,6.772,8.057,8.193c21.699,9.746,38.76-17.21,47.302-34.298
		c0.585-1.288-1.403-3.743-2.691-4.329c-7.725-3.511-16.854-2.223-25.877-2.304C371.521,170.11,368.993,170.485,366.528,171.104z"/>
</g>
<g>
	<path fill="#E4252B" d="M388.145,244.227c-16.794,11.02-16.412,22.45-8.461,34.013c1.713,3.75,5.771,5.629,9.988,6.101
		c12.024,0.637,20.778-7.631,26.723-16.215c4.538-8.74,9.036-20.053,8.734-30.05c-0.464-2.188-1.621-2.712-3.651-3.651
		c-6.443-0.445-11.56,4.75-20.178,5.446C397.473,240.178,391.76,241.854,388.145,244.227z"/>
	<path fill="#FCD5D5" d="M395.187,269.292c-2.789,0.259-5.505-3.057-7.69-2.589c-7.969,1.242-3.132,8.899,0.145,11.4
		c7.334,4.383,17.645,1.269,22.027-6.067c2.658-4.682,9.069-11.079,4.859-17.954c-3.285,3.898-5.943,8.582-10.702,9.925
		C401.645,264.887,397.881,268.849,395.187,269.292z"/>
</g>
<g>
	<path fill="#E4252B" d="M224.86,213.827c-4.554,0.7-7.143,2.148-10.664,5.52c-1.253,1.542-2.23,3.311-2.93,5.175
		c-6.441,13.958,8.873,29.178,23.381,27.175c5.239-1.57,9.657-4.102,13.507-6.934c6.378-5.607,11.917-14.218,13.229-22.515
		c0.498-3.152,0.773-6.612,0.807-8.734c0.081-5.194,0.724-5.838-2.51-8.785c-6.872-4.99-15.653,6.04-24.363,6.609
		C231.642,212.027,228.106,212.831,224.86,213.827z"/>
</g>
<g>
	<path fill="#E4252B" d="M309.813,284.328c3.986-3.205,7.43-6.965,12.783-8.156c2.475-0.843,5.03-1.366,7.518-1.506
		c7.465-0.422,14.331,2.607,16.638,10.834c0.93,3.244,2.823,8.048,2.439,11.229c-3.736,23.49-35.632,22.995-54.608,20.779
		c-1.396-0.216-2.363-3.227-2.147-4.626c1.297-8.384,7.375-15.317,12.251-22.908C306.245,287.96,307.944,286.051,309.813,284.328z"
		/>
</g>
<g>
	<path fill="#E4252B" d="M273.656,273.935c-0.036-5.114-0.847-10.147,1.543-15.086c0.875-2.461,2.05-4.791,3.484-6.828
		c4.302-6.115,10.938-9.618,18.82-6.32c3.122,1.286,8.063,2.782,10.317,5.059c16.101,17.511-4.088,42.21-17.604,55.711
		c-1.037,0.964-3.996-0.148-4.959-1.187c-5.77-6.221-7.432-15.29-10.356-23.826C274.29,278.985,273.847,276.47,273.656,273.935z"/>
	<path fill="#FCD5D5" d="M278.513,264.093c-1.506-9.262,8.221-16.001,16.804-13.31c1.548,0.847,0.67,3.183-0.147,3.941
		c-7.212,2.888-11.421,9.834-12.478,16.898c-1.518-1.636-3.063-2.482-3.682-5.114C278.774,265.795,278.596,264.992,278.513,264.093z
		"/>
</g>
<g>
	<path fill="#E4252B" d="M314.776,238.239c5.153-19.414,16.117-22.663,29.603-18.769c4.099,0.442,7.163,3.7,8.941,7.55
		c4.402,11.208-0.678,22.126-6.946,30.475c-6.859,7.066-16.174,14.907-25.753,17.779c-2.224,0.247-3.086-0.683-4.619-2.312
		c-2.456-5.975,0.856-12.471-1.205-20.865C313.88,248.369,313.668,242.42,314.776,238.239z"/>
	<path fill="#FCD5D5" d="M337.968,238.044c-0.634-2.729-1.822-5.296-2.07-7.518c-1.338-7.951,7.454-5.783,10.863-3.464
		c6.474,5.577,6.775,16.344,1.197,22.816c-3.602,4.002-7.647,12.104-15.5,10.28c2.665-4.346,6.267-8.349,6.038-13.287
		C338.642,244.523,338.4,240.741,337.968,238.044z"/>
</g>
<g>
	<path fill="#E4252B" d="M340.851,313.97c4.562-1.83,7.722-1.906,12.785-0.725c1.987,0.733,3.845,1.827,5.5,3.155
		c13.491,9.314,7.703,31.597-6.7,37.639c-5.661,1.403-11.089,1.481-16.163,0.973c-8.897-1.685-18.658-6.575-24.367-13.479
		c-2.168-2.622-4.299-5.647-5.482-7.578c-2.894-4.721-3.834-4.965-2.466-9.426c3.595-8.312,17.642-2.958,25.947-7.166
		C333.651,316.001,337.332,314.818,340.851,313.97z"/>
	<path fill="#FCD5D5" d="M350.287,318.955c-0.513-1.282-1.468-1.574-2.131-2.825c9.19,0.728,19.273,12.188,11.269,21.238
		c-1.543,1.619-3.085,3.237-5.291,3.607c1.098-6.985,2.855-12.723-0.945-19.241C352.157,320.722,351.144,319.792,350.287,318.955z"
		/>
</g>
<g>
	<path fill="#E4252B" d="M137.58,350.913c3.205,3.988,6.965,7.432,8.156,12.785c0.842,2.475,1.367,5.029,1.506,7.518
		c0.422,7.465-2.607,14.331-10.835,16.638c-3.243,0.929-8.047,2.823-11.228,2.438c-23.491-3.735-22.996-35.632-20.78-54.607
		c0.215-1.397,3.227-2.363,4.626-2.146c8.385,1.295,15.317,7.374,22.908,12.25C133.949,347.348,135.858,349.045,137.58,350.913z"/>
	<path fill="#FCD5D5" d="M139.884,361.645c6.928,6.326,3.484,17.649-4.914,20.866c-1.74,0.298-2.502-2.079-2.332-3.183
		c3.865-6.739,2.852-14.799-0.708-20.993c2.206,0.339,3.944,0.045,6.062,1.724C138.619,360.473,139.259,360.992,139.884,361.645z"/>
</g>
<g>
	<path fill="#E4252B" d="M133.251,302.959c19.415,5.152,22.664,16.115,18.77,29.601c-0.442,4.099-3.7,7.163-7.551,8.943
		c-11.209,4.401-22.127-0.68-30.476-6.948c-7.067-6.858-14.908-16.173-17.778-25.752c-0.247-2.223,0.683-3.087,2.311-4.619
		c5.975-2.456,12.47,0.856,20.866-1.205C123.122,302.062,129.071,301.849,133.251,302.959z"/>
	<path fill="#FCD5D5" d="M133.447,326.149c2.729-0.635,5.297-1.822,7.518-2.07c7.952-1.339,5.782,7.454,3.464,10.863
		c-5.577,6.473-16.343,6.775-22.816,1.197c-4.001-3.602-12.104-7.647-10.281-15.5c4.347,2.665,8.35,6.267,13.287,6.038
		C126.968,326.824,130.75,326.581,133.447,326.149z"/>
</g>
<g>
	<path fill="#E4252B" d="M100.17,325.606c1.831,4.562,1.906,7.723,0.724,12.785c-0.733,1.988-1.826,3.845-3.155,5.5
		c-9.314,13.491-31.596,7.703-37.639-6.7c-1.403-5.661-1.481-11.088-0.972-16.163c1.684-8.896,6.575-18.658,13.479-24.367
		c2.621-2.167,5.647-4.3,7.578-5.483c4.721-2.894,4.964-3.833,9.426-2.465c8.311,3.595,2.957,17.643,7.166,25.947
		C98.139,318.407,99.321,322.088,100.17,325.606z"/>
	<path fill="#FCD5D5" d="M95.185,335.043c1.282-0.513,1.575-1.468,2.825-2.13c-0.728,9.19-12.188,19.272-21.238,11.268
		c-1.619-1.542-3.237-3.085-3.607-5.29c6.986,1.096,12.722,2.854,19.241-0.946C93.417,336.913,94.348,335.898,95.185,335.043z"/>
</g>
</svg>
