<?xml version="1.0" encoding="utf-8"?>
<!-- Generator: Adobe Illustrator 16.0.0, SVG Export Plug-In . SVG Version: 6.00 Build 0)  -->
<!DOCTYPE svg PUBLIC "-//W3C//DTD SVG 1.1//EN" "http://www.w3.org/Graphics/SVG/1.1/DTD/svg11.dtd">
<svg version="1.1" id="Layer_1" xmlns="http://www.w3.org/2000/svg" xmlns:xlink="http://www.w3.org/1999/xlink" x="0px" y="0px"
	 width="500px" height="500px" viewBox="0 0 500 500" enable-background="new 0 0 500 500" xml:space="preserve">
<path fill="#929292" d="M486.13,75.12c-5.19-25.15-22.601-47.34-45.721-58.5c-12.199-6.04-25.87-8.86-39.46-8.62
	C296.96,8.02,192.97,8,88.97,8.01c-3.52,0.03-7.05,0.221-10.55,0.65C55.3,11.36,33.67,24.23,20.1,43.12
	C9.63,57.49,3.94,75.219,4,92.99C4.01,198,3.98,303.02,4.02,408.03c0.07,24.1,11.16,47.82,29.49,63.44
	c15.24,13.25,35.35,20.649,55.53,20.539C194.02,492,299,492.03,403.97,492c24.59-0.06,48.77-11.59,64.39-30.55
	c12.68-15.1,19.75-34.74,19.641-54.46c0-99.99,0-199.98,0-299.98C487.93,96.37,488.55,85.58,486.13,75.12z M432.248,150.48
	c-1.199,1.869-1.729,4.029-2.17,6.18c-3.779,4.25-7.35,8.8-10.1,13.77c-7.96,6.391-15.26,13.771-24.21,18.83
	c-4.24,2.49-9.41,1.05-13.81,3.04c-3.7,1.42-9.2,2.12-10.301,6.65c-1.06,3.32,2.94,4.21,5.011,5.59
	c8.909,4.44,14.27,13.25,18.609,21.84c0.05,2.05,0.05,4.11,0.01,6.17c-1.569,2.61-2.71,5.46-4.489,7.94
	c-1.79,2.2-4.261,3.68-6.471,5.399c-4.47,0.29-9.06,0.761-13.399-0.64c-1.25-3.36-3.82-5.85-6.311-8.3
	c-2.34-2.26-3.08-5.82-6.02-7.48c-0.79,5.32-0.43,10.761-1.51,16.051c-2.36,13.399-0.561,27.06-1.98,40.529
	c-0.75,15.74-2.56,31.381-4.42,47.021c-0.57,4.37-0.43,8.81-1.36,13.13c-2.489,12.87-2.909,26.17-6.88,38.73
	c-2.64,3.92-5,8.279-8.85,11.18c-3.25,2.74-6.33,5.77-10.1,7.8c-3.2,1.19-6.471,2.2-9.48,3.84c-5.25,0.41-10.02,2.851-15.23,3.49
	c-9.35,2.61-19.09,3.72-28.149,7.33c-7.521,4.1-16.15,7.35-21.021,14.9c-0.75,0-1.5,0.01-2.25,0.029
	c-0.159-1.229-0.319-2.439-0.47-3.649c-5.45-5.33-12.3-8.96-19.55-11.16c-4.15-0.99-8.271-2.101-12.41-3.141
	c-6.05-2.029-11.99-4.649-18.37-5.5c-1.29-0.18-2.399-0.869-3.55-1.409c-2.37-0.49-4.75-1.08-6.9-2.24
	c-5.699-3.03-12.409-3.57-17.92-7.04c-8.52-4.601-15.279-12.2-19.409-20.91c-4.391-11.71-6.851-24.07-8.12-36.47
	c-2.13-6.7-1.311-13.8-2.48-20.641c-1.52-9.05-0.84-18.25-1.01-27.37c0.2-9.68-0.63-19.35-0.101-29
	c-0.449-4.66-0.409-9.359-1.229-13.97c0.77-2.979-0.39-5.95-0.41-8.94c-0.17-6.739-0.2-13.489-0.14-20.229
	c-1.48,0.32-3.16,0.28-4.36,1.33c-2.979,2.22-6.54,3.75-8.75,6.87c-0.56,0.12-1.68,0.35-2.24,0.47c-0.39,0.38-1.18,1.13-1.569,1.5
	c-2.94,0.21-5.851,0.8-8.801,0.86c-4.75-0.49-8.05-5.25-8.029-9.82c0.09-2.16-0.851-5.28,1.729-6.31
	c3.75-1.96,7.65-3.631,11.42-5.54c1.44-0.94,0.74-2.75,0.74-2.75c0.01-2.221,0.03-4.431,0.05-6.65c-0.779-0.78-1.569-1.56-2.35-2.33
	c-3.811-1.25-7.62-2.64-11.69-2.55c-7.77-1.82-15.63-4.09-22.39-8.48c-5.23-4.479-8.34-10.979-10.37-17.439
	c-0.28-6.5-1.95-13.01-0.71-19.5c0.85-4.83-0.22-9.86,1.28-14.58c1.09-3.101,1-6.41,1.609-9.601c1.021-3.42,3.021-6.46,4.101-9.869
	c1.49-2.79,1.74-6.61,4.74-8.301c5.34-3.43,11.93-1.59,17.88-2.02c5.239-0.43,9.68,3.06,13.25,6.47
	c3.109,2.63,3.229,7.181,6.12,9.96c3.279,3.12,4.31,7.66,6.68,11.36c4.89,5.34,11.35,8.87,17.71,12.17
	c2.28,1.13,4.82,1.57,7.28,2.15c1.109-5.46-0.271-11.051-2.17-16.171c-2.08-5.6-1.33-12.17,2.09-17.05
	c2.92-2.439,6.68-3.779,9.08-6.88c1.88,0.01,3.76,0.03,5.649,0.07c0.69,0.6,1.38,1.2,2.08,1.8c1.91,0.19,3.82,0.46,5.681,0.95
	c1.14,2.6,3.13,4.67,4.47,7.14c0.3,1.62,0.319,3.271,0.43,4.91c1.73,2.74,3.49,5.46,5.29,8.15c-0.189,5.989,3.17,11.13,4.26,16.85
	c0.811,3.79-0.899,8.18,1.801,11.43c0.199,0.98,0.399,1.95,0.6,2.931c3.93,5.75,7.54,11.79,12.54,16.699
	c3,3.011,5.26,8.15,10.2,7.881c7.3,2.71,15.31,3.64,23.06,2.85c2.03-0.17,3.69-1.5,5.38-2.52c5.87-1.641,11.73-4.301,15.681-9.101
	c1.88-1.76,1.819-4.64,3.439-6.52c1.19-0.301,2.4-0.54,3.62-0.721c0.05,1.69,0.11,3.38,0.19,5.07c1.199,1.15,1.89,2.63,2.369,4.19
	c3.12,3.359,6.82,6.59,11.511,7.35c10.33,1.62,20.83,0.96,31.25,1.36c1.56-3.11,4.899-4.771,6.39-7.91
	c1.43-2.771,3.77-4.91,5.53-7.46c0.37-1.53,0.68-3.12,1.569-4.45c4.561-6.86,6.53-14.97,9.271-22.64c1.43-3.69,1.59-7.7,2.189-11.58
	c-0.26-3.79-0.84-7.561-0.92-11.36c-1.409-1.69-2.659-3.5-3.779-5.38c2.35-6.01,7.409-10.24,12.409-14.03
	c3.591,0.04,7.211-0.31,10.79,0.17c2.36,0.561,4.62,1.46,6.99,2c2.21,2.271,4.47,4.851,4.771,8.16
	c0.739,7.19-0.74,14.59-4.141,20.97c-1.08,1.761-1.069,3.79-0.68,5.761c-1.97,6-3.74,12.06-5.24,18.189
	c4.141-0.72,7.11-3.89,10.58-5.979c3.95-3.051,8.09-5.91,11.63-9.44c5.23-5.979,7.391-13.8,11.44-20.51
	c0.08-0.62,0.25-1.88,0.33-2.5c3.33-5.49,4.069-12.07,7.62-17.44c0.439-2.14-0.61-5.3,1.909-6.37c1.79-0.939,3.78-1.39,5.71-2
	c4.09,1.36,8.971,1.46,12.051,4.881c3.539,3.029,6.609,6.5,8.85,10.609c2.32,4.67,3.55,9.79,4.79,14.84
	c2.05,3.9,3.6,8.04,3.91,12.471C432.378,142.63,432.779,146.559,432.248,150.48z"/>
</svg>
