<?xml version="1.0" encoding="utf-8"?>
<!-- Generator: Adobe Illustrator 19.1.1, SVG Export Plug-In . SVG Version: 6.00 Build 0)  -->
<svg version="1.1" id="Layer_1" xmlns="http://www.w3.org/2000/svg" xmlns:xlink="http://www.w3.org/1999/xlink" x="0px" y="0px"
	 viewBox="0 0 471.5 444.4" style="enable-background:new 0 0 471.5 444.4;" xml:space="preserve">
<style type="text/css">
	.st0{fill:#D3D3D3;}
	.st1{fill:#595959;}
	.st2{fill:#B7410E;}
	.st3{fill:#FFFFFF;}
</style>
<g>
	<path d="M382.5,395.4c1.9,0.6,3.7,1,5.4,1.7c1.6,0.6,2.7,1.8,2.7,3.7c0,1.8-1.3,2.9-2.8,3.6c-2.2,1.1-4.6,1.3-7,1.1
		c-2.6-0.2-4.8,0.4-7.1,1.7c-2.1,1.2-4.4,2.2-6.6,3.6c1.4,0.1,2.9,0.4,4.3,0.4c5,0,9.9-0.3,14.9-0.1c3.8,0.1,6.6,2.1,8.8,5.1
		c0.9,1.2,1.1,2.6,0.8,4.1c-0.7,3.3-2.6,4.5-5.8,3.2c-4.2-1.7-8.4-3.1-12.9-3.7c-3.8-0.5-7.6-0.8-11.8-0.2c0.7,0.6,1.1,1.1,1.6,1.4
		c3.9,2.9,4.1,7.2,3.2,10.8c-0.5,1.9-2.1,3-3.8,3.1c-1.9,0-3.1-1-3.8-3c-0.3-0.9-0.7-1.8-1.3-2.5c-3.1-4.2-6.8-7.3-12.4-7.5
		c-1.7-0.1-3.5-0.5-5.1-1.1c-1.1-0.4-2.2-1.4-2.9-2.3c-0.8-1.1-1.3-2.5-1.8-3.9c-1.2-3.5-2.2-7-3.4-10.5c-0.5-1.3-1.3-2.5-2.1-3.7
		c-0.8-1.1-1.9-2-2.6-3.1c-1-1.6-2.3-2.3-4.1-2.5c-2.4-0.2-4.9-0.6-7.4-1c-0.2,0.8-0.4,1.5-0.5,2.2c-0.9,3.3-2.6,5.9-5.4,8
		c-4.6,3.4-9.8,5-15.2,6.1c-9.6,2-19.3,3.8-28.9,5.7c-1.5,0.3-2.9,0.8-4.1,1.8c-2,1.8-4.4,2-6.9,0.9c-0.3-0.1-0.6-0.1-1,0.2
		c1.1,0.5,2.1,1.1,3.2,1.4c2.8,1,5.6,1.9,8.4,2.8c2.2,0.7,3.9,2.1,5.1,4.2c2.1,3.8-0.6,7.9-4,8.2c-1.3,0.1-2.6-0.4-4.3-0.6
		c0.2,0.8,0.4,1.5,0.7,2.2c0.9,2.2,0.1,4.2-1.4,5.7c-1.5,1.5-3.6,2.2-5.7,1c-1-0.5-1.9-1.1-2.8-1.9c-3.7-3.3-7.4-6.7-11.6-9.2
		c-4-2.4-8.1-4.8-12.2-7.2c-0.8-0.5-1.4-0.6-2.2-0.2c-1.5,0.7-3,0.8-4.7,0.3c-1.3-0.3-2.8-0.5-4-0.2c-2.5,0.7-4.7,0.4-7-1
		c-2.7,1.9-5.4,3.8-8.1,5.6c-4.9,3.4-9.3,7.3-13.1,11.9c-2.2,2.8-5.3,3.5-7.8,2c-2.1-1.3-3.1-3.5-2.6-5.9c0.2-0.8,0.3-1.5,0.6-2.6
		c-0.9,0.4-1.4,0.6-2,0.8c-2.3,1-4.2,0.3-5.9-1.2c-1.7-1.6-2-4-1.1-6.2c1.1-2.5,2.9-4.1,5.4-5.1c3.3-1.3,6.4-2.8,9.6-4.3
		c0.2-0.1,0.3-0.3,0.4-0.8c-0.8,0.3-1.6,0.6-2.4,0.9c-2.2,0.8-4.3,0.4-5.7-1.4c-1.2-1.5-2.6-2-4.3-2.3c-9.9-1.9-19.8-3.9-29.7-5.8
		c-5.5-1.1-10.6-2.9-15.2-6.3c-3.6-2.7-5.3-6.6-5.7-10.9c-0.1-1.8,0.5-3.6,1.1-5.4c0.8-2.7,1.8-5.4,2.8-8.1
		c-0.2-0.1-0.3-0.3-0.5-0.4c-0.3,0.5-0.6,1.1-1,1.5c-6.2,7.3-12.4,14.6-18.6,22c-1.2,1.4-2.1,3-2.5,4.9c-0.4,2.3-1,4.5-1.6,6.8
		c-0.4,1.4-1,2.7-1.5,4c-0.8,1.8-2.2,2.8-4.2,3.1c-2.3,0.3-4.5,0.9-6.8,1.4c-2.3,0.5-4.4,1.2-5.9,3.2c-0.8,1.1-2,1.8-2.8,2.9
		c-0.8,1-1.4,2.2-1.8,3.3c-0.8,2-1.9,3.1-3.8,3c-1.8,0-3.4-1.2-3.9-3c-0.9-3.5-0.8-7.8,3.1-10.8c0.4-0.3,0.9-0.7,1.8-1.4
		c-1.5-0.2-2.5-0.3-3.6-0.3c-7.3-0.1-14.3,1.2-21,4.1c-1.5,0.7-3.1,1.1-4.5-0.2c-1.5-1.4-2-3.4-1.4-5.3c0.5-1.4,1.4-2.8,2.4-3.7
		c2.4-2.2,5.3-3.4,8.7-3.2c4.7,0.3,9.4,0.2,14.1,0.2c1.1,0,2.2-0.2,3.8-0.4c-1.8-0.9-3.1-1.6-4.5-2.3c-0.7-0.4-1.5-0.6-2.2-1
		c-2.5-1.5-5-2.2-8-1.9c-1.6,0.2-3.3-0.2-5-0.5c-0.7-0.1-1.4-0.4-2-0.8c-3.2-1.8-3.2-5.2,0.1-6.9c1.5-0.7,3.2-1,4.8-1.4
		c0.8-0.2,1.7-0.2,2.9-0.3c-0.6-0.7-1.1-1.1-1.5-1.5c-1.8-1.8-2.4-4.3-1.5-6.1c0.9-1.9,3-2.8,5.8-2.4c1.6,0.3,3.2,0.5,4.7,1
		c1.4,0.5,2.1,0,2.8-1c0.9-1.1,1.8-2.2,2.8-3.3c1.3-1.4,2.9-2.1,4.9-2c2.5,0.1,5,0.1,7.4,0.2c1.1,0.1,1.8-0.3,2.4-1.2
		c4-6.8,8.2-13.5,11.9-20.5c7.9-15,15.6-30.1,23.1-45.3c5.6-11.3,10.8-22.9,16-34.4c4.3-9.4,8.8-18.6,14.4-27.3
		c0.7-1.1,1.5-2.3,2.4-3.6c-0.7-0.5-1.3-1-1.9-1.4c-12.1-7.4-23.1-16.1-33.2-26c-14.2-13.8-26.1-29.4-35-47.1
		c-3.9-7.7-7.1-15.5-9.6-23.7c-0.5-1.6-1.3-2.1-2.8-2.3c-18-1.7-33.8-8.6-47.1-20.9c-7.3-6.7-13.1-14.4-17.9-23
		C7.3,91,3.4,77.2,1.5,62.8c-0.7-5.4-1-10.8-1.4-16.2c-0.2-2.6-0.2-2.6,2.2-3.8c7-3.5,13.9-7.1,21.1-10.4
		c13.6-6.2,27.6-11.1,42.3-13.5c15.7-2.6,31.2-2.5,46.5,2.1c10.9,3.2,20.9,8.3,30.2,14.8c2.6,1.8,5.2,3.7,7.8,5.6
		c1.1,0.8,2.2,1.1,3.4,0.5c2.1-1,4.1-2.1,6.2-3.3c-1.6-4.3-2.1-8.6-1.7-13c0.5-5.5,1.9-10.9,4.7-15.7c1.1-1.9,2.3-3.6,4.6-4.3
		c1.9,16.7,10.2,19.8,19.8,21c-1.3-5.3,0.6-9.9,2.8-14.4c1.6-3.2,3.5-6.3,5.2-9.4c0.5-0.8,1.1-1.5,1.9-2.7c0.5,1.4,0.8,2.5,1.3,3.5
		c1,2.4,2,4.9,3.3,7.2c3.4,6,9,8.7,15.6,9.4c6.5,0.7,13,1.3,19.6,1.9c10.9,0.9,21.5,3.2,31.7,7c4.8,1.8,9.5,3.7,14.3,5.6
		c2.5,1,4.9,0.9,7.1-0.5c11.1-6.8,23.3-10.8,36.1-13.1c11-2,22.1-2.4,33.2-1.8c13.3,0.7,26.3,3.1,39.2,6.5c15.9,4.3,31.2,10,46,17.1
		c0.9,0.4,1.8,0.8,2.6,1.2c2,1,2.2,1.1,1.9,3.3c-0.8,5.9-1.4,11.8-2.6,17.5c-2.7,13.8-7.5,26.9-14.6,39.1
		c-8,13.7-18.5,24.8-32.4,32.6c-9.7,5.4-20.1,8.7-31,10.1c-1.8,0.2-2.9,0.8-3.3,2.7c-0.3,1.4-0.9,2.7-1.5,4.3
		c0.6-0.2,0.9-0.2,1.1-0.3c10.3-5.7,21.5-8,33.2-8.3c13.5-0.3,26.2,2.7,38.1,8.8c6.5,3.3,12,7.9,16.4,13.7
		c4.8,6.3,8.8,13.2,12.3,20.2c1,1.9,0.9,3.7-0.5,5.3c-0.6,0.7-1,1.4-1.6,2.1c-3.8,3.9-7.7,7.7-11.5,11.5
		c-6.4,6.3-14.1,9.8-22.8,11.3c-3.8,0.7-7.6,0.9-11.5,0.7c-4.3-0.2-8.6-0.4-12.9-0.5c-2.4-0.1-4.8,0.2-7.2,0.2
		c-3.2,0-5.8,1.5-8.1,3.6c-2.5,2.3-4.2,5-5.3,8.2c-1.2,3.5-1.2,6.9,0.1,10.3c1.5,4,3.7,7.5,7.1,10c1.8,1.3,3.6,2.7,5.5,3.9
		c9.1,5.9,18.3,11.8,27.9,16.9c10.4,5.6,20.4,12,29.8,19.3c6.4,5,11.7,10.9,14.9,18.4c1.9,4.5,3,9.1,3.2,13.9
		c1,21.8-8.1,38.7-25.2,51.6c-7.2,5.5-15.3,8.9-23.9,11.4c-12.4,3.7-25.1,6.5-37.8,8.7C383.9,395,383.2,395.2,382.5,395.4z
		 M212.3,132.7c-0.2-0.9-0.4-1.6-0.5-2.3c-0.4-2.6-0.6-5.2-1.1-7.8c-1.8-10.4-4.8-20.4-10.4-29.4c-4.9-8-11.3-14.4-19.8-18.7
		c-2.3-1.2-4.7-2.2-7.5-2.6c-3.3,7.2-6.6,14.3-10,21.6c-1-0.8-1.8-1.4-2.5-2.1c-2-1.8-4-3.7-6-5.5c-4.2-4-9.6-5.5-15.2-7
		c-2.7,7.6-4.6,15.1-3.9,23.3c-6.5-2.6-12.6-5.7-19.8-6.8c0.3,7.4,0.7,14.3,2.2,21.4c-6.1,0.3-12,0.5-18.1,0.8
		c0.6,9.2,2.6,18,6.4,26.3c-3.3,0-6.4-0.2-9.5-0.1c-3.1,0-6.1,0.1-9.4,0.7c0.5,1.6,0.8,2.9,1.2,4.2c6,18.8,15.5,35.7,27.9,51
		c13,16.1,28.2,29.6,45.7,40.6c14.1,8.9,29,15.8,45.4,19.4c9,2,18,2.6,27.1,0.9c11.5-2.1,22.3-6.4,32.5-11.8
		c19.2-10.1,36-23.4,51.1-38.9c10.5-10.8,19.8-22.6,27.6-35.6c5.4-9,10-18.4,13.3-28.4c0.2-0.7,0.4-1.5,0.7-2.5
		c-7.7-1.1-15.4-1.4-23.3-2.6c6.3-7.1,11.2-14.4,12-24c-6.7-2.1-13.4-1.8-20.1-0.4c0.9-3.9,1.9-7.5,2.7-11.2
		c0.7-3.7,1.5-7.4,1.2-11.3c-8.3,0-15.2,3.2-22.4,7.1c0.2-1.2,0.3-2,0.5-2.8c0.6-3.9,1.4-7.9,0.7-11.9c-0.7-4.1-1.6-4.8-5.5-4
		c-7.9,1.7-14.9,5.3-21,10.5c-0.6,0.5-1.2,0.9-1.8,1.4c-0.2-0.4-0.4-0.5-0.4-0.6c-1.8-7.6-6-13.9-10.9-19.8c-0.9-1-1.7-1.4-3.1-1.1
		c-4,1-7.6,2.9-10.8,5.5c-5.3,4.4-9.2,10-12.3,16.1c-6,11.6-9.6,24-12.1,36.8c-0.2,0.9-0.4,1.8-0.7,3
		C225.8,133.9,219.1,133.3,212.3,132.7z M347.7,371c0.6,1.1,1,2,1.5,2.9c0.9,1.4,2,2.8,2.7,4.3c1,2.2,2.6,2.5,4.7,2.4
		c2.3-0.2,4.6-0.2,6.9-0.1c0.9,0,1.9,0.4,2.6,1c1.4,1.2,2.7,2.5,3.8,3.9c0.9,1.1,1.7,1.7,3.2,1.1c1.6-0.5,3.3-0.7,4.9-1
		c1.7-0.3,3.4,0,4.7,1.3c0.7,0.7,1.4,0.9,2.3,0.8c11.9-2.2,23.7-4.7,35.2-8.2c6.5-2,12.9-4.3,18.6-8.1
		c16.8-11.3,26.2-26.5,25.5-47.3c-0.4-9.7-4.4-17.8-11.6-24.2c-6.8-6-14.2-11.2-22-15.8c-12-7.1-24.5-13.6-36.1-21.5
		c-3.2-2.2-6.6-4.3-9.6-6.7c-5.1-4.1-8.4-9.5-9.6-15.9c-1.8-9.1,1.4-16.7,7.9-23c3.6-3.5,7.8-5.2,12.9-5.5
		c6.7-0.4,13.4,0.4,20.1,0.3c3.6,0,7.2-0.2,10.7-0.7c7.1-1,13.3-4,18.4-9.1c3.6-3.6,7.3-7.2,10.9-10.8c0.4-0.4,0.6-0.9,0.9-1.3
		c-3.5-6.8-7.3-13.2-12.1-19.1c-2.9-3.7-6.4-6.7-10.5-9c-14.8-8.4-30.7-10.9-47.5-8.5c-10.7,1.5-20.1,6.1-28.6,12.6
		c-0.8,0.6-1.5,1.6-2.1,2.5c-4.1,6.7-7.8,13.6-12.2,20.1c-6.2,9.2-13.3,17.6-21,25.5c-1.4,1.4-2.3,3-3,4.9c-2.9,8.5-3.8,17.1-2.8,26
		c1.4,12.2,5.4,23.3,14,32.4c5,5.4,10,10.9,16.1,15c8.5,5.7,17.4,10.8,26.8,14.9c7.7,3.4,15.2,7,22.9,10.5c5,2.3,9.3,5.4,12.3,10
		c3.9,5.8,4.3,11.9,1,18.1c-1.8,3.3-4,6.2-7,8.4c-3.2,2.3-6.5,4.4-9.9,6.2c-11.6,6.1-24.2,9.1-37.2,10.1
		C353.8,370.7,350.9,370.8,347.7,371z M318.2,89.9c1.7-0.1,2.3-0.9,2.3-2.2c0.1-1.6,0.1-3.2,0.3-4.8c1.5-11.4,6-21.5,12.9-30.6
		c7.4-9.6,17.4-15.1,28.8-18.3c8.8-2.5,17.8-3.1,26.9-2.2c0.6,0.1,1.2,0.2,1.6-0.7c-0.8-0.2-1.5-0.4-2.2-0.6
		c-7.4-1.3-14.8-2.7-22.2-3.7c-5.6-0.7-11.3-1.1-17-1c-6,0.1-12,0.6-17.9,1.4c-12.2,1.5-23.8,4.9-34.6,10.7
		c-1.2,0.7-2.4,1.5-3.8,2.3c4.3,3.8,8.4,7.4,12.5,11c-0.4,0.2-0.6,0.2-0.8,0.1c-6.4-2.9-12.7-5.9-19.1-8.8
		c-10.5-4.7-21.2-8.9-32.4-11.7c-8.8-2.2-17.8-2.8-26.8-3.6c-5.6-0.5-11.2-0.9-16.6-2.4c-5.5-1.6-10-4.6-13-9.6
		c-0.3-0.4-0.6-0.8-1-1.4c-1.5,1.8-2.1,3.8-2.5,5.8c-0.9,4.5,0.4,8.7,2.9,12.6c-1,0.2-1.8,0.5-2.6,0.5c-7.2,0.7-14-0.7-20.4-4
		c-3.5-1.8-6.2-4.4-8.2-7.9c-1.9,7.5-2.3,14.7,4.2,20.6c-12.8,4.5-24.1,11.5-35.6,18.2c1.8-2.3,3.6-4.6,5.6-6.7
		c1.9-2.1,4.1-4,6.2-6.1c-0.7-0.6-1.1-1-1.6-1.4c-3.1-2.2-6.1-4.4-9.3-6.4c-16.3-10.6-34.1-15.7-53.6-14.9
		c-14.8,0.7-28.9,4.3-42.7,9.4c-0.3,0.1-0.5,0.4-0.8,0.6c1.5,0.2,2.8,0.1,4.1,0c5.9-0.4,11.8-1.2,17.7-1.2
		c7.7,0.1,15.3,1.1,22.7,3.4c10.4,3.2,19.5,8.5,27.1,16.2c8.7,8.8,13.3,19.6,14.5,31.9c0.2,2,0.4,4.1,0.6,6.2c1.5,0.5,2.9,1,4.5,1.5
		c1.3-7.6,3.5-14.6,6.5-21.5c4.6,1.4,9.1,2.8,13.5,4.2c4.6,1.4,8.2,4.4,11.9,7.5c2.9-6.2,5.6-12.1,8.3-18
		c9.8,0.8,18.1,5.4,24.5,10.7c6.8,5.7,11.9,12.7,15.8,20.6c4.1,8.2,6.6,17,8,26c0.3,1.6,0.5,3.1,0.8,4.7c2.7,0.3,5,0.5,7.4,0.7
		c1,0.1,1.7-0.2,1.9-1.3c0.1-0.6,0.3-1.2,0.4-1.9c2-9,4.8-17.7,8.4-26.2c3.2-7.5,7.3-14.4,12.8-20.4c3.3-3.6,7.2-6.5,11.7-8.7
		c3.2-1.5,6.6-2.2,10.1-2.9c1.5-0.3,2.4,0.1,3.3,1.2c4.2,5,8.3,10,11.2,15.8c0.1,0.2,0.3,0.4,0.5,0.6c0.5-0.2,1-0.4,1.5-0.7
		c6.8-4,14.1-6.9,22.1-7.3c1,0,2.4,0.1,3.1,0.8c2.9,2.8,4.9,6.1,5.2,10.2C317.9,87.6,318.1,88.7,318.2,89.9z M183.7,367.7
		c-0.2-1.5-0.5-2.6-0.6-3.8c-1.4-12.2-2.6-24.5-1.5-36.8c1.1-12.3,4.4-23.9,11.1-34.3c3.8-6,8.5-11.2,14.8-14.8
		c10.1-5.8,20.2-5.9,30.3-0.3c7.3,4,12.5,10.2,16.6,17.2c7.6,13.2,10.5,27.5,10.1,42.6c-0.3,10.2-1.3,20.3-3.6,30.2
		c-0.1,0.3,0,0.7,0.1,1.2c4.6-1.8,8.9-3.9,13.4-5.2c4.6-1.4,9.4-2.1,14.2-3.2c-0.1-0.5-0.1-0.9-0.2-1.4c-3.4-16.5-6.9-33-10.3-49.5
		c-1.7-8.3-3.3-16.6-4.8-24.9c-0.7-3.6-1.3-7.2-1.9-10.9c-0.2-1.1-0.4-2.4,1.2-3.2c0.5,0.9,1,1.7,1.3,2.6c0.6,1.8,1.2,3.6,1.7,5.5
		c2.4,8.9,4.8,17.7,7.2,26.6c1.7,6.3,3.3,12.7,5,19c1,3.7,1.9,7.4,2.9,11.1c0.3,1,0.8,2.1,1.5,3c4,5.2,7.9,10.5,12.1,15.5
		c9.8,11.8,19.8,23.5,29.6,35.3c0.5,0.5,0.9,1,1.5,1.7c2.1-2,4.5-2.9,6.9-2.7c1.3-2.1,2.4-3.9,3.6-5.9c-0.4-0.8-0.9-1.8-1.4-2.8
		c-4.1-7.5-8.2-15-12.2-22.6c-4.9-9.2-9.8-18.3-14.7-27.5c-2.4-4.5-4.9-9-7.1-13.6c-2.8-5.8-5.4-11.8-8-17.7
		c-3.1-6.8-6.1-13.5-9.2-20.3c-1.6-3.5-3.2-7-4.9-10.4c-2.8-5.8-6.9-10.7-10.9-16.1c-1.1,0.4-2.4,0.6-3.4,1.2
		c-9,5-18.4,9.3-28.3,12.2c-11.1,3.2-22.3,4.3-33.7,2.4c-11.8-1.9-23.1-5.7-33.9-10.8c-2.7-1.3-5.4-2.7-8.2-4.1
		c-0.9,0.7-1.9,1.3-2.6,2.1c-2.2,2.9-4.4,5.9-6.4,9c-3.4,5.3-5.6,11.1-8.2,16.8c-3.8,8.3-7.6,16.6-11.4,24.8
		c-2.7,5.8-5.4,11.6-8.3,17.3c-5.5,10.5-11.1,20.9-16.7,31.3c-4.2,7.8-8.4,15.6-12.6,23.5c-0.8,1.5-1.7,2.9-2.5,4.4
		c-0.4,0.7-0.4,1.3,0.2,2c1.1,1.5,2,3,3.1,4.8c1,0.1,2.3,0,3.5,0.4c1.2,0.5,2.1,1.6,3.5,2.6c0.3-0.4,0.5-0.8,0.8-1.2
		c6.3-7.4,12.7-14.8,18.9-22.3c7.9-9.6,15.6-19.4,23.4-29.2c1.5-1.9,2.6-3.9,3.2-6.3c2.8-10.8,5.9-21.6,8.8-32.4
		c2-7.6,4-15.1,6-22.7c0.5-1.8,1.3-3.4,2.5-4.9c0.9,1.7,1,2.5,0.5,4.7c-1.8,8.3-3.7,16.5-5.4,24.8c-3.9,18.9-7.7,37.7-11.6,56.6
		c-0.2,0.8-0.3,1.7-0.4,2.5c4.4,0.8,8.7,1.3,12.8,2.4C175,364.2,179.1,366,183.7,367.7z M368.3,139.9c0.5,0,0.8,0,1.1-0.1
		c3.8-0.9,7.7-1.6,11.4-2.7c12.4-3.6,23.1-10.1,32.1-19.3c8-8.2,14-17.8,18.6-28.3c4.4-10,7.3-20.5,9.1-31.2
		c0.5-2.7,0.7-5.3,1.1-7.8c-0.4-0.3-0.5-0.5-0.6-0.5c-0.4-0.2-0.9-0.4-1.3-0.5c-17-5.7-34.3-9.5-52.2-10.8
		c-9.4-0.7-18.5,0.3-27.4,3.5c-9,3.3-16.8,8.2-22.3,16.2c-5.5,8-9.2,16.6-10.3,26.3c-0.1,1-0.3,2.1,0.7,3.1c3.4,0.1,7-1,10.7,0.1
		c0.7,7-0.2,13.8-1.5,20.7c3.2,0.4,6.1,0.6,9,1.1c3,0.6,5.9,1.5,8.8,2.2c0.4,3,0.1,5.7-0.4,8.3c-0.5,2.7-1.2,5.3-2.1,7.9
		c-0.9,2.5-2.2,4.9-3.5,7.6c6.6,0.7,12.9,1.4,19.2,2C368.4,138.5,368.4,139.1,368.3,139.9z M78.9,138.4c5.8-0.5,11.5-0.9,17.5-1.4
		c-2.7-9.2-3.3-18.4-4.6-27.8c6.2,1,12,2.8,18.2,1.1c-0.8-6.9-1.1-13.7-1-20.8c2.8-0.3,5.5-0.5,8.3-0.7c0.1-0.3,0.3-0.6,0.2-0.9
		c-0.5-7.7-2.5-14.9-6.3-21.7C106.7,58.1,100,52.3,92,47.9c-11.2-6.1-23.3-8.7-36-7.8c-8.8,0.6-17.5,1.5-26.2,2.5
		C23.4,43.3,17,44.4,11,46.5c-3.8,1.3-4.3,0.4-3.9,5.8C8,63.1,9.6,73.7,13,84c4.8,14.6,12.3,27.5,23.8,38
		c10.9,10,23.6,16.3,38.3,18.5c1.3,0.2,2.6,0.3,4.1,0.5C79.1,140.1,79,139.5,78.9,138.4z M258.5,336.6c-0.1-11.4-1.7-21.9-5.9-31.8
		c-3.3-7.8-7.7-14.8-14.6-19.8c-8-5.9-16.6-7.1-25.7-2.8c-4.9,2.3-8.7,6-11.9,10.2c-7.5,9.8-11.1,21.2-12.4,33.3
		c-1.3,11.6-0.3,23.2,0.9,34.7c0.3,2.9,1,5.8,1.5,8.7c0.2,1.1,0.7,2,1.9,2.6c9.3,4.7,18.5,9.4,27.7,14.3c1.3,0.7,2.4,0.8,3.8,0.1
		c9.1-4.5,18.2-9,27.3-13.4c2-1,3-2.3,3.5-4.4C256.9,357.6,258.1,346.8,258.5,336.6z M310.9,226.2c-8.7,7.6-17.5,14.4-27,20.5
		c1.6,2.6,3,5,4.6,7.4c4.3,6.5,7.7,13.4,11,20.5c5.7,12.3,11.1,24.8,17.1,37c8.2,16.6,16.8,33.1,25.3,49.6c0.4,0.8,0.9,1.7,1.3,2.4
		c0.4,0.1,0.7,0.1,0.9,0.1c9.5,0.2,18.8-0.7,28.1-3c9-2.2,17.5-5.6,25.2-10.8c2.9-2,5.2-4.5,7-7.5c2.1-3.6,2-7.2-0.3-10.6
		c-1.8-2.7-4-5-7-6.4c-4.5-2.1-8.9-4.3-13.4-6.4c-10.6-4.9-21.2-9.6-31.4-15.5c-10.8-6.3-19.9-14.4-27.9-23.9
		c-4.2-5-7.6-10.5-9.7-16.7c-2.9-8.2-4.6-16.7-4.4-25.4C310.2,234,310.6,230.3,310.9,226.2z M219.4,418c0.6-0.1,1.1-0.1,1.7-0.2
		c6.9-1.4,13.8-2.8,20.7-4.1c18.7-3.7,37.4-7.4,56.2-11.1c3.8-0.8,7.7-1.7,10.8-4.3c2.5-2,4.1-4.6,3-8c-1.1-3.3-2.1-6.8-3.8-9.8
		c-4.8-8.6-12.3-12.7-22.2-12c-4.3,0.3-8.5,1.3-12.5,3c-3.9,1.6-7.6,3.6-11.5,5.4c-10.2,4.7-20.5,9.4-30.6,14.2
		c-4.7,2.2-9.4,4.5-13.4,7.8c-0.8,0.7-1.5,1.6-2.3,2.3c1.2,2.1,1.9,4,1.2,6.1c-0.1,0.3,0.1,0.8,0.2,1.1c0.6,1.4,1,2.8,0.5,4.4
		c-0.1,0.3,0.1,0.8,0.2,1.1C218,415.3,218.6,416.5,219.4,418z M215.5,391.2c-1-0.5-1.9-1-2.8-1.5c-10.2-4.8-20.4-9.5-30.5-14.4
		c-4.5-2.1-8.9-4.4-13.7-5.5c-3.8-0.9-7.6-1.6-11.6-1.2c-5.3,0.5-10,2.6-13.6,6.3c-4.4,4.4-6.7,10.1-8.2,16c-0.7,2.7,0.4,5,2.5,6.8
		c0.8,0.7,1.7,1.2,2.6,1.7c3,1.6,6.2,2.6,9.5,3.2c10.7,2.1,21.5,4.3,32.2,6.5c0.9,0.2,1.5,0,2.3-0.3c1.4-0.6,3-1.1,4.5-1.4
		c2.7-0.5,5.4-0.8,8-1.3c1-0.2,1.9-0.8,2.9-1.2c0-0.2,0-0.4-0.1-0.5c-0.8-0.3-1.6-0.6-2.4-0.8c-2.1-0.8-3.7-2.1-4.8-4.1
		c-1.2-2.3-0.8-5,0.8-6.7c1.7-1.7,4.1-2.1,6.4-0.8c1.3,0.7,2.5,1.7,3.7,2.6c1.6,1.2,3.2,2.5,4.8,3.7
		C210.6,395.7,212.9,393.5,215.5,391.2z M84.5,391.6c-3.2,2.1-6.3,4.1-9.5,6.3c2.5,1,5,2.3,7.6,2.8c1.8,0.3,3.9-0.6,5.8-1
		c0.9-0.1,1.5-0.6,1.7-1.4c0.3-0.9,0.5-1.8,0.8-2.7C88.6,394.2,86.4,392.8,84.5,391.6z M355.9,397.5c0.7,0.9,1,1.9,1.5,2
		c2,0.6,4.2,1.5,6.3,1.3c2.8-0.3,5.3-1.8,8.2-3C369.9,396.8,362.5,396.8,355.9,397.5z M142,365.7c2.8-1.3,5.2-2.3,7.6-3.4
		c0.3-0.1,0.7-0.5,0.8-0.8c0.6-2.4,1.1-4.9,1.6-7.3c-0.2-0.1-0.3-0.1-0.5-0.2C148.4,357.8,145.4,361.6,142,365.7z M302.3,363.1
		c-2.4-3-4.7-5.9-7-8.8c-0.2,0.1-0.4,0.2-0.5,0.2c0.5,2.4,1,4.7,1.5,7.1c0.1,0.3,0.4,0.5,0.6,0.6
		C298.5,362.9,300.1,363.7,302.3,363.1z M316,379.4c-0.1,0.5-0.2,0.7-0.1,0.8c0.5,1.3,0.9,2.7,1.5,4c0.9,2.2,1.2,2.3,4.3,1.8
		C319.7,383.8,317.9,381.7,316,379.4z M252.9,426.6c2.3,1.7,4.7,3.1,7.5,3.9C258.2,428.7,255.7,427.4,252.9,426.6z M189,430.3
		c2.3-0.4,4.6-1.9,5.7-3.6C192.6,428.1,190.8,429.2,189,430.3z"/>
	<path class="st0" d="M212.3,132.7c6.7,0.6,13.4,1.1,20.3,1.7c0.3-1.2,0.5-2.1,0.7-3c2.5-12.8,6-25.2,12.1-36.8
		c3.2-6.1,7-11.6,12.3-16.1c3.2-2.6,6.8-4.5,10.8-5.5c1.4-0.4,2.2,0,3.1,1.1c4.9,5.9,9,12.2,10.9,19.8c0,0.1,0.2,0.3,0.4,0.6
		c0.6-0.5,1.2-0.9,1.8-1.4c6.1-5.2,13.1-8.9,21-10.5c3.9-0.8,4.8-0.1,5.5,4c0.7,4,0,8-0.7,11.9c-0.1,0.8-0.3,1.5-0.5,2.8
		c7.2-3.9,14.1-7.1,22.4-7.1c0.3,3.9-0.4,7.6-1.2,11.3c-0.7,3.7-1.7,7.3-2.7,11.2c6.7-1.4,13.3-1.7,20.1,0.4
		c-0.8,9.5-5.7,16.9-12,24c7.9,1.1,15.5,1.4,23.3,2.6c-0.3,1-0.5,1.8-0.7,2.5c-3.3,10-7.9,19.4-13.3,28.4
		c-7.8,12.9-17.1,24.7-27.6,35.6c-15.1,15.5-31.9,28.8-51.1,38.9c-10.3,5.4-21,9.7-32.5,11.8c-9.1,1.7-18.2,1-27.1-0.9
		c-16.4-3.6-31.3-10.5-45.4-19.4c-17.5-11-32.7-24.6-45.7-40.6c-12.4-15.3-21.9-32.2-27.9-51c-0.4-1.3-0.7-2.6-1.2-4.2
		c3.2-0.6,6.3-0.7,9.4-0.7c3.1,0,6.2,0.1,9.5,0.1c-3.8-8.3-5.8-17.1-6.4-26.3c6.1-0.3,12-0.5,18.1-0.8c-1.4-7.1-1.9-14.1-2.2-21.4
		c7.2,1.1,13.3,4.2,19.8,6.8c-0.7-8.2,1.2-15.7,3.9-23.3c5.6,1.5,11,3,15.2,7c2,1.9,4,3.7,6,5.5c0.7,0.6,1.5,1.2,2.5,2.1
		c3.4-7.3,6.6-14.4,10-21.6c2.8,0.4,5.2,1.4,7.5,2.6c8.5,4.2,14.9,10.7,19.8,18.7c5.6,9,8.6,19,10.4,29.4c0.4,2.6,0.7,5.2,1.1,7.8
		C212,131.1,212.1,131.8,212.3,132.7z M202.4,153.6c0-7.1-2.1-15.3-6.9-22.7c-8.7-13.4-21.1-20.5-37-20.7
		c-12.8-0.1-23.7,4.9-32.3,14.3c-12.6,13.7-15.8,34.1-6.9,51.3c7.1,13.7,18.4,21.9,33.8,23.8c14.5,1.8,26.8-3,36.9-13.4
		C198.3,177.7,202.3,167.2,202.4,153.6z M244.3,152.4c-1.6,23.1,15.7,46,42.9,46.9c22.8,0.8,44.5-16.8,45.2-43.5
		c0.6-23.3-17.5-43.6-41.8-44.9C265.6,109.6,245.4,129,244.3,152.4z M222.9,202.2c-5,0.2-9.6,1.5-13.6,4.4c-4,3-4.6,7-1.5,10.8
		c3.6,4.4,8.3,7.2,13.7,8.8c1,0.3,2.1,0.5,3,0.3c6.5-1.5,11.4-5.2,14.5-11.1c1.6-3.1,0.8-5.9-2-8.1C233,204,228.1,202.5,222.9,202.2
		z M238.5,244.9c5.9-0.2,12.2-1.3,16.9-3.1c9.8-3.6,15.8-11.1,19.9-20.3c0.6-1.4,0.8-2.9,0.3-4.4c-0.5-1.3-1.2-2.3-2.6-2.5
		c-1.5-0.2-2.4,0.7-3,1.9c-0.4,0.8-0.7,1.8-1,2.7c-1.6,4.5-3.8,8.7-7.4,11.9c-7.5,6.7-16.2,9.5-26.1,7.2c-1.6-0.4-3,0-4.3,0.8
		c-1.8,1-1.9,3.1-0.2,4.3c0.6,0.4,1.3,0.7,2,0.8C234.7,244.5,236.6,244.6,238.5,244.9z"/>
	<path class="st1" d="M347.7,371c3.2-0.2,6.1-0.3,8.9-0.5c13-1,25.6-4.1,37.2-10.1c3.5-1.8,6.7-4,9.9-6.2c3-2.1,5.3-5.1,7-8.4
		c3.3-6.2,2.9-12.3-1-18.1c-3.1-4.6-7.3-7.7-12.3-10c-7.6-3.5-15.2-7-22.9-10.5c-9.4-4.2-18.2-9.3-26.8-14.9
		c-6.2-4.1-11.1-9.6-16.1-15c-8.6-9.1-12.5-20.2-14-32.4c-1-8.9-0.1-17.5,2.8-26c0.6-1.9,1.6-3.4,3-4.9c7.8-7.9,14.8-16.4,21-25.5
		c4.4-6.5,8.1-13.4,12.2-20.1c0.6-0.9,1.2-1.9,2.1-2.5c8.5-6.5,17.9-11,28.6-12.6c16.8-2.4,32.6,0.1,47.5,8.5
		c4.1,2.3,7.6,5.3,10.5,9c4.7,5.9,8.6,12.3,12.1,19.1c-0.3,0.4-0.6,1-0.9,1.3c-3.6,3.6-7.2,7.2-10.9,10.8c-5.1,5.1-11.3,8-18.4,9.1
		c-3.5,0.5-7.2,0.7-10.7,0.7c-6.7,0-13.4-0.8-20.1-0.3c-5.1,0.3-9.4,2.1-12.9,5.5c-6.5,6.3-9.7,13.9-7.9,23
		c1.3,6.4,4.5,11.8,9.6,15.9c3.1,2.4,6.4,4.5,9.6,6.7c11.6,7.9,24,14.4,36.1,21.5c7.8,4.6,15.2,9.8,22,15.8
		c7.2,6.4,11.2,14.5,11.6,24.2c0.8,20.7-8.7,36-25.5,47.3c-5.7,3.8-12.1,6.2-18.6,8.1c-11.6,3.5-23.4,6-35.2,8.2
		c-1,0.2-1.6,0-2.3-0.8c-1.3-1.3-2.9-1.6-4.7-1.3c-1.7,0.3-3.4,0.4-4.9,1c-1.5,0.5-2.3,0-3.2-1.1c-1.1-1.4-2.4-2.8-3.8-3.9
		c-0.7-0.6-1.7-0.9-2.6-1c-2.3-0.1-4.6-0.1-6.9,0.1c-2.1,0.2-3.7-0.2-4.7-2.4c-0.7-1.5-1.8-2.8-2.7-4.3
		C348.7,373,348.3,372.1,347.7,371z"/>
	<path class="st1" d="M318.2,89.9c-0.1-1.2-0.3-2.3-0.4-3.4c-0.2-4.2-2.3-7.5-5.2-10.2c-0.7-0.6-2-0.8-3.1-0.8
		c-8,0.4-15.2,3.3-22.1,7.3c-0.5,0.3-1,0.5-1.5,0.7c-0.2-0.3-0.4-0.4-0.5-0.6c-2.9-5.9-7-10.9-11.2-15.8c-0.9-1.1-1.8-1.5-3.3-1.2
		c-3.5,0.7-6.9,1.4-10.1,2.9c-4.5,2.1-8.4,5-11.7,8.7c-5.5,6-9.6,13-12.8,20.4c-3.7,8.5-6.4,17.2-8.4,26.2c-0.1,0.6-0.3,1.2-0.4,1.9
		c-0.2,1.1-0.9,1.4-1.9,1.3c-2.4-0.3-4.8-0.5-7.4-0.7c-0.3-1.6-0.6-3.2-0.8-4.7c-1.5-9-4-17.8-8-26c-3.9-7.9-9-14.9-15.8-20.6
		c-6.4-5.3-14.7-9.9-24.5-10.7c-2.7,5.8-5.4,11.7-8.3,18c-3.7-3.1-7.4-6.1-11.9-7.5c-4.4-1.4-8.8-2.7-13.5-4.2
		c-3,6.9-5.2,13.9-6.5,21.5c-1.6-0.5-3-1-4.5-1.5c-0.2-2.1-0.4-4.2-0.6-6.2c-1.2-12.3-5.9-23.1-14.5-31.9
		c-7.6-7.7-16.7-13-27.1-16.2c-7.4-2.3-15-3.3-22.7-3.4c-5.9,0-11.8,0.8-17.7,1.2c-1.3,0.1-2.7,0.3-4.1,0c0.3-0.2,0.5-0.5,0.8-0.6
		c13.8-5.1,27.9-8.7,42.7-9.4c19.5-0.9,37.3,4.3,53.6,14.9c3.1,2,6.2,4.3,9.3,6.4c0.5,0.4,0.9,0.8,1.6,1.4c-2.1,2.1-4.2,4-6.2,6.1
		c-2,2.1-3.8,4.3-5.6,6.7c11.5-6.7,22.8-13.6,35.6-18.2c-6.5-6-6.1-13.1-4.2-20.6c1.9,3.5,4.7,6.2,8.2,7.9c6.4,3.3,13.2,4.8,20.4,4
		c0.8-0.1,1.5-0.3,2.6-0.5c-2.5-4-3.8-8.1-2.9-12.6c0.4-2,0.9-4,2.5-5.8c0.4,0.5,0.8,0.9,1,1.4c3,5,7.5,8,13,9.6
		c5.4,1.5,11,1.9,16.6,2.4c9,0.8,18,1.4,26.8,3.6c11.2,2.8,21.9,6.9,32.4,11.7c6.4,2.9,12.8,5.9,19.1,8.8c0.2,0.1,0.4,0.1,0.8-0.1
		c-4.1-3.6-8.2-7.2-12.5-11c1.4-0.8,2.5-1.6,3.8-2.3c10.9-5.8,22.5-9.2,34.6-10.7c5.9-0.7,11.9-1.3,17.9-1.4c5.7-0.1,11.4,0.3,17,1
		c7.4,1,14.8,2.4,22.2,3.7c0.7,0.1,1.4,0.3,2.2,0.6c-0.4,0.8-0.9,0.7-1.6,0.7c-9.1-0.8-18.1-0.3-26.9,2.2
		c-11.4,3.2-21.5,8.7-28.8,18.3c-6.9,9-11.4,19.2-12.9,30.6c-0.2,1.6-0.2,3.2-0.3,4.8C320.5,89,319.9,89.8,318.2,89.9z"/>
	<path class="st1" d="M183.7,367.7c-4.6-1.7-8.6-3.4-12.9-4.6c-4.1-1.1-8.4-1.6-12.8-2.4c0.1-0.9,0.2-1.7,0.4-2.5
		c3.8-18.9,7.7-37.8,11.6-56.6c1.7-8.3,3.6-16.5,5.4-24.8c0.5-2.1,0.3-3-0.5-4.7c-1.2,1.5-2.1,3.1-2.5,4.9c-2,7.6-4,15.1-6,22.7
		c-2.9,10.8-5.9,21.6-8.8,32.4c-0.6,2.4-1.7,4.5-3.2,6.3c-7.8,9.8-15.5,19.5-23.4,29.2c-6.2,7.5-12.6,14.9-18.9,22.3
		c-0.3,0.4-0.5,0.8-0.8,1.2c-1.4-1.1-2.3-2.1-3.5-2.6c-1.1-0.5-2.5-0.3-3.5-0.4c-1.1-1.7-2-3.3-3.1-4.8c-0.5-0.7-0.5-1.3-0.2-2
		c0.8-1.5,1.7-2.9,2.5-4.4c4.2-7.8,8.4-15.6,12.6-23.5c5.6-10.4,11.2-20.8,16.7-31.3c2.9-5.7,5.6-11.5,8.3-17.3
		c3.8-8.3,7.6-16.5,11.4-24.8c2.6-5.7,4.8-11.5,8.2-16.8c2-3.1,4.2-6,6.4-9c0.7-0.9,1.7-1.4,2.6-2.1c2.8,1.4,5.5,2.8,8.2,4.1
		c10.8,5.1,22.1,8.9,33.9,10.8c11.4,1.9,22.6,0.8,33.7-2.4c9.9-2.9,19.3-7.2,28.3-12.2c1.1-0.6,2.3-0.8,3.4-1.2
		c4,5.4,8.1,10.3,10.9,16.1c1.7,3.4,3.3,6.9,4.9,10.4c3.1,6.8,6.2,13.5,9.2,20.3c2.7,5.9,5.2,11.8,8,17.7c2.2,4.6,4.7,9.1,7.1,13.6
		c4.9,9.2,9.8,18.3,14.7,27.5c4,7.5,8.1,15,12.2,22.6c0.5,1,1,2,1.4,2.8c-1.2,2-2.3,3.8-3.6,5.9c-2.4-0.3-4.8,0.7-6.9,2.7
		c-0.6-0.6-1.1-1.1-1.5-1.7c-9.9-11.7-19.8-23.4-29.6-35.3c-4.2-5-8.1-10.3-12.1-15.5c-0.7-0.9-1.2-1.9-1.5-3
		c-1-3.7-1.9-7.4-2.9-11.1c-1.7-6.3-3.3-12.7-5-19c-2.4-8.9-4.7-17.8-7.2-26.6c-0.5-1.8-1.1-3.7-1.7-5.5c-0.3-0.9-0.8-1.7-1.3-2.6
		c-1.6,0.9-1.4,2.1-1.2,3.2c0.6,3.6,1.2,7.3,1.9,10.9c1.6,8.3,3.1,16.6,4.8,24.9c3.4,16.5,6.9,33,10.3,49.5c0.1,0.5,0.1,0.9,0.2,1.4
		c-4.8,1-9.6,1.8-14.2,3.2c-4.5,1.4-8.9,3.4-13.4,5.2c0-0.4-0.2-0.8-0.1-1.2c2.3-9.9,3.3-20.1,3.6-30.2c0.4-15-2.5-29.4-10.1-42.6
		c-4.1-7.1-9.3-13.2-16.6-17.2c-10.2-5.6-20.3-5.5-30.3,0.3c-6.2,3.6-10.9,8.8-14.8,14.8c-6.7,10.5-10,22.1-11.1,34.3
		c-1.1,12.3,0,24.6,1.5,36.8C183.2,365,183.4,366.2,183.7,367.7z"/>
	<path class="st2" d="M368.3,139.9c0.1-0.7,0.1-1.4,0.2-2.2c-6.3-0.7-12.6-1.3-19.2-2c1.3-2.7,2.6-5.1,3.5-7.6
		c0.9-2.5,1.6-5.2,2.1-7.9c0.5-2.6,0.8-5.4,0.4-8.3c-2.9-0.7-5.8-1.6-8.8-2.2c-2.9-0.5-5.8-0.8-9-1.1c1.2-6.9,2.2-13.7,1.5-20.7
		c-3.7-1.1-7.2,0-10.7-0.1c-0.9-1-0.8-2.1-0.7-3.1c1.1-9.7,4.8-18.3,10.3-26.3c5.5-8,13.3-13,22.3-16.2c8.8-3.2,18-4.2,27.4-3.5
		c17.9,1.3,35.2,5.1,52.2,10.8c0.5,0.2,0.9,0.3,1.3,0.5c0.1,0.1,0.2,0.2,0.6,0.5c-0.3,2.5-0.6,5.2-1.1,7.8
		c-1.9,10.7-4.8,21.2-9.1,31.2c-4.6,10.5-10.6,20.1-18.6,28.3c-9,9.2-19.7,15.7-32.1,19.3c-3.7,1.1-7.6,1.8-11.4,2.7
		C369.1,139.9,368.8,139.8,368.3,139.9z"/>
	<path class="st2" d="M78.9,138.4c0.1,1.1,0.1,1.7,0.2,2.5c-1.5-0.2-2.8-0.3-4.1-0.5c-14.7-2.2-27.3-8.5-38.3-18.5
		c-11.4-10.5-19-23.3-23.8-38C9.6,73.7,8,63.1,7.1,52.3c-0.4-5.4,0.1-4.5,3.9-5.8c6.1-2.1,12.4-3.1,18.7-3.9
		c8.7-1,17.5-1.9,26.2-2.5c12.7-0.8,24.8,1.7,36,7.8c8,4.4,14.7,10.2,19.2,18.3c3.8,6.7,5.8,14,6.3,21.7c0,0.3-0.2,0.6-0.2,0.9
		c-2.8,0.2-5.4,0.5-8.3,0.7c-0.1,7.1,0.2,13.9,1,20.8c-6.2,1.7-12-0.1-18.2-1.1c1.2,9.4,1.8,18.6,4.6,27.8
		C90.4,137.5,84.8,138,78.9,138.4z"/>
	<path class="st0" d="M258.5,336.6c-0.4,10.2-1.6,21-4,31.6c-0.5,2.1-1.5,3.4-3.5,4.4c-9.2,4.4-18.3,8.9-27.3,13.4
		c-1.4,0.7-2.4,0.6-3.8-0.1c-9.2-4.8-18.4-9.6-27.7-14.3c-1.2-0.6-1.7-1.4-1.9-2.6c-0.5-2.9-1.2-5.8-1.5-8.7
		c-1.3-11.5-2.3-23.1-0.9-34.7c1.4-12.1,4.9-23.5,12.4-33.3c3.2-4.2,7.1-7.9,11.9-10.2c9.1-4.3,17.7-3.2,25.7,2.8
		c6.9,5.1,11.3,12.1,14.6,19.8C256.7,314.8,258.4,325.2,258.5,336.6z"/>
	<path class="st1" d="M219.4,418c-0.7-1.5-1.4-2.6-2-3.9c-0.2-0.3-0.3-0.8-0.2-1.1c0.5-1.6,0.1-3-0.5-4.4c-0.1-0.4-0.3-0.8-0.2-1.1
		c0.7-2.2,0-4.1-1.2-6.1c0.7-0.8,1.4-1.6,2.3-2.3c4-3.4,8.7-5.6,13.4-7.8c10.2-4.8,20.4-9.5,30.6-14.2c3.8-1.8,7.6-3.7,11.5-5.4
		c4-1.7,8.2-2.7,12.5-3c9.9-0.6,17.4,3.4,22.2,12c1.7,3,2.7,6.5,3.8,9.8c1.1,3.3-0.4,5.9-3,8c-3.1,2.5-7,3.5-10.8,4.3
		c-18.7,3.8-37.4,7.4-56.2,11.1c-6.9,1.4-13.8,2.8-20.7,4.1C220.5,417.9,219.9,417.9,219.4,418z"/>
	<path class="st1" d="M215.5,391.2c-2.6,2.4-5,4.6-7.6,7c-1.6-1.2-3.2-2.5-4.8-3.7c-1.2-0.9-2.4-1.9-3.7-2.6
		c-2.3-1.2-4.7-0.9-6.4,0.8c-1.7,1.6-2,4.4-0.8,6.7c1,2,2.7,3.4,4.8,4.1c0.8,0.3,1.6,0.6,2.4,0.8c0,0.2,0,0.4,0.1,0.5
		c-1,0.4-1.9,1-2.9,1.2c-2.7,0.5-5.4,0.8-8,1.3c-1.5,0.3-3.1,0.8-4.5,1.4c-0.8,0.3-1.4,0.5-2.3,0.3c-10.7-2.2-21.5-4.3-32.2-6.5
		c-3.3-0.7-6.5-1.7-9.5-3.2c-0.9-0.5-1.8-1-2.6-1.7c-2.1-1.8-3.2-4.1-2.5-6.8c1.5-6,3.8-11.6,8.2-16c3.7-3.7,8.3-5.8,13.6-6.3
		c4-0.4,7.8,0.3,11.6,1.2c4.8,1.2,9.3,3.4,13.7,5.5c10.2,4.9,20.4,9.6,30.5,14.4C213.6,390.1,214.5,390.6,215.5,391.2z"/>
	<path class="st1" d="M316,379.4c1.9,2.3,3.7,4.4,5.7,6.6c-3.2,0.5-3.4,0.4-4.3-1.8c-0.5-1.3-1-2.7-1.5-4
		C315.8,380.1,315.9,379.9,316,379.4z"/>
	<path d="M202.4,153.6c-0.1,13.6-4.1,24.1-12.4,32.7c-10,10.4-22.4,15.2-36.9,13.4c-15.4-1.9-26.8-10.2-33.8-23.8
		c-8.9-17.2-5.7-37.6,6.9-51.3c8.7-9.4,19.5-14.4,32.3-14.3c16,0.2,28.3,7.3,37,20.7C200.3,138.3,202.4,146.5,202.4,153.6z
		 M159.2,123.9c-4.4,0.2-8.6,1.2-12.5,3c-17.6,8.2-25.1,29.5-16.6,46.9c7,14.3,22.4,21.9,37.4,18.7c16.5-3.5,28.6-19.1,27-37
		c-0.9-10.1-5.3-18.3-13.2-24.6C174.9,125.8,167.4,123.7,159.2,123.9z"/>
	<path d="M244.3,152.4c1.1-23.4,21.3-42.9,46.2-41.6c24.4,1.3,42.4,21.6,41.8,44.9c-0.7,26.8-22.3,44.3-45.2,43.5
		C260,198.4,242.7,175.5,244.3,152.4z M319.9,158.5c0.2-17.8-13.9-34.3-34-34.3c-18.7,0-34.1,14.4-34.1,34.2
		c0,19.3,15.1,34.1,33.9,34.1C305.8,192.7,319.9,176.3,319.9,158.5z"/>
	<path d="M222.9,202.2c5.2,0.3,10.1,1.8,14.3,5.1c2.7,2.1,3.5,5,2,8.1c-3.1,5.9-8,9.6-14.5,11.1c-0.9,0.2-2.1,0-3-0.3
		c-5.4-1.6-10.1-4.4-13.7-8.8c-3.1-3.8-2.5-7.8,1.5-10.8C213.3,203.7,217.9,202.4,222.9,202.2z"/>
	<path d="M238.5,244.9c-1.9-0.2-3.8-0.4-5.7-0.7c-0.7-0.1-1.4-0.4-2-0.8c-1.7-1.2-1.6-3.3,0.2-4.3c1.3-0.8,2.7-1.2,4.3-0.8
		c10,2.3,18.6-0.4,26.1-7.2c3.6-3.2,5.8-7.4,7.4-11.9c0.3-0.9,0.6-1.8,1-2.7c0.6-1.2,1.6-2.1,3-1.9c1.4,0.2,2.2,1.1,2.6,2.5
		c0.6,1.5,0.4,3.1-0.3,4.4c-4.2,9.2-10.1,16.6-19.9,20.3C250.7,243.5,244.4,244.6,238.5,244.9z"/>
	<path class="st3" d="M159.2,123.9c8.2-0.3,15.7,1.9,22.1,7c7.9,6.3,12.3,14.5,13.2,24.6c1.6,17.9-10.5,33.5-27,37
		c-15,3.2-30.4-4.4-37.4-18.7c-8.5-17.4-1-38.8,16.6-46.9C150.7,125.1,154.8,124.1,159.2,123.9z M164.4,146.2c-6.9,0-12.8,6-12.6,13
		c0.1,6.7,4.8,12.7,12.6,12.7c7,0,12.5-5.1,12.6-13C177,152,171.3,146.2,164.4,146.2z"/>
	<path class="st3" d="M319.9,158.5c0,17.8-14.1,34.2-34.2,34.1c-18.8-0.1-33.9-14.8-33.9-34.1c0-19.8,15.4-34.2,34.1-34.2
		C306,124.2,320,140.8,319.9,158.5z M281.3,172.2c6.8,0.2,12.8-5.5,12.9-12.5c0.1-6.7-4.8-12.7-12.5-12.8
		c-6.5-0.1-12.5,4.5-12.7,12.3C268.7,167,274.8,172,281.3,172.2z"/>
	<path d="M164.4,146.2c6.9,0,12.6,5.7,12.6,12.8c-0.1,7.8-5.6,13-12.6,13c-7.8,0-12.5-6-12.6-12.7
		C151.6,152.3,157.5,146.2,164.4,146.2z M163.8,155.3c0-1.9-1.6-3.6-3.4-3.7c-1.8,0-3.6,1.7-3.7,3.7c0,1.9,1.7,3.7,3.7,3.6
		C162.4,158.8,163.8,157.3,163.8,155.3z"/>
	<path d="M281.3,172.2c-6.5-0.3-12.6-5.2-12.3-13c0.3-7.8,6.2-12.5,12.7-12.3c7.7,0.2,12.6,6.1,12.5,12.8
		C294.2,166.7,288.1,172.4,281.3,172.2z M280.9,154.9c0-2-1.4-3.5-3.4-3.6c-2-0.1-3.7,1.6-3.7,3.6c0,1.8,1.7,3.5,3.6,3.5
		C279.4,158.4,280.9,156.8,280.9,154.9z"/>
	<path class="st3" d="M163.8,155.3c0,2-1.5,3.5-3.4,3.6c-2,0.1-3.7-1.6-3.7-3.6c0-1.9,1.8-3.7,3.7-3.7
		C162.2,151.7,163.8,153.4,163.8,155.3z"/>
	<path class="st3" d="M280.9,154.9c0,1.9-1.6,3.5-3.5,3.5c-1.9,0-3.6-1.6-3.6-3.5c0-2,1.7-3.7,3.7-3.6
		C279.5,151.4,281,152.9,280.9,154.9z"/>
</g>
</svg>
