<?xml version="1.0" encoding="UTF-8" standalone="no"?>
<svg width="333px" height="384px" viewBox="0 0 333 384" version="1.1" xmlns="http://www.w3.org/2000/svg" xmlns:xlink="http://www.w3.org/1999/xlink" xmlns:sketch="http://www.bohemiancoding.com/sketch/ns">
    <!-- Generator: Sketch 3.4.4 (17249) - http://www.bohemiancoding.com/sketch -->
    <title>Group</title>
    <desc>Created with Sketch.</desc>
    <defs></defs>
    <g id="Page-1" stroke="none" stroke-width="1" fill="none" fill-rule="evenodd" sketch:type="MSPage">
        <g id="Group" sketch:type="MSLayerGroup">
            <path d="M243.35,383.9 C243.284,383.633 243.217,383.366 243.151,383.099 C242.418,379.499 241.6,374.366 240.701,367.7 C239.468,358.733 238.85,352.183 238.85,348.05 C238.85,345.25 239.067,343.083 239.5,341.55 C239.066,341.184 238.634,340.817 238.2,340.45 C234.433,337.349 231.983,335.266 230.849,334.2 C226.249,329.9 222.016,325.833 218.15,322 C217.083,321.267 215.716,319.9 214.049,317.9 C213.816,317.599 213.582,317.299 213.349,317 C210.617,313.566 209.249,311.667 209.249,311.3 C209.249,310.934 209.266,310.734 209.299,310.7 C209.366,310.634 209.416,310.533 209.449,310.4 C211.449,311.033 213.466,312.483 215.499,314.75 C215.799,315.083 216.133,315.467 216.499,315.9 C220.433,319.766 225.666,324.966 232.199,331.5 C235.199,334.333 237.999,336.917 240.598,339.25 L240.649,339.2 L240.699,339.3 C241.799,340.567 242.716,341.401 243.449,341.8 C253.949,351 260.832,355.6 264.098,355.6 C266.699,355.6 268.848,348.6 270.548,334.6 C271.581,323.767 272.482,315.134 273.248,308.701 C273.682,305.001 274.081,302.034 274.448,299.801 C275.415,288.501 276.615,279.201 278.048,271.902 C278.482,268.935 278.831,266.635 279.098,265.002 C279.565,262.136 280.182,259.735 280.949,257.802 C281.282,256.969 281.582,255.868 281.848,254.502 C281.982,253.735 282.116,253.068 282.248,252.502 C278.715,254.436 275.182,255.402 271.648,255.402 C270.981,255.402 270.314,255.368 269.648,255.301 C265.248,254.668 260.481,252.101 255.347,247.601 C253.714,246.168 252.247,244.702 250.948,243.202 C250.382,245.335 249.698,247.919 248.898,250.952 C245.998,261.818 244.248,268.768 243.648,271.802 C241.648,281.903 240.714,289.035 240.847,293.202 C240.914,295.835 241.181,300.752 241.648,307.952 C241.648,308.452 241.615,308.902 241.547,309.302 L241.297,309.552 C241.131,309.719 240.847,309.802 240.447,309.802 C240.047,309.802 239.78,309.752 239.647,309.653 C239.546,309.519 239.414,309.403 239.247,309.302 C238.98,307.102 238.847,303.752 238.847,299.252 C238.847,291.719 239.347,284.202 240.347,276.702 C237.847,270.469 236.214,266.535 235.448,264.902 C233.081,259.502 231.298,255.435 230.097,252.702 C227.898,247.802 225.814,243.768 223.847,240.601 C221.014,236.035 217.214,231.935 212.448,228.301 C211.181,227.334 208.398,226.251 204.097,225.051 C204.764,225.652 205.547,226.402 206.448,227.301 C210.448,231.367 212.448,233.701 212.448,234.301 C212.448,234.902 211.514,237.201 209.648,241.201 C207.748,245.334 206.547,247.401 206.047,247.401 C205.648,247.401 204.747,247.267 203.347,247.001 L200.448,246.401 C200.548,247.034 200.847,248.784 201.347,251.651 C201.814,254.418 202.047,256.267 202.047,257.201 C202.047,258.234 200.614,259.635 197.747,261.401 C194.78,263.267 192.28,264.201 190.247,264.201 C187.381,264.201 182.914,261.067 176.847,254.801 C175.981,253.902 175.181,253.051 174.448,252.251 C174.347,258.385 173.948,265.168 173.248,272.601 C173.148,273.735 173.081,275.584 173.048,278.152 C173.048,280.718 172.982,282.669 172.848,284.002 C172.815,284.235 172.798,284.902 172.798,286.002 C172.698,287.169 172.348,288.186 171.748,289.052 C169.882,291.686 165.715,293.002 159.248,293.002 C158.182,293.002 157.331,287.719 156.698,277.152 C156.264,266.551 156.048,261.218 156.048,261.152 C156.048,258.085 156.098,255.452 156.198,253.252 C155.965,253.519 155.748,253.802 155.548,254.102 C151.248,260.036 148.348,263.002 146.848,263.002 C143.448,263.002 139.531,262.585 135.098,261.752 C131.298,260.886 129.314,260.436 129.148,260.402 C125.248,259.435 121.332,258.785 117.398,258.452 C115.432,258.285 114.448,257.868 114.448,257.202 C114.448,256.835 115.548,254.835 117.748,251.202 C119.948,247.535 121.448,245.235 122.248,244.302 C121.848,243.769 120.365,242.702 117.798,241.102 C115.565,239.703 114.448,238.669 114.448,238.002 C114.448,237.002 115.814,234.485 118.548,230.452 C120.415,227.752 121.965,225.851 123.198,224.752 C118.631,225.552 114.615,226.636 111.148,228.002 C108.715,228.936 106.515,230.318 104.548,232.152 C103.281,233.318 101.881,234.935 100.348,237.002 C98.515,239.535 96.381,242.886 93.948,247.052 C91.314,251.719 89.314,255.169 87.948,257.403 C86.115,260.369 82.181,267.003 76.148,277.302 C71.682,284.868 67.798,291.269 64.498,296.502 C64.432,297.202 64.381,297.902 64.348,298.602 C63.648,310.203 62.481,319.669 60.848,327.002 C60.248,326.469 59.914,326.186 59.848,326.152 C59.715,325.985 59.648,325.801 59.648,325.601 C59.648,324.035 60.248,315.385 61.448,299.652 C62.748,282.351 63.481,272.301 63.648,269.502 L63.648,257.302 C61.515,258.868 58.582,259.702 54.848,259.802 L39.948,260.002 C39.615,260.102 38.498,260.235 36.598,260.402 C34.798,260.535 33.615,260.601 33.048,260.601 C32.548,260.601 32.098,260.568 31.698,260.501 C31.664,261.001 31.648,261.268 31.648,261.301 C31.915,264.701 32.048,270.001 32.048,277.201 C32.048,284.067 31.781,292.551 31.248,302.651 C30.715,312.751 30.448,320.767 30.448,326.701 C30.448,326.867 30.331,328.401 30.098,331.301 C29.965,334.701 30.081,337.768 30.448,340.501 C31.615,349.234 35.148,353.601 41.048,353.601 C53.582,353.601 68.932,345.035 87.098,327.902 C89.965,325.202 94.448,320.718 100.548,314.452 C101.082,313.518 101.765,312.435 102.598,311.202 C105.598,306.735 108.381,304.202 110.948,303.601 C110.948,303.635 110.998,303.718 111.098,303.851 C111.198,303.985 111.248,304.251 111.248,304.652 C111.248,305.252 109.781,307.518 106.848,311.452 C103.781,315.585 101.515,318.101 100.048,319.002 C99.982,318.936 99.915,318.886 99.848,318.852 C94.948,323.386 91.248,326.819 88.748,329.153 C88.814,329.619 88.848,330.269 88.848,331.102 C88.848,331.903 88.431,336.153 87.598,343.852 C86.798,351.585 86.181,357.036 85.748,360.203 C84.348,370.736 83.348,378.369 82.748,383.102 C82.682,383.369 82.648,383.636 82.648,383.903 L80.248,383.903 C80.248,383.636 80.281,383.369 80.348,383.102 C80.581,381.036 80.898,378.453 81.298,375.352 C82.865,363.119 83.648,356.969 83.648,356.903 L84.848,341.003 C85.515,336.47 85.948,333.77 86.148,332.903 C86.281,332.269 86.448,331.67 86.648,331.102 C86.615,331.136 86.582,331.169 86.548,331.203 C82.881,335.869 78.448,340.22 73.248,344.253 C62.948,352.22 52.215,356.203 41.048,356.203 C33.848,356.203 29.515,351.303 28.048,341.503 C27.615,338.47 27.482,335.086 27.648,331.353 C27.915,328.253 28.048,326.687 28.048,326.654 C28.048,317.553 28.082,311.987 28.148,309.954 C28.315,305.32 28.815,299.138 29.648,291.404 L29.648,262.904 C29.515,262.004 29.415,260.887 29.348,259.553 C28.048,258.654 27.081,257.203 26.448,255.203 C25.914,251.536 25.648,249.637 25.648,249.503 C25.648,248.17 25.965,246.986 26.598,245.953 C27.198,245.786 27.548,245.352 27.648,244.653 L27.648,244.6 C27.781,244.467 27.915,244.35 28.048,244.25 C27.848,243.884 27.648,243.5 27.448,243.1 C27.215,242.1 26.831,240.401 26.298,238 C25.932,236.4 25.615,235.017 25.348,233.85 C25.381,233.35 25.398,232.833 25.398,232.3 C25.365,232.067 25.348,231.833 25.348,231.6 C25.406,231.6 25.439,231.625 25.448,231.675 C25.281,229.223 25.148,227.598 25.048,226.8 C24.881,223 24.915,220 25.148,217.8 L25.148,216.85 C25.082,216.817 25.031,216.8 24.998,216.8 C24.998,216.634 25.015,216.45 25.048,216.25 C25.082,215.384 25.115,214.634 25.148,214 C25.215,214.033 25.281,214.066 25.348,214.1 C25.548,213.034 25.814,211.984 26.148,210.951 C26.315,210.517 26.498,210.067 26.698,209.6 C28.898,204.434 33.181,203.317 39.548,206.25 C39.848,205.384 40.148,204.684 40.448,204.15 C40.914,203.183 42.148,202.433 44.148,201.9 C47.248,201.066 50.148,201.45 52.848,203.049 C53.181,203.249 53.481,203.433 53.748,203.599 C55.281,204.566 56.098,205.45 56.198,206.249 C56.431,205.883 56.715,205.549 57.048,205.249 C57.648,204.683 58.565,204.249 59.798,203.949 C60.631,203.716 63.531,204.666 68.498,206.799 C73.898,209.099 76.831,211.115 77.298,212.849 C77.631,214.082 77.348,216.666 76.448,220.599 C76.215,221.466 75.998,222.349 75.798,223.249 C76.665,223.649 77.582,224.532 78.548,225.899 C79.215,226.732 79.765,227.548 80.198,228.348 C80.764,229.382 81.164,230.365 81.398,231.298 C81.665,232.265 80.281,234.432 77.248,237.798 C74.314,241.031 71.165,243.348 67.798,244.748 C67.965,244.948 68.048,245.098 68.048,245.198 C68.048,248.998 67.548,251.864 66.548,253.798 C66.348,254.198 66.131,254.581 65.898,254.948 C65.932,254.915 65.981,254.882 66.048,254.847 L66.048,270.097 C65.982,270.631 65.548,277.83 64.748,291.698 C66.314,288.965 68.682,285.014 71.848,279.847 C79.281,267.714 84.048,259.631 86.148,255.597 C87.248,253.531 89.281,250.214 92.248,245.648 C95.148,241.181 97.248,237.698 98.548,235.198 C100.482,231.398 103.998,228.448 109.098,226.347 C114.731,224.014 122.914,222.398 133.648,221.497 L137.098,221.447 C137.064,221.313 137.048,221.197 137.048,221.096 C136.682,216.73 136.482,213.38 136.448,211.046 C128.215,208.48 121.298,204.163 115.698,198.096 C112.465,194.596 109.615,190.38 107.148,185.447 C99.015,186.747 90.115,187.397 80.448,187.397 C76.248,187.397 72.948,186.93 70.548,185.997 C68.881,185.363 68.048,184.797 68.048,184.297 L80.948,176.297 C88.715,171.431 94.931,167.33 99.598,163.997 C99.531,163.631 99.448,163.264 99.348,162.897 C98.914,160.963 98.414,158.363 97.848,155.097 C97.481,155.564 96.914,156.03 96.148,156.497 C94.781,157.363 93.748,157.797 93.048,157.797 C90.615,157.797 88.915,156.597 87.948,154.197 C87.481,151.763 87.248,150.513 87.248,150.447 C87.248,149.214 87.581,147.497 88.248,145.297 C88.915,143.097 89.248,141.664 89.248,140.997 C89.248,138.297 88.515,135.78 87.048,133.447 C85.582,131.114 84.848,129.08 84.848,127.347 C84.848,125.88 85.248,124.814 86.048,124.147 C87.215,123.18 89.531,122.547 92.998,122.247 C92.631,119.18 92.381,116.547 92.248,114.347 C85.248,120.114 81.248,122.997 80.248,122.997 C79.348,122.997 78.781,122.63 78.548,121.897 C78.482,121.164 78.448,120.764 78.448,120.697 C78.448,119.864 78.698,118.663 79.198,117.097 C79.831,115.364 80.248,114.163 80.448,113.497 L80.448,113.197 C79.048,113.864 74.998,116.247 68.298,120.347 L58.648,126.197 C57.848,126.197 57.381,125.864 57.248,125.197 L57.248,124.047 C57.248,122.38 59.548,116.997 64.148,107.897 C68.981,98.63 71.648,93.464 72.148,92.397 L72.148,92.297 C70.315,92.93 64.015,95.63 53.248,100.397 C43.248,104.797 37.981,106.997 37.448,106.997 C36.448,106.997 35.848,106.73 35.648,106.197 L35.648,105.297 C35.648,102.831 40.465,96.714 50.098,86.947 C58.664,78.28 64.481,72.897 67.548,70.797 C66.682,70.897 59.432,72.331 45.798,75.097 C32.932,77.697 25.548,78.997 23.648,78.997 L21.848,78.797 C21.848,78.764 21.814,78.697 21.748,78.597 C21.682,78.53 21.648,78.297 21.648,77.897 C21.648,76.964 25.832,74.331 34.198,69.997 C38.598,67.697 44.115,64.93 50.748,61.697 C57.515,58.263 62.932,55.897 66.998,54.597 C70.498,53.464 75.581,52.33 82.248,51.197 C69.581,47.23 57.865,44.78 47.098,43.847 C42.564,43.447 40.131,43.214 39.798,43.147 C38.365,42.88 37.648,42.264 37.648,41.297 C37.648,40.197 41.031,39.164 47.798,38.197 C51.565,37.663 57.248,36.997 64.848,36.197 L82.448,36.197 C86.314,36.763 90.631,37.347 95.398,37.947 C98.998,38.58 103.082,39.797 107.648,41.597 L108.548,41.597 C102.948,35.764 98.131,30.714 94.098,26.447 C86.331,18.314 82.448,13.864 82.448,13.097 C82.448,12.23 82.914,11.797 83.848,11.797 C85.181,11.797 89.865,13.247 97.898,16.147 C105.432,18.847 111.248,21.097 115.348,22.897 C118.781,24.43 122.281,26.897 125.848,30.297 C127.748,32.13 129.948,34.397 132.448,37.097 C131.348,30.797 128.465,23.047 123.798,13.847 C119.432,5.913 117.248,1.663 117.248,1.097 C117.248,-0.27 119.015,0.53 122.548,3.497 C125.982,6.33 129.881,10.18 134.248,15.047 C143.314,25.147 148.765,32.914 150.598,38.347 C152.265,33.714 158.031,27.28 167.898,19.047 C178.831,9.947 187.981,3.864 195.347,0.797 C195.347,0.831 195.398,0.914 195.497,1.047 C195.596,1.18 195.647,1.447 195.647,1.847 C195.647,3.047 192.647,8.064 186.647,16.897 C179.98,26.497 175.98,32.331 174.647,34.397 L174.747,34.497 C177.414,32.397 179.664,30.664 181.497,29.297 C186.364,25.697 191.131,22.43 195.797,19.497 C210.364,10.364 221.914,5.797 230.447,5.797 C231.247,5.797 231.647,6.264 231.647,7.197 C231.647,7.263 227.263,10.73 218.497,17.597 C208.697,25.297 201.813,31.597 197.847,36.497 L197.847,36.697 C200.948,36.13 203.747,35.48 206.247,34.747 C208.58,34.214 212.514,33.764 218.047,33.397 L251.247,33.397 C252.214,33.364 252.914,33.63 253.347,34.197 C253.547,34.497 253.648,34.78 253.648,35.047 C253.648,35.747 248.781,37.947 239.047,41.647 C228.214,45.614 221.681,48.03 219.447,48.897 C219.547,48.897 222.631,49.28 228.697,50.047 C235.897,51.014 242.513,52.097 248.547,53.297 C267.681,57.03 277.247,60.997 277.247,65.197 C277.247,66.43 276.181,67.163 274.047,67.397 L260.847,67.597 C260.014,67.83 257.747,68.18 254.047,68.647 C250.447,69.147 248.514,69.43 248.247,69.497 C252.114,74.997 254.147,77.914 254.347,78.247 C256.648,81.78 258.08,84.664 258.648,86.897 C259.148,88.764 260.031,91.597 261.297,95.397 C262.33,98.831 262.847,101.697 262.847,103.997 C262.847,104.664 262.781,105.164 262.648,105.497 C262.347,106.23 261.748,106.597 260.847,106.597 C260.747,106.597 258.264,105.814 253.398,104.247 C248.365,102.614 245.314,101.73 244.248,101.597 C244.848,104.73 245.698,108.03 246.798,111.497 C247.365,113.364 247.649,115.814 247.649,118.847 L247.649,121.697 C247.449,123.097 246.782,123.797 245.649,123.797 C244.282,123.797 241.732,123.397 237.999,122.597 C234.366,121.73 232.282,121.264 231.749,121.197 L228.649,121.197 C229.048,122.997 229.249,124.047 229.249,124.347 C229.249,125.28 229.116,125.93 228.849,126.297 C228.816,126.364 228.783,126.414 228.749,126.447 C229.082,127.147 229.249,127.964 229.249,128.897 C229.249,130.097 228.849,131.914 228.049,134.347 C227.249,136.78 226.849,138.264 226.849,138.797 C226.849,139.797 227.316,141.097 228.249,142.697 C229.183,144.263 229.649,145.614 229.649,146.747 C229.649,148.414 229.048,150.064 227.848,151.697 C226.248,153.897 223.982,154.997 221.048,154.997 C220.382,154.997 219.815,154.964 219.348,154.897 C218.748,157.597 218.116,160.214 217.449,162.747 C221.383,166.58 224.649,170.097 227.249,173.297 C228.683,175.064 231.616,177.33 236.049,180.097 C241.082,183.264 244.282,185.464 245.65,186.698 C245.483,186.965 245.333,187.181 245.2,187.347 C244.933,187.648 244.617,187.797 244.25,187.797 L244.05,187.797 C243.984,188.131 243.817,188.33 243.55,188.398 C243.05,188.531 241.484,188.597 238.85,188.597 C229.417,188.597 219.583,186.747 209.35,183.047 C208.684,184.247 207.984,185.431 207.25,186.597 C200.95,196.664 192.95,203.931 183.25,208.398 L183.25,209.248 C183.25,210.348 183.184,211.198 183.05,211.798 C183.05,211.965 182.934,212.081 182.7,212.149 C182.733,212.348 182.783,212.565 182.849,212.798 C182.849,214.498 182.966,216.815 183.2,219.748 L183.25,219.748 C183.45,217.648 187.267,217.448 194.7,219.148 C201.533,220.714 207.55,222.797 212.75,225.398 C217.884,229.631 221.917,233.731 224.85,237.698 C227.184,240.864 229.434,244.981 231.6,250.048 C235.034,258.114 236.817,262.298 236.951,262.598 C238.118,264.932 239.501,267.899 241.1,271.498 C242.234,264.298 243.817,257.114 245.85,249.948 C246.884,246.281 247.901,243.165 248.901,240.597 C248.067,239.464 247.651,238.681 247.651,238.247 C247.651,236.647 247.717,235.664 247.85,235.297 C248.083,234.697 248.534,234.297 249.201,234.097 C249.1,233.997 249.017,233.898 248.951,233.797 C249.051,233.631 249.135,233.464 249.201,233.297 C248.968,232.631 248.734,231.914 248.501,231.148 C248.301,231.114 248.051,231.031 247.751,230.898 C245.751,230.064 244.034,228.014 242.601,224.748 C241.301,221.748 240.885,219.682 241.351,218.548 C242.251,216.348 243.902,214.298 246.301,212.399 C246.601,212.132 246.885,211.916 247.152,211.749 C247.351,210.615 247.669,209.516 248.101,208.449 L248.152,208.399 C248.885,206.632 249.551,205.532 250.152,205.098 C251.585,204.132 253.919,204.232 257.152,205.399 C257.518,204.732 258.051,204.199 258.752,203.798 C259.852,203.132 261.152,203.098 262.652,203.698 C262.985,203.831 263.535,204.165 264.301,204.698 C265.068,205.198 265.518,205.481 265.652,205.548 C266.152,204.715 266.735,204.031 267.402,203.498 C268.635,202.598 270.202,202.531 272.101,203.298 C273.702,203.965 274.818,204.798 275.452,205.798 C275.785,206.665 276.085,207.215 276.351,207.448 C282.785,200.114 286.751,202.748 288.251,215.347 C288.418,216.781 288.534,218.314 288.601,219.948 C288.768,222.948 288.801,226.198 288.702,229.698 C288.601,232.798 288.469,235.014 288.302,236.347 C288.869,237.014 289.319,238.347 289.653,240.347 C289.786,241.247 289.886,242.164 289.953,243.097 C290.019,243.731 290.053,244.364 290.053,244.997 C290.053,246.464 288.503,248.297 285.404,250.497 C284.904,253.931 283.704,261.03 281.803,271.797 C278.904,288.431 277.12,299.064 276.453,303.697 C276.253,305.063 276.019,306.73 275.753,308.697 C275.353,311.197 274.887,314.197 274.353,317.697 C273.52,323.23 272.954,327.863 272.654,331.596 C271.921,340.996 271.454,346.213 271.254,347.246 C269.987,354.546 267.721,358.196 264.454,358.196 C259.054,358.196 252.687,354.396 245.353,346.796 C244.487,345.897 243.303,344.796 241.803,343.496 C241.67,344.729 241.487,346.346 241.253,348.346 C241.253,348.947 241.453,351.963 241.853,357.397 C242.253,362.83 242.454,365.963 242.454,366.796 C242.454,367.93 243.054,370.813 244.254,375.446 C245.121,378.779 245.671,381.329 245.904,383.095 C245.937,383.396 245.97,383.662 246.004,383.896 L243.35,383.896 L243.35,383.9 Z M189.95,6.7 C168.183,19.4 155.75,31.4 152.65,42.7 L152.45,42.85 C152.316,42.95 152.05,43 151.65,43 C151.417,43 151.217,42.95 151.05,42.85 C150.85,43.183 150.517,43.5 150.05,43.8 C147.917,37.9 144.9,32.183 141,26.65 C136.934,20.883 131.783,15.133 125.55,9.4 L125.35,9.4 C126.25,11.933 128.433,17.383 131.9,25.75 C134.934,33.717 136.45,39.617 136.45,43.45 C136.45,44.117 136.383,44.367 136.25,44.2 C136.25,44.467 135.917,44.6 135.25,44.6 C134.85,44.6 132.667,42.267 128.7,37.6 C124.4,32.533 121.516,29.5 120.05,28.5 C116.484,26.1 112.017,24 106.65,22.2 C97.617,19.2 91.65,17.1 88.75,15.9 L88.25,16 C89.617,17.6 94.566,22.867 103.1,31.8 C110.933,40.167 114.85,44.85 114.85,45.85 C114.85,46.617 114.383,47 113.45,47 C111.65,46.133 109.7,45.233 107.6,44.3 C103.4,42.467 100.45,41.4 98.75,41.1 C97.483,40.9 95.35,40.683 92.35,40.45 C90.316,40.283 87.117,39.7 82.75,38.7 L64.35,38.7 C60.483,39.467 56.983,40.05 53.85,40.45 L44.45,41.6 C45.217,41.733 52.9,42.967 67.5,45.3 C81.733,47.933 88.85,50.217 88.85,52.15 C88.85,52.35 88.45,52.767 87.65,53.4 C77.717,53.567 67.45,56.2 56.85,61.3 C45.383,67.734 36.75,72.267 30.95,74.9 C33.717,74.334 39.85,72.867 49.35,70.5 C58.983,68.433 67.483,67.4 74.85,67.4 C75.517,67.4 75.95,67.467 76.15,67.6 C76.15,67.633 76.2,67.717 76.3,67.85 C76.4,67.983 76.45,68.25 76.45,68.65 C73.35,69.883 69.45,72.25 64.75,75.75 C55.316,82.817 46.583,92.167 38.55,103.8 L38.55,103.9 C47.717,99.7 53.75,96.967 56.65,95.7 C66.25,91.5 71.983,89.4 73.85,89.4 C74.617,89.4 75.083,89.683 75.25,90.25 C75.316,90.55 75.316,90.883 75.25,91.25 C75.25,91.75 73.25,95.95 69.25,103.85 C64.184,113.85 61.25,119.7 60.45,121.4 L60.45,121.7 C61.45,121.1 64.867,118.967 70.7,115.3 C76.367,111.9 80.016,110.2 81.65,110.2 C82.55,110.2 83.084,110.516 83.25,111.15 C83.35,111.483 83.35,111.834 83.25,112.2 C83.25,113 82.717,115.1 81.65,118.5 L81.65,118.7 C81.983,118.533 83.917,117.2 87.45,114.7 C89.65,113.166 91.2,112.166 92.1,111.7 C92.066,111.067 92.05,110.483 92.05,109.95 L92.05,109.7 C91.05,108.567 90.15,107.3 89.35,105.9 C87.15,102 86.05,97.9 86.05,93.6 C86.05,88.1 88.317,83.717 92.85,80.45 C96.95,77.516 101.95,76.05 107.85,76.05 C109.916,76.05 111.883,76.234 113.75,76.6 L109.25,72.05 C109.25,70.484 111.467,71.6 115.9,75.4 C117.233,73.633 119.883,70.7 123.85,66.6 C130.017,60.2 133.883,57 135.45,57 C138.383,57 141.283,58.183 144.15,60.55 C147.05,62.917 149.25,64.1 150.75,64.1 C157.684,64.1 164.05,62.967 169.85,60.7 C172.75,59.567 175.317,58.367 177.55,57.1 C181.651,56.367 184.717,56.916 186.75,58.75 C187.217,59.183 187.934,60.033 188.9,61.3 C189.7,62.334 190.417,63.067 191.049,63.5 C192.782,65.467 195.332,68.483 198.699,72.55 C201.299,75.584 203.815,78.167 206.249,80.3 C207.582,79.1 209.315,77.55 211.449,75.65 C215.582,72.283 217.649,71.467 217.649,73.2 C217.649,73.5 216.399,74.766 213.899,77 C214.866,76.967 215.848,76.967 216.848,77 C221.482,77.033 225.482,79.933 228.848,85.7 C231.515,90.333 232.848,94.4 232.848,97.9 C232.848,101.4 231.616,105.3 229.149,109.6 C227.416,112.666 225.315,115.017 222.848,116.65 C222.848,118.517 222.831,120.383 222.798,122.25 C223.031,122.283 223.531,122.467 224.298,122.8 C225.298,123.234 225.915,123.567 226.149,123.8 L226.449,123.7 C226.116,122.033 225.949,121.133 225.949,121 C225.916,119.933 226.348,119.133 227.249,118.6 L231.649,118.6 C233.715,118.867 235.916,119.267 238.249,119.8 C240.582,120.334 242.782,120.734 244.849,121 C245.117,120.533 245.249,119.7 245.249,118.5 C245.249,117.3 244.582,113.9 243.249,108.3 C241.916,102.967 241.249,100.267 241.249,100.2 C241.249,99.633 241.349,99.233 241.549,99 C241.782,98.733 242.216,98.6 242.849,98.6 C245.516,98.6 248.933,99.333 253.099,100.8 C255.266,101.567 257.716,102.433 260.45,103.4 C258.95,95.4 255.884,87.35 251.25,79.25 C246.983,72.75 244.85,69.25 244.85,68.75 C244.85,67.717 245.701,67.067 247.401,66.8 C248.901,66.567 253.517,65.967 261.251,65 C269.851,64.867 274.185,64.7 274.251,64.5 C264.484,60.033 257.534,57.233 253.401,56.1 C248.034,54.633 236.251,53.2 218.05,51.8 L214.85,51.8 C214.217,51.267 213.901,50.984 213.901,50.95 C213.734,50.817 213.651,50.633 213.651,50.4 C213.651,49.133 219.034,46.367 229.8,42.1 C235.2,39.967 240.651,37.933 246.151,36 L216.651,35.9 C215.284,36 211.334,36.817 204.8,38.35 C198.434,39.85 195.117,40.6 194.85,40.6 C193.984,40.6 193.451,40.367 193.25,39.9 L193.25,39.05 C193.25,36.783 198.267,31.417 208.3,22.95 C214.7,17.55 220.083,13.266 224.45,10.1 C220.583,10.833 214.533,13 206.3,16.6 C198.8,19.867 193.817,22.333 191.35,24 C190.651,24.467 187.401,27.2 181.6,32.2 C176.3,36.733 173.451,39 173.05,39 C172.283,39 171.833,38.717 171.7,38.15 C171.667,37.55 171.65,37.217 171.65,37.15 C171.65,34.25 174.4,28.783 179.9,20.75 C182.766,16.617 186.049,12.033 189.75,7 L189.95,6.7 L189.95,6.7 Z M226.95,87.35 C224.117,82.283 220.849,79.666 217.15,79.5 C214.783,79.4 212.583,79.533 210.549,79.9 C209.15,81.067 207.566,82.4 205.799,83.9 C200.999,87.867 197.266,91.05 194.599,93.45 C194.233,94.65 194.049,95.833 194.049,97 C194.049,101.1 194.849,104.7 196.449,107.8 C199.515,113.8 205.032,116.8 212.999,116.8 C219.399,116.8 224.216,113.7 227.449,107.5 C229.082,104.4 230.082,101.25 230.449,98.05 C230.45,95.083 229.283,91.517 226.95,87.35 L226.95,87.35 Z M278.15,117.8 C278.083,117.667 278.049,117.417 278.049,117.05 C278.049,116.05 279.016,114.783 280.949,113.25 C283.416,111.283 286.182,110.733 289.249,111.6 C292.216,112.8 294.599,114.083 296.399,115.45 C297.032,115.95 298.782,116.2 301.649,116.2 C306.649,116.2 310.149,117.583 312.149,120.35 C313.149,121.75 313.649,123.183 313.649,124.65 C313.649,125.75 313.616,126.417 313.548,126.65 C313.315,127.283 312.682,127.867 311.649,128.4 C313.815,128.867 315.682,130.033 317.249,131.9 C318.582,133.433 319.249,134.783 319.249,135.95 C319.249,136.95 318.782,137.95 317.849,138.95 C316.749,140.15 315.15,141.133 313.049,141.9 C314.15,143.6 314.782,144.667 314.949,145.1 C315.149,145.633 315.249,146.467 315.249,147.6 C315.249,149.067 314.716,150.617 313.649,152.25 C312.382,154.183 310.682,155.633 308.548,156.6 C308.615,156.666 308.815,157.167 309.149,158.1 C309.482,159 309.649,159.55 309.649,159.75 C309.649,160.917 309.082,162.066 307.949,163.2 C306.515,164.667 304.616,165.4 302.249,165.4 C300.315,165.4 298.849,164.966 297.849,164.099 C297.183,163.533 296.849,162.983 296.849,162.45 L296.95,161.4 L297.2,161.2 C297.367,161.066 297.65,161 298.05,161 C298.417,161 298.867,161.3 299.401,161.9 C299.967,162.5 300.918,162.799 302.251,162.799 C304.351,162.799 305.784,162.299 306.551,161.299 C306.918,160.799 307.084,160.266 307.051,159.699 C307.018,159.098 306.818,158.549 306.451,158.049 C305.684,157.016 304.418,156.599 302.651,156.799 C302.517,156.666 302.451,156.266 302.451,155.599 C302.451,155.532 304.184,154.749 307.651,153.249 C311.118,151.749 312.85,149.849 312.85,147.549 C312.85,146.416 311.85,145.049 309.85,143.449 C307.85,141.816 306.85,140.899 306.85,140.699 C306.85,140.265 308.517,139.649 311.85,138.849 C315.184,138.082 316.85,137.116 316.85,135.949 C316.85,134.682 315.317,133.366 312.25,131.999 C309.184,130.599 307.65,129.766 307.65,129.499 C307.65,129.132 308.25,128.332 309.45,127.099 C310.65,125.899 311.25,125.099 311.25,124.699 C311.25,123.732 310.617,122.632 309.35,121.399 C307.517,119.599 304.917,118.699 301.55,118.699 C299.35,118.699 298,119.082 297.5,119.849 C296.967,120.616 296.417,120.999 295.85,120.999 C294.85,120.999 294.401,120.549 294.5,119.649 C294.533,118.982 294.75,118.366 295.15,117.799 C294.45,117.099 293.516,116.349 292.349,115.549 C290.716,114.449 289.45,113.899 288.549,113.899 C284.616,113.899 282.099,114.599 280.999,115.999 C280.499,117.499 279.916,118.366 279.249,118.599 C278.65,118.467 278.283,118.2 278.15,117.8 L278.15,117.8 Z M264.45,125.45 C264.45,126.05 259.95,127.683 250.95,130.35 C241.65,132.983 236.683,134.4 236.05,134.6 C235.25,133.9 234.85,133.533 234.85,133.5 C234.85,132.033 239.35,130.15 248.35,127.85 C252.784,126.75 258.05,125.6 264.151,124.4 C264.151,124.433 264.201,124.517 264.3,124.65 C264.4,124.783 264.45,125.05 264.45,125.45 L264.45,125.45 Z M143,63.05 C141.633,61.883 140.65,61.067 140.05,60.6 C139.05,59.867 138.084,59.5 137.15,59.5 C133.15,59.5 129.2,62.617 125.3,68.85 C123.033,72.45 121.617,74.6 121.05,75.3 C120.184,76.4 119.317,77.183 118.45,77.65 C118.816,77.983 119.2,78.334 119.6,78.7 C125.733,84.333 130.283,89 133.25,92.7 L133.05,93.9 L132.85,94.05 C132.717,94.15 132.45,94.2 132.05,94.2 C131.783,94.2 130.967,93.583 129.6,92.35 C129.633,92.95 129.65,93.567 129.65,94.2 C129.65,99.033 128.967,103.133 127.6,106.5 C124.7,113.5 119.25,117 111.25,117 C104.316,117 98.767,115.367 94.6,112.1 C95.033,114.133 95.25,116.367 95.25,118.8 C95.65,124.867 96.05,129.367 96.45,132.3 C97.25,138.067 98.717,147.167 100.85,159.6 C101.017,160.667 101.2,161.717 101.4,162.75 C101.867,162.384 102.317,162.033 102.75,161.7 C110.117,156.166 115.35,152.516 118.45,150.75 C125.25,146.883 134.183,143.3 145.25,140 C149.983,139.633 154.267,139.933 158.1,140.9 C160.066,141.4 161.467,141.917 162.3,142.45 C162.934,141.916 164.05,141.35 165.651,140.75 C167.684,139.983 169.984,139.333 172.55,138.8 C174.817,138.334 178.55,138.867 183.75,140.4 C186.384,141.2 188.884,142.067 191.25,143 C195.75,145.2 199.816,147.667 203.45,150.4 C205.95,152.267 209.016,154.867 212.65,158.2 C213.617,159.066 214.549,159.933 215.45,160.8 C217.283,152.033 218.417,144.834 218.849,139.2 C218.916,138.733 218.95,134.666 218.95,127 C218.95,123.567 219.4,120.567 220.3,118 C218.134,118.933 215.717,119.4 213.05,119.4 C203.75,119.4 197.417,115.9 194.05,108.9 C192.45,105.567 191.651,101.567 191.651,96.9 C191.651,96.633 191.668,96.383 191.701,96.15 C190.968,96.817 190.418,97.367 190.051,97.8 C189.451,97.667 189.084,97.4 188.951,97 C188.885,96.867 188.85,96.617 188.85,96.25 C188.85,95.25 191.1,92.85 195.6,89.05 C197.901,87.117 200.451,85.067 203.25,82.9 C203.483,82.7 203.85,82.4 204.35,82 C203.284,81.4 202.067,80.383 200.701,78.95 C199.6,77.783 197.368,75.1 194.001,70.9 C187.768,63.1 183.135,59.2 180.101,59.2 C178.235,59.2 174.518,60.433 168.952,62.9 C163.352,65.367 158.585,66.6 154.652,66.6 C149.917,66.6 146.033,65.417 143,63.05 L143,63.05 Z M156.1,75.2 C156.166,75.133 156.217,75.033 156.25,74.9 L157.45,74.7 C158.383,74.967 159.25,75.433 160.05,76.1 C160.65,76.633 161.367,76.9 162.2,76.9 C162.333,76.9 163.483,76 165.65,74.2 C167.25,72.9 168.049,73.133 168.049,74.9 C168.049,75.4 167.349,76.267 165.949,77.5 C164.449,78.833 163.216,79.5 162.249,79.5 C160.683,79.5 159.183,78.9 157.749,77.7 C156.616,76.733 156.049,76.1 156.049,75.8 C156.05,75.433 156.066,75.233 156.1,75.2 L156.1,75.2 Z M163.25,87.1 C161.35,87.1 158.45,85.666 154.55,82.8 C151.017,80.2 149.25,78.7 149.25,78.3 C149.25,76.967 150.95,77.5 154.35,79.9 C158.683,82.967 161.717,84.5 163.45,84.5 C165.617,84.5 167.667,83.6 169.599,81.8 C170.566,80.9 171.516,80 172.45,79.1 C173.25,79.1 173.65,79.567 173.65,80.5 C173.65,81.233 172.617,82.433 170.549,84.1 C168.117,86.1 165.684,87.1 163.25,87.1 L163.25,87.1 Z M158.55,123.7 C159.383,123.333 159.9,123.25 160.1,123.45 C160.233,123.583 160.4,123.933 160.6,124.5 C161.367,125.833 163.95,126.5 168.35,126.5 C168.484,126.5 169.167,126.167 170.401,125.5 C171.767,124.767 172.717,124.333 173.251,124.2 C174.051,124.9 174.451,125.367 174.451,125.6 C174.451,126.567 173.718,127.367 172.251,128 C170.685,128.667 168.551,129 165.851,129 C162.918,129 160.818,128.333 159.551,127 C158.818,126.233 158.451,125.433 158.451,124.6 L158.55,123.7 L158.55,123.7 Z M204.95,95.9 C203.55,97.067 202.849,97.85 202.849,98.25 C202.849,99.183 203.582,99.733 205.049,99.9 C205.749,99.9 206.15,99.233 206.249,97.9 C206.249,97.834 206.065,97.55 205.699,97.05 C205.3,96.517 205.05,96.133 204.95,95.9 L204.95,95.9 Z M210.85,98.5 C210.85,100.033 210.684,101.133 210.35,101.8 C209.684,103.133 208.317,103.8 206.25,103.8 C204.017,103.8 202.25,102.8 200.95,100.8 C200.083,99.467 199.65,98.367 199.65,97.5 C199.65,96.033 200.233,94.75 201.4,93.65 C202.5,92.617 203.783,92.05 205.25,91.95 C208.983,91.617 210.85,93.8 210.85,98.5 L210.85,98.5 Z M195.3,173.85 C199.367,176.184 202.85,177.934 205.75,179.1 C206.617,179.434 207.533,179.767 208.5,180.1 C210.333,180.967 212,181.467 213.5,181.6 C220.2,183.367 228.717,184.784 239.05,185.85 C236.083,184.05 232.25,181.017 227.55,176.75 C224.95,174.184 222.783,172.033 221.05,170.3 C220.05,168.8 218.484,166.934 216.35,164.7 C214.484,162.733 213.067,161.583 212.1,161.25 C209.234,158.417 206,155.633 202.401,152.9 C192.168,145.1 182.834,141.2 174.401,141.2 C173.734,141.2 171.668,141.766 168.201,142.9 C166.067,143.633 164.6,144.133 163.801,144.4 C164.101,144.733 164.418,145.15 164.751,145.65 C165.218,146.317 166.918,149.1 169.851,154 C171.051,155.333 172.818,157.55 175.152,160.65 C177.551,163.45 180.285,165.633 183.351,167.2 C185.517,168.3 189.5,170.517 195.3,173.85 L195.3,173.85 Z M186.45,173.85 C186.45,178.55 184.683,183.6 181.15,189 C175.95,197 168.45,201 158.65,201 C150.383,201 143.35,197.8 137.55,191.4 C135.484,189.133 133.8,186.683 132.5,184.049 C131.4,181.849 130.85,180.199 130.85,179.099 L130.85,178.95 C124.316,181.683 116.983,183.766 108.85,185.2 C113.416,193.634 119.583,200.016 127.35,204.349 C135.683,208.983 147.05,211.299 161.45,211.299 C168.217,211.299 174.599,209.949 180.599,207.249 L180.599,207.149 C180.9,206.482 181.533,206.215 182.499,206.348 C188.166,203.449 193.466,199.315 198.399,193.949 C201.832,190.182 204.782,186.282 207.249,182.249 C206.383,181.916 205.516,181.565 204.649,181.199 C201.315,179.832 195.032,176.682 185.798,171.749 C186,172.384 186.217,173.083 186.45,173.85 L186.45,173.85 Z M222.2,151.5 C225.5,150.4 227.15,148.817 227.15,146.75 C227.15,145.95 226.7,144.883 225.799,143.55 C224.9,142.183 224.449,140.6 224.449,138.8 C224.449,137.6 224.848,135.783 225.649,133.35 C226.449,130.916 226.848,129.533 226.848,129.2 C226.848,128.933 226.515,128.266 225.848,127.2 C225.782,127.1 225.732,127 225.699,126.9 C224.466,126.733 223.466,126.334 222.699,125.7 C222.332,135.333 221.383,144.2 219.848,152.3 C220.483,152.067 221.267,151.8 222.2,151.5 L222.2,151.5 Z M164.7,152.5 C163.633,151.033 162.85,149.817 162.35,148.85 C161.916,150.117 161.367,151.467 160.7,152.9 C161.433,152.8 162.283,152.733 163.25,152.7 C163.816,152.666 164.35,152.666 164.85,152.7 C164.783,152.633 164.733,152.567 164.7,152.5 L164.7,152.5 Z M165.25,191.8 C163.583,191.467 159.917,191.567 154.25,192.1 C148.883,192.701 146.15,193 146.05,193 L143.05,193 C147.383,196.667 152.6,198.5 158.7,198.5 C165.634,198.5 171.316,196.267 175.75,191.8 L165.25,191.8 L165.25,191.8 Z M180.45,214.75 C180.45,213.116 180.467,211.8 180.5,210.8 C180.467,210.767 180.45,210.717 180.45,210.651 L180.45,209.6 C173.316,212.401 165.316,213.8 156.45,213.8 C150.383,213.8 144.783,213.167 139.65,211.901 C140.184,213.134 140.483,214.85 140.55,217.05 C140.65,219.45 140.484,222.017 140.05,224.75 C140.05,227.85 140.017,230.3 139.95,232.1 L139.7,232.35 C139.533,232.517 139.25,232.6 138.85,232.6 C138.45,232.6 138.183,232.55 138.05,232.451 C137.95,232.317 137.817,232.201 137.65,232.1 C137.65,230.134 137.55,227.6 137.35,224.5 C136.65,225.134 135.95,225.866 135.25,226.7 C133.383,228.933 132.45,230.933 132.45,232.7 C132.45,235.066 133.6,237 135.9,238.5 C139.067,240.5 144.584,241.934 152.45,242.8 L162.85,242.8 C171.717,241.767 178.45,240.116 183.05,237.85 C187.184,235.784 189.25,233.434 189.25,230.8 C189.25,228.934 188.117,226.8 185.85,224.401 C184.75,223.234 183.917,222.334 183.35,221.701 C183.451,222.701 183.55,223.784 183.651,224.951 C183.651,225.617 183.618,225.867 183.55,225.701 L183.3,225.951 C183.134,226.117 182.85,226.201 182.45,226.201 C181.349,226.201 180.683,224.234 180.45,220.301 L180.45,214.75 L180.45,214.75 Z M189.75,224.3 C191.017,226.267 191.65,228.45 191.65,230.85 C191.65,233.917 189.283,236.867 184.549,239.701 C180.983,241.834 176.566,243.385 171.299,244.35 C172.699,245.784 175.116,248.434 178.549,252.3 C184.049,258.5 187.933,261.6 190.199,261.6 C192.065,261.6 194.149,260.867 196.449,259.401 C198.383,258.168 199.348,257.401 199.348,257.1 C199.348,256.833 199.132,255.267 198.699,252.401 C198.265,249.534 198.049,247.6 198.049,246.6 L198.049,244.8 C198.316,244.134 199.116,243.8 200.449,243.8 C200.982,243.8 202.749,244.134 205.749,244.8 C205.883,244.434 206.616,242.651 207.949,239.45 C209.082,236.65 209.649,235.083 209.649,234.75 C209.649,234.384 208.116,232.733 205.048,229.8 C201.982,226.866 200.448,224.984 200.448,224.151 L200.448,224.1 C199.081,223.734 197.597,223.367 195.998,223 C190.865,221.8 187.281,220.95 185.248,220.45 C187.117,221.316 188.617,222.6 189.75,224.3 L189.75,224.3 Z M275.75,136.4 C275.75,136.433 275.8,136.517 275.9,136.65 C276,136.783 276.049,137.05 276.049,137.45 C276.049,138.016 275.016,138.317 272.949,138.35 C268.582,138.45 263.749,138.933 258.449,139.8 L247.348,139.9 L246.048,140.2 L240.048,140.2 C239.415,139.666 239.098,139.383 239.098,139.35 C238.932,139.217 238.848,139.033 238.848,138.8 C238.815,138.667 238.798,138.533 238.798,138.4 C238.831,138.133 239.015,137.917 239.348,137.75 C240.382,137.183 242.715,137.167 246.348,137.7 L247.649,137.4 L259.048,137.3 C261.048,137.2 264.548,137 269.548,136.7 C272.884,136.5 274.95,136.4 275.75,136.4 L275.75,136.4 Z M282.05,155 C271.45,153.4 265.184,152.467 263.25,152.2 C258.983,151.733 255.184,151.233 251.85,150.7 C245.317,149.7 242.05,148.766 242.05,147.9 C242.05,147.267 248.917,147.883 262.651,149.75 C276.384,151.583 283.251,152.95 283.251,153.85 C283.25,154.617 282.85,155 282.05,155 L282.05,155 Z M247.45,224.8 C246.917,221.333 246.667,218.5 246.7,216.3 L246.7,215.1 C246.599,215.267 246.45,215.417 246.25,215.55 C245.017,216.817 244.117,218.116 243.55,219.45 C243.117,220.583 244.05,222.516 246.35,225.25 C246.85,225.85 247.284,226.4 247.651,226.9 C247.617,226.3 247.55,225.6 247.45,224.8 L247.45,224.8 Z M258.85,207.2 C258.118,208.433 257.35,208.884 256.55,208.55 C254.217,207.616 252.767,207.167 252.2,207.2 C251.566,207.3 250.95,208.016 250.349,209.349 C250.349,209.383 250.332,209.433 250.299,209.499 C249.599,211.232 249.316,213.416 249.449,216.049 C249.749,220.849 249.899,223.433 249.899,223.799 C249.798,228.832 251.065,232.949 253.699,236.15 C256.232,239.216 260.716,242.083 267.149,244.75 C267.916,245.083 268.749,245.283 269.649,245.35 C272.048,245.55 274.815,244.8 277.949,243.1 C277.982,243.067 278.032,243.034 278.098,243 C281.732,241 283.866,239.233 284.498,237.7 C285.331,236.4 285.831,235.583 285.998,235.25 C286.331,234.384 286.515,231.6 286.548,226.9 L286.548,224.299 C286.581,222.099 286.565,220.082 286.498,218.249 C286.465,217.349 286.448,215.883 286.448,213.849 C286.248,212.049 285.665,210.45 284.698,209.049 C283.231,206.782 281.481,206.516 279.448,208.249 C278.882,208.683 278.132,209.383 277.198,210.349 C276.431,211.049 275.831,211.316 275.398,211.15 C275.198,211.049 274.781,210.25 274.148,208.75 C273.481,207.25 272.165,206.083 270.198,205.25 C269.898,205.116 269.097,205.767 267.798,207.2 C266.531,208.667 265.465,209.217 264.598,208.849 C264.298,208.716 263.982,208.316 263.649,207.65 C263.348,207.016 262.332,206.333 260.598,205.599 C260.233,205.434 259.65,205.967 258.85,207.2 L258.85,207.2 Z M329.25,138.15 C331.384,139.584 332.45,141.383 332.45,143.55 C332.45,144.617 332.25,145.417 331.849,145.95 C331.383,146.583 330.216,147.533 328.349,148.8 C329.383,149.9 330.082,150.7 330.45,151.2 C331.25,152.3 331.65,153.2 331.65,153.9 C331.65,154.1 331.4,154.533 330.9,155.2 C330.333,155.933 329.983,156.5 329.849,156.9 C329.749,157.233 329.749,157.684 329.849,158.25 C329.983,158.983 330.049,159.434 330.049,159.6 C330.049,160.467 329.549,161.467 328.549,162.6 C327.416,163.934 326.116,164.6 324.65,164.6 C323.783,164.6 323.216,164.284 322.95,163.651 C322.884,163.017 322.849,162.668 322.849,162.6 L322.95,161.401 C323.083,161.334 323.4,161.35 323.9,161.451 C324.5,161.551 324.95,161.6 325.25,161.6 C325.783,161.6 326.316,161.317 326.85,160.75 C326.884,160.684 327.151,160.3 327.651,159.6 C327.284,159.067 326.751,158.684 326.05,158.451 C325.517,158.251 325.25,157.968 325.25,157.6 C325.25,156.834 325.884,156.201 327.15,155.701 C328.417,155.234 329.049,154.601 329.049,153.801 C329.049,152.868 328.216,151.918 326.549,150.951 C324.883,149.951 324.049,149.134 324.049,148.501 C324.049,148.201 325.049,147.518 327.049,146.451 C329.049,145.417 330.049,144.384 330.049,143.351 C330.049,142.484 329.383,141.584 328.049,140.651 C326.716,139.751 326.049,139.101 326.049,138.701 C326.05,136.9 327.117,136.717 329.25,138.15 L329.25,138.15 Z M286.6,239.5 C285.401,240.634 284.451,241.616 283.75,242.45 C283.483,242.65 283.217,242.866 282.95,243.099 C282.316,243.599 281.617,244.099 280.849,244.599 C276.883,247.266 273.15,248.433 269.65,248.099 C268.45,247.966 267.266,247.666 266.099,247.2 C260.367,244.8 255.966,242.083 252.9,239.05 C252.066,238.151 251.367,237.283 250.799,236.45 C250.733,236.516 250.683,236.599 250.65,236.7 C250.25,237.533 250.049,238.033 250.049,238.2 C250.049,239.467 252.683,242.134 257.949,246.2 C262.682,249.833 266.582,251.967 269.649,252.599 C270.282,252.733 270.882,252.799 271.449,252.799 C274.883,252.799 278.549,251.633 282.449,249.299 C285.916,247.233 287.649,245.733 287.649,244.799 C287.649,244.599 287.565,244.032 287.399,243.099 C287.2,242.233 286.934,241.033 286.6,239.5 L286.6,239.5 Z M168.5,244.75 C166.267,245.05 163.917,245.25 161.45,245.35 C161.05,246.151 160.166,247.55 158.8,249.55 C158.834,250.417 158.717,251.234 158.45,252 L158.45,270.6 C159.016,272.767 159.283,276.067 159.25,280.5 C159.184,284.866 159.45,288.066 160.05,290.1 C160.25,290.067 162.033,289.951 165.401,289.75 C168.701,289.15 170.384,287.8 170.451,285.7 C170.451,285.099 170.517,284.15 170.651,282.849 C170.784,281.549 170.85,280.599 170.85,279.999 C170.85,274.799 170.984,270.899 171.25,268.299 L171.25,256.599 C171.283,255.999 171.4,255.033 171.6,253.7 C171.8,252.333 171.917,251.3 171.951,250.599 C171.984,250.266 172.034,249.95 172.1,249.65 C169.967,247.217 168.767,245.583 168.5,244.75 L168.5,244.75 Z M157.65,245.4 C146.617,245.4 138.783,243.599 134.15,240 C131.417,237.866 130.05,235.417 130.05,232.65 C130.05,230.783 130.484,228.833 131.35,226.799 C132.083,225.099 132.967,223.916 134,223.249 C132.8,223.383 131.383,223.549 129.75,223.749 C128.184,223.916 126.684,224.133 125.25,224.399 L125.25,224.649 C125.25,224.982 124.233,226.715 122.2,229.848 C119.733,233.615 118.117,236.232 117.35,237.699 C120.25,239.265 122.033,240.265 122.7,240.699 C124.4,241.832 125.25,242.848 125.25,243.749 C125.25,244.349 122.684,248.499 117.55,256.199 L117.45,256.499 C120.183,256.899 124.367,257.716 130,258.949 C135.467,259.982 140.583,260.499 145.35,260.499 C147.416,260.499 150.267,257.649 153.9,251.949 C155.767,249.015 157.25,246.832 158.35,245.399 C158.117,245.4 157.883,245.4 157.65,245.4 L157.65,245.4 Z M161.15,251.3 C162.117,250.366 163.217,249.717 164.45,249.35 C167.65,248.417 169.25,249.767 169.25,253.401 C169.25,254.434 168.983,255.434 168.45,256.401 C167.65,257.867 166.45,258.6 164.849,258.6 C162.416,258.6 160.816,257.867 160.049,256.401 C159.782,254.901 159.649,254.1 159.649,254.001 C159.65,253.134 160.15,252.233 161.15,251.3 L161.15,251.3 Z M162.15,271.6 C162.983,270.6 163.95,269.917 165.05,269.55 C167.85,268.583 169.25,270.05 169.25,273.95 C169.25,275.55 169.083,276.7 168.75,277.4 C168.117,278.733 166.816,279.4 164.85,279.4 C162.984,279.4 161.75,278.65 161.15,277.15 C160.95,275.616 160.85,274.816 160.85,274.75 C160.85,273.684 161.283,272.634 162.15,271.6 L162.15,271.6 Z M166.05,256 C167.583,253.333 167.35,252.017 165.35,252.05 C164.618,252.083 163.884,252.317 163.15,252.75 C162.417,253.217 162.05,253.7 162.05,254.2 C162.05,254.9 162.484,255.5 163.35,256 L166.05,256 L166.05,256 Z M165.05,272.4 C163.85,272.966 163.25,273.866 163.25,275.099 C163.25,275.599 163.467,275.999 163.9,276.299 C164.233,276.566 164.583,276.699 164.95,276.699 C166.217,276.699 166.849,275.799 166.849,273.999 C166.85,272.366 166.25,271.833 165.05,272.4 L165.05,272.4 Z M88.45,93.65 C88.45,97.283 89.483,101.033 91.55,104.9 C94.984,111.3 100.383,114.5 107.75,114.5 C116.85,114.5 122.816,111.3 125.65,104.9 C126.55,102.867 127.084,100.567 127.25,98 L127.25,94.25 C127.25,92.55 127.017,90.967 126.55,89.5 C124.783,87.8 122.617,85.667 120.05,83.1 C119.15,82.166 118.317,81.3 117.55,80.5 C114.684,79.3 111.45,78.683 107.85,78.65 C102.617,78.617 98.166,79.867 94.5,82.4 C90.467,85.2 88.45,88.95 88.45,93.65 L88.45,93.65 Z M92.85,125.25 L92.45,124.7 C90.283,124.7 88.783,125.067 87.95,125.8 C87.483,126.234 87.25,126.734 87.25,127.3 C87.25,127.933 87.983,129.734 89.45,132.7 C90.916,135.7 91.65,138.5 91.65,141.1 C91.65,141.166 91.317,142.633 90.65,145.5 C89.983,148.433 89.65,150.067 89.65,150.4 C89.65,151.233 89.883,152.133 90.35,153.1 C91.017,154.433 91.883,155.1 92.95,155.1 C93.75,155.1 94.583,154.617 95.45,153.65 C96.316,152.683 96.916,152.2 97.25,152.2 L97.35,152.2 C96.717,148.4 96,143.85 95.2,138.55 C94.467,133.75 93.883,129.484 93.45,125.75 C93.25,125.683 93.05,125.517 92.85,125.25 L92.85,125.25 Z M110.85,96.95 C110.85,95.45 111.433,94.117 112.6,92.95 C113.7,91.85 114.983,91.183 116.45,90.95 C118.016,90.683 119.3,91.016 120.3,91.95 C121.467,93.016 122.05,94.7 122.05,97 C122.05,98.167 121.717,99.267 121.05,100.3 C120.084,101.834 118.617,102.6 116.65,102.6 C114.35,102.6 112.684,101.666 111.65,99.8 C111.117,97.933 110.85,96.983 110.85,96.95 L110.85,96.95 Z M116.05,98.1 C117.35,98.1 118.3,97.833 118.9,97.3 C119.267,96.967 119.45,96.567 119.45,96.1 C119.45,95 118.75,94.567 117.35,94.8 C115.95,95.033 115.25,95.633 115.25,96.6 C115.25,97.267 115.283,97.666 115.35,97.8 L115.4,97.95 C115.434,98.05 115.65,98.1 116.05,98.1 L116.05,98.1 Z M11.05,112 L10.05,114.85 C10.05,115.25 10.317,115.967 10.85,117 C11.383,118 11.65,118.533 11.65,118.6 C11.65,119.166 10.584,119.65 8.45,120.05 C6.317,120.45 5.25,121.5 5.25,123.2 C5.25,123.967 5.65,124.817 6.45,125.75 C7.25,126.683 7.65,127.25 7.65,127.45 C7.65,127.783 6.85,128.483 5.25,129.55 C3.65,130.617 2.85,131.5 2.85,132.2 C2.85,133.133 3.45,134.1 4.65,135.1 C5.85,136.1 6.45,136.75 6.45,137.05 C6.45,137.817 5.983,138.2 5.05,138.2 C3.517,138.2 2.283,137.2 1.35,135.2 L0.45,132.2 C0.45,131.166 0.983,130.05 2.05,128.85 C3.117,127.65 3.65,126.967 3.65,126.8 C3.65,126.467 3.517,125.867 3.25,125 C2.983,124.133 2.85,123.533 2.85,123.2 C2.85,121.4 3.65,119.833 5.25,118.5 C6.85,117.133 7.65,115.95 7.65,114.95 C7.65,112.583 8.7,110.467 10.8,108.6 C13.7,105.933 17.584,106.067 22.45,109 L22.25,109.9 L22.05,110.05 C21.917,110.15 21.65,110.2 21.25,110.2 C20.65,110.2 20.333,110.033 20.3,109.7 C20.267,109.367 19.184,109.2 17.05,109.2 C14.283,109.2 12.283,110.133 11.05,112 L11.05,112 Z M37.4,122 C33.2,122 30.317,123.067 28.75,125.2 C28.25,125.9 27.917,126.65 27.75,127.45 C27.684,127.85 27.65,128.2 27.65,128.5 C27.65,128.767 27.983,129.233 28.65,129.9 C29.317,130.567 29.65,131.133 29.65,131.6 C28.184,132.3 26.717,133.117 25.25,134.05 C22.316,135.917 20.85,137.783 20.85,139.65 C20.85,141.617 21.85,143.25 23.85,144.55 C25.85,145.85 26.85,146.7 26.85,147.1 C26.85,147.267 26.383,148.15 25.45,149.75 C24.516,151.35 24.05,152.667 24.05,153.7 C24.05,155.6 24.65,156.633 25.85,156.8 C26.75,156.933 28.95,156.867 32.45,156.6 C33.183,156.6 33.583,156.916 33.65,157.55 C33.684,157.717 33.617,158.434 33.45,159.7 C33.183,161.766 34.166,162.8 36.4,162.8 C37.4,162.8 38.4,162.567 39.4,162.1 C40.4,161.634 40.95,161.401 41.05,161.401 C41.75,161.401 42.184,161.617 42.35,162.05 C42.416,162.184 42.45,162.434 42.45,162.8 C42.45,163.234 41.75,163.767 40.35,164.401 C38.883,165.067 37.517,165.401 36.25,165.401 C33.483,165.401 31.767,164.517 31.1,162.751 C30.933,162.351 30.85,161.334 30.85,159.701 L30.85,159.6 C27.583,160.333 25.1,159.784 23.4,157.951 C22.233,156.684 21.65,155.267 21.65,153.701 C21.65,152.534 21.817,151.534 22.15,150.701 C22.35,150.134 22.917,149.068 23.85,147.501 L23.95,147.401 C21.35,146.501 19.683,145.268 18.95,143.701 C18.617,142.934 18.45,141.568 18.45,139.601 C18.45,137.468 19.266,135.334 20.9,133.201 C22.167,131.534 23.617,130.201 25.25,129.201 C24.917,127.001 25.5,125.118 27,123.551 C29.267,121.151 33.483,119.768 39.65,119.401 C40.717,120.168 41.25,120.835 41.25,121.401 C41.25,121.835 41.15,122.234 40.95,122.601 C40.683,123.134 40.25,123.401 39.65,123.401 C39.017,123.401 38.65,123.168 38.55,122.701 C38.483,122.233 38.1,122 37.4,122 L37.4,122 Z M57.4,140.6 C67.367,138.7 74.417,137.567 78.55,137.2 C78.55,137.233 78.6,137.317 78.7,137.45 C78.8,137.583 78.85,137.85 78.85,138.25 C78.85,138.917 74.083,140.083 64.55,141.75 C51.55,144.05 44.184,145.4 42.45,145.8 C41.65,145.1 41.25,144.734 41.25,144.7 C41.25,143.967 46.633,142.6 57.4,140.6 L57.4,140.6 Z M58.15,131.8 C58.084,131.734 58.05,131.5 58.05,131.1 C58.05,130.567 58.15,130.233 58.35,130.1 C58.617,129.867 59.383,129.717 60.65,129.65 C60.817,129.65 67.317,129.5 80.15,129.2 C80.15,129.233 80.2,129.317 80.3,129.45 C80.4,129.583 80.45,129.85 80.45,130.25 C80.45,130.717 78.05,131.167 73.25,131.6 C68.75,132 64.35,132.2 60.05,132.2 L58.25,132 C58.25,131.967 58.217,131.9 58.15,131.8 L58.15,131.8 Z M21.65,171.3 C21.65,170.934 21.667,170.734 21.7,170.7 C21.766,170.634 21.816,170.533 21.85,170.4 C22.816,170.266 23.5,170.483 23.9,171.049 C24.167,171.383 24.467,171.999 24.8,172.9 C25.767,174.566 28.35,174.933 32.55,174 C32.55,174.033 32.6,174.116 32.7,174.25 C32.8,174.384 32.85,174.65 32.85,175.05 C32.85,175.484 32.45,175.901 31.65,176.3 C30.75,176.767 29.684,177 28.45,177 C26.016,177 24.166,176.1 22.9,174.3 C22.066,173.134 21.65,172.134 21.65,171.3 L21.65,171.3 Z M56.45,155.9 C56.45,154.567 59.666,152.7 66.1,150.3 C71.7,148.2 75.983,146.9 78.95,146.4 C78.95,146.433 79,146.517 79.1,146.65 C79.2,146.783 79.25,147.05 79.25,147.45 C79.25,147.916 75.9,149.55 69.2,152.35 C62.166,155.183 58.316,156.733 57.65,157 C56.85,156.333 56.45,155.967 56.45,155.9 L56.45,155.9 Z M37.15,208.05 C35.317,206.95 34.033,206.5 33.3,206.7 C30.767,207.366 29.017,208.616 28.05,210.45 C27.45,211.583 27.117,212.917 27.05,214.45 C27.05,214.783 27.117,215.349 27.25,216.15 L27.25,216.4 C27.25,219.333 27.35,221.716 27.55,223.549 C27.65,224.349 27.85,225.9 28.15,228.199 C28.184,228.732 28.217,229.299 28.25,229.899 C28.483,232.732 28.684,235.098 28.85,236.999 C29.217,238.166 29.7,239.749 30.3,241.749 C30.533,242.449 30.767,243.216 31,244.049 C31.133,246.416 32.2,248.449 34.2,250.15 C38.166,253.65 44.967,254.099 54.6,251.5 C57.5,250.733 60.267,248.7 62.9,245.4 C62.867,245.333 62.834,245.266 62.8,245.2 C62.934,245.033 63.084,244.849 63.25,244.65 C63.35,244.549 63.434,244.45 63.5,244.349 C63.6,244.249 63.717,244.15 63.85,244.049 C66.05,240.949 68.133,237.016 70.1,232.249 C70.267,231.815 70.433,231.383 70.6,230.949 C71.967,227.383 73.1,223.782 74,220.149 C74.9,216.515 75.25,214.298 75.05,213.499 C74.75,212.399 74.517,211.749 74.35,211.549 C73.95,211.049 73.066,210.549 71.7,210.049 C71.6,210.082 71.516,210.115 71.45,210.15 C71.25,210.349 70.95,210.5 70.55,210.599 C69.317,210.832 68.217,211.099 67.25,211.4 C66.45,210.733 66.05,210.366 66.05,210.299 C66.05,209.699 66.35,209.249 66.95,208.949 C66.717,208.749 66.483,208.532 66.25,208.299 C64.517,206.499 62.617,205.865 60.55,206.4 C59.484,206.7 58.684,207.316 58.15,208.25 C57.584,209.15 57.067,209.65 56.6,209.75 C56.533,209.783 55.117,208.884 52.35,207.05 C50.95,206.116 49.8,205.384 48.9,204.85 C47.934,204.284 47.25,203.951 46.85,203.85 L43.2,204.85 C42.967,205.083 42.683,205.684 42.35,206.651 C42.25,206.951 42.133,207.267 42,207.6 C41.533,209.034 41.1,209.8 40.7,209.901 C40.4,210.001 39.283,209.434 37.35,208.201 C37.25,208.134 37.184,208.083 37.15,208.05 L37.15,208.05 Z M103.6,163.8 C101.967,164.667 100.75,165.517 99.95,166.35 C97.95,167.75 95.633,169.384 93,171.25 C86.667,175.75 80.017,179.9 73.05,183.7 L72.85,183.8 C73.383,184 74.7,184.217 76.8,184.45 C78.734,184.683 80,184.8 80.6,184.8 C89.633,184.8 98.033,184.2 105.8,183 L105.85,183 C106.883,183 108.05,182.8 109.35,182.4 C117.183,180.933 124.316,178.816 130.75,176.049 C146.983,169.049 156.783,158.466 160.15,144.299 C152.35,140.566 142.084,141.666 129.35,147.599 C122.35,150.866 115.283,155.232 108.15,160.699 C107.383,161.2 105.867,162.233 103.6,163.8 L103.6,163.8 Z M77.7,229.05 C77.4,228.55 77,228.05 76.5,227.55 C75.9,226.884 75.417,226.317 75.05,225.85 C74.617,227.284 74.133,228.717 73.6,230.151 C73.2,231.284 72.767,232.434 72.3,233.6 C71.234,236.134 70.133,238.451 69,240.55 C69.667,240.116 70.383,239.651 71.15,239.151 C76.783,235.484 79.417,232.984 79.05,231.651 C78.816,230.816 78.367,229.95 77.7,229.05 L77.7,229.05 Z M63.6,248.45 L63.6,248.5 C62.333,249.4 61.35,250.316 60.65,251.25 C58.917,252.616 57.117,253.55 55.25,254.05 C45.483,256.651 38.517,256.583 34.35,253.85 C32.617,252.684 30.983,250.817 29.45,248.25 C29.416,247.85 29.316,247.384 29.15,246.85 C29.05,247.05 28.95,247.25 28.85,247.451 C28.316,248.451 28.05,249.251 28.05,249.85 C28.05,251.151 28.35,252.667 28.95,254.401 C29.65,256.467 30.483,257.668 31.45,258.001 L34.55,258.001 C34.783,257.935 35.7,257.834 37.3,257.701 C38.9,257.567 39.817,257.468 40.05,257.401 L54.55,257.201 C61.283,256.301 64.917,254.35 65.45,251.35 C65.45,249.617 65.467,248.333 65.5,247.5 C65.5,246.934 65.566,246.4 65.7,245.9 C65.033,246.833 64.333,247.684 63.6,248.45 L63.6,248.45 Z" id="Shape" fill="#000000" sketch:type="MSShapeGroup"></path>
            <path d="M189.95,6.7 L189.75,7 C186.05,12.033 182.767,16.617 179.9,20.75 C174.4,28.783 171.65,34.25 171.65,37.15 C171.65,37.217 171.667,37.55 171.7,38.15 C171.833,38.717 172.283,39 173.05,39 C173.45,39 176.3,36.733 181.6,32.2 C187.401,27.2 190.651,24.467 191.35,24 C193.817,22.333 198.8,19.867 206.3,16.6 C214.533,13 220.583,10.833 224.45,10.1 C220.083,13.267 214.7,17.55 208.3,22.95 C198.267,31.416 193.25,36.783 193.25,39.05 L193.25,39.9 C193.45,40.367 193.983,40.6 194.85,40.6 C195.118,40.6 198.434,39.85 204.8,38.35 C211.333,36.817 215.283,36 216.651,35.9 L246.151,36 C240.651,37.933 235.201,39.967 229.8,42.1 C219.033,46.367 213.651,49.133 213.651,50.4 C213.651,50.633 213.734,50.817 213.901,50.95 C213.901,50.983 214.217,51.266 214.85,51.8 L218.05,51.8 C236.25,53.2 248.033,54.633 253.401,56.1 C257.534,57.233 264.484,60.033 274.251,64.5 C274.185,64.7 269.851,64.867 261.251,65 C253.518,65.967 248.901,66.567 247.401,66.8 C245.701,67.067 244.85,67.717 244.85,68.75 C244.85,69.25 246.984,72.75 251.25,79.25 C255.884,87.35 258.95,95.4 260.45,103.4 C257.717,102.433 255.266,101.567 253.099,100.8 C248.933,99.334 245.516,98.6 242.849,98.6 C242.216,98.6 241.783,98.733 241.549,99 C241.349,99.233 241.249,99.633 241.249,100.2 C241.249,100.266 241.916,102.967 243.249,108.3 C244.582,113.9 245.249,117.3 245.249,118.5 C245.249,119.7 245.116,120.533 244.849,121 C242.783,120.733 240.582,120.333 238.249,119.8 C235.916,119.267 233.716,118.867 231.649,118.6 L227.249,118.6 C226.349,119.133 225.916,119.933 225.949,121 C225.949,121.133 226.116,122.033 226.449,123.7 L226.149,123.8 C225.916,123.567 225.298,123.234 224.298,122.8 C223.531,122.467 223.031,122.283 222.798,122.25 C222.831,120.383 222.848,118.517 222.848,116.65 C225.315,115.017 227.415,112.667 229.149,109.6 C231.616,105.3 232.848,101.4 232.848,97.9 C232.848,94.4 231.515,90.334 228.848,85.7 C225.482,79.933 221.482,77.033 216.848,77 C215.848,76.967 214.866,76.967 213.899,77 C216.399,74.767 217.649,73.5 217.649,73.2 C217.649,71.467 215.582,72.283 211.449,75.65 C209.315,77.55 207.582,79.1 206.249,80.3 C203.815,78.167 201.299,75.584 198.699,72.55 C195.332,68.484 192.782,65.467 191.049,63.5 C190.416,63.067 189.699,62.333 188.9,61.3 C187.933,60.033 187.216,59.183 186.75,58.75 C184.717,56.917 181.65,56.367 177.55,57.1 C175.317,58.367 172.75,59.567 169.85,60.7 C164.05,62.967 157.684,64.1 150.75,64.1 C149.25,64.1 147.05,62.916 144.15,60.55 C141.283,58.183 138.383,57 135.45,57 C133.883,57 130.016,60.2 123.85,66.6 C119.883,70.7 117.233,73.633 115.9,75.4 C111.467,71.6 109.25,70.483 109.25,72.05 L113.75,76.6 C111.883,76.233 109.917,76.05 107.85,76.05 C101.95,76.05 96.95,77.517 92.85,80.45 C88.316,83.717 86.05,88.1 86.05,93.6 C86.05,97.9 87.15,102 89.35,105.9 C90.15,107.3 91.05,108.567 92.05,109.7 L92.05,109.95 C92.05,110.483 92.067,111.067 92.1,111.7 C91.2,112.166 89.65,113.166 87.45,114.7 C83.916,117.2 81.983,118.533 81.65,118.7 L81.65,118.5 C82.717,115.1 83.25,113 83.25,112.2 C83.35,111.833 83.35,111.483 83.25,111.15 C83.083,110.517 82.55,110.2 81.65,110.2 C80.017,110.2 76.367,111.9 70.7,115.3 C64.867,118.967 61.45,121.1 60.45,121.7 L60.45,121.4 C61.25,119.7 64.183,113.85 69.25,103.85 C73.25,95.95 75.25,91.75 75.25,91.25 C75.316,90.883 75.316,90.55 75.25,90.25 C75.083,89.683 74.617,89.4 73.85,89.4 C71.983,89.4 66.25,91.5 56.65,95.7 C53.75,96.967 47.717,99.7 38.55,103.9 L38.55,103.8 C46.584,92.167 55.317,82.817 64.75,75.75 C69.45,72.25 73.35,69.883 76.45,68.65 C76.45,68.25 76.4,67.983 76.3,67.85 C76.2,67.717 76.15,67.633 76.15,67.6 C75.95,67.467 75.517,67.4 74.85,67.4 C67.483,67.4 58.983,68.433 49.35,70.5 C39.85,72.867 33.717,74.333 30.95,74.9 C36.75,72.267 45.383,67.733 56.85,61.3 C67.45,56.2 77.717,53.567 87.65,53.4 C88.45,52.767 88.85,52.35 88.85,52.15 C88.85,50.217 81.733,47.933 67.5,45.3 C52.9,42.967 45.217,41.734 44.45,41.6 L53.85,40.45 C56.983,40.05 60.483,39.467 64.35,38.7 L82.75,38.7 C87.117,39.7 90.316,40.283 92.35,40.45 C95.35,40.683 97.483,40.9 98.75,41.1 C100.45,41.4 103.4,42.467 107.6,44.3 C109.7,45.234 111.65,46.133 113.45,47 C114.383,47 114.85,46.617 114.85,45.85 C114.85,44.85 110.933,40.166 103.1,31.8 C94.566,22.867 89.617,17.6 88.25,16 L88.75,15.9 C91.65,17.1 97.617,19.2 106.65,22.2 C112.017,24 116.483,26.1 120.05,28.5 C121.517,29.5 124.4,32.533 128.7,37.6 C132.666,42.267 134.85,44.6 135.25,44.6 C135.917,44.6 136.25,44.467 136.25,44.2 C136.383,44.367 136.45,44.117 136.45,43.45 C136.45,39.617 134.933,33.717 131.9,25.75 C128.434,17.383 126.25,11.933 125.35,9.4 L125.55,9.4 C131.783,15.133 136.934,20.883 141,26.65 C144.9,32.183 147.917,37.9 150.05,43.8 C150.517,43.5 150.85,43.183 151.05,42.85 C151.217,42.95 151.417,43 151.65,43 C152.05,43 152.317,42.95 152.45,42.85 L152.65,42.7 C155.75,31.4 168.184,19.4 189.95,6.7 L189.95,6.7 Z M233.75,73 C234.184,73.267 235.233,74.25 236.9,75.95 C238.599,77.516 239.917,78.3 240.849,78.3 C241.516,78.3 241.849,78.167 241.849,77.9 C241.983,78.067 242.049,77.817 242.049,77.15 C242.049,75.917 239.116,73.517 233.249,69.95 C227.383,66.383 224.449,65.867 224.449,68.4 C224.449,68.767 225.815,69.533 228.549,70.7 C231.85,72.133 233.583,72.9 233.75,73 L233.75,73 Z M143.25,46.8 C143.35,48.533 143.883,49.967 144.85,51.1 C145.65,50.533 146.05,49.233 146.05,47.2 C146.05,44.5 145.533,41.717 144.5,38.85 C143.233,35.416 141.65,33.333 139.75,32.6 L139.65,33.65 C139.65,33.95 140.15,35.283 141.15,37.65 C142.25,40.15 142.85,41.667 142.95,42.2 C143.017,42.5 143.117,44.033 143.25,46.8 L143.25,46.8 Z M171.1,29.15 C171,29.017 170.951,28.933 170.951,28.9 C169.451,29.667 166.834,33.117 163.101,39.25 C159.468,45.283 157.651,49 157.651,50.4 C157.651,50.467 158.051,50.834 158.851,51.5 C161.018,48.533 163.667,44.283 166.801,38.75 C169.768,33.483 171.251,30.55 171.251,29.95 C171.25,29.55 171.2,29.283 171.1,29.15 L171.1,29.15 Z M201.65,62 L202.849,63.1 C205.283,61.833 212.016,60.967 223.049,60.5 C232.483,60.1 236.816,59.733 236.049,59.4 C234.749,58.2 229.549,57.6 220.449,57.6 C215.549,57.433 211.199,57.8 207.399,58.7 C203.566,59.567 201.65,60.667 201.65,62 L201.65,62 Z M187.1,35.55 C187,35.417 186.951,35.334 186.951,35.3 C185.784,35.667 182.834,37.984 178.1,42.25 C173.267,46.583 170.85,49.167 170.85,50 L172.05,51.1 C174.75,49.033 177.967,46.2 181.7,42.6 C185.4,39 187.25,36.916 187.25,36.35 C187.25,35.95 187.2,35.683 187.1,35.55 L187.1,35.55 Z M209.9,42.35 C209.799,42.217 209.75,42.133 209.75,42.1 C208.083,42.166 204.083,43.433 197.75,45.9 C191.017,48.533 187.65,50.433 187.65,51.6 C187.65,51.666 188.049,52.033 188.849,52.7 C189.549,52.333 193.383,50.617 200.349,47.55 C206.816,44.717 210.049,43.25 210.049,43.15 C210.05,42.75 210,42.483 209.9,42.35 L209.9,42.35 Z M189.25,151.9 C192.25,153.733 195.517,155.7 199.05,157.8 C199.884,158.366 202.6,160.734 207.2,164.901 C211.134,168.501 213.417,170.3 214.05,170.3 C214.717,170.3 215.05,170.167 215.05,169.901 C215.184,170.067 215.25,169.817 215.25,169.151 C215.25,167.117 209.45,162.168 197.85,154.3 C186.25,146.4 180.451,143.367 180.451,145.2 C180.45,146 183.384,148.233 189.25,151.9 L189.25,151.9 Z M195.3,173.85 C189.5,170.517 185.517,168.3 183.35,167.201 C180.284,165.635 177.55,163.451 175.151,160.651 C172.817,157.55 171.05,155.334 169.85,154.001 C166.917,149.101 165.217,146.318 164.75,145.651 C164.417,145.151 164.1,144.734 163.8,144.401 C164.6,144.134 166.067,143.634 168.2,142.901 C171.667,141.768 173.733,141.201 174.4,141.201 C182.833,141.201 192.167,145.101 202.4,152.901 C206,155.634 209.233,158.418 212.099,161.251 C213.066,161.584 214.483,162.734 216.349,164.701 C218.483,166.934 220.049,168.801 221.049,170.301 C222.782,172.034 224.949,174.185 227.549,176.751 C232.249,181.018 236.082,184.051 239.049,185.851 C228.716,184.785 220.199,183.368 213.499,181.601 C211.999,181.468 210.332,180.968 208.499,180.101 C207.532,179.768 206.616,179.435 205.749,179.101 C202.85,177.934 199.367,176.184 195.3,173.85 L195.3,173.85 Z M151.1,150.75 C151,150.617 150.95,150.533 150.95,150.5 C149.683,151.233 146.233,153.833 140.6,158.3 C135.267,162.567 130.95,165.567 127.65,167.3 C124.517,168.934 117.817,171.067 107.55,173.7 C99.617,175.766 95.65,177.599 95.65,179.2 C95.65,179.233 96.05,179.599 96.85,180.3 C100.65,178.901 105.983,177.3 112.85,175.5 C117.583,174.267 122.55,172.366 127.75,169.8 C129.25,169.1 133.267,166.45 139.8,161.85 C147.434,156.451 151.25,153.017 151.25,151.55 C151.25,151.15 151.2,150.883 151.1,150.75 L151.1,150.75 Z M153.65,146.75 C153.65,146.65 153.25,146.233 152.45,145.5 C141.85,147.2 133.016,149.867 125.95,153.5 C123.85,154.6 119.05,157.8 111.55,163.1 C109.117,164.833 103.383,168.117 94.35,172.951 C85.883,177.418 81.65,179.668 81.65,179.701 C81.65,179.934 81.717,180.117 81.85,180.251 C81.983,180.385 82.316,180.668 82.85,181.101 C87.916,179.135 93.1,176.751 98.4,173.952 C104.1,170.952 109.05,167.935 113.25,164.902 C118.717,160.902 123.55,157.702 127.75,155.301 C131.816,153.001 137.367,150.901 144.4,149.001 C147.9,148.033 150.983,147.283 153.65,146.75 L153.65,146.75 Z M209.05,171.45 C202.151,168.683 196.684,165.866 192.651,163 C187.418,159.267 183.618,156.067 181.251,153.4 C179.051,150.967 177.401,149.217 176.301,148.15 C174.402,146.25 172.885,145.334 171.751,145.4 L171.651,146.3 C171.651,147.834 173.6,150.433 177.501,154.1 C181.301,157.7 185.984,161.4 191.551,165.2 C205.485,174.733 216.318,179.5 224.051,179.5 C224.584,179.5 224.902,179.316 225.001,178.95 C225.067,178.783 225.151,178.5 225.251,178.099 C224.417,177.7 219.017,175.483 209.05,171.45 L209.05,171.45 Z M91.1,71.95 C91,71.817 90.95,71.733 90.95,71.7 C89.583,71 86.1,72.1 80.5,75 C74.867,77.933 72.05,80.133 72.05,81.6 C72.05,81.633 72.45,82 73.25,82.7 C76.983,80.4 81.133,78.05 85.7,75.65 C87.933,74.483 89.783,73.517 91.25,72.75 C91.25,72.35 91.2,72.083 91.1,71.95 L91.1,71.95 Z M101.1,62.75 C101.2,62.483 101.25,62.267 101.25,62.1 C101.083,61.933 101.033,61.666 101.1,61.3 C101.166,61 101.066,60.8 100.8,60.7 C99.967,60.367 96.517,60.4 90.45,60.8 C87.383,61.167 85.233,61.484 84,61.75 C81.9,62.183 80.85,62.8 80.85,63.6 C80.85,63.666 81.25,64.033 82.05,64.7 C82.25,64.666 83.15,64.4 84.75,63.9 C86.617,63.433 88.417,63.2 90.15,63.2 C90.483,63.2 92.3,63.25 95.6,63.35 C98.767,63.45 100.45,63.433 100.65,63.3 C100.816,63.2 100.967,63.017 101.1,62.75 L101.1,62.75 Z M111.55,57.45 C111.85,57.05 112.017,56.833 112.05,56.8 C112.017,55.834 111.017,54.633 109.05,53.2 C106.684,51.633 105.084,50.533 104.25,49.9 C99.017,47.7 95.383,46.4 93.35,46 C91.416,45.667 90.45,46.067 90.45,47.2 C90.45,47.733 92.2,48.567 95.7,49.7 C100.433,51.2 103.083,52.067 103.65,52.3 C104.05,52.467 105.367,53.45 107.6,55.25 C109.733,57.017 110.816,57.9 110.85,57.9 C111.083,57.9 111.316,57.75 111.55,57.45 L111.55,57.45 Z M129.25,51.35 L129.45,51.2 L129.65,50.15 C129.283,47.917 127.584,45.383 124.55,42.55 C121.383,39.584 118.05,37.6 114.55,36.6 L114.45,37.5 C114.45,38.067 115.8,39.35 118.5,41.35 C119.867,42.35 121.316,43.367 122.85,44.4 C123.383,44.834 124.4,46.2 125.9,48.5 C127.2,50.5 128.05,51.5 128.45,51.5 C128.85,51.5 129.117,51.45 129.25,51.35 L129.25,51.35 Z M103.6,163.8 C105.867,162.234 107.383,161.2 108.15,160.7 C115.283,155.233 122.35,150.867 129.35,147.6 C142.083,141.666 152.35,140.567 160.15,144.3 C156.783,158.467 146.983,169.05 130.75,176.05 C124.316,178.817 117.184,180.934 109.35,182.401 C108.05,182.8 106.883,183.001 105.85,183.001 L105.8,183.001 C98.033,184.201 89.633,184.801 80.6,184.801 C80,184.801 78.733,184.685 76.8,184.451 C74.7,184.218 73.383,184.001 72.85,183.801 L73.05,183.701 C80.017,179.901 86.667,175.751 93,171.251 C95.633,169.385 97.95,167.751 99.95,166.351 C100.75,165.517 101.967,164.667 103.6,163.8 L103.6,163.8 Z M120.85,165.6 C120.85,165.634 121.25,166 122.05,166.701 C123.783,165.801 126.967,163.901 131.6,161.001 C136.433,157.935 138.85,156.251 138.85,155.951 C138.85,155.551 138.8,155.284 138.7,155.151 C138.6,155.018 138.55,154.934 138.55,154.901 C136.95,154.901 133.55,156.585 128.35,159.951 C123.35,163.184 120.85,165.066 120.85,165.6 L120.85,165.6 Z" id="Shape" fill="#878787" sketch:type="MSShapeGroup"></path>
            <path d="M233.75,73 C233.583,72.9 231.85,72.133 228.55,70.7 C225.817,69.533 224.45,68.766 224.45,68.4 C224.45,65.867 227.384,66.383 233.25,69.95 C239.117,73.516 242.05,75.916 242.05,77.15 C242.05,77.817 241.984,78.067 241.85,77.9 C241.85,78.167 241.517,78.3 240.85,78.3 C239.917,78.3 238.6,77.517 236.901,75.95 C235.233,74.25 234.184,73.267 233.75,73 L233.75,73 Z M209.9,42.35 C210,42.483 210.049,42.75 210.049,43.15 C210.049,43.25 206.816,44.717 200.349,47.55 C193.383,50.617 189.549,52.334 188.849,52.7 C188.049,52.033 187.65,51.666 187.65,51.6 C187.65,50.433 191.016,48.533 197.75,45.9 C204.083,43.433 208.083,42.167 209.75,42.1 C209.75,42.133 209.8,42.217 209.9,42.35 L209.9,42.35 Z M187.1,35.55 C187.201,35.683 187.25,35.95 187.25,36.35 C187.25,36.916 185.4,39 181.7,42.6 C177.967,46.2 174.75,49.033 172.05,51.1 L170.85,50 C170.85,49.167 173.267,46.583 178.1,42.25 C182.833,37.983 185.784,35.667 186.951,35.3 C186.95,35.333 187,35.417 187.1,35.55 L187.1,35.55 Z M201.65,62 C201.65,60.667 203.566,59.567 207.4,58.7 C211.2,57.8 215.549,57.433 220.45,57.6 C229.55,57.6 234.75,58.2 236.05,59.4 C236.817,59.733 232.484,60.1 223.05,60.5 C212.017,60.967 205.283,61.833 202.85,63.1 L201.65,62 L201.65,62 Z M171.1,29.15 C171.201,29.283 171.25,29.55 171.25,29.95 C171.25,30.55 169.767,33.483 166.8,38.75 C163.667,44.283 161.017,48.533 158.85,51.5 C158.05,50.833 157.65,50.467 157.65,50.4 C157.65,49 159.467,45.283 163.1,39.25 C166.833,33.117 169.45,29.667 170.95,28.9 C170.95,28.933 171,29.017 171.1,29.15 L171.1,29.15 Z M143.25,46.8 C143.117,44.033 143.017,42.5 142.95,42.2 C142.85,41.666 142.25,40.15 141.15,37.65 C140.15,35.283 139.65,33.95 139.65,33.65 L139.75,32.6 C141.65,33.333 143.233,35.416 144.5,38.85 C145.533,41.717 146.05,44.5 146.05,47.2 C146.05,49.233 145.65,50.533 144.85,51.1 C143.883,49.967 143.35,48.533 143.25,46.8 L143.25,46.8 Z M189.25,151.9 C183.384,148.233 180.45,146 180.45,145.2 C180.45,143.367 186.25,146.4 197.849,154.3 C209.45,162.167 215.249,167.116 215.249,169.151 C215.249,169.817 215.183,170.067 215.049,169.901 C215.049,170.168 214.716,170.3 214.049,170.3 C213.416,170.3 211.133,168.5 207.199,164.901 C202.598,160.734 199.883,158.367 199.049,157.8 C195.517,155.7 192.25,153.733 189.25,151.9 L189.25,151.9 Z M209.05,171.45 C219.017,175.483 224.417,177.7 225.25,178.099 C225.15,178.499 225.066,178.783 225,178.95 C224.9,179.316 224.583,179.5 224.05,179.5 C216.317,179.5 205.484,174.733 191.55,165.2 C185.984,161.4 181.3,157.7 177.5,154.1 C173.6,150.433 171.65,147.833 171.65,146.3 L171.75,145.4 C172.884,145.334 174.4,146.25 176.3,148.15 C177.401,149.217 179.05,150.967 181.25,153.4 C183.617,156.067 187.417,159.267 192.65,163 C196.684,165.866 202.15,168.684 209.05,171.45 L209.05,171.45 Z M153.65,146.75 C150.983,147.283 147.9,148.033 144.4,149 C137.367,150.9 131.817,153 127.75,155.3 C123.55,157.7 118.717,160.901 113.25,164.901 C109.05,167.934 104.1,170.951 98.4,173.951 C93.1,176.751 87.917,179.135 82.85,181.1 C82.316,180.667 81.983,180.384 81.85,180.25 C81.717,180.116 81.65,179.934 81.65,179.7 C81.65,179.667 85.883,177.417 94.35,172.95 C103.383,168.116 109.117,164.833 111.55,163.099 C119.05,157.799 123.85,154.599 125.95,153.499 C133.016,149.866 141.85,147.199 152.45,145.499 C153.25,146.233 153.65,146.65 153.65,146.75 L153.65,146.75 Z M151.1,150.75 C151.2,150.883 151.25,151.15 151.25,151.55 C151.25,153.017 147.434,156.45 139.8,161.85 C133.267,166.451 129.25,169.1 127.75,169.8 C122.55,172.366 117.583,174.267 112.85,175.5 C105.983,177.3 100.65,178.9 96.85,180.3 C96.05,179.6 95.65,179.234 95.65,179.2 C95.65,177.599 99.617,175.766 107.55,173.7 C117.817,171.066 124.517,168.933 127.65,167.3 C130.95,165.567 135.267,162.567 140.6,158.3 C146.233,153.834 149.683,151.234 150.95,150.5 C150.95,150.533 151,150.617 151.1,150.75 L151.1,150.75 Z M129.25,51.35 C129.117,51.45 128.85,51.5 128.45,51.5 C128.05,51.5 127.2,50.5 125.9,48.5 C124.4,46.2 123.383,44.833 122.85,44.4 C121.316,43.367 119.867,42.35 118.5,41.35 C115.8,39.35 114.45,38.067 114.45,37.5 L114.55,36.6 C118.05,37.6 121.383,39.583 124.55,42.55 C127.584,45.383 129.283,47.917 129.65,50.15 L129.45,51.2 L129.25,51.35 L129.25,51.35 Z M111.55,57.45 C111.317,57.75 111.084,57.9 110.85,57.9 C110.816,57.9 109.733,57.017 107.6,55.25 C105.367,53.45 104.05,52.467 103.65,52.3 C103.084,52.067 100.434,51.2 95.7,49.7 C92.2,48.567 90.45,47.733 90.45,47.2 C90.45,46.067 91.416,45.666 93.35,46 C95.383,46.4 99.017,47.7 104.25,49.9 C105.083,50.533 106.684,51.633 109.05,53.2 C111.017,54.633 112.017,55.833 112.05,56.8 C112.017,56.833 111.85,57.05 111.55,57.45 L111.55,57.45 Z M101.1,62.75 C100.967,63.017 100.816,63.2 100.65,63.3 C100.45,63.433 98.767,63.45 95.6,63.35 C92.3,63.25 90.483,63.2 90.15,63.2 C88.417,63.2 86.617,63.433 84.75,63.9 C83.15,64.4 82.25,64.667 82.05,64.7 C81.25,64.033 80.85,63.666 80.85,63.6 C80.85,62.8 81.9,62.183 84,61.75 C85.233,61.483 87.383,61.167 90.45,60.8 C96.516,60.4 99.967,60.367 100.8,60.7 C101.067,60.8 101.167,61 101.1,61.3 C101.033,61.667 101.083,61.933 101.25,62.1 C101.25,62.267 101.2,62.483 101.1,62.75 L101.1,62.75 Z M91.1,71.95 C91.2,72.083 91.25,72.35 91.25,72.75 C89.783,73.517 87.934,74.483 85.7,75.65 C81.133,78.05 76.983,80.4 73.25,82.7 C72.45,82 72.05,81.633 72.05,81.6 C72.05,80.133 74.867,77.933 80.5,75 C86.1,72.1 89.583,71 90.95,71.7 C90.95,71.733 91,71.817 91.1,71.95 L91.1,71.95 Z M120.85,165.6 C120.85,165.067 123.35,163.184 128.35,159.951 C133.55,156.584 136.95,154.901 138.55,154.901 C138.55,154.934 138.6,155.018 138.7,155.151 C138.8,155.284 138.85,155.551 138.85,155.951 C138.85,156.251 136.433,157.934 131.6,161.001 C126.967,163.901 123.783,165.801 122.05,166.701 C121.25,166 120.85,165.634 120.85,165.6 L120.85,165.6 Z" id="Shape" fill="#CACACA" sketch:type="MSShapeGroup"></path>
            <path d="M226.95,87.35 C229.283,91.517 230.45,95.083 230.45,98.05 C230.083,101.25 229.083,104.4 227.45,107.5 C224.217,113.7 219.4,116.8 213,116.8 C205.033,116.8 199.517,113.8 196.45,107.8 C194.849,104.7 194.05,101.1 194.05,97 C194.05,95.833 194.234,94.65 194.6,93.45 C197.267,91.05 201,87.867 205.8,83.9 C207.567,82.4 209.151,81.067 210.55,79.9 C212.583,79.533 214.783,79.4 217.151,79.5 C220.85,79.667 224.117,82.283 226.95,87.35 L226.95,87.35 Z M210.85,98.5 C210.85,93.8 208.984,91.617 205.25,91.95 C203.783,92.05 202.5,92.617 201.4,93.65 C200.233,94.75 199.65,96.033 199.65,97.5 C199.65,98.367 200.083,99.467 200.95,100.8 C202.25,102.8 204.016,103.8 206.25,103.8 C208.316,103.8 209.684,103.133 210.35,101.8 C210.684,101.133 210.85,100.033 210.85,98.5 L210.85,98.5 Z M204.95,95.9 C205.05,96.133 205.3,96.517 205.7,97.05 C206.066,97.55 206.25,97.834 206.25,97.9 C206.15,99.233 205.75,99.9 205.05,99.9 C203.583,99.733 202.85,99.183 202.85,98.25 C202.85,97.85 203.55,97.067 204.95,95.9 L204.95,95.9 Z M165.25,191.8 L175.75,191.8 C171.316,196.267 165.634,198.5 158.7,198.5 C152.6,198.5 147.383,196.667 143.05,193 L146.05,193 C146.15,193 148.883,192.7 154.25,192.1 C159.917,191.566 163.583,191.467 165.25,191.8 L165.25,191.8 Z M88.45,93.65 C88.45,88.95 90.467,85.2 94.5,82.4 C98.167,79.867 102.617,78.617 107.85,78.65 C111.45,78.683 114.683,79.3 117.55,80.5 C118.317,81.3 119.15,82.167 120.05,83.1 C122.617,85.666 124.783,87.8 126.55,89.5 C127.017,90.967 127.25,92.55 127.25,94.25 L127.25,98 C127.083,100.567 126.55,102.867 125.65,104.9 C122.817,111.3 116.85,114.5 107.75,114.5 C100.383,114.5 94.983,111.3 91.55,104.9 C89.483,101.033 88.45,97.283 88.45,93.65 L88.45,93.65 Z M116.05,98.1 C115.65,98.1 115.434,98.05 115.4,97.95 L115.35,97.8 C115.283,97.667 115.25,97.267 115.25,96.6 C115.25,95.633 115.95,95.033 117.35,94.8 C118.75,94.567 119.45,95 119.45,96.1 C119.45,96.567 119.266,96.967 118.9,97.3 C118.3,97.833 117.35,98.1 116.05,98.1 L116.05,98.1 Z M110.85,96.95 C110.85,96.983 111.117,97.933 111.65,99.8 C112.684,101.667 114.35,102.6 116.65,102.6 C118.617,102.6 120.084,101.833 121.05,100.3 C121.717,99.267 122.05,98.167 122.05,97 C122.05,94.7 121.467,93.017 120.3,91.95 C119.3,91.016 118.017,90.683 116.45,90.95 C114.983,91.183 113.7,91.85 112.6,92.95 C111.434,94.117 110.85,95.45 110.85,96.95 L110.85,96.95 Z" id="Shape" fill="#FFFFFF" sketch:type="MSShapeGroup"></path>
            <path d="M158.55,123.7 L158.45,124.6 C158.45,125.433 158.816,126.233 159.55,127 C160.817,128.333 162.917,129 165.85,129 C168.55,129 170.684,128.667 172.25,128 C173.717,127.367 174.45,126.567 174.45,125.6 C174.45,125.367 174.05,124.9 173.25,124.2 C172.717,124.333 171.767,124.766 170.4,125.5 C169.167,126.167 168.483,126.5 168.349,126.5 C163.95,126.5 161.366,125.833 160.599,124.5 C160.399,123.933 160.232,123.583 160.099,123.45 C159.9,123.25 159.383,123.333 158.55,123.7 L158.55,123.7 Z M163.25,87.1 C165.684,87.1 168.117,86.1 170.55,84.1 C172.617,82.433 173.651,81.233 173.651,80.5 C173.651,79.567 173.251,79.1 172.451,79.1 C171.517,80 170.567,80.9 169.6,81.8 C167.667,83.6 165.618,84.5 163.451,84.5 C161.718,84.5 158.684,82.967 154.351,79.9 C150.951,77.5 149.251,76.967 149.251,78.3 C149.251,78.7 151.018,80.2 154.551,82.8 C158.45,85.667 161.35,87.1 163.25,87.1 L163.25,87.1 Z M156.1,75.2 C156.066,75.233 156.05,75.433 156.05,75.8 C156.05,76.1 156.617,76.734 157.75,77.7 C159.184,78.9 160.684,79.5 162.25,79.5 C163.217,79.5 164.45,78.833 165.95,77.5 C167.349,76.267 168.05,75.4 168.05,74.9 C168.05,73.133 167.25,72.9 165.651,74.2 C163.484,76 162.334,76.9 162.201,76.9 C161.368,76.9 160.651,76.633 160.051,76.1 C159.251,75.433 158.384,74.967 157.451,74.7 L156.251,74.9 C156.217,75.033 156.167,75.133 156.1,75.2 L156.1,75.2 Z M143,63.05 C146.033,65.417 149.917,66.6 154.65,66.6 C158.584,66.6 163.35,65.367 168.95,62.9 C174.516,60.433 178.233,59.2 180.099,59.2 C183.133,59.2 187.766,63.1 193.999,70.9 C197.366,75.1 199.599,77.783 200.699,78.95 C202.065,80.383 203.282,81.4 204.348,82 C203.848,82.4 203.482,82.7 203.248,82.9 C200.448,85.067 197.898,87.117 195.598,89.05 C191.098,92.85 188.848,95.25 188.848,96.25 C188.848,96.617 188.882,96.867 188.949,97 C189.082,97.4 189.449,97.667 190.049,97.8 C190.416,97.367 190.966,96.817 191.699,96.15 C191.666,96.383 191.649,96.633 191.649,96.9 C191.649,101.567 192.449,105.567 194.048,108.9 C197.415,115.9 203.748,119.4 213.048,119.4 C215.715,119.4 218.132,118.933 220.298,118 C219.399,120.567 218.948,123.567 218.948,127 C218.948,134.667 218.915,138.733 218.847,139.2 C218.414,144.833 217.281,152.033 215.448,160.8 C214.548,159.934 213.615,159.067 212.648,158.2 C209.014,154.867 205.948,152.266 203.448,150.4 C199.814,147.667 195.748,145.2 191.248,143 C188.882,142.067 186.382,141.2 183.748,140.4 C178.548,138.867 174.814,138.334 172.548,138.8 C169.982,139.334 167.682,139.984 165.649,140.75 C164.048,141.35 162.932,141.917 162.298,142.45 C161.465,141.916 160.065,141.4 158.098,140.9 C154.265,139.933 149.981,139.633 145.248,140 C134.182,143.3 125.248,146.883 118.448,150.75 C115.348,152.517 110.115,156.167 102.748,161.7 C102.314,162.033 101.865,162.384 101.398,162.75 C101.198,161.717 101.015,160.667 100.848,159.6 C98.715,147.167 97.248,138.067 96.448,132.3 C96.048,129.367 95.648,124.867 95.248,118.8 C95.248,116.367 95.031,114.133 94.598,112.1 C98.765,115.367 104.314,117 111.248,117 C119.248,117 124.698,113.5 127.598,106.5 C128.965,103.133 129.648,99.033 129.648,94.2 C129.648,93.567 129.631,92.95 129.598,92.35 C130.965,93.583 131.781,94.2 132.048,94.2 C132.448,94.2 132.715,94.15 132.848,94.05 L133.048,93.9 L133.248,92.7 C130.281,89 125.731,84.333 119.598,78.7 C119.198,78.333 118.814,77.983 118.448,77.65 C119.314,77.183 120.181,76.4 121.048,75.3 C121.615,74.6 123.031,72.45 125.298,68.85 C129.198,62.617 133.148,59.5 137.148,59.5 C138.082,59.5 139.048,59.867 140.048,60.6 C140.65,61.067 141.633,61.883 143,63.05 L143,63.05 Z M212.15,124.95 C210.049,122.983 207.483,121.933 204.45,121.8 C201.417,121.667 198.849,122.5 196.75,124.3 C194.417,126.334 193.25,129.2 193.25,132.9 C193.25,134.667 194.083,136.667 195.75,138.9 C198.217,142.233 201.717,143.9 206.25,143.9 C210.15,143.9 212.85,142.433 214.35,139.5 C215.217,137.833 215.651,135.783 215.651,133.35 C215.65,129.917 214.483,127.117 212.15,124.95 L212.15,124.95 Z M222.2,151.5 C221.266,151.8 220.483,152.067 219.849,152.3 C221.383,144.2 222.332,135.334 222.7,125.7 C223.467,126.333 224.467,126.733 225.7,126.9 C225.733,127 225.783,127.1 225.849,127.2 C226.516,128.266 226.849,128.933 226.849,129.2 C226.849,129.533 226.45,130.916 225.65,133.35 C224.849,135.783 224.45,137.6 224.45,138.8 C224.45,140.6 224.9,142.183 225.8,143.55 C226.7,144.883 227.151,145.95 227.151,146.75 C227.15,148.817 225.5,150.4 222.2,151.5 L222.2,151.5 Z M186.45,173.85 C186.217,173.083 186,172.384 185.8,171.75 C195.033,176.684 201.317,179.833 204.651,181.2 C205.517,181.566 206.384,181.917 207.251,182.25 C204.784,186.283 201.834,190.184 198.401,193.95 C193.467,199.316 188.168,203.45 182.501,206.349 C181.534,206.216 180.901,206.483 180.601,207.15 L180.601,207.25 C174.601,209.95 168.218,211.3 161.452,211.3 C147.052,211.3 135.685,208.984 127.352,204.35 C119.585,200.017 113.418,193.634 108.852,185.201 C116.985,183.767 124.318,181.684 130.852,178.951 L130.852,179.1 C130.852,180.201 131.402,181.85 132.502,184.05 C133.802,186.684 135.485,189.134 137.552,191.401 C143.352,197.8 150.385,201.001 158.652,201.001 C168.452,201.001 175.952,197.001 181.152,189.001 C184.684,183.6 186.45,178.55 186.45,173.85 L186.45,173.85 Z M164.7,152.5 C164.733,152.567 164.783,152.633 164.849,152.7 C164.349,152.666 163.816,152.666 163.249,152.7 C162.282,152.733 161.433,152.8 160.699,152.9 C161.366,151.467 161.915,150.117 162.349,148.85 C162.85,149.817 163.633,151.033 164.7,152.5 L164.7,152.5 Z M180.45,214.75 L180.45,220.3 C180.683,224.234 181.349,226.2 182.45,226.2 C182.849,226.2 183.134,226.116 183.3,225.95 L183.55,225.7 C183.617,225.866 183.651,225.616 183.651,224.95 C183.55,223.783 183.451,222.7 183.35,221.7 C183.917,222.333 184.75,223.233 185.85,224.4 C188.118,226.799 189.25,228.933 189.25,230.799 C189.25,233.433 187.184,235.782 183.05,237.849 C178.45,240.116 171.717,241.766 162.85,242.799 L152.45,242.799 C144.583,241.933 139.066,240.499 135.9,238.499 C133.6,236.999 132.45,235.065 132.45,232.699 C132.45,230.932 133.383,228.932 135.25,226.699 C135.95,225.865 136.65,225.133 137.35,224.499 C137.55,227.599 137.65,230.133 137.65,232.099 C137.817,232.2 137.95,232.316 138.05,232.45 C138.184,232.55 138.45,232.599 138.85,232.599 C139.25,232.599 139.533,232.516 139.7,232.349 L139.95,232.099 C140.016,230.299 140.05,227.849 140.05,224.749 C140.484,222.016 140.65,219.449 140.55,217.049 C140.484,214.849 140.184,213.133 139.65,211.9 C144.783,213.167 150.383,213.799 156.45,213.799 C165.316,213.799 173.316,212.4 180.45,209.599 L180.45,210.65 C180.45,210.716 180.467,210.766 180.5,210.799 C180.467,211.8 180.45,213.116 180.45,214.75 L180.45,214.75 Z M258.85,207.2 C259.651,205.967 260.234,205.433 260.6,205.599 C262.333,206.332 263.35,207.016 263.651,207.65 C263.984,208.316 264.3,208.716 264.6,208.849 C265.467,209.216 266.534,208.666 267.8,207.2 C269.1,205.766 269.901,205.116 270.2,205.25 C272.167,206.083 273.483,207.25 274.15,208.75 C274.783,210.25 275.2,211.05 275.4,211.15 C275.833,211.316 276.433,211.049 277.2,210.349 C278.134,209.383 278.884,208.683 279.45,208.249 C281.483,206.516 283.233,206.782 284.7,209.049 C285.667,210.449 286.25,212.049 286.45,213.849 C286.45,215.883 286.467,217.349 286.5,218.249 C286.566,220.082 286.583,222.099 286.55,224.299 L286.55,226.9 C286.517,231.599 286.333,234.383 286,235.25 C285.833,235.583 285.333,236.4 284.5,237.7 C283.867,239.233 281.733,241 278.1,243 C278.034,243.033 277.984,243.066 277.951,243.1 C274.817,244.8 272.051,245.55 269.651,245.35 C268.751,245.284 267.918,245.083 267.151,244.75 C260.717,242.083 256.234,239.217 253.701,236.15 C251.067,232.95 249.801,228.833 249.901,223.799 C249.901,223.433 249.751,220.849 249.451,216.049 C249.317,213.416 249.6,211.233 250.301,209.499 C250.334,209.433 250.351,209.383 250.351,209.349 C250.952,208.016 251.568,207.299 252.202,207.2 C252.768,207.167 254.219,207.616 256.552,208.55 C257.35,208.884 258.117,208.434 258.85,207.2 L258.85,207.2 Z M247.45,224.8 C247.55,225.6 247.617,226.3 247.65,226.901 C247.283,226.401 246.849,225.85 246.349,225.251 C244.049,222.518 243.117,220.584 243.549,219.451 C244.116,218.117 245.016,216.817 246.249,215.551 C246.449,215.418 246.599,215.268 246.699,215.101 L246.699,216.301 C246.667,218.5 246.917,221.333 247.45,224.8 L247.45,224.8 Z M92.85,125.25 C93.05,125.517 93.25,125.683 93.45,125.75 C93.883,129.483 94.467,133.75 95.2,138.55 C96,143.85 96.717,148.4 97.35,152.2 L97.25,152.2 C96.917,152.2 96.316,152.683 95.45,153.65 C94.583,154.617 93.75,155.1 92.95,155.1 C91.883,155.1 91.016,154.433 90.35,153.1 C89.883,152.133 89.65,151.233 89.65,150.4 C89.65,150.067 89.983,148.433 90.65,145.5 C91.317,142.633 91.65,141.167 91.65,141.1 C91.65,138.5 90.917,135.7 89.45,132.7 C87.983,129.733 87.25,127.933 87.25,127.3 C87.25,126.734 87.483,126.234 87.95,125.8 C88.783,125.067 90.283,124.7 92.45,124.7 L92.85,125.25 L92.85,125.25 Z M116.65,120 C113.35,120.3 110.467,121.467 108,123.5 C105.367,125.667 104.05,128.167 104.05,131 C104.05,132.967 104.817,135.267 106.35,137.9 C108.717,141.9 112.083,143.9 116.45,143.9 C121.783,143.9 125.483,142.267 127.55,139 C128.684,137.233 129.25,135.133 129.25,132.7 C129.25,128.067 127.934,124.633 125.3,122.4 C123.033,120.467 120.15,119.667 116.65,120 L116.65,120 Z M37.15,208.05 C37.184,208.083 37.25,208.134 37.35,208.2 C39.283,209.433 40.4,210 40.7,209.9 C41.1,209.799 41.533,209.033 42,207.599 C42.133,207.266 42.25,206.95 42.35,206.65 C42.683,205.683 42.967,205.083 43.2,204.849 L46.85,203.849 C47.25,203.95 47.933,204.283 48.9,204.849 C49.8,205.383 50.95,206.116 52.35,207.049 C55.117,208.883 56.533,209.782 56.6,209.749 C57.066,209.649 57.583,209.149 58.15,208.249 C58.684,207.315 59.483,206.699 60.55,206.399 C62.617,205.865 64.517,206.499 66.25,208.298 C66.483,208.531 66.717,208.748 66.95,208.948 C66.35,209.248 66.05,209.698 66.05,210.298 C66.05,210.364 66.45,210.732 67.25,211.399 C68.217,211.098 69.316,210.832 70.55,210.598 C70.95,210.498 71.25,210.348 71.45,210.149 C71.516,210.115 71.6,210.082 71.7,210.048 C73.066,210.548 73.95,211.048 74.35,211.548 C74.517,211.748 74.75,212.399 75.05,213.498 C75.25,214.298 74.9,216.515 74,220.148 C73.1,223.781 71.967,227.381 70.6,230.948 C70.433,231.382 70.267,231.814 70.1,232.248 C68.133,237.015 66.05,240.948 63.85,244.048 C63.717,244.149 63.6,244.248 63.5,244.348 C63.434,244.449 63.35,244.548 63.25,244.649 C63.083,244.848 62.934,245.032 62.8,245.199 C62.834,245.265 62.867,245.332 62.9,245.399 C60.267,248.699 57.5,250.732 54.6,251.499 C44.967,254.099 38.166,253.649 34.2,250.149 C32.2,248.449 31.133,246.416 31,244.048 C30.767,243.215 30.533,242.448 30.3,241.748 C29.7,239.748 29.217,238.165 28.85,236.998 C28.683,235.098 28.483,232.731 28.25,229.898 C28.217,229.297 28.184,228.731 28.15,228.198 C27.85,225.898 27.65,224.347 27.55,223.548 C27.35,221.715 27.25,219.331 27.25,216.399 L27.25,216.149 C27.117,215.348 27.05,214.782 27.05,214.449 C27.117,212.916 27.45,211.582 28.05,210.449 C29.017,208.615 30.767,207.365 33.3,206.699 C34.033,206.5 35.316,206.95 37.15,208.05 L37.15,208.05 Z M77.7,229.05 C78.367,229.95 78.816,230.817 79.05,231.651 C79.417,232.984 76.783,235.484 71.15,239.151 C70.383,239.651 69.667,240.117 69,240.55 C70.133,238.45 71.233,236.134 72.3,233.6 C72.767,232.434 73.2,231.284 73.6,230.151 C74.133,228.717 74.617,227.284 75.05,225.85 C75.417,226.317 75.9,226.884 76.5,227.55 C77,228.05 77.4,228.55 77.7,229.05 L77.7,229.05 Z" id="Shape" fill="#FFBEBE" sketch:type="MSShapeGroup"></path>
            <path d="M212.15,124.95 C214.483,127.117 215.65,129.916 215.65,133.35 C215.65,135.783 215.216,137.833 214.349,139.5 C212.849,142.433 210.15,143.9 206.249,143.9 C201.716,143.9 198.216,142.233 195.749,138.9 C194.082,136.667 193.249,134.667 193.249,132.9 C193.249,129.2 194.416,126.334 196.749,124.3 C198.849,122.5 201.416,121.667 204.449,121.8 C207.482,121.933 210.05,122.983 212.15,124.95 L212.15,124.95 Z M116.65,120 C120.15,119.667 123.033,120.467 125.3,122.4 C127.934,124.633 129.25,128.067 129.25,132.7 C129.25,135.133 128.684,137.233 127.55,139 C125.484,142.267 121.783,143.9 116.45,143.9 C112.083,143.9 108.717,141.9 106.35,137.9 C104.816,135.267 104.05,132.967 104.05,131 C104.05,128.167 105.367,125.667 108,123.5 C110.467,121.467 113.35,120.3 116.65,120 L116.65,120 Z" id="Shape" fill="#FF8B8B" sketch:type="MSShapeGroup"></path>
            <path d="M189.75,224.3 C188.617,222.6 187.117,221.317 185.25,220.45 C187.283,220.95 190.867,221.8 196,223 C197.6,223.366 199.083,223.733 200.45,224.1 L200.45,224.151 C200.45,224.984 201.983,226.867 205.05,229.8 C208.117,232.734 209.651,234.384 209.651,234.75 C209.651,235.083 209.084,236.65 207.951,239.45 C206.618,242.65 205.885,244.433 205.751,244.8 C202.751,244.134 200.984,243.8 200.451,243.8 C199.118,243.8 198.317,244.134 198.051,244.8 L198.051,246.6 C198.051,247.6 198.268,249.534 198.701,252.401 C199.135,255.267 199.35,256.834 199.35,257.1 C199.35,257.401 198.384,258.167 196.451,259.401 C194.151,260.867 192.067,261.6 190.201,261.6 C187.934,261.6 184.051,258.5 178.551,252.3 C175.118,248.434 172.701,245.783 171.301,244.35 C176.568,243.384 180.985,241.833 184.551,239.701 C189.284,236.867 191.652,233.918 191.652,230.85 C191.65,228.45 191.017,226.267 189.75,224.3 L189.75,224.3 Z M286.6,239.5 C286.934,241.033 287.201,242.233 287.401,243.1 C287.567,244.034 287.651,244.6 287.651,244.8 C287.651,245.734 285.918,247.234 282.451,249.3 C278.551,251.634 274.885,252.8 271.451,252.8 C270.885,252.8 270.284,252.734 269.651,252.6 C266.584,251.967 262.684,249.833 257.951,246.201 C252.684,242.135 250.051,239.468 250.051,238.201 C250.051,238.034 250.251,237.534 250.652,236.701 C250.685,236.6 250.735,236.517 250.801,236.451 C251.368,237.284 252.068,238.151 252.902,239.051 C255.968,242.084 260.369,244.801 266.101,247.201 C267.268,247.668 268.452,247.968 269.652,248.1 C273.152,248.434 276.885,247.267 280.851,244.6 C281.619,244.1 282.318,243.6 282.952,243.1 C283.219,242.867 283.485,242.651 283.752,242.451 C284.45,241.616 285.4,240.634 286.6,239.5 L286.6,239.5 Z M162.15,271.6 C161.283,272.634 160.85,273.684 160.85,274.75 C160.85,274.816 160.95,275.616 161.15,277.15 C161.75,278.65 162.983,279.4 164.85,279.4 C166.817,279.4 168.118,278.733 168.75,277.4 C169.083,276.7 169.25,275.549 169.25,273.95 C169.25,270.05 167.85,268.583 165.05,269.55 C163.95,269.917 162.983,270.6 162.15,271.6 L162.15,271.6 Z M161.15,251.3 C160.15,252.234 159.65,253.134 159.65,254 C159.65,254.1 159.783,254.9 160.05,256.4 C160.817,257.866 162.417,258.599 164.85,258.599 C166.451,258.599 167.651,257.866 168.451,256.4 C168.984,255.433 169.251,254.433 169.251,253.4 C169.251,249.766 167.651,248.417 164.451,249.349 C163.217,249.717 162.117,250.366 161.15,251.3 L161.15,251.3 Z M157.65,245.4 L158.35,245.4 C157.25,246.833 155.767,249.016 153.9,251.95 C150.267,257.65 147.417,260.5 145.35,260.5 C140.583,260.5 135.467,259.983 130,258.95 C124.367,257.717 120.184,256.9 117.45,256.5 L117.55,256.2 C122.684,248.5 125.25,244.349 125.25,243.75 C125.25,242.85 124.4,241.833 122.7,240.7 C122.033,240.266 120.25,239.266 117.35,237.7 C118.117,236.233 119.733,233.616 122.2,229.849 C124.233,226.716 125.25,224.983 125.25,224.65 L125.25,224.4 C126.684,224.133 128.184,223.917 129.75,223.75 C131.383,223.55 132.8,223.384 134,223.25 C132.967,223.917 132.083,225.1 131.35,226.8 C130.483,228.833 130.05,230.783 130.05,232.651 C130.05,235.418 131.417,237.867 134.15,240.001 C138.783,243.6 146.617,245.4 157.65,245.4 L157.65,245.4 Z M168.5,244.75 C168.767,245.583 169.967,247.217 172.1,249.65 C172.034,249.95 171.984,250.266 171.951,250.599 C171.918,251.299 171.801,252.332 171.6,253.7 C171.401,255.033 171.284,256 171.25,256.599 L171.25,268.299 C170.983,270.9 170.85,274.799 170.85,279.999 C170.85,280.599 170.784,281.549 170.651,282.849 C170.517,284.15 170.451,285.099 170.451,285.7 C170.385,287.8 168.701,289.15 165.401,289.75 C162.034,289.95 160.251,290.066 160.05,290.1 C159.45,288.067 159.184,284.867 159.25,280.5 C159.283,276.066 159.017,272.767 158.45,270.6 L158.45,252 C158.717,251.233 158.833,250.417 158.8,249.55 C160.167,247.55 161.05,246.151 161.45,245.35 C163.917,245.25 166.267,245.05 168.5,244.75 L168.5,244.75 Z M63.6,248.45 C64.333,247.683 65.033,246.833 65.7,245.9 C65.566,246.4 65.5,246.933 65.5,247.5 C65.467,248.333 65.45,249.616 65.45,251.35 C64.916,254.35 61.283,256.3 54.55,257.201 L40.05,257.401 C39.817,257.467 38.9,257.567 37.3,257.701 C35.7,257.834 34.783,257.934 34.55,258.001 L31.45,258.001 C30.483,257.668 29.65,256.468 28.95,254.401 C28.35,252.668 28.05,251.151 28.05,249.85 C28.05,249.25 28.317,248.451 28.85,247.451 C28.95,247.251 29.05,247.051 29.15,246.85 C29.317,247.384 29.417,247.85 29.45,248.25 C30.983,250.816 32.617,252.684 34.35,253.85 C38.517,256.583 45.483,256.651 55.25,254.05 C57.117,253.55 58.917,252.616 60.65,251.25 C61.35,250.316 62.334,249.4 63.6,248.5 L63.6,248.45 L63.6,248.45 Z" id="Shape" fill="#CE7C00" sketch:type="MSShapeGroup"></path>
            <path d="M82.65,383.9 C82.65,383.633 82.684,383.366 82.75,383.099 C83.35,378.366 84.35,370.733 85.75,360.2 C86.184,357.033 86.8,351.583 87.6,343.849 C88.433,336.15 88.85,331.9 88.85,331.099 C88.85,330.266 88.816,329.616 88.75,329.15 C91.25,326.816 94.95,323.383 99.85,318.849 C99.916,318.883 99.983,318.933 100.05,318.999 C101.517,318.099 103.783,315.582 106.85,311.449 C109.783,307.515 111.25,305.249 111.25,304.649 C111.25,304.249 111.2,303.982 111.1,303.848 C111,303.715 110.95,303.632 110.95,303.598 C108.383,304.199 105.6,306.732 102.6,311.199 C101.767,312.432 101.083,313.515 100.55,314.449 C94.45,320.716 89.967,325.199 87.1,327.899 C68.933,345.032 53.583,353.598 41.05,353.598 C35.15,353.598 31.617,349.232 30.45,340.498 C30.083,337.765 29.967,334.698 30.1,331.298 C30.333,328.399 30.45,326.864 30.45,326.698 C30.45,320.764 30.717,312.748 31.25,302.648 C31.783,292.547 32.05,284.064 32.05,277.198 C32.05,269.998 31.917,264.698 31.65,261.298 C31.65,261.265 31.667,260.998 31.7,260.498 C32.1,260.564 32.55,260.598 33.05,260.598 C33.617,260.598 34.8,260.532 36.6,260.399 C38.5,260.232 39.617,260.098 39.95,259.999 L54.85,259.799 C58.583,259.699 61.517,258.865 63.65,257.299 L63.65,269.499 C63.483,272.299 62.75,282.349 61.45,299.649 C60.25,315.382 59.65,324.032 59.65,325.598 C59.65,325.798 59.717,325.982 59.85,326.149 C59.916,326.182 60.25,326.465 60.85,326.999 C62.483,319.666 63.65,310.199 64.35,298.599 C64.383,297.9 64.433,297.2 64.5,296.499 C67.8,291.266 71.684,284.865 76.15,277.299 C82.184,266.999 86.117,260.365 87.95,257.4 C89.316,255.167 91.316,251.716 93.95,247.049 C96.383,242.883 98.516,239.532 100.35,236.999 C101.883,234.933 103.283,233.315 104.55,232.149 C106.517,230.315 108.717,228.932 111.15,227.999 C114.617,226.633 118.633,225.549 123.2,224.749 C121.967,225.849 120.416,227.749 118.55,230.449 C115.817,234.482 114.45,236.999 114.45,237.999 C114.45,238.666 115.566,239.699 117.8,241.099 C120.367,242.7 121.85,243.766 122.25,244.299 C121.45,245.233 119.95,247.532 117.75,251.199 C115.55,254.832 114.45,256.832 114.45,257.199 C114.45,257.865 115.433,258.282 117.4,258.449 C121.334,258.782 125.25,259.432 129.15,260.399 C129.317,260.432 131.3,260.882 135.1,261.749 C139.533,262.582 143.45,262.999 146.85,262.999 C148.35,262.999 151.25,260.032 155.55,254.099 C155.75,253.799 155.967,253.516 156.2,253.249 C156.1,255.449 156.05,258.082 156.05,261.149 C156.05,261.215 156.267,266.548 156.7,277.149 C157.333,287.715 158.183,292.999 159.25,292.999 C165.717,292.999 169.884,291.683 171.75,289.049 C172.35,288.183 172.7,287.166 172.8,285.999 C172.8,284.899 172.817,284.232 172.85,283.999 C172.984,282.666 173.05,280.716 173.05,278.149 C173.083,275.582 173.151,273.732 173.25,272.598 C173.95,265.165 174.35,258.382 174.45,252.248 C175.183,253.048 175.983,253.898 176.849,254.798 C182.916,261.065 187.383,264.198 190.249,264.198 C192.282,264.198 194.782,263.264 197.749,261.398 C200.616,259.631 202.049,258.231 202.049,257.198 C202.049,256.264 201.816,254.415 201.349,251.648 C200.849,248.781 200.549,247.031 200.45,246.398 L203.349,246.998 C204.749,247.265 205.65,247.398 206.049,247.398 C206.549,247.398 207.749,245.331 209.65,241.198 C211.516,237.198 212.45,234.898 212.45,234.298 C212.45,233.698 210.45,231.364 206.45,227.298 C205.55,226.399 204.766,225.649 204.099,225.048 C208.4,226.248 211.183,227.331 212.45,228.298 C217.217,231.932 221.016,236.031 223.849,240.598 C225.816,243.765 227.9,247.798 230.099,252.699 C231.299,255.432 233.082,259.499 235.45,264.899 C236.217,266.532 237.849,270.465 240.349,276.699 C239.349,284.199 238.849,291.716 238.849,299.249 C238.849,303.749 238.983,307.099 239.249,309.299 C239.416,309.4 239.549,309.516 239.649,309.65 C239.782,309.75 240.048,309.799 240.449,309.799 C240.848,309.799 241.133,309.716 241.299,309.549 L241.549,309.299 C241.616,308.9 241.65,308.449 241.65,307.949 C241.183,300.749 240.917,295.832 240.849,293.199 C240.716,289.032 241.65,281.899 243.65,271.799 C244.25,268.766 246,261.816 248.9,250.949 C249.7,247.916 250.383,245.332 250.95,243.199 C252.25,244.699 253.717,246.166 255.349,247.598 C260.483,252.098 265.249,254.665 269.65,255.298 C270.316,255.364 270.983,255.399 271.65,255.399 C275.183,255.399 278.716,254.432 282.25,252.499 C282.117,253.065 281.983,253.732 281.85,254.499 C281.583,255.865 281.284,256.966 280.951,257.799 C280.184,259.733 279.567,262.133 279.1,264.999 C278.833,266.633 278.484,268.933 278.05,271.899 C276.617,279.199 275.417,288.499 274.45,299.798 C274.083,302.031 273.683,304.998 273.25,308.698 C272.483,315.132 271.583,323.764 270.55,334.597 C268.85,348.597 266.7,355.597 264.1,355.597 C260.833,355.597 253.951,350.997 243.451,341.797 C242.718,341.398 241.801,340.564 240.701,339.297 L240.651,339.197 L240.6,339.247 C238,336.914 235.201,334.33 232.201,331.497 C225.668,324.964 220.434,319.764 216.501,315.897 C216.135,315.463 215.801,315.08 215.501,314.747 C213.468,312.48 211.451,311.03 209.451,310.397 C209.418,310.53 209.368,310.63 209.301,310.697 C209.268,310.73 209.251,310.93 209.251,311.297 C209.251,311.664 210.618,313.564 213.351,316.997 C213.584,317.297 213.818,317.597 214.051,317.897 C215.718,319.897 217.084,321.263 218.152,321.997 C222.018,325.83 226.252,329.897 230.851,334.197 C231.985,335.263 234.435,337.346 238.202,340.447 C238.636,340.813 239.068,341.18 239.502,341.547 C239.068,343.08 238.852,345.247 238.852,348.047 C238.852,352.181 239.469,358.731 240.703,367.697 C241.602,374.363 242.42,379.497 243.153,383.096 C243.219,383.363 243.286,383.63 243.352,383.897 L82.65,383.897 L82.65,383.9 Z" id="Shape" fill="#FF9A01" sketch:type="MSShapeGroup"></path>
            <path d="M165.05,272.4 C166.25,271.833 166.85,272.366 166.85,274 C166.85,275.8 166.217,276.7 164.951,276.7 C164.584,276.7 164.234,276.566 163.901,276.3 C163.468,276 163.251,275.6 163.251,275.1 C163.25,273.866 163.85,272.967 165.05,272.4 L165.05,272.4 Z M166.05,256 L163.35,256 C162.483,255.5 162.05,254.9 162.05,254.2 C162.05,253.7 162.417,253.217 163.15,252.75 C163.883,252.316 164.617,252.083 165.35,252.05 C167.35,252.017 167.583,253.333 166.05,256 L166.05,256 Z" id="Shape" fill="#EECD3B" sketch:type="MSShapeGroup"></path>
        </g>
    </g>
</svg>