<?xml version="1.0" encoding="UTF-8"?>
<svg width="104px" height="93px" viewBox="0 0 104 93" version="1.1" xmlns="http://www.w3.org/2000/svg" xmlns:xlink="http://www.w3.org/1999/xlink">
    <title>Group</title>
    <g id="Page-1" stroke="none" stroke-width="1" fill="none" fill-rule="evenodd">
        <g id="Group" transform="translate(0.471654, 0.000000)" fill-rule="nonzero">
            <path d="M31.627762,3.95881567 C31.1910065,6.14252436 28.8987297,12.8559508 26.5338213,18.8776177 C24.1688439,24.8992846 21.8727734,31.3973682 21.4313965,33.3177268 C20.3673049,37.9472527 18.330308,37.7404629 16.6182567,32.8292393 C13.993309,25.2993449 2.97840619,3.79748099 1.74601341,3.79748099 C-1.48378411,3.79748099 -0.461354029,7.5002464 6.74042191,21.884485 C11.0250682,30.4423276 15.0566418,37.9870518 15.6994284,38.6504622 C17.5573639,40.5679238 17.0669451,44.4405769 14.4241326,48.7215675 C10.8636646,54.4889891 5.23198749,72.0532247 5.68584905,75.9747817 C6.39092092,82.0665281 9.80109048,80.0258065 10.6644621,72.9955047 C11.7242081,64.3656513 17.7928477,49.4382963 21.504304,46.3320346 C23.581307,44.5937724 24.6703678,42.1733384 24.9564799,38.6594291 C25.1863077,35.8361067 28.08709,26.82323 31.4026936,18.6308218 C34.7182972,10.4384137 37.1074851,2.89244793 36.7120462,1.86194767 C35.4585467,-1.40468299 32.4525071,-0.164978758 31.627762,3.95881567" id="Fill-6-path" fill="#000000"></path>
            <path d="M68.2904645,18.6343396 C63.2746734,21.3183307 63.1091312,21.6474837 61.4706082,32.1975578 C59.7091011,43.5396824 59.3782926,57.7712083 60.6209628,68.7498298 L61.5775209,77.2010356 L55.7353983,79.7852185 C49.4014774,82.5870204 45.9359892,87.6256425 48.0441692,90.9678018 C49.8737556,93.8683082 51.7383816,93.6357904 52.1906567,90.4506893 C52.6714189,87.065627 60.1975196,80.9591197 64.1389417,80.7561925 C65.8508551,80.6680413 67.1711922,79.5625642 67.5988429,77.8594108 C67.9792451,76.3446306 71.1320655,73.2021566 74.6051411,70.8761506 C81.2804238,66.4054762 86.7009656,59.5897585 86.7009656,55.6669599 C86.7009656,52.2965205 82.1697994,48.2365978 78.4081285,48.2365978 C73.9131747,48.2365978 73.2797688,45.3043624 76.7584314,40.5991699 C81.0568039,34.7853964 81.0350075,22.4154617 76.7202187,18.9215553 C73.1570606,16.0363615 73.1462314,16.0359477 68.2904645,18.6343396" id="Fill-6-path" fill="#000000"></path>
            <path d="M75.7647643,25.5830429 C77.7176106,31.1360184 68.3790296,50.8883081 65.3546423,47.6017434 C63.7393642,45.8463752 66.5515815,26.3083247 68.8086116,23.6052963 C71.2562222,20.6739576 74.3473091,21.5527798 75.7647643,25.5830429" id="Fill-6-path" fill="#FFFFFF"></path>
            <path d="M77.8131422,51.9068065 C83.1997478,53.3963416 82.3394801,57.1771187 74.7998601,65.1503904 C70.7012419,69.4846993 67.5300049,71.914859 67.0294467,71.1049437 C66.5642731,70.3523474 65.8610636,65.4704386 65.4667282,60.2562728 L64.7497235,50.7759463 L69.6943314,50.9025171 C72.4138451,50.9721138 76.0672927,51.4240441 77.8131422,51.9068065" id="Fill-6-path" fill="#FFFFFF"></path>
            <path d="M28.7778149,61.5074961 C27.7932526,64.0731244 29.2574735,66.0122445 32.1792935,66.0122445 C34.7628556,66.0122445 35.1539491,65.0100933 33.8730662,61.6721416 C32.9073343,59.1554861 29.7198881,59.0525051 28.7778149,61.5074961" id="Fill-6-path" fill="#000000"></path>
            <path d="M95.5887889,74.0438697 C95.5887889,75.7501271 100.738393,81.2484737 102.336497,81.2484737 C103.808788,81.2484737 103.298849,75.4998825 101.683226,73.8842595 C99.6373998,71.8383647 95.5887889,71.9443806 95.5887889,74.0438697" id="Fill-6-path" fill="#000000"></path>
        </g>
    </g>
</svg>
