<?xml version="1.0" encoding="UTF-8" standalone="no"?>
<svg width="104px" height="93px" viewBox="0 0 104 93" version="1.1" xmlns="http://www.w3.org/2000/svg" xmlns:xlink="http://www.w3.org/1999/xlink" xmlns:sketch="http://www.bohemiancoding.com/sketch/ns">
    <!-- Generator: Sketch 3.5.1 (25234) - http://www.bohemiancoding.com/sketch -->
    <title>Fill 6</title>
    <desc>Created with Sketch.</desc>
    <defs></defs>
    <g id="Page-1" stroke="none" stroke-width="1" fill="none" fill-rule="evenodd" sketch:type="MSPage">
        <path d="M32.0994162,3.95881567 C31.6626607,6.14252436 29.3703839,12.8559508 27.0054755,18.8776177 C24.6404981,24.8992846 22.3444276,31.3973682 21.9030507,33.3177268 C20.8389591,37.9472527 18.8019622,37.7404629 17.0899109,32.8292393 C14.4649632,25.2993449 3.45006041,3.79748099 2.21766763,3.79748099 C-1.01212989,3.79748099 0.0103001952,7.5002464 7.21207613,21.884485 C11.4967224,30.4423276 15.528296,37.9870518 16.1710826,38.6504622 C18.0290181,40.5679238 17.5385993,44.4405769 14.8957868,48.7215675 C11.3353188,54.4889891 5.70364171,72.0532247 6.15750327,75.9747817 C6.86257514,82.0665281 10.2727447,80.0258065 11.1361163,72.9955047 C12.1958623,64.3656513 18.2645019,49.4382963 21.9759582,46.3320346 C24.0529612,44.5937724 25.142022,42.1733384 25.4281341,38.6594291 C25.6579619,35.8361067 28.5587442,26.82323 31.8743478,18.6308218 C35.1899514,10.4384137 37.5791393,2.89244793 37.1837004,1.86194767 C35.9302009,-1.40468299 32.9241613,-0.164978757 32.0994162,3.95881567 M68.7621187,18.6343396 C63.7463276,21.3183307 63.5807854,21.6474837 61.9422624,32.1975578 C60.1807553,43.5396824 59.8499468,57.7712083 61.092617,68.7498298 L62.0491751,77.2010356 L56.2070525,79.7852185 C49.8731316,82.5870204 46.4076434,87.6256425 48.5158234,90.9678018 C50.3454098,93.8683082 52.2100358,93.6357904 52.6623109,90.4506893 C53.1430731,87.065627 60.6691738,80.9591197 64.6105959,80.7561925 C66.3225093,80.6680413 67.6428464,79.5625642 68.0704971,77.8594108 C68.4508993,76.3446306 71.6037197,73.2021566 75.0767953,70.8761506 C81.752078,66.4054762 87.1726198,59.5897585 87.1726198,55.6669599 C87.1726198,52.2965205 82.6414536,48.2365978 78.8797827,48.2365978 C74.3848289,48.2365978 73.751423,45.3043624 77.2300856,40.5991699 C81.5284581,34.7853964 81.5066617,22.4154617 77.1918729,18.9215553 C73.6287148,16.0363615 73.6178856,16.0359477 68.7621187,18.6343396 M76.2364185,25.5830429 C78.1892648,31.1360184 68.8506838,50.8883081 65.8262965,47.6017434 C64.2110184,45.8463752 67.0232357,26.3083247 69.2802658,23.6052963 C71.7278764,20.6739576 74.8189633,21.5527798 76.2364185,25.5830429 M78.2847964,51.9068065 C83.671402,53.3963416 82.8111343,57.1771187 75.2715143,65.1503904 C71.1728961,69.4846993 68.0016591,71.914859 67.5011009,71.1049437 C67.0359273,70.3523474 66.3327178,65.4704386 65.9383824,60.2562728 L65.2213777,50.7759463 L70.1659856,50.9025171 C72.8854993,50.9721138 76.5389469,51.4240441 78.2847964,51.9068065 M29.2494691,61.5074961 C28.2649068,64.0731244 29.7291277,66.0122445 32.6509477,66.0122445 C35.2345098,66.0122445 35.6256033,65.0100933 34.3447204,61.6721416 C33.3789885,59.1554861 30.1915423,59.0525051 29.2494691,61.5074961 M96.0604431,74.0438697 C96.0604431,75.7501271 101.210047,81.2484737 102.808151,81.2484737 C104.280442,81.2484737 103.770503,75.4998825 102.15488,73.8842595 C100.109054,71.8383647 96.0604431,71.9443806 96.0604431,74.0438697" id="Fill-6" fill="#ffffff" sketch:type="MSShapeGroup"></path>
    </g>
</svg>
