<?xml version="1.0" encoding="UTF-8" standalone="no"?>
<svg width="411px" height="321px" viewBox="0 0 411 321" version="1.1" xmlns="http://www.w3.org/2000/svg" xmlns:xlink="http://www.w3.org/1999/xlink">
    <!-- Generator: Sketch 3.6.1 (26313) - http://www.bohemiancoding.com/sketch -->
    <title>Group</title>
    <desc>Created with Sketch.</desc>
    <defs></defs>
    <g id="Page-1" stroke="none" stroke-width="1" fill="none" fill-rule="evenodd">
        <g id="Group" transform="translate(0.500000, 0.500000)">
            <rect id="Rectangle-path" stroke="#000000" fill="#7EA6E0" x="0" y="111" width="210" height="209" rx="31.35"></rect>
            <rect id="Rectangle-path" stroke="#000000" fill="#9AC7BF" x="270" y="171" width="140" height="141" rx="21"></rect>
            <ellipse id="Oval" stroke="#000000" fill="#FFFFFF" cx="255" cy="8" rx="7.5" ry="7.5"></ellipse>
            <path d="M255,15 L255,40 M255,20 L240,20 M255,20 L270,20 M255,40 L240,60 M255,40 L270,60" id="Shape" stroke="#000000"></path>
            <rect id="Rectangle-path" x="310" y="178" width="60" height="30"></rect>
            <g transform="translate(304.000000, 187.000000)" id="ORM-session" font-size="12" font-family="Helvetica" fill="#000000" font-weight="normal">
                <g>
                    <text>
                        <tspan x="0" y="11">ORM session</tspan>
                    </text>
                </g>
            </g>
            <rect id="Rectangle-path" x="75" y="120" width="60" height="30"></rect>
            <g transform="translate(87.000000, 132.000000)" id="Post" font-size="12" font-family="Helvetica" fill="#000000" font-weight="normal">
                <g>
                    <text>
                        <tspan x="0" y="11">Post</tspan>
                    </text>
                </g>
            </g>
            <path d="M206.29,106.33 L240,70" id="Shape" stroke="#000000"></path>
            <path d="M202.72,110.18 L204.91,102.67 L206.29,106.33 L210.05,107.43 L202.72,110.18 Z" id="Shape" stroke="#000000" fill="#000000"></path>
            <path d="M326.47,154.7 L270,70" id="Shape" stroke="#000000"></path>
            <path d="M329.38,159.07 L322.58,155.19 L326.47,154.7 L328.41,151.3 L329.38,159.07 Z" id="Shape" stroke="#000000" fill="#000000"></path>
            <path d="M97.5,206 C67.5,206 60,234 84,239.6 C60,251.92 87,278.8 106.5,267.6 C120,290 165,290 180,267.6 C210,267.6 210,245.2 191.25,234 C210,211.6 180,189.2 153.75,200.4 C135,183.6 105,183.6 97.5,206 L97.5,206 Z" id="Shape" fill="#FFFFFF"></path>
            <rect id="Rectangle-path" x="81" y="204" width="120" height="76"></rect>
            <g transform="translate(90.000000, 202.000000)" id="piece-of-object-is-t" font-size="12" font-family="Helvetica" fill="#000000" font-weight="normal">
                <g>
                    <text>
                        <tspan x="9.80761719" y="11">piece of object is </tspan>
                        <tspan x="39.8222656" y="25">taken</tspan>
                        <tspan x="28.8154297" y="39">away and </tspan>
                        <tspan x="20.1494141" y="53">implemented</tspan>
                        <tspan x="32.4980469" y="67">by ORM</tspan>
                    </text>
                </g>
            </g>
            <rect id="Rectangle-path" x="310" y="234" width="60" height="68"></rect>
            <path d="M310,248 C310,229.33 370,229.33 370,248 L370,288 C370,306.67 310,306.67 310,288 L310,248 Z" id="Shape" stroke="#000000" fill="#67AB9F"></path>
            <path d="M310,248 C310,262 370,262 370,248" id="Shape" stroke="#000000"></path>
            <rect id="Rectangle-path" x="310" y="264" width="60" height="30"></rect>
            <g transform="translate(321.000000, 274.000000)" id="JDBC" font-size="12" font-family="Helvetica" fill="#000000" font-weight="normal">
                <g>
                    <text>
                        <tspan x="0" y="11">JDBC</tspan>
                    </text>
                </g>
            </g>
        </g>
    </g>
</svg>
