<?xml version="1.0" encoding="UTF-8" standalone="no"?>
<svg width="211px" height="341px" viewBox="0 0 211 341" version="1.1" xmlns="http://www.w3.org/2000/svg" xmlns:xlink="http://www.w3.org/1999/xlink">
    <!-- Generator: Sketch 3.6.1 (26313) - http://www.bohemiancoding.com/sketch -->
    <title>Group</title>
    <desc>Created with Sketch.</desc>
    <defs></defs>
    <g id="Page-1" stroke="none" stroke-width="1" fill="none" fill-rule="evenodd">
        <g id="Group" transform="translate(0.500000, 0.500000)">
            <rect id="Rectangle-path" stroke="#000000" fill="#7EA6E0" x="0" y="131" width="210" height="209" rx="31.35"></rect>
            <rect id="Rectangle-path" stroke="#000000" fill="#9AC7BF" x="35" y="181" width="140" height="141" rx="21"></rect>
            <ellipse id="Oval" stroke="#000000" fill="#FFFFFF" cx="105" cy="8" rx="7.5" ry="7.5"></ellipse>
            <path d="M105,15 L105,40 M105,20 L90,20 M105,20 L120,20 M105,40 L90,60 M105,40 L120,60" id="Shape" stroke="#000000"></path>
            <rect id="Rectangle-path" x="50" y="188" width="110" height="30"></rect>
            <g transform="translate(48.000000, 199.000000)" id="SQL-speaking-part-of" font-size="12" font-family="Helvetica" fill="#000000" font-weight="normal">
                <g>
                    <text>
                        <tspan x="0.301757812" y="11">SQL-speaking part of</tspan>
                        <tspan x="30.9814453" y="25">the object</tspan>
                    </text>
                </g>
            </g>
            <rect id="Rectangle-path" x="75" y="140" width="60" height="30"></rect>
            <g transform="translate(91.000000, 150.000000)" id="Post" font-size="12" font-family="Helvetica" fill="#000000" font-weight="normal">
                <g>
                    <text>
                        <tspan x="0" y="11">Post</tspan>
                    </text>
                </g>
            </g>
            <path d="M104.96,114.63 L105,70" id="Shape" stroke="#000000"></path>
            <path d="M104.96,119.88 L101.47,112.88 L104.96,114.63 L108.47,112.88 L104.96,119.88 Z" id="Shape" stroke="#000000" fill="#000000"></path>
            <rect id="Rectangle-path" x="75" y="244" width="60" height="68"></rect>
            <path d="M75,258 C75,239.33 135,239.33 135,258 L135,298 C135,316.67 75,316.67 75,298 L75,258 Z" id="Shape" stroke="#000000" fill="#67AB9F"></path>
            <path d="M75,258 C75,272 135,272 135,258" id="Shape" stroke="#000000"></path>
            <path d="M75,274 L135,274 L135,304 L128.479188,304 L75,304 L75,274 Z" id="Rectangle-path"></path>
            <g transform="translate(89.000000, 286.000000)" id="JDBC" font-size="12" font-family="Helvetica" fill="#000000" font-weight="normal">
                <g>
                    <text>
                        <tspan x="0.33203125" y="11">JDBC</tspan>
                    </text>
                </g>
            </g>
        </g>
    </g>
</svg>
