<?xml version="1.0" encoding="UTF-8"?>
<svg width="315px" height="421px" viewBox="0 0 315 421" version="1.1" xmlns="http://www.w3.org/2000/svg" xmlns:xlink="http://www.w3.org/1999/xlink">
    <!-- Generator: Sketch 43.2 (39069) - http://www.bohemiancoding.com/sketch -->
    <title>academic-writing</title>
    <desc>Created with Sketch.</desc>
    <defs></defs>
    <g id="Page-1" stroke="none" stroke-width="1" fill="none" fill-rule="evenodd">
        <g id="academic-writing">
            <path d="M209.9,72.5 C209,70.5 207.966,68.75 206.799,67.25 C206.666,67.083 206.549,66.917 206.449,66.75 C206.416,66.75 206.399,66.767 206.399,66.8 C205.765,65.967 205.215,65.367 204.749,65 L202,62.6 C201.3,61.967 200.783,61.583 200.45,61.45 C200.25,61.317 200.05,61.183 199.849,61.05 C199.082,60.55 198.416,60.183 197.849,59.95 C197.15,59.683 196.633,59.633 196.299,59.8 C194.9,59.433 193.433,59.234 191.9,59.2 C187.099,59.1 183.033,60.6 179.7,63.7 C178.033,65.266 176.733,67.083 175.8,69.15 C174.167,66.45 172.783,65.1 171.651,65.1 C170.517,65.1 169.617,65.717 168.951,66.95 C168.418,68.317 168.067,69.133 167.901,69.4 C167.634,69.3 166.751,68.433 165.251,66.8 C163.885,65.334 162.851,64.6 162.151,64.6 C161.117,64.6 159.867,65.267 158.401,66.6 C156.534,68.333 155.467,69.267 155.201,69.4 C154.634,67.633 154.184,66.334 153.851,65.5 C153.251,63.967 152.184,63 150.651,62.6 C149.918,62.433 148.934,63.283 147.701,65.15 C146.334,67.25 145.251,68.417 144.451,68.65 C144.284,67.65 144.051,66.75 143.751,65.95 C143.184,64.383 142.401,63.6 141.401,63.6 C141.168,63.6 139.768,64.683 137.201,66.85 C135.734,68.083 134.667,69.1 134.001,69.9 C133.268,68.433 132.318,67.15 131.151,66.05 C128.284,63.383 124.684,62.217 120.351,62.55 C118.484,62.683 116.751,63.067 115.151,63.7 C115.184,63.666 115.218,63.633 115.251,63.6 C113.318,64.467 111.751,65.333 110.551,66.2 C108.818,67.2 107.501,68.416 106.601,69.85 L106.601,69.9 C106.534,69.867 106.484,69.85 106.451,69.85 C106.151,70.383 105.934,70.85 105.801,71.25 C105.534,71.983 105.018,73.667 104.251,76.3 C104.051,76.867 103.868,77.367 103.701,77.8 C103.801,82.5 104.684,85.867 106.351,87.9 C106.751,88.4 107.118,88.967 107.451,89.6 C107.517,89.733 107.584,89.883 107.651,90.05 C107.818,90.45 107.984,90.867 108.151,91.3 C107.684,91.5 106.968,91.883 106.001,92.45 C104.501,93.317 103.501,93.75 103.001,93.75 L103.201,93.5 C103.501,91.933 103.718,90.633 103.851,89.6 C103.884,88.967 103.901,88.433 103.901,88 C103.835,85.733 103.018,84.6 101.451,84.6 C100.951,84.6 100.351,84.717 99.651,84.95 C99.051,85.15 98.734,85.25 98.701,85.25 L98.701,85 C99.201,83.733 99.684,82.133 100.151,80.2 C100.684,77.967 100.951,76.2 100.951,74.9 C100.951,72.7 99.384,72.433 96.251,74.1 C96.251,74 96.284,73.9 96.351,73.8 C96.384,73.734 96.434,73.667 96.501,73.6 L96.451,73.6 C96.751,72.9 97.068,72.15 97.401,71.35 C99.234,67.083 100.151,64.717 100.151,64.25 C100.151,63.45 99.951,63.083 99.551,63.15 C99.418,62.883 99.218,62.65 98.951,62.45 C98.451,62.283 98.201,62.166 98.201,62.1 C98.201,61.933 99.284,60.4 101.451,57.5 C103.584,54.633 104.651,53.05 104.651,52.75 C104.651,52.35 104.585,52.05 104.451,51.85 C104.151,51.35 103.468,51.1 102.401,51.1 C101.934,51.1 101.335,51.233 100.601,51.5 C99.834,51.767 99.351,51.9 99.151,51.9 L99.201,51.85 C99.834,51.317 102.684,49.3 107.751,45.8 C108.839,45.052 109.79,44.385 110.601,43.8 C110.682,44.979 110.815,46.879 111.001,49.5 C111.634,54.167 112.634,56.5 114.001,56.5 C114.334,56.5 114.634,56.483 114.901,56.45 C116.568,58.25 123.818,59.683 136.651,60.75 C146.651,61.583 155.268,62 162.501,62 C168.834,62 176.001,61.333 184.001,60 C192.334,58.6 196.501,57.267 196.501,56 C196.501,55.7 196.484,55.467 196.451,55.3 C196.484,55.133 196.501,54.984 196.501,54.85 C196.501,46.95 195.635,42.166 193.901,40.5 C194.134,40.433 194.367,40.367 194.6,40.3 C198.167,43.167 201.3,46.517 204,50.35 C210.479,59.474 214.07,70.291 214.775,82.8 C211.667,83.645 209.909,85.212 209.5,87.5 C209.4,88 209.384,88.7 209.45,89.6 C209.45,90 209.467,90.45 209.5,90.95 C209.6,92.317 209.533,93.283 209.3,93.85 C208.167,93.317 206.967,92.9 205.7,92.6 L205.55,92.65 C205.95,91.983 206.6,90.967 207.5,89.6 C207.8,89.133 208.116,88.633 208.45,88.1 C208.917,87.333 209.433,86.083 210,84.35 C210.366,81.05 210.583,78.617 210.65,77.05 C210.583,76.25 210.533,75.567 210.5,75 C210.167,73.567 209.967,72.733 209.9,72.5 Z M215.9,59 C215.733,59.233 215.65,59.717 215.65,60.45 C215.65,61.183 216.483,64.016 218.15,68.95 C218.516,70.083 218.849,71.233 219.15,72.4 C219.116,72.433 219.099,72.467 219.099,72.5 C218.466,72.067 217.849,71.7 217.249,71.4 C216.768,71.138 216.326,70.929 215.924,70.775 C215.801,70.264 215.676,69.756 215.549,69.25 C213.716,61.85 211.133,55.883 207.799,51.35 C205.766,48.55 203.082,45.533 199.749,42.3 C199.143,41.694 198.535,41.111 197.924,40.55 C200.919,41.933 204.261,43.467 207.949,45.15 C211.315,46.95 213.899,49.334 215.699,52.3 C216.699,53.933 218.032,56.133 219.699,58.9 C217.733,58.3 216.467,58.333 215.9,59 Z" id="Shape" fill="#782121"></path>
            <path d="M215.9,59 C216.466,58.333 217.733,58.3 219.7,58.9 C218.033,56.133 216.7,53.933 215.7,52.3 C213.9,49.334 211.316,46.95 207.95,45.15 C204.262,43.467 200.92,41.933 197.925,40.55 C198.536,41.111 199.144,41.694 199.75,42.3 C203.083,45.533 205.767,48.55 207.8,51.35 C211.134,55.883 213.717,61.85 215.55,69.25 C215.677,69.756 215.802,70.264 215.925,70.775 C216.327,70.929 216.769,71.138 217.25,71.4 C217.85,71.7 218.467,72.067 219.1,72.5 C219.1,72.467 219.117,72.433 219.151,72.4 C218.85,71.233 218.517,70.084 218.151,68.95 C216.484,64.016 215.651,61.183 215.651,60.45 C215.65,59.717 215.733,59.233 215.9,59 Z M209.9,72.5 C209.966,72.733 210.167,73.567 210.5,75 C210.533,75.567 210.583,76.25 210.65,77.05 C210.583,78.617 210.366,81.05 210,84.35 C209.434,86.083 208.917,87.333 208.45,88.1 C208.116,88.633 207.8,89.133 207.5,89.6 C206.6,90.967 205.95,91.983 205.55,92.65 L205.7,92.6 C206.967,92.9 208.167,93.317 209.3,93.85 C209.533,93.283 209.6,92.317 209.5,90.95 C209.467,90.45 209.45,90 209.45,89.6 C209.384,88.7 209.4,88 209.5,87.5 C209.909,85.211 211.667,83.645 214.775,82.8 C214.07,70.291 210.479,59.474 204,50.35 C201.3,46.517 198.167,43.166 194.6,40.3 C194.367,40.367 194.134,40.433 193.901,40.5 C195.634,42.167 196.501,46.95 196.501,54.85 C196.501,54.983 196.484,55.133 196.451,55.3 C196.484,55.467 196.501,55.7 196.501,56 C196.501,57.267 192.334,58.6 184.001,60 C176.001,61.333 168.834,62 162.501,62 C155.268,62 146.651,61.583 136.651,60.75 C123.818,59.683 116.568,58.25 114.901,56.45 C114.634,56.483 114.335,56.5 114.001,56.5 C112.634,56.5 111.634,54.167 111.001,49.5 C110.815,46.879 110.682,44.979 110.601,43.8 C109.789,44.385 108.839,45.052 107.751,45.8 C102.684,49.3 99.834,51.317 99.201,51.85 L99.151,51.9 C99.351,51.9 99.835,51.767 100.601,51.5 C101.334,51.233 101.934,51.1 102.401,51.1 C103.468,51.1 104.151,51.35 104.451,51.85 C104.584,52.05 104.651,52.35 104.651,52.75 C104.651,53.05 103.585,54.633 101.451,57.5 C99.284,60.4 98.201,61.933 98.201,62.1 C98.201,62.166 98.451,62.283 98.951,62.45 C99.218,62.65 99.417,62.883 99.551,63.15 C99.951,63.084 100.151,63.45 100.151,64.25 C100.151,64.717 99.234,67.083 97.401,71.35 C97.068,72.15 96.751,72.9 96.451,73.6 L96.501,73.6 C96.434,73.666 96.384,73.733 96.351,73.8 C96.284,73.9 96.251,74 96.251,74.1 C99.384,72.433 100.951,72.7 100.951,74.9 C100.951,76.2 100.684,77.967 100.151,80.2 C99.684,82.133 99.201,83.733 98.701,85 L98.701,85.25 C98.734,85.25 99.051,85.15 99.651,84.95 C100.351,84.717 100.951,84.6 101.451,84.6 C103.017,84.6 103.834,85.733 103.901,88 C103.901,88.433 103.884,88.967 103.851,89.6 C103.718,90.633 103.501,91.933 103.201,93.5 L103.001,93.75 C103.501,93.75 104.501,93.317 106.001,92.45 C106.968,91.883 107.684,91.5 108.151,91.3 C107.984,90.867 107.818,90.45 107.651,90.05 C107.585,89.883 107.518,89.734 107.451,89.6 C107.118,88.967 106.751,88.4 106.351,87.9 C104.684,85.867 103.801,82.5 103.701,77.8 C103.868,77.367 104.051,76.867 104.251,76.3 C105.018,73.667 105.534,71.984 105.801,71.25 C105.934,70.85 106.151,70.383 106.451,69.85 C106.484,69.85 106.534,69.867 106.601,69.9 L106.601,69.85 C107.501,68.416 108.818,67.2 110.551,66.2 C111.751,65.333 113.318,64.467 115.251,63.6 C115.218,63.633 115.184,63.666 115.151,63.7 C116.751,63.067 118.484,62.683 120.351,62.55 C124.684,62.217 128.284,63.383 131.151,66.05 C132.318,67.15 133.268,68.433 134.001,69.9 C134.668,69.1 135.734,68.084 137.201,66.85 C139.767,64.683 141.167,63.6 141.401,63.6 C142.401,63.6 143.184,64.383 143.751,65.95 C144.051,66.75 144.284,67.65 144.451,68.65 C145.251,68.417 146.334,67.25 147.701,65.15 C148.934,63.283 149.917,62.433 150.651,62.6 C152.184,63 153.251,63.967 153.851,65.5 C154.184,66.333 154.634,67.633 155.201,69.4 C155.468,69.267 156.534,68.334 158.401,66.6 C159.867,65.267 161.117,64.6 162.151,64.6 C162.85,64.6 163.884,65.333 165.251,66.8 C166.751,68.433 167.635,69.3 167.901,69.4 C168.067,69.133 168.418,68.317 168.951,66.95 C169.617,65.717 170.517,65.1 171.651,65.1 C172.784,65.1 174.168,66.45 175.8,69.15 C176.734,67.084 178.033,65.267 179.7,63.7 C183.033,60.6 187.099,59.1 191.9,59.2 C193.433,59.233 194.9,59.433 196.299,59.8 C196.633,59.633 197.15,59.683 197.849,59.95 C198.416,60.183 199.082,60.55 199.849,61.05 C200.049,61.183 200.249,61.317 200.45,61.45 C200.783,61.583 201.3,61.967 202,62.6 L204.75,65 C205.217,65.367 205.767,65.967 206.4,66.8 C206.4,66.767 206.417,66.75 206.45,66.75 C206.55,66.917 206.667,67.083 206.8,67.25 C207.967,68.75 209,70.5 209.9,72.5 Z M221.9,72.45 C221.966,73.05 222.049,73.65 222.15,74.25 C222.283,74.517 222.366,74.95 222.4,75.55 C222.533,76.05 222.599,76.517 222.599,76.95 L222.599,77.4 C222.499,77.633 222.266,77.75 221.9,77.75 C221.066,77.75 220.033,77.317 218.799,76.45 C218.332,76.15 217.966,75.883 217.699,75.65 C217.666,75.584 217.633,75.55 217.598,75.55 C217.831,76.25 218.449,77.484 219.449,79.25 C220.782,81.583 221.449,83.033 221.449,83.6 C221.449,84.892 220.258,85.584 217.874,85.675 C217.891,86.266 217.899,86.858 217.899,87.45 C217.899,90.15 217.565,94.25 216.899,99.75 C216.232,105.283 215.899,109.183 215.899,111.45 C215.899,111.55 216.815,112.85 218.649,115.35 C220.482,117.85 221.399,120.15 221.399,122.25 C221.399,123.317 221.365,124.2 221.298,124.9 L220.998,125.25 C220.765,125.483 220.398,125.6 219.898,125.6 L219.847,125.6 C219.847,125.733 219.83,125.833 219.797,125.9 C219.597,126.7 219.131,127.1 218.398,127.1 C217.964,127.1 217.398,126.7 216.698,125.9 C216.064,125.067 215.715,124.633 215.648,124.6 C214.881,124.733 214.398,125.033 214.198,125.5 C213.965,126.033 213.531,126.4 212.898,126.6 C212.198,126.333 211.748,125.983 211.547,125.55 C211.447,125.35 211.398,124.984 211.398,124.45 L211.398,124.1 C210.964,124.767 210.464,125.1 209.898,125.1 C209.064,125.1 208.564,124.517 208.398,123.35 L208.398,121.45 C208.398,118.783 209.314,116.4 211.148,114.3 C212.948,112.2 213.864,108.817 213.898,104.15 C213.898,101.95 214.064,98.633 214.398,94.2 C214.731,89.766 214.898,87.516 214.898,87.45 C214.898,86.806 214.889,86.164 214.873,85.525 C214.423,85.48 213.947,85.422 213.448,85.35 C213.448,86.517 213.398,87.933 213.298,89.6 C213.265,90.067 213.232,90.55 213.198,91.05 C213.031,93.383 212.948,94.984 212.948,95.85 C212.948,96.517 212.864,97.017 212.698,97.35 C212.431,97.85 211.931,98.1 211.198,98.1 C210.398,98.1 208.981,97.5 206.948,96.3 C205.882,95.667 205.097,95.15 204.597,94.75 C204.564,94.983 204.547,95.2 204.547,95.4 L204.547,95.7 L204.547,96.05 C204.481,96.75 204.314,97.883 204.047,99.45 C203.58,102.083 203.197,104.583 202.898,106.95 C202.898,107.05 202.464,109.666 201.597,114.8 C201.431,115.9 201.297,117.017 201.198,118.15 C201.165,118.117 201.132,118.1 201.097,118.1 C200.464,122.4 200.08,125.416 199.948,127.15 C199.715,130.317 198.948,136.067 197.648,144.4 C197.481,145.267 197.014,146.65 196.248,148.55 C195.281,150.917 194.682,152.433 194.448,153.1 C194.347,153.433 194.281,153.983 194.248,154.75 C194.015,155.483 193.298,156.083 192.098,156.55 C189.132,157.717 182.649,158.383 172.649,158.55 L172.649,158.85 C172.649,161.95 172.432,165.767 171.999,170.3 C171.799,172.433 171.633,174.3 171.499,175.9 C171.799,175.967 172.166,176.117 172.599,176.35 C172.799,176.65 173.116,176.983 173.549,177.35 C174.016,177.717 174.666,178.217 175.499,178.85 C175.865,179.217 176.199,179.55 176.499,179.85 C177.266,180.65 178.032,181.517 178.799,182.45 C178.9,182.45 178.999,182.467 179.099,182.5 C183.866,183.633 186.65,184.25 187.45,184.35 C187.828,184.405 188.269,184.472 188.775,184.55 C189.072,184.056 189.363,183.573 189.65,183.1 L190,183.1 L190.05,182.9 C211.017,185.033 225.35,192.383 233.05,204.95 C235.616,209.116 237.833,214.55 239.7,221.25 C242.2,230.417 243.599,235.366 243.9,236.1 C245.167,241.134 248.133,250.984 252.799,265.651 C255.784,275.804 257.676,284.171 258.474,290.751 L313.1,290.751 C313.167,290.784 313.234,290.817 313.3,290.851 C314.267,291.351 314.75,291.902 314.75,292.501 C314.75,292.935 314.3,293.351 313.4,293.751 L258.775,293.751 C258.858,294.976 258.9,296.125 258.9,297.201 C258.9,304.635 254.917,321.517 246.95,347.85 C238.917,374.35 233.65,387.6 231.15,387.6 L230.849,387.6 C230.706,387.701 230.574,387.75 230.45,387.75 C228.717,387.75 226.217,386.934 222.95,385.3 C222.816,389.901 222.233,393.417 221.2,395.85 C219.3,400.284 215.933,403.067 211.099,404.201 C211.266,405.468 211.416,406.567 211.549,407.501 C211.716,408.935 211.799,409.935 211.799,410.501 C211.799,412.268 208.799,414.268 202.799,416.501 C194.766,419.501 184.349,421.001 171.549,421.001 C160.416,421.001 151.999,420.567 146.299,419.701 C141.999,418.668 139.016,418.017 137.349,417.751 L120.299,417.501 C117.632,416.801 115.849,412.867 114.949,405.701 C111.982,404.701 110.149,399.668 109.449,390.6 C109.249,388.267 109.149,382.25 109.149,372.55 L109.949,341.6 C109.943,341.497 109.935,341.398 109.924,341.3 C101.563,337.759 95.272,334.609 91.049,331.85 C83.516,326.917 76.432,320.833 69.799,313.6 C67.059,310.631 64.642,307.815 62.549,305.151 C60.908,303.156 59.417,301.073 58.074,298.901 C56.916,297.101 55.941,295.385 55.149,293.751 L1.149,293.751 C0.916,293.685 0.699,293.617 0.499,293.551 C0.332,293.284 0.249,292.985 0.249,292.652 C0.249,291.718 0.832,291.085 1.999,290.752 L53.849,290.752 C53.615,290.159 53.398,289.56 53.199,288.952 C51.366,283.996 50.449,279.097 50.449,274.252 C50.449,269.137 52.216,262.137 55.749,253.252 C56.302,251.681 56.902,250.047 57.549,248.352 C62.116,236.419 67.716,225.119 74.349,214.453 C81.949,202.22 89.532,193.186 97.099,187.353 C104.713,181.478 111.78,179.303 118.299,180.828 C118.398,180.819 118.498,180.81 118.599,180.803 C118.604,180.643 118.621,180.492 118.649,180.353 C118.775,180.441 118.9,180.533 119.024,180.628 C119.848,180.607 120.723,180.582 121.649,180.553 C123.782,180.487 125.632,180.353 127.199,180.153 C128.265,179.12 130.632,177.67 134.299,175.803 C136.466,174.703 138.182,173.97 139.449,173.603 C139.282,172.536 139.165,171.386 139.099,170.153 C139.132,164.886 139.149,161.003 139.149,158.503 L139.199,157.703 C136.732,157.336 134.299,156.886 131.899,156.353 C130.032,155.953 127.849,155.62 125.349,155.353 C123.882,155.186 122.316,154.77 120.649,154.103 C118.482,153.203 116.566,151.736 114.899,149.703 C113.366,147.87 112.549,146.253 112.449,144.853 C112.282,142.753 111.899,139.636 111.299,135.503 C111.132,134.236 110.983,133.086 110.849,132.053 C110.682,130.153 110.582,128.936 110.549,128.403 L110,115.7 C109.8,110.033 109.617,105.75 109.45,102.85 L109.45,100.45 L109.05,96.65 C109.017,96.45 109,95.817 109,94.75 L109,94.65 C108.6,94.95 108.117,95.25 107.55,95.55 C105.584,96.584 103.717,97.1 101.95,97.1 C100.916,97.1 100.2,96.767 99.8,96.1 C99.567,95.733 99.45,95.35 99.45,94.95 C99.45,94.416 99.55,93.9 99.75,93.4 C99.817,93.167 99.9,92.883 100,92.55 C100.267,91.584 100.4,91.084 100.4,91.05 L100.4,89.6 L100.4,89.2 C100.4,89.067 100.417,88.95 100.45,88.85 L100.45,88.25 C99.916,88.35 99.483,88.417 99.15,88.45 C98.517,88.55 97.95,88.6 97.45,88.6 L94.7,88.35 C94.533,88.183 94.45,87.683 94.45,86.85 C94.45,86.617 94.817,85.533 95.55,83.6 C96.317,81.567 96.783,80.05 96.95,79.05 C96.85,79.084 96.733,79.117 96.6,79.15 C96.1,79.283 95.033,79.5 93.4,79.8 L91,79.8 C90.6,79.533 90.4,79.3 90.4,79.1 C90.4,78.733 90.917,77.65 91.95,75.85 L91.95,75.5 C92.75,73.1 93.9,70.6 95.4,68 C96.067,66.833 96.7,65.867 97.3,65.1 L97.15,65.1 C95.717,65.1 94.883,64.767 94.65,64.1 L94.65,62.95 C94.65,62.083 95.15,60.883 96.15,59.35 C96.35,59.05 97.2,57.883 98.7,55.85 L98.95,55.6 C97.75,56.367 96.95,56.85 96.55,57.05 C95.917,57.417 95.367,57.6 94.9,57.6 C94.367,57.6 93.967,57.567 93.7,57.5 L93.4,57.35 C93.4,57.283 93.367,57.133 93.3,56.9 C93.2,56.7 93.15,56.35 93.15,55.85 C93.15,54.283 94.9,51.9 98.4,48.7 C101.133,46.166 104.067,43.883 107.2,41.85 C106.021,41.402 105.104,41.027 104.45,40.725 C89.217,36.771 81.6,34.646 81.6,34.35 C81.6,33.583 93.2,27.683 116.4,16.65 C139.733,5.55 152.433,0 154.5,0 C156.133,0 166.316,4.967 185.05,14.9 C204.35,25.133 214,31.283 214,33.35 C214,33.631 209.941,35.139 201.825,37.875 C205.792,40.103 209.7,42.928 213.55,46.35 C220.95,52.95 224.651,58.317 224.651,62.45 C224.651,63.55 224.067,64.1 222.901,64.1 C222.467,64.1 221.967,63.933 221.401,63.6 C220.701,63.2 220.134,62.95 219.701,62.85 C220.267,64.783 220.767,66.5 221.201,68 C221.366,69.067 221.6,70.55 221.9,72.45 Z M213.3,192.85 C209.128,191.715 205.411,190.699 202.151,189.8 C198.744,188.877 196.051,188.018 194.076,187.225 C192.838,186.723 191.88,186.248 191.201,185.8 C191.105,186.087 190.98,186.404 190.826,186.75 C190.29,188.005 189.398,189.671 188.151,191.75 C185.717,195.85 182.85,199.8 179.55,203.6 C173.956,210.063 168.523,214.572 163.25,217.125 C162.217,217.621 161.191,218.046 160.175,218.4 C157.797,219.2 155.456,219.599 153.15,219.599 L152.55,219.599 C151.55,219.567 150.55,219.45 149.55,219.249 C142.626,217.908 135.726,212.691 128.85,203.599 C125.883,199.7 123.367,195.633 121.3,191.399 C119.648,188.035 118.722,185.543 118.525,183.924 C118.508,183.72 118.5,183.529 118.5,183.349 L118.5,183.199 C117.633,182.966 116.667,182.849 115.6,182.849 C106.533,182.849 96.7,189.499 86.1,202.799 C79.867,210.599 74.75,218.549 70.75,226.65 C65.917,236.25 62.3,244.066 59.9,250.099 C58.19,254.433 56.848,258.408 55.875,262.025 C54.625,266.708 54,270.783 54,274.25 C54,280.141 55.067,285.641 57.2,290.75 L57.6,291.7 C57.764,292.049 57.931,292.398 58.1,292.75 C60.933,298.517 65.75,304.967 72.55,312.1 C76.117,315.833 79.317,318.884 82.15,321.25 C85.084,323.684 88.617,326.217 92.75,328.85 C96.55,331.284 101.983,334.1 109.05,337.3 C111.53,338.412 113.605,339.312 115.275,340 C116.977,340.7 118.252,341.175 119.1,341.425 C119.591,341.575 119.941,341.651 120.15,341.651 C120.85,341.651 121.584,338.484 122.35,332.151 C122.751,328.772 123.176,325.955 123.625,323.701 C123.918,322.24 124.218,321.014 124.525,320.026 C124.78,319.234 125.038,318.592 125.3,318.1 C119.834,318.5 110.717,312.934 97.95,301.401 C92.583,296.6 88.15,292.001 84.65,287.6 C80.883,282.901 79,279.434 79,277.201 C79,274.974 80.033,271.274 82.1,266.1 C83.606,262.308 85.673,257.724 88.3,252.35 L88.675,251.55 C89.1,250.669 89.542,249.77 90,248.85 C97.267,235.117 101.25,227.451 101.95,225.85 L101.95,225.951 C101.583,226.517 101.4,227.401 101.4,228.6 C101.4,229.767 101.533,231.717 101.8,234.451 C101.967,236.051 102.167,237.934 102.4,240.1 C103.067,245.901 103.4,249.5 103.4,250.901 C103.4,251.534 103.417,252.201 103.45,252.901 C103.496,256.324 103.663,260.699 103.95,266.026 C104.076,268.362 104.226,270.887 104.4,273.6 L103.95,281.35 C103.934,283.763 104.084,285.614 104.4,286.901 C104.767,288.367 105.351,289.1 106.15,289.1 L106.2,289.1 C106.166,289.367 106.133,289.617 106.1,289.85 L106.15,289.85 C109.75,289.417 117.883,289.583 130.55,290.35 C130.532,289.559 130.416,288.458 130.2,287.05 C130.004,285.859 129.738,284.442 129.4,282.8 C128.733,279.333 128.4,276.717 128.4,274.95 C128.4,272.363 129.125,269.839 130.575,267.375 C130.598,267.336 130.623,267.295 130.65,267.25 C132.084,264.884 133.8,263.2 135.8,262.2 C137.867,261.167 139.667,261.233 141.2,262.4 C142.933,263.733 144,266.383 144.4,270.349 L144.4,290.4 C144.921,290.4 146.788,290.417 150,290.45 C151.003,290.455 152.136,290.463 153.4,290.474 C155.083,290.5 156.999,290.526 159.15,290.549 C160.058,290.539 160.933,290.523 161.775,290.499 C162.824,290.482 163.824,290.458 164.775,290.424 C170.784,290.214 174.992,289.773 177.4,289.099 L196.65,288.599 L207.3,289 C207.366,287.7 207.401,286.95 207.401,286.75 C207.401,281.583 206.817,274.4 205.651,265.2 C204.484,256.033 203.901,249.033 203.901,244.2 C203.901,235.833 206.467,235.183 211.6,242.25 C215.967,248.283 219.784,255.75 223.05,264.65 C223.662,266.22 224.337,270.171 225.075,276.5 C225.263,278.102 225.455,279.852 225.65,281.75 C226.004,285.297 226.279,288.297 226.474,290.75 C226.57,291.863 226.645,292.863 226.7,293.75 C226.791,294.922 226.848,295.897 226.875,296.675 C226.892,297.068 226.9,297.409 226.9,297.7 C226.9,310.634 219.4,334.366 204.4,368.9 C204.513,368.959 204.63,369.017 204.75,369.075 C213.066,373.422 220.383,377.813 226.7,382.25 C227.762,383.001 228.795,383.751 229.8,384.5 C234.067,373.3 238.333,361.35 242.6,348.65 C251.401,322.549 255.8,305.4 255.8,297.2 C255.8,290.167 253.833,279.967 249.901,266.599 C245.3,252.299 242.3,242.716 240.901,237.849 C239.434,231.216 238.251,226.166 237.35,222.7 C235.75,216.533 233.651,211.683 231.05,208.15 C228.85,204.816 227.05,202.299 225.651,200.6 C223.217,197.666 220.384,195.433 217.151,193.9 C215.825,193.54 214.542,193.19 213.3,192.85 Z M206.9,245.45 C206.9,245.516 207.483,251.134 208.65,262.3 C209.816,274.333 210.4,282.6 210.4,287.1 L210.4,289.55 C211.066,290.116 211.4,290.467 211.4,290.6 L211.4,290.75 L223.825,290.75 C223.637,281.942 223.045,275.576 222.05,271.65 C220.914,267.164 218.815,262.129 215.75,256.549 C213.757,253.34 211.307,249.806 208.4,245.949 C207.88,245.247 207.389,244.589 206.924,243.973 C206.908,244.373 206.9,244.865 206.9,245.45 Z M207.25,316.5 C207.017,319.033 207.033,321.1 207.3,322.7 C207.533,323.967 208.25,327.566 209.45,333.5 C210.327,337.623 210.944,341.031 211.3,343.725 C211.671,342.771 212.037,341.812 212.401,340.85 C220.067,320.484 223.901,306.034 223.901,297.5 C223.901,296.209 223.892,294.959 223.876,293.75 L142.2,293.75 C142.133,294.816 142.067,295.783 142,296.65 C142.433,297.383 142.717,298.066 142.85,298.7 C142.916,299.033 142.95,300 142.95,301.599 L153,301.45 C153.633,301.349 153.95,301.266 153.95,301.2 L198.95,301.2 C204.384,303.5 207.25,306.717 207.55,310.849 C207.616,311.75 207.517,313.634 207.25,316.5 Z M206.45,335.65 C205.45,331.016 204.783,327.45 204.45,324.95 C204.417,318.983 204.25,314.634 203.95,311.9 C203.45,307.099 201.483,304.616 198.05,304.45 L154,304.3 L152.95,304.7 L142.9,304.849 C142.867,306.749 142.783,308.883 142.65,311.249 L187.15,311.249 C192.583,313.549 195.45,316.766 195.75,320.899 C195.816,321.598 195.767,322.865 195.6,324.699 C198.901,326.799 200.667,329.449 200.901,332.649 C200.967,333.548 200.867,335.432 200.6,338.298 C200.367,340.831 200.384,342.899 200.651,344.498 C200.884,345.765 201.6,349.364 202.8,355.298 C203.297,357.663 203.722,359.796 204.075,361.698 C205.747,357.75 207.422,353.649 209.099,349.398 C208.754,347.462 208.572,346.429 208.549,346.297 C208.217,344.167 207.517,340.616 206.45,335.65 Z M217.75,382.45 C216.65,381.816 215.517,381.116 214.35,380.349 C213.75,379.983 213.151,379.599 212.55,379.2 C210.05,377.566 207.934,376.167 206.2,375 C206.066,374.866 205.933,374.767 205.8,374.7 C205.134,375.033 204.267,375.366 203.2,375.7 C202.733,375.866 202.233,376.016 201.7,376.15 C197.866,377.183 195.95,378.383 195.95,379.75 C195.95,380.316 195.983,380.733 196.05,381 C196.484,381 198.783,380.917 202.95,380.75 C203.417,380.75 203.816,380.833 204.15,381 C204.516,381.134 204.816,381.384 205.049,381.75 C205.316,382.15 205.449,382.517 205.449,382.85 C205.182,383.317 204.932,383.784 204.699,384.25 C203.699,385.983 202.699,387.733 201.699,389.5 C199.199,394 197.949,396.6 197.949,397.3 C197.949,398.467 198.449,399.417 199.449,400.151 C200.716,401.05 202.716,401.501 205.449,401.501 C206.182,401.501 206.883,401.484 207.549,401.451 C208.65,401.35 209.683,401.218 210.65,401.051 C215.75,400.018 218.816,397.251 219.849,392.751 C220.283,390.885 220.349,388.718 220.049,386.251 C219.849,385.084 219.699,384.185 219.599,383.551 C219,383.184 218.384,382.816 217.75,382.45 Z M179.7,28.8 C183.9,30.433 186.8,31.8 188.4,32.9 C189.411,33.591 190.427,34.324 191.45,35.1 C192.444,35.859 193.444,36.659 194.45,37.5 C195.848,36.999 197.148,36.532 198.349,36.1 C204.828,33.791 208.462,32.525 209.249,32.3 C206.183,30.734 197.065,25.55 181.899,16.75 C170.532,10.183 161.699,5.733 155.399,3.4 C154.866,3.2 152.816,3.783 149.249,5.15 C145.349,6.717 142.932,7.667 141.999,8 C139.599,8.633 136.349,10.017 132.249,12.15 C127.782,14.584 124.582,16.25 122.649,17.15 C120.249,18.317 114.399,21.317 105.099,26.15 C97.999,29.85 92.682,32.4 89.149,33.8 C88.482,33.967 87.982,34.133 87.649,34.3 C87.821,34.343 92.771,35.576 102.499,38 C105.814,38.82 109.68,39.779 114.099,40.875 C116.811,41.549 119.728,42.274 122.849,43.05 C142.049,47.85 152.749,50.25 154.949,50.25 C157.282,50.25 165.916,47.6 180.848,42.3 C185.015,40.8 188.748,39.484 192.048,38.35 C190.394,37.177 188.66,36.094 186.848,35.1 C176.568,29.487 163.668,26.737 148.148,26.85 C148.148,26.783 148.115,26.7 148.048,26.6 C147.948,26.5 147.898,26.2 147.898,25.7 C147.898,24 150.098,23.35 154.498,23.75 C157.298,24.017 163.064,24.8 171.798,26.1 C173.434,26.5 176.066,27.4 179.7,28.8 Z M167.45,49.3 C159.384,52.1 155.233,53.5 155,53.5 C154.633,53.5 142.383,50.417 118.25,44.25 C116.783,43.883 115.367,43.533 114,43.2 L114,46.75 C114,48.75 114.333,50.55 115,52.15 C115.433,53.217 115.733,54 115.9,54.5 C116.133,54.533 116.383,54.617 116.65,54.75 C118.017,55.383 119.75,55.917 121.85,56.35 C129.85,57.983 144.367,58.8 165.4,58.8 C168.7,58.8 174.566,58.084 183,56.65 C186.667,56.05 190.1,55.433 193.3,54.8 C193,53.633 192.734,52 192.5,49.9 C192.167,45.1 192,42.667 192,42.6 C192,42.067 192.017,41.567 192.05,41.1 C189.517,41.9 186.75,42.783 183.75,43.75 C181.917,44.317 176.483,46.167 167.45,49.3 Z M148.35,70.15 C146.983,71.783 145.833,72.6 144.9,72.6 C143.334,72.6 142.317,72.033 141.85,70.9 C141.583,69.567 141.267,68.717 140.9,68.35 C140.7,68.416 139.75,69.25 138.05,70.85 C136.717,72.083 135.767,72.817 135.2,73.05 C135.766,75.05 136.05,77.317 136.05,79.85 C136.05,83.183 135.35,86.033 133.95,88.4 C133.717,88.834 133.45,89.233 133.15,89.6 C130.383,93.267 125.85,95.1 119.55,95.1 C116.517,95.1 113.933,94.433 111.8,93.1 C111.9,94.133 111.95,95.383 111.95,96.85 L111.85,102.55 C111.883,103.05 111.9,103.584 111.9,104.15 C112,106.317 112.117,109.517 112.25,113.75 C112.383,117.45 112.6,120.65 112.9,123.35 C113.3,127.383 114.05,133.733 115.15,142.4 C115.283,143.533 116.033,145.1 117.4,147.1 C118.834,149.166 120.084,150.433 121.15,150.9 C123.75,151.967 127.334,152.783 131.9,153.35 C140.533,154.45 149.467,155.05 158.7,155.15 C162.5,155.217 165.683,155.217 168.25,155.15 C168.316,155.183 168.384,155.2 168.45,155.2 L170.45,155.25 C170.583,155.283 170.717,155.317 170.849,155.35 C177.883,155.317 182.383,155.183 184.349,154.95 C188.082,154.55 190.566,153.467 191.799,151.7 C192.832,150.233 193.666,147.133 194.299,142.4 C195.433,133.867 196.383,127.683 197.15,123.85 C196.983,121.883 197.4,119.05 198.4,115.35 C199.433,111.65 199.849,108.833 199.65,106.9 C199.683,106.767 199.9,104.084 200.299,98.85 C200.433,97.383 200.65,96.033 200.949,94.8 L200.949,94.7 C200.883,94 200.832,93.433 200.799,93 C198.299,94.067 195.332,94.6 191.9,94.6 C186.266,94.6 181.917,92.933 178.849,89.6 C178.016,88.733 177.283,87.733 176.65,86.6 C174.983,83.666 174.15,80.7 174.15,77.7 C174.15,75.7 174.366,73.833 174.799,72.1 C173.966,72.067 173.332,71.717 172.9,71.05 C172.167,69.984 171.75,69.417 171.65,69.35 C171.583,69.383 171.25,70.183 170.65,71.75 C170.183,72.983 169.349,73.6 168.15,73.6 C166.883,73.6 165.599,72.817 164.299,71.25 C163.099,69.517 162.316,68.483 161.949,68.15 C159.482,71.45 157.299,73.1 155.399,73.1 C153.966,73.1 152.816,72.217 151.949,70.45 C151.282,68.516 150.866,67.416 150.699,67.15 C149.833,68.283 149.05,69.283 148.35,70.15 Z M129.2,86.85 C129.2,87.65 129.083,88.45 128.85,89.25 C129.95,88.417 130.85,87.367 131.55,86.1 C132.55,84.3 133.05,82.166 133.05,79.7 C133.05,74.733 131.734,70.983 129.1,68.45 C126.767,66.25 123.85,65.283 120.35,65.55 C116.983,65.783 114.067,67.033 111.6,69.3 C108.967,71.734 107.65,74.667 107.65,78.1 C107.65,80.9 108.25,83.483 109.45,85.85 C109.617,86.183 109.8,86.5 110,86.8 C109.967,86.6 109.95,86.417 109.95,86.25 C109.95,83.317 110.95,80.95 112.95,79.15 C114.783,77.517 117,76.683 119.6,76.65 C122.2,76.617 124.4,77.417 126.2,79.05 C128.2,80.95 129.2,83.55 129.2,86.85 Z M156.4,98.9 C158.6,98.9 160.267,98.35 161.4,97.25 C162.5,96.15 163.417,95.6 164.15,95.6 C164.983,95.6 165.5,95.683 165.7,95.85 C165.7,95.883 165.783,95.967 165.95,96.1 C166.083,96.267 166.15,96.6 166.15,97.1 C166.15,98.2 165,99.3 162.7,100.4 C160.333,101.533 157.816,102.1 155.15,102.1 C153.483,102.1 151.983,101.267 150.65,99.6 C149.65,98.333 149.15,97.45 149.15,96.95 C149.15,96.483 149.167,96.233 149.2,96.2 C149.266,96.133 149.333,96.016 149.4,95.85 C150.367,95.883 151.383,96.4 152.45,97.4 C153.483,98.4 154.8,98.9 156.4,98.9 Z M202.2,66.6 C202.167,66.533 202.116,66.467 202.05,66.4 C199.317,63.7 195.934,62.383 191.901,62.45 C187.967,62.516 184.584,63.867 181.751,66.5 C178.685,69.4 177.151,73.15 177.151,77.75 C177.151,80.35 178.001,82.9 179.701,85.4 L179.701,85.15 C179.701,82.25 180.867,79.917 183.201,78.15 C185.334,76.55 187.918,75.767 190.951,75.8 C194.017,75.8 196.6,76.667 198.701,78.4 C201.034,80.334 202.201,83 202.201,86.4 C202.201,87.367 202.151,88.133 202.051,88.7 C203.185,87.867 204.135,86.833 204.902,85.6 C206.101,83.666 206.685,81.583 206.652,79.35 C206.652,76.05 206.101,73.183 205.002,70.75 C204.167,69.517 203.233,68.133 202.2,66.6 Z M189.4,88.6 C189.866,88.867 190.483,89 191.25,89 C191.816,89 192.3,88.7 192.7,88.1 C192.9,87.8 193.033,87.517 193.099,87.25 C192.366,86.517 191.633,85.983 190.9,85.65 C189.433,85.017 188.7,85.65 188.7,87.55 C188.7,87.95 188.934,88.3 189.4,88.6 Z M91.95,79.05 L91.95,79 C91.916,79 91.9,79.017 91.9,79.05 L91.95,79.05 Z M118.2,86.2 C117.833,86.467 117.6,86.783 117.5,87.15 C117.467,87.25 117.45,87.483 117.45,87.85 C117.45,88.317 117.617,88.733 117.95,89.1 C118.15,89.333 118.416,89.5 118.75,89.6 C119.017,89.7 119.35,89.75 119.75,89.75 C120.15,89.75 120.5,89.7 120.8,89.6 C121.2,89.467 121.5,89.25 121.7,88.95 C121.867,88.683 121.95,88.4 121.95,88.1 C121.95,87.8 121.783,87.533 121.45,87.3 C120.916,86.933 120.5,86.584 120.2,86.25 L118.2,86.2 Z M123.4,183.2 C122.663,183.316 121.979,183.424 121.35,183.525 C122.114,184.78 122.814,186.322 123.45,188.15 C125.024,192.648 126.816,196.198 128.825,198.8 C129.193,197.454 130.151,195.321 131.7,192.4 C133.033,189.967 134.067,188.15 134.8,186.95 C134.834,186.916 134.883,186.9 134.95,186.9 C133.217,186.5 131.467,185.65 129.7,184.35 C128.733,183.683 128,183.1 127.5,182.6 C126.467,182.767 125.1,182.967 123.4,183.2 Z M182.3,119.5 C184.467,122.667 185.55,124.817 185.55,125.95 C185.55,126.883 185.517,127.7 185.45,128.4 L185.15,128.75 C184.917,128.983 184.549,129.1 184.049,129.1 C182.916,129.1 182.332,128.533 182.299,127.4 C182.499,126.133 182.549,125.367 182.449,125.1 L182.199,124.65 C178.865,127.683 175.399,130.317 171.799,132.55 C164.9,136.917 157.566,139.1 149.799,139.1 C144.599,139.1 140.899,138.517 138.699,137.35 C137.265,136.617 136.549,135.733 136.549,134.7 C136.549,134.166 136.583,133.833 136.649,133.7 L136.699,133.6 L136.999,133.35 C137.199,133.183 137.549,133.1 138.049,133.1 C138.549,133.1 138.966,133.25 139.299,133.55 C139.899,134.084 140.282,134.4 140.449,134.5 C141.982,135.4 145.099,135.85 149.799,135.85 C156.699,135.85 163.666,133.65 170.699,129.25 C174.265,127.017 177.432,124.567 180.199,121.9 C179.832,121.433 179.582,121.067 179.449,120.8 C179.182,120.367 179.049,119.883 179.049,119.35 C179.05,116.25 180.134,116.3 182.3,119.5 Z M143.15,167.1 C143.15,169.6 143.317,173.383 143.65,178.45 L143.65,178.65 C145.15,180.483 146.75,182.867 148.45,185.8 C150.15,188.734 152.55,193.1 155.65,198.9 C156.483,197.967 159.134,193.683 163.6,186.05 C165.434,182.917 166.951,180.517 168.151,178.85 L168.151,176.85 C168.151,175.85 168.234,174.033 168.401,171.4 C168.634,168.1 168.884,165.5 169.151,163.6 C169.418,161.8 169.834,160.133 170.401,158.6 L169.701,158.6 L169.701,158.35 C168.968,158.45 168.184,158.533 167.35,158.6 L166.75,158.6 C166.823,158.601 166.923,158.618 167.05,158.65 C164.717,158.817 161.917,158.917 158.651,158.95 C152.917,159.016 147.284,158.717 141.751,158.05 C142.518,158.65 142.968,159.667 143.101,161.1 C143.233,162.533 143.25,164.533 143.15,167.1 Z M139.45,185.3 C139.05,186.167 138.067,187.984 136.5,190.75 C134.133,194.85 132.683,197.567 132.15,198.9 C136.584,199.433 143,199.834 151.4,200.1 C151.8,200.1 152.183,200.117 152.55,200.15 C151.017,197.95 149.05,194.567 146.65,190 C145.483,187.8 144.483,185.883 143.65,184.25 C141.017,180.65 139.633,178.317 139.5,177.25 C138.933,177.617 138.283,177.983 137.55,178.35 C134.117,179.817 131.95,180.75 131.05,181.15 C131.617,181.717 133.117,182.367 135.55,183.1 C135.783,183.166 136,183.233 136.2,183.3 C136.5,183.267 137,183.4 137.7,183.7 C138.9,184.2 139.5,184.65 139.5,185.05 C139.5,185.083 139.483,185.167 139.45,185.3 Z M176.65,184.9 C176.049,184.367 174.933,183.383 173.299,181.95 C173.166,181.817 173.032,181.7 172.9,181.6 C172.299,180.867 171.95,180.5 171.849,180.5 C171.516,180.5 171.066,180.983 170.499,181.95 C170.365,182.183 170.249,182.383 170.149,182.55 C170.115,182.55 170.082,182.567 170.048,182.6 C168.748,184.7 166.965,187.483 164.698,190.95 C161.364,195.983 158.948,199.467 157.448,201.4 C158.014,201.333 158.581,201.283 159.148,201.25 C159.181,201.283 159.248,201.3 159.347,201.3 C159.547,201.3 159.864,201.25 160.297,201.151 L160.347,201.151 C165.58,200.717 169.847,200.284 173.148,199.851 C172.481,198.184 171.214,196.534 169.347,194.901 C167.881,193.634 167.148,192.284 167.148,190.851 C167.148,189.818 167.464,189.184 168.097,188.951 C171.664,187.718 174.681,186.534 177.148,185.401 C177.047,185.368 176.948,185.351 176.847,185.351 C176.847,185.284 176.814,185.201 176.747,185.101 C176.717,185.067 176.684,185 176.65,184.9 Z M174.7,195.9 C176,197.233 176.65,198.8 176.65,200.6 C176.65,202.833 172.333,204.25 163.7,204.85 C163.634,204.951 163.533,205.017 163.4,205.05 C163.167,205.116 162.683,205.151 161.95,205.151 C163.016,208.35 163.55,210.367 163.55,211.201 C163.55,211.489 163.517,212.323 163.45,213.701 C165.855,212.441 168.305,210.724 170.8,208.551 C173.833,205.951 176.45,203.152 178.651,200.151 C179.918,198.551 182.134,195.218 185.3,190.151 C186.113,188.854 186.897,187.595 187.651,186.376 C185.73,186.175 183.564,185.966 181.151,185.751 C180.984,186.751 179.918,187.684 177.951,188.551 C176.385,189.218 173.784,189.985 170.151,190.851 C170.684,191.65 172.2,193.333 174.7,195.9 Z M158.15,205.1 L152.549,205.1 L152.549,216.276 C152.915,216.326 153.265,216.35 153.599,216.35 C155.813,216.35 158.062,215.925 160.349,215.076 C160.483,212.703 160.549,211.328 160.549,210.951 C160.549,210.551 160.383,209.284 160.049,207.151 C159.916,206.317 159.816,205.634 159.749,205.1 C159.383,205.067 159.082,205.05 158.849,205.05 L158.249,205.05 C158.217,205.05 158.184,205.066 158.15,205.1 Z M149.55,205.6 C149.417,205.434 149.334,205.284 149.3,205.151 L149.25,205.151 C149.117,205.117 148.983,205.1 148.85,205.1 L147.65,205.1 C147.15,205 146.7,204.901 146.3,204.8 C144.4,204.533 143.017,204.333 142.15,204.2 C141.65,204.134 141.2,204.05 140.8,203.95 C137.211,203.725 134.361,203.251 132.25,202.525 C133.867,204.058 135.966,205.9 138.55,208.049 C142.918,211.693 146.585,214.134 149.55,215.374 L149.55,205.6 Z M138.45,265.8 C135.95,265.8 134.45,267.401 133.95,270.6 C133.717,272.201 133.717,273.85 133.95,275.55 C133.95,278.283 134.2,281.116 134.7,284.05 C135.133,286.616 135.383,288.85 135.45,290.75 L135.45,291.5 L135.45,292.55 C136.617,292.616 137.783,293.017 138.95,293.75 L138.95,285.25 C139.95,281.05 140.45,276.6 140.45,271.9 C139.983,267.833 139.317,265.8 138.45,265.8 Z M131.8,293.75 L94.1,293.75 C96.961,296.614 99.277,298.564 101.05,299.6 C102.85,300.667 105.033,302.401 107.6,304.8 C110.2,307.267 112.25,308.95 113.75,309.85 C113.858,309.932 115.809,310.699 119.6,312.151 C120.433,312.084 121.166,312.034 121.8,312.001 C122.433,305.534 124.033,302.301 126.6,302.301 C127.333,302.301 128.783,302.251 130.95,302.152 L130.95,295.351 C131.15,294.717 131.433,294.184 131.8,293.75 Z M93.25,250.1 C92.833,250.874 92.399,251.674 91.95,252.5 C90.525,255.271 89.25,257.83 88.125,260.175 C86.852,263.56 85.094,268.185 82.85,274.05 C82.601,274.666 82.359,275.275 82.125,275.875 C82.042,276.37 82,276.812 82,277.2 C82,278.014 82.342,279.056 83.025,280.325 C84.329,281.693 85.987,283.685 88,286.3 C89.233,287.901 90.4,289.384 91.5,290.75 L101.4,290.75 L101.4,290.45 C101.267,288.583 101.2,286.366 101.2,283.8 C101.2,281.6 101.283,279.934 101.45,278.8 L101.45,274.8 C101.416,273.901 101.4,273.417 101.4,273.35 C101.4,272.572 101.417,271.697 101.45,270.725 L101.45,269.451 C101.283,266.284 101.067,262.418 100.8,257.85 C100.834,256.784 100.867,255.717 100.9,254.651 C100.834,254.317 100.783,253.984 100.75,253.651 C100.65,252.751 100.6,251.1 100.6,248.701 L100.6,247.151 C100.5,246.918 100.45,246.584 100.45,246.151 L100.5,245.05 L100.6,245.05 C100.627,240.999 100.702,238.058 100.825,236.225 C99.319,238.966 96.993,243.233 93.85,249.026 C93.656,249.378 93.456,249.736 93.25,250.1 Z M112.45,343.25 C112.25,348.783 112.15,358.45 112.15,372.25 C112.15,390.116 112.967,400.1 114.6,402.2 C114.4,399.733 114.3,393.766 114.3,384.3 L115.1,353.35 C114.933,350.25 114.833,347.384 114.8,344.75 C113.733,344.417 112.95,343.917 112.45,343.25 Z M118.95,345.25 L118.1,345.25 C117.9,347.917 117.733,350.816 117.6,353.95 C117.4,359.283 117.3,369.3 117.3,384 C117.3,391.6 117.45,397.783 117.75,402.55 C117.817,403.717 117.9,404.8 118,405.8 C118.467,410.934 119.167,413.75 120.1,414.25 L137.3,414.5 C143.467,416.667 154.85,417.75 171.45,417.75 C174.95,417.75 181.766,416.917 191.9,415.25 C203.167,413.384 208.799,411.8 208.799,410.5 C208.799,410.134 208.733,409.4 208.599,408.3 C208.466,407.333 208.299,406.116 208.099,404.651 C207.332,404.717 206.533,404.751 205.7,404.751 C204.7,404.751 203.766,404.701 202.9,404.601 C202.933,404.768 202.95,405.001 202.95,405.301 C200.15,408.268 198.4,409.751 197.7,409.751 C196.634,409.751 195.467,409.051 194.2,407.651 C192.933,406.217 191.933,405.501 191.2,405.501 C190.8,405.501 190.033,406.135 188.9,407.401 C187.766,408.634 186.783,409.251 185.95,409.251 C185.217,409.251 184.717,408.968 184.45,408.401 C184.183,407.8 183.8,407.501 183.3,407.501 C182,407.501 180.717,407.651 179.45,407.951 C178.15,408.218 176.816,408.35 175.45,408.35 L172.25,408.5 C171.45,409.033 170.767,409.467 170.2,409.8 C169.134,410.434 168.384,410.75 167.95,410.75 C167.55,410.75 167.099,410.55 166.599,410.15 C166.133,409.716 165.683,409.5 165.249,409.5 C164.383,409.5 163.633,410.05 162.999,411.15 C162.365,412.216 161.683,412.75 160.949,412.75 L159.049,412.75 C158.282,412.217 155.599,411.3 150.999,410 C150.266,409.8 149.532,409.7 148.799,409.7 C148.032,409.733 147.416,409.75 146.949,409.75 C146.415,409.75 145.966,409.717 145.599,409.65 L145.199,409.5 C145.032,409.333 144.949,408.833 144.949,408 C144.949,406.5 146.032,405.75 148.199,405.75 C150.132,405.75 151.216,405.616 151.449,405.35 C151.616,405.35 153.782,405.984 157.949,407.25 C158.348,407.35 158.848,407.616 159.449,408.05 C159.982,408.417 160.332,408.6 160.499,408.6 C160.633,408.6 161.365,408.217 162.699,407.451 C164.032,406.651 164.949,406.251 165.449,406.251 C165.883,406.251 166.332,406.435 166.799,406.801 C167.266,407.168 167.699,407.351 168.099,407.351 C168.9,407.351 169.832,407.152 170.9,406.751 C171.933,406.317 174.116,406.101 177.45,406.101 C177.884,406.101 178.849,405.801 180.349,405.202 C181.816,404.568 182.849,404.252 183.45,404.252 C183.884,404.252 184.349,404.419 184.849,404.752 C185.349,405.085 185.799,405.252 186.2,405.252 L188.599,403.752 C190.166,402.752 191.283,402.252 191.95,402.252 C193.083,402.552 194.099,403.169 195,404.102 C195.467,404.602 196.134,405.319 197,406.252 C197.7,405.686 198.384,405.052 199.05,404.352 C199.317,404.153 199.634,404.002 200,403.903 C198.366,403.269 197.1,402.336 196.2,401.102 C195.366,399.936 194.95,398.619 194.95,397.153 C194.95,396.852 195.05,396.386 195.25,395.753 L194.95,395.753 C194.55,395.753 193.233,395.553 191,395.153 C188.8,394.719 187.483,394.503 187.05,394.503 C184.651,394.503 182.55,395.053 180.75,396.153 C178.95,397.219 177.434,397.753 176.2,397.753 C175.8,397.753 174.75,397.553 173.05,397.153 C171.35,396.719 170.283,396.503 169.85,396.503 C169.451,396.503 168.384,396.72 166.651,397.153 C164.951,397.552 163.884,397.753 163.451,397.753 C162.651,397.753 161.867,397.47 161.1,396.903 C160.3,396.302 159.617,396.003 159.05,396.003 C158.25,396.003 157.384,396.303 156.45,396.903 C155.483,397.469 154.817,397.753 154.45,397.753 C146.983,397.753 141.8,397.003 138.9,395.503 C137.667,394.869 136.983,394.536 136.85,394.503 C136.25,394.403 135.283,394.653 133.95,395.253 C133.183,394.553 132.783,394.187 132.75,394.153 C132.55,393.953 132.45,393.736 132.45,393.503 C132.45,392.036 132.883,391.187 133.75,390.953 C134.417,390.786 135.733,390.97 137.7,391.503 C144.333,393.336 149.75,394.253 153.95,394.253 C154.783,394.253 155.583,394.003 156.35,393.503 C157.083,393.003 158.116,392.753 159.45,392.753 C160.417,392.753 161.366,393.02 162.3,393.553 C162.8,393.82 163.234,394.086 163.6,394.353 C164.034,394.353 165.134,394.17 166.901,393.803 C168.701,393.437 169.8,393.253 170.201,393.253 C170.635,393.253 171.651,393.47 173.251,393.903 C174.885,394.302 175.901,394.503 176.301,394.503 C177.068,394.503 178.551,393.97 180.751,392.903 C182.951,391.802 185.018,391.253 186.951,391.253 C190.918,391.253 193.767,391.77 195.501,392.803 C195.801,392.97 196.051,393.137 196.251,393.303 C196.651,392.336 197.168,391.22 197.801,389.953 C199.701,386.286 200.668,384.42 200.701,384.352 C197.334,384.585 195.051,384.153 193.85,383.052 L193.701,383.502 C193.635,383.735 193.551,383.902 193.451,384.002 C193.317,384.169 192.984,384.252 192.451,384.252 C192.317,384.252 191.418,383.769 189.751,382.802 C188.051,381.835 187.117,381.352 186.951,381.352 C186.184,381.352 183.635,382.169 179.301,383.802 C175.001,385.436 172.801,386.252 172.701,386.252 C172.334,386.252 171.567,385.919 170.401,385.252 C169.201,384.585 168.401,384.252 168.001,384.252 C167.734,384.252 167.367,384.669 166.901,385.502 C166.434,386.335 165.867,386.752 165.201,386.752 C164.501,386.752 163.434,386.335 162.001,385.502 C160.635,384.669 159.951,384.118 159.951,383.852 C159.951,382.786 160.234,382.286 160.801,382.352 L164.751,382.852 C164.784,382.852 165.268,382.502 166.201,381.802 C167.168,381.102 167.834,380.752 168.201,380.752 C169.135,380.752 170.017,381.085 170.85,381.752 C171.717,382.419 172.451,382.752 173.05,382.752 C174.45,382.752 176.25,382.252 178.45,381.252 C179.65,380.686 181.467,379.852 183.9,378.752 C187.7,377.352 190.75,378.219 193.049,381.352 C192.983,380.852 192.949,380.236 192.949,379.502 C192.949,377.402 193.799,375.852 195.499,374.852 C196.766,374.119 199.149,373.335 202.649,372.502 L202.649,372.452 C201.182,371.351 200.449,370.702 200.449,370.502 C200.635,370.223 200.826,369.94 201.024,369.652 C200.94,369.41 200.899,369.176 200.899,368.952 C201.174,368.335 201.45,367.71 201.723,367.077 C201.626,366.485 201.535,365.91 201.449,365.351 C201.049,363.318 200.499,360.685 199.799,357.452 C198.799,352.818 198.133,349.252 197.799,346.752 L197.799,344.152 C197.733,339.518 197.566,336.035 197.299,333.702 C197.032,331.202 196.383,329.335 195.349,328.101 C194.582,327.202 193.633,326.635 192.499,326.402 C192.133,326.335 191.766,326.285 191.399,326.252 L147.599,326.102 C147.832,326.736 147.949,327.335 147.949,327.903 C147.949,329.069 147.116,331.403 145.449,334.903 C144.149,337.602 143.116,339.286 142.349,339.953 C143.282,341.986 143.816,343.753 143.949,345.253 L143.949,345.303 L143.949,345.603 L143.949,345.803 C143.949,348.603 142.449,350.42 139.449,351.253 L139.449,353.053 C139.449,354.353 139.116,355.453 138.449,356.353 L138.449,357.053 C138.449,357.887 138.165,358.953 137.599,360.253 C136.832,361.92 135.949,362.753 134.949,362.753 C134.249,362.753 133.382,361.92 132.349,360.253 C131.415,358.786 130.949,357.903 130.949,357.603 C130.949,357.137 130.966,356.887 130.999,356.853 C131.066,356.787 131.132,356.67 131.199,356.503 C130.799,355.869 130.432,354.887 130.099,353.553 C129.732,352.086 129.516,350.953 129.449,350.154 C128.015,349.82 126.032,348.603 123.499,346.504 L122.074,345.179 C121.651,345.462 121.176,345.604 120.649,345.604 C120.304,345.472 119.963,345.338 119.624,345.205 C119.408,345.233 119.183,345.25 118.95,345.25 Z M124.8,342.95 C125.467,343.55 126.533,344.316 128,345.25 C130.8,347.017 132.933,347.917 134.4,347.95 L134.45,347.95 C135.117,347.884 135.867,347.816 136.7,347.75 C136.766,347.717 136.817,347.7 136.85,347.7 C138.85,347.533 140.117,347.05 140.65,346.25 C140.85,345.95 140.95,345.616 140.95,345.25 C140.95,343.45 138.867,339.616 134.7,333.75 C132.633,330.85 131.083,328.517 130.05,326.75 C129.984,326.65 129.933,326.566 129.9,326.5 C129.167,325.233 128.717,324.267 128.55,323.6 C128.484,323.401 128.45,323.234 128.45,323.1 L128.45,323 C128.224,322.859 128.033,322.734 127.875,322.625 C127.721,323.068 127.546,323.526 127.35,324 C126.083,326.967 125.267,329.75 124.9,332.35 C124.8,333.05 124.65,335.517 124.45,339.75 C124.3,340.779 124.1,341.671 123.85,342.425 C124.154,342.587 124.47,342.762 124.8,342.95 Z M192.15,321.95 C191.65,317.15 189.683,314.667 186.25,314.5 L142.5,314.35 C142.4,315.884 142.283,317.517 142.15,319.25 C142.65,319.583 143.25,320.116 143.95,320.85 C144.75,321.684 145.433,322.484 146,323.25 L146.35,323.25 C146.983,323.15 147.3,323.066 147.3,323 L192.25,323 C192.217,322.634 192.184,322.283 192.15,321.95 Z M139.9,301.25 C139.867,300.35 139.8,299.634 139.7,299.1 C139.433,298.833 139.183,298.6 138.95,298.401 L138.95,298.251 C137.983,297.484 136.35,297.067 134.05,297.001 C134.117,298.401 134.183,300.034 134.25,301.901 C134.283,302.901 134.317,303.984 134.35,305.151 C134.383,307.117 134.416,309.284 134.45,311.651 L134.45,314.85 L134.45,318.401 L134.45,323.451 C134.416,324.385 134.4,325.468 134.4,326.701 L134.4,327.551 C134.767,328.018 135.133,328.501 135.5,329.001 C136.333,330.067 137.183,331.251 138.05,332.551 C138.15,332.685 138.25,332.834 138.35,333.001 L138.15,331.301 C138.084,331.201 138.017,331.135 137.95,331.101 L137.95,321.751 C138.45,319.484 138.85,317.168 139.15,314.801 C139.283,313.701 139.4,312.617 139.5,311.551 C139.633,309.985 139.75,308.418 139.85,306.851 C139.883,306.652 139.916,306.452 139.95,306.251 L139.95,303.301 L139.95,302.201 L139.95,301.85 L139.95,301.651 L139.95,301.251 L139.9,301.251 L139.9,301.25 Z M127.7,305.45 C127.133,307.183 126.633,309.283 126.2,311.75 L131.05,311.7 C130.984,309.4 130.95,308.134 130.95,307.9 L130.95,305.349 C129.983,305.384 128.9,305.417 127.7,305.45 Z M128.875,318.2 C128.91,318.408 128.935,318.625 128.95,318.849 C129.016,318.883 129.083,318.916 129.15,318.95 C129.35,318.884 129.584,318.816 129.85,318.75 C130.35,318.616 130.8,318.517 131.2,318.45 C131.166,317.15 131.133,315.967 131.1,314.9 L126.375,314.974 C128.058,315.89 128.9,316.715 128.9,317.45 C128.9,317.697 128.892,317.947 128.875,318.2 Z M141.85,323.4 C141.783,324.5 141.717,325.566 141.65,326.599 C141.55,327.7 141.467,328.766 141.4,329.799 C141.433,330.032 141.45,330.299 141.45,330.599 C141.45,331.299 141.533,332.349 141.7,333.749 C141.733,334.049 141.766,334.349 141.8,334.649 C143.9,330.182 144.95,327.899 144.95,327.798 C144.95,327.465 144.8,327.048 144.5,326.548 C144.067,325.882 143.383,325.048 142.45,324.048 C142.217,323.816 142.017,323.6 141.85,323.4 Z M152.6,369.15 C153.733,369.716 154.633,370 155.3,370 C156.5,370 157.651,369.75 158.75,369.25 C159.884,368.75 161.483,368.5 163.55,368.5 L173.55,368.5 C174.484,368.5 175.717,368.116 177.25,367.35 C177.884,367.151 179.05,367 180.75,366.901 C181.816,366.834 182.6,366.867 183.1,367.001 C182.583,367.162 182.242,367.246 182.076,367.251 C182.631,367.251 183.173,367.268 183.701,367.301 C183.732,367.332 183.749,367.391 183.751,367.476 L183.751,367.301 C185.385,367.301 186.468,367.367 187.001,367.501 C187.001,367.534 187.084,367.635 187.251,367.801 C187.385,367.968 187.451,368.301 187.451,368.801 C187.451,369.534 186.218,370.185 183.751,370.751 C181.018,371.418 177.584,371.751 173.451,371.751 C173.051,371.751 172.151,371.551 170.751,371.151 C169.385,370.717 168.484,370.501 168.051,370.501 L160.801,371.251 C160.168,371.251 159.268,371.584 158.101,372.251 C156.934,372.918 156.135,373.251 155.702,373.251 C154.602,373.251 153.319,372.935 151.852,372.301 C150.652,371.668 150.019,371.351 149.952,371.351 C147.619,371.351 145.052,371.834 142.252,372.801 C139.452,373.768 137.352,374.251 135.952,374.251 C132.685,374.251 130.535,374.001 129.502,373.501 C128.802,373.168 128.452,372.534 128.452,371.601 C128.452,371.135 128.469,370.885 128.502,370.851 C128.569,370.785 128.635,370.668 128.702,370.501 C129.202,370.401 130.435,370.451 132.402,370.651 C134.635,370.884 135.852,371.001 136.052,371.001 C136.785,371.001 138.819,370.551 142.152,369.651 C145.485,368.717 148.002,368.251 149.702,368.251 C150.467,368.25 151.433,368.55 152.6,369.15 Z M155.45,359.5 C155.45,356.634 157.45,355.717 161.45,356.75 C162.616,357.05 164.566,357.616 167.3,358.45 C169.8,359.15 171.901,359.5 173.6,359.5 C174.701,359.5 175.734,359.134 176.701,358.4 C177.635,357.633 178.718,357.25 179.951,357.25 C184.317,357.25 186.984,358.2 187.951,360.1 C187.817,360.867 187.651,361.317 187.451,361.451 C187.184,361.651 186.434,361.751 185.201,361.751 C184.001,361.751 183.067,361.518 182.401,361.051 C181.767,360.584 181.384,360.351 181.251,360.351 C179.117,360.351 177.584,360.751 176.651,361.551 C175.751,362.351 174.85,362.751 173.951,362.751 C172.718,362.751 171.117,362.301 169.151,361.401 C167.217,360.467 164.517,360.001 161.05,360.001 C160.417,360.001 159.05,360.418 156.95,361.251 C156.15,360.584 155.733,360.218 155.7,360.151 C155.533,359.983 155.45,359.767 155.45,359.5 Z M136.45,351.7 C135.983,351.733 135.483,351.75 134.95,351.75 C133.85,351.75 133,351.517 132.4,351.05 C132.7,351.917 132.967,352.901 133.2,354 L136.45,354 L136.45,351.7 Z M134.95,358.35 C135.016,357.951 135.1,357.583 135.2,357.25 L134.35,357.25 C134.45,357.517 134.567,357.884 134.7,358.35 L134.95,358.35 Z" id="Shape" fill="#000000" fill-rule="nonzero"></path>
            <path d="M206.45,335.65 C207.516,340.616 208.217,344.167 208.55,346.299 C208.572,346.431 208.755,347.464 209.1,349.4 C207.422,353.651 205.747,357.752 204.076,361.7 C203.722,359.798 203.298,357.665 202.801,355.3 C201.601,349.366 200.885,345.767 200.652,344.5 C200.385,342.9 200.368,340.833 200.601,338.3 C200.868,335.434 200.968,333.55 200.902,332.651 C200.669,329.451 198.902,326.8 195.601,324.701 C195.768,322.867 195.818,321.6 195.751,320.901 C195.451,316.767 192.584,313.55 187.151,311.251 L142.651,311.251 C142.784,308.885 142.868,306.751 142.901,304.851 L152.951,304.702 L154.001,304.302 L198.051,304.452 C201.485,304.618 203.451,307.101 203.951,311.902 C204.251,314.635 204.418,318.985 204.451,324.952 C204.783,327.45 205.45,331.017 206.45,335.65 Z M129.2,86.85 C129.2,83.55 128.2,80.95 126.2,79.05 C124.4,77.417 122.2,76.617 119.6,76.65 C117,76.683 114.783,77.517 112.95,79.15 C110.95,80.95 109.95,83.317 109.95,86.25 C109.95,86.417 109.967,86.6 110,86.8 C109.8,86.5 109.617,86.183 109.45,85.85 C108.25,83.483 107.65,80.9 107.65,78.1 C107.65,74.666 108.967,71.733 111.6,69.3 C114.067,67.033 116.983,65.783 120.35,65.55 C123.85,65.283 126.767,66.25 129.1,68.45 C131.733,70.983 133.05,74.733 133.05,79.7 C133.05,82.166 132.55,84.3 131.55,86.1 C130.85,87.367 129.95,88.416 128.85,89.25 C129.083,88.45 129.2,87.65 129.2,86.85 Z M189.4,88.6 C188.933,88.3 188.7,87.95 188.7,87.55 C188.7,85.65 189.433,85.017 190.9,85.65 C191.633,85.983 192.366,86.517 193.099,87.25 C193.033,87.517 192.9,87.8 192.7,88.1 C192.3,88.7 191.816,89 191.25,89 C190.483,89 189.866,88.867 189.4,88.6 Z M202.2,66.6 C203.233,68.133 204.167,69.517 205,70.75 C206.1,73.183 206.65,76.05 206.65,79.35 C206.683,81.583 206.099,83.666 204.9,85.6 C204.133,86.833 203.183,87.867 202.049,88.7 C202.15,88.133 202.199,87.367 202.199,86.4 C202.199,83 201.032,80.334 198.699,78.4 C196.598,76.667 194.015,75.8 190.949,75.8 C187.916,75.767 185.332,76.55 183.199,78.15 C180.865,79.917 179.699,82.25 179.699,85.15 L179.699,85.4 C177.999,82.9 177.149,80.35 177.149,77.75 C177.149,73.15 178.682,69.4 181.749,66.5 C184.582,63.867 187.966,62.517 191.899,62.45 C195.932,62.383 199.315,63.7 202.048,66.4 C202.116,66.467 202.167,66.533 202.2,66.6 Z M118.2,86.2 L120.2,86.25 C120.5,86.583 120.916,86.933 121.45,87.3 C121.783,87.533 121.95,87.8 121.95,88.1 C121.95,88.4 121.867,88.683 121.7,88.95 C121.5,89.25 121.2,89.467 120.8,89.6 C120.5,89.7 120.15,89.75 119.75,89.75 C119.35,89.75 119.017,89.7 118.75,89.6 C118.417,89.5 118.15,89.333 117.95,89.1 C117.617,88.733 117.45,88.317 117.45,87.85 C117.45,87.483 117.467,87.25 117.5,87.15 C117.6,86.783 117.833,86.467 118.2,86.2 Z M123.4,183.2 C125.1,182.967 126.467,182.766 127.5,182.6 C128,183.1 128.733,183.683 129.7,184.35 C131.467,185.65 133.217,186.5 134.95,186.9 C134.883,186.9 134.833,186.917 134.8,186.95 C134.067,188.15 133.033,189.967 131.7,192.4 C130.151,195.32 129.193,197.454 128.825,198.8 C126.816,196.198 125.024,192.648 123.45,188.15 C122.814,186.322 122.114,184.78 121.35,183.525 C121.979,183.424 122.663,183.316 123.4,183.2 Z M158.15,205.1 C158.183,205.067 158.216,205.05 158.25,205.05 L158.85,205.05 C159.083,205.05 159.384,205.067 159.75,205.1 C159.816,205.634 159.917,206.317 160.05,207.151 C160.384,209.284 160.55,210.55 160.55,210.951 C160.55,211.328 160.484,212.703 160.35,215.076 C158.064,215.926 155.814,216.35 153.6,216.35 C153.266,216.35 152.915,216.326 152.55,216.276 L152.55,205.1 L158.15,205.1 Z M174.7,195.9 C172.2,193.334 170.683,191.65 170.15,190.85 C173.783,189.983 176.383,189.217 177.95,188.55 C179.917,187.683 180.983,186.75 181.15,185.75 C183.563,185.965 185.729,186.174 187.65,186.375 C186.896,187.594 186.113,188.853 185.299,190.15 C182.133,195.217 179.916,198.55 178.65,200.15 C176.45,203.15 173.833,205.95 170.799,208.55 C168.305,210.724 165.855,212.441 163.449,213.7 C163.515,212.322 163.549,211.488 163.549,211.2 C163.549,210.366 163.016,208.349 161.949,205.15 C162.682,205.15 163.166,205.116 163.399,205.049 C163.532,205.016 163.632,204.949 163.699,204.849 C172.332,204.249 176.649,202.832 176.649,200.599 C176.65,198.8 176,197.233 174.7,195.9 Z M176.65,184.9 C176.683,185 176.716,185.067 176.75,185.1 C176.816,185.2 176.85,185.283 176.85,185.35 C176.951,185.35 177.05,185.367 177.151,185.4 C174.684,186.533 171.668,187.717 168.1,188.95 C167.467,189.183 167.151,189.817 167.151,190.85 C167.151,192.283 167.884,193.633 169.35,194.9 C171.217,196.533 172.484,198.183 173.151,199.85 C169.85,200.283 165.584,200.717 160.35,201.15 L160.3,201.15 C159.866,201.25 159.55,201.299 159.35,201.299 C159.25,201.299 159.184,201.282 159.151,201.249 C158.584,201.282 158.017,201.332 157.451,201.399 C158.951,199.465 161.367,195.982 164.701,190.949 C166.968,187.482 168.751,184.699 170.051,182.599 C170.084,182.566 170.117,182.549 170.152,182.549 C170.252,182.382 170.368,182.182 170.502,181.949 C171.068,180.982 171.519,180.499 171.852,180.499 C171.953,180.499 172.302,180.866 172.903,181.599 C173.036,181.699 173.17,181.816 173.302,181.949 C174.934,183.383 176.05,184.367 176.65,184.9 Z M139.45,185.3 C139.483,185.167 139.5,185.084 139.5,185.05 C139.5,184.65 138.9,184.2 137.7,183.7 C137,183.4 136.5,183.266 136.2,183.3 C136,183.234 135.783,183.167 135.55,183.1 C133.117,182.367 131.617,181.717 131.05,181.15 C131.95,180.75 134.117,179.817 137.55,178.35 C138.283,177.983 138.933,177.617 139.5,177.25 C139.633,178.317 141.017,180.65 143.65,184.25 C144.483,185.883 145.483,187.8 146.65,190 C149.05,194.567 151.017,197.95 152.55,200.15 C152.183,200.117 151.8,200.1 151.4,200.1 C143,199.833 136.584,199.433 132.15,198.9 C132.683,197.567 134.133,194.85 136.5,190.75 C138.067,187.983 139.05,186.167 139.45,185.3 Z M149.55,205.6 L149.55,215.375 C146.585,214.135 142.918,211.693 138.55,208.05 C135.967,205.901 133.867,204.059 132.25,202.526 C134.36,203.252 137.21,203.726 140.8,203.951 C141.2,204.051 141.65,204.135 142.15,204.201 C143.017,204.334 144.4,204.534 146.3,204.801 C146.7,204.902 147.15,205.001 147.65,205.101 L148.85,205.101 C148.983,205.101 149.117,205.118 149.25,205.152 L149.3,205.152 C149.333,205.283 149.417,205.434 149.55,205.6 Z M118.95,345.25 C119.182,345.25 119.408,345.233 119.625,345.2 C119.964,345.334 120.305,345.468 120.65,345.599 C121.177,345.599 121.652,345.457 122.075,345.174 L123.5,346.499 C126.033,348.599 128.017,349.815 129.45,350.149 C129.516,350.949 129.733,352.082 130.1,353.548 C130.433,354.882 130.8,355.864 131.2,356.498 C131.133,356.665 131.067,356.781 131,356.848 C130.967,356.882 130.95,357.132 130.95,357.598 C130.95,357.899 131.416,358.782 132.35,360.248 C133.383,361.915 134.25,362.748 134.95,362.748 C135.95,362.748 136.833,361.915 137.6,360.248 C138.166,358.948 138.45,357.882 138.45,357.048 L138.45,356.348 C139.117,355.449 139.45,354.348 139.45,353.048 L139.45,351.248 C142.45,350.415 143.95,348.598 143.95,345.798 L143.95,345.598 L143.95,345.298 L143.95,345.248 C143.817,343.748 143.283,341.981 142.35,339.948 C143.117,339.281 144.15,337.597 145.45,334.898 C147.117,331.398 147.95,329.064 147.95,327.898 C147.95,327.331 147.833,326.731 147.6,326.097 L191.4,326.247 C191.766,326.28 192.133,326.33 192.5,326.397 C193.634,326.63 194.583,327.197 195.35,328.096 C196.384,329.329 197.034,331.197 197.3,333.697 C197.567,336.03 197.734,339.513 197.8,344.147 L197.8,346.747 C198.134,349.247 198.8,352.813 199.8,357.447 C200.5,360.68 201.05,363.313 201.45,365.346 C201.536,365.905 201.628,366.48 201.724,367.072 C201.451,367.705 201.175,368.33 200.9,368.947 C200.9,369.172 200.941,369.405 201.025,369.647 C200.827,369.934 200.635,370.217 200.45,370.497 C200.45,370.697 201.183,371.347 202.65,372.447 L202.65,372.497 C199.15,373.33 196.766,374.113 195.5,374.847 C193.8,375.847 192.95,377.398 192.95,379.497 C192.95,380.23 192.983,380.847 193.05,381.347 C190.75,378.214 187.7,377.347 183.901,378.747 C181.467,379.847 179.651,380.681 178.451,381.247 C176.251,382.247 174.451,382.747 173.051,382.747 C172.451,382.747 171.718,382.414 170.851,381.747 C170.018,381.08 169.135,380.747 168.202,380.747 C167.835,380.747 167.169,381.097 166.202,381.797 C165.268,382.497 164.785,382.847 164.752,382.847 L160.802,382.347 C160.236,382.281 159.952,382.781 159.952,383.847 C159.952,384.114 160.636,384.664 162.002,385.497 C163.436,386.33 164.502,386.747 165.202,386.747 C165.868,386.747 166.435,386.33 166.902,385.497 C167.368,384.664 167.735,384.247 168.002,384.247 C168.402,384.247 169.202,384.58 170.402,385.247 C171.568,385.914 172.335,386.247 172.702,386.247 C172.802,386.247 175.002,385.431 179.302,383.797 C183.636,382.164 186.186,381.347 186.952,381.347 C187.118,381.347 188.052,381.83 189.752,382.797 C191.419,383.764 192.318,384.247 192.452,384.247 C192.985,384.247 193.318,384.164 193.452,383.997 C193.552,383.897 193.636,383.73 193.702,383.497 L193.851,383.047 C195.051,384.148 197.334,384.58 200.702,384.347 C200.669,384.414 199.702,386.281 197.802,389.948 C197.169,391.215 196.653,392.331 196.252,393.298 C196.052,393.132 195.802,392.965 195.502,392.798 C193.769,391.765 190.919,391.248 186.952,391.248 C185.018,391.248 182.952,391.798 180.752,392.898 C178.552,393.964 177.068,394.498 176.302,394.498 C175.903,394.498 174.886,394.298 173.252,393.898 C171.652,393.464 170.636,393.248 170.202,393.248 C169.802,393.248 168.702,393.432 166.902,393.798 C165.135,394.165 164.035,394.348 163.601,394.348 C163.235,394.081 162.801,393.815 162.301,393.548 C161.367,393.015 160.418,392.748 159.451,392.748 C158.117,392.748 157.084,392.998 156.351,393.498 C155.584,393.998 154.784,394.248 153.951,394.248 C149.751,394.248 144.334,393.331 137.701,391.498 C135.734,390.965 134.417,390.781 133.751,390.948 C132.884,391.181 132.451,392.031 132.451,393.498 C132.451,393.731 132.551,393.948 132.751,394.148 C132.784,394.181 133.184,394.547 133.951,395.248 C135.284,394.648 136.251,394.398 136.851,394.498 C136.984,394.531 137.667,394.864 138.901,395.498 C141.801,396.998 146.984,397.748 154.451,397.748 C154.818,397.748 155.484,397.465 156.451,396.898 C157.385,396.297 158.251,395.998 159.051,395.998 C159.617,395.998 160.301,396.298 161.101,396.898 C161.868,397.464 162.652,397.748 163.452,397.748 C163.886,397.748 164.952,397.548 166.652,397.148 C168.385,396.714 169.452,396.498 169.851,396.498 C170.285,396.498 171.351,396.715 173.051,397.148 C174.751,397.547 175.801,397.748 176.201,397.748 C177.434,397.748 178.951,397.215 180.751,396.148 C182.551,395.047 184.651,394.498 187.051,394.498 C187.485,394.498 188.801,394.715 191.001,395.148 C193.234,395.547 194.551,395.748 194.951,395.748 L195.251,395.748 C195.051,396.382 194.951,396.848 194.951,397.148 C194.951,398.614 195.367,399.931 196.201,401.097 C197.1,402.33 198.367,403.264 200.001,403.898 C199.635,403.998 199.317,404.148 199.051,404.347 C198.385,405.047 197.701,405.681 197.001,406.247 C196.135,405.313 195.468,404.597 195.001,404.097 C194.101,403.164 193.084,402.547 191.951,402.247 C191.284,402.247 190.168,402.747 188.6,403.747 L186.201,405.247 C185.801,405.247 185.35,405.08 184.85,404.747 C184.35,404.414 183.884,404.247 183.451,404.247 C182.85,404.247 181.817,404.563 180.35,405.197 C178.85,405.797 177.884,406.096 177.451,406.096 C174.117,406.096 171.934,406.313 170.901,406.746 C169.834,407.146 168.901,407.346 168.1,407.346 C167.701,407.346 167.267,407.163 166.8,406.796 C166.333,406.43 165.884,406.246 165.45,406.246 C164.95,406.246 164.033,406.646 162.7,407.446 C161.366,408.213 160.634,408.595 160.5,408.595 C160.333,408.595 159.983,408.412 159.45,408.045 C158.849,407.611 158.349,407.345 157.95,407.245 C153.783,405.978 151.617,405.345 151.45,405.345 C151.217,405.612 150.133,405.745 148.2,405.745 C146.033,405.745 144.95,406.495 144.95,407.995 C144.95,408.828 145.033,409.328 145.2,409.495 L145.6,409.645 C145.967,409.711 146.416,409.745 146.95,409.745 C147.416,409.745 148.033,409.728 148.8,409.695 C149.533,409.695 150.267,409.795 151,409.995 C155.6,411.295 158.283,412.212 159.05,412.745 L160.95,412.745 C161.683,412.745 162.366,412.212 163,411.145 C163.634,410.044 164.384,409.495 165.25,409.495 C165.684,409.495 166.134,409.712 166.6,410.145 C167.1,410.544 167.55,410.745 167.951,410.745 C168.385,410.745 169.135,410.429 170.201,409.795 C170.767,409.462 171.451,409.028 172.251,408.495 L175.451,408.345 C176.817,408.345 178.151,408.212 179.451,407.946 C180.718,407.646 182.001,407.496 183.301,407.496 C183.801,407.496 184.185,407.796 184.451,408.396 C184.718,408.962 185.218,409.246 185.951,409.246 C186.784,409.246 187.767,408.63 188.901,407.396 C190.034,406.129 190.8,405.496 191.201,405.496 C191.934,405.496 192.934,406.213 194.201,407.646 C195.468,409.045 196.635,409.746 197.701,409.746 C198.401,409.746 200.151,408.263 202.951,405.296 C202.951,404.996 202.934,404.763 202.901,404.596 C203.767,404.697 204.701,404.746 205.701,404.746 C206.534,404.746 207.334,404.713 208.1,404.646 C208.3,406.112 208.467,407.329 208.6,408.295 C208.734,409.396 208.8,410.129 208.8,410.495 C208.8,411.795 203.167,413.379 191.901,415.245 C181.767,416.912 174.951,417.745 171.451,417.745 C154.851,417.745 143.468,416.662 137.301,414.495 L120.101,414.245 C119.167,413.745 118.468,410.929 118.001,405.795 C117.901,404.795 117.818,403.712 117.751,402.545 C117.451,397.778 117.301,391.595 117.301,383.995 C117.301,369.295 117.401,359.278 117.601,353.945 C117.734,350.811 117.901,347.912 118.101,345.245 C118.367,345.25 118.65,345.25 118.95,345.25 Z M112.45,343.25 C112.95,343.917 113.733,344.417 114.8,344.75 C114.834,347.384 114.933,350.25 115.1,353.35 L114.3,384.3 C114.3,393.767 114.4,399.734 114.6,402.2 C112.967,400.099 112.15,390.116 112.15,372.25 C112.15,358.45 112.25,348.783 112.45,343.25 Z M93.25,250.1 C93.456,249.737 93.656,249.378 93.85,249.026 L93.75,249.55 L93.5,249.901 C93.433,249.98 93.35,250.047 93.25,250.1 Z M192.15,321.95 C192.183,322.283 192.216,322.634 192.25,323 L147.3,323 C147.3,323.066 146.984,323.15 146.35,323.25 L146,323.25 C145.433,322.483 144.75,321.684 143.95,320.85 C143.25,320.117 142.65,319.583 142.15,319.25 C142.283,317.517 142.4,315.884 142.5,314.35 L186.25,314.5 C189.684,314.667 191.65,317.15 192.15,321.95 Z M128.875,318.2 C128.892,317.947 128.9,317.697 128.9,317.45 C128.9,316.716 128.058,315.89 126.375,314.974 L131.1,314.9 C131.133,315.966 131.166,317.15 131.2,318.45 C130.8,318.516 130.35,318.616 129.85,318.75 C129.583,318.816 129.35,318.884 129.15,318.95 C129.084,318.917 129.017,318.884 128.95,318.849 C128.935,318.625 128.91,318.408 128.875,318.2 Z M127.7,305.45 C128.9,305.417 129.983,305.384 130.95,305.349 L130.95,307.9 C130.95,308.133 130.983,309.4 131.05,311.7 L126.2,311.75 C126.633,309.283 127.133,307.184 127.7,305.45 Z M139.9,301.25 L139.95,301.25 L139.95,301.65 L139.95,301.849 C139.939,301.628 139.922,301.428 139.9,301.25 Z M155.45,359.5 C155.45,359.767 155.533,359.983 155.7,360.15 C155.733,360.216 156.15,360.583 156.95,361.25 C159.05,360.417 160.417,360 161.05,360 C164.517,360 167.217,360.467 169.151,361.4 C171.117,362.299 172.717,362.75 173.951,362.75 C174.85,362.75 175.751,362.35 176.651,361.55 C177.584,360.75 179.117,360.35 181.251,360.35 C181.385,360.35 181.768,360.583 182.401,361.05 C183.067,361.517 184.001,361.75 185.201,361.75 C186.434,361.75 187.184,361.65 187.451,361.45 C187.651,361.316 187.817,360.866 187.951,360.099 C186.984,358.2 184.317,357.249 179.951,357.249 C178.718,357.249 177.635,357.633 176.701,358.399 C175.734,359.132 174.701,359.499 173.6,359.499 C171.901,359.499 169.8,359.149 167.3,358.449 C164.567,357.615 162.616,357.049 161.45,356.749 C157.45,355.717 155.45,356.634 155.45,359.5 Z M152.6,369.15 C151.433,368.549 150.467,368.25 149.7,368.25 C148,368.25 145.483,368.717 142.15,369.65 C138.817,370.549 136.783,371 136.05,371 C135.85,371 134.633,370.884 132.4,370.65 C130.433,370.45 129.2,370.4 128.7,370.5 C128.633,370.667 128.567,370.783 128.5,370.85 C128.467,370.884 128.45,371.134 128.45,371.6 C128.45,372.534 128.8,373.167 129.5,373.5 C130.533,374 132.683,374.25 135.95,374.25 C137.35,374.25 139.45,373.767 142.25,372.8 C145.05,371.833 147.617,371.35 149.95,371.35 C150.016,371.35 150.65,371.667 151.85,372.3 C153.317,372.934 154.6,373.25 155.7,373.25 C156.133,373.25 156.933,372.917 158.099,372.25 C159.266,371.583 160.166,371.25 160.799,371.25 L168.049,370.5 C168.483,370.5 169.383,370.717 170.749,371.15 C172.149,371.549 173.049,371.75 173.449,371.75 C177.582,371.75 181.015,371.417 183.749,370.75 C186.216,370.184 187.449,369.533 187.449,368.8 C187.449,368.3 187.383,367.967 187.249,367.8 C187.082,367.634 186.999,367.533 186.999,367.5 C186.466,367.366 185.383,367.3 183.749,367.3 L183.749,367.475 C183.747,367.39 183.73,367.331 183.699,367.3 C183.171,367.267 182.629,367.25 182.074,367.25 C182.24,367.245 182.582,367.161 183.098,367 C182.598,366.866 181.815,366.833 180.748,366.9 C179.048,367 177.882,367.15 177.248,367.349 C175.715,368.116 174.481,368.499 173.548,368.499 L163.548,368.499 C161.482,368.499 159.882,368.749 158.748,369.249 C157.648,369.749 156.498,369.999 155.298,369.999 C154.633,370 153.733,369.717 152.6,369.15 Z M134.95,358.35 L134.7,358.35 C134.567,357.884 134.45,357.517 134.35,357.25 L135.2,357.25 C135.1,357.583 135.017,357.95 134.95,358.35 Z" id="Shape" fill="#FFFFFF"></path>
            <path d="M217.75,382.45 C218.384,382.816 219,383.183 219.6,383.55 C219.701,384.184 219.85,385.083 220.05,386.25 C220.35,388.717 220.283,390.884 219.85,392.75 C218.817,397.25 215.75,400.017 210.651,401.05 C209.684,401.217 208.651,401.35 207.55,401.45 C206.884,401.483 206.184,401.5 205.45,401.5 C202.717,401.5 200.717,401.05 199.45,400.15 C198.45,399.417 197.95,398.466 197.95,397.299 C197.95,396.599 199.2,393.999 201.7,389.499 C202.7,387.732 203.7,385.982 204.7,384.249 C204.933,383.782 205.183,383.315 205.45,382.849 C205.45,382.516 205.316,382.15 205.05,381.749 C204.817,381.383 204.517,381.133 204.151,380.999 C203.817,380.832 203.418,380.749 202.951,380.749 C198.784,380.916 196.484,380.999 196.051,380.999 C195.985,380.732 195.951,380.315 195.951,379.749 C195.951,378.383 197.867,377.183 201.701,376.149 C202.234,376.015 202.734,375.865 203.201,375.699 C204.267,375.365 205.135,375.032 205.801,374.699 C205.935,374.765 206.068,374.865 206.201,374.999 C207.934,376.166 210.051,377.565 212.551,379.199 C213.152,379.598 213.751,379.982 214.351,380.348 C215.517,381.116 216.65,381.816 217.75,382.45 Z M148.35,70.15 C149.05,69.283 149.833,68.283 150.7,67.15 C150.867,67.417 151.283,68.517 151.95,70.45 C152.817,72.217 153.967,73.1 155.4,73.1 C157.3,73.1 159.483,71.45 161.95,68.15 C162.316,68.483 163.099,69.517 164.3,71.25 C165.6,72.817 166.884,73.6 168.151,73.6 C169.35,73.6 170.184,72.983 170.651,71.75 C171.251,70.183 171.584,69.383 171.651,69.35 C171.751,69.416 172.168,69.983 172.901,71.05 C173.334,71.717 173.967,72.067 174.8,72.1 C174.366,73.833 174.151,75.7 174.151,77.7 C174.151,80.7 174.984,83.666 176.651,86.6 C177.284,87.733 178.017,88.733 178.85,89.6 C181.917,92.933 186.267,94.6 191.901,94.6 C195.334,94.6 198.3,94.067 200.8,93 C200.833,93.433 200.884,94 200.95,94.7 L200.95,94.8 C200.65,96.033 200.433,97.383 200.3,98.85 C199.901,104.083 199.684,106.767 199.651,106.9 C199.85,108.834 199.434,111.65 198.401,115.35 C197.401,119.05 196.984,121.883 197.151,123.85 C196.384,127.683 195.434,133.867 194.3,142.4 C193.667,147.133 192.833,150.233 191.8,151.7 C190.567,153.467 188.083,154.55 184.35,154.95 C182.384,155.183 177.884,155.317 170.85,155.35 C170.717,155.317 170.583,155.283 170.451,155.25 L168.451,155.2 C168.385,155.2 168.317,155.183 168.251,155.15 C165.685,155.217 162.501,155.217 158.701,155.15 C149.468,155.05 140.534,154.45 131.901,153.35 C127.335,152.783 123.751,151.967 121.151,150.9 C120.085,150.433 118.835,149.167 117.401,147.1 C116.034,145.1 115.284,143.533 115.151,142.4 C114.051,133.733 113.301,127.383 112.901,123.35 C112.601,120.65 112.384,117.45 112.251,113.75 C112.118,109.517 112.001,106.317 111.901,104.15 C111.901,103.584 111.884,103.05 111.851,102.55 L111.951,96.85 C111.951,95.383 111.901,94.133 111.801,93.1 C113.934,94.433 116.518,95.1 119.551,95.1 C125.851,95.1 130.384,93.267 133.151,89.6 C133.451,89.233 133.718,88.833 133.951,88.4 C135.351,86.033 136.051,83.183 136.051,79.85 C136.051,77.317 135.768,75.05 135.201,73.05 C135.767,72.817 136.718,72.084 138.051,70.85 C139.751,69.25 140.701,68.416 140.901,68.35 C141.268,68.717 141.585,69.567 141.851,70.9 C142.318,72.033 143.334,72.6 144.901,72.6 C145.833,72.6 146.983,71.783 148.35,70.15 Z M156.4,98.9 C154.8,98.9 153.483,98.4 152.45,97.4 C151.383,96.4 150.367,95.883 149.4,95.85 C149.334,96.017 149.267,96.133 149.2,96.2 C149.166,96.233 149.15,96.483 149.15,96.95 C149.15,97.45 149.65,98.333 150.65,99.6 C151.983,101.267 153.483,102.1 155.15,102.1 C157.817,102.1 160.333,101.533 162.7,100.4 C165,99.3 166.15,98.2 166.15,97.1 C166.15,96.6 166.083,96.267 165.95,96.1 C165.783,95.967 165.7,95.883 165.7,95.85 C165.5,95.683 164.983,95.6 164.15,95.6 C163.417,95.6 162.5,96.15 161.4,97.25 C160.267,98.35 158.6,98.9 156.4,98.9 Z M118.05,109.35 C118.05,109.817 118.1,110.317 118.2,110.85 C118.367,111.95 118.7,112.95 119.2,113.85 C120.666,116.683 123.283,118.1 127.05,118.1 C133.383,118.1 136.55,115.05 136.55,108.95 C136.55,106.75 135.584,104.883 133.65,103.35 C131.883,101.916 129.767,101.117 127.3,100.95 C124.767,100.783 122.65,101.35 120.95,102.65 C119.017,104.183 118.05,106.417 118.05,109.35 Z M192.7,102.9 C191.266,101.933 189.55,101.45 187.55,101.45 C185.484,101.45 183.767,102 182.401,103.1 C180.834,104.367 180.05,106.15 180.05,108.45 C180.05,108.516 180.217,109.733 180.55,112.1 C181.583,114.433 183.833,115.6 187.3,115.6 C190.434,115.6 192.634,114.433 193.901,112.1 C194.668,110.7 195.05,108.983 195.05,106.95 C195.05,105.317 194.267,103.967 192.7,102.9 Z M143.15,167.1 C143.25,164.533 143.233,162.533 143.1,161.1 C142.967,159.666 142.517,158.65 141.75,158.05 C147.283,158.717 152.917,159.017 158.65,158.95 C161.917,158.916 164.716,158.817 167.049,158.65 C166.922,158.618 166.822,158.602 166.749,158.6 L167.349,158.6 C168.183,158.533 168.966,158.45 169.7,158.35 L169.7,158.6 L170.4,158.6 C169.833,160.133 169.417,161.8 169.15,163.6 C168.883,165.5 168.633,168.1 168.4,171.4 C168.233,174.033 168.15,175.85 168.15,176.85 L168.15,178.85 C166.95,180.517 165.433,182.916 163.599,186.05 C159.133,193.683 156.483,197.967 155.649,198.9 C152.549,193.1 150.149,188.733 148.449,185.8 C146.749,182.867 145.149,180.484 143.649,178.65 L143.649,178.45 C143.317,173.383 143.15,169.6 143.15,167.1 Z M182.3,119.5 C180.134,116.3 179.05,116.25 179.05,119.35 C179.05,119.883 179.184,120.367 179.45,120.8 C179.583,121.067 179.833,121.433 180.2,121.9 C177.433,124.567 174.266,127.017 170.7,129.25 C163.667,133.65 156.7,135.85 149.8,135.85 C145.1,135.85 141.984,135.4 140.45,134.5 C140.283,134.4 139.9,134.083 139.3,133.55 C138.967,133.25 138.55,133.1 138.05,133.1 C137.55,133.1 137.2,133.183 137,133.35 L136.7,133.6 L136.65,133.7 C136.584,133.833 136.55,134.166 136.55,134.7 C136.55,135.733 137.267,136.617 138.7,137.35 C140.9,138.517 144.6,139.1 149.8,139.1 C157.567,139.1 164.901,136.916 171.8,132.55 C175.401,130.317 178.866,127.683 182.2,124.65 L182.45,125.1 C182.55,125.367 182.5,126.133 182.3,127.4 C182.333,128.533 182.917,129.1 184.05,129.1 C184.55,129.1 184.917,128.983 185.151,128.75 L185.451,128.4 C185.517,127.7 185.551,126.883 185.551,125.95 C185.55,124.817 184.467,122.667 182.3,119.5 Z M124.8,342.95 C124.47,342.762 124.154,342.587 123.85,342.425 C124.1,341.671 124.3,340.779 124.45,339.75 C124.65,335.517 124.8,333.05 124.9,332.35 C125.267,329.75 126.084,326.967 127.35,324 C127.546,323.526 127.721,323.068 127.875,322.625 C128.033,322.734 128.225,322.859 128.45,323 L128.45,323.1 C128.45,323.234 128.483,323.401 128.55,323.6 C128.717,324.267 129.167,325.234 129.9,326.5 C129.933,326.566 129.983,326.65 130.05,326.75 C131.084,328.517 132.633,330.85 134.7,333.75 C138.867,339.616 140.95,343.45 140.95,345.25 C140.95,345.616 140.85,345.95 140.65,346.25 C140.117,347.05 138.85,347.533 136.85,347.7 C136.817,347.7 136.767,347.717 136.7,347.75 C135.867,347.816 135.117,347.884 134.45,347.95 L134.4,347.95 C132.933,347.917 130.8,347.016 128,345.25 C126.533,344.316 125.467,343.55 124.8,342.95 Z M141.85,323.4 C142.017,323.599 142.217,323.816 142.45,324.049 C143.383,325.049 144.067,325.883 144.5,326.549 C144.8,327.049 144.95,327.466 144.95,327.799 C144.95,327.9 143.9,330.183 141.8,334.65 C141.767,334.349 141.734,334.049 141.7,333.75 C141.533,332.35 141.45,331.3 141.45,330.6 C141.45,330.3 141.433,330.034 141.4,329.8 C141.467,328.767 141.55,327.7 141.65,326.6 C141.717,325.566 141.783,324.5 141.85,323.4 Z" id="Shape" fill="#FFD9AF"></path>
            <path d="M118.05,109.35 C118.05,106.416 119.017,104.183 120.95,102.65 C122.65,101.35 124.766,100.783 127.3,100.95 C129.767,101.117 131.883,101.916 133.65,103.35 C135.584,104.883 136.55,106.75 136.55,108.95 C136.55,115.05 133.383,118.1 127.05,118.1 C123.283,118.1 120.667,116.683 119.2,113.85 C118.7,112.95 118.367,111.95 118.2,110.85 C118.1,110.317 118.05,109.817 118.05,109.35 Z M192.7,102.9 C194.266,103.967 195.05,105.317 195.05,106.95 C195.05,108.983 194.667,110.7 193.901,112.1 C192.634,114.433 190.434,115.6 187.3,115.6 C183.833,115.6 181.583,114.433 180.55,112.1 C180.217,109.733 180.05,108.517 180.05,108.45 C180.05,106.15 180.833,104.367 182.401,103.1 C183.767,102 185.484,101.45 187.55,101.45 C189.55,101.45 191.267,101.933 192.7,102.9 Z" id="Shape" fill="#FFA78A"></path>
            <path d="M138.45,265.8 C139.317,265.8 139.983,267.833 140.45,271.901 C140.45,276.6 139.95,281.05 138.95,285.251 L138.95,293.751 C137.783,293.018 136.617,292.617 135.45,292.551 L135.45,291.501 L135.45,290.751 C135.383,288.851 135.133,286.617 134.7,284.051 C134.2,281.117 133.95,278.284 133.95,275.551 C133.717,273.851 133.717,272.201 133.95,270.601 C134.45,267.4 135.95,265.8 138.45,265.8 Z M139.9,301.25 C139.922,301.428 139.939,301.628 139.95,301.85 L139.95,302.201 L139.95,303.301 L139.95,306.251 C139.916,306.451 139.883,306.651 139.85,306.851 C139.75,308.418 139.633,309.985 139.5,311.551 C139.4,312.617 139.283,313.701 139.15,314.801 C138.85,317.168 138.45,319.485 137.95,321.751 L137.95,331.101 C138.016,331.135 138.083,331.202 138.15,331.301 L138.35,333.001 C138.25,332.834 138.15,332.685 138.05,332.551 C137.183,331.251 136.334,330.068 135.5,329.001 C135.133,328.501 134.767,328.018 134.4,327.551 L134.4,326.701 C134.4,325.468 134.417,324.385 134.45,323.451 L134.45,318.401 L134.45,314.85 L134.45,311.651 C134.416,309.284 134.383,307.117 134.35,305.151 C134.317,303.984 134.283,302.901 134.25,301.901 C134.183,300.034 134.117,298.401 134.05,297.001 C136.35,297.067 137.984,297.484 138.95,298.251 L138.95,298.401 C139.183,298.6 139.433,298.834 139.7,299.1 C139.8,299.634 139.867,300.35 139.9,301.25 Z M136.45,351.7 L136.45,354 L133.2,354 C132.967,352.9 132.7,351.917 132.4,351.05 C133,351.517 133.85,351.75 134.95,351.75 C135.483,351.75 135.983,351.733 136.45,351.7 Z" id="Shape" fill="#CCCCCC"></path>
            <path d="M213.3,192.85 C214.542,193.19 215.825,193.54 217.151,193.9 C220.384,195.433 223.217,197.667 225.651,200.6 C227.05,202.3 228.85,204.816 231.05,208.15 C233.651,211.683 235.75,216.533 237.35,222.7 C238.25,226.167 239.434,231.217 240.901,237.849 C242.3,242.716 245.3,252.299 249.901,266.599 C253.834,279.966 255.8,290.166 255.8,297.2 C255.8,305.4 251.401,322.55 242.6,348.65 C238.333,361.349 234.067,373.299 229.8,384.5 C228.795,383.751 227.762,383.001 226.7,382.25 C220.383,377.813 213.066,373.422 204.75,369.075 C204.631,369.017 204.514,368.959 204.4,368.9 C219.4,334.366 226.9,310.633 226.9,297.7 C226.9,297.409 226.891,297.067 226.875,296.675 C226.849,295.898 226.791,294.922 226.7,293.75 C226.645,292.863 226.57,291.863 226.474,290.75 C226.279,288.297 226.004,285.297 225.65,281.75 C225.455,279.852 225.263,278.102 225.075,276.5 C224.337,270.171 223.662,266.221 223.05,264.65 C219.783,255.75 215.967,248.283 211.6,242.25 C206.467,235.184 203.901,235.833 203.901,244.2 C203.901,249.033 204.484,256.033 205.651,265.2 C206.817,274.4 207.401,281.583 207.401,286.75 C207.401,286.95 207.367,287.7 207.3,289 L196.651,288.6 L177.401,289.1 C174.993,289.774 170.785,290.215 164.776,290.425 C163.825,290.459 162.825,290.484 161.776,290.5 C160.934,290.523 160.059,290.54 159.151,290.55 C157,290.527 155.083,290.501 153.401,290.475 C152.137,290.463 151.004,290.455 150.001,290.451 C146.789,290.418 144.922,290.401 144.401,290.401 L144.401,270.35 C144.001,266.384 142.934,263.734 141.201,262.401 C139.667,261.234 137.868,261.168 135.801,262.201 C133.801,263.201 132.085,264.885 130.651,267.251 C130.625,267.296 130.599,267.337 130.576,267.376 C129.126,269.84 128.401,272.364 128.401,274.951 C128.401,276.718 128.734,279.334 129.401,282.801 C129.739,284.443 130.005,285.86 130.201,287.051 C130.416,288.459 130.533,289.56 130.551,290.351 C117.884,289.584 109.751,289.418 106.151,289.851 L106.101,289.851 C106.134,289.618 106.167,289.368 106.201,289.101 L106.151,289.101 C105.352,289.101 104.768,288.368 104.401,286.902 C104.086,285.615 103.936,283.764 103.951,281.351 L104.401,273.601 C104.228,270.888 104.078,268.363 103.951,266.027 C103.664,260.7 103.497,256.325 103.451,252.902 C103.417,252.202 103.401,251.535 103.401,250.902 C103.401,249.502 103.068,245.902 102.401,240.101 C102.168,237.935 101.968,236.051 101.801,234.452 C101.534,231.719 101.401,229.768 101.401,228.601 C101.401,227.402 101.585,226.518 101.951,225.952 L101.951,225.851 C101.251,227.452 97.267,235.118 90.001,248.851 C89.543,249.771 89.101,250.67 88.676,251.551 L88.301,252.351 C85.674,257.725 83.608,262.309 82.101,266.101 C80.034,271.275 79.001,274.975 79.001,277.202 C79.001,279.435 80.884,282.902 84.651,287.601 C88.151,292.001 92.585,296.601 97.951,301.402 C110.718,312.935 119.834,318.502 125.301,318.101 C125.039,318.593 124.781,319.235 124.526,320.027 C124.219,321.015 123.919,322.241 123.626,323.702 C123.177,325.956 122.752,328.773 122.351,332.152 C121.584,338.485 120.851,341.652 120.151,341.652 C119.942,341.652 119.592,341.577 119.101,341.426 C118.253,341.176 116.978,340.701 115.276,340.001 C113.606,339.313 111.531,338.413 109.051,337.301 C101.985,334.101 96.551,331.284 92.751,328.851 C88.618,326.218 85.084,323.685 82.151,321.251 C79.318,318.885 76.118,315.834 72.551,312.101 C65.751,304.968 60.934,298.518 58.101,292.751 C57.932,292.399 57.765,292.05 57.601,291.701 L57.201,290.751 C55.068,285.642 54.001,280.142 54.001,274.251 C54.001,270.784 54.626,266.709 55.876,262.026 C56.849,258.409 58.191,254.434 59.901,250.1 C62.301,244.067 65.918,236.25 70.751,226.651 C74.751,218.55 79.868,210.6 86.101,202.8 C96.701,189.5 106.534,182.85 115.601,182.85 C116.667,182.85 117.634,182.967 118.501,183.2 L118.501,183.35 C118.501,183.53 118.509,183.721 118.526,183.925 C118.723,185.544 119.649,188.036 121.301,191.4 C123.368,195.633 125.884,199.7 128.851,203.6 C135.726,212.693 142.627,217.91 149.551,219.25 C150.551,219.45 151.551,219.567 152.551,219.6 L153.151,219.6 C155.457,219.6 157.798,219.201 160.176,218.401 C161.193,218.047 162.218,217.622 163.251,217.126 C168.523,214.572 173.957,210.064 179.551,203.601 C182.851,199.801 185.718,195.851 188.152,191.751 C189.399,189.672 190.291,188.006 190.827,186.751 C190.981,186.404 191.106,186.088 191.202,185.801 C191.881,186.25 192.839,186.724 194.077,187.226 C196.053,188.019 198.745,188.877 202.152,189.801 C205.411,190.699 209.128,191.715 213.3,192.85 Z M167.45,49.3 C176.483,46.167 181.917,44.317 183.75,43.75 C186.75,42.783 189.517,41.9 192.05,41.1 C192.017,41.567 192,42.067 192,42.6 C192,42.666 192.167,45.1 192.5,49.9 C192.733,52 193,53.633 193.3,54.8 C190.1,55.433 186.667,56.05 183,56.65 C174.566,58.084 168.7,58.8 165.4,58.8 C144.366,58.8 129.85,57.984 121.85,56.35 C119.75,55.916 118.017,55.383 116.65,54.75 C116.383,54.617 116.133,54.533 115.9,54.5 C115.733,54 115.433,53.217 115,52.15 C114.333,50.55 114,48.75 114,46.75 L114,43.2 C115.367,43.533 116.783,43.883 118.25,44.25 C142.383,50.417 154.633,53.5 155,53.5 C155.233,53.5 159.384,52.1 167.45,49.3 Z M179.7,28.8 C176.066,27.4 173.433,26.5 171.8,26.1 C163.067,24.8 157.3,24.017 154.5,23.75 C150.1,23.35 147.9,24 147.9,25.7 C147.9,26.2 147.95,26.5 148.05,26.6 C148.117,26.7 148.15,26.783 148.15,26.85 C163.67,26.737 176.569,29.487 186.85,35.1 C188.662,36.094 190.396,37.177 192.05,38.35 C188.75,39.483 185.017,40.8 180.85,42.3 C165.917,47.6 157.284,50.25 154.951,50.25 C152.751,50.25 142.051,47.85 122.851,43.05 C119.73,42.275 116.813,41.55 114.101,40.875 C109.682,39.779 105.816,38.82 102.501,38 C92.773,35.576 87.823,34.343 87.651,34.3 C87.984,34.133 88.484,33.967 89.151,33.8 C92.684,32.4 98.001,29.85 105.101,26.15 C114.401,21.317 120.251,18.317 122.651,17.15 C124.585,16.25 127.784,14.584 132.251,12.15 C136.351,10.017 139.601,8.633 142.001,8 C142.934,7.667 145.351,6.717 149.251,5.15 C152.818,3.783 154.868,3.2 155.401,3.4 C161.701,5.733 170.534,10.183 181.901,16.75 C197.067,25.55 206.184,30.733 209.251,32.3 C208.464,32.525 204.83,33.792 198.351,36.1 C197.15,36.532 195.85,36.999 194.452,37.5 C193.446,36.659 192.446,35.859 191.452,35.1 C190.43,34.324 189.413,33.591 188.402,32.9 C186.8,31.8 183.9,30.433 179.7,28.8 Z" id="Shape" fill="#2D2D2D"></path>
        </g>
    </g>
</svg>
