<?xml version="1.0" encoding="UTF-8"?>
<svg width="285px" height="351px" viewBox="0 0 285 351" version="1.1" xmlns="http://www.w3.org/2000/svg" xmlns:xlink="http://www.w3.org/1999/xlink">
    <!-- Generator: Sketch 43.2 (39069) - http://www.bohemiancoding.com/sketch -->
    <title>Group</title>
    <desc>Created with Sketch.</desc>
    <defs></defs>
    <g id="Page-1" stroke="none" stroke-width="1" fill="none" fill-rule="evenodd">
        <g id="Group">
            <path d="M211.75,350.3 C211.617,349.366 211.4,348.283 211.1,347.05 C211.067,346.85 211.017,346.667 210.951,346.5 C210.084,344.667 209.184,341.184 208.251,336.05 C207.284,329.95 206.685,326.184 206.451,324.75 C203.451,326.116 199.534,327.533 194.701,329 C181.6,333 169.151,335 157.35,335 C132.15,335 113.984,333.167 102.85,329.5 C102.183,329.267 101.55,329.05 100.95,328.85 L100.95,330.55 C99.983,340.517 99.133,347.1 98.4,350.3 L95.95,350.3 C95.95,349.3 96.233,346.55 96.8,342.05 C97.267,338.116 97.567,335.767 97.7,335 C97.933,332.467 98.367,330.15 99,328.05 C97.566,327.417 96.35,326.767 95.35,326.1 C95.25,325.901 95.15,325.701 95.05,325.5 C93.984,323.4 93.2,321.434 92.7,319.6 C92.766,319.567 92.85,319.55 92.95,319.55 C92.916,319.517 92.9,319.484 92.9,319.45 C92.867,318.384 92.85,317.816 92.85,317.75 C92.85,315.917 93.3,312.066 94.2,306.2 C95.7,296.3 96.666,289.667 97.1,286.3 C99.933,264.967 101.35,243.866 101.35,223 L101.35,222.85 C99.283,227.784 98.15,230.5 97.95,231 C97.416,232.333 96.117,236.217 94.05,242.65 C92.084,248.849 90.35,253.783 88.85,257.45 C83.883,269.483 78.666,275.5 73.2,275.5 C69.033,275.5 65.717,271.767 63.25,264.3 C62.517,262.033 61.733,259 60.9,255.2 C60.033,251.2 59.483,248.816 59.25,248.05 C55.717,236.85 52.3,227.75 49,220.75 C45.367,213.083 43.217,208.483 42.55,206.95 C40.15,201.65 38.283,197 36.95,193 C35.016,187.434 31.766,181.283 27.2,174.55 C23.833,170.05 21.833,167.3 21.2,166.3 C13.633,165.7 8.05,163.967 4.45,161.1 C1.783,158.967 0.45,156.6 0.45,154 C0.45,145.267 5.783,141.767 16.45,143.5 C21.816,144.366 27.183,146.116 32.55,148.75 L38.2,146.9 C41.933,145.633 44.016,145 44.45,145 C47.35,145 49.367,145.667 50.5,147 C51.133,147.7 51.45,148.483 51.45,149.35 C51.45,151.451 49.7,153.934 46.2,156.8 C42.7,159.333 40.95,160.75 40.95,161.05 C40.95,161.217 42.166,163.116 44.6,166.75 C45.033,166.717 45.3,167.134 45.4,168 C45.867,168.667 46.367,169.4 46.9,170.2 C52.1,177.933 56.45,184.634 59.95,190.3 C67.617,202.7 72.967,212.8 76,220.6 C76.767,215.333 78.35,208.401 80.75,199.8 C83.583,189.634 86.167,181.634 88.5,175.8 C91.733,167.533 96.217,159.033 101.95,150.3 C106.15,143.833 113.1,143.017 122.8,147.85 C126.367,149.617 129.567,151.8 132.4,154.401 C132.7,154.668 132.983,154.934 133.25,155.201 C133.083,154.067 132.967,152.85 132.9,151.551 C132.934,146.284 132.95,142.402 132.95,139.902 L133,139.1 C130.533,138.734 128.1,138.284 125.7,137.75 C123.833,137.35 121.65,137.017 119.15,136.75 C117.684,136.583 116.117,136.167 114.45,135.5 C112.283,134.6 110.367,133.134 108.7,131.1 C107.166,129.267 106.35,127.651 106.25,126.25 C106.083,124.15 105.7,121.033 105.1,116.9 C104.5,112.367 104.117,109.334 103.95,107.8 C103.617,104.567 103.1,97.834 102.4,87.6 C101.434,88.533 100.783,89 100.45,89 C99.083,89 98.217,87.65 97.85,84.95 C97.683,81.783 97.483,79.717 97.25,78.75 C95.983,79.917 94.883,80.5 93.95,80.5 C91.85,80.5 90.65,78.517 90.35,74.55 C90.416,69.717 90.45,66.467 90.45,64.8 L90.25,64.5 C90.05,64.633 89.333,65.183 88.1,66.15 C87.333,66.717 86.7,67 86.2,67 C85.266,67 84.7,66.567 84.5,65.7 C84.467,64.8 84.45,64.317 84.45,64.25 C84.45,59.817 86.033,54.867 89.2,49.4 C89.867,48.233 90.5,47.267 91.1,46.5 L90.95,46.5 C89.516,46.5 88.683,46.167 88.45,45.5 L88.45,44.35 C88.45,43.483 88.95,42.283 89.95,40.75 C90.15,40.45 91,39.283 92.5,37.25 L92.75,37 C91.55,37.767 90.75,38.25 90.35,38.45 C89.717,38.817 89.166,39 88.7,39 C88.166,39 87.766,38.967 87.5,38.9 L87.2,38.75 C87.2,38.683 87.166,38.533 87.1,38.3 C87,38.1 86.95,37.75 86.95,37.25 C86.95,35.683 88.7,33.3 92.2,30.1 C94.933,27.567 97.867,25.283 101,23.25 C99.333,22.617 98.184,22.133 97.55,21.8 C96.484,21.3 95.95,20.65 95.95,19.85 C95.95,19.617 96.633,19.05 98,18.15 C99.633,17.084 101.5,16.117 103.6,15.25 C109.867,12.683 116.166,11.85 122.5,12.75 C121.733,11.65 120.95,10.767 120.15,10.1 C119.684,9.7 119.45,9.333 119.45,9 C119.45,5.833 122.717,4.933 129.25,6.3 C133.517,7.167 136.667,8.117 138.7,9.15 C139.433,7.584 141.95,5.917 146.25,4.15 C152.083,1.717 158.816,0.334 166.45,0 C167.183,0.133 167.65,0.45 167.849,0.95 C167.916,1.083 167.95,1.383 167.95,1.85 C167.95,2.617 167.766,3.25 167.4,3.75 C166.733,4.483 166.099,5.167 165.5,5.8 L165.25,6.25 C175.75,5.85 183.316,6.067 187.95,6.9 C190.717,7.4 192.55,8.183 193.45,9.25 C192.95,10.15 191.367,11.083 188.7,12.05 C184.967,13.383 182.967,14.117 182.7,14.25 C191.167,16.15 199.384,20.65 207.349,27.75 C214.749,34.35 218.45,39.717 218.45,43.85 C218.45,44.95 217.867,45.5 216.7,45.5 C216.266,45.5 215.766,45.333 215.2,45 C214.5,44.6 213.933,44.35 213.5,44.25 C215.467,50.917 216.566,54.833 216.8,56 C217.234,58.2 217.45,61.533 217.45,66 L217.45,71.85 C217.05,74.95 215.884,76.5 213.95,76.5 C212.95,76.5 212.217,76.117 211.75,75.35 C211.483,74.583 211.316,74.15 211.25,74.05 L209.05,83.7 C208.05,88.233 206.767,90.5 205.2,90.5 C204.266,90.5 203.55,90.167 203.05,89.5 C202.617,88.633 202.25,87.983 201.95,87.55 C201.516,88.917 201.083,90.05 200.65,90.95 C199.849,92.65 198.617,93.5 196.95,93.5 C196.583,93.5 196.2,93.483 195.8,93.45 C194.6,101.05 193.917,106.083 193.75,108.55 C193.517,111.717 192.75,117.467 191.45,125.8 C191.283,126.667 190.816,128.05 190.05,129.95 C189.083,132.316 188.484,133.833 188.25,134.5 C188.15,134.833 188.083,135.384 188.05,136.15 C187.817,136.883 187.1,137.483 185.901,137.95 C182.934,139.116 176.451,139.783 166.451,139.95 L166.451,140.25 C166.451,143.35 166.234,147.167 165.801,151.7 C165.601,153.833 165.435,155.7 165.301,157.3 C165.668,157.366 166.135,157.583 166.701,157.95 C167.635,157.183 168.751,156.349 170.051,155.45 C173.551,152.983 176.652,151.099 179.351,149.8 C183.952,147.567 188.351,147.934 192.551,150.901 C195.784,153.234 197.668,155.6 198.201,158.001 C203.668,167.468 207.551,176.718 209.85,185.751 C210.984,190.051 214.034,200.734 219,217.801 C221.066,224.867 222.634,230.284 223.7,234.051 C224.833,227.951 226.533,219.351 228.8,208.251 C232.267,191.284 235.184,177.784 237.55,167.751 C237.484,167.584 237.45,167.418 237.45,167.251 C237.45,166.218 237.667,165.601 238.099,165.401 C238.766,162.534 239.4,159.984 239.999,157.751 C239.766,157.385 239.616,157.018 239.549,156.651 C236.616,154.984 234.183,152.717 232.249,149.85 C230.315,146.917 229.349,144.134 229.349,141.5 C229.349,133.566 232.533,131.733 238.9,136 C240.433,137.033 242.799,138.95 246,141.75 C248.5,143.917 250,145 250.5,145 C250.934,145 253.45,144.083 258.05,142.25 C262.684,140.417 267.283,139.5 271.85,139.5 C276.618,139.5 280.118,141.45 282.35,145.35 C283.684,147.651 284.35,149.784 284.35,151.75 C284.35,155.316 283.317,158.233 281.25,160.5 C277.316,164.8 270.184,166.3 259.85,165 C259.384,166.566 258.917,168.233 258.451,170 C258.35,170.333 258.267,170.667 258.201,171 C256.567,177.366 254.968,184.85 253.401,193.45 C252.201,199.983 250.517,209.667 248.35,222.5 C248.017,224.333 246.951,229.033 245.151,236.6 C243.684,242.734 242.784,247.634 242.451,251.3 C241.85,257.901 240.968,262.967 239.801,266.5 C237.201,274.5 233.051,278.5 227.351,278.5 C224.918,278.5 222.785,277.083 220.952,274.25 C220.518,273.55 220.152,272.917 219.851,272.35 C217.351,270.117 214.168,264.583 210.301,255.75 C204.601,241.583 200.701,232.167 198.601,227.5 C198.402,227.066 198.218,226.634 198.051,226.2 C198.418,230.366 199.051,236.533 199.951,244.7 C201.385,257.967 202.35,266.167 202.85,269.3 C203.517,273.333 205.517,282.583 208.85,297.05 C211.083,306.651 212.484,313.067 213.05,316.3 C213.583,316.366 213.85,317.017 213.85,318.25 C213.85,320.017 212.017,321.866 208.35,323.8 C209.817,325.901 210.901,328.901 211.6,332.8 C212.034,335.267 212.634,338.833 213.401,343.5 C213.934,344.167 214.317,345.1 214.55,346.3 C214.717,347.067 214.817,348.401 214.85,350.3 L211.75,350.3 L211.75,350.3 Z M179.8,11.9 C180.033,11.8 181.75,11.167 184.95,10 L186,9.75 C184.3,9.583 183.134,9.417 182.5,9.25 L169.45,9.25 L156.7,12.5 C156.167,12.5 155.766,12.467 155.5,12.4 L155.2,12.25 C155.2,12.183 155.167,12.033 155.099,11.8 C154.999,11.6 154.95,11.25 154.95,10.75 C154.95,10.017 156.183,8.817 158.65,7.15 C161.45,5.25 162.983,4.117 163.25,3.75 L163.7,3.05 C160.033,3.584 156.917,4.183 154.35,4.85 C154.283,4.883 151.583,5.683 146.25,7.25 C145.217,7.55 144.083,8.367 142.85,9.7 C141.717,10.9 140.833,11.5 140.2,11.5 L140.05,11.5 C140.017,11.5 140,11.517 140,11.55 C139.7,12.183 139.184,12.5 138.45,12.5 C138.416,12.5 136.95,11.85 134.05,10.55 C131.117,9.217 129.517,8.55 129.25,8.55 L124.45,8.75 L123.25,9.05 C123.65,9.484 124.667,10.517 126.3,12.15 C127.734,13.717 128.45,14.867 128.45,15.6 C128.45,16.067 128.416,16.367 128.35,16.5 C128.25,16.667 128.2,16.85 128.2,17.05 L127.85,17.3 C127.583,17.433 127.2,17.5 126.7,17.5 C126.566,17.5 125.816,17.217 124.45,16.65 C123.083,16.05 120.3,15.75 116.1,15.75 C111.967,15.75 108.45,16.35 105.55,17.55 C103.25,18.883 101.883,19.633 101.45,19.8 C103.15,20.133 104.816,20.367 106.45,20.5 C106.683,20.7 107.016,20.983 107.45,21.35 C107.783,21.683 107.95,21.95 107.95,22.15 C107.95,22.584 105.816,24.267 101.55,27.2 C96.484,30.7 93.633,32.717 93,33.25 L92.95,33.3 C93.15,33.3 93.633,33.167 94.4,32.9 C95.133,32.633 95.733,32.5 96.2,32.5 C97.266,32.5 97.95,32.75 98.25,33.25 C98.383,33.45 98.45,33.75 98.45,34.15 C98.45,34.45 97.383,36.033 95.25,38.9 C93.083,41.8 92,43.334 92,43.5 C92,43.567 92.25,43.683 92.75,43.85 C93.017,44.05 93.217,44.283 93.35,44.55 C93.75,44.484 93.95,44.85 93.95,45.65 C93.95,46.117 93.033,48.483 91.2,52.75 C89.266,57.217 88.183,60.233 87.95,61.8 L87.95,62.05 C88.183,61.883 88.566,61.484 89.1,60.85 C89.767,60.283 90.55,60 91.45,60 C92.717,60 93.45,62.067 93.65,66.2 C93.95,72.2 94.217,75.65 94.45,76.55 C94.95,76.484 95.617,76.033 96.45,75.2 C97.283,74.4 97.95,74 98.45,74 C99.75,74 100.566,75.383 100.9,78.15 C101.067,79.584 101.25,81.383 101.45,83.55 C101.516,83.55 101.75,83.517 102.15,83.45 C101.684,76.25 101.45,72.05 101.45,70.85 L101.5,70.2 C101.1,69.6 100.75,68.967 100.45,68.3 C99.65,66.567 99.083,64.633 98.75,62.5 C98.55,61.333 98.45,60.333 98.45,59.5 C98.45,58.767 98.5,58.05 98.6,57.35 C98.066,57.117 97.717,56.8 97.55,56.4 C97.484,56.267 97.45,55.967 97.45,55.5 C97.45,54.233 99.633,51 104,45.8 C108.434,40.5 111.434,37.65 113,37.25 C113,37.283 113.083,37.367 113.25,37.5 C113.383,37.667 113.45,38 113.45,38.5 C113.45,39.1 111.95,41.3 108.95,45.1 C110.55,44.467 112.283,44.083 114.15,43.95 C118.483,43.617 122.084,44.783 124.95,47.45 C126.117,48.55 127.066,49.833 127.8,51.3 C128.467,50.5 129.533,49.484 131,48.25 C133.566,46.083 134.967,45 135.2,45 C136.2,45 136.983,45.783 137.55,47.35 C137.85,48.15 138.084,49.05 138.25,50.05 C139.05,49.817 140.133,48.65 141.5,46.55 C142.733,44.683 143.717,43.834 144.45,44 C145.983,44.4 147.05,45.367 147.65,46.9 C147.983,47.733 148.434,49.033 149,50.8 C149.267,50.667 150.333,49.734 152.2,48 C153.666,46.667 154.916,46 155.95,46 C156.65,46 157.683,46.733 159.05,48.2 C160.55,49.833 161.434,50.7 161.7,50.8 C161.867,50.533 162.217,49.717 162.75,48.35 C163.417,47.117 164.316,46.5 165.45,46.5 C166.583,46.5 167.967,47.85 169.599,50.55 C170.533,48.484 171.832,46.667 173.499,45.1 C176.832,42 180.899,40.5 185.699,40.6 C187.932,40.666 190.015,41.067 191.949,41.8 C191.149,40.633 190.315,39.4 189.449,38.1 L189.499,36.8 C191.565,37.3 194.866,40.683 199.399,46.95 C203.765,53.016 205.949,56.867 205.949,58.5 C205.949,58.967 205.916,59.2 205.848,59.2 C205.748,59.233 205.699,59.35 205.699,59.55 L205.348,59.8 C205.081,59.933 204.699,60 204.199,60 C204.166,60 203.899,59.65 203.399,58.95 C203.432,59.483 203.449,60.05 203.449,60.65 C203.449,63.75 202.532,66.633 200.699,69.3 C199.832,70.567 198.815,71.667 197.649,72.6 C197.715,72.7 197.782,72.817 197.848,72.95 C197.915,73.083 197.949,73.383 197.949,73.85 C197.949,77.45 197.466,82.517 196.499,89.05 C199.532,85.017 201.099,83 201.199,83 C202.332,83 203.216,83.417 203.848,84.25 C204.182,84.683 204.482,85.2 204.748,85.8 C205.448,82.1 206.048,79.067 206.548,76.7 C207.515,72.233 208.982,70 210.948,70 C211.615,70 212.331,70.333 213.097,71 C213.497,71.333 213.865,71.683 214.198,72.05 C214.365,70.85 214.448,68.783 214.448,65.85 C214.448,60.483 213.615,55.317 211.948,50.35 C210.281,45.416 209.448,42.583 209.448,41.85 C209.448,41.117 209.531,40.633 209.698,40.4 C210.264,39.733 211.531,39.7 213.498,40.3 C211.831,37.533 210.498,35.334 209.498,33.7 C207.698,30.733 205.115,28.35 201.748,26.55 C196.781,24.283 192.448,22.283 188.748,20.55 C181.548,17.15 177.948,15.133 177.948,14.5 C177.95,13.4 178.566,12.533 179.8,11.9 Z M164.45,53.15 C163.983,54.383 163.15,55 161.95,55 C160.683,55 159.4,54.217 158.099,52.65 C156.9,50.917 156.117,49.883 155.749,49.55 C153.282,52.85 151.099,54.5 149.199,54.5 C147.765,54.5 146.616,53.617 145.749,51.85 C145.082,49.916 144.666,48.817 144.499,48.55 C143.632,49.683 142.849,50.683 142.149,51.55 C140.782,53.183 139.632,54 138.699,54 C137.132,54 136.116,53.433 135.649,52.3 C135.382,50.967 135.066,50.117 134.699,49.75 C134.499,49.817 133.549,50.65 131.849,52.25 C130.516,53.483 129.565,54.217 128.999,54.45 C129.565,56.45 129.849,58.717 129.849,61.25 C129.849,64.583 129.149,67.433 127.749,69.8 C125.116,74.267 120.315,76.5 113.349,76.5 C110.116,76.5 107.399,75.733 105.199,74.2 C105.265,74.7 105.315,75.25 105.349,75.85 C105.482,78.017 105.599,81.25 105.699,85.55 C105.799,87.717 105.915,90.917 106.049,95.15 C106.183,98.85 106.399,102.05 106.699,104.75 C107.099,108.783 107.849,115.133 108.949,123.8 C109.082,124.934 109.832,126.5 111.199,128.5 C112.632,130.566 113.882,131.833 114.949,132.3 C117.549,133.366 121.132,134.184 125.699,134.75 C134.332,135.85 143.265,136.45 152.499,136.55 C156.299,136.616 159.482,136.616 162.049,136.55 C162.116,136.583 162.183,136.6 162.249,136.6 L164.249,136.651 C164.383,136.684 164.516,136.717 164.649,136.751 C171.682,136.718 176.182,136.584 178.149,136.351 C181.882,135.952 184.366,134.868 185.598,133.101 C186.632,131.635 187.465,128.535 188.098,123.801 C189.232,115.268 190.182,109.085 190.949,105.251 C190.782,103.284 191.199,100.451 192.199,96.751 C193.232,93.051 193.649,90.234 193.449,88.301 C193.482,88.168 193.699,85.485 194.098,80.251 C194.298,77.818 194.765,75.718 195.498,73.951 C192.831,75.318 189.564,76.001 185.698,76.001 C178.564,76.001 173.481,73.334 170.448,68.001 C168.781,65.068 167.948,62.101 167.948,59.101 C167.948,57.101 168.165,55.234 168.597,53.501 C167.764,53.468 167.131,53.118 166.698,52.451 C165.965,51.384 165.548,50.818 165.448,50.751 C165.384,50.783 165.05,51.583 164.45,53.15 Z M173.7,67.05 C176.4,70.85 180.433,72.75 185.8,72.75 C192,72.75 196.3,70.833 198.7,67 C199.9,65.067 200.483,62.983 200.45,60.75 C200.45,57.45 199.9,54.583 198.8,52.15 C197.967,50.917 197.033,49.533 196,48 C195.967,47.933 195.917,47.867 195.85,47.8 C193.118,45.1 189.734,43.783 185.701,43.85 C181.767,43.916 178.385,45.267 175.551,47.9 C172.485,50.8 170.951,54.55 170.951,59.15 C170.95,61.85 171.867,64.483 173.7,67.05 Z M142.95,78.35 C142.95,77.883 142.967,77.633 143,77.6 C143.066,77.533 143.133,77.416 143.2,77.25 C144.166,77.283 145.183,77.8 146.25,78.8 C147.283,79.8 148.6,80.3 150.2,80.3 C152.4,80.3 154.066,79.75 155.2,78.65 C156.3,77.55 157.217,77 157.95,77 C158.783,77 159.3,77.083 159.5,77.25 C159.5,77.283 159.583,77.367 159.75,77.5 C159.884,77.667 159.95,78 159.95,78.5 C159.95,79.6 158.8,80.7 156.5,81.8 C154.133,82.933 151.617,83.5 148.95,83.5 C147.283,83.5 145.783,82.667 144.45,81 C143.45,79.733 142.95,78.85 142.95,78.35 Z M178,50.45 C179.233,49.85 180.717,49.833 182.45,50.4 C184.217,50.933 185.7,51.883 186.9,53.25 C188.266,54.817 188.95,56.567 188.95,58.5 C188.95,59.833 188.467,61.167 187.5,62.5 C186.3,64.167 184.7,65 182.7,65 C180.733,65 179.333,64.717 178.5,64.15 C176.967,63.617 175.717,62.584 174.75,61.05 L173.45,57.75 C173.45,56.35 173.833,55.133 174.599,54.1 C174.966,53.267 175.533,52.617 176.299,52.15 C176.634,51.383 177.2,50.817 178,50.45 Z M179.85,54.45 C179.417,54.483 179.034,54.567 178.701,54.7 C178.301,54.867 178.001,55.15 177.801,55.55 C177.568,55.95 177.451,56.467 177.451,57.1 C177.451,57.7 177.501,58.133 177.6,58.4 C177.767,58.8 178.05,59.084 178.451,59.25 C178.451,59.517 178.468,59.6 178.501,59.5 L178.951,59.8 C179.85,59.834 180.584,59.65 181.151,59.25 C181.484,59.05 181.734,58.783 181.901,58.45 C182.1,58.15 182.217,57.867 182.251,57.6 C182.251,57.533 182.234,57.45 182.201,57.35 L182.201,57 C182.2,55.233 181.417,54.383 179.85,54.45 Z M179.45,116.6 C179.016,117 178.683,117.3 178.45,117.5 C167.016,117.633 157.3,118.067 149.3,118.8 C140.6,119.734 133.317,120.467 127.45,121 L121.95,121 C121.617,120.7 121.217,120.35 120.75,119.95 C120.55,119.783 120.45,119.666 120.45,119.6 C120.45,117.033 122.867,114.117 127.7,110.85 C133.233,107.15 140.15,104.45 148.45,102.75 C156.849,101.483 164.483,102.817 171.349,106.75 C173.95,108.217 176.066,109.867 177.7,111.7 C179.2,113.4 179.95,114.783 179.95,115.85 C179.95,116.017 179.783,116.267 179.45,116.6 Z M175.5,114.25 C174.333,113.717 173.15,112.867 171.95,111.7 C170.583,110.333 169.467,109.4 168.599,108.9 C165.033,106.8 158.15,105.75 147.95,105.75 C142.55,106.917 137.633,108.7 133.2,111.1 C129.4,113.133 126.666,115.2 125,117.3 L124.95,117.75 L128,117.8 C128.333,117.8 135.8,117.217 150.4,116.05 C165.033,114.85 173.05,114.25 174.45,114.25 L175.5,114.25 L175.5,114.25 Z M135.55,139.45 C136.317,140.05 136.767,141.066 136.9,142.5 C137.033,143.934 137.05,145.934 136.95,148.5 C136.95,151 137.117,154.783 137.45,159.85 L137.45,160.05 C138.95,161.884 140.55,164.267 142.25,167.2 C143.95,170.133 146.35,174.5 149.45,180.3 C150.283,179.366 152.933,175.083 157.4,167.45 C159.233,164.316 160.75,161.917 161.95,160.25 L161.95,158.25 C161.95,157.25 162.033,155.434 162.2,152.8 C162.433,149.5 162.683,146.901 162.95,145 C163.217,143.2 163.634,141.533 164.2,140 L163.5,140 L163.5,139.75 C162.767,139.85 161.983,139.934 161.15,140 L160.549,140 C160.622,140.002 160.722,140.019 160.849,140.05 C158.516,140.217 155.716,140.317 152.45,140.35 C146.717,140.417 141.083,140.116 135.55,139.45 Z M169.45,160.35 C171.283,162.217 173.117,164.384 174.95,166.85 C174.95,167.984 173.884,169.017 171.75,169.951 C170.184,170.617 167.583,171.385 163.95,172.251 C164.483,173.051 166,174.734 168.5,177.301 C169.8,178.635 170.45,180.201 170.45,182.001 C170.45,184.401 165.516,185.851 155.65,186.351 C156.783,189.685 157.349,191.768 157.349,192.601 C157.349,193.435 157.016,198.985 156.349,209.251 C156.349,213.617 156.516,216.801 156.849,218.801 L156.849,240.251 L158.349,268.301 L158.349,294.551 C158.683,297.152 159.233,302.735 159.999,311.301 C160.899,321.235 161.349,327.468 161.349,330.001 L161.349,330.851 C161.316,330.885 161.266,331.035 161.2,331.301 L160.9,331.652 C160.867,331.685 160.849,331.718 160.849,331.752 C169.883,331.552 178.016,330.602 185.249,328.902 C189.549,327.902 193.699,326.618 197.699,325.051 C203.932,323.084 207.765,321.235 209.199,319.501 C209.399,319.234 209.616,318.984 209.848,318.751 C208.081,316.351 206.331,310.435 204.598,301.001 C202.265,285.734 200.682,275.484 199.848,270.251 C199.149,265.651 198.048,256.501 196.548,242.801 C195.081,229.435 194.348,221.951 194.348,220.351 C194.348,219.452 194.415,218.834 194.548,218.501 C191.448,211.567 188.899,205.817 186.899,201.251 C186.298,200.484 185.649,199.151 184.949,197.251 C183.949,194.518 183.449,192.885 183.449,192.351 C183.449,191.885 183.466,191.635 183.499,191.601 C183.565,191.535 183.633,191.418 183.699,191.251 C184.466,191.284 185.182,191.567 185.848,192.101 C186.315,192.768 186.982,193.685 187.848,194.851 C188.715,196.718 189.581,198.702 190.449,200.801 C192.015,205.034 194.282,210.534 197.249,217.301 L197.349,217.301 L197.9,218.501 C197.867,218.501 197.849,218.518 197.849,218.551 L197.849,218.652 C198.65,220.485 199.516,222.435 200.45,224.502 C204.483,233.568 208.066,241.419 211.2,248.052 C212.4,250.519 214.983,255.236 218.95,262.202 C222.217,267.935 223.849,271.085 223.849,271.652 C223.849,271.818 223.832,271.985 223.799,272.152 C225.099,274.085 226.316,275.051 227.449,275.051 C234.982,275.051 241.449,253.867 246.848,211.501 C247.182,209.901 248.182,204.584 249.848,195.551 C251.081,188.784 252.248,183.351 253.348,179.251 C254.015,176.751 254.581,174.435 255.048,172.301 C253.848,172.435 252.315,172.501 250.448,172.501 C246.648,172.501 243.431,171.834 240.798,170.501 C240.665,170.435 240.548,170.367 240.448,170.301 C240.014,172.034 239.548,173.951 239.048,176.051 C235.848,189.185 233.899,197.834 233.198,202.001 C232.398,206.801 231.231,214.168 229.698,224.101 C228.531,230.535 227.081,236.285 225.347,241.351 C225.314,241.685 225.264,242.001 225.198,242.301 L224.898,242.652 C224.865,242.685 224.847,242.718 224.847,242.752 C224.347,244.052 223.847,245.302 223.347,246.502 C223.014,246.202 222.615,245.852 222.148,245.452 C221.948,245.285 221.847,245.169 221.847,245.101 C221.847,244.601 222.031,243.334 222.398,241.301 C221.297,239.101 219.931,234.885 218.297,228.652 C214.997,215.285 212.28,204.785 210.148,197.152 C201.681,166.551 193.214,151.252 184.748,151.252 C182.015,151.252 178.031,153.186 172.798,157.052 C171.399,158.186 170.182,159.186 169.149,160.052 C169.25,160.15 169.35,160.25 169.45,160.35 Z M164.3,163.35 C164.167,163.583 164.05,163.784 163.95,163.951 C163.917,163.951 163.884,163.968 163.849,164.001 C162.549,166.101 160.766,168.885 158.499,172.351 C155.166,177.385 152.749,180.868 151.249,182.801 C151.815,182.735 152.382,182.685 152.949,182.652 C152.982,182.685 153.049,182.702 153.149,182.702 C153.349,182.702 153.666,182.652 154.099,182.552 L154.149,182.552 C159.383,182.118 163.649,181.686 166.949,181.252 C166.282,179.585 165.015,177.936 163.149,176.302 C161.682,175.035 160.949,173.686 160.949,172.252 C160.949,171.219 161.265,170.585 161.899,170.352 C165.465,169.119 168.482,167.936 170.949,166.802 C170.848,166.636 169.565,165.486 167.098,163.352 C166.965,163.219 166.831,163.102 166.699,163.002 C166.098,162.269 165.749,161.902 165.649,161.902 C165.316,161.9 164.867,162.384 164.3,163.35 Z M135.2,161.5 L134.95,161.5 C133.35,159.3 131.283,157.1 128.75,154.9 C127.717,154 126.684,153.2 125.65,152.5 C124.883,154.233 122.667,157.983 119,163.75 C119.3,163.917 122.283,164 127.95,164 C130.516,164 132.2,164.35 133,165.05 C133.4,165.417 133.55,165.783 133.45,166.151 C133.45,166.484 132.4,168.484 130.3,172.151 C127.934,176.251 126.484,178.967 125.95,180.3 C130.383,180.833 136.8,181.234 145.2,181.5 C145.6,181.5 145.983,181.517 146.35,181.55 C144.816,179.35 142.85,175.967 140.45,171.401 C138.283,167.3 136.666,164.134 135.6,161.901 C135.533,161.934 135.483,161.967 135.45,162.001 C135.35,161.833 135.267,161.667 135.2,161.5 Z M138.65,185.65 C138.55,185.583 138.45,185.533 138.35,185.5 C132.183,185.4 127.717,184.733 124.95,183.5 C123.283,182.733 122.45,181.983 122.45,181.25 C122.45,180.116 123.467,177.634 125.5,173.8 C127.066,170.901 128.233,168.884 129,167.75 C129.167,167.45 129.25,167.217 129.25,167.05 C122.983,167.484 118.833,167.417 116.8,166.85 C115.567,166.517 114.95,165.817 114.95,164.75 C114.95,163.65 115.933,161.217 117.9,157.45 C119.633,154.15 121.4,151.983 123.2,150.95 C119.967,149.15 116.75,148.25 113.55,148.25 C104.617,148.25 95.85,161.967 87.25,189.4 C83.417,201.599 80.283,213.799 77.85,226 C78.583,228.667 78.95,230.95 78.95,232.85 C78.95,233.684 78.883,234 78.75,233.8 L78.5,234.151 C78.3,234.384 77.95,234.501 77.45,234.501 C76.883,234.501 74.717,229.651 70.95,219.951 C66.516,208.584 63.266,201.1 61.2,197.501 C59.367,194.334 54.683,187.201 47.15,176.101 C46.084,174.535 45.117,173.084 44.25,171.751 C43.55,172.584 42.55,173.418 41.25,174.251 C38.684,175.918 36.1,176.834 33.5,177.001 C36.167,181.034 38.7,185.885 41.1,191.551 C42.633,195.185 44.55,200.301 46.85,206.902 C48.783,212.568 50.15,216.185 50.95,217.752 C52.35,220.785 54.183,225.719 56.45,232.552 C57.75,236.419 59.733,242.419 62.4,250.552 C67.334,265.019 71.05,272.252 73.55,272.252 C78.084,272.252 82.5,266.419 86.8,254.752 C91.033,240.919 94.1,231.835 96,227.502 C96.967,225.368 99.483,219.419 103.55,209.652 C103.75,208.152 104.283,206.218 105.15,203.851 C106.65,199.851 108.434,197.818 110.5,197.751 C110.5,197.784 110.583,197.867 110.75,198.001 C110.883,198.168 110.95,198.501 110.95,199.001 C110.95,199.867 110.2,202.101 108.7,205.701 C107.967,207.434 107.316,208.85 106.75,209.951 C105.816,212.117 104.983,214.117 104.25,215.951 C104.316,216.817 104.35,218.001 104.35,219.501 C104.35,222.701 104.517,227.617 104.85,234.251 C104.85,242.385 103.5,257.984 100.8,281.051 C98.867,297.451 97.2,310.385 95.8,319.851 C95.834,319.885 95.883,319.918 95.95,319.952 L95.95,320 C95.95,320.833 96.633,321.95 98,323.35 C99.4,324.817 101.133,325.784 103.2,326.25 C105.533,327.384 107.717,328.283 109.75,328.95 C117.717,330.45 129.7,331.349 145.7,331.65 C145.233,330.583 144.967,329.283 144.9,327.75 C144.767,324.517 144.584,322.6 144.35,322 L144.35,269.5 C144.083,269 143.916,268.6 143.85,268.3 L143.85,224.5 L143.35,223 L143.35,187 C143.217,186.8 143.117,186.634 143.05,186.5 L141.45,186.5 C140.184,186.233 139.25,185.95 138.65,185.65 Z M152.05,186.45 C152.017,186.45 151.984,186.467 151.95,186.5 L146.35,186.5 L146.35,222.05 C146.483,222.651 146.65,223.151 146.85,223.55 L146.85,267.05 C146.916,267.384 147.083,267.783 147.35,268.25 L147.35,321.05 C147.583,322.45 147.816,324.267 148.05,326.5 C148.25,328.566 148.35,329.934 148.35,330.6 L148.35,331.701 C151.217,331.734 154.217,331.751 157.35,331.751 L159.151,331.751 C157.717,330.617 156.784,325.935 156.35,317.701 C156.083,306.401 155.75,298.934 155.35,295.301 L155.35,269.051 L153.85,241.001 L153.85,220.001 C153.517,217.701 153.35,214.168 153.35,209.401 C154.017,198.867 154.35,193.184 154.35,192.35 C154.35,191.951 154.183,190.684 153.85,188.55 C153.717,187.684 153.617,186.967 153.55,186.401 C153.05,186.434 152.55,186.45 152.05,186.45 Z M232.35,141.35 C232.35,144.484 234.184,147.701 237.85,151 C238.784,151.8 240.05,152.884 241.651,154.25 C242.384,154.95 242.884,155.566 243.151,156.1 C243.55,156.534 244.05,157.117 244.651,157.85 C247.451,160.083 254.401,161.217 265.501,161.25 C265.501,161.283 265.584,161.366 265.751,161.5 C265.784,161.533 265.817,161.583 265.851,161.65 C265.985,161.616 266.135,161.599 266.301,161.599 C273.135,160.966 276.935,160.266 277.701,159.499 C280.135,156.865 281.35,154.232 281.35,151.599 C281.35,150.4 280.534,148.783 278.901,146.749 C276.8,144.082 274.35,142.749 271.55,142.749 C266.75,142.749 262.117,143.799 257.651,145.899 C257.091,146.16 256.558,146.401 256.05,146.624 C255.241,147.137 254.074,147.711 252.55,148.349 C249.25,149.616 247.55,150.266 247.45,150.299 C246.65,149.599 246.25,149.233 246.25,149.199 C246.25,148.659 246.667,148.1 247.5,147.524 C247.436,147.454 247.368,147.378 247.3,147.298 C246.1,145.732 245.134,144.515 244.401,143.649 C241.368,140.048 238.234,138.249 235.001,138.249 C233.567,138.249 232.701,138.749 232.401,139.749 C232.233,140.25 232.217,140.783 232.35,141.35 Z M241.3,166.65 C241.667,166.849 242.083,167.066 242.55,167.299 C246.917,169.599 251.267,170.316 255.6,169.449 C255.901,167.615 256.118,165.949 256.25,164.449 C251.15,164.115 246.983,162.966 243.75,160.999 C243.384,160.766 243.033,160.549 242.7,160.349 C242.367,161.917 241.9,164.017 241.3,166.65 Z M114.15,46.95 C110.783,47.183 107.867,48.433 105.4,50.7 C102.767,53.133 101.45,56.067 101.45,59.5 C101.45,62.3 102.05,64.883 103.25,67.25 C105.283,71.25 108.633,73.25 113.3,73.25 C119.2,73.25 123.217,71.333 125.35,67.5 C126.35,65.7 126.85,63.567 126.85,61.1 C126.85,56.133 125.533,52.383 122.9,49.85 C120.566,47.65 117.65,46.683 114.15,46.95 Z M122.2,53.15 C123.7,54.317 124.45,55.933 124.45,58 C124.45,59.467 123.967,60.967 123,62.5 C121.533,64.833 119.35,66 116.45,66 C113.383,66 111.383,64.85 110.45,62.55 C110.117,60.183 109.95,58.967 109.95,58.9 C109.95,56.7 110.7,54.933 112.2,53.6 C113.566,52.4 115.233,51.75 117.2,51.65 C119.167,51.583 120.833,52.083 122.2,53.15 Z M116.8,61.75 C117.867,61.75 118.767,61.1 119.5,59.8 C119.867,59.2 120.117,58.767 120.25,58.5 C120.25,57.1 119.367,56.467 117.6,56.6 C115.833,56.733 114.95,57.867 114.95,60 C114.95,61.167 115.566,61.75 116.8,61.75 Z M11,159.75 C14.167,160.717 20.483,162.4 29.95,164.8 C29.95,164.967 29.933,165.116 29.9,165.25 C32.133,164.55 34.5,163.217 37,161.25 C37.167,161.116 37.316,161 37.45,160.9 L37.45,160.849 C37.45,160.249 39.1,158.4 42.4,155.299 C45.867,152.133 47.717,150.115 47.95,149.249 C47.816,149.016 47.367,148.799 46.6,148.599 C45.833,148.366 45.133,148.249 44.5,148.249 C43.934,148.249 41.917,148.883 38.45,150.149 C37.446,150.505 36.563,150.814 35.8,151.074 C35.729,151.382 35.679,151.606 35.65,151.749 C35.517,152.115 35.184,152.299 34.65,152.299 C33.91,152.299 33.26,152.191 32.7,151.974 C32.594,151.991 32.511,151.999 32.45,151.999 C31.916,151.999 29.3,151.133 24.6,149.399 C19.9,147.632 16.467,146.749 14.3,146.749 C7.067,146.749 3.45,149.166 3.45,153.999 C3.45,156.267 5.967,158.184 11,159.75 Z M37.55,165.5 C34.717,167.833 31.184,169 26.95,169 L26.9,169 C28.4,170.434 29.883,172.1 31.35,174 C31.783,173.767 32.333,173.566 33,173.4 C36.367,172.5 38.85,171.633 40.45,170.799 C40.683,170.699 41.3,170.032 42.3,168.799 C40.967,166.832 39.917,165.233 39.15,163.999 C38.717,164.467 38.184,164.967 37.55,165.5 Z" id="Shape" fill="#000000" fill-rule="nonzero"></path>
            <path d="M179.8,11.9 C178.567,12.533 177.95,13.4 177.95,14.5 C177.95,15.133 181.55,17.15 188.75,20.55 C192.45,22.283 196.783,24.283 201.75,26.55 C205.117,28.35 207.7,30.734 209.5,33.7 C210.5,35.333 211.833,37.533 213.5,40.3 C211.533,39.7 210.267,39.734 209.7,40.4 C209.533,40.633 209.45,41.117 209.45,41.85 C209.45,42.583 210.283,45.416 211.95,50.35 C213.617,55.317 214.45,60.483 214.45,65.85 C214.45,68.783 214.367,70.85 214.2,72.05 C213.867,71.683 213.5,71.334 213.099,71 C212.332,70.333 211.617,70 210.95,70 C208.983,70 207.516,72.233 206.55,76.7 C206.05,79.067 205.45,82.1 204.75,85.8 C204.483,85.2 204.184,84.683 203.85,84.25 C203.217,83.417 202.333,83 201.201,83 C201.1,83 199.534,85.017 196.501,89.05 C197.468,82.517 197.951,77.45 197.951,73.85 C197.951,73.383 197.918,73.083 197.85,72.95 C197.784,72.817 197.717,72.7 197.651,72.6 C198.817,71.666 199.834,70.567 200.701,69.3 C202.534,66.633 203.451,63.75 203.451,60.65 C203.451,60.05 203.434,59.483 203.401,58.95 C203.901,59.65 204.168,60 204.201,60 C204.701,60 205.084,59.933 205.35,59.8 L205.701,59.55 C205.701,59.35 205.751,59.234 205.85,59.2 C205.917,59.2 205.951,58.967 205.951,58.5 C205.951,56.867 203.767,53.017 199.401,46.95 C194.868,40.683 191.567,37.3 189.501,36.8 L189.451,38.1 C190.317,39.4 191.151,40.633 191.951,41.8 C190.017,41.067 187.934,40.667 185.701,40.6 C180.901,40.5 176.834,42 173.501,45.1 C171.834,46.666 170.534,48.483 169.601,50.55 C167.968,47.85 166.584,46.5 165.452,46.5 C164.318,46.5 163.419,47.117 162.752,48.35 C162.219,49.717 161.869,50.533 161.702,50.8 C161.435,50.7 160.552,49.834 159.052,48.2 C157.686,46.733 156.653,46 155.952,46 C154.918,46 153.668,46.667 152.202,48 C150.335,49.733 149.268,50.667 149.002,50.8 C148.436,49.033 147.985,47.734 147.652,46.9 C147.052,45.367 145.985,44.4 144.452,44 C143.719,43.833 142.735,44.683 141.502,46.55 C140.135,48.65 139.052,49.817 138.252,50.05 C138.085,49.05 137.852,48.15 137.552,47.35 C136.986,45.783 136.202,45 135.202,45 C134.969,45 133.568,46.083 131.002,48.25 C129.535,49.483 128.469,50.5 127.802,51.3 C127.069,49.834 126.119,48.55 124.952,47.45 C122.085,44.783 118.485,43.617 114.152,43.95 C112.285,44.083 110.552,44.467 108.952,45.1 C111.952,41.3 113.452,39.1 113.452,38.5 C113.452,38 113.385,37.667 113.252,37.5 C113.085,37.367 113.002,37.283 113.002,37.25 C111.436,37.65 108.436,40.5 104.002,45.8 C99.635,51 97.452,54.234 97.452,55.5 C97.452,55.967 97.485,56.267 97.552,56.4 C97.719,56.8 98.069,57.117 98.602,57.35 C98.502,58.05 98.452,58.767 98.452,59.5 C98.452,60.333 98.552,61.333 98.752,62.5 C99.085,64.633 99.652,66.567 100.452,68.3 C100.752,68.967 101.102,69.6 101.502,70.2 L101.452,70.85 C101.452,72.05 101.685,76.25 102.152,83.45 C101.752,83.516 101.519,83.55 101.452,83.55 C101.252,81.383 101.068,79.584 100.902,78.15 C100.569,75.383 99.752,74 98.452,74 C97.952,74 97.285,74.4 96.452,75.2 C95.619,76.033 94.952,76.483 94.452,76.55 C94.219,75.65 93.952,72.2 93.652,66.2 C93.452,62.067 92.719,60 91.452,60 C90.552,60 89.768,60.283 89.102,60.85 C88.568,61.483 88.185,61.883 87.952,62.05 L87.952,61.8 C88.185,60.234 89.268,57.217 91.202,52.75 C93.035,48.483 93.952,46.117 93.952,45.65 C93.952,44.85 93.752,44.483 93.352,44.55 C93.219,44.283 93.019,44.05 92.752,43.85 C92.252,43.683 92.002,43.567 92.002,43.5 C92.002,43.333 93.085,41.8 95.252,38.9 C97.385,36.033 98.452,34.45 98.452,34.15 C98.452,33.75 98.385,33.45 98.252,33.25 C97.952,32.75 97.269,32.5 96.202,32.5 C95.735,32.5 95.135,32.633 94.402,32.9 C93.635,33.167 93.152,33.3 92.952,33.3 L93.002,33.25 C93.635,32.717 96.485,30.7 101.552,27.2 C105.819,24.266 107.952,22.583 107.952,22.15 C107.952,21.95 107.785,21.683 107.452,21.35 C107.018,20.983 106.685,20.7 106.452,20.5 C104.818,20.367 103.152,20.133 101.452,19.8 C101.885,19.633 103.252,18.883 105.552,17.55 C108.452,16.35 111.969,15.75 116.102,15.75 C120.302,15.75 123.085,16.05 124.452,16.65 C125.818,17.217 126.568,17.5 126.702,17.5 C127.202,17.5 127.585,17.433 127.852,17.3 L128.202,17.05 C128.202,16.85 128.252,16.667 128.352,16.5 C128.418,16.367 128.452,16.067 128.452,15.6 C128.452,14.867 127.735,13.717 126.302,12.15 C124.669,10.517 123.652,9.483 123.252,9.05 L124.452,8.75 L129.252,8.55 C129.519,8.55 131.119,9.217 134.052,10.55 C136.952,11.85 138.419,12.5 138.452,12.5 C139.185,12.5 139.702,12.183 140.002,11.55 C140.002,11.517 140.019,11.5 140.052,11.5 L140.202,11.5 C140.835,11.5 141.719,10.9 142.852,9.7 C144.085,8.367 145.219,7.55 146.252,7.25 C151.585,5.683 154.285,4.883 154.352,4.85 C156.919,4.183 160.035,3.583 163.702,3.05 L163.252,3.75 C162.985,4.117 161.452,5.25 158.652,7.15 C156.185,8.817 154.952,10.017 154.952,10.75 C154.952,11.25 155.002,11.6 155.101,11.8 C155.168,12.033 155.202,12.183 155.202,12.25 L155.502,12.4 C155.769,12.467 156.169,12.5 156.702,12.5 L169.452,9.25 L182.502,9.25 C183.136,9.417 184.302,9.583 186.002,9.75 L184.95,10 C181.75,11.167 180.033,11.8 179.8,11.9 Z" id="Shape" fill="#782121"></path>
            <path d="M164.45,53.15 C165.05,51.584 165.384,50.783 165.45,50.75 C165.55,50.817 165.967,51.383 166.7,52.45 C167.134,53.117 167.766,53.467 168.599,53.5 C168.166,55.233 167.95,57.1 167.95,59.1 C167.95,62.1 168.783,65.067 170.45,68 C173.483,73.333 178.566,76 185.7,76 C189.566,76 192.833,75.317 195.5,73.95 C194.767,75.717 194.3,77.817 194.1,80.25 C193.701,85.483 193.484,88.167 193.451,88.3 C193.651,90.234 193.234,93.05 192.201,96.75 C191.201,100.45 190.784,103.283 190.951,105.25 C190.184,109.083 189.234,115.267 188.1,123.8 C187.467,128.533 186.634,131.634 185.6,133.1 C184.368,134.867 181.884,135.951 178.151,136.35 C176.184,136.583 171.684,136.717 164.651,136.75 C164.517,136.717 164.384,136.684 164.251,136.65 L162.251,136.599 C162.185,136.599 162.118,136.582 162.051,136.549 C159.485,136.615 156.301,136.615 152.501,136.549 C143.268,136.449 134.334,135.849 125.701,134.749 C121.134,134.183 117.551,133.365 114.951,132.299 C113.884,131.832 112.634,130.566 111.201,128.499 C109.834,126.499 109.084,124.933 108.951,123.799 C107.851,115.132 107.101,108.782 106.701,104.749 C106.401,102.049 106.184,98.849 106.051,95.149 C105.918,90.916 105.801,87.716 105.701,85.549 C105.601,81.249 105.484,78.016 105.351,75.849 C105.317,75.249 105.268,74.699 105.201,74.199 C107.401,75.732 110.118,76.499 113.351,76.499 C120.317,76.499 125.118,74.266 127.751,69.799 C129.151,67.432 129.851,64.583 129.851,61.249 C129.851,58.716 129.567,56.449 129.001,54.449 C129.567,54.216 130.518,53.482 131.851,52.249 C133.551,50.649 134.501,49.816 134.701,49.749 C135.067,50.116 135.384,50.966 135.651,52.299 C136.118,53.432 137.134,53.999 138.701,53.999 C139.634,53.999 140.784,53.182 142.151,51.549 C142.851,50.682 143.634,49.682 144.501,48.549 C144.668,48.816 145.084,49.916 145.751,51.849 C146.618,53.616 147.768,54.499 149.201,54.499 C151.101,54.499 153.284,52.849 155.751,49.549 C156.118,49.882 156.901,50.916 158.101,52.649 C159.402,54.216 160.685,54.999 161.952,54.999 C163.15,55 163.983,54.383 164.45,53.15 Z M142.95,78.35 C142.95,78.85 143.45,79.733 144.45,81 C145.783,82.667 147.283,83.5 148.95,83.5 C151.617,83.5 154.133,82.933 156.5,81.8 C158.8,80.7 159.95,79.6 159.95,78.5 C159.95,78 159.884,77.667 159.75,77.5 C159.583,77.367 159.5,77.283 159.5,77.25 C159.3,77.083 158.783,77 157.95,77 C157.217,77 156.3,77.55 155.2,78.65 C154.066,79.75 152.4,80.3 150.2,80.3 C148.6,80.3 147.283,79.8 146.25,78.8 C145.184,77.8 144.167,77.283 143.2,77.25 C143.133,77.417 143.066,77.533 143,77.6 C142.967,77.633 142.95,77.883 142.95,78.35 Z M173.85,83.6 C172.25,85.133 171.451,86.95 171.451,89.05 C171.451,90.683 171.718,92.033 172.251,93.1 C173.451,95.5 175.784,96.7 179.251,96.7 C182.451,96.7 184.618,95.6 185.751,93.4 C186.351,92.267 186.651,90.667 186.651,88.6 C186.651,85.833 185.868,83.783 184.3,82.45 C182.901,81.283 181.151,80.833 179.05,81.1 C177.017,81.367 175.283,82.2 173.85,83.6 Z M179.45,116.6 C179.783,116.267 179.95,116.017 179.95,115.85 C179.95,114.783 179.2,113.4 177.7,111.7 C176.066,109.867 173.95,108.217 171.349,106.75 C164.483,102.817 156.849,101.483 148.45,102.75 C140.15,104.45 133.233,107.15 127.7,110.85 C122.867,114.117 120.45,117.033 120.45,119.6 C120.45,119.666 120.55,119.783 120.75,119.95 C121.217,120.35 121.617,120.7 121.95,121 L127.45,121 C133.316,120.467 140.6,119.733 149.3,118.8 C157.3,118.067 167.017,117.633 178.45,117.5 C178.684,117.3 179.017,117 179.45,116.6 Z M135.55,139.45 C141.084,140.116 146.717,140.417 152.45,140.349 C155.717,140.316 158.516,140.216 160.849,140.049 C160.722,140.018 160.622,140.001 160.549,139.999 L161.15,139.999 C161.983,139.933 162.766,139.849 163.5,139.749 L163.5,139.999 L164.2,139.999 C163.634,141.532 163.217,143.199 162.95,144.999 C162.683,146.899 162.433,149.499 162.2,152.799 C162.033,155.433 161.95,157.249 161.95,158.249 L161.95,160.249 C160.75,161.916 159.233,164.315 157.4,167.449 C152.933,175.082 150.283,179.365 149.45,180.299 C146.35,174.499 143.95,170.133 142.25,167.199 C140.55,164.265 138.95,161.883 137.45,160.049 L137.45,159.849 C137.117,154.783 136.95,150.999 136.95,148.499 C137.05,145.933 137.033,143.933 136.9,142.499 C136.767,141.065 136.316,140.05 135.55,139.45 Z M232.35,141.35 C232.217,140.784 232.234,140.25 232.401,139.75 C232.701,138.75 233.567,138.25 235.001,138.25 C238.234,138.25 241.368,140.05 244.401,143.65 C245.134,144.516 246.1,145.733 247.3,147.299 C247.368,147.379 247.436,147.454 247.5,147.525 C246.667,148.101 246.25,148.66 246.25,149.2 C246.25,149.233 246.65,149.599 247.45,150.3 C247.55,150.267 249.25,149.616 252.55,148.35 C254.074,147.712 255.241,147.138 256.05,146.625 C256.558,146.402 257.091,146.161 257.651,145.9 C262.118,143.799 266.751,142.75 271.55,142.75 C274.35,142.75 276.8,144.083 278.901,146.75 C280.534,148.783 281.35,150.4 281.35,151.6 C281.35,154.234 280.134,156.867 277.701,159.5 C276.934,160.267 273.135,160.967 266.301,161.6 C266.135,161.6 265.985,161.617 265.851,161.651 C265.818,161.584 265.785,161.534 265.751,161.501 C265.584,161.367 265.501,161.284 265.501,161.251 C254.401,161.218 247.451,160.084 244.651,157.851 C244.05,157.118 243.55,156.535 243.151,156.101 C242.884,155.568 242.384,154.952 241.651,154.251 C240.05,152.885 238.784,151.801 237.85,151.001 C234.184,147.7 232.35,144.483 232.35,141.35 Z M119.25,81.75 C116.917,81.85 114.95,82.667 113.35,84.2 C111.55,85.867 110.65,88.033 110.65,90.7 C110.65,91.933 111.283,93.433 112.55,95.2 C114.383,97.8 116.883,99.1 120.05,99.1 C123.584,99.1 125.917,97.833 127.05,95.3 C127.584,94.133 127.85,92.383 127.85,90.05 C127.85,87.283 126.95,85.15 125.15,83.65 C123.55,82.283 121.583,81.65 119.25,81.75 Z M11,159.75 C5.967,158.184 3.45,156.267 3.45,154 C3.45,149.167 7.066,146.75 14.3,146.75 C16.467,146.75 19.9,147.634 24.6,149.4 C29.3,151.133 31.916,152 32.45,152 C32.511,152 32.594,151.991 32.7,151.975 C33.26,152.192 33.91,152.3 34.65,152.3 C35.184,152.3 35.517,152.116 35.65,151.75 C35.679,151.607 35.729,151.383 35.8,151.075 C36.563,150.815 37.446,150.507 38.45,150.15 C41.916,148.883 43.933,148.25 44.5,148.25 C45.133,148.25 45.833,148.366 46.6,148.6 C47.367,148.8 47.816,149.017 47.95,149.25 C47.717,150.116 45.867,152.134 42.4,155.3 C39.1,158.401 37.45,160.25 37.45,160.85 L37.45,160.901 C37.316,161.001 37.166,161.117 37,161.251 C34.5,163.218 32.133,164.551 29.9,165.251 C29.934,165.117 29.95,164.968 29.95,164.801 C20.483,162.4 14.167,160.717 11,159.75 Z" id="Shape" fill="#FFD9AF"></path>
            <path d="M173.7,67.05 C171.867,64.484 170.95,61.85 170.95,59.15 C170.95,54.55 172.483,50.8 175.55,47.9 C178.384,45.267 181.767,43.917 185.7,43.85 C189.733,43.783 193.117,45.1 195.849,47.8 C195.916,47.867 195.966,47.933 195.999,48 C197.032,49.533 197.966,50.917 198.799,52.15 C199.9,54.584 200.449,57.45 200.449,60.75 C200.482,62.983 199.899,65.067 198.699,67 C196.299,70.833 191.999,72.75 185.799,72.75 C180.434,72.75 176.4,70.85 173.7,67.05 Z M178,50.45 C177.2,50.817 176.634,51.383 176.3,52.15 C175.533,52.617 174.967,53.267 174.6,54.1 C173.833,55.133 173.451,56.35 173.451,57.75 L174.751,61.05 C175.718,62.584 176.968,63.617 178.501,64.15 C179.334,64.717 180.734,65 182.701,65 C184.701,65 186.301,64.167 187.501,62.5 C188.468,61.167 188.951,59.833 188.951,58.5 C188.951,56.567 188.267,54.817 186.901,53.25 C185.701,51.883 184.217,50.933 182.451,50.4 C180.717,49.833 179.233,49.85 178,50.45 Z M179.85,54.45 C181.417,54.383 182.201,55.233 182.201,57 L182.201,57.35 C182.234,57.45 182.251,57.533 182.251,57.6 C182.218,57.867 182.101,58.15 181.901,58.45 C181.734,58.783 181.484,59.05 181.151,59.25 C180.584,59.65 179.85,59.833 178.951,59.8 L178.501,59.5 C178.468,59.6 178.451,59.517 178.451,59.25 C178.051,59.083 177.767,58.8 177.6,58.4 C177.5,58.133 177.451,57.7 177.451,57.1 C177.451,56.467 177.567,55.95 177.801,55.55 C178.001,55.15 178.301,54.867 178.701,54.7 C179.033,54.567 179.417,54.483 179.85,54.45 Z M175.5,114.25 L174.45,114.25 C173.05,114.25 165.033,114.85 150.4,116.05 C135.8,117.217 128.334,117.8 128,117.8 L124.95,117.75 L125,117.3 C126.667,115.2 129.4,113.133 133.2,111.1 C137.633,108.7 142.55,106.916 147.95,105.75 C158.15,105.75 165.033,106.8 168.599,108.9 C169.466,109.4 170.582,110.334 171.95,111.7 C173.15,112.867 174.333,113.717 175.5,114.25 Z M116.8,61.75 C115.567,61.75 114.95,61.167 114.95,60 C114.95,57.867 115.833,56.733 117.6,56.6 C119.367,56.467 120.25,57.1 120.25,58.5 C120.117,58.767 119.867,59.2 119.5,59.8 C118.767,61.1 117.867,61.75 116.8,61.75 Z M122.2,53.15 C120.833,52.084 119.166,51.584 117.2,51.65 C115.233,51.75 113.566,52.4 112.2,53.6 C110.7,54.933 109.95,56.7 109.95,58.9 C109.95,58.967 110.117,60.183 110.45,62.55 C111.383,64.85 113.383,66 116.45,66 C119.35,66 121.533,64.833 123,62.5 C123.967,60.967 124.45,59.467 124.45,58 C124.45,55.933 123.7,54.317 122.2,53.15 Z M114.15,46.95 C117.65,46.683 120.567,47.65 122.9,49.85 C125.533,52.383 126.85,56.133 126.85,61.1 C126.85,63.567 126.35,65.7 125.35,67.5 C123.217,71.333 119.2,73.25 113.3,73.25 C108.633,73.25 105.283,71.25 103.25,67.25 C102.05,64.883 101.45,62.3 101.45,59.5 C101.45,56.067 102.766,53.133 105.4,50.7 C107.867,48.433 110.783,47.183 114.15,46.95 Z" id="Shape" fill="#FFFFFF"></path>
            <path d="M173.85,83.6 C175.284,82.2 177.017,81.367 179.05,81.1 C181.151,80.833 182.901,81.283 184.3,82.45 C185.867,83.783 186.651,85.833 186.651,88.6 C186.651,90.666 186.35,92.267 185.751,93.4 C184.618,95.6 182.451,96.7 179.251,96.7 C175.784,96.7 173.451,95.5 172.251,93.1 C171.718,92.033 171.451,90.683 171.451,89.05 C171.45,86.95 172.25,85.133 173.85,83.6 Z M119.25,81.75 C121.583,81.65 123.55,82.283 125.15,83.65 C126.95,85.15 127.85,87.283 127.85,90.05 C127.85,92.383 127.583,94.133 127.05,95.3 C125.917,97.834 123.584,99.1 120.05,99.1 C116.883,99.1 114.383,97.8 112.55,95.2 C111.283,93.433 110.65,91.933 110.65,90.7 C110.65,88.033 111.55,85.867 113.35,84.2 C114.95,82.667 116.917,81.85 119.25,81.75 Z" id="Shape" fill="#FFA78A"></path>
            <path d="M169.45,160.35 C169.349,160.25 169.25,160.151 169.15,160.05 C170.183,159.184 171.4,158.184 172.799,157.05 C178.032,153.184 182.016,151.25 184.749,151.25 C193.216,151.25 201.683,166.55 210.149,197.15 C212.282,204.783 214.999,215.283 218.298,228.65 C219.932,234.883 221.298,239.099 222.399,241.299 C222.032,243.332 221.848,244.599 221.848,245.099 C221.848,245.166 221.949,245.283 222.149,245.45 C222.616,245.849 223.015,246.2 223.348,246.5 C223.848,245.3 224.348,244.05 224.848,242.75 C224.848,242.717 224.866,242.684 224.899,242.65 L225.199,242.299 C225.265,241.999 225.315,241.683 225.348,241.349 C227.081,236.283 228.532,230.533 229.699,224.099 C231.232,214.166 232.399,206.799 233.199,201.999 C233.899,197.832 235.848,189.183 239.049,176.049 C239.549,173.949 240.016,172.032 240.449,170.299 C240.549,170.365 240.666,170.433 240.799,170.499 C243.433,171.832 246.65,172.499 250.449,172.499 C252.315,172.499 253.848,172.433 255.049,172.299 C254.582,174.433 254.016,176.749 253.349,179.249 C252.249,183.349 251.082,188.782 249.849,195.549 C248.183,204.582 247.183,209.9 246.849,211.499 C241.45,253.865 234.983,275.049 227.45,275.049 C226.316,275.049 225.099,274.082 223.8,272.15 C223.833,271.983 223.85,271.816 223.85,271.65 C223.85,271.083 222.217,267.933 218.951,262.2 C214.984,255.233 212.401,250.516 211.201,248.05 C208.067,241.417 204.484,233.567 200.451,224.5 C199.517,222.434 198.651,220.483 197.85,218.65 L197.85,218.549 C197.85,218.515 197.868,218.499 197.901,218.499 L197.35,217.299 L197.25,217.299 C194.283,210.532 192.017,205.032 190.45,200.799 C189.583,198.699 188.717,196.716 187.849,194.849 C186.983,193.683 186.316,192.766 185.849,192.099 C185.183,191.566 184.466,191.283 183.7,191.249 C183.634,191.416 183.566,191.532 183.5,191.599 C183.467,191.633 183.45,191.883 183.45,192.349 C183.45,192.883 183.95,194.516 184.95,197.249 C185.65,199.149 186.3,200.482 186.9,201.249 C188.9,205.815 191.45,211.565 194.549,218.499 C194.416,218.832 194.349,219.449 194.349,220.349 C194.349,221.95 195.082,229.433 196.549,242.799 C198.049,256.499 199.15,265.65 199.849,270.249 C200.683,275.482 202.266,285.732 204.599,300.999 C206.332,310.433 208.082,316.349 209.849,318.749 C209.617,318.982 209.4,319.232 209.2,319.499 C207.766,321.232 203.933,323.082 197.7,325.049 C193.7,326.615 189.55,327.9 185.25,328.9 C178.017,330.599 169.884,331.549 160.85,331.75 C160.85,331.717 160.868,331.684 160.901,331.65 L161.201,331.299 C161.267,331.032 161.317,330.883 161.35,330.849 L161.35,329.999 C161.35,327.466 160.901,321.232 160,311.299 C159.233,302.733 158.684,297.15 158.35,294.549 L158.35,268.3 L156.85,240.25 L156.85,218.8 C156.517,216.8 156.35,213.616 156.35,209.25 C157.017,198.983 157.35,193.434 157.35,192.6 C157.35,191.767 156.784,189.684 155.651,186.35 C165.517,185.85 170.451,184.401 170.451,182 C170.451,180.2 169.801,178.634 168.501,177.3 C166.001,174.734 164.484,173.05 163.951,172.25 C167.584,171.384 170.184,170.616 171.751,169.95 C173.885,169.016 174.951,167.983 174.951,166.849 C173.117,164.384 171.283,162.217 169.45,160.35 Z M138.65,185.65 C139.25,185.95 140.184,186.233 141.45,186.5 L143.05,186.5 C143.117,186.634 143.217,186.8 143.35,187 L143.35,223 L143.85,224.5 L143.85,268.3 C143.916,268.6 144.083,269 144.35,269.5 L144.35,322 C144.583,322.6 144.767,324.517 144.9,327.75 C144.967,329.283 145.233,330.583 145.7,331.65 C129.7,331.349 117.717,330.45 109.75,328.95 C107.717,328.283 105.533,327.384 103.2,326.25 C101.133,325.783 99.4,324.816 98,323.35 C96.633,321.951 95.95,320.833 95.95,320 L95.95,319.95 C95.883,319.917 95.833,319.884 95.8,319.849 C97.2,310.383 98.867,297.45 100.8,281.049 C103.5,257.983 104.85,242.383 104.85,234.249 C104.517,227.615 104.35,222.699 104.35,219.499 C104.35,217.999 104.316,216.815 104.25,215.949 C104.983,214.115 105.816,212.115 106.75,209.949 C107.316,208.848 107.967,207.432 108.7,205.699 C110.2,202.098 110.95,199.865 110.95,198.999 C110.95,198.499 110.883,198.166 110.75,197.999 C110.583,197.865 110.5,197.782 110.5,197.749 C108.434,197.815 106.65,199.849 105.15,203.849 C104.283,206.216 103.75,208.15 103.55,209.65 C99.484,219.417 96.967,225.366 96,227.5 C94.1,231.833 91.033,240.917 86.8,254.75 C82.5,266.417 78.084,272.25 73.55,272.25 C71.05,272.25 67.334,265.017 62.4,250.55 C59.733,242.417 57.75,236.417 56.45,232.55 C54.183,225.717 52.35,220.783 50.95,217.75 C50.15,216.184 48.783,212.566 46.85,206.9 C44.55,200.299 42.633,195.183 41.1,191.549 C38.7,185.883 36.166,181.032 33.5,176.999 C36.1,176.832 38.684,175.916 41.25,174.249 C42.55,173.416 43.55,172.582 44.25,171.749 C45.117,173.082 46.083,174.532 47.15,176.099 C54.684,187.2 59.367,194.332 61.2,197.499 C63.266,201.099 66.516,208.582 70.95,219.949 C74.717,229.649 76.883,234.499 77.45,234.499 C77.95,234.499 78.3,234.383 78.5,234.149 L78.75,233.798 C78.883,233.998 78.95,233.682 78.95,232.848 C78.95,230.949 78.583,228.665 77.85,225.998 C80.283,213.798 83.416,201.598 87.25,189.398 C95.85,161.964 104.617,148.248 113.55,148.248 C116.75,148.248 119.967,149.148 123.2,150.948 C121.4,151.981 119.633,154.148 117.9,157.448 C115.934,161.215 114.95,163.648 114.95,164.748 C114.95,165.814 115.566,166.515 116.8,166.848 C118.834,167.415 122.984,167.482 129.25,167.048 C129.25,167.215 129.167,167.448 129,167.748 C128.233,168.882 127.066,170.898 125.5,173.798 C123.467,177.632 122.45,180.114 122.45,181.248 C122.45,181.981 123.283,182.731 124.95,183.498 C127.717,184.731 132.183,185.398 138.35,185.498 C138.45,185.533 138.55,185.583 138.65,185.65 Z" id="Shape" fill="#199F66"></path>
            <path d="M135.2,161.5 C135.266,161.667 135.35,161.833 135.45,162 C135.483,161.967 135.533,161.934 135.6,161.9 C136.666,164.133 138.283,167.299 140.45,171.4 C142.85,175.966 144.816,179.349 146.35,181.549 C145.983,181.516 145.6,181.499 145.2,181.499 C136.8,181.232 130.383,180.832 125.95,180.299 C126.483,178.966 127.933,176.249 130.3,172.15 C132.4,168.483 133.45,166.483 133.45,166.15 C133.55,165.783 133.4,165.417 133,165.049 C132.2,164.349 130.517,163.999 127.95,163.999 C122.283,163.999 119.3,163.916 119,163.749 C122.667,157.982 124.883,154.232 125.65,152.499 C126.684,153.199 127.717,153.999 128.75,154.899 C131.283,157.098 133.35,159.298 134.95,161.499 C135.017,161.5 135.1,161.5 135.2,161.5 Z M164.3,163.35 C164.867,162.384 165.317,161.901 165.651,161.901 C165.751,161.901 166.1,162.267 166.701,163.001 C166.834,163.101 166.968,163.218 167.1,163.351 C169.567,165.485 170.85,166.635 170.951,166.801 C168.484,167.935 165.468,169.117 161.901,170.351 C161.267,170.584 160.951,171.218 160.951,172.251 C160.951,173.685 161.684,175.034 163.151,176.301 C165.017,177.935 166.284,179.584 166.951,181.251 C163.651,181.685 159.385,182.117 154.151,182.551 L154.101,182.551 C153.667,182.652 153.351,182.701 153.151,182.701 C153.051,182.701 152.984,182.684 152.951,182.651 C152.384,182.684 151.817,182.734 151.251,182.8 C152.751,180.866 155.168,177.384 158.501,172.35 C160.768,168.884 162.551,166.1 163.851,164 C163.885,163.967 163.918,163.95 163.952,163.95 C164.05,163.783 164.167,163.583 164.3,163.35 Z M152.05,186.45 C152.55,186.45 153.05,186.433 153.55,186.4 C153.617,186.966 153.717,187.683 153.85,188.549 C154.183,190.683 154.35,191.949 154.35,192.349 C154.35,193.183 154.017,198.866 153.35,209.4 C153.35,214.167 153.517,217.7 153.85,220 L153.85,241 L155.35,269.05 L155.35,295.3 C155.75,298.934 156.083,306.401 156.35,317.7 C156.784,325.933 157.717,330.616 159.151,331.75 L157.35,331.75 C154.217,331.75 151.217,331.733 148.35,331.7 L148.35,330.599 C148.35,329.933 148.25,328.566 148.05,326.499 C147.817,324.266 147.584,322.449 147.35,321.049 L147.35,268.249 C147.083,267.782 146.916,267.383 146.85,267.049 L146.85,223.549 C146.65,223.15 146.483,222.65 146.35,222.049 L146.35,186.5 L151.95,186.5 C151.983,186.467 152.017,186.45 152.05,186.45 Z M241.3,166.65 C241.901,164.016 242.367,161.917 242.7,160.349 C243.033,160.549 243.384,160.766 243.75,160.999 C246.983,162.966 251.15,164.115 256.25,164.449 C256.117,165.949 255.9,167.615 255.6,169.449 C251.267,170.315 246.917,169.598 242.55,167.299 C242.083,167.066 241.667,166.85 241.3,166.65 Z M37.55,165.5 C38.184,164.967 38.717,164.467 39.15,164 C39.917,165.233 40.967,166.833 42.3,168.8 C41.3,170.033 40.684,170.7 40.45,170.8 C38.85,171.634 36.367,172.5 33,173.401 C32.333,173.567 31.783,173.767 31.35,174.001 C29.883,172.101 28.4,170.435 26.9,169.001 L26.95,169.001 C31.184,169 34.717,167.833 37.55,165.5 Z" id="Shape" fill="#097A4A"></path>
            <path d="M98.4,350.3 C99.133,347.1 99.983,340.517 100.95,330.55 L100.95,328.85 C101.55,329.05 102.183,329.267 102.85,329.5 C113.983,333.167 132.15,335 157.35,335 C169.151,335 181.6,333 194.701,329 C199.534,327.533 203.451,326.116 206.451,324.75 C206.684,326.184 207.284,329.95 208.251,336.05 C209.185,341.184 210.084,344.667 210.951,346.5 C211.017,346.667 211.067,346.85 211.1,347.05 C211.401,348.283 211.618,349.366 211.75,350.3 L98.4,350.3 Z" id="Shape" fill="#5B0000"></path>
        </g>
    </g>
</svg>
