<?xml version="1.0" encoding="UTF-8"?>
<svg width="471px" height="349px" viewBox="0 0 471 349" version="1.1" xmlns="http://www.w3.org/2000/svg" xmlns:xlink="http://www.w3.org/1999/xlink">
    <!-- Generator: Sketch 43.2 (39069) - http://www.bohemiancoding.com/sketch -->
    <title>painting</title>
    <desc>Created with Sketch.</desc>
    <defs></defs>
    <g id="Page-1" stroke="none" stroke-width="1" fill="none" fill-rule="evenodd">
        <g id="painting">
            <path d="M393.85,92.8 C395.384,92.767 396.701,93.167 397.8,94 C399,94.9 399.6,96.117 399.6,97.65 C399.6,98.584 398.917,99.584 397.55,100.65 C395.85,101.917 393.85,102.4 391.55,102.1 C390.484,101.2 389.717,100.517 389.25,100.05 C388.45,99.283 388.05,98.533 388.05,97.8 C388.05,96.234 388.651,94.984 389.85,94.05 C390.95,93.217 392.283,92.8 393.85,92.8 Z" id="Shape" fill="#F6BB23"></path>
            <path d="M385.35,118.5 C386.884,118.467 388.201,118.867 389.3,119.7 C390.5,120.6 391.1,121.817 391.1,123.35 C391.1,124.283 390.417,125.283 389.05,126.35 C387.35,127.617 385.35,128.1 383.05,127.8 C381.984,126.9 381.217,126.217 380.75,125.75 C379.95,124.983 379.55,124.233 379.55,123.5 C379.55,121.933 380.151,120.683 381.35,119.75 C382.45,118.917 383.783,118.5 385.35,118.5 Z M139,109.9 C138.4,109.033 137.75,107.467 137.05,105.2 C136.317,102.9 135.717,101.4 135.25,100.7 C137.483,101.666 140.083,103.083 143.05,104.95 C145.584,106.483 146.95,107.383 147.15,107.65 C147.183,107.717 147.334,108.1 147.6,108.8 C147.6,109.433 147.2,110.117 146.4,110.85 C146.067,111.05 145.783,111.283 145.55,111.55 C145.417,111.65 145.267,111.75 145.1,111.85 C144.133,112.517 142.933,112.5 141.5,111.8 C140.333,111.3 139.5,110.667 139,109.9 Z" id="Shape" fill="#CC2634"></path>
            <path d="M410.4,72.6 C411.5,71.767 412.833,71.35 414.4,71.35 C415.933,71.317 417.25,71.717 418.349,72.55 C419.549,73.45 420.15,74.667 420.15,76.2 C420.15,77.133 419.466,78.133 418.099,79.2 C416.4,80.467 414.4,80.95 412.099,80.65 C411.033,79.75 410.266,79.067 409.799,78.6 C408.999,77.833 408.599,77.083 408.599,76.35 C408.6,74.783 409.2,73.533 410.4,72.6 Z" id="Shape" fill="#292824"></path>
            <path d="M447.95,80.7 C449.083,79.266 449.65,77.766 449.65,76.2 C449.65,73.6 448.733,71.533 446.9,70 C445.266,68.633 443.266,67.95 440.9,67.95 C438.5,67.95 436.483,68.65 434.849,70.05 C433.016,71.617 432.099,73.717 432.099,76.35 C432.099,76.383 432.4,77.633 432.999,80.1 C434.266,82.6 436.633,83.85 440.099,83.85 C443.6,83.85 446.217,82.8 447.95,80.7 Z M452.9,86.2 C450.5,86.2 448.483,86.9 446.849,88.3 C445.016,89.867 444.099,91.967 444.099,94.6 C444.099,94.633 444.4,95.883 444.999,98.35 C446.266,100.85 448.633,102.1 452.099,102.1 C455.599,102.1 458.216,101.05 459.95,98.95 C461.083,97.516 461.65,96.016 461.65,94.45 C461.65,91.85 460.733,89.783 458.9,88.25 C457.267,86.883 455.267,86.2 452.9,86.2 Z M452.65,118.25 C452.65,115.65 451.733,113.583 449.9,112.05 C448.266,110.683 446.266,110 443.9,110 C441.5,110 439.483,110.7 437.849,112.1 C436.016,113.666 435.099,115.767 435.099,118.4 C435.099,118.433 435.4,119.683 435.999,122.15 C437.266,124.65 439.633,125.9 443.099,125.9 C446.599,125.9 449.216,124.85 450.95,122.75 C452.083,121.317 452.65,119.817 452.65,118.25 Z M414.4,67.95 C412,67.95 409.983,68.65 408.349,70.05 C406.516,71.617 405.599,73.717 405.599,76.35 C405.599,76.383 405.9,77.633 406.499,80.1 C407.766,82.6 410.133,83.85 413.599,83.85 C417.099,83.85 419.716,82.8 421.45,80.7 C422.583,79.266 423.15,77.766 423.15,76.2 C423.15,73.6 422.233,71.533 420.4,70 C418.767,68.633 416.767,67.95 414.4,67.95 Z M460.95,78.8 C463.384,82.767 465.2,87.183 466.4,92.05 C467.2,95.217 467.599,97.734 467.599,99.6 C467.599,108.1 465.516,115 461.349,120.3 C458.383,124.067 453.799,127.517 447.599,130.65 C439.099,134.917 434.516,137.283 433.849,137.75 C430.582,140.05 428.599,142.8 427.9,146 C426.133,143.833 423.533,141.833 420.099,140 L420.099,139.85 C420.099,138.15 419.033,136.883 416.9,136.05 C414.866,135.283 412.516,135.133 409.849,135.6 C406.983,136.067 404.633,137.117 402.799,138.75 C400.666,140.617 399.599,142.983 399.599,145.85 C399.599,145.916 399.766,147.3 400.099,150 C400.533,151.8 401.216,153 402.15,153.6 C402.116,153.6 402.083,153.617 402.049,153.65 C400.383,155.783 398.299,157.2 395.799,157.9 C387.4,155.433 381.233,149.617 377.299,140.45 C374.466,133.783 373.049,126.383 373.049,118.25 C373.049,106.883 376.099,96.967 382.199,88.5 C385.666,83.667 391.115,78.367 398.549,72.6 C408.816,64.567 417.782,60.55 425.449,60.55 C441.616,60.55 453.45,66.633 460.95,78.8 Z M339,58.85 C339,56.916 338.316,55.166 336.95,53.6 C335.75,52.233 334.266,51.283 332.5,50.75 C331.8,50.517 331.134,50.383 330.5,50.35 C329.6,50.217 328.634,50.367 327.6,50.8 C324.767,51.933 323.35,54.35 323.35,58.05 C323.35,59.45 323.85,60.783 324.85,62.05 C325.817,63.283 327.134,64.15 328.8,64.65 C329.634,65.117 330.95,65.35 332.75,65.35 C334.75,65.35 336.35,64.517 337.55,62.85 C338.517,61.517 339,60.183 339,58.85 Z M323.75,67.4 C321.917,64.834 321,62.2 321,59.5 C321,54.9 322.533,51.15 325.6,48.25 C328.434,45.617 331.817,44.267 335.75,44.2 C339.783,44.133 343.167,45.45 345.9,48.15 C345.966,48.217 346.016,48.283 346.049,48.35 C347.082,49.883 348.016,51.267 348.849,52.5 C349.95,54.933 350.499,57.8 350.499,61.1 C350.532,63.333 349.949,65.416 348.749,67.35 C346.349,71.183 342.049,73.1 335.849,73.1 C330.483,73.1 326.45,71.2 323.75,67.4 Z M327.65,58.75 C327.549,58.483 327.5,58.05 327.5,57.45 C327.5,56.817 327.616,56.3 327.85,55.9 C328.05,55.5 328.35,55.217 328.75,55.05 C329.083,54.917 329.467,54.834 329.9,54.8 C331.466,54.734 332.25,55.584 332.25,57.35 L332.25,57.7 C332.283,57.8 332.3,57.883 332.3,57.95 C332.267,58.217 332.151,58.5 331.95,58.8 C331.783,59.133 331.533,59.4 331.2,59.6 C330.634,60 329.9,60.183 329,60.15 L328.55,59.85 C328.517,59.95 328.5,59.867 328.5,59.6 C328.1,59.433 327.816,59.15 327.65,58.75 Z M399.85,91.45 C398.217,90.083 396.217,89.4 393.85,89.4 C391.451,89.4 389.434,90.1 387.8,91.5 C385.967,93.067 385.05,95.167 385.05,97.8 C385.05,97.834 385.35,99.084 385.95,101.55 C387.217,104.05 389.583,105.3 393.05,105.3 C396.55,105.3 399.167,104.25 400.901,102.15 C402.034,100.717 402.6,99.217 402.6,97.65 C402.6,95.05 401.684,92.983 399.85,91.45 Z M391.35,117.15 C389.717,115.783 387.717,115.1 385.35,115.1 C382.951,115.1 380.934,115.8 379.3,117.2 C377.467,118.766 376.55,120.867 376.55,123.5 C376.55,123.533 376.85,124.783 377.45,127.25 C378.717,129.75 381.083,131 384.55,131 C388.05,131 390.667,129.95 392.401,127.85 C393.534,126.416 394.1,124.916 394.1,123.35 C394.1,120.75 393.184,118.683 391.35,117.15 Z M133.5,38.4 L135.75,38.05 L165.65,37.55 L189.5,37.65 C191.267,38.05 192.783,38.217 194.05,38.15 C194.183,43.35 195.433,51.95 197.8,63.95 C199.167,70.75 200.9,79.2 203,89.3 C203.167,90.2 204.867,98.883 208.1,115.35 C210.2,126.083 211.666,134.8 212.5,141.5 C212.684,142.961 212.884,144.594 213.1,146.4 C214.57,158.613 216.787,178.663 219.75,206.55 C219.783,206.95 219.833,207.366 219.9,207.8 C217.2,202.667 213.9,196.95 210,190.651 C206.5,184.984 202.15,178.284 196.95,170.55 C196.416,169.75 195.933,169.033 195.5,168.4 C199.167,170.667 201.833,171.233 203.5,170.1 C205.733,168.6 206.667,167.017 206.3,165.35 C206.167,164.883 205.433,163.633 204.1,161.6 C202.267,158.933 198.7,155 193.4,149.8 C192.267,148.7 191.133,147.617 190,146.55 L190,146 C190,145.794 189.767,144.62 189.3,142.475 C189.081,141.486 188.815,140.294 188.5,138.9 C187.433,134.167 186.833,131.334 186.7,130.4 C186.5,129.433 186.1,128.5 185.5,127.6 C185.067,127 184.567,126.433 184,125.9 C183.433,125.367 182.8,124.867 182.1,124.4 C179.767,122.867 177.017,121.767 173.85,121.1 C170.783,120.467 168.166,120.433 166,121 C165.133,121.233 164.433,121.55 163.9,121.95 C161,119.05 159.283,117.283 158.75,116.65 C158.683,116.617 158.633,116.584 158.6,116.55 C157.933,115.85 157.267,115.4 156.6,115.2 C156.6,114.733 156.517,114.383 156.35,114.15 C154.683,111.683 152.883,110.267 150.95,109.9 L150.95,109.35 C150.916,108.35 150.45,107.183 149.55,105.85 C148.95,104.95 146.85,103.483 143.25,101.45 C139.117,99.15 137.017,97.983 136.95,97.95 C135.65,97.016 134.666,96.317 134,95.85 C132.867,95.017 132.033,94.2 131.5,93.4 C130.233,92 129.083,91.917 128.05,93.15 C127.05,94.45 127.033,95.8 128,97.2 C130.2,99.266 131.4,100.433 131.6,100.7 C132.7,102.333 133.567,104.217 134.2,106.35 C134.833,108.483 135.666,110.317 136.7,111.85 C136.733,111.883 137.733,112.783 139.7,114.55 C141.2,115.317 142.75,115.567 144.35,115.3 C144.45,115.933 144.733,116.584 145.2,117.25 C145.266,117.35 146.133,118.367 147.8,120.3 C149.1,121.334 150.267,121.834 151.3,121.8 C151.533,122.167 151.817,122.6 152.15,123.1 L165.15,138.75 C165.45,139.083 165.733,139.433 166,139.8 C165.667,139.667 165.333,139.55 165,139.45 C160.5,138.25 158.25,139.983 158.25,144.65 C158.25,146.917 158.883,148.9 160.15,150.6 C160.729,151.371 161.579,152.263 162.7,153.275 C163.888,154.346 165.388,155.554 167.2,156.9 C168.233,157.667 170.1,160 172.8,163.9 C173.867,165.433 174.717,166.65 175.35,167.55 C175.283,167.817 175.25,168.15 175.25,168.55 L177.25,172.4 C177.717,173.3 178.117,174.05 178.45,174.65 C178.45,174.817 178.467,175 178.5,175.2 C178.567,175.833 178.633,176.45 178.7,177.05 C182.5,182.95 185.266,188.384 187,193.35 C188.333,197.35 190.2,202 192.6,207.3 C193.267,208.833 195.416,213.434 199.05,221.1 C202.017,227.401 205.084,235.417 208.25,245.151 C205.65,245.217 202.733,245.251 199.5,245.251 L144.9,244.851 L113.5,242.501 L100.15,242.351 C92.717,242.152 87.334,242.001 84,241.902 C83.495,241.883 82.97,241.867 82.425,241.851 C76.887,241.62 69.412,241.169 60,240.501 L45.9,240.351 L43.95,240 L30.95,239.85 C30.856,239.841 30.689,239.825 30.45,239.8 C29.403,239.656 26.945,239.298 23.075,238.725 C21.32,238.459 19.279,238.151 16.95,237.8 C16.151,237.682 15.442,237.615 14.825,237.6 L14.6,237.6 C14.609,237.483 14.617,237.366 14.625,237.25 C17.35,201.236 19.941,165.853 22.4,131.1 C26.067,79.333 28.067,48.183 28.4,37.65 C29.967,37.617 33.4,37.533 38.7,37.4 C43.533,37.267 46.45,37.267 47.45,37.4 L68.15,37.55 C68.883,37.617 73.117,37.75 80.85,37.95 C87.25,38.083 91.967,38.4 95,38.9 L114,38.9 L116.65,38.55 L133.5,38.4 Z M265,60.35 C265,58.217 265.884,57.083 267.65,56.95 C269.416,56.817 270.299,57.45 270.299,58.85 C270.166,59.117 269.916,59.55 269.549,60.15 C268.816,61.45 267.916,62.1 266.849,62.1 C265.616,62.1 265,61.517 265,60.35 Z M253.3,67.6 C252.1,65.233 251.5,62.65 251.5,59.85 C251.5,56.416 252.816,53.483 255.45,51.05 C257.917,48.783 260.833,47.533 264.2,47.3 C267.7,47.033 270.616,48 272.95,50.2 C275.583,52.733 276.9,56.483 276.9,61.45 C276.9,63.916 276.4,66.05 275.4,67.85 C273.266,71.683 269.25,73.6 263.349,73.6 C258.684,73.6 255.333,71.6 253.3,67.6 Z M262.25,53.95 C260.75,55.283 260,57.05 260,59.25 C260,59.317 260.167,60.533 260.5,62.9 C261.434,65.2 263.434,66.35 266.5,66.35 C269.4,66.35 271.583,65.183 273.05,62.85 C274.017,61.317 274.5,59.817 274.5,58.35 C274.5,56.283 273.75,54.666 272.25,53.5 C270.884,52.433 269.217,51.933 267.25,52 C265.283,52.1 263.616,52.75 262.25,53.95 Z M177,136.6 C176.933,136.567 176.883,136.55 176.85,136.55 C176.783,136.484 176.733,136.417 176.7,136.35 C176.767,136.417 176.867,136.5 177,136.6 Z" id="Shape" fill="#FFFFFF"></path>
            <path d="M447.95,80.7 C446.217,82.8 443.599,83.85 440.099,83.85 C436.633,83.85 434.266,82.6 432.999,80.1 C432.399,77.633 432.099,76.383 432.099,76.35 C432.099,73.717 433.016,71.617 434.849,70.05 C436.483,68.65 438.499,67.95 440.9,67.95 C443.266,67.95 445.266,68.633 446.9,70 C448.733,71.533 449.65,73.6 449.65,76.2 C449.65,77.767 449.083,79.267 447.95,80.7 Z M447.1,94.6 C447.1,95.333 447.5,96.083 448.3,96.85 C448.767,97.317 449.533,98 450.6,98.9 C452.901,99.2 454.901,98.717 456.6,97.45 C457.967,96.383 458.651,95.383 458.651,94.45 C458.651,92.916 458.05,91.7 456.85,90.8 C455.75,89.967 454.434,89.567 452.901,89.6 C451.334,89.6 450.001,90.017 448.901,90.85 C447.7,91.783 447.1,93.033 447.1,94.6 Z M452.9,86.2 C455.266,86.2 457.266,86.883 458.9,88.25 C460.733,89.783 461.65,91.85 461.65,94.45 C461.65,96.016 461.083,97.516 459.95,98.95 C458.217,101.05 455.599,102.1 452.099,102.1 C448.633,102.1 446.266,100.85 444.999,98.35 C444.399,95.883 444.099,94.633 444.099,94.6 C444.099,91.967 445.016,89.867 446.849,88.3 C448.483,86.9 450.5,86.2 452.9,86.2 Z M447.85,114.6 C446.75,113.767 445.434,113.367 443.901,113.4 C442.334,113.4 441.001,113.817 439.901,114.65 C438.701,115.584 438.1,116.834 438.1,118.4 C438.1,119.133 438.5,119.883 439.3,120.65 C439.767,121.117 440.533,121.8 441.6,122.7 C443.901,123 445.901,122.516 447.6,121.25 C448.967,120.183 449.651,119.183 449.651,118.25 C449.65,116.717 449.05,115.5 447.85,114.6 Z M452.65,118.25 C452.65,119.817 452.083,121.317 450.95,122.75 C449.217,124.85 446.599,125.9 443.099,125.9 C439.633,125.9 437.266,124.65 435.999,122.15 C435.399,119.683 435.099,118.433 435.099,118.4 C435.099,115.767 436.016,113.667 437.849,112.1 C439.483,110.7 441.499,110 443.9,110 C446.266,110 448.266,110.683 449.9,112.05 C451.733,113.583 452.65,115.65 452.65,118.25 Z M59,348.55 L54.95,348.55 C56.05,341.017 57.416,332 59.05,321.5 C64.55,286.066 67.967,262.417 69.3,250.55 C56.3,249.984 46.6,249.55 40.2,249.25 C13.7,248.017 0.45,245.934 0.45,243 C0.45,239.8 1,236.917 2.1,234.35 C4.067,229.75 7.367,228.05 12,229.25 C12.833,218.384 13.85,203.634 15.05,185 C16.484,162.467 17.683,145.4 18.65,133.8 C19.783,119.667 21.05,102.567 22.45,82.5 C23.25,71.133 23.75,62.633 23.95,57 C24.083,51.467 24.333,47.183 24.7,44.15 C25.266,39.783 26.05,36.683 27.05,34.85 C27.45,34.15 27.783,33.817 28.05,33.85 C28.317,33.916 28.45,34.35 28.45,35.15 C28.883,34.917 29.483,34.767 30.25,34.7 C31.117,34.633 36.583,34.5 46.65,34.3 L67.5,34.4 C70.433,34.967 74.817,35.317 80.65,35.45 C89.05,35.65 93.584,35.766 94.25,35.8 L114.9,35.8 L117.5,35.4 L134.25,35.3 L136.5,34.9 L160.9,34.8 L168,34.4 L189,34.4 C189.3,34.467 190.55,34.55 192.75,34.65 C193.25,34.717 193.717,34.817 194.15,34.95 C194.383,33.416 195,33.467 196,35.1 C196.333,35.666 196.667,36.333 197,37.1 L197,37.15 C197.9,39.35 198.65,42.35 199.25,46.15 C199.417,47.117 199.667,49.25 200,52.55 C200.3,55.383 200.633,57.633 201,59.3 C201.767,62.834 202.583,67.217 203.45,72.45 C203.95,75.45 204.633,79.817 205.5,85.55 C206.4,91.017 208.033,99.85 210.4,112.05 C212.6,123.317 214.183,132.133 215.15,138.5 C216.25,145.833 217.417,154.633 218.65,164.9 C219.35,170.8 220.383,179.616 221.75,191.35 C222.217,195.151 223.667,204.884 226.1,220.55 C226.9,215.317 228.467,208.517 230.8,200.151 C232.533,193.884 234.183,188.451 235.75,183.85 C236.417,178.417 238.816,173.084 242.95,167.85 C249.816,159.217 259.849,154.517 273.05,153.75 C277.616,153.683 280.984,153.817 283.151,154.15 C283.084,153.817 283.05,153.483 283.05,153.15 L283.05,152.75 C283.017,152.55 282.984,152.333 282.95,152.1 L282.95,151.9 C282.983,146.633 283,142.75 283,140.25 L283.05,139.45 C280.583,139.083 278.151,138.633 275.75,138.1 C273.884,137.7 271.7,137.367 269.2,137.1 C267.733,136.933 266.167,136.517 264.5,135.85 C262.333,134.95 260.417,133.483 258.75,131.45 C257.217,129.617 256.4,128 256.3,126.6 C256.134,124.5 255.75,121.383 255.151,117.25 C254.55,112.717 254.168,109.683 254.001,108.15 C253.668,104.917 253.151,98.183 252.451,87.95 C251.484,88.883 250.834,89.35 250.501,89.35 C249.135,89.35 248.268,88 247.901,85.3 C247.734,82.133 247.534,80.067 247.3,79.1 C246.033,80.267 244.934,80.85 244,80.85 C241.9,80.85 240.7,78.867 240.4,74.9 C240.466,70.067 240.5,66.817 240.5,65.15 L240.3,64.85 C240.1,64.983 239.384,65.533 238.151,66.5 C237.384,67.067 236.751,67.35 236.251,67.35 C235.317,67.35 234.751,66.916 234.551,66.05 C234.518,65.15 234.501,64.667 234.501,64.6 C234.501,60.166 236.084,55.217 239.251,49.75 C239.918,48.583 240.551,47.617 241.151,46.85 L241.001,46.85 C239.567,46.85 238.734,46.517 238.501,45.85 L238.501,44.7 C238.501,43.833 239.001,42.633 240.001,41.1 C240.201,40.8 241.051,39.633 242.551,37.6 L242.801,37.35 C241.601,38.117 240.801,38.6 240.402,38.8 C239.768,39.167 239.218,39.35 238.752,39.35 C238.219,39.35 237.818,39.317 237.552,39.25 L237.252,39.1 C237.252,39.033 237.219,38.883 237.152,38.65 C237.051,38.45 237.002,38.1 237.002,37.6 C237.002,36.033 238.752,33.65 242.252,30.45 C244.985,27.916 247.919,25.633 251.052,23.6 C249.386,22.967 248.236,22.483 247.602,22.15 C246.536,21.65 246.002,21 246.002,20.2 C246.002,19.967 246.686,19.4 248.052,18.5 C249.686,17.433 251.552,16.467 253.653,15.6 C259.92,13.033 266.219,12.2 272.552,13.1 C271.785,12 271.002,11.117 270.202,10.45 C269.735,10.05 269.502,9.683 269.502,9.35 C269.502,6.183 272.769,5.283 279.302,6.65 C283.569,7.517 286.719,8.467 288.752,9.5 C289.485,7.933 292.002,6.267 296.302,4.5 C302.136,2.067 308.868,0.683 316.502,0.35 C317.235,0.483 317.702,0.8 317.902,1.3 C317.968,1.433 318.002,1.734 318.002,2.2 C318.002,2.967 317.818,3.6 317.452,4.1 C316.785,4.833 316.152,5.517 315.552,6.15 L315.302,6.6 C325.802,6.2 333.368,6.416 338.002,7.25 C340.769,7.75 342.602,8.533 343.502,9.6 C343.002,10.5 341.419,11.433 338.752,12.4 C335.019,13.733 333.019,14.467 332.752,14.6 C341.219,16.5 349.436,21 357.402,28.1 C364.801,34.7 368.502,40.067 368.502,44.2 C368.502,45.3 367.919,45.85 366.752,45.85 C366.318,45.85 365.818,45.683 365.252,45.35 C364.552,44.95 363.985,44.7 363.552,44.6 C365.519,51.267 366.618,55.183 366.852,56.35 C367.286,58.55 367.502,61.883 367.502,66.35 L367.502,72.2 C367.102,75.3 365.936,76.85 364.002,76.85 C363.002,76.85 362.269,76.467 361.802,75.7 C361.535,74.933 361.368,74.5 361.302,74.4 L359.102,84.05 C358.102,88.584 356.819,90.85 355.252,90.85 C354.318,90.85 353.602,90.517 353.102,89.85 C352.669,88.983 352.302,88.333 352.002,87.9 C351.568,89.267 351.136,90.4 350.702,91.3 C349.902,93 348.669,93.85 347.002,93.85 C346.636,93.85 346.252,93.833 345.852,93.8 C344.653,101.4 343.969,106.433 343.802,108.9 C343.569,112.067 342.802,117.817 341.502,126.15 C341.335,127.017 340.868,128.4 340.102,130.3 C339.136,132.667 338.536,134.183 338.302,134.85 C338.202,135.183 338.136,135.733 338.102,136.5 C337.869,137.233 337.153,137.833 335.953,138.3 C332.986,139.467 326.503,140.133 316.503,140.3 L316.503,140.6 C316.503,143.7 316.286,147.517 315.853,152.05 C315.687,153.75 315.553,155.283 315.454,156.65 C329.987,154.584 341.537,157.667 350.103,165.9 C351.37,167.133 352.537,168.433 353.603,169.8 C353.87,170.267 354.187,170.8 354.553,171.4 C356.52,175.033 357.904,178.417 358.703,181.55 C358.836,182.05 359.003,182.817 359.203,183.85 C360.403,186.75 361.319,189.634 361.953,192.5 C362.387,194.366 362.786,196.066 363.153,197.6 C364.653,202.901 366.619,209.75 369.052,218.151 C371.118,225.217 372.686,230.634 373.752,234.401 C374.886,228.3 376.585,219.701 378.852,208.6 C382.319,191.634 385.236,178.134 387.602,168.1 C387.536,167.933 387.502,167.767 387.502,167.6 C387.502,166.567 387.719,165.95 388.152,165.75 C388.585,163.917 389.002,162.233 389.402,160.7 C389.301,160.567 389.235,160.416 389.202,160.25 C383.202,157.65 378.368,150.983 374.702,140.25 C373.136,135.75 371.902,130.817 371.002,125.45 C370.368,121.75 370.052,119.35 370.052,118.25 C370.052,106.85 372.035,97.433 376.002,90 C381.568,79.633 391.602,70.983 406.102,64.05 C428.469,53.383 445.802,55.133 458.102,69.3 C462.269,74.1 465.552,80 467.953,87 C469.72,92.233 470.602,96.4 470.602,99.5 C470.602,103.067 469.386,107.95 466.953,114.15 C464.42,120.65 461.92,124.85 459.453,126.75 C456.619,128.95 453.486,131.033 450.053,133 C446.187,135.2 442.57,136.883 439.203,138.05 C436.036,139.15 433.803,141.15 432.503,144.05 C432.137,144.85 431.67,146.017 431.103,147.55 C430.77,148.317 430.387,149 429.954,149.6 C430.388,150.8 430.603,152.05 430.603,153.35 C430.603,156.617 429.704,159.133 427.904,160.9 C425.704,163.067 421.103,165.433 414.103,168 L408.954,168 L408.954,168.05 C408.987,168.084 409.037,168.1 409.103,168.1 C409.003,168.433 408.92,168.767 408.853,169.1 C408.753,170 408.62,171.083 408.454,172.35 L408.154,172.7 C408.087,172.766 408.004,172.833 407.904,172.9 C406.37,178.9 404.887,185.866 403.454,193.8 C402.254,200.333 400.57,210.017 398.404,222.85 C398.07,224.684 397.004,229.384 395.204,236.951 C393.737,243.084 392.837,247.984 392.504,251.651 C391.904,258.251 391.021,263.317 389.854,266.85 C387.254,274.85 383.104,278.85 377.405,278.85 C374.971,278.85 372.838,277.434 371.005,274.6 C370.571,273.901 370.205,273.267 369.905,272.701 C367.405,270.468 364.221,264.934 360.354,256.1 C354.655,241.934 350.754,232.517 348.655,227.85 C348.455,227.417 348.271,226.984 348.104,226.55 C348.471,230.717 349.104,236.884 350.004,245.05 C351.438,258.317 352.404,266.517 352.904,269.651 C353.57,273.684 355.57,282.934 358.904,297.401 C361.137,307.001 362.537,313.418 363.103,316.651 C363.637,316.717 363.904,317.367 363.904,318.6 C363.904,320.367 362.07,322.217 358.404,324.151 C359.87,326.251 360.954,329.251 361.654,333.151 C362.087,335.617 362.687,339.184 363.454,343.85 C363.987,344.517 364.37,345.451 364.603,346.651 C364.704,347.084 364.787,347.717 364.853,348.55 L361.454,348.55 C361.353,348.217 361.27,347.866 361.204,347.5 C361.171,347.467 361.154,347.434 361.154,347.4 C361.12,347.2 361.07,347.016 361.004,346.849 C360.138,345.016 359.237,341.533 358.304,336.4 C357.337,330.299 356.738,326.533 356.504,325.099 C353.504,326.466 349.587,327.883 344.754,329.349 C331.654,333.349 319.204,335.349 307.404,335.349 C282.204,335.349 264.037,333.516 252.904,329.849 C252.237,329.616 251.603,329.4 251.004,329.2 L251.004,330.9 C250.271,338.299 249.62,343.833 249.054,347.5 C248.988,347.866 248.921,348.217 248.854,348.55 L246.155,348.55 C246.288,347.116 246.521,345.067 246.854,342.401 C247.321,338.467 247.621,336.117 247.754,335.35 C247.987,332.817 248.421,330.5 249.054,328.401 C247.62,327.767 246.405,327.117 245.405,326.451 C245.304,326.251 245.205,326.051 245.104,325.85 C244.038,323.75 243.254,321.784 242.754,319.951 C242.82,319.918 242.904,319.901 243.004,319.901 C242.971,319.867 242.954,319.834 242.954,319.8 C242.921,318.734 242.904,318.167 242.904,318.1 C242.904,316.267 243.353,312.417 244.254,306.55 C245.754,296.651 246.721,290.017 247.154,286.651 C249.987,265.317 251.404,244.217 251.404,223.35 L251.404,223.201 C249.337,228.135 248.204,230.85 248.004,231.35 C247.471,232.684 246.171,236.567 244.104,243 C242.138,249.2 240.405,254.134 238.905,257.8 C233.938,269.833 228.721,275.85 223.255,275.85 C219.088,275.85 215.772,272.117 213.305,264.651 C212.572,262.384 211.788,259.35 210.955,255.55 C210.921,255.484 210.905,255.401 210.905,255.3 C209.505,255.366 208.038,255.434 206.505,255.5 L178.005,255.75 C177.072,255.816 176.255,255.866 175.555,255.9 C176.822,258.733 177.788,262.383 178.455,266.849 C178.822,270.082 179.822,275.582 181.455,283.349 C182.122,286.549 183.188,291.983 184.655,299.65 C185.988,306.65 187.072,312.099 187.905,316 C190.938,330.167 193.488,341.017 195.555,348.55 L192,348.55 C188.833,334.384 186.633,324.651 185.4,319.35 C183.267,310.317 180.517,297.867 177.15,282 C173.95,266.9 172.233,258.25 172,256.05 C168.833,256.083 166.067,256.134 163.7,256.2 C164.766,258.766 166.016,262.45 167.45,267.25 C167.817,270.417 168.717,275.917 170.15,283.75 C170.85,287.75 172.1,293.283 173.9,300.35 C176.1,308.984 177.45,314.451 177.95,316.75 C179.516,323.884 181.817,334.483 184.85,348.55 L181.5,348.55 C178.767,334.95 176.833,325.517 175.7,320.25 C174.766,315.917 171.867,303.417 167,282.75 C163.5,267.917 161.517,259.083 161.05,256.25 C157.65,256.316 155.4,256.333 154.3,256.3 C152.167,256.267 148.383,255.583 142.95,254.25 L128.45,254 L127.2,253.7 L126.95,254.349 L126.95,296.749 C126.717,299.249 126.483,302.699 126.25,307.099 C126.05,310.966 125.95,313.316 125.95,314.15 C125.95,319.45 126.033,323.65 126.2,326.75 C126.4,331.25 126.817,335.366 127.45,339.1 L127.45,348.55 L124.45,348.55 L124.45,339.85 C123.45,333.75 122.95,325.184 122.95,314.151 C122.95,313.317 123.05,310.884 123.25,306.85 C123.483,302.284 123.717,298.667 123.95,296 L123.95,253.6 L117.9,253.55 C118.4,255.25 118.633,257.283 118.6,259.651 C118.6,261.918 118.383,265.317 117.95,269.85 L117.95,295.35 C118.083,296.117 118.25,297.25 118.45,298.75 L118.45,346.35 L118.45,348.55 L115.15,348.55 C115.25,347.484 115.35,346.417 115.45,345.35 L115.45,314.25 C115.117,314.95 114.95,314.884 114.95,314.05 C115.283,306.184 115.283,300.25 114.95,296.25 L114.95,269.25 C115.317,267.616 115.467,264.35 115.4,259.45 C115.367,257.083 115.467,255.116 115.7,253.55 L109.45,253.5 C102.783,252.634 94.283,251.9 83.95,251.3 L83.95,252.05 C83.95,253.517 80.983,275.083 75.05,316.75 C74.55,320.217 73.8,325.55 72.8,332.75 C71.9,338.85 70.984,344.116 70.05,348.55 L66.05,348.55 C67.117,341.517 68.4,333.217 69.9,323.651 C75.6,287.017 79.25,262.85 80.85,251.151 C79.183,251.05 77.5,250.951 75.8,250.85 C74.667,250.784 73.55,250.734 72.45,250.701 L72.45,252.35 C72.45,253.484 71.333,262.417 69.1,279.151 C66.833,296.217 65.117,308.534 63.95,316.1 C61.117,334.767 59.483,345.401 59.05,348 C59.017,348.167 59,348.35 59,348.55 Z M46.45,243.5 C41.944,242.595 37.935,241.978 34.425,241.65 C32.118,241.443 30.027,241.36 28.15,241.4 C25.659,241.444 23.325,241.435 21.15,241.375 C18.4,241.3 15.9,241.142 13.65,240.9 C13.45,240.966 13.217,241 12.95,241 C12.45,241 12.133,240.95 12,240.85 C11.867,240.651 11.683,240.484 11.45,240.35 L11.45,236.25 C11.55,235.017 11.666,233.7 11.8,232.3 L5.3,232.75 C4.6,233.45 4.234,234.333 4.2,235.4 C4.166,236.966 4.083,237.95 3.95,238.349 L3.95,242.349 C5.15,242.616 20.633,243.799 50.4,245.9 C82.6,248.167 102.183,249.65 109.15,250.349 L126.45,250.499 L128.15,250.849 L142.45,250.999 C145.25,250.933 149.117,251.199 154.05,251.799 C159.283,252.433 165.4,252.749 172.4,252.749 C172.5,252.582 172.617,252.466 172.75,252.399 C172.983,252.298 173.267,252.416 173.6,252.749 C174.633,252.716 176.267,252.633 178.5,252.499 L206.65,252.249 C207.383,252.216 208.567,252.133 210.2,251.999 C209.766,250.099 209.467,248.899 209.3,248.399 C206.433,248.465 203.25,248.499 199.75,248.499 L145.5,248 C138.944,247.632 132.944,247.24 127.5,246.825 C122.598,246.434 118.148,246.026 114.15,245.599 L100.5,245.499 C93.233,245.299 88.25,245.149 85.55,245.049 C81.417,244.916 73.484,244.433 61.75,243.599 L46.45,243.5 Z M460.95,78.8 C453.45,66.633 441.616,60.55 425.45,60.55 C417.783,60.55 408.816,64.567 398.55,72.6 C391.116,78.367 385.667,83.666 382.2,88.5 C376.099,96.967 373.05,106.883 373.05,118.25 C373.05,126.383 374.467,133.783 377.3,140.45 C381.234,149.617 387.401,155.433 395.8,157.9 C398.3,157.2 400.384,155.783 402.05,153.65 C402.083,153.617 402.116,153.6 402.151,153.6 C401.217,153 400.534,151.8 400.1,150 C399.767,147.3 399.6,145.917 399.6,145.85 C399.6,142.983 400.667,140.617 402.8,138.75 C404.634,137.117 406.984,136.067 409.85,135.6 C412.517,135.133 414.867,135.283 416.901,136.05 C419.034,136.883 420.1,138.15 420.1,139.85 L420.1,140 C423.534,141.833 426.134,143.833 427.901,146 C428.6,142.8 430.584,140.05 433.85,137.75 C434.517,137.283 439.1,134.917 447.6,130.65 C453.8,127.517 458.384,124.067 461.35,120.3 C465.517,115 467.6,108.1 467.6,99.6 C467.6,97.733 467.201,95.217 466.401,92.05 C465.2,87.183 463.384,82.767 460.95,78.8 Z M414.4,67.95 C416.766,67.95 418.766,68.633 420.4,70 C422.233,71.533 423.15,73.6 423.15,76.2 C423.15,77.766 422.583,79.266 421.45,80.7 C419.717,82.8 417.099,83.85 413.599,83.85 C410.133,83.85 407.766,82.6 406.499,80.1 C405.899,77.633 405.599,76.383 405.599,76.35 C405.599,73.717 406.516,71.617 408.349,70.05 C409.983,68.65 412,67.95 414.4,67.95 Z M410.4,72.6 C409.2,73.533 408.599,74.783 408.599,76.35 C408.599,77.083 408.999,77.833 409.799,78.6 C410.266,79.067 411.032,79.75 412.099,80.65 C414.4,80.95 416.4,80.467 418.099,79.2 C419.466,78.133 420.15,77.133 420.15,76.2 C420.15,74.666 419.549,73.45 418.349,72.55 C417.249,71.717 415.933,71.317 414.4,71.35 C412.833,71.35 411.5,71.767 410.4,72.6 Z M440.9,71.35 C439.333,71.35 438,71.767 436.9,72.6 C435.7,73.533 435.099,74.783 435.099,76.35 C435.099,77.083 435.499,77.833 436.299,78.6 C436.766,79.067 437.532,79.75 438.599,80.65 C440.9,80.95 442.9,80.467 444.599,79.2 C445.966,78.133 446.65,77.133 446.65,76.2 C446.65,74.666 446.049,73.45 444.849,72.55 C443.75,71.717 442.434,71.317 440.9,71.35 Z M328,14.85 C328,13.75 328.616,12.883 329.85,12.25 C330.083,12.15 331.8,11.517 335,10.35 L336.05,10.1 C334.35,9.933 333.184,9.767 332.55,9.6 L319.5,9.6 L306.75,12.85 C306.217,12.85 305.816,12.817 305.55,12.75 L305.25,12.6 C305.25,12.533 305.217,12.383 305.15,12.15 C305.049,11.95 305,11.6 305,11.1 C305,10.367 306.233,9.166 308.7,7.5 C311.5,5.6 313.033,4.467 313.3,4.1 L313.75,3.4 C310.083,3.933 306.967,4.533 304.4,5.2 C304.333,5.233 301.633,6.033 296.299,7.6 C295.266,7.9 294.133,8.717 292.9,10.05 C291.766,11.25 290.883,11.85 290.25,11.85 L290.1,11.85 C290.067,11.85 290.05,11.867 290.05,11.9 C289.75,12.533 289.234,12.85 288.5,12.85 C288.467,12.85 287,12.2 284.1,10.9 C281.167,9.567 279.567,8.9 279.3,8.9 L274.5,9.1 L273.3,9.4 C273.7,9.834 274.717,10.867 276.35,12.5 C277.784,14.067 278.5,15.217 278.5,15.95 C278.5,16.416 278.467,16.717 278.4,16.85 C278.299,17.017 278.25,17.2 278.25,17.4 L277.9,17.65 C277.633,17.783 277.25,17.85 276.75,17.85 C276.616,17.85 275.866,17.567 274.5,17 C273.134,16.4 270.35,16.1 266.15,16.1 C262.016,16.1 258.5,16.7 255.599,17.9 C253.299,19.233 251.933,19.983 251.499,20.15 C253.199,20.483 254.865,20.717 256.499,20.85 C256.732,21.05 257.065,21.333 257.499,21.7 C257.832,22.033 257.999,22.3 257.999,22.5 C257.999,22.933 255.865,24.617 251.599,27.55 C246.533,31.05 243.683,33.067 243.049,33.6 L243,33.65 C243.2,33.65 243.684,33.517 244.45,33.25 C245.183,32.983 245.783,32.85 246.25,32.85 C247.316,32.85 248,33.1 248.3,33.6 C248.434,33.8 248.5,34.1 248.5,34.5 C248.5,34.8 247.434,36.383 245.3,39.25 C243.134,42.15 242.05,43.683 242.05,43.85 C242.05,43.916 242.3,44.033 242.8,44.2 C243.067,44.4 243.267,44.633 243.401,44.9 C243.8,44.834 244.001,45.2 244.001,46 C244.001,46.467 243.084,48.833 241.251,53.1 C239.317,57.567 238.234,60.583 238.001,62.15 L238.001,62.4 C238.234,62.233 238.617,61.834 239.151,61.2 C239.817,60.633 240.6,60.35 241.501,60.35 C242.768,60.35 243.501,62.416 243.701,66.55 C244.001,72.55 244.267,76 244.501,76.9 C245.001,76.834 245.668,76.383 246.501,75.55 C247.334,74.75 248.001,74.35 248.501,74.35 C249.801,74.35 250.617,75.733 250.951,78.5 C251.117,79.933 251.301,81.733 251.501,83.9 C251.567,83.9 251.801,83.867 252.201,83.8 C251.734,76.6 251.501,72.4 251.501,71.2 L251.551,70.55 C251.152,69.95 250.801,69.317 250.501,68.65 C249.701,66.917 249.135,64.983 248.801,62.85 C248.601,61.683 248.501,60.683 248.501,59.85 C248.501,59.283 248.534,58.733 248.601,58.2 C248.635,58.1 248.685,58 248.751,57.9 C249.117,53.367 250.935,49.717 254.201,46.95 C257.334,44.283 260.701,43.4 264.301,44.3 C268.568,43.967 272.135,45.133 275.001,47.8 C276.168,48.9 277.117,50.183 277.851,51.65 C278.518,50.85 279.584,49.834 281.051,48.6 C283.617,46.433 285.018,45.35 285.251,45.35 C286.251,45.35 287.034,46.133 287.601,47.7 C287.902,48.5 288.135,49.4 288.301,50.4 C289.101,50.167 290.185,49 291.551,46.9 C292.784,45.033 293.768,44.183 294.501,44.35 C296.034,44.75 297.101,45.717 297.701,47.25 C298.034,48.083 298.484,49.383 299.051,51.15 C299.318,51.017 300.385,50.084 302.251,48.35 C303.718,47.017 304.968,46.35 306.001,46.35 C306.701,46.35 307.734,47.083 309.101,48.55 C310.601,50.183 311.485,51.05 311.751,51.15 C311.918,50.883 312.268,50.067 312.801,48.7 C313.468,47.467 314.367,46.85 315.501,46.85 C316.635,46.85 318.018,48.2 319.651,50.9 C320.584,48.834 321.884,47.017 323.55,45.45 C326.884,42.35 330.95,40.85 335.75,40.95 C336.017,40.95 336.3,40.967 336.6,41 C337.134,40.5 338.134,40.5 339.6,41 C341.6,41.7 343.684,43 345.85,44.9 C346.151,45.067 346.333,45.183 346.401,45.25 C347.6,46.183 348.617,47.3 349.451,48.6 C349.951,49.367 350.584,50.5 351.35,52 C352.151,53.367 352.867,56.033 353.5,60 L353.5,61 C353.5,62.2 353.366,63.35 353.1,64.45 C353.1,64.75 353.083,64.867 353.05,64.8 L353,64.9 C352.533,66.533 351.783,68.117 350.75,69.65 C349.884,70.917 348.866,72.017 347.7,72.95 C347.766,73.05 347.833,73.166 347.9,73.3 C347.966,73.433 348,73.734 348,74.2 C348,77.8 347.517,82.867 346.55,89.4 C349.583,85.367 351.151,83.35 351.25,83.35 C352.384,83.35 353.267,83.767 353.9,84.6 C354.233,85.033 354.533,85.55 354.799,86.15 C355.499,82.45 356.099,79.417 356.599,77.05 C357.566,72.584 359.033,70.35 360.999,70.35 C361.666,70.35 362.383,70.683 363.149,71.35 C363.548,71.683 363.916,72.033 364.249,72.4 C364.416,71.2 364.499,69.133 364.499,66.2 C364.499,60.833 363.666,55.666 361.999,50.7 C360.332,45.766 359.499,42.933 359.499,42.2 C359.499,41.467 359.582,40.983 359.749,40.75 C360.315,40.083 361.582,40.05 363.549,40.65 C361.883,37.883 360.549,35.683 359.549,34.05 C357.749,31.084 355.166,28.7 351.799,26.9 C346.832,24.633 342.499,22.633 338.799,20.9 C331.6,17.5 328,15.483 328,14.85 Z M285.7,52.65 C285.433,51.317 285.116,50.467 284.75,50.1 C284.55,50.166 283.6,51 281.9,52.6 C280.566,53.833 279.616,54.567 279.049,54.8 C279.615,56.8 279.9,59.067 279.9,61.6 C279.9,64.933 279.2,67.783 277.799,70.15 C275.166,74.617 270.365,76.85 263.4,76.85 C260.167,76.85 257.45,76.083 255.25,74.55 C255.316,75.05 255.366,75.6 255.4,76.2 C255.533,78.367 255.65,81.6 255.75,85.9 C255.85,88.067 255.967,91.267 256.1,95.5 C256.234,99.2 256.451,102.4 256.75,105.1 C257.15,109.133 257.9,115.483 259,124.15 C259.134,125.283 259.884,126.85 261.25,128.85 C262.684,130.916 263.934,132.183 265,132.65 C267.6,133.717 271.184,134.533 275.75,135.1 C284.384,136.2 293.316,136.8 302.55,136.9 C306.35,136.967 309.533,136.967 312.1,136.9 C312.167,136.933 312.234,136.95 312.3,136.95 L314.3,137 C314.434,137.033 314.567,137.067 314.7,137.1 C321.733,137.067 326.233,136.933 328.2,136.7 C331.933,136.3 334.417,135.217 335.65,133.45 C336.683,131.983 337.516,128.883 338.15,124.15 C339.283,115.617 340.233,109.433 341,105.6 C340.833,103.633 341.25,100.8 342.25,97.1 C343.283,93.4 343.7,90.583 343.5,88.65 C343.533,88.517 343.75,85.834 344.15,80.6 C344.349,78.166 344.816,76.067 345.549,74.3 C342.883,75.667 339.615,76.35 335.749,76.35 C328.615,76.35 323.532,73.683 320.499,68.35 C318.832,65.416 317.999,62.45 317.999,59.45 C317.999,57.45 318.216,55.583 318.649,53.85 C317.815,53.817 317.182,53.467 316.749,52.8 C316.016,51.734 315.599,51.167 315.499,51.1 C315.433,51.133 315.099,51.933 314.499,53.5 C314.032,54.733 313.199,55.35 311.999,55.35 C310.732,55.35 309.449,54.567 308.149,53 C306.949,51.267 306.166,50.233 305.798,49.9 C303.331,53.2 301.149,54.85 299.248,54.85 C297.814,54.85 296.665,53.967 295.798,52.2 C295.132,50.266 294.715,49.166 294.548,48.9 C293.682,50.033 292.899,51.033 292.198,51.9 C290.831,53.533 289.681,54.35 288.748,54.35 C287.184,54.35 286.167,53.783 285.7,52.65 Z M323.75,67.4 C326.45,71.2 330.483,73.1 335.85,73.1 C342.05,73.1 346.35,71.183 348.75,67.35 C349.95,65.416 350.533,63.333 350.5,61.1 C350.5,57.8 349.95,54.933 348.85,52.5 C348.017,51.267 347.083,49.883 346.05,48.35 C346.017,48.283 345.967,48.217 345.901,48.15 C343.168,45.45 339.784,44.133 335.751,44.2 C331.817,44.266 328.435,45.617 325.601,48.25 C322.535,51.15 321.001,54.9 321.001,59.5 C321,62.2 321.917,64.833 323.75,67.4 Z M339,58.85 C339,60.183 338.517,61.517 337.55,62.85 C336.35,64.517 334.75,65.35 332.75,65.35 C330.95,65.35 329.634,65.117 328.8,64.65 C327.134,64.15 325.817,63.283 324.85,62.05 C323.85,60.783 323.35,59.45 323.35,58.05 C323.35,54.35 324.767,51.933 327.6,50.8 C328.634,50.367 329.6,50.217 330.5,50.35 C331.134,50.383 331.8,50.517 332.5,50.75 C334.267,51.283 335.75,52.233 336.95,53.6 C338.316,55.167 339,56.917 339,58.85 Z M327.65,58.75 C327.816,59.15 328.099,59.433 328.5,59.6 C328.5,59.867 328.517,59.95 328.55,59.85 L329,60.15 C329.9,60.183 330.634,60 331.2,59.6 C331.533,59.4 331.783,59.133 331.95,58.8 C332.15,58.5 332.266,58.217 332.3,57.95 C332.3,57.883 332.283,57.8 332.25,57.7 L332.25,57.35 C332.25,55.583 331.467,54.733 329.9,54.8 C329.466,54.834 329.083,54.917 328.75,55.05 C328.35,55.217 328.05,55.5 327.85,55.9 C327.617,56.3 327.5,56.817 327.5,57.45 C327.5,58.05 327.55,58.483 327.65,58.75 Z M324.5,107.5 C324.4,107.767 324.333,107.95 324.3,108.05 L324.05,108.3 C323.884,108.433 323.55,108.5 323.05,108.5 C321.984,108.5 321.333,108.067 321.1,107.2 C321.067,107.067 321.05,106.416 321.05,105.25 C320.616,105.55 317.5,108.033 311.7,112.7 C305,117.233 298.783,119.5 293.05,119.5 C287.083,119.5 282.533,118.433 279.401,116.3 C277.201,114.8 276.084,113.217 276.05,111.55 L276.45,111.3 C276.683,111.1 277.05,111 277.55,111 C278.05,111 279.317,111.883 281.35,113.65 C284.317,115.383 288.284,116.25 293.25,116.25 C301.083,116.25 309.6,111.683 318.8,102.55 C318.8,102.45 318.517,102.033 317.95,101.3 C317.349,100.6 317.05,100.033 317.05,99.6 C317.05,98.6 317.434,98.1 318.2,98.1 C318.933,98.1 319.8,98.517 320.8,99.35 C323.3,101.45 324.55,103.867 324.55,106.6 C324.55,107.1 324.533,107.4 324.5,107.5 Z M308,77.35 C308.833,77.35 309.35,77.433 309.55,77.6 C309.55,77.633 309.634,77.717 309.8,77.85 C309.934,78.017 310,78.35 310,78.85 C310,79.95 308.85,81.05 306.55,82.15 C304.184,83.283 301.667,83.85 299,83.85 C297.333,83.85 295.833,83.017 294.5,81.35 C293.5,80.083 293,79.2 293,78.7 C293,78.233 293.017,77.983 293.05,77.95 C293.116,77.883 293.184,77.766 293.25,77.6 C294.217,77.633 295.233,78.15 296.3,79.15 C297.333,80.15 298.651,80.65 300.25,80.65 C302.45,80.65 304.116,80.1 305.25,79 C306.35,77.9 307.267,77.35 308,77.35 Z M313.55,140.1 C312.817,140.2 312.033,140.283 311.2,140.35 L310.599,140.35 C310.672,140.351 310.772,140.368 310.9,140.4 C308.566,140.567 305.766,140.667 302.5,140.7 C296.767,140.766 291.134,140.467 285.6,139.8 C286.367,140.4 286.817,141.417 286.951,142.85 C287.084,144.283 287.1,146.283 287.001,148.85 C287.001,151.35 287.168,155.133 287.501,160.2 L287.501,160.4 C289.001,162.233 290.601,164.617 292.301,167.55 C294.001,170.484 296.402,174.85 299.501,180.651 C300.334,179.717 302.984,175.434 307.451,167.8 C309.284,164.667 310.801,162.267 312.001,160.6 L312.001,158.6 C312.001,157.6 312.084,155.783 312.251,153.15 C312.484,149.85 312.734,147.25 313.001,145.35 C313.268,143.55 313.685,141.883 314.251,140.35 L313.551,140.35 C313.55,140.283 313.55,140.2 313.55,140.1 Z M285.25,161.85 L285,161.85 C283.967,160.416 282.733,159 281.3,157.6 C281.401,157.467 281.484,157.333 281.55,157.2 C280.151,156.9 278.217,156.75 275.75,156.75 C275.017,156.75 274.3,156.767 273.6,156.8 C272.467,158.7 270.951,161.133 269.05,164.1 C269.35,164.267 272.333,164.35 278,164.35 C280.566,164.35 282.25,164.7 283.05,165.4 C283.45,165.767 283.6,166.133 283.5,166.5 C283.5,166.833 282.45,168.833 280.35,172.5 C277.984,176.6 276.534,179.316 276,180.65 C280.434,181.183 286.85,181.583 295.25,181.849 C295.65,181.849 296.033,181.866 296.4,181.9 C294.866,179.7 292.9,176.316 290.5,171.75 C288.333,167.65 286.717,164.483 285.65,162.25 C285.583,162.283 285.533,162.317 285.5,162.35 C285.4,162.183 285.316,162.017 285.25,161.85 Z M314,164.3 C313.967,164.3 313.934,164.317 313.9,164.35 C312.599,166.45 310.816,169.233 308.549,172.7 C305.216,177.733 302.799,181.217 301.299,183.15 C301.865,183.083 302.433,183.033 302.999,183 C303.032,183.033 303.099,183.05 303.199,183.05 C303.399,183.05 303.716,183 304.149,182.901 L304.199,182.901 C309.432,182.467 313.699,182.034 316.999,181.6 C316.332,179.934 315.065,178.284 313.199,176.651 C311.732,175.384 310.999,174.034 310.999,172.601 C310.999,171.568 311.315,170.934 311.949,170.701 C315.515,169.468 318.532,168.284 320.999,167.151 C320.899,166.984 319.615,165.835 317.149,163.701 C317.015,163.568 316.882,163.451 316.749,163.351 C316.149,162.618 315.799,162.251 315.699,162.251 C315.365,162.251 314.916,162.734 314.348,163.701 C314.217,163.933 314.1,164.133 314,164.3 Z M319.2,160.4 C319.3,160.5 319.4,160.6 319.5,160.7 C321.333,162.567 323.167,164.733 325,167.2 C325,168.333 323.934,169.367 321.8,170.3 C320.234,170.967 317.634,171.734 314,172.6 C314.533,173.4 316.05,175.083 318.55,177.65 C319.85,178.983 320.5,180.549 320.5,182.349 C320.5,184.749 315.566,186.2 305.7,186.7 C306.833,190.033 307.4,192.116 307.4,192.95 C307.4,193.783 307.066,199.333 306.4,209.599 C306.4,213.966 306.566,217.15 306.9,219.15 L306.9,240.6 L308.4,268.651 L308.4,294.901 C308.733,297.501 309.283,303.084 310.049,311.651 C310.949,321.584 311.4,327.817 311.4,330.35 L311.4,331.201 C311.366,331.234 311.316,331.385 311.25,331.651 L310.95,332.001 C310.917,332.034 310.9,332.067 310.9,332.101 C319.933,331.902 328.066,330.952 335.299,329.251 C339.599,328.251 343.749,326.968 347.749,325.401 C353.982,323.434 357.815,321.584 359.249,319.85 C359.449,319.583 359.666,319.333 359.899,319.1 C358.132,316.701 356.382,310.784 354.649,301.35 C352.315,286.083 350.732,275.833 349.899,270.6 C349.199,266 348.098,256.85 346.598,243.151 C345.132,229.784 344.399,222.3 344.399,220.701 C344.399,219.801 344.465,219.184 344.598,218.85 C341.498,211.917 338.949,206.167 336.949,201.6 C336.348,200.833 335.699,199.5 334.999,197.6 C333.999,194.867 333.499,193.234 333.499,192.701 C333.499,192.234 333.516,191.984 333.549,191.951 C333.615,191.885 333.683,191.767 333.749,191.6 C334.516,191.634 335.232,191.917 335.899,192.451 C336.365,193.117 337.032,194.034 337.899,195.201 C338.765,197.067 339.632,199.051 340.499,201.151 C342.065,205.384 344.332,210.884 347.299,217.651 L347.4,217.651 L347.95,218.85 C347.917,218.85 347.9,218.867 347.9,218.901 L347.9,219.001 C348.7,220.834 349.566,222.784 350.5,224.851 C354.533,233.918 358.116,241.768 361.25,248.402 C362.45,250.868 365.033,255.585 369,262.551 C372.267,268.284 373.9,271.435 373.9,272.001 C373.9,272.168 373.883,272.334 373.849,272.501 C375.15,274.435 376.366,275.401 377.499,275.401 C385.032,275.401 391.499,254.217 396.899,211.85 C397.232,210.25 398.232,204.934 399.899,195.901 C401.132,189.134 402.298,183.701 403.399,179.6 C404.065,177.1 404.632,174.784 405.098,172.65 C403.899,172.783 402.365,172.85 400.498,172.85 C396.698,172.85 393.481,172.183 390.848,170.85 C390.715,170.783 390.598,170.717 390.498,170.65 C390.064,172.383 389.598,174.3 389.098,176.4 C385.899,189.533 383.949,198.183 383.248,202.349 C382.448,207.15 381.281,214.516 379.748,224.45 C378.581,230.884 377.132,236.634 375.398,241.7 C375.364,242.033 375.314,242.349 375.248,242.65 L374.948,243 C374.915,243.033 374.898,243.066 374.898,243.1 C374.398,244.401 373.898,245.651 373.398,246.85 C373.064,246.55 372.665,246.201 372.198,245.8 C371.998,245.634 371.898,245.517 371.898,245.45 C371.898,244.95 372.081,243.683 372.448,241.65 C371.347,239.45 369.981,235.233 368.347,229 C365.047,215.634 362.33,205.134 360.198,197.5 C358.898,192.733 357.581,188.35 356.248,184.35 C356.114,184.184 355.981,183.984 355.848,183.75 C355.782,183.55 355.732,183.35 355.699,183.15 C355.232,181.283 354.883,179.883 354.649,178.95 C354.215,177.349 353.732,175.95 353.199,174.75 C352.899,174.283 352.615,173.85 352.348,173.45 C352.149,173.05 351.982,172.65 351.848,172.25 C351.548,171.65 351.298,171.233 351.098,171 C349.765,169.267 348.748,168.033 348.048,167.3 C346.882,166.033 345.448,165.017 343.748,164.25 C339.648,162.45 331.548,161.1 319.448,160.2 C319.35,160.267 319.267,160.333 319.2,160.4 Z M393.85,92.8 C392.284,92.8 390.951,93.217 389.85,94.05 C388.651,94.984 388.05,96.234 388.05,97.8 C388.05,98.533 388.45,99.283 389.25,100.05 C389.717,100.517 390.483,101.2 391.55,102.1 C393.85,102.4 395.85,101.916 397.55,100.65 C398.917,99.584 399.6,98.584 399.6,97.65 C399.6,96.117 399,94.9 397.8,94 C396.7,93.167 395.384,92.767 393.85,92.8 Z M399.85,91.45 C401.684,92.983 402.6,95.05 402.6,97.65 C402.6,99.217 402.034,100.717 400.901,102.15 C399.168,104.25 396.55,105.3 393.05,105.3 C389.583,105.3 387.217,104.05 385.95,101.55 C385.349,99.084 385.05,97.834 385.05,97.8 C385.05,95.167 385.967,93.067 387.8,91.5 C389.434,90.1 391.45,89.4 393.85,89.4 C396.217,89.4 398.217,90.083 399.85,91.45 Z M385.35,118.5 C383.784,118.5 382.451,118.917 381.35,119.75 C380.151,120.683 379.55,121.933 379.55,123.5 C379.55,124.233 379.95,124.983 380.75,125.75 C381.217,126.217 381.983,126.9 383.05,127.8 C385.35,128.1 387.35,127.617 389.05,126.35 C390.417,125.283 391.1,124.283 391.1,123.35 C391.1,121.817 390.5,120.6 389.3,119.7 C388.2,118.867 386.884,118.467 385.35,118.5 Z M391.35,117.15 C393.184,118.683 394.1,120.75 394.1,123.35 C394.1,124.916 393.534,126.416 392.401,127.85 C390.668,129.95 388.05,131 384.55,131 C381.083,131 378.717,129.75 377.45,127.25 C376.849,124.783 376.55,123.533 376.55,123.5 C376.55,120.867 377.467,118.767 379.3,117.2 C380.934,115.8 382.95,115.1 385.35,115.1 C387.717,115.1 389.717,115.783 391.35,117.15 Z M402.6,145.55 C402.6,146.517 403.017,147.867 403.85,149.6 C403.951,149.8 404.05,149.983 404.151,150.15 L404.85,148.55 C406.517,146.283 408.034,144.517 409.401,143.25 C411.3,141.517 413.751,140.483 416.751,140.15 C416.685,140.05 416.617,139.967 416.551,139.9 C415.652,138.8 413.801,138.25 411.001,138.25 C407.734,138.25 405.367,139.433 403.901,141.8 C403.134,143 402.7,144.25 402.6,145.55 Z M405.1,152.2 C403.967,153.567 403.401,154.383 403.401,154.65 L403.401,154.7 C402.634,155.833 402.217,156.45 402.151,156.55 C400.651,158.484 398.934,159.984 397.001,161.05 C397.734,161.217 398.518,161.4 399.351,161.6 C404.185,162.8 407.218,163.883 408.452,164.85 C415.485,164.683 420.735,162.983 424.202,159.75 C426.469,157.617 427.601,155.55 427.601,153.55 C427.601,152.283 426.801,150.35 425.202,147.75 C423.268,144.617 421.235,143.05 419.101,143.05 C413.568,143.05 409.235,145.517 406.101,150.45 C405.702,151.05 405.351,151.617 405.051,152.15 L405.1,152.2 Z M391.35,167 C391.717,167.2 392.134,167.417 392.6,167.65 C396.934,169.95 401.267,170.683 405.6,169.85 C405.567,168.783 405.534,167.867 405.5,167.1 C405.033,166.633 404.75,166.233 404.65,165.9 C401.583,165.167 397.75,164.617 393.15,164.25 C392.716,164.217 392.333,164.167 392,164.1 C391.8,165 391.583,165.967 391.35,167 Z M291.5,186.85 C290.233,186.583 289.3,186.3 288.7,186 C288.599,185.934 288.5,185.884 288.4,185.85 C282.233,185.75 277.766,185.083 275,183.85 C273.333,183.083 272.5,182.333 272.5,181.6 C272.5,180.467 273.517,177.984 275.55,174.15 C277.116,171.25 278.283,169.233 279.05,168.1 C279.217,167.8 279.3,167.567 279.3,167.4 C273.033,167.834 268.884,167.767 266.85,167.2 C265.617,166.867 265,166.166 265,165.1 C265,164 265.983,161.567 267.95,157.8 C268.083,157.567 268.217,157.334 268.349,157.1 C261.116,157.867 255.45,159.783 251.349,162.85 C250.65,163.783 249.2,165.733 246.999,168.7 C243.532,173.4 241.232,177.183 240.099,180.05 C239.499,181.616 238.466,184.583 236.999,188.95 C236.466,190.55 235.966,192 235.499,193.3 C235.232,194.8 235.016,196.317 234.849,197.85 C232.116,207.35 229.799,216.85 227.899,226.35 C228.632,229.017 228.999,231.3 228.999,233.201 C228.999,234.034 228.932,234.35 228.799,234.151 L228.549,234.501 C228.483,234.567 228.399,234.635 228.299,234.701 C228.099,234.801 227.833,234.85 227.499,234.85 C227.136,234.85 226.153,232.942 224.549,229.125 C223.784,227.32 222.884,225.095 221.849,222.45 C221.582,221.75 221.299,221.033 220.999,220.3 C216.566,208.934 213.316,201.45 211.249,197.85 C209.416,194.684 204.732,187.55 197.199,176.451 C196.132,174.884 195.165,173.434 194.299,172.101 C193.599,172.934 192.599,173.768 191.299,174.601 C188.733,176.268 186.149,177.184 183.549,177.351 C186.216,181.385 188.749,186.235 191.149,191.902 C192.682,195.535 194.599,200.652 196.899,207.252 C198.833,212.919 200.199,216.535 200.999,218.102 C202.399,221.136 204.232,226.069 206.499,232.903 C207.466,235.769 208.816,239.819 210.549,245.052 C210.732,245.617 210.915,246.2 211.099,246.802 C211.266,247.307 211.432,247.823 211.599,248.352 C211.866,249.186 212.149,250.036 212.449,250.903 C212.549,251.203 212.665,251.503 212.799,251.802 C213.166,252.969 213.549,254.085 213.949,255.153 C218.149,266.786 221.366,272.602 223.599,272.602 C228.132,272.602 232.549,266.769 236.849,255.102 C241.082,241.269 244.15,232.186 246.049,227.852 C247.016,225.719 249.532,219.769 253.599,210.002 C253.799,208.502 254.332,206.568 255.2,204.202 C256.7,200.202 258.483,198.169 260.55,198.101 C260.55,198.135 260.634,198.218 260.8,198.351 C260.934,198.518 261,198.851 261,199.351 C261,200.218 260.25,202.452 258.75,206.051 C258.017,207.784 257.366,209.201 256.8,210.301 C255.866,212.468 255.033,214.468 254.3,216.301 C254.366,217.168 254.401,218.351 254.401,219.851 C254.401,223.051 254.567,227.968 254.901,234.601 C254.901,242.735 253.55,258.334 250.85,281.402 C248.917,297.801 247.25,310.735 245.85,320.202 C245.884,320.235 245.934,320.268 246,320.302 L246,320.352 C246,321.186 246.684,322.302 248.05,323.703 C249.45,325.17 251.184,326.137 253.25,326.602 C255.583,327.736 257.767,328.636 259.8,329.302 C267.767,330.802 279.75,331.702 295.75,332.002 C295.283,330.936 295.017,329.636 294.95,328.102 C294.816,324.869 294.634,322.953 294.4,322.352 L294.4,269.852 C294.133,269.352 293.966,268.953 293.9,268.653 L293.9,224.85 L293.4,223.35 L293.4,187.35 C293.266,187.151 293.167,186.984 293.099,186.85 L291.5,186.85 Z M302.1,186.8 C302.067,186.8 302.034,186.817 302,186.85 L296.4,186.85 L296.4,222.4 C296.533,223 296.7,223.5 296.9,223.9 L296.9,267.4 C296.966,267.733 297.133,268.133 297.4,268.599 L297.4,321.4 C297.633,322.799 297.866,324.616 298.099,326.849 C298.299,328.916 298.4,330.283 298.4,330.95 L298.4,332.05 C301.266,332.083 304.266,332.1 307.4,332.1 L309.2,332.1 C307.766,330.967 306.833,326.284 306.4,318.05 C306.133,306.75 305.799,299.283 305.4,295.651 L305.4,269.4 L303.9,241.349 L303.9,220.349 C303.566,218.049 303.4,214.516 303.4,209.749 C304.066,199.216 304.4,193.532 304.4,192.699 C304.4,192.299 304.233,191.032 303.9,188.899 C303.766,188.032 303.667,187.315 303.599,186.749 C303.1,186.783 302.6,186.8 302.1,186.8 Z M262.25,53.95 C263.616,52.75 265.283,52.1 267.25,52 C269.217,51.933 270.884,52.433 272.25,53.5 C273.75,54.667 274.5,56.283 274.5,58.35 C274.5,59.817 274.017,61.317 273.05,62.85 C271.583,65.183 269.401,66.35 266.5,66.35 C263.434,66.35 261.434,65.2 260.5,62.9 C260.167,60.533 260,59.317 260,59.25 C260,57.05 260.75,55.283 262.25,53.95 Z M253.3,67.6 C255.333,71.6 258.684,73.6 263.35,73.6 C269.25,73.6 273.267,71.683 275.401,67.85 C276.401,66.05 276.901,63.916 276.901,61.45 C276.901,56.483 275.584,52.733 272.951,50.2 C270.617,48 267.701,47.033 264.201,47.3 C260.834,47.533 257.918,48.783 255.451,51.05 C252.817,53.484 251.501,56.417 251.501,59.85 C251.5,62.65 252.1,65.233 253.3,67.6 Z M265,60.35 C265,61.517 265.616,62.1 266.85,62.1 C267.917,62.1 268.817,61.45 269.55,60.15 C269.917,59.55 270.167,59.117 270.3,58.85 C270.3,57.45 269.417,56.817 267.651,56.95 C265.885,57.083 265,58.217 265,60.35 Z M133.5,38.4 L116.65,38.55 L114,38.9 L95,38.9 C91.967,38.4 87.25,38.084 80.85,37.95 C73.117,37.75 68.883,37.617 68.15,37.55 L47.45,37.4 C46.45,37.267 43.533,37.267 38.7,37.4 C33.4,37.533 29.967,37.617 28.4,37.65 C28.067,48.183 26.067,79.334 22.4,131.1 C19.942,165.853 17.35,201.236 14.625,237.25 C14.617,237.365 14.609,237.482 14.6,237.6 L14.825,237.6 C15.442,237.616 16.151,237.682 16.95,237.8 C19.279,238.151 21.32,238.459 23.075,238.725 C26.945,239.298 29.403,239.657 30.45,239.8 C30.689,239.824 30.856,239.841 30.95,239.85 L43.95,240 L45.9,240.35 L60,240.5 C69.412,241.168 76.887,241.618 82.425,241.85 C82.97,241.866 83.495,241.882 84,241.901 C87.333,242.001 92.717,242.151 100.15,242.35 L113.5,242.5 L144.9,244.85 L199.5,245.25 C202.733,245.25 205.65,245.217 208.25,245.15 C205.083,235.417 202.017,227.4 199.05,221.099 C195.417,213.433 193.267,208.832 192.6,207.299 C190.2,201.999 188.333,197.349 187,193.349 C185.267,188.383 182.5,182.95 178.7,177.049 C178.633,176.449 178.567,175.832 178.5,175.199 C178.467,174.999 178.45,174.816 178.45,174.649 C178.117,174.049 177.717,173.299 177.25,172.399 L175.25,168.549 C175.25,168.149 175.283,167.816 175.35,167.549 C174.717,166.649 173.867,165.432 172.8,163.899 C170.1,159.999 168.234,157.666 167.2,156.899 C165.388,155.553 163.888,154.345 162.7,153.274 C161.578,152.262 160.729,151.371 160.15,150.599 C158.883,148.899 158.25,146.915 158.25,144.649 C158.25,139.982 160.5,138.249 165,139.449 C165.333,139.549 165.667,139.665 166,139.799 C165.733,139.432 165.45,139.083 165.15,138.749 L152.15,123.099 C151.817,122.599 151.533,122.165 151.3,121.799 C150.267,121.833 149.1,121.333 147.8,120.299 C146.133,118.366 145.267,117.349 145.2,117.249 C144.733,116.582 144.45,115.932 144.35,115.299 C142.75,115.566 141.2,115.316 139.7,114.549 C137.733,112.782 136.733,111.882 136.7,111.849 C135.666,110.316 134.833,108.482 134.2,106.349 C133.567,104.216 132.7,102.332 131.6,100.699 C131.4,100.432 130.2,99.265 128,97.199 C127.033,95.799 127.05,94.449 128.05,93.149 C129.084,91.916 130.234,91.999 131.5,93.399 C132.033,94.199 132.867,95.016 134,95.849 C134.667,96.316 135.65,97.016 136.95,97.949 C137.016,97.982 139.117,99.149 143.25,101.449 C146.85,103.482 148.95,104.949 149.55,105.849 C150.45,107.182 150.917,108.349 150.95,109.349 L150.95,109.899 C152.883,110.266 154.683,111.682 156.35,114.149 C156.517,114.382 156.6,114.732 156.6,115.199 C157.267,115.399 157.933,115.849 158.6,116.549 C158.633,116.583 158.683,116.616 158.75,116.649 C159.283,117.282 161,119.049 163.9,121.949 C164.433,121.549 165.133,121.232 166,120.999 C168.167,120.432 170.783,120.466 173.85,121.099 C177.017,121.766 179.767,122.866 182.1,124.399 C182.8,124.866 183.433,125.366 184,125.899 C184.567,126.432 185.067,126.999 185.5,127.599 C186.1,128.499 186.5,129.432 186.7,130.399 C186.833,131.333 187.433,134.166 188.5,138.899 C188.814,140.293 189.081,141.485 189.3,142.474 C189.767,144.619 190,145.793 190,145.999 L190,146.549 C191.133,147.616 192.267,148.699 193.4,149.799 C198.7,154.999 202.267,158.932 204.1,161.599 C205.433,163.632 206.166,164.882 206.3,165.349 C206.667,167.016 205.734,168.599 203.5,170.099 C201.833,171.232 199.167,170.665 195.5,168.399 C195.933,169.032 196.417,169.749 196.95,170.549 C202.15,178.282 206.5,184.983 210,190.65 C213.9,196.95 217.2,202.667 219.9,207.799 C219.834,207.365 219.783,206.949 219.75,206.549 C216.787,178.662 214.57,158.612 213.1,146.399 C212.884,144.593 212.684,142.96 212.5,141.499 C211.667,134.799 210.2,126.082 208.1,115.349 C204.867,98.882 203.166,90.199 203,89.299 C200.9,79.199 199.167,70.749 197.8,63.949 C195.433,51.949 194.183,43.349 194.05,38.149 C192.783,38.216 191.267,38.049 189.5,37.649 L165.65,37.549 L135.75,38.049 L133.5,38.4 Z M139,109.9 C139.5,110.667 140.333,111.3 141.5,111.8 C142.933,112.5 144.133,112.517 145.1,111.85 C145.267,111.75 145.416,111.65 145.55,111.55 C145.783,111.283 146.067,111.05 146.4,110.85 C147.2,110.117 147.6,109.433 147.6,108.8 C147.333,108.1 147.183,107.717 147.15,107.65 C146.95,107.383 145.584,106.483 143.05,104.95 C140.084,103.083 137.484,101.666 135.25,100.7 C135.717,101.4 136.317,102.9 137.05,105.2 C137.75,107.467 138.4,109.033 139,109.9 Z M147.4,114.15 C147.267,114.25 147.117,114.367 146.95,114.5 L147.7,115.6 C147.9,115.8 148.1,116.067 148.3,116.4 C148.6,116.967 149.084,117.35 149.75,117.55 C150.117,117.683 150.767,117.867 151.7,118.1 C152,117.8 152.217,117.467 152.35,117.1 C152.583,116.433 152.817,115.916 153.05,115.55 C151.683,114.65 150.617,113.633 149.85,112.5 C149.75,112.533 149.55,112.617 149.25,112.75 C148.95,113.05 148.6,113.35 148.2,113.65 C147.9,113.817 147.633,113.983 147.4,114.15 Z M157.2,119.6 C156.633,119.067 156.083,118.517 155.55,117.95 C154.883,119.283 154.167,120.283 153.4,120.95 C154.5,121.717 155.683,122.717 156.95,123.95 C158.183,125.817 160.617,128.833 164.25,133 C165.75,134.7 168.317,137.583 171.95,141.65 C173.283,143.15 174.5,144.55 175.6,145.85 C175.533,145.883 175.483,145.916 175.45,145.95 C175.717,146.183 175.967,146.433 176.2,146.7 C176.383,146.872 176.583,147.064 176.8,147.275 C178.598,149.007 181.465,151.916 185.4,156 C187.433,158.067 189.283,159.85 190.95,161.35 C191.217,161.583 191.483,161.817 191.75,162.05 C196.917,166.617 200.25,168.4 201.75,167.4 C202.75,166.7 203,165.783 202.5,164.65 C201.767,163.55 201.383,162.983 201.35,162.95 C199.916,160.817 196.6,157.166 191.4,152 L190.85,151.5 C186.814,147.671 184.181,145.171 182.95,144 C182.602,143.653 182.369,143.419 182.25,143.3 C182.183,143.234 182.133,143.183 182.1,143.15 C181.067,142.25 179.95,141.2 178.75,140 C175.983,137.767 173.833,136.267 172.3,135.5 C166.133,132.333 163.05,129.033 163.05,125.6 C163.05,125.367 163.084,125.15 163.15,124.95 C162.584,124.45 162.05,123.95 161.55,123.45 C160.017,121.85 158.967,120.867 158.4,120.5 C158,120.133 157.6,119.833 157.2,119.6 Z M161.25,145 C161.25,145.721 162.808,147.754 165.925,151.1 C166.707,151.938 167.582,152.855 168.55,153.85 C173.817,159.25 177.05,163.933 178.25,167.9 L178.5,168.15 L179,168.65 C179.467,168.117 179.95,167.567 180.45,167 C181.35,166.567 182.333,166.067 183.4,165.5 C185.8,164.067 187.35,163.15 188.05,162.75 C186.917,161.75 185.717,160.667 184.45,159.5 C182.25,157.433 179.967,155.183 177.6,152.75 C176.633,152.217 174.95,150.9 172.55,148.8 C172.457,148.718 172.365,148.634 172.275,148.55 C171.554,147.92 170.912,147.353 170.35,146.85 L170,146.9 C168.8,146.567 167.683,145.65 166.65,144.15 C165.783,142.817 164.717,142.15 163.45,142.15 C162.783,142.15 162.217,142.6 161.75,143.5 C161.417,144.167 161.25,144.667 161.25,145 Z M186.95,144.25 C186.883,143.983 186.8,143.717 186.7,143.45 L186.9,143.65 C186.882,143.372 186.865,143.105 186.85,142.85 C186.637,139.724 186.454,137.808 186.3,137.1 C185.867,134.933 185.117,133.033 184.05,131.4 C183.35,130.334 182.517,129.383 181.55,128.55 C178.984,126.317 175.467,124.85 171,124.15 L166.45,124.15 L165.7,124.9 C166.067,125.933 167.933,128.05 171.3,131.25 C171.867,131.617 172.517,132 173.25,132.4 C175.217,133.467 176.767,134.483 177.9,135.45 C177.9,135.483 177.917,135.5 177.95,135.5 C179.483,136.767 181.083,138.233 182.75,139.9 C183.731,140.881 184.74,141.94 185.775,143.075 C186.178,143.521 186.587,143.98 187,144.45 C186.967,144.383 186.95,144.317 186.95,144.25 Z M177,136.6 C176.867,136.5 176.767,136.416 176.7,136.35 C176.733,136.416 176.783,136.483 176.85,136.55 C176.883,136.55 176.933,136.567 177,136.6 Z M184.5,168.5 C183.067,169.367 181.717,170.067 180.45,170.6 C181.183,171.8 181.617,173 181.75,174.2 C182.117,174.033 182.55,173.883 183.05,173.75 C186.417,172.85 188.9,171.983 190.5,171.15 C190.733,171.05 191.35,170.383 192.35,169.15 C191.217,167.517 190.3,166.133 189.6,165 C188.833,165.8 187.133,166.967 184.5,168.5 Z" id="Shape" fill="#000000" fill-rule="nonzero"></path>
            <path d="M447.1,94.6 C447.1,93.033 447.701,91.783 448.901,90.85 C450.001,90.017 451.334,89.6 452.901,89.6 C454.434,89.567 455.751,89.967 456.85,90.8 C458.05,91.7 458.651,92.917 458.651,94.45 C458.651,95.383 457.967,96.383 456.6,97.45 C454.901,98.717 452.901,99.2 450.6,98.9 C449.534,98 448.767,97.317 448.3,96.85 C447.5,96.083 447.1,95.333 447.1,94.6 Z M328,14.85 C328,15.483 331.6,17.5 338.8,20.9 C342.5,22.633 346.833,24.633 351.8,26.9 C355.167,28.7 357.75,31.084 359.55,34.05 C360.55,35.683 361.884,37.883 363.55,40.65 C361.583,40.05 360.317,40.084 359.75,40.75 C359.583,40.983 359.5,41.467 359.5,42.2 C359.5,42.933 360.333,45.766 362,50.7 C363.667,55.666 364.5,60.833 364.5,66.2 C364.5,69.133 364.417,71.2 364.25,72.4 C363.917,72.033 363.55,71.683 363.15,71.35 C362.383,70.683 361.667,70.35 361,70.35 C359.033,70.35 357.566,72.583 356.6,77.05 C356.1,79.417 355.5,82.45 354.8,86.15 C354.533,85.55 354.234,85.033 353.901,84.6 C353.267,83.767 352.384,83.35 351.251,83.35 C351.151,83.35 349.584,85.367 346.551,89.4 C347.518,82.867 348.001,77.8 348.001,74.2 C348.001,73.733 347.968,73.433 347.901,73.3 C347.834,73.167 347.767,73.05 347.701,72.95 C348.867,72.016 349.885,70.916 350.751,69.65 C351.784,68.117 352.534,66.533 353.001,64.9 L353.051,64.8 C353.084,64.867 353.101,64.75 353.101,64.45 C353.368,63.35 353.501,62.2 353.501,61 L353.501,60 C352.867,56.033 352.151,53.367 351.351,52 C350.584,50.5 349.952,49.367 349.452,48.6 C348.618,47.3 347.601,46.183 346.402,45.25 C346.335,45.183 346.152,45.067 345.851,44.9 C343.685,43 341.601,41.7 339.601,41 C338.135,40.5 337.135,40.5 336.601,41 C336.301,40.967 336.018,40.95 335.751,40.95 C330.951,40.85 326.885,42.35 323.551,45.45 C321.885,47.016 320.584,48.833 319.652,50.9 C318.018,48.2 316.635,46.85 315.502,46.85 C314.369,46.85 313.469,47.467 312.802,48.7 C312.269,50.067 311.919,50.883 311.752,51.15 C311.485,51.05 310.602,50.183 309.102,48.55 C307.736,47.084 306.703,46.35 306.002,46.35 C304.969,46.35 303.719,47.017 302.252,48.35 C300.386,50.083 299.318,51.017 299.052,51.15 C298.486,49.383 298.035,48.084 297.702,47.25 C297.101,45.717 296.035,44.75 294.502,44.35 C293.769,44.183 292.785,45.033 291.552,46.9 C290.186,49 289.102,50.167 288.302,50.4 C288.136,49.4 287.903,48.5 287.602,47.7 C287.036,46.133 286.252,45.35 285.252,45.35 C285.019,45.35 283.618,46.433 281.052,48.6 C279.585,49.833 278.519,50.85 277.852,51.65 C277.119,50.183 276.169,48.9 275.002,47.8 C272.136,45.133 268.568,43.967 264.302,44.3 C260.702,43.4 257.335,44.283 254.202,46.95 C250.935,49.717 249.118,53.367 248.752,57.9 C248.686,58 248.636,58.1 248.602,58.2 C248.536,58.733 248.502,59.283 248.502,59.85 C248.502,60.683 248.602,61.683 248.802,62.85 C249.136,64.983 249.702,66.916 250.502,68.65 C250.802,69.317 251.152,69.95 251.552,70.55 L251.502,71.2 C251.502,72.4 251.735,76.6 252.202,83.8 C251.802,83.867 251.568,83.9 251.502,83.9 C251.302,81.733 251.118,79.933 250.952,78.5 C250.618,75.733 249.802,74.35 248.502,74.35 C248.002,74.35 247.335,74.75 246.502,75.55 C245.669,76.383 245.002,76.834 244.502,76.9 C244.269,76 244.002,72.55 243.702,66.55 C243.502,62.417 242.768,60.35 241.502,60.35 C240.602,60.35 239.818,60.633 239.152,61.2 C238.618,61.833 238.235,62.233 238.002,62.4 L238.002,62.15 C238.235,60.584 239.318,57.567 241.252,53.1 C243.085,48.833 244.002,46.467 244.002,46 C244.002,45.2 243.802,44.833 243.402,44.9 C243.268,44.633 243.068,44.4 242.801,44.2 C242.301,44.033 242.051,43.916 242.051,43.85 C242.051,43.683 243.135,42.15 245.301,39.25 C247.435,36.383 248.501,34.8 248.501,34.5 C248.501,34.1 248.435,33.8 248.301,33.6 C248.001,33.1 247.318,32.85 246.251,32.85 C245.784,32.85 245.185,32.983 244.451,33.25 C243.684,33.517 243.201,33.65 243.001,33.65 L243.051,33.6 C243.685,33.067 246.534,31.05 251.601,27.55 C255.868,24.617 258.001,22.933 258.001,22.5 C258.001,22.3 257.834,22.033 257.501,21.7 C257.067,21.333 256.734,21.05 256.501,20.85 C254.867,20.717 253.201,20.483 251.501,20.15 C251.935,19.983 253.301,19.233 255.601,17.9 C258.501,16.7 262.018,16.1 266.152,16.1 C270.351,16.1 273.135,16.4 274.502,17 C275.868,17.567 276.618,17.85 276.752,17.85 C277.252,17.85 277.636,17.783 277.902,17.65 L278.252,17.4 C278.252,17.2 278.302,17.017 278.402,16.85 C278.468,16.717 278.502,16.416 278.502,15.95 C278.502,15.217 277.785,14.067 276.352,12.5 C274.719,10.867 273.703,9.833 273.302,9.4 L274.502,9.1 L279.302,8.9 C279.569,8.9 281.169,9.567 284.102,10.9 C287.002,12.2 288.469,12.85 288.502,12.85 C289.235,12.85 289.752,12.533 290.052,11.9 C290.052,11.867 290.069,11.85 290.102,11.85 L290.252,11.85 C290.886,11.85 291.769,11.25 292.902,10.05 C294.135,8.717 295.268,7.9 296.301,7.6 C301.635,6.033 304.334,5.233 304.402,5.2 C306.968,4.533 310.085,3.933 313.752,3.4 L313.302,4.1 C313.035,4.467 311.502,5.6 308.702,7.5 C306.235,9.167 305.002,10.367 305.002,11.1 C305.002,11.6 305.052,11.95 305.152,12.15 C305.218,12.383 305.252,12.533 305.252,12.6 L305.552,12.75 C305.819,12.817 306.219,12.85 306.752,12.85 L319.502,9.6 L332.552,9.6 C333.186,9.767 334.352,9.933 336.052,10.1 L335,10.35 C331.8,11.517 330.083,12.15 329.85,12.25 C328.616,12.883 328,13.75 328,14.85 Z" id="Shape" fill="#782121"></path>
            <path d="M447.85,114.6 C449.05,115.5 449.651,116.717 449.651,118.25 C449.651,119.183 448.967,120.183 447.6,121.25 C445.901,122.517 443.901,123 441.6,122.7 C440.534,121.8 439.767,121.117 439.3,120.65 C438.5,119.883 438.1,119.133 438.1,118.4 C438.1,116.834 438.701,115.584 439.901,114.65 C441.001,113.817 442.334,113.4 443.901,113.4 C445.434,113.367 446.75,113.767 447.85,114.6 Z M192,348.55 L184.85,348.55 C181.817,334.484 179.517,323.884 177.95,316.75 C177.45,314.45 176.1,308.983 173.9,300.35 C172.1,293.284 170.85,287.75 170.15,283.75 C168.717,275.917 167.817,270.417 167.45,267.25 C166.016,262.45 164.766,258.767 163.7,256.2 C166.067,256.134 168.833,256.083 172,256.05 C172.233,258.25 173.95,266.901 177.15,282 C180.517,297.866 183.267,310.316 185.4,319.35 C186.633,324.65 188.833,334.384 192,348.55 Z M118.45,348.55 L118.45,346.35 L118.45,298.75 C118.25,297.25 118.083,296.116 117.95,295.35 L117.95,269.85 C118.383,265.317 118.6,261.917 118.6,259.651 C118.633,257.284 118.4,255.251 117.9,253.55 L123.95,253.6 L123.95,296 C123.717,298.667 123.483,302.283 123.25,306.85 C123.05,310.884 122.95,313.317 122.95,314.151 C122.95,325.184 123.45,333.751 124.45,339.85 L124.45,348.55 L118.45,348.55 Z M46.45,243.5 L61.75,243.6 C73.483,244.434 81.417,244.917 85.55,245.05 C88.25,245.151 93.234,245.3 100.5,245.5 L114.15,245.6 C118.149,246.027 122.598,246.435 127.5,246.826 C132.944,247.241 138.944,247.633 145.5,248.001 L199.75,248.501 C203.25,248.501 206.433,248.468 209.3,248.401 C209.467,248.901 209.767,250.1 210.2,252.001 C208.567,252.135 207.383,252.218 206.65,252.251 L178.5,252.501 C176.267,252.635 174.633,252.718 173.6,252.751 C173.267,252.418 172.983,252.301 172.75,252.401 C172.617,252.467 172.5,252.584 172.4,252.751 C165.4,252.751 159.283,252.435 154.05,251.801 C149.117,251.201 145.25,250.935 142.45,251.001 L128.15,250.851 L126.45,250.501 L109.15,250.351 C102.183,249.652 82.6,248.168 50.4,245.902 C20.633,243.801 5.15,242.618 3.95,242.351 L3.95,238.351 C4.083,237.952 4.166,236.968 4.2,235.402 C4.233,234.335 4.6,233.452 5.3,232.752 L11.8,232.302 C11.667,233.702 11.55,235.019 11.45,236.252 L11.45,240.352 C11.683,240.486 11.867,240.653 12,240.852 C12.133,240.953 12.45,241.002 12.95,241.002 C13.217,241.002 13.45,240.969 13.65,240.902 C15.9,241.143 18.4,241.301 21.15,241.377 C23.325,241.438 25.659,241.446 28.15,241.402 C30.026,241.362 32.118,241.445 34.425,241.652 C37.935,241.978 41.944,242.595 46.45,243.5 Z M59,348.55 C59,348.35 59.017,348.167 59.05,348 C59.484,345.4 61.117,334.767 63.95,316.1 C65.117,308.534 66.833,296.217 69.1,279.151 C71.333,262.418 72.45,253.484 72.45,252.35 L72.45,250.701 C73.55,250.734 74.666,250.784 75.8,250.85 C77.5,250.951 79.183,251.05 80.85,251.151 C79.25,262.85 75.6,287.017 69.9,323.651 C68.4,333.217 67.117,341.517 66.05,348.55 L59,348.55 Z M157.2,119.6 C157.6,119.833 158,120.133 158.4,120.5 C158.967,120.867 160.017,121.85 161.55,123.45 C162.05,123.95 162.584,124.45 163.15,124.95 C163.084,125.15 163.05,125.367 163.05,125.6 C163.05,129.033 166.133,132.333 172.3,135.5 C173.834,136.267 175.984,137.767 178.75,140 C179.95,141.2 181.067,142.25 182.1,143.15 C182.133,143.183 182.183,143.233 182.25,143.3 C182.37,143.42 182.603,143.653 182.95,144 C184.181,145.171 186.814,147.671 190.85,151.5 L191.4,152 C196.6,157.167 199.917,160.817 201.35,162.95 C201.383,162.983 201.767,163.55 202.5,164.65 C203,165.783 202.75,166.7 201.75,167.4 C200.25,168.4 196.917,166.617 191.75,162.05 C191.483,161.817 191.217,161.584 190.95,161.35 C189.283,159.85 187.433,158.067 185.4,156 C181.465,151.916 178.598,149.007 176.8,147.275 C176.583,147.064 176.383,146.873 176.2,146.7 C175.967,146.433 175.717,146.183 175.45,145.95 C175.483,145.916 175.533,145.883 175.6,145.85 C174.5,144.55 173.283,143.15 171.95,141.65 C168.317,137.584 165.75,134.7 164.25,133 C160.617,128.833 158.183,125.817 156.95,123.95 C155.683,122.717 154.5,121.717 153.4,120.95 C154.167,120.283 154.883,119.283 155.55,117.95 C156.083,118.517 156.633,119.067 157.2,119.6 Z" id="Shape" fill="#D87F1C"></path>
            <path d="M440.9,71.35 C442.433,71.317 443.75,71.717 444.849,72.55 C446.049,73.45 446.65,74.667 446.65,76.2 C446.65,77.133 445.966,78.133 444.599,79.2 C442.9,80.467 440.9,80.95 438.599,80.65 C437.533,79.75 436.766,79.067 436.299,78.6 C435.499,77.833 435.099,77.083 435.099,76.35 C435.099,74.783 435.7,73.533 436.9,72.6 C438,71.767 439.333,71.35 440.9,71.35 Z M319.2,160.4 C319.266,160.334 319.349,160.267 319.45,160.2 C331.55,161.1 339.65,162.45 343.75,164.25 C345.45,165.017 346.884,166.033 348.05,167.3 C348.75,168.033 349.767,169.267 351.1,171 C351.3,171.233 351.55,171.65 351.85,172.25 C351.984,172.65 352.151,173.05 352.35,173.45 C352.617,173.85 352.901,174.283 353.201,174.75 C353.734,175.95 354.218,177.35 354.651,178.95 C354.884,179.884 355.234,181.283 355.701,183.15 C355.734,183.349 355.784,183.549 355.85,183.75 C355.984,183.983 356.117,184.184 356.25,184.35 C357.583,188.35 358.9,192.734 360.2,197.5 C362.333,205.134 365.05,215.634 368.349,229 C369.983,235.233 371.349,239.45 372.45,241.65 C372.083,243.683 371.9,244.95 371.9,245.45 C371.9,245.516 372,245.634 372.2,245.8 C372.667,246.2 373.066,246.55 373.4,246.85 C373.9,245.651 374.4,244.401 374.9,243.1 C374.9,243.067 374.917,243.034 374.95,243 L375.25,242.65 C375.316,242.349 375.366,242.033 375.4,241.7 C377.133,236.634 378.583,230.884 379.75,224.45 C381.283,214.516 382.45,207.15 383.25,202.349 C383.95,198.183 385.9,189.533 389.1,176.4 C389.6,174.299 390.067,172.383 390.5,170.65 C390.6,170.717 390.717,170.783 390.85,170.85 C393.484,172.183 396.701,172.85 400.5,172.85 C402.366,172.85 403.9,172.783 405.1,172.65 C404.634,174.783 404.067,177.1 403.401,179.6 C402.3,183.701 401.134,189.134 399.901,195.901 C398.234,204.934 397.234,210.251 396.901,211.85 C391.501,254.217 385.034,275.401 377.501,275.401 C376.367,275.401 375.151,274.434 373.851,272.501 C373.885,272.334 373.902,272.168 373.902,272.001 C373.902,271.435 372.268,268.284 369.002,262.551 C365.035,255.584 362.452,250.867 361.252,248.402 C358.118,241.768 354.535,233.919 350.502,224.851 C349.568,222.785 348.702,220.834 347.902,219.001 L347.902,218.901 C347.902,218.867 347.919,218.85 347.952,218.85 L347.402,217.651 L347.301,217.651 C344.334,210.884 342.068,205.384 340.501,201.151 C339.635,199.05 338.768,197.067 337.901,195.201 C337.034,194.034 336.367,193.117 335.901,192.451 C335.234,191.918 334.517,191.635 333.751,191.6 C333.685,191.767 333.617,191.884 333.551,191.951 C333.518,191.984 333.501,192.234 333.501,192.701 C333.501,193.234 334.001,194.867 335.001,197.6 C335.701,199.5 336.351,200.833 336.951,201.6 C338.951,206.167 341.501,211.917 344.6,218.85 C344.467,219.184 344.401,219.8 344.401,220.701 C344.401,222.301 345.134,229.784 346.6,243.151 C348.1,256.85 349.2,266 349.9,270.6 C350.733,275.833 352.316,286.083 354.65,301.35 C356.383,310.784 358.133,316.701 359.9,319.1 C359.667,319.333 359.45,319.583 359.25,319.85 C357.816,321.583 353.983,323.434 347.75,325.401 C343.75,326.967 339.6,328.251 335.3,329.251 C328.067,330.951 319.934,331.901 310.901,332.101 C310.901,332.068 310.918,332.035 310.951,332.001 L311.251,331.651 C311.317,331.384 311.367,331.234 311.401,331.201 L311.401,330.35 C311.401,327.817 310.951,321.583 310.05,311.651 C309.283,303.084 308.734,297.501 308.401,294.901 L308.401,268.651 L306.901,240.6 L306.901,219.15 C306.567,217.15 306.401,213.966 306.401,209.599 C307.067,199.332 307.401,193.783 307.401,192.95 C307.401,192.116 306.834,190.033 305.701,186.7 C315.567,186.2 320.501,184.75 320.501,182.349 C320.501,180.549 319.851,178.983 318.551,177.65 C316.051,175.083 314.534,173.4 314.001,172.6 C317.635,171.733 320.234,170.967 321.801,170.3 C323.935,169.367 325.001,168.334 325.001,167.2 C323.168,164.733 321.334,162.567 319.501,160.7 C319.4,160.6 319.3,160.5 319.2,160.4 Z M291.5,186.85 L293.1,186.85 C293.167,186.984 293.267,187.151 293.401,187.35 L293.401,223.35 L293.901,224.85 L293.901,268.651 C293.967,268.951 294.134,269.35 294.401,269.85 L294.401,322.35 C294.634,322.951 294.817,324.867 294.951,328.1 C295.017,329.634 295.284,330.934 295.751,332 C279.751,331.7 267.768,330.8 259.801,329.3 C257.768,328.634 255.584,327.734 253.251,326.6 C251.185,326.134 249.451,325.167 248.051,323.701 C246.685,322.301 246.001,321.184 246.001,320.35 L246.001,320.3 C245.935,320.267 245.885,320.234 245.851,320.2 C247.251,310.733 248.918,297.8 250.851,281.4 C253.551,258.333 254.902,242.733 254.902,234.599 C254.568,227.966 254.402,223.049 254.402,219.849 C254.402,218.349 254.368,217.166 254.301,216.299 C255.034,214.466 255.867,212.466 256.801,210.299 C257.367,209.199 258.018,207.782 258.751,206.049 C260.251,202.449 261.001,200.216 261.001,199.349 C261.001,198.849 260.935,198.516 260.801,198.349 C260.635,198.216 260.551,198.133 260.551,198.099 C258.485,198.166 256.701,200.2 255.201,204.2 C254.334,206.566 253.801,208.5 253.6,210 C249.534,219.767 247.017,225.717 246.05,227.85 C244.151,232.184 241.083,241.267 236.85,255.1 C232.55,266.767 228.134,272.6 223.6,272.6 C221.367,272.6 218.15,266.784 213.95,255.151 C213.55,254.084 213.166,252.967 212.8,251.8 C212.667,251.5 212.55,251.2 212.45,250.901 C212.15,250.034 211.867,249.184 211.6,248.35 C211.433,247.822 211.267,247.305 211.1,246.8 C210.915,246.198 210.732,245.615 210.55,245.05 C208.817,239.817 207.467,235.767 206.5,232.901 C204.233,226.067 202.4,221.134 201,218.1 C200.2,216.534 198.833,212.917 196.9,207.25 C194.6,200.65 192.683,195.533 191.15,191.9 C188.75,186.233 186.217,181.383 183.55,177.349 C186.15,177.183 188.734,176.266 191.3,174.599 C192.6,173.766 193.6,172.932 194.3,172.099 C195.167,173.432 196.133,174.882 197.2,176.449 C204.733,187.549 209.416,194.682 211.25,197.848 C213.317,201.449 216.567,208.932 221,220.298 C221.3,221.031 221.583,221.748 221.85,222.448 C222.885,225.093 223.785,227.318 224.55,229.123 C226.154,232.939 227.137,234.848 227.5,234.848 C227.833,234.848 228.1,234.798 228.3,234.699 C228.4,234.633 228.484,234.565 228.55,234.499 L228.8,234.149 C228.933,234.348 229,234.032 229,233.199 C229,231.299 228.633,229.015 227.9,226.348 C229.8,216.848 232.117,207.348 234.85,197.848 C235.017,196.315 235.233,194.798 235.5,193.298 C235.967,191.998 236.467,190.548 237,188.948 C238.467,184.581 239.5,181.614 240.1,180.048 C241.234,177.182 243.534,173.398 247,168.698 C249.2,165.731 250.65,163.781 251.35,162.848 C255.451,159.781 261.117,157.865 268.35,157.098 C268.217,157.331 268.083,157.565 267.951,157.798 C265.984,161.565 265.001,163.998 265.001,165.098 C265.001,166.164 265.617,166.865 266.851,167.198 C268.885,167.764 273.035,167.831 279.301,167.398 C279.301,167.565 279.218,167.798 279.051,168.098 C278.284,169.231 277.117,171.248 275.551,174.148 C273.518,177.981 272.501,180.465 272.501,181.598 C272.501,182.331 273.334,183.081 275.001,183.848 C277.768,185.081 282.234,185.748 288.401,185.848 C288.501,185.882 288.6,185.932 288.701,185.998 C289.3,186.3 290.233,186.583 291.5,186.85 Z" id="Shape" fill="#199F66"></path>
            <path d="M285.7,52.65 C286.167,53.783 287.183,54.35 288.75,54.35 C289.684,54.35 290.833,53.533 292.2,51.9 C292.9,51.033 293.683,50.033 294.55,48.9 C294.717,49.167 295.134,50.267 295.8,52.2 C296.667,53.967 297.817,54.85 299.25,54.85 C301.15,54.85 303.333,53.2 305.8,49.9 C306.167,50.233 306.95,51.267 308.151,53 C309.451,54.567 310.734,55.35 312.001,55.35 C313.201,55.35 314.034,54.733 314.501,53.5 C315.101,51.933 315.435,51.133 315.501,51.1 C315.601,51.166 316.018,51.733 316.751,52.8 C317.185,53.467 317.817,53.817 318.651,53.85 C318.217,55.583 318.001,57.45 318.001,59.45 C318.001,62.45 318.834,65.416 320.501,68.35 C323.534,73.683 328.617,76.35 335.751,76.35 C339.617,76.35 342.885,75.666 345.551,74.3 C344.818,76.067 344.351,78.167 344.152,80.6 C343.752,85.833 343.535,88.517 343.502,88.65 C343.702,90.584 343.285,93.4 342.252,97.1 C341.252,100.8 340.835,103.633 341.002,105.6 C340.235,109.433 339.285,115.617 338.152,124.15 C337.518,128.883 336.685,131.983 335.652,133.45 C334.419,135.217 331.935,136.3 328.202,136.7 C326.235,136.933 321.735,137.067 314.702,137.1 C314.568,137.067 314.435,137.033 314.302,137 L312.302,136.95 C312.236,136.95 312.169,136.933 312.102,136.9 C309.536,136.967 306.352,136.967 302.552,136.9 C293.319,136.8 284.386,136.2 275.752,135.1 C271.186,134.533 267.602,133.717 265.002,132.65 C263.936,132.183 262.686,130.917 261.252,128.85 C259.886,126.85 259.136,125.283 259.002,124.15 C257.902,115.483 257.152,109.133 256.752,105.1 C256.452,102.4 256.235,99.2 256.102,95.5 C255.969,91.267 255.852,88.067 255.752,85.9 C255.652,81.6 255.535,78.367 255.402,76.2 C255.368,75.6 255.318,75.05 255.252,74.55 C257.452,76.084 260.169,76.85 263.402,76.85 C270.368,76.85 275.169,74.617 277.801,70.15 C279.201,67.783 279.902,64.933 279.902,61.6 C279.902,59.067 279.618,56.8 279.051,54.8 C279.617,54.567 280.568,53.834 281.902,52.6 C283.601,51 284.551,50.166 284.752,50.1 C285.116,50.467 285.434,51.317 285.7,52.65 Z M336.7,88.95 C336.7,86.183 335.917,84.133 334.349,82.8 C332.95,81.633 331.2,81.183 329.099,81.45 C327.066,81.717 325.332,82.55 323.9,83.95 C322.299,85.483 321.5,87.3 321.5,89.4 C321.5,91.033 321.767,92.383 322.3,93.45 C323.5,95.85 325.833,97.05 329.3,97.05 C332.5,97.05 334.667,95.95 335.8,93.75 C336.4,92.617 336.7,91.017 336.7,88.95 Z M313.55,140.1 L313.55,140.35 L314.25,140.35 C313.684,141.883 313.267,143.55 313,145.35 C312.733,147.25 312.483,149.85 312.25,153.15 C312.083,155.783 312,157.6 312,158.6 L312,160.6 C310.8,162.267 309.283,164.666 307.45,167.8 C302.983,175.434 300.333,179.717 299.5,180.651 C296.4,174.851 294,170.484 292.3,167.55 C290.6,164.617 289,162.234 287.5,160.4 L287.5,160.2 C287.167,155.133 287,151.35 287,148.85 C287.1,146.283 287.083,144.283 286.95,142.85 C286.816,141.416 286.366,140.4 285.599,139.8 C291.133,140.467 296.766,140.767 302.499,140.7 C305.766,140.666 308.565,140.567 310.899,140.4 C310.771,140.368 310.671,140.352 310.598,140.35 L311.199,140.35 C312.033,140.283 312.816,140.2 313.55,140.1 Z M308,77.35 C307.267,77.35 306.35,77.9 305.25,79 C304.116,80.1 302.45,80.65 300.25,80.65 C298.65,80.65 297.333,80.15 296.3,79.15 C295.234,78.15 294.217,77.633 293.25,77.6 C293.184,77.767 293.116,77.883 293.05,77.95 C293.017,77.983 293,78.233 293,78.7 C293,79.2 293.5,80.083 294.5,81.35 C295.833,83.017 297.333,83.85 299,83.85 C301.667,83.85 304.184,83.283 306.55,82.15 C308.85,81.05 310,79.95 310,78.85 C310,78.35 309.934,78.017 309.8,77.85 C309.634,77.717 309.55,77.633 309.55,77.6 C309.35,77.433 308.833,77.35 308,77.35 Z M324.5,107.5 C324.533,107.4 324.55,107.1 324.55,106.6 C324.55,103.867 323.3,101.45 320.8,99.35 C319.8,98.517 318.934,98.1 318.2,98.1 C317.433,98.1 317.05,98.6 317.05,99.6 C317.05,100.033 317.35,100.6 317.95,101.3 C318.516,102.033 318.8,102.45 318.8,102.55 C309.6,111.683 301.083,116.25 293.25,116.25 C288.283,116.25 284.316,115.383 281.35,113.65 C279.317,111.883 278.05,111 277.55,111 C277.05,111 276.684,111.1 276.45,111.3 L276.05,111.55 C276.083,113.217 277.2,114.8 279.401,116.3 C282.534,118.433 287.084,119.5 293.05,119.5 C298.783,119.5 305,117.233 311.7,112.7 C317.5,108.033 320.616,105.55 321.05,105.25 C321.05,106.417 321.067,107.067 321.1,107.2 C321.333,108.067 321.984,108.5 323.05,108.5 C323.55,108.5 323.884,108.433 324.05,108.3 L324.3,108.05 C324.333,107.95 324.4,107.767 324.5,107.5 Z M405.1,152.2 L405.05,152.15 C405.35,151.617 405.7,151.05 406.1,150.45 C409.234,145.516 413.567,143.05 419.1,143.05 C421.234,143.05 423.267,144.617 425.201,147.75 C426.801,150.35 427.6,152.283 427.6,153.55 C427.6,155.55 426.467,157.617 424.201,159.75 C420.734,162.983 415.484,164.683 408.451,164.85 C407.218,163.883 404.184,162.8 399.35,161.6 C398.517,161.4 397.734,161.217 397,161.05 C398.934,159.984 400.65,158.484 402.15,156.55 C402.216,156.45 402.633,155.834 403.4,154.7 L403.4,154.65 C403.4,154.383 403.967,153.567 405.1,152.2 Z M186.95,144.25 C186.95,144.317 186.967,144.383 187,144.45 C186.586,143.98 186.178,143.521 185.775,143.075 C184.74,141.939 183.732,140.881 182.75,139.9 C181.083,138.233 179.483,136.767 177.95,135.5 C177.916,135.5 177.9,135.483 177.9,135.45 C176.767,134.483 175.217,133.467 173.25,132.4 C172.517,132 171.867,131.617 171.3,131.25 C167.933,128.05 166.067,125.933 165.7,124.9 L166.45,124.15 L171,124.15 C175.467,124.85 178.983,126.317 181.55,128.55 C182.517,129.383 183.35,130.334 184.05,131.4 C185.117,133.033 185.867,134.933 186.3,137.1 C186.454,137.808 186.637,139.724 186.85,142.85 C186.865,143.105 186.882,143.371 186.9,143.65 L186.7,143.45 C186.8,143.717 186.883,143.983 186.95,144.25 Z M161.25,145 C161.25,144.667 161.417,144.167 161.75,143.5 C162.217,142.6 162.783,142.15 163.45,142.15 C164.717,142.15 165.783,142.817 166.65,144.15 C167.683,145.65 168.8,146.567 170,146.9 L170.35,146.85 C170.912,147.353 171.554,147.92 172.275,148.55 C172.365,148.634 172.457,148.718 172.55,148.8 C174.95,150.9 176.633,152.217 177.6,152.75 C179.967,155.183 182.25,157.433 184.45,159.5 C185.717,160.667 186.916,161.75 188.05,162.75 C187.35,163.15 185.8,164.067 183.4,165.5 C182.334,166.067 181.35,166.567 180.45,167 C179.95,167.567 179.467,168.117 179,168.65 L178.5,168.15 L178.25,167.9 C177.05,163.933 173.817,159.25 168.55,153.85 C167.582,152.855 166.707,151.938 165.925,151.1 C162.808,147.754 161.25,145.721 161.25,145 Z M275.2,84 C273.599,82.633 271.634,82 269.3,82.1 C266.967,82.2 265,83.017 263.401,84.55 C261.6,86.217 260.701,88.383 260.701,91.05 C260.701,92.283 261.334,93.783 262.6,95.55 C264.434,98.15 266.934,99.45 270.1,99.45 C273.634,99.45 275.967,98.183 277.1,95.65 C277.634,94.483 277.901,92.733 277.901,90.4 C277.9,87.633 277,85.5 275.2,84 Z" id="Shape" fill="#FFD9AF"></path>
            <path d="M336.7,88.95 C336.7,91.016 336.4,92.617 335.8,93.75 C334.667,95.95 332.5,97.05 329.3,97.05 C325.833,97.05 323.5,95.85 322.3,93.45 C321.767,92.383 321.5,91.033 321.5,89.4 C321.5,87.3 322.3,85.483 323.9,83.95 C325.333,82.55 327.066,81.717 329.099,81.45 C331.2,81.183 332.95,81.633 334.349,82.8 C335.917,84.133 336.7,86.183 336.7,88.95 Z M275.2,84 C277,85.5 277.9,87.633 277.9,90.4 C277.9,92.733 277.633,94.483 277.099,95.65 C275.966,98.183 273.633,99.45 270.099,99.45 C266.933,99.45 264.433,98.15 262.599,95.55 C261.332,93.783 260.7,92.283 260.7,91.05 C260.7,88.383 261.599,86.217 263.4,84.55 C265,83.017 266.966,82.2 269.299,82.1 C271.634,82 273.6,82.633 275.2,84 Z" id="Shape" fill="#FFA78A"></path>
            <path d="M285.25,161.85 C285.316,162.017 285.4,162.183 285.5,162.35 C285.533,162.317 285.583,162.283 285.65,162.25 C286.716,164.483 288.333,167.65 290.5,171.75 C292.9,176.316 294.866,179.7 296.4,181.9 C296.033,181.866 295.65,181.849 295.25,181.849 C286.85,181.582 280.434,181.183 276,180.65 C276.533,179.316 277.983,176.599 280.35,172.5 C282.451,168.833 283.5,166.833 283.5,166.5 C283.6,166.133 283.45,165.767 283.05,165.4 C282.25,164.7 280.567,164.35 278,164.35 C272.333,164.35 269.35,164.267 269.05,164.1 C270.95,161.133 272.467,158.7 273.6,156.8 C274.3,156.767 275.017,156.75 275.75,156.75 C278.217,156.75 280.15,156.9 281.55,157.2 C281.484,157.333 281.401,157.467 281.3,157.6 C282.734,159 283.967,160.416 285,161.85 C285.066,161.85 285.15,161.85 285.25,161.85 Z M314,164.3 C314.1,164.133 314.217,163.933 314.35,163.7 C314.917,162.733 315.367,162.25 315.701,162.25 C315.801,162.25 316.151,162.617 316.751,163.35 C316.885,163.45 317.018,163.567 317.151,163.7 C319.617,165.833 320.901,166.983 321.001,167.15 C318.534,168.283 315.518,169.467 311.951,170.7 C311.317,170.933 311.001,171.567 311.001,172.6 C311.001,174.033 311.734,175.384 313.201,176.65 C315.067,178.283 316.334,179.933 317.001,181.599 C313.701,182.033 309.435,182.466 304.201,182.9 L304.151,182.9 C303.717,183 303.401,183.049 303.201,183.049 C303.1,183.049 303.034,183.032 303.001,182.999 C302.435,183.032 301.867,183.082 301.301,183.149 C302.801,181.215 305.218,177.732 308.551,172.699 C310.818,169.232 312.601,166.449 313.902,164.349 C313.934,164.317 313.967,164.3 314,164.3 Z M391.35,167 C391.583,165.967 391.8,165 392,164.1 C392.333,164.166 392.717,164.217 393.15,164.25 C397.75,164.617 401.583,165.167 404.65,165.9 C404.75,166.233 405.033,166.633 405.5,167.1 C405.533,167.867 405.566,168.783 405.6,169.85 C401.267,170.683 396.934,169.95 392.6,167.65 C392.134,167.417 391.717,167.2 391.35,167 Z M302.1,186.8 C302.6,186.8 303.1,186.783 303.6,186.75 C303.667,187.316 303.767,188.033 303.901,188.9 C304.234,191.033 304.401,192.299 304.401,192.7 C304.401,193.533 304.067,199.217 303.401,209.75 C303.401,214.517 303.567,218.05 303.901,220.35 L303.901,241.35 L305.401,269.401 L305.401,295.651 C305.8,299.284 306.134,306.751 306.401,318.05 C306.834,326.283 307.767,330.967 309.201,332.1 L307.401,332.1 C304.267,332.1 301.267,332.083 298.401,332.05 L298.401,330.95 C298.401,330.283 298.3,328.917 298.1,326.849 C297.867,324.616 297.634,322.799 297.401,321.4 L297.401,268.6 C297.134,268.134 296.967,267.734 296.901,267.401 L296.901,223.901 C296.701,223.501 296.534,223.001 296.401,222.401 L296.401,186.85 L302.001,186.85 C302.033,186.816 302.066,186.8 302.1,186.8 Z M184.5,168.5 C187.133,166.967 188.833,165.8 189.6,165 C190.3,166.133 191.217,167.517 192.35,169.15 C191.35,170.383 190.733,171.05 190.5,171.15 C188.9,171.983 186.417,172.85 183.05,173.75 C182.55,173.883 182.117,174.033 181.75,174.2 C181.617,173 181.183,171.8 180.45,170.6 C181.717,170.067 183.067,169.367 184.5,168.5 Z" id="Shape" fill="#097A4A"></path>
            <path d="M248.85,348.55 C248.917,348.217 248.984,347.866 249.05,347.5 C249.616,343.833 250.267,338.3 251,330.9 L251,329.2 C251.6,329.4 252.233,329.616 252.9,329.849 C264.033,333.516 282.2,335.349 307.4,335.349 C319.2,335.349 331.65,333.349 344.75,329.349 C349.583,327.883 353.5,326.466 356.5,325.099 C356.733,326.533 357.333,330.299 358.3,336.4 C359.234,341.533 360.134,345.016 361,346.849 C361.066,347.016 361.116,347.2 361.15,347.4 C361.15,347.433 361.167,347.466 361.2,347.5 C361.266,347.866 361.349,348.217 361.45,348.55 L248.85,348.55 Z" id="Shape" fill="#5B0000"></path>
            <path d="M147.4,114.15 C147.633,113.983 147.9,113.817 148.2,113.65 C148.6,113.35 148.95,113.05 149.25,112.75 C149.55,112.617 149.75,112.533 149.85,112.5 C150.617,113.633 151.683,114.65 153.05,115.55 C152.817,115.917 152.584,116.433 152.35,117.1 C152.217,117.467 152,117.8 151.7,118.1 C150.766,117.867 150.117,117.683 149.75,117.55 C149.083,117.35 148.6,116.967 148.3,116.4 C148.1,116.067 147.9,115.8 147.7,115.6 L146.95,114.5 C147.117,114.367 147.267,114.25 147.4,114.15 Z" id="Shape" fill="#A8A8A8"></path>
        </g>
    </g>
</svg>