<?xml version="1.0" encoding="UTF-8"?>
<svg width="287px" height="230px" viewBox="0 0 287 230" version="1.1" xmlns="http://www.w3.org/2000/svg" xmlns:xlink="http://www.w3.org/1999/xlink">
    <!-- Generator: Sketch 43.2 (39069) - http://www.bohemiancoding.com/sketch -->
    <title>pet (1)</title>
    <desc>Created with Sketch.</desc>
    <defs></defs>
    <g id="Page-1" stroke="none" stroke-width="1" fill="none" fill-rule="evenodd">
        <g id="pet-(1)">
            <path d="M271.5,56.75 C276.333,61.05 278.75,65.3 278.75,69.5 C278.75,70.833 278.05,73.717 276.65,78.15 C275.216,82.75 274.083,85.433 273.25,86.2 C272.483,85.567 272.066,85.2 272,85.1 C271.833,84.933 271.75,84.717 271.75,84.45 C271.75,84.117 272.417,81.9 273.75,77.8 C275.083,73.7 275.75,71.017 275.75,69.75 C275.75,66.85 273.833,63.633 270,60.1 C266.167,56.6 264.25,54.833 264.25,54.8 C264.25,53.467 265,53.033 266.5,53.5 C267.934,53.967 269.6,55.05 271.5,56.75 Z M261.25,64.7 C261.25,64.833 260.833,66.783 260,70.55 C259.167,74.283 258.75,77.417 258.75,79.95 C258.75,84.083 259.167,88.35 260,92.75 C260.833,97.15 261.25,100.633 261.25,103.2 C261.25,107.233 261,110.033 260.5,111.6 C260.066,112.933 258.417,116.134 255.55,121.2 C253.501,124.786 248.792,130.153 241.425,137.3 C241.498,137.437 241.573,137.571 241.651,137.7 C242.651,139.4 243.85,147.417 245.251,161.75 C246.518,174.917 247.151,183.934 247.151,188.8 C247.151,191.366 247.034,195.333 246.8,200.7 C246.567,206.134 246.35,209.634 246.151,211.2 C245.784,214.7 244.434,217.884 242.1,220.75 C237.434,226.384 229.817,229.2 219.25,229.2 C214.417,229.2 210.934,228.283 208.8,226.45 C207.434,225.283 206.75,223.9 206.75,222.3 C206.75,221.544 206.809,220.844 206.925,220.2 L204.25,220.2 C200.217,220.634 197.366,219.967 195.7,218.2 C194.733,217.134 194.25,215.849 194.25,214.349 C194.25,211.249 195.833,208.883 199,207.249 C199.8,206.849 200.884,206.315 202.25,205.649 C203.25,205.015 203.75,204.282 203.75,203.449 C203.75,202.149 203.5,200.649 203,198.949 C202.5,197.249 202.25,195.949 202.25,195.049 C202.25,194.676 202.259,194.343 202.275,194.049 C199.36,194.259 196.685,194.476 194.25,194.699 L173.75,194.699 C172.983,194.598 170.8,194.449 167.2,194.249 C163.533,193.982 161.3,193.815 160.5,193.749 L134.75,193.699 C128.25,193.232 124.5,192.916 123.5,192.749 L105.225,192.724 C105.242,192.991 105.25,193.283 105.25,193.599 C105.25,198.766 104.917,202.65 104.25,205.249 C102.55,211.883 98.967,215.199 93.5,215.199 L87.75,214.699 C87.429,214.427 87.171,214.201 86.975,214.024 C85.121,218.172 82.379,220.731 78.75,221.699 L61.75,221.699 C58.017,221.098 55.533,220.149 54.3,218.848 C53.6,218.115 53.25,217.015 53.25,215.548 C53.25,212.715 55,210.149 58.5,207.848 C60.6,206.482 61.783,205.682 62.05,205.449 C63.117,204.582 63.617,203.682 63.55,202.749 C63.35,199.749 63.25,195.115 63.25,188.849 C63.25,187.983 63.367,184.183 63.6,177.45 C63.833,169.95 64.05,164.033 64.25,159.7 C64.383,156.9 64.383,152 64.25,145 C64.18,142.876 64.247,141.001 64.45,139.375 C64.461,138.935 64.478,138.459 64.5,137.95 C64.5,136.073 64.55,134.549 64.65,133.375 C63.499,132.681 62.632,131.722 62.05,130.5 C61.517,129.4 61.25,127.767 61.25,125.6 C61.25,123.434 61.833,121.317 63,119.25 C64.389,116.819 66.322,115.361 68.8,114.875 C68.171,114.509 67.604,114.117 67.1,113.7 C65.6,112.467 64.683,111.016 64.35,109.35 C64.283,109.017 64.25,107.967 64.25,106.2 C64.25,103.967 64.383,102.5 64.65,101.8 C65.175,100.379 66.167,99.554 67.625,99.325 C67.551,99.124 67.476,98.915 67.4,98.7 C66.65,96.578 66.266,95.212 66.25,94.6 C65.076,94.666 63.91,94.7 62.75,94.7 C46.583,94.7 32.75,90.533 21.25,82.2 C9.583,73.733 3.75,63.4 3.75,51.2 C3.75,47.766 10.417,44.516 23.75,41.45 C24.104,41.361 26.104,40.986 29.75,40.325 L29.75,40.3 C29.75,38.2 30.1,35.467 30.8,32.1 C31.767,27.567 33.117,23.583 34.85,20.15 C39.509,11.015 46.142,7.524 54.75,9.675 C54.758,8.486 55.674,7.177 57.5,5.75 C59.7,4.05 62.283,3.2 65.25,3.2 C65.355,3.2 65.522,3.217 65.75,3.25 C66.458,3.322 67.758,3.522 69.65,3.85 C72.15,4.25 73.6,4.45 74,4.45 C74.067,4.45 74.8,3.85 76.2,2.65 C77.8,1.417 79.15,0.767 80.25,0.7 C81.517,0.7 83.133,1.25 85.1,2.35 C86.067,2.883 86.95,3.416 87.75,3.95 C87.983,3.95 88.767,3.416 90.1,2.35 C91.433,1.25 93.15,0.7 95.25,0.7 C97.85,0.7 99.65,1.3 100.65,2.5 C100.917,2.8 101.217,3.533 101.55,4.7 C102.05,4.6 102.55,4.3 103.05,3.8 C103.75,3.4 104.984,3.2 106.75,3.2 C109.083,3.2 110.633,3.583 111.4,4.35 C111.8,4.783 112.1,5.333 112.3,6 L128.75,6.2 C140.083,9.933 148.217,16.367 153.15,25.5 C155.716,30.267 157.917,37.917 159.75,48.45 C160.483,52.617 161.75,59.967 163.55,70.5 C164.346,75.616 164.929,80.182 165.3,84.2 C165.6,87.591 165.75,90.591 165.75,93.2 C165.75,94.319 165.691,95.552 165.575,96.9 C166.701,96.868 168.559,97.368 171.15,98.4 C173.75,99.433 177.716,101.117 183.049,103.45 C184.216,103.817 189.4,105.233 198.599,107.7 C205.666,109.567 210.483,111.067 213.049,112.2 C220.615,115.533 226.816,119.566 231.65,124.3 C232.592,125.234 233.534,126.258 234.474,127.375 C234.227,126.313 233.985,125.172 233.749,123.95 C232.416,117.083 231.749,112.083 231.749,108.95 C231.749,100.383 233.766,92.4 237.799,85 C242.799,75.767 250.466,68.583 260.799,63.45 C260.799,63.483 260.883,63.567 261.049,63.7 C261.184,63.867 261.25,64.2 261.25,64.7 Z M286.65,74.2 C286.65,77.533 286.033,80.416 284.799,82.85 C283.233,85.916 280.516,88.7 276.65,91.2 C276.316,90.9 275.917,90.55 275.45,90.15 C275.25,89.983 275.15,89.867 275.15,89.8 C275.15,89.5 276.033,88.3 277.799,86.2 C279.999,83.6 281.615,81.433 282.65,79.7 C283.616,78.1 284,76.35 283.799,74.45 C283.365,72.35 283.15,70.717 283.15,69.55 C283.15,69.084 283.167,68.834 283.2,68.8 C283.266,68.734 283.333,68.617 283.4,68.45 C285.233,68.55 286.316,69.4 286.65,71 C286.85,71.867 286.85,72.933 286.65,74.2 Z M255.95,75.05 C256.116,72.217 256.3,70.033 256.5,68.5 C248.3,75.4 242.533,82.15 239.2,88.75 C236.233,94.55 234.75,101.217 234.75,108.75 C234.75,113.05 235.134,116.866 235.9,120.2 C236.433,122.5 237.716,126.599 239.75,132.5 C245.316,128.634 249.833,123.816 253.3,118.05 C256.6,112.584 258.25,107.567 258.25,103 C258.25,101.133 257.833,97.983 257,93.55 C256.167,89.117 255.75,84.584 255.75,79.95 C255.75,79.083 255.816,77.45 255.95,75.05 Z M239.55,139.95 C236.717,134.849 233.734,130.683 230.6,127.45 C226,122.717 220.151,118.733 213.05,115.5 C211.651,114.867 202.401,111.95 185.3,106.75 C174.425,103.443 167.767,100.935 165.325,99.225 C164.844,102.929 163.985,107.354 162.75,112.5 C159.884,124.3 156.217,130.2 151.75,130.2 C145.068,130.2 139.977,123.866 136.475,111.2 C136.111,111.494 135.62,111.828 135,112.2 C133.133,113.266 130.717,114.266 127.75,115.2 C119.217,117.866 108.383,119.2 95.25,119.2 C87.586,119.2 81.336,118.675 76.5,117.625 C76.778,118.039 77.028,118.498 77.25,119 C77.917,120.533 78.25,122.184 78.25,123.95 C78.25,126.05 77.85,128.05 77.05,129.95 C75.717,133.116 73.533,134.7 70.5,134.7 C69.697,134.7 68.947,134.65 68.25,134.55 C68.218,135.229 68.051,136.396 67.75,138.05 C67.417,139.85 67.25,141.5 67.25,143 C67.25,144.8 67.417,147.667 67.75,151.6 C67.75,162.067 67.25,170.35 66.25,176.451 L66.25,200.751 C67.75,203.185 68.15,205.084 67.45,206.451 C66.983,207.418 65.75,208.301 63.75,209.1 C60.983,210.234 59.317,210.984 58.75,211.35 C57.083,212.451 56.25,213.917 56.25,215.75 C56.25,216.417 56.833,216.95 58,217.35 C58.7,217.583 60.033,217.951 62,218.451 L78.8,218.451 C82.067,216.85 83.967,214.484 84.5,211.35 C84.533,207.75 84.783,205.117 85.25,203.451 C85.417,200.317 85.6,197.617 85.8,195.35 C85.949,193.369 86.175,191.827 86.475,190.725 C85.752,190.59 84.994,190.449 84.2,190.3 C81.9,189.901 80.75,189.401 80.75,188.8 C80.75,187.967 80.883,187.484 81.15,187.35 C81.383,187.217 82.017,187.284 83.05,187.55 C84.828,188.021 86.612,188.404 88.4,188.7 C88.773,188.719 89.031,188.761 89.175,188.825 C91.192,189.142 93.217,189.35 95.25,189.45 L122.75,189.7 C123.25,189.8 125.133,189.933 128.4,190.099 C131.633,190.299 133.5,190.433 134,190.499 L159.25,190.699 L172.55,191.499 L194.75,191.449 C195.316,191.315 203.816,190.732 220.25,189.699 L223.75,189.699 C224.75,190.633 225.25,191.133 225.25,191.199 C225.25,191.865 225.017,192.299 224.55,192.499 C224.05,192.699 222.8,192.849 220.8,192.949 C220.077,192.984 219.362,193.017 218.651,193.049 C219.7,195.963 221.067,202.296 222.751,212.049 C222.751,213.15 220.584,214.499 216.251,216.099 C211.918,217.7 209.751,219.566 209.751,221.7 C209.751,222.733 210.584,223.667 212.251,224.5 C214.151,225.467 216.518,225.95 219.351,225.95 C232.018,225.95 239.801,221.884 242.702,213.75 C243.768,210.75 244.318,206.767 244.351,201.8 C244.218,195.967 244.152,191.634 244.152,188.8 C244.152,180.366 243.835,171.583 243.202,162.45 C242.333,150.25 241.116,142.75 239.55,139.95 Z M215.775,193.2 C211.666,193.425 207.874,193.658 204.4,193.9 C204.513,194.109 204.63,194.342 204.75,194.599 C206.417,198.099 207.25,201.666 207.25,205.299 C207.25,206.933 206.733,208.066 205.7,208.699 C205.099,209.065 203.95,209.399 202.25,209.699 C200.616,209.932 199.467,210.282 198.8,210.749 C197.767,211.482 197.25,212.732 197.25,214.499 C197.25,214.633 197.684,215.282 198.55,216.449 C201.961,216.613 205.144,216.854 208.1,217.174 C208.227,217.01 208.36,216.852 208.5,216.699 C210.267,214.799 213.866,213.065 219.3,211.499 C218.7,209.065 217.95,205.466 217.05,200.699 C216.311,196.747 215.886,194.247 215.775,193.2 Z M56,11.6 C55.445,11.922 54.845,12.055 54.2,12 C52.833,11.633 51.766,11.45 51,11.45 C44.167,11.45 39.25,16.117 36.25,25.45 C34.75,30.117 33.917,34.817 33.75,39.55 L33.75,39.6 C37.697,38.885 42.805,37.968 49.075,36.85 C48.778,36.426 48.503,35.975 48.25,35.5 C47.55,34.233 47.1,32.817 46.9,31.25 L46.75,29.3 C46.75,24.6 48,21.117 50.5,18.85 C52.7,16.85 55.45,16.067 58.75,16.5 C61.39,16.857 63.723,17.882 65.75,19.575 C66.181,19.938 66.597,20.329 67,20.75 C69.5,23.383 70.75,26.533 70.75,30.2 C70.75,31.604 70.583,32.929 70.25,34.175 C70.006,35.074 69.673,35.933 69.25,36.75 C69.231,36.787 69.214,36.82 69.2,36.85 C68.334,38.454 67.184,39.662 65.75,40.475 C64.293,41.291 62.543,41.7 60.5,41.7 C56.382,41.7 53.157,40.717 50.825,38.75 C48.411,40.263 41.219,42.296 29.25,44.85 C25.927,45.552 22.968,46.21 20.375,46.825 C21.625,48.356 22.25,50.014 22.25,51.8 C22.25,54.567 21.783,56.834 20.85,58.6 C19.45,61.233 16.916,63.1 13.25,64.2 L9.475,64.2 C12.771,71.29 19.046,77.39 28.3,82.5 C33.533,85.4 39.267,87.683 45.5,89.35 C50.7,90.783 54.95,91.5 58.25,91.5 C72.417,91.5 83.533,89.55 91.6,85.65 C92.539,85.197 93.439,84.714 94.3,84.2 C95.991,83.2 97.541,82.083 98.95,80.85 C99.557,80.329 100.19,79.746 100.85,79.1 C100.522,78.585 100.106,78.036 99.6,77.45 C98.375,75.993 97.759,75.444 97.75,75.8 C97.751,74.5 98.135,73.883 98.9,73.95 C99.633,74.016 100.5,74.6 101.5,75.7 C101.948,76.202 102.356,76.71 102.725,77.225 L102.75,77.2 C103.75,78.067 104.25,78.817 104.25,79.45 C104.25,79.525 104.217,79.617 104.15,79.725 C104.8,81.162 105.158,82.654 105.225,84.2 C105.242,84.399 105.25,84.599 105.25,84.8 C105.25,85.433 105.183,86 105.05,86.5 L104.8,86.85 C104.6,87.083 104.25,87.2 103.75,87.2 C102.817,87.2 102.217,86.333 101.95,84.6 C101.943,84.462 101.934,84.329 101.925,84.2 C101.871,83.119 101.829,82.327 101.8,81.825 C101.478,82.049 101.128,82.29 100.75,82.55 C99.923,83.105 99.048,83.655 98.125,84.2 C96.132,85.39 93.923,86.557 91.5,87.7 C84.041,91.181 76.815,93.364 69.825,94.25 C69.938,94.617 70.03,95.05 70.1,95.55 C70.166,95.914 70.233,97.214 70.3,99.45 L70.325,99.5 C78.078,100.133 83.17,100.45 85.6,100.45 C93.367,100.45 101.45,99.383 109.85,97.25 C114.05,96.183 117.517,95.1 120.25,94 C121.217,93.7 123.983,92.033 128.55,89 C130.149,88.11 131.44,87.585 132.425,87.425 C132.321,86.365 132.22,85.29 132.125,84.2 C131.836,80.73 131.611,77.113 131.45,73.35 C131.317,66.017 131.25,62.183 131.25,61.85 C131.583,54.916 131.75,49.55 131.75,45.75 L132.15,45.5 C132.383,45.3 132.75,45.2 133.25,45.2 C133.75,45.2 134.05,45.25 134.15,45.35 L134.55,45.75 C134.683,49.25 134.584,54.567 134.25,61.7 C134.25,61.967 134.317,65.6 134.45,72.6 C134.615,76.642 134.848,80.509 135.15,84.2 C135.446,87.966 135.813,91.549 136.25,94.95 C139.05,116.283 144.167,126.95 151.6,126.95 C154.734,126.95 157.534,121.349 160,110.15 C161.833,98.917 162.75,93.267 162.75,93.2 C162.75,91.344 162.509,88.344 162.025,84.2 C161.546,80.156 160.838,75.023 159.9,68.8 C158.667,60.667 157.616,54.133 156.75,49.2 C154.717,38.733 152.65,31.45 150.55,27.35 C146.05,18.617 138.633,12.65 128.3,9.45 L113.55,9.45 C113.35,9.75 113.167,10 113,10.2 C112.7,10.533 112.283,10.7 111.75,10.7 C110.617,10.7 109.833,10.1 109.4,8.9 C108.8,7.267 108.417,6.383 108.25,6.25 C105.583,6.483 103.783,6.967 102.85,7.7 C101.983,8.367 101.367,8.7 101,8.7 C99.833,8.7 99,8.067 98.5,6.8 C97.9,5.234 97.333,4.283 96.8,3.95 L93.5,3.95 C92.6,4.283 91.433,5.033 90,6.2 C88.767,7.2 87.933,7.7 87.5,7.7 C86.667,7.7 85.767,7.05 84.8,5.75 C83.8,4.417 82.967,3.75 82.3,3.75 C79.4,3.75 77.667,4.5 77.1,6 C76.9,6.733 76.717,7.233 76.55,7.5 C76.283,7.967 75.767,8.2 75,8.2 C74.867,8.2 72.717,7.55 68.55,6.25 C67.548,6.25 66.614,6.275 65.75,6.325 C61.556,6.531 58.99,7.256 58.05,8.5 C57.817,10.233 57.217,11.3 56.25,11.7 C56.162,11.668 56.079,11.635 56,11.6 Z M17.475,47.525 C10.325,49.311 6.75,50.652 6.75,51.55 C6.75,55.012 7.283,58.295 8.35,61.4 C8.461,61.368 8.578,61.335 8.7,61.3 C11.3,60.533 12.733,60.1 13,60 C17.167,58.433 19.25,55.833 19.25,52.2 C19.25,51.833 18.917,50.883 18.25,49.35 C17.896,48.536 17.638,47.927 17.475,47.525 Z M61.425,20.65 C60.729,20.513 60.004,20.43 59.25,20.4 C56.65,20.334 54.467,20.967 52.7,22.3 C50.733,23.834 49.75,26 49.75,28.8 C49.75,29.285 49.783,29.768 49.85,30.25 C49.819,30.187 49.786,30.12 49.75,30.05 C49.854,31.811 50.521,33.444 51.75,34.95 C51.842,35.062 51.934,35.171 52.025,35.275 L52.1,35.375 C53.141,36.493 54.432,37.31 55.975,37.825 C57.26,38.242 58.718,38.45 60.35,38.45 C62.442,38.45 64.108,37.842 65.35,36.625 C65.488,36.492 65.621,36.351 65.75,36.2 C65.818,36.129 65.885,36.054 65.95,35.975 C65.885,36.005 65.818,36.03 65.75,36.05 C65.12,36.313 64.386,36.446 63.55,36.45 C63.448,36.528 63.348,36.602 63.25,36.675 C59.868,36.545 57.384,35.47 55.8,33.45 C54.767,32.117 54.25,30.733 54.25,29.3 C54.25,27.267 55.083,25.584 56.75,24.25 C58.317,23.017 60.15,22.383 62.25,22.35 C62.388,22.348 62.521,22.348 62.65,22.35 C62.042,21.56 61.634,20.993 61.425,20.65 Z M64.575,27.575 C64.411,27.467 64.237,27.367 64.05,27.275 C63.675,27.089 63.242,26.931 62.75,26.8 C60.75,26.3 59.75,27.133 59.75,29.3 C59.75,29.9 59.917,30.467 60.25,31 C60.65,31.667 61.15,32 61.75,32 C62.509,32 63.167,31.917 63.725,31.75 C63.892,31.521 64.075,31.271 64.275,31 C64.556,30.619 64.873,30.193 65.225,29.725 C65.142,29.293 64.951,28.652 64.65,27.8 C64.62,27.722 64.595,27.647 64.575,27.575 Z M126.65,21.2 C124.584,19.367 122,18.533 118.9,18.7 C115.962,18.863 113.421,19.838 111.275,21.625 C112.603,21.209 114.094,21.084 115.75,21.25 C118.15,21.483 120.15,22.3 121.75,23.7 C123.583,25.3 124.5,27.383 124.5,29.95 C124.5,31.783 123.967,33.6 122.9,35.4 C121.233,38.1 118.683,39.45 115.25,39.45 C114.087,39.45 112.862,39.158 111.575,38.575 C113.817,40.825 116.742,41.95 120.35,41.95 C125.15,41.95 128.65,40.283 130.85,36.95 C132.117,34.983 132.75,33.016 132.75,31.05 C132.75,27.984 131.45,25.3 128.85,23 C128.329,22.544 127.787,22.127 127.225,21.75 C127.041,21.56 126.849,21.376 126.65,21.2 Z M112.75,27.55 C110.917,27.517 110,28.617 110,30.85 C110,31.05 110.15,31.383 110.45,31.85 C110.783,32.317 111.1,32.65 111.4,32.85 C113,33.117 114.167,32.767 114.9,31.8 C115.3,31.267 115.5,30.667 115.5,30 C115.5,28.4 114.583,27.583 112.75,27.55 Z M104.75,30.3 C104.75,27.167 105.517,24.3 107.05,21.7 C109.617,17.367 113.85,15.2 119.75,15.2 C124.178,15.2 127.803,16.658 130.625,19.575 C131.317,20.281 131.959,21.073 132.55,21.95 C132.603,22.028 132.653,22.103 132.7,22.175 C134.733,25.262 135.75,28.187 135.75,30.95 C135.75,33.65 135,36.25 133.5,38.75 C130.9,43.05 126.567,45.2 120.5,45.2 C114.467,45.2 110.05,42.867 107.25,38.2 C105.583,35.433 104.75,32.8 104.75,30.3 Z M133.55,96.75 C133.299,95.04 133.066,93.281 132.85,91.475 C132.226,91.914 131.443,92.39 130.5,92.9 C127.5,94.567 123.75,96.167 119.25,97.7 C107.65,101.7 96.4,103.7 85.5,103.7 C77.776,103.215 72.451,102.89 69.525,102.725 C69.363,102.875 69.188,103.033 69,103.2 C67.833,104.2 67.25,105.15 67.25,106.05 C67.25,108.917 68.267,110.967 70.3,112.2 C74.3,114.7 82.567,115.95 95.1,115.95 C107.633,115.95 118.017,114.75 126.25,112.35 C130.35,111.117 133.433,109.9 135.5,108.7 L135.825,108.7 C134.957,105.158 134.198,101.175 133.55,96.75 Z M69.75,118.1 C68.25,118.167 66.983,118.817 65.95,120.05 C64.817,121.45 64.25,123.333 64.25,125.7 C64.25,127.433 64.35,128.483 64.55,128.849 C65.05,129.716 66.533,130.582 69,131.45 L72.25,131.45 C72.817,131.05 73.467,129.9 74.2,128 C74.9,126.233 75.25,125 75.25,124.3 C75.25,122.333 74.683,120.767 73.55,119.6 C72.483,118.533 71.217,118.033 69.75,118.1 Z M101.75,200.25 C101.75,197.181 102.1,194.673 102.8,192.725 L95.75,192.701 C94.226,192.32 92.226,191.878 89.75,191.376 C89.73,198.948 89.531,203.94 89.15,206.351 C88.856,208.151 88.473,209.792 88,211.277 C91.177,211.726 92.96,211.952 93.35,211.952 C98.817,211.952 101.75,210.386 102.15,207.252 C102.283,206.386 102.2,205.102 101.9,203.402 C101.667,201.8 101.617,200.75 101.75,200.25 Z" id="Shape" fill="#000000" fill-rule="nonzero"></path>
            <path d="M255.95,75.05 C255.816,77.45 255.75,79.084 255.75,79.95 C255.75,84.583 256.167,89.117 257,93.55 C257.833,97.984 258.25,101.133 258.25,103 C258.25,107.567 256.6,112.583 253.3,118.05 C249.833,123.817 245.317,128.634 239.75,132.5 C237.717,126.6 236.434,122.5 235.9,120.2 C235.133,116.866 234.75,113.05 234.75,108.75 C234.75,101.217 236.233,94.55 239.2,88.75 C242.533,82.15 248.3,75.4 256.5,68.5 C256.3,70.033 256.116,72.217 255.95,75.05 Z M215.775,193.2 C215.885,194.247 216.31,196.747 217.049,200.7 C217.949,205.467 218.699,209.066 219.299,211.5 C213.865,213.066 210.266,214.8 208.499,216.7 C208.358,216.852 208.226,217.011 208.099,217.175 C205.143,216.856 201.96,216.614 198.549,216.45 C197.683,215.283 197.249,214.634 197.249,214.5 C197.249,212.733 197.766,211.483 198.799,210.75 C199.466,210.283 200.615,209.934 202.249,209.7 C203.949,209.4 205.099,209.066 205.699,208.7 C206.732,208.066 207.249,206.933 207.249,205.3 C207.249,201.667 206.416,198.1 204.749,194.6 C204.63,194.343 204.513,194.11 204.399,193.901 C207.874,193.658 211.666,193.425 215.775,193.2 Z M101.75,200.25 C101.617,200.75 101.667,201.8 101.9,203.4 C102.2,205.099 102.283,206.383 102.15,207.25 C101.75,210.384 98.817,211.95 93.35,211.95 C92.96,211.95 91.177,211.724 88,211.275 C88.473,209.791 88.856,208.149 89.15,206.349 C89.531,203.939 89.731,198.947 89.75,191.374 C92.226,191.876 94.226,192.318 95.75,192.699 L102.8,192.723 C102.1,194.673 101.75,197.181 101.75,200.25 Z" id="Shape" fill="#BD7E2F"></path>
            <path d="M239.55,139.95 C241.116,142.75 242.333,150.25 243.2,162.45 C243.833,171.583 244.15,180.366 244.15,188.8 C244.15,191.634 244.216,195.967 244.349,201.8 C244.316,206.767 243.766,210.75 242.7,213.75 C239.8,221.884 232.016,225.95 219.349,225.95 C216.516,225.95 214.15,225.467 212.249,224.5 C210.582,223.667 209.749,222.733 209.749,221.7 C209.749,219.566 211.916,217.7 216.249,216.099 C220.582,214.499 222.749,213.15 222.749,212.049 C221.065,202.296 219.698,195.963 218.649,193.049 C219.36,193.018 220.076,192.985 220.798,192.949 C222.798,192.848 224.048,192.699 224.548,192.499 C225.015,192.299 225.248,191.865 225.248,191.199 C225.248,191.133 224.748,190.633 223.748,189.699 L220.248,189.699 C203.814,190.732 195.314,191.315 194.748,191.449 L172.548,191.499 L159.248,190.699 L134,190.5 C133.5,190.434 131.633,190.3 128.4,190.1 C125.133,189.934 123.25,189.8 122.75,189.701 L95.25,189.451 C93.216,189.351 91.191,189.143 89.175,188.826 C89.031,188.762 88.773,188.72 88.4,188.701 C86.611,188.404 84.828,188.021 83.05,187.551 C82.017,187.284 81.383,187.218 81.15,187.351 C80.883,187.485 80.75,187.968 80.75,188.801 C80.75,189.402 81.9,189.902 84.2,190.301 C84.993,190.449 85.752,190.591 86.475,190.726 C86.174,191.828 85.949,193.37 85.8,195.351 C85.6,197.618 85.417,200.318 85.25,203.452 C84.783,205.118 84.533,207.752 84.5,211.351 C83.967,214.485 82.067,216.851 78.8,218.452 L62,218.452 C60.033,217.952 58.7,217.585 58,217.351 C56.833,216.952 56.25,216.418 56.25,215.751 C56.25,213.918 57.083,212.451 58.75,211.351 C59.317,210.985 60.983,210.235 63.75,209.101 C65.75,208.301 66.983,207.418 67.45,206.452 C68.15,205.085 67.75,203.185 66.25,200.752 L66.25,176.452 C67.25,170.351 67.75,162.068 67.75,151.601 C67.417,147.668 67.25,144.801 67.25,143.001 C67.25,141.501 67.417,139.851 67.75,138.051 C68.051,136.397 68.218,135.23 68.25,134.551 C68.947,134.652 69.697,134.701 70.5,134.701 C73.533,134.701 75.717,133.117 77.05,129.951 C77.85,128.051 78.25,126.051 78.25,123.951 C78.25,122.184 77.917,120.534 77.25,119.001 C77.028,118.499 76.778,118.04 76.5,117.626 C81.336,118.676 87.586,119.201 95.25,119.201 C108.383,119.201 119.217,117.867 127.75,115.201 C130.717,114.267 133.133,113.267 135,112.201 C135.62,111.829 136.111,111.495 136.475,111.201 C139.976,123.867 145.068,130.201 151.75,130.201 C156.217,130.201 159.884,124.301 162.75,112.501 C163.985,107.355 164.844,102.93 165.325,99.226 C167.766,100.936 174.425,103.444 185.3,106.751 C202.401,111.951 211.651,114.868 213.05,115.501 C220.151,118.734 226,122.718 230.6,127.451 C233.733,130.684 236.717,134.85 239.55,139.95 Z M56,11.6 C56.079,11.635 56.162,11.668 56.25,11.7 C57.217,11.3 57.817,10.233 58.05,8.5 C58.99,7.256 61.556,6.531 65.75,6.325 C66.614,6.275 67.548,6.25 68.55,6.25 C72.717,7.55 74.867,8.2 75,8.2 C75.767,8.2 76.283,7.967 76.55,7.5 C76.717,7.233 76.9,6.733 77.1,6 C77.666,4.5 79.4,3.75 82.3,3.75 C82.967,3.75 83.8,4.417 84.8,5.75 C85.767,7.05 86.667,7.7 87.5,7.7 C87.933,7.7 88.767,7.2 90,6.2 C91.433,5.033 92.6,4.283 93.5,3.95 L96.8,3.95 C97.334,4.283 97.9,5.233 98.5,6.8 C99,8.067 99.833,8.7 101,8.7 C101.367,8.7 101.983,8.367 102.85,7.7 C103.783,6.967 105.583,6.483 108.25,6.25 C108.417,6.383 108.8,7.267 109.4,8.9 C109.834,10.1 110.617,10.7 111.75,10.7 C112.283,10.7 112.7,10.533 113,10.2 C113.167,10 113.35,9.75 113.55,9.45 L128.3,9.45 C138.633,12.65 146.05,18.617 150.55,27.35 C152.651,31.45 154.717,38.733 156.75,49.2 C157.616,54.133 158.667,60.666 159.9,68.8 C160.838,75.023 161.546,80.156 162.025,84.2 C162.508,88.344 162.75,91.344 162.75,93.2 C162.75,93.266 161.833,98.916 160,110.15 C157.533,121.35 154.733,126.95 151.6,126.95 C144.167,126.95 139.05,116.283 136.25,94.95 C135.812,91.549 135.446,87.966 135.15,84.2 C134.848,80.509 134.615,76.642 134.45,72.6 C134.317,65.6 134.25,61.967 134.25,61.7 C134.583,54.567 134.683,49.25 134.55,45.75 L134.15,45.35 C134.05,45.25 133.75,45.2 133.25,45.2 C132.75,45.2 132.383,45.3 132.15,45.5 L131.75,45.75 C131.75,49.55 131.583,54.917 131.25,61.85 C131.25,62.183 131.317,66.017 131.45,73.35 C131.611,77.113 131.836,80.73 132.125,84.2 C132.22,85.289 132.32,86.365 132.425,87.425 C131.44,87.586 130.149,88.111 128.55,89 C123.984,92.033 121.217,93.7 120.25,94 C117.517,95.1 114.05,96.183 109.85,97.25 C101.45,99.383 93.367,100.45 85.6,100.45 C83.17,100.45 78.078,100.133 70.325,99.5 L70.3,99.45 C70.233,97.214 70.166,95.914 70.1,95.55 C70.03,95.05 69.938,94.617 69.825,94.25 C76.815,93.364 84.04,91.181 91.5,87.7 C93.923,86.557 96.132,85.39 98.125,84.2 C99.048,83.655 99.923,83.105 100.75,82.55 C101.128,82.291 101.478,82.049 101.8,81.825 C101.829,82.327 101.871,83.119 101.925,84.2 C101.935,84.329 101.943,84.462 101.95,84.6 C102.217,86.333 102.817,87.2 103.75,87.2 C104.25,87.2 104.6,87.083 104.8,86.85 L105.05,86.5 C105.183,86 105.25,85.433 105.25,84.8 C105.25,84.599 105.242,84.4 105.225,84.2 C105.158,82.654 104.8,81.162 104.15,79.725 C104.217,79.617 104.25,79.525 104.25,79.45 C104.25,78.817 103.75,78.067 102.75,77.2 L102.725,77.225 C102.356,76.71 101.948,76.202 101.5,75.7 C100.5,74.6 99.633,74.016 98.9,73.95 C98.135,73.883 97.752,74.5 97.75,75.8 C97.759,75.444 98.375,75.994 99.6,77.45 C100.106,78.035 100.522,78.585 100.85,79.1 C100.19,79.746 99.557,80.329 98.95,80.85 C97.54,82.083 95.991,83.2 94.3,84.2 C93.439,84.714 92.539,85.197 91.6,85.65 C83.533,89.55 72.416,91.5 58.25,91.5 C54.95,91.5 50.7,90.783 45.5,89.35 C39.267,87.683 33.533,85.4 28.3,82.5 C19.046,77.39 12.771,71.29 9.475,64.2 L13.25,64.2 C16.917,63.1 19.45,61.233 20.85,58.6 C21.783,56.833 22.25,54.567 22.25,51.8 C22.25,50.015 21.625,48.357 20.375,46.825 C22.968,46.21 25.927,45.552 29.25,44.85 C41.219,42.296 48.411,40.263 50.825,38.75 C53.157,40.717 56.382,41.7 60.5,41.7 C62.543,41.7 64.293,41.291 65.75,40.475 C67.184,39.662 68.334,38.454 69.2,36.85 C69.214,36.82 69.231,36.787 69.25,36.75 C69.673,35.933 70.006,35.074 70.25,34.175 C70.583,32.93 70.75,31.605 70.75,30.2 C70.75,26.533 69.5,23.383 67,20.75 C66.597,20.33 66.181,19.938 65.75,19.575 C63.723,17.882 61.39,16.857 58.75,16.5 C55.45,16.067 52.7,16.85 50.5,18.85 C48,21.117 46.75,24.6 46.75,29.3 L46.9,31.25 C47.1,32.817 47.55,34.233 48.25,35.5 C48.503,35.976 48.778,36.426 49.075,36.85 C42.805,37.968 37.697,38.885 33.75,39.6 L33.75,39.55 C33.917,34.817 34.75,30.117 36.25,25.45 C39.25,16.117 44.167,11.45 51,11.45 C51.767,11.45 52.833,11.633 54.2,12 C54.845,12.055 55.445,11.922 56,11.6 Z M104.75,30.3 C104.75,32.8 105.583,35.433 107.25,38.2 C110.05,42.867 114.467,45.2 120.5,45.2 C126.567,45.2 130.9,43.05 133.5,38.75 C135,36.25 135.75,33.65 135.75,30.95 C135.75,28.187 134.733,25.262 132.7,22.175 C132.653,22.104 132.603,22.029 132.55,21.95 C131.959,21.073 131.318,20.281 130.625,19.575 C127.803,16.658 124.178,15.2 119.75,15.2 C113.85,15.2 109.617,17.367 107.05,21.7 C105.517,24.3 104.75,27.167 104.75,30.3 Z" id="Shape" fill="#D5913D"></path>
            <path d="M17.475,47.525 C17.638,47.927 17.896,48.536 18.25,49.35 C18.917,50.883 19.25,51.833 19.25,52.2 C19.25,55.833 17.167,58.433 13,60 C12.733,60.1 11.3,60.533 8.7,61.3 C8.577,61.335 8.461,61.368 8.35,61.4 C7.283,58.295 6.75,55.012 6.75,51.55 C6.75,50.652 10.325,49.311 17.475,47.525 Z" id="Shape" fill="#FF8D00"></path>
            <path d="M61.425,20.65 C61.634,20.993 62.043,21.56 62.65,22.35 C62.522,22.348 62.388,22.348 62.25,22.35 C60.15,22.383 58.317,23.017 56.75,24.25 C55.083,25.583 54.25,27.267 54.25,29.3 C54.25,30.734 54.767,32.117 55.8,33.45 C57.384,35.47 59.868,36.544 63.25,36.675 C63.348,36.603 63.448,36.528 63.55,36.45 C64.386,36.446 65.12,36.312 65.75,36.05 C65.818,36.03 65.885,36.006 65.95,35.975 C65.885,36.055 65.818,36.129 65.75,36.2 C65.621,36.35 65.488,36.492 65.35,36.625 C64.108,37.842 62.442,38.45 60.35,38.45 C58.718,38.45 57.26,38.242 55.975,37.825 C54.432,37.309 53.141,36.492 52.1,35.375 L52.025,35.275 C51.934,35.171 51.842,35.063 51.75,34.95 C50.521,33.444 49.854,31.81 49.75,30.05 C49.786,30.12 49.819,30.187 49.85,30.25 C49.783,29.768 49.75,29.285 49.75,28.8 C49.75,26 50.733,23.834 52.7,22.3 C54.467,20.967 56.65,20.334 59.25,20.4 C60.003,20.43 60.729,20.513 61.425,20.65 Z M126.65,21.2 C126.849,21.376 127.041,21.559 127.225,21.75 C127.787,22.127 128.329,22.544 128.85,23 C131.45,25.3 132.75,27.983 132.75,31.05 C132.75,33.017 132.117,34.984 130.85,36.95 C128.65,40.283 125.15,41.95 120.35,41.95 C116.742,41.95 113.817,40.825 111.575,38.575 C112.862,39.158 114.087,39.45 115.25,39.45 C118.683,39.45 121.233,38.1 122.9,35.4 C123.967,33.6 124.5,31.783 124.5,29.95 C124.5,27.383 123.583,25.3 121.75,23.7 C120.15,22.3 118.15,21.483 115.75,21.25 C114.094,21.084 112.603,21.209 111.275,21.625 C113.421,19.838 115.963,18.863 118.9,18.7 C122,18.533 124.583,19.367 126.65,21.2 Z M112.75,27.55 C114.583,27.584 115.5,28.4 115.5,30 C115.5,30.667 115.3,31.267 114.9,31.8 C114.167,32.767 113,33.117 111.4,32.85 C111.1,32.65 110.783,32.317 110.45,31.85 C110.15,31.383 110,31.05 110,30.85 C110,28.617 110.917,27.517 112.75,27.55 Z" id="Shape" fill="#FFFFFF"></path>
            <path d="M133.55,96.75 C134.198,101.175 134.957,105.158 135.825,108.7 L135.5,108.7 C133.433,109.9 130.35,111.117 126.25,112.35 C118.017,114.75 107.633,115.95 95.1,115.95 C82.567,115.95 74.3,114.7 70.3,112.2 C68.267,110.967 67.25,108.916 67.25,106.05 C67.25,105.15 67.833,104.2 69,103.2 C69.188,103.033 69.363,102.875 69.525,102.725 C72.451,102.89 77.776,103.215 85.5,103.7 C96.4,103.7 107.65,101.7 119.25,97.7 C123.75,96.166 127.5,94.567 130.5,92.9 C131.443,92.39 132.226,91.915 132.85,91.475 C133.065,93.281 133.299,95.04 133.55,96.75 Z" id="Shape" fill="#199F66"></path>
            <path d="M69.75,118.1 C71.217,118.034 72.483,118.534 73.55,119.6 C74.683,120.767 75.25,122.333 75.25,124.3 C75.25,125 74.9,126.234 74.2,128 C73.467,129.9 72.817,131.05 72.25,131.45 L69,131.45 C66.533,130.583 65.05,129.717 64.55,128.849 C64.35,128.483 64.25,127.433 64.25,125.7 C64.25,123.333 64.817,121.45 65.95,120.05 C66.983,118.816 68.25,118.167 69.75,118.1 Z" id="Shape" fill="#FFC300"></path>
            <path d="M50.125,92.375 C51.021,91.592 51.979,91.2 53,91.2 C53.833,91.2 54.267,91.283 54.3,91.45 C54.3,91.483 54.383,91.567 54.55,91.7 C54.683,91.867 54.75,92.2 54.75,92.7 C54.75,92.733 53.817,93.717 51.95,95.65 C49.983,97.983 48.85,100.167 48.55,102.2 L47.2,106.45 C45.867,109.283 44.217,110.7 42.25,110.7 C38.617,110.7 35.95,109.367 34.25,106.7 C33.25,105.1 32.75,103.6 32.75,102.2 C32.75,99.4 33.767,96.916 35.8,94.75 C37.665,92.814 40.216,91.364 43.45,90.4 C43.686,90.329 43.927,90.263 44.175,90.2 C45.303,89.892 46.511,89.642 47.8,89.45 C47.8,89.483 47.883,89.567 48.05,89.7 C48.183,89.867 48.25,90.2 48.25,90.7 C48.25,90.832 48.208,90.974 48.125,91.125 C49.025,91.508 49.692,91.925 50.125,92.375 Z M44.8,93.3 C44.064,93.662 43.131,94.112 42,94.65 C37.833,96.783 35.75,99.267 35.75,102.1 C35.75,103.3 36.25,104.433 37.25,105.5 C38.483,106.8 40.033,107.45 41.9,107.45 C42.8,107.45 43.617,106.6 44.35,104.9 C44.517,104.533 45.15,102.683 46.25,99.35 C46.834,97.586 47.468,96.111 48.15,94.925 C47.497,94.677 46.63,94.269 45.55,93.7 C45.285,93.558 45.035,93.425 44.8,93.3 Z" id="Shape" fill="#000000" fill-rule="nonzero"></path>
            <path d="M44.8,93.3 C45.035,93.425 45.285,93.558 45.55,93.7 C46.63,94.268 47.497,94.677 48.15,94.925 C47.468,96.112 46.835,97.587 46.25,99.35 C45.15,102.683 44.517,104.533 44.35,104.9 C43.617,106.6 42.8,107.45 41.9,107.45 C40.033,107.45 38.483,106.8 37.25,105.5 C36.25,104.433 35.75,103.3 35.75,102.1 C35.75,99.267 37.833,96.783 42,94.65 C43.13,94.112 44.063,93.662 44.8,93.3 Z" id="Shape" fill="#FFACAC"></path>
            <path d="M19.25,42.3 C21.583,43.4 22.75,44.7 22.75,46.2 C22.75,46.633 22.583,46.933 22.25,47.1 C21.917,47.267 21.75,47.55 21.75,47.95 C21.75,48.016 22,48.766 22.5,50.2 C23,51.7 23.25,52.617 23.25,52.95 C23.25,56.383 22.7,58.967 21.6,60.7 C19.7,63.7 16.083,65.2 10.75,65.2 C6.017,65.2 2.85,63.383 1.25,59.75 C0.75,58.617 0.433,57.367 0.3,56 L0.25,54.3 C0.25,49.933 1.417,46.584 3.75,44.25 C5.717,42.283 8.3,41.183 11.5,40.95 C14.3,40.75 16.883,41.2 19.25,42.3 Z M17.6,46.4 C16,44.933 14.05,44.25 11.75,44.35 C9.45,44.416 7.5,45.267 5.9,46.9 C4.133,48.7 3.25,51.133 3.25,54.2 C3.25,56.133 3.367,57.333 3.6,57.8 C4.133,58.933 5.783,60.317 8.55,61.95 L13.05,62 C15.783,62 17.783,60.667 19.05,58 C19.85,56.333 20.25,54.65 20.25,52.95 C20.25,50.183 19.367,48 17.6,46.4 Z" id="Shape" fill="#000000" fill-rule="nonzero"></path>
            <path d="M17.6,46.4 C19.367,48 20.25,50.183 20.25,52.95 C20.25,54.65 19.85,56.333 19.05,58 C17.783,60.667 15.783,62 13.05,62 L8.55,61.95 C5.783,60.317 4.133,58.933 3.6,57.8 C3.367,57.334 3.25,56.133 3.25,54.2 C3.25,51.133 4.133,48.7 5.9,46.9 C7.5,45.267 9.45,44.417 11.75,44.35 C14.05,44.25 16,44.933 17.6,46.4 Z M12.3,46.95 C10.5,46.05 9.05,46.6 7.95,48.6 C7.15,50.033 6.75,51.4 6.75,52.7 L7.25,55.95 C7.85,58.117 8.85,59.2 10.25,59.2 C10.75,59.2 11.083,59.133 11.25,59 L11.5,58.75 C11.5,58.55 11.55,58.367 11.65,58.2 C11.717,58.067 11.75,57.766 11.75,57.3 C11.75,57.234 11.433,56.55 10.8,55.25 C10.133,53.917 9.8,53.083 9.8,52.75 C9.8,52.017 10.3,51.15 11.3,50.15 C12.267,49.15 12.75,48.5 12.75,48.2 C12.75,47.7 12.683,47.367 12.55,47.2 C12.383,47.067 12.3,46.983 12.3,46.95 Z" id="Shape" fill="#FF8D00"></path>
            <path d="M12.3,46.95 C12.3,46.983 12.383,47.067 12.55,47.2 C12.683,47.367 12.75,47.7 12.75,48.2 C12.75,48.5 12.267,49.15 11.3,50.15 C10.3,51.15 9.8,52.017 9.8,52.75 C9.8,53.083 10.133,53.917 10.8,55.25 C11.433,56.55 11.75,57.233 11.75,57.3 C11.75,57.767 11.717,58.067 11.65,58.2 C11.55,58.367 11.5,58.55 11.5,58.75 L11.25,59 C11.083,59.133 10.75,59.2 10.25,59.2 C8.85,59.2 7.85,58.117 7.25,55.95 L6.75,52.7 C6.75,51.4 7.15,50.033 7.95,48.6 C9.05,46.6 10.5,46.05 12.3,46.95 Z" id="Shape" fill="#FFAC45"></path>
        </g>
    </g>
</svg>
