<?xml version="1.0" encoding="UTF-8"?>
<svg width="363px" height="365px" viewBox="0 0 363 365" version="1.1" xmlns="http://www.w3.org/2000/svg" xmlns:xlink="http://www.w3.org/1999/xlink">
    <!-- Generator: Sketch 43.2 (39069) - http://www.bohemiancoding.com/sketch -->
    <title>podcast</title>
    <desc>Created with Sketch.</desc>
    <defs></defs>
    <g id="Page-1" stroke="none" stroke-width="1" fill="none" fill-rule="evenodd">
        <g id="podcast">
            <path d="M236.2,47.5 C236.2,47.967 236.233,48.4 236.3,48.8 C235.167,48.433 234.151,48.367 233.25,48.6 C232.95,48.666 232.7,48.767 232.5,48.9 C230.5,46.5 228.4,44.55 226.2,43.05 C225.433,42.55 224.766,42.183 224.2,41.95 C223.5,41.683 222.983,41.633 222.65,41.8 C221.25,41.433 219.783,41.234 218.25,41.2 C213.45,41.1 209.384,42.6 206.05,45.7 C204.384,47.266 203.083,49.083 202.151,51.15 C200.517,48.45 199.134,47.1 198.001,47.1 C196.868,47.1 195.968,47.717 195.301,48.95 C194.768,50.317 194.418,51.133 194.251,51.4 C193.984,51.3 193.101,50.433 191.601,48.8 C190.235,47.334 189.202,46.6 188.501,46.6 C187.468,46.6 186.218,47.267 184.751,48.6 C182.885,50.333 181.817,51.267 181.551,51.4 C180.985,49.633 180.534,48.334 180.201,47.5 C179.601,45.967 178.534,45 177.001,44.6 C176.268,44.433 175.284,45.283 174.051,47.15 C172.684,49.25 171.601,50.417 170.801,50.65 C170.634,49.65 170.401,48.75 170.101,47.95 C169.534,46.383 168.751,45.6 167.751,45.6 C167.518,45.6 166.118,46.683 163.551,48.85 C162.085,50.083 161.018,51.1 160.351,51.9 C159.618,50.433 158.667,49.15 157.501,48.05 C154.634,45.383 151.034,44.217 146.701,44.55 C144.834,44.683 143.101,45.067 141.501,45.7 C141.534,45.666 141.568,45.633 141.601,45.6 C139.667,46.467 138.101,47.333 136.901,48.2 C135.168,49.2 133.851,50.416 132.951,51.85 L132.951,51.9 C132.584,51.767 132.151,51.7 131.651,51.7 C131.784,51.133 131.884,50.467 131.951,49.7 C132.084,46.1 132.201,43.817 132.301,42.85 C132.568,40.25 133.968,38.267 136.501,36.9 C140.434,34.733 147.668,33.3 158.201,32.6 L178.151,32.6 L179.051,32.85 L185.902,32.85 L186.801,33.1 L196.402,33.1 L197.301,33.35 L207.152,33.35 C218.285,34.15 225.818,35.117 229.752,36.25 C233.118,37.217 235.136,38.783 235.802,40.95 C235.934,41.417 236.066,43.6 236.2,47.5 Z M242.05,34.3 C243.05,35.933 244.384,38.133 246.05,40.9 C244.083,40.3 242.817,40.334 242.25,41 C242.083,41.233 242,41.717 242,42.45 C242,43.183 242.833,46.016 244.5,50.95 C244.9,52.15 245.25,53.367 245.55,54.6 C244.884,54.133 244.234,53.733 243.6,53.4 C242.234,52.667 241.201,52.317 240.5,52.35 C240.233,51.717 239.866,51.166 239.4,50.7 C239.5,50.433 239.549,50.166 239.549,49.9 C239.549,45.167 239.166,41.7 238.4,39.5 C238.167,38.833 237.883,38.217 237.549,37.65 C237.449,36.95 236.416,35.867 234.449,34.4 C232.848,33.2 231.383,32.267 230.049,31.6 C225.383,29.133 220.166,27.05 214.4,25.35 C212.366,24.75 208.917,24.033 204.049,23.2 C199.049,22.333 193.749,21.55 188.15,20.85 C181.25,19.55 172.716,19.433 162.549,20.5 C152.682,21.567 146.466,23.15 143.899,25.25 C139.732,28.717 137.282,30.783 136.549,31.45 C133.116,34.55 131.233,36.717 130.899,37.95 C130.532,38.483 130.232,39.083 129.999,39.75 C128.899,42.617 128.332,46.767 128.299,52.2 C126.532,52.733 125.483,53.65 125.149,54.95 C124.882,54.983 124.599,55.033 124.299,55.1 C123.799,55.233 123.299,55.4 122.799,55.6 C123.099,54.9 123.416,54.15 123.749,53.35 C125.582,49.083 126.499,46.717 126.499,46.25 C126.499,45.45 126.299,45.083 125.899,45.15 C125.766,44.883 125.566,44.65 125.299,44.45 C124.799,44.283 124.549,44.166 124.549,44.1 C124.549,43.933 125.632,42.4 127.799,39.5 C129.932,36.633 130.999,35.05 130.999,34.75 C130.999,34.35 130.932,34.05 130.799,33.85 C130.499,33.35 129.816,33.1 128.749,33.1 C128.282,33.1 127.682,33.233 126.949,33.5 C126.182,33.767 125.699,33.9 125.499,33.9 L125.549,33.85 C126.182,33.317 129.032,31.3 134.099,27.8 C138.366,24.867 140.499,23.183 140.499,22.75 C140.499,22.55 140.332,22.283 139.999,21.95 C139.566,21.583 139.232,21.3 138.999,21.1 C137.366,20.967 135.699,20.733 133.999,20.4 C134.432,20.233 135.799,19.483 138.099,18.15 C140.999,16.95 144.516,16.35 148.649,16.35 C152.849,16.35 155.632,16.65 156.999,17.25 C158.366,17.817 159.116,18.1 159.249,18.1 C159.749,18.1 160.132,18.033 160.399,17.9 L160.749,17.65 C160.749,17.45 160.799,17.267 160.899,17.1 C160.966,16.967 160.999,16.666 160.999,16.2 C160.999,15.467 160.282,14.317 158.849,12.75 C157.216,11.117 156.199,10.083 155.799,9.65 L156.999,9.35 L161.799,9.15 C162.066,9.15 163.666,9.817 166.599,11.15 C169.499,12.45 170.966,13.1 170.999,13.1 C171.732,13.1 172.249,12.783 172.549,12.15 C172.549,12.117 172.566,12.1 172.599,12.1 L172.749,12.1 C173.382,12.1 174.266,11.5 175.399,10.3 C176.632,8.967 177.766,8.15 178.799,7.85 C184.133,6.283 186.832,5.483 186.9,5.45 C189.466,4.783 192.583,4.183 196.25,3.65 L195.8,4.35 C195.533,4.717 194,5.85 191.2,7.75 C188.733,9.417 187.5,10.617 187.5,11.35 C187.5,11.85 187.55,12.2 187.65,12.4 C187.716,12.633 187.75,12.783 187.75,12.85 L188.05,13 C188.317,13.067 188.717,13.1 189.25,13.1 L202,9.85 L215.05,9.85 C215.684,10.017 216.85,10.183 218.55,10.35 L217.5,10.6 C214.3,11.767 212.583,12.4 212.35,12.5 C211.117,13.133 210.5,14 210.5,15.1 C210.5,15.733 214.1,17.75 221.3,21.15 C225,22.883 229.333,24.883 234.3,27.15 C237.667,28.95 240.25,31.333 242.05,34.3 Z" id="Shape" fill="#782121"></path>
            <path d="M242.05,34.3 C240.25,31.334 237.667,28.95 234.3,27.15 C229.333,24.883 225,22.883 221.3,21.15 C214.1,17.75 210.5,15.733 210.5,15.1 C210.5,14 211.116,13.133 212.35,12.5 C212.583,12.4 214.3,11.767 217.5,10.6 L218.55,10.35 C216.85,10.183 215.684,10.017 215.05,9.85 L202,9.85 L189.25,13.1 C188.717,13.1 188.316,13.067 188.05,13 L187.75,12.85 C187.75,12.783 187.717,12.633 187.65,12.4 C187.549,12.2 187.5,11.85 187.5,11.35 C187.5,10.617 188.733,9.416 191.2,7.75 C194,5.85 195.533,4.717 195.8,4.35 L196.25,3.65 C192.583,4.183 189.467,4.783 186.9,5.45 C186.833,5.483 184.133,6.283 178.799,7.85 C177.766,8.15 176.632,8.967 175.399,10.3 C174.266,11.5 173.382,12.1 172.749,12.1 L172.599,12.1 C172.566,12.1 172.549,12.117 172.549,12.15 C172.249,12.783 171.733,13.1 170.999,13.1 C170.966,13.1 169.499,12.45 166.599,11.15 C163.665,9.817 162.066,9.15 161.799,9.15 L156.999,9.35 L155.799,9.65 C156.199,10.084 157.216,11.117 158.849,12.75 C160.282,14.317 160.999,15.467 160.999,16.2 C160.999,16.666 160.966,16.967 160.899,17.1 C160.799,17.267 160.749,17.45 160.749,17.65 L160.399,17.9 C160.132,18.033 159.749,18.1 159.249,18.1 C159.116,18.1 158.366,17.817 156.999,17.25 C155.632,16.65 152.849,16.35 148.649,16.35 C144.516,16.35 140.999,16.95 138.099,18.15 C135.799,19.483 134.432,20.233 133.999,20.4 C135.699,20.733 137.366,20.967 138.999,21.1 C139.232,21.3 139.566,21.583 139.999,21.95 C140.332,22.283 140.499,22.55 140.499,22.75 C140.499,23.183 138.366,24.867 134.099,27.8 C129.032,31.3 126.182,33.317 125.549,33.85 L125.499,33.9 C125.699,33.9 126.182,33.767 126.949,33.5 C127.682,33.233 128.282,33.1 128.749,33.1 C129.816,33.1 130.499,33.35 130.799,33.85 C130.932,34.05 130.999,34.35 130.999,34.75 C130.999,35.05 129.932,36.633 127.799,39.5 C125.632,42.4 124.549,43.933 124.549,44.1 C124.549,44.166 124.799,44.283 125.299,44.45 C125.566,44.65 125.766,44.883 125.899,45.15 C126.299,45.084 126.499,45.45 126.499,46.25 C126.499,46.717 125.582,49.083 123.749,53.35 C123.416,54.15 123.099,54.9 122.799,55.6 C123.299,55.4 123.799,55.233 124.299,55.1 C124.599,55.033 124.882,54.983 125.149,54.95 C125.482,53.65 126.532,52.733 128.299,52.2 C128.333,46.766 128.899,42.617 129.999,39.75 C130.232,39.083 130.532,38.483 130.899,37.95 C131.232,36.717 133.116,34.55 136.549,31.45 C137.282,30.783 139.733,28.717 143.899,25.25 C146.466,23.15 152.682,21.567 162.549,20.5 C172.716,19.433 181.249,19.55 188.15,20.85 C193.75,21.55 199.049,22.333 204.049,23.2 C208.916,24.033 212.365,24.75 214.4,25.35 C220.167,27.05 225.383,29.133 230.049,31.6 C231.383,32.267 232.849,33.2 234.449,34.4 C236.416,35.867 237.449,36.95 237.549,37.65 C237.883,38.217 238.166,38.834 238.4,39.5 C239.167,41.7 239.549,45.167 239.549,49.9 C239.549,50.167 239.499,50.433 239.4,50.7 C239.866,51.166 240.233,51.717 240.5,52.35 C241.2,52.317 242.233,52.666 243.6,53.4 C244.234,53.733 244.884,54.133 245.55,54.6 C245.25,53.367 244.901,52.15 244.5,50.95 C242.833,46.016 242,43.183 242,42.45 C242,41.717 242.083,41.233 242.25,41 C242.816,40.333 244.083,40.3 246.05,40.9 C244.384,38.133 243.05,35.933 242.05,34.3 Z M236.2,47.5 C236.066,43.6 235.933,41.417 235.8,40.95 C235.134,38.783 233.116,37.217 229.75,36.25 C225.816,35.117 218.283,34.15 207.15,33.35 L197.3,33.35 L196.4,33.1 L186.8,33.1 L185.901,32.85 L179.05,32.85 L178.15,32.6 L158.2,32.6 C147.666,33.3 140.433,34.733 136.5,36.9 C133.967,38.267 132.567,40.25 132.3,42.85 C132.2,43.817 132.084,46.1 131.95,49.7 C131.883,50.467 131.783,51.133 131.65,51.7 C132.15,51.7 132.584,51.766 132.95,51.9 L132.95,51.85 C133.85,50.416 135.166,49.2 136.9,48.2 C138.1,47.333 139.667,46.467 141.6,45.6 C141.567,45.633 141.533,45.666 141.5,45.7 C143.1,45.067 144.833,44.683 146.7,44.55 C151.033,44.217 154.633,45.383 157.5,48.05 C158.667,49.15 159.617,50.433 160.35,51.9 C161.017,51.1 162.083,50.084 163.55,48.85 C166.117,46.683 167.517,45.6 167.75,45.6 C168.75,45.6 169.533,46.383 170.1,47.95 C170.4,48.75 170.633,49.65 170.8,50.65 C171.6,50.417 172.683,49.25 174.05,47.15 C175.283,45.283 176.267,44.433 177,44.6 C178.533,45 179.6,45.967 180.2,47.5 C180.533,48.333 180.983,49.633 181.55,51.4 C181.817,51.267 182.884,50.334 184.75,48.6 C186.217,47.267 187.467,46.6 188.5,46.6 C189.2,46.6 190.233,47.333 191.6,48.8 C193.1,50.433 193.984,51.3 194.25,51.4 C194.417,51.133 194.767,50.317 195.3,48.95 C195.967,47.717 196.866,47.1 198,47.1 C199.134,47.1 200.517,48.45 202.15,51.15 C203.083,49.084 204.383,47.267 206.049,45.7 C209.383,42.6 213.449,41.1 218.249,41.2 C219.782,41.233 221.249,41.433 222.649,41.8 C222.982,41.633 223.499,41.683 224.199,41.95 C224.765,42.183 225.432,42.55 226.199,43.05 C228.399,44.55 230.499,46.5 232.499,48.9 C232.699,48.767 232.949,48.667 233.249,48.6 C234.149,48.367 235.166,48.433 236.299,48.8 C236.233,48.4 236.2,47.967 236.2,47.5 Z M236.15,52.25 C236.516,53.15 236.983,55.983 237.549,60.75 C237.549,61.883 237.216,63.533 236.549,65.7 C235.916,67.766 235.332,69.233 234.799,70.1 C232.499,73.633 231.349,75.416 231.349,75.45 C231.216,75.883 231.283,77.1 231.549,79.1 C231.549,80.067 231.249,82.883 230.65,87.55 C230.616,87.75 230.583,87.967 230.549,88.2 C230.216,90.666 229.949,92.633 229.749,94.1 C229.516,95.6 229.332,96.6 229.199,97.1 L229.149,97.2 C229.149,97.233 229.282,97.25 229.548,97.25 C232.348,97.25 233.864,96.3 234.098,94.4 C233.998,92.433 234.032,90.65 234.199,89.05 C234.299,88.317 234.416,87.617 234.549,86.95 C234.749,86.083 234.916,85.033 235.049,83.8 C235.082,83.2 235.115,82.533 235.15,81.8 C235.25,78.767 235.333,76.984 235.4,76.45 C235.966,72.617 236.466,69.3 236.9,66.5 C237.667,61.133 238.049,57.45 238.049,55.45 C238.05,52.883 237.417,51.817 236.15,52.25 Z M247.75,45.6 C247.05,45.2 246.483,44.95 246.05,44.85 C248.017,51.517 249.116,55.433 249.35,56.6 C249.417,56.9 249.484,57.233 249.55,57.6 C250.184,58.233 250.75,58.95 251.25,59.75 C251.65,60.45 252.217,61.65 252.95,63.35 C254.516,66.983 255.45,69.433 255.75,70.7 C256.116,72.166 256.3,74.35 256.3,77.25 C256.3,80.883 255.484,84.4 253.85,87.8 C250.784,94 245.6,97.1 238.3,97.1 C237.667,97.1 237.134,97.067 236.7,97 C235.467,99.233 233.167,100.35 229.8,100.35 C228.833,100.35 228.05,100.267 227.45,100.1 C226.816,104.4 226.433,107.416 226.3,109.15 C226.067,112.317 225.3,118.067 224,126.4 C223.833,127.267 223.366,128.65 222.6,130.55 C221.634,132.917 221.034,134.433 220.8,135.1 C220.7,135.433 220.634,135.983 220.6,136.75 C220.367,137.483 219.651,138.083 218.451,138.55 C215.484,139.717 209.001,140.383 199.001,140.55 L199.001,140.85 C199.001,143.95 198.784,147.767 198.351,152.3 C198.152,154.433 197.985,156.3 197.851,157.9 C198.152,157.967 198.518,158.117 198.952,158.35 C199.152,158.65 199.469,158.983 199.902,159.35 C200.368,159.717 201.018,160.217 201.851,160.85 C202.218,161.217 202.551,161.55 202.851,161.85 C203.618,162.65 204.385,163.517 205.152,164.45 C205.252,164.45 205.351,164.467 205.452,164.5 C210.219,165.633 213.002,166.25 213.802,166.35 C216.102,166.683 220.752,167.317 227.752,168.25 C233.818,169.117 237.419,169.9 238.552,170.6 C241.186,172.1 243.686,174.15 246.052,176.75 C248.252,179.15 249.702,181.283 250.403,183.15 C251.369,185.75 253.003,189.933 255.302,195.7 C257.236,200.866 258.486,205.183 259.052,208.65 C260.153,215.683 261.403,224.25 262.802,234.349 C263.868,241.849 264.669,247.766 265.202,252.099 C265.802,249.766 266.585,246.849 267.552,243.349 C268.052,241.516 268.653,239.066 269.352,235.999 L271.153,228.349 C271.42,226.749 271.653,225.499 271.852,224.599 C272.219,223.033 272.786,221.783 273.552,220.849 C274.019,220.283 274.519,219.533 275.052,218.599 C275.585,217.866 276.285,217.299 277.153,216.9 C279.286,215.933 284.586,215.2 293.052,214.7 C306.585,214.766 315.618,217.116 320.153,221.75 C322.42,224.05 323.552,227.434 323.552,231.9 C323.552,232.033 323.285,235.25 322.752,241.549 C322.152,246.249 321.402,249.166 320.502,250.299 C321.868,252.999 322.552,256.266 322.552,260.099 C322.552,269.166 321.852,275.916 320.452,280.349 C320.419,280.45 320.068,282.082 319.402,285.249 C318.935,287.315 318.301,289.032 317.502,290.399 C315.102,294.332 309.952,297.232 302.052,299.098 L296.252,299.248 C296.285,299.548 296.318,299.882 296.352,300.248 C296.386,300.648 296.419,301.064 296.453,301.498 L360.628,301.548 C361.678,301.962 362.203,302.462 362.203,303.048 C362.203,303.696 361.611,304.213 360.428,304.598 L296.55,304.598 L296.55,306.748 L296.55,312.048 C296.517,312.715 296.467,313.331 296.401,313.899 C296.467,313.865 296.517,313.848 296.55,313.848 C297.817,313.848 298.651,315.115 299.05,317.649 C299.184,318.548 299.267,319.449 299.3,320.348 L299.401,320.348 C303.567,320.348 308.534,321.015 314.3,322.348 C321.467,324.015 325.05,325.982 325.05,328.248 L325.05,328.348 C325.384,328.782 325.634,329.449 325.8,330.348 C325.967,331.282 326.05,332.199 326.05,333.098 L326.05,336.098 C325.884,337.232 325.366,338.182 324.5,338.949 C322.167,340.982 316.6,342.199 307.8,342.598 L292.55,342.598 C275.083,340.598 264.434,338.632 260.6,336.699 C258.867,335.832 257.867,334.749 257.6,333.449 C257.567,333.348 257.55,331.982 257.55,329.348 C257.55,328.949 257.6,328.598 257.7,328.298 C257.599,327.998 257.55,327.682 257.55,327.348 C257.55,324.815 262.35,322.682 271.95,320.949 C275.783,320.249 279.066,319.932 281.8,319.999 C282.467,319.999 283.05,320.032 283.55,320.099 L283.55,319.099 C283.55,315.4 284.384,313.516 286.05,313.45 C286.25,309.849 286.401,306.9 286.5,304.599 L196.9,304.599 C196.7,306.033 196.483,307.499 196.25,308.999 C196.55,309.032 196.884,309.133 197.25,309.299 L220.85,311.849 C225.117,312.616 227.784,313.566 228.85,314.7 C229.317,315.2 229.484,316.134 229.35,317.5 C228.884,322.434 222.55,329.733 210.35,339.4 C206.517,342.4 201.734,345.9 196,349.9 C189.8,354.366 186.434,356.799 185.9,357.2 L185.849,357.15 C185.483,357.549 185.082,357.95 184.65,358.349 C181.383,361.45 171.85,363.366 156.049,364.099 C140.349,364.766 122.333,364.133 101.999,362.2 C72.932,359.4 54.432,354.9 46.499,348.7 C43.832,346.533 42.166,344 41.499,341.099 C41.232,338.033 40.899,335.9 40.499,334.7 C39.166,330.733 38.199,325.967 37.599,320.4 C37.032,314 36.549,309.183 36.149,305.95 C36.083,305.516 36.032,305.066 35.999,304.599 L1.875,304.599 C1.764,304.568 1.655,304.542 1.55,304.525 C0.55,304.181 0.05,303.656 0.05,302.95 C0.05,302.661 0.275,302.311 0.725,301.9 L1.475,301.5 C1.647,301.478 1.83,301.444 2.025,301.4 L35.65,301.45 C34.85,294.25 33.967,285.634 33,275.599 C31.533,259.832 30.883,250.966 31.05,248.999 C31.35,245.865 36.667,244.049 47,243.549 C56.533,243.082 75,243.516 102.4,244.849 C105.167,234.249 106.767,228.016 107.2,226.15 C108.967,218.65 110.283,213 111.15,209.2 C112.75,202.533 114.217,196.933 115.55,192.4 C116.15,190.266 117.067,187.5 118.3,184.099 C120.133,178.932 121.133,176.099 121.3,175.599 C123.767,168.299 129.217,164.132 137.65,163.099 C139.05,162.899 142.5,162.716 148,162.549 C150.133,162.483 151.983,162.349 153.55,162.149 C154.617,161.116 156.984,159.666 160.65,157.799 C162.817,156.699 164.533,155.966 165.8,155.599 C165.633,154.532 165.517,153.382 165.45,152.149 C165.483,146.882 165.5,142.999 165.5,140.499 L165.55,139.699 C163.084,139.332 160.65,138.882 158.25,138.349 C156.383,137.949 154.2,137.616 151.7,137.349 C150.233,137.182 148.666,136.766 147,136.099 C144.833,135.199 142.917,133.732 141.25,131.699 C139.717,129.866 138.9,128.249 138.8,126.849 C138.633,124.749 138.25,121.632 137.65,117.499 C137.05,112.966 136.667,109.932 136.5,108.399 C136.367,107.032 136.2,105.032 136,102.399 C135,103.199 133.683,103.599 132.05,103.599 C129.917,103.599 128.417,102.799 127.55,101.199 C127.283,101.299 126.95,101.349 126.55,101.349 C119.584,101.349 114.35,98.766 110.85,93.599 C108.15,89.665 106.8,85.016 106.8,79.649 C106.8,71.249 110.267,64.333 117.2,58.899 C117.5,58.666 117.783,58.449 118.05,58.249 C118.85,55.649 120.084,52.899 121.75,49.999 C122.417,48.832 123.05,47.866 123.65,47.099 L123.5,47.099 C122.067,47.099 121.233,46.766 121,46.099 L121,44.949 C121,44.082 121.5,42.882 122.5,41.349 C122.7,41.049 123.55,39.882 125.05,37.849 L125.3,37.599 C124.1,38.366 123.3,38.849 122.9,39.049 C122.267,39.416 121.717,39.599 121.25,39.599 C120.717,39.599 120.317,39.566 120.05,39.499 L119.75,39.349 C119.75,39.282 119.717,39.132 119.65,38.899 C119.55,38.699 119.5,38.349 119.5,37.849 C119.5,36.282 121.25,33.899 124.75,30.699 C127.483,28.165 130.417,25.882 133.55,23.849 C131.883,23.216 130.734,22.732 130.1,22.399 C129.033,21.899 128.5,21.249 128.5,20.449 C128.5,20.216 129.183,19.649 130.55,18.749 C132.183,17.682 134.05,16.716 136.15,15.849 C142.417,13.282 148.717,12.449 155.05,13.349 C154.283,12.249 153.5,11.366 152.7,10.699 C152.233,10.299 152,9.932 152,9.599 C152,6.432 155.267,5.532 161.8,6.899 C166.067,7.766 169.217,8.716 171.25,9.749 C171.983,8.182 174.5,6.516 178.8,4.749 C184.634,2.316 191.366,0.932 199,0.599 C199.733,0.732 200.2,1.049 200.4,1.549 C200.466,1.682 200.5,1.983 200.5,2.449 C200.5,3.216 200.316,3.849 199.95,4.349 C199.283,5.082 198.65,5.766 198.05,6.399 L197.8,6.849 C208.3,6.449 215.866,6.665 220.5,7.499 C223.267,7.999 225.1,8.782 226,9.849 C225.5,10.749 223.917,11.682 221.25,12.649 C217.517,13.982 215.517,14.716 215.25,14.849 C223.717,16.749 231.934,21.249 239.9,28.349 C247.299,34.949 251,40.316 251,44.449 C251,45.549 250.417,46.099 249.25,46.099 C248.816,46.1 248.316,45.933 247.75,45.6 Z M241.05,54.95 L241.05,55.35 C241.05,58.883 240.783,62.55 240.25,66.35 C240.184,66.85 239.533,70.8 238.3,78.2 C237.967,80.033 237.75,82.15 237.651,84.55 C237.55,86.55 237.534,88.734 237.6,91.1 C237.6,91.9 237.617,92.733 237.651,93.6 L237.651,93.8 C237.85,93.8 238.067,93.817 238.3,93.85 C244.467,93.85 248.8,91.25 251.3,86.05 C252.634,83.25 253.3,80.334 253.3,77.3 C253.3,72.7 252.2,68.467 250,64.6 C249.033,62.967 247.9,61.383 246.6,59.85 C246.5,59.75 246.401,59.65 246.3,59.55 C244.833,57.95 243.234,56.517 241.5,55.25 C241.333,55.15 241.184,55.05 241.05,54.95 Z M233,61.35 C233,58.05 232.45,55.183 231.35,52.75 C230.517,51.517 229.583,50.133 228.55,48.6 C228.517,48.533 228.467,48.467 228.401,48.4 C225.668,45.7 222.284,44.383 218.251,44.45 C214.317,44.516 210.935,45.867 208.101,48.5 C205.035,51.4 203.501,55.15 203.501,59.75 C203.501,62.45 204.418,65.083 206.251,67.65 C208.951,71.45 212.984,73.35 218.351,73.35 C224.551,73.35 228.851,71.433 231.251,67.6 C232.45,65.667 233.033,63.583 233,61.35 Z M319.95,233.25 C320.15,233.316 320.349,233.4 320.55,233.5 L320.55,231.85 C320.55,228.25 319.783,225.583 318.25,223.85 C315.616,220.951 310.95,219.083 304.25,218.25 C303.55,220.65 302.816,221.85 302.05,221.85 C301.35,221.85 300.884,221.583 300.651,221.05 C300.584,220.517 300.55,220.234 300.55,220.2 C300.55,219.467 300.8,218.717 301.3,217.95 C300.333,217.849 299.333,217.783 298.3,217.75 L298.3,217.8 C298.3,218.3 298.116,218.984 297.75,219.85 C297.25,221.017 296.684,221.6 296.05,221.6 C295.35,221.6 294.884,221.333 294.651,220.8 C294.584,220.267 294.55,219.984 294.55,219.95 C294.55,219.116 294.767,218.366 295.2,217.7 L295.099,217.7 L294.249,217.7 C294.115,218.2 293.766,219 293.199,220.099 C292.365,221.599 291.732,222.349 291.299,222.349 C290.599,222.349 290.133,222.066 289.9,221.499 L289.799,220.599 C289.799,219.499 290.066,218.566 290.599,217.799 C289.832,217.799 289.099,217.832 288.4,217.9 C288.2,218.366 287.783,219.099 287.15,220.099 C286.216,221.599 285.599,222.349 285.299,222.349 C284.599,222.349 284.133,222.066 283.9,221.499 L283.799,220.599 C283.799,219.766 283.999,218.999 284.4,218.299 C283.966,218.365 283.583,218.449 283.25,218.549 C282.65,219.483 281.583,220.999 280.05,223.099 C279.35,223.099 278.884,222.816 278.651,222.249 L278.55,221.349 C278.55,221.049 278.583,220.749 278.651,220.45 C277.784,221.05 277.084,221.783 276.55,222.65 C276.083,223.349 275.634,224.316 275.2,225.549 C275.9,225.383 276.733,225.249 277.7,225.15 C281.099,224.75 282.8,225.25 282.8,226.65 C282.8,227.316 282.167,227.933 280.901,228.5 C279.334,229.233 277.134,229.6 274.3,229.6 L274,229.6 C273.866,230.034 273.75,230.484 273.65,230.951 C273.583,231.251 273.516,231.551 273.45,231.85 C274.25,231.684 275.366,231.6 276.8,231.6 C279.167,231.6 280.667,231.833 281.3,232.3 C281.467,232.401 281.55,232.667 281.55,233.1 C281.55,233.734 281.317,234.151 280.85,234.35 C280.083,234.684 278.401,234.85 275.8,234.85 C274.5,234.85 273.517,234.75 272.85,234.55 C272.583,235.583 272.35,236.567 272.151,237.5 C272.85,237.267 273.817,237.167 275.05,237.2 C278.05,237.266 279.55,237.9 279.55,239.099 C279.55,239.733 279.317,240.15 278.85,240.349 C278.017,240.683 276.117,240.849 273.151,240.849 C272.418,240.849 271.834,240.766 271.401,240.599 C271.134,241.599 270.918,242.466 270.751,243.2 C271.451,243 272.385,242.9 273.551,242.9 C276.551,242.866 278.051,243.433 278.051,244.599 C278.051,245.233 277.801,245.65 277.301,245.849 C276.501,246.183 274.701,246.349 271.902,246.349 C271.068,246.349 270.419,246.233 269.952,245.999 C269.685,246.999 269.435,247.966 269.202,248.899 C269.868,248.732 270.735,248.615 271.802,248.548 C274.802,248.348 276.302,248.948 276.302,250.348 C276.302,250.982 276.019,251.465 275.452,251.798 C274.485,252.331 272.685,252.598 270.052,252.598 C269.352,252.598 268.785,252.432 268.352,252.098 C268.052,253.199 267.786,254.199 267.552,255.098 C268.285,254.998 269.202,254.982 270.302,255.048 C273.802,255.182 275.552,255.798 275.552,256.899 C275.552,257.732 275.219,258.265 274.552,258.499 C273.819,258.732 271.986,258.849 269.052,258.849 C268.085,258.849 267.285,258.733 266.653,258.499 C266.519,258.999 266.403,259.499 266.302,259.999 C266.802,259.933 267.386,259.916 268.052,259.949 C271.552,259.515 273.302,259.982 273.302,261.348 C273.302,262.182 272.802,262.715 271.802,262.949 C270.835,263.216 268.785,263.348 265.653,263.348 L265.552,263.348 C265.319,264.282 265.136,265.182 265.002,266.048 C265.669,265.815 266.568,265.649 267.702,265.548 C270.601,265.248 272.052,265.848 272.052,267.348 C272.052,268.115 271.686,268.598 270.952,268.798 C270.185,268.998 268.335,269.098 265.402,269.098 C265.035,269.098 264.718,269.065 264.452,268.998 C264.185,270.765 264.052,272.215 264.052,273.348 C264.052,275.182 264.335,276.882 264.903,278.449 L264.8,277.6 C264.8,275.734 265.384,274.317 266.55,273.35 C267.717,272.417 268.3,272.75 268.3,274.35 C268.3,274.784 268.134,275.884 267.8,277.651 C267.8,279.184 268.267,280.767 269.2,282.401 C270.099,284.001 270.55,284.817 270.55,284.85 C270.55,284.984 270.533,285.117 270.5,285.25 C270.667,285.35 270.833,285.45 271,285.55 C270.733,284.817 270.5,284 270.3,283.1 L269.55,276.6 C269.55,273.901 270.033,272.901 271,273.6 C271.967,274.3 272.566,276.05 272.8,278.85 C273.2,280.85 274.033,282.901 275.3,285 C275.333,285.066 275.384,285.134 275.45,285.2 C274.683,280.9 274.3,278.7 274.3,278.599 C274.3,275.7 274.884,274.033 276.05,273.599 C277.217,273.166 277.8,273.716 277.8,275.249 C277.8,275.649 277.634,276.766 277.3,278.599 C277.3,280.733 278.267,283.332 280.2,286.4 C280.766,287.299 281.349,288.2 281.95,289.099 C282.283,289.099 282.634,289.116 283,289.15 C282.233,288.049 281.583,286.533 281.05,284.599 C280.217,280.033 279.8,277.666 279.8,277.499 C279.8,274.433 280.35,272.982 281.45,273.149 C282.583,273.315 283.083,275.298 282.95,279.098 C283.183,282.265 284.116,284.932 285.75,287.098 C286.384,287.965 287,288.682 287.6,289.248 C288.434,289.248 289.234,289.231 290,289.198 C288.733,288.165 287.667,286.481 286.8,284.148 C285.8,279.948 285.3,277.814 285.3,277.748 C285.3,275.248 285.783,274.215 286.75,274.648 C287.75,275.081 288.35,276.847 288.55,279.948 C289.017,282.081 290.2,284.165 292.1,286.198 C293,287.132 293.833,287.965 294.6,288.698 C298.3,288.031 301.167,286.814 303.201,285.048 C304.234,284.149 305.051,283.098 305.651,281.899 C305.984,281.265 306.284,280.582 306.55,279.848 C307.417,278.482 308.2,276.649 308.901,274.348 C308.934,274.215 308.984,274.081 309.05,273.949 L309.05,272.749 C308.55,265.549 308.3,261.249 308.3,259.849 C308.3,254.883 309.05,251.133 310.55,248.599 C311.85,246.366 313.484,245.416 315.45,245.749 C315.483,245.749 315.516,245.766 315.55,245.799 C315.651,244.566 316.45,244.15 317.95,244.549 C318.283,244.615 318.583,244.716 318.849,244.849 C318.883,244.683 318.916,244.499 318.95,244.299 C318.083,244.133 317.366,243.615 316.8,242.749 L316.05,241.099 C316.05,239.533 316.967,238.999 318.8,239.499 C319.234,239.599 319.6,239.732 319.901,239.899 C320.001,239.298 320.1,238.699 320.201,238.098 C319.135,238.032 318.251,237.432 317.551,236.298 C317.051,235.065 316.801,234.432 316.801,234.399 C316.8,232.767 317.85,232.384 319.95,233.25 Z M312.55,232.35 C310.95,231.417 309.151,230.484 307.151,229.55 C303.117,227.651 299.184,226.7 295.35,226.7 C291.651,227.134 289.583,227.349 289.151,227.349 C287.951,227.349 287.201,227.082 286.901,226.549 C286.834,226.016 286.8,225.733 286.8,225.699 C286.8,225.133 286.917,224.765 287.151,224.598 C287.484,224.331 288.134,224.199 289.1,224.199 C289.534,224.199 291.017,224.032 293.55,223.699 C297.651,222.633 302.3,223.383 307.5,225.949 C312.033,228.182 314.3,229.799 314.3,230.799 C314.3,231.166 314.167,231.499 313.901,231.799 C313.566,232.167 313.116,232.35 312.55,232.35 Z M311.9,238.35 C311.5,238.35 309.816,237.701 306.849,236.401 C303.683,235.001 301.216,234.184 299.45,233.951 L293.05,233.85 C288.45,233.817 286,233.784 285.7,233.75 C285.866,233.583 285.816,233.283 285.55,232.85 C285.384,232.617 285.3,232.35 285.3,232.05 C285.3,230.05 290.017,229.817 299.45,231.35 C308.849,232.85 313.55,234.667 313.55,236.8 C313.55,237.167 313.434,237.5 313.2,237.8 C312.866,238.167 312.434,238.35 311.9,238.35 Z M311.35,254.1 C311.151,255.833 311.134,257.75 311.3,259.85 C311.3,261.05 311.434,263.434 311.7,267 C311.833,269 311.933,270.5 312,271.5 C312.2,271.767 312.3,272.283 312.3,273.05 C312.3,273.95 312.2,274.866 312,275.8 C312,276.267 311.983,276.651 311.95,276.95 C311.683,279.75 311.05,282.283 310.05,284.55 C306.95,291.583 300.817,295.1 291.651,295.1 C287.817,295.1 284.55,294.717 281.85,293.951 C280.06,293.26 278.877,292.81 278.3,292.6 C278.893,292.829 279.976,293.461 281.55,294.5 C284.017,295.634 287.167,296.2 291,296.2 L294.95,296.099 C295.183,295.766 295.4,295.766 295.599,296.099 L301.7,295.95 C308.833,294.349 313.349,291.766 315.25,288.2 C315.85,287 316.333,285.4 316.7,283.4 C317.099,280.866 317.417,279.266 317.65,278.599 C318.283,276.633 318.783,273.683 319.15,269.749 C319.417,266.482 319.549,263.266 319.549,260.099 C319.549,252.9 317.966,249.233 314.799,249.099 C312.866,249.033 311.717,250.7 311.35,254.1 Z M311.5,242.75 C311.2,243.15 310.8,243.35 310.3,243.35 C309.5,243.35 308.651,243.017 307.75,242.35 C306.483,241.451 305.667,240.917 305.3,240.75 C304.8,240.55 303.6,240.283 301.7,239.95 C299.8,239.616 298.134,239.366 296.7,239.2 L289.05,239.2 C286.95,239.833 285.533,239.833 284.8,239.2 C284.467,238.467 284.3,238.083 284.3,238.05 C284.3,236.583 285.8,235.967 288.8,236.2 L288.8,236.1 L296.8,236.1 C300.167,235.934 303.616,236.634 307.151,238.201 C310.251,239.6 311.8,240.751 311.8,241.651 C311.8,242.05 311.7,242.417 311.5,242.75 Z M312.55,255.1 C312.55,252.333 313.467,251.05 315.3,251.25 C317.134,251.483 318.05,252.783 318.05,255.15 C318.05,255.883 317.917,256.533 317.651,257.099 C317.217,258.099 316.467,258.599 315.401,258.599 C314.134,258.599 313.284,257.999 312.85,256.799 L312.55,255.1 Z M253.45,200.25 C251.384,194.417 249.917,190.217 249.05,187.65 C247.317,182.65 244.317,178.549 240.05,175.35 C236.583,172.75 230,170.7 220.3,169.2 C217.366,168.733 213.1,168.25 207.5,167.75 C207.333,168.75 206.267,169.683 204.3,170.55 C202.734,171.217 200.134,171.984 196.5,172.85 C197.033,173.65 198.55,175.333 201.05,177.9 C202.35,179.233 203,180.8 203,182.6 C203,184.833 198.684,186.25 190.05,186.85 C189.984,186.951 189.884,187.017 189.75,187.05 C189.517,187.116 189.033,187.151 188.3,187.151 C189.366,190.35 189.901,192.367 189.901,193.201 C189.901,194.034 189.567,199.584 188.901,209.85 C188.901,214.217 189.067,217.401 189.401,219.401 L189.401,240.85 L190.451,259.85 C192.85,261.25 194.801,262.75 196.301,264.35 C199.068,267.384 200.451,271.05 200.451,275.35 C200.451,277.85 200.051,281.401 199.251,286 C198.817,290.533 198.185,295.7 197.351,301.5 L237.152,301.5 C234.818,286.3 233.235,276.083 232.402,270.85 C231.702,266.25 230.601,257.1 229.101,243.401 C227.868,232.267 227.152,225.217 226.952,222.251 C228.618,225.351 229.935,227.935 230.902,230.001 C231.268,233.901 231.801,239.001 232.502,245.301 C233.936,258.568 234.902,266.768 235.402,269.902 C236.068,273.935 238.068,283.185 241.402,297.652 C241.702,298.985 242.002,300.268 242.301,301.502 L269.851,301.502 C269.351,299.868 268.818,297.602 268.251,294.702 C267.351,290.136 266.901,287.302 266.901,286.202 L266.901,286.101 C265.267,284.902 263.984,283.785 263.05,282.751 C262.55,282.218 262.083,280.801 261.651,278.501 C261.251,276.435 261.05,274.751 261.05,273.451 C261.05,270.418 261.783,265.784 263.25,259.551 C262.55,256.485 261.634,251.185 260.5,243.652 C258.8,232.252 257.483,221.985 256.55,212.851 C256.184,209.616 255.15,205.417 253.45,200.25 Z M306.55,248 C305.384,247.4 304.434,246.983 303.7,246.75 C300.033,245.483 293.9,244.85 285.3,244.85 C284.467,244.85 283.934,244.55 283.7,243.951 L283.55,243.301 C283.55,240.968 288.017,240.551 296.95,242.051 C305.849,243.518 310.3,245.168 310.3,247.001 C310.3,248.067 309.717,248.601 308.55,248.601 C307.95,248.6 307.283,248.4 306.55,248 Z M307.55,253.5 C307.55,254.566 306.967,255.1 305.8,255.1 C305.2,255.1 303.484,254.5 300.651,253.3 C297.817,252.067 293.467,251.45 287.6,251.45 C284.467,251.884 282.701,252.099 282.3,252.099 C281.6,252.099 281.134,251.849 280.901,251.349 C280.834,250.849 280.8,250.582 280.8,250.549 C280.8,250.016 281.033,249.566 281.5,249.199 C282.3,248.598 283.65,248.348 285.55,248.449 C290.484,248.015 295.55,248.582 300.75,250.149 C305.283,251.517 307.55,252.634 307.55,253.5 Z M281.8,258.1 C280.7,258.1 279.984,257.8 279.651,257.201 L279.55,256.551 C279.55,254.084 283.967,253.551 292.8,254.951 C301.634,256.35 306.05,258.067 306.05,260.1 C306.05,260.5 305.901,260.85 305.6,261.151 C305.267,261.451 304.867,261.6 304.401,261.6 C301.867,260.901 299.284,260.217 296.651,259.55 C291.384,258.151 288.451,257.45 287.85,257.45 C284.217,257.884 282.2,258.1 281.8,258.1 Z M277.9,263.35 C277.833,262.85 277.799,262.583 277.799,262.55 C277.799,261.083 279.133,260.467 281.799,260.7 C287.666,260.599 293.15,261.25 298.249,262.65 C302.949,263.917 305.299,265.15 305.299,266.349 C305.299,266.749 305.15,267.099 304.849,267.4 C304.516,267.7 304.116,267.849 303.65,267.849 C303.116,267.849 302.466,267.65 301.7,267.249 C300.533,266.683 299.5,266.266 298.599,265.999 C294.666,264.732 288.233,264.099 279.299,264.099 C278.6,264.1 278.134,263.85 277.9,263.35 Z M277.45,269.55 C277.183,269.417 277.05,269.017 277.05,268.35 C277.05,267.684 277.217,267.284 277.55,267.151 C277.984,266.951 279.151,266.85 281.05,266.85 C287.184,266.85 292.783,267.651 297.85,269.25 C302.317,270.65 304.55,271.934 304.55,273.1 C304.55,273.5 304.384,273.85 304.05,274.151 C303.717,274.451 303.3,274.6 302.8,274.6 C302.667,274.6 301.1,274.034 298.1,272.901 C294.934,271.734 292.833,271.05 291.8,270.85 C287.366,270.083 283.217,269.701 279.35,269.701 C278.316,269.7 277.684,269.65 277.45,269.55 Z M306.1,285.5 C302.367,288.967 297.3,291.116 290.901,291.95 L291.501,291.95 C298.201,291.95 302.968,289.95 305.801,285.95 C305.9,285.783 306,285.634 306.1,285.5 Z M293.15,299.3 L291.299,299.35 L289.599,299.35 L289.599,299.451 C289.633,300.117 289.633,300.801 289.599,301.501 C289.599,301.768 289.582,302.018 289.549,302.251 C289.549,302.351 289.532,303.135 289.499,304.601 C289.433,305.735 289.365,307.301 289.299,309.301 C289.166,311.268 288.999,312.801 288.799,313.902 C289.599,314.101 290.532,314.368 291.599,314.702 C292.499,314.702 293.266,314.669 293.9,314.601 C293.766,313.868 293.65,312.968 293.549,311.902 C293.383,308.368 293.299,306.535 293.299,306.402 L293.549,301.202 C293.35,300.467 293.217,299.833 293.15,299.3 Z M286.2,299 C281.766,298.366 278.2,296.816 275.5,294.35 C273.434,292.517 272.233,290.867 271.9,289.401 C271.266,289.034 270.599,288.617 269.9,288.151 C269.733,288.05 269.566,287.951 269.4,287.85 C269.466,288.05 269.549,288.267 269.65,288.5 C271.45,293.3 272.366,297.634 272.4,301.5 L286.5,301.5 C286.333,300.5 286.233,299.667 286.2,299 Z M286.55,319.25 C286.55,322.184 286.8,324.134 287.3,325.1 C288,326.5 289.484,327.201 291.75,327.201 C293.717,327.201 295.066,326.301 295.8,324.501 C296.134,323.668 296.3,322.668 296.3,321.501 C296.3,320.268 296.083,318.968 295.651,317.601 C293.418,317.768 292.084,317.851 291.651,317.851 C288.651,317.452 286.984,317.251 286.651,317.251 C286.583,317.65 286.55,318.316 286.55,319.25 Z M283.7,323.1 L277.9,323.1 C275.599,323.401 272.349,324.117 268.15,325.25 C264.65,326.184 262.266,326.9 261,327.4 C261,327.5 261.017,327.599 261.05,327.7 C262.85,328.8 264.967,329.599 267.401,330.099 C271.034,330.832 278.001,331.616 288.3,332.45 L289.8,332.45 C288.434,332.25 287.517,331.849 287.05,331.25 C286.884,330.384 286.8,329.934 286.8,329.9 C286.8,329.7 286.817,329.533 286.85,329.4 C285.651,328.766 284.8,327.866 284.3,326.7 C284,326 283.8,324.8 283.7,323.1 Z M298.55,326.55 C298.05,327.717 297.3,328.634 296.3,329.3 C296.366,329.634 296.366,329.984 296.3,330.35 C296.3,331.117 296.217,331.6 296.05,331.8 C295.75,332.1 295.217,332.317 294.45,332.45 L302.2,332.45 C305.4,332.283 309.349,331.75 314.05,330.849 C319.384,329.816 322.05,328.9 322.05,328.099 C322.05,326.9 317.967,325.816 309.8,324.849 C304.7,324.216 301.184,323.582 299.25,322.95 C299.184,324.483 298.95,325.684 298.55,326.55 Z M260.55,331.3 C260.55,332.467 260.567,333.1 260.6,333.2 C260.867,333.9 261.8,334.433 263.401,334.8 C265.767,335.366 275.401,336.917 292.3,339.45 L307.95,339.45 C315.516,338.65 320.099,337.816 321.7,336.95 C322.433,336.55 322.866,336.016 323,335.349 C323.033,335.216 323.05,334.483 323.05,333.15 C323.05,332.716 323,332.233 322.901,331.7 C322.201,332.134 321.334,332.483 320.3,332.75 C319.401,332.983 313.401,333.934 302.3,335.6 L288.3,335.6 C274.5,334.034 266.45,333 264.151,332.5 C262.717,332.167 261.517,331.767 260.55,331.3 Z M197.15,30.25 L207.049,30.35 C215.349,31.083 220.599,31.567 222.799,31.8 C222.199,31.533 221.599,31.267 220.999,31 C207.766,25.4 191.615,22.6 172.549,22.6 C157.716,22.6 146.932,25.483 140.199,31.25 C139.799,31.583 139.415,31.95 139.049,32.35 C140.649,31.916 142.583,31.55 144.849,31.25 C147.482,30.917 152.216,30.367 159.049,29.6 L178.049,29.6 C178.116,29.6 178.399,29.65 178.899,29.75 L185.799,29.85 C185.865,29.85 186.15,29.9 186.65,30 L196.299,30.1 C196.366,30.1 196.65,30.15 197.15,30.25 Z M171.25,54.6 C169.683,54.6 168.667,54.033 168.2,52.9 C167.933,51.567 167.617,50.717 167.25,50.35 C167.05,50.416 166.1,51.25 164.4,52.85 C163.067,54.083 162.117,54.817 161.55,55.05 C162.117,57.05 162.4,59.317 162.4,61.85 C162.4,65.183 161.7,68.033 160.3,70.4 C157.667,74.867 152.867,77.1 145.9,77.1 C142.867,77.1 140.283,76.433 138.15,75.1 C138.25,76.133 138.3,77.383 138.3,78.85 L138.2,84.55 C138.233,85.05 138.25,85.584 138.25,86.15 C138.35,88.317 138.467,91.517 138.6,95.75 C138.733,99.45 138.95,102.65 139.25,105.35 C139.65,109.383 140.4,115.733 141.5,124.4 C141.633,125.533 142.383,127.1 143.75,129.1 C145.183,131.166 146.433,132.433 147.5,132.9 C150.1,133.967 153.683,134.783 158.25,135.35 C166.883,136.45 175.817,137.05 185.05,137.15 C188.85,137.217 192.033,137.217 194.6,137.15 C194.667,137.183 194.734,137.2 194.8,137.2 L196.8,137.25 C196.934,137.283 197.067,137.317 197.2,137.35 C204.233,137.317 208.733,137.183 210.7,136.95 C214.433,136.55 216.917,135.467 218.15,133.7 C219.183,132.233 220.016,129.133 220.65,124.4 C221.783,115.867 222.733,109.683 223.5,105.85 C223.333,103.883 223.75,101.05 224.75,97.35 C225.783,93.65 226.2,90.833 226,88.9 C226.033,88.767 226.25,86.084 226.65,80.85 C226.783,79.383 227,78.033 227.299,76.8 L227.299,76.7 C227.233,76 227.183,75.433 227.15,75 C224.65,76.067 221.683,76.6 218.25,76.6 C211.116,76.6 206.033,73.933 203,68.6 C201.333,65.666 200.5,62.7 200.5,59.7 C200.5,57.7 200.717,55.833 201.15,54.1 C200.316,54.067 199.683,53.717 199.25,53.05 C198.517,51.984 198.1,51.417 198,51.35 C197.934,51.383 197.6,52.183 197,53.75 C196.533,54.983 195.7,55.6 194.5,55.6 C193.233,55.6 191.95,54.817 190.65,53.25 C189.45,51.517 188.667,50.483 188.299,50.15 C185.832,53.45 183.65,55.1 181.749,55.1 C180.316,55.1 179.166,54.217 178.299,52.45 C177.632,50.516 177.216,49.416 177.049,49.15 C176.182,50.283 175.399,51.283 174.699,52.15 C173.333,53.783 172.183,54.6 171.25,54.6 Z M154.75,53.75 C156.25,54.917 157,56.533 157,58.6 C157,60.067 156.517,61.567 155.55,63.1 C154.084,65.433 151.9,66.6 149,66.6 C145.933,66.6 143.933,65.45 143,63.15 C142.667,60.783 142.5,59.567 142.5,59.5 C142.5,57.3 143.25,55.533 144.75,54.2 C146.117,53 147.783,52.35 149.75,52.25 C151.717,52.183 153.383,52.683 154.75,53.75 Z M150.15,57.2 C148.383,57.333 147.5,58.467 147.5,60.6 C147.5,61.767 148.117,62.35 149.35,62.35 C150.416,62.35 151.317,61.7 152.05,60.4 C152.417,59.8 152.667,59.367 152.8,59.1 C152.8,57.7 151.917,57.067 150.15,57.2 Z M159.4,61.7 C159.4,56.733 158.084,52.983 155.45,50.45 C153.117,48.25 150.2,47.283 146.7,47.55 C143.333,47.783 140.416,49.033 137.95,51.3 C135.317,53.734 134,56.667 134,60.1 C134,62.9 134.6,65.483 135.8,67.85 C137.834,71.85 141.183,73.85 145.85,73.85 C151.75,73.85 155.767,71.933 157.9,68.1 C158.9,66.3 159.4,64.167 159.4,61.7 Z M175.75,77.85 C176.717,77.883 177.733,78.4 178.8,79.4 C179.834,80.4 181.151,80.9 182.75,80.9 C184.95,80.9 186.616,80.35 187.75,79.25 C188.85,78.15 189.767,77.6 190.5,77.6 C191.333,77.6 191.85,77.683 192.05,77.85 C192.05,77.883 192.134,77.967 192.3,78.1 C192.434,78.267 192.5,78.6 192.5,79.1 C192.5,80.2 191.35,81.3 189.05,82.4 C186.684,83.533 184.167,84.1 181.5,84.1 C179.833,84.1 178.333,83.267 177,81.6 C176,80.333 175.5,79.45 175.5,78.95 C175.5,78.483 175.517,78.233 175.55,78.2 C175.617,78.133 175.683,78.017 175.75,77.85 Z M211.25,55.3 C210.85,55.467 210.55,55.75 210.35,56.15 C210.117,56.55 210,57.067 210,57.7 C210,58.3 210.05,58.733 210.15,59 C210.316,59.4 210.599,59.683 211,59.85 C211,60.117 211.017,60.2 211.05,60.1 L211.5,60.4 C212.4,60.433 213.134,60.25 213.7,59.85 C214.033,59.65 214.283,59.383 214.45,59.05 C214.65,58.75 214.766,58.467 214.8,58.2 C214.8,58.133 214.783,58.05 214.75,57.95 L214.75,57.6 C214.75,55.833 213.967,54.983 212.4,55.05 C211.967,55.083 211.583,55.167 211.25,55.3 Z M215,51 C216.767,51.533 218.25,52.483 219.45,53.85 C220.816,55.416 221.5,57.166 221.5,59.1 C221.5,60.433 221.017,61.767 220.05,63.1 C218.85,64.767 217.25,65.6 215.25,65.6 C213.283,65.6 211.884,65.317 211.05,64.75 C209.517,64.217 208.267,63.183 207.3,61.65 L206,58.35 C206,56.95 206.384,55.733 207.15,54.7 C207.516,53.867 208.083,53.217 208.849,52.75 C209.183,51.983 209.749,51.417 210.549,51.05 C211.783,50.45 213.267,50.433 215,51 Z M128.05,55.75 C128.05,56.317 128.133,56.8 128.3,57.2 L128.3,71.25 C128.4,72.383 128.55,74 128.75,76.1 C128.817,77.233 128.917,78.533 129.05,80 C129.45,85.067 129.95,91.9 130.55,100.5 L133.9,100.45 C134.8,98.117 135.217,96.317 135.15,95.05 C134.917,93.584 134.8,92.167 134.8,90.8 L135.3,79.1 C135.3,76.3 134.867,73.95 134,72.05 C133.633,71.25 133.2,70.533 132.7,69.9 C130.933,67.767 130.05,64.133 130.05,59 C130.05,58.567 130.217,57.683 130.55,56.35 L130.55,54.85 L128.4,54.85 C128.233,54.983 128.133,55.083 128.1,55.15 C128.067,55.25 128.05,55.45 128.05,55.75 Z M121.4,59.3 C119.9,60.3 118.467,61.484 117.1,62.85 C115.666,64.283 114.317,65.95 113.05,67.85 C112.317,68.983 111.584,70.867 110.85,73.5 C110.15,76.067 109.8,78.133 109.8,79.7 C109.8,81.367 110.1,83.083 110.7,84.85 C111.033,85.916 111.65,87.75 112.55,90.35 C113.517,93.75 116.467,96.017 121.4,97.15 C122.6,97.417 124.2,97.75 126.2,98.15 C126.367,98.183 126.533,98.233 126.7,98.3 C126.666,98.033 126.633,97.767 126.6,97.5 C126.933,92.633 127,89.367 126.8,87.7 C126.6,86.067 126.383,83.867 126.15,81.1 C126.084,80.666 126.033,80.217 126,79.75 C125.667,75.783 125.433,73.117 125.3,71.75 L125.3,58.1 C125.234,57.867 125.183,57.567 125.15,57.2 C124.45,57.533 123.717,57.916 122.95,58.35 C122.417,58.65 121.9,58.967 121.4,59.3 Z M131,168.25 C130.567,168.283 130.317,168.35 130.25,168.45 C129.983,168.95 129.717,169.35 129.45,169.65 C127.25,172.117 125.333,175.017 123.7,178.35 C121.533,182.883 119.617,188.483 117.95,195.15 C113.717,212.783 111.05,224.183 109.95,229.349 C109.05,233.683 107.867,238.916 106.4,245.049 C109.1,245.183 111.867,245.316 114.7,245.449 L114.7,245.399 L133.3,247.199 C133.5,243.666 133.65,240.149 133.75,236.649 C133.683,236.315 133.633,235.982 133.6,235.649 C133.5,234.749 133.45,233.098 133.45,230.699 C133.45,223.699 133.55,219.199 133.75,217.199 C134.25,211.832 135.517,208.383 137.55,206.848 C137.55,206.882 137.617,206.965 137.75,207.098 C137.883,207.265 137.95,207.598 137.95,208.098 C137.95,210.098 137.533,215.015 136.7,222.848 C136.766,222.649 136.85,222.465 136.95,222.298 C136.983,225.399 137.133,229.581 137.4,234.848 C137.4,237.982 137.2,242.199 136.8,247.498 C153.2,249.031 166.4,251.265 176.4,254.198 L176.4,225.1 L175.9,223.6 L175.9,187.6 C175.767,187.434 175.683,187.284 175.65,187.151 L175.6,187.151 C175.467,187.117 175.333,187.1 175.2,187.1 L174,187.1 C173.5,187 173.05,186.901 172.65,186.8 C170.75,186.533 169.367,186.333 168.5,186.2 C168,186.134 167.55,186.05 167.15,185.95 C162.883,185.683 159.667,185.066 157.5,184.099 C155.833,183.332 155,182.583 155,181.849 C155,180.716 156.017,178.232 158.05,174.399 C159.383,171.966 160.417,170.149 161.15,168.949 C161.183,168.915 161.233,168.899 161.3,168.899 C159.567,168.499 157.817,167.649 156.05,166.349 C154.783,165.449 153.9,164.716 153.4,164.149 C147.7,165.249 144.8,165.816 144.7,165.849 C138.467,167.217 133.9,168.017 131,168.25 Z M205.4,101.35 C205.4,98.25 206.483,98.3 208.65,101.5 C210.816,104.667 211.9,106.817 211.9,107.95 C211.9,108.883 211.866,109.7 211.799,110.4 L211.499,110.75 C211.266,110.983 210.899,111.1 210.399,111.1 C209.265,111.1 208.682,110.533 208.649,109.4 C208.848,108.133 208.899,107.367 208.798,107.1 L208.548,106.65 C205.215,109.683 201.748,112.317 198.149,114.55 C191.249,118.917 183.916,121.1 176.149,121.1 C170.949,121.1 167.249,120.517 165.049,119.35 C163.616,118.617 162.899,117.733 162.899,116.7 C162.899,116.166 162.932,115.833 162.999,115.7 L163.049,115.6 L163.349,115.35 C163.549,115.183 163.899,115.1 164.399,115.1 C164.899,115.1 165.316,115.25 165.649,115.55 C166.249,116.084 166.632,116.4 166.799,116.5 C168.333,117.4 171.449,117.85 176.149,117.85 C183.049,117.85 190.016,115.65 197.049,111.25 C200.615,109.017 203.782,106.567 206.549,103.9 C206.183,103.433 205.933,103.067 205.799,102.8 C205.533,102.367 205.4,101.883 205.4,101.35 Z M169.5,149.1 C169.5,151.6 169.667,155.383 170,160.45 L170,160.65 C171.5,162.483 173.1,164.867 174.8,167.8 C176.5,170.734 178.9,175.1 182,180.9 C182.833,179.967 185.483,175.683 189.95,168.05 C191.783,164.917 193.3,162.517 194.5,160.85 L194.5,158.85 C194.5,157.85 194.583,156.033 194.75,153.4 C194.983,150.1 195.233,147.5 195.5,145.6 C195.767,143.8 196.184,142.133 196.75,140.6 L196.05,140.6 L196.05,140.35 C195.317,140.45 194.533,140.533 193.7,140.6 L193.099,140.6 C193.172,140.601 193.272,140.618 193.4,140.65 C191.066,140.817 188.266,140.917 185,140.95 C179.267,141.016 173.633,140.717 168.1,140.05 C168.867,140.65 169.317,141.667 169.45,143.1 C169.583,144.533 169.6,146.533 169.5,149.1 Z M164.05,165.7 C165.25,166.2 165.85,166.65 165.85,167.05 C165.85,167.084 165.833,167.167 165.8,167.3 C165.4,168.167 164.417,169.984 162.85,172.75 C160.483,176.85 159.033,179.567 158.5,180.9 C162.933,181.433 169.35,181.834 177.75,182.1 C178.15,182.1 178.533,182.117 178.9,182.15 C177.367,179.95 175.4,176.567 173,172 C171.833,169.8 170.833,167.883 170,166.25 C167.367,162.65 165.983,160.317 165.85,159.25 C165.283,159.617 164.633,159.983 163.9,160.35 C160.467,161.817 158.3,162.75 157.4,163.15 C157.967,163.717 159.467,164.367 161.9,165.1 C162.133,165.166 162.35,165.233 162.55,165.3 C162.85,165.267 163.35,165.4 164.05,165.7 Z M203,166.9 C202.4,166.367 201.283,165.383 199.65,163.95 C199.516,163.817 199.383,163.7 199.25,163.6 C198.65,162.867 198.3,162.5 198.2,162.5 C197.866,162.5 197.417,162.983 196.849,163.95 C196.716,164.183 196.599,164.383 196.499,164.55 C196.466,164.55 196.433,164.567 196.399,164.6 C195.098,166.7 193.315,169.483 191.048,172.95 C187.715,177.983 185.298,181.467 183.798,183.4 C184.364,183.333 184.932,183.283 185.498,183.25 C185.531,183.283 185.598,183.3 185.698,183.3 C185.898,183.3 186.215,183.25 186.648,183.151 L186.698,183.151 C191.931,182.717 196.198,182.284 199.498,181.851 C198.831,180.184 197.564,178.534 195.698,176.901 C194.231,175.634 193.498,174.284 193.498,172.851 C193.498,171.818 193.814,171.184 194.448,170.951 C198.014,169.718 201.031,168.534 203.498,167.401 C203.398,167.368 203.298,167.351 203.198,167.351 C203.198,167.284 203.165,167.201 203.097,167.101 C203.066,167.067 203.033,167 203,166.9 Z M37.6,248.15 C35.6,249.116 34.483,250.783 34.25,253.15 C34.05,255.283 34.717,263.933 36.25,279.099 C37.217,288.566 38.017,296.016 38.65,301.45 C38.783,302.583 38.9,303.634 39,304.599 C39.133,305.566 39.25,306.45 39.35,307.249 C39.75,310.016 40.133,314.482 40.5,320.649 C41.033,326.249 42.1,330.815 43.7,334.348 C43.933,334.848 44.467,337.199 45.3,341.399 C45.8,344.132 47.167,346.298 49.4,347.899 C55.733,352.532 73.383,356.249 102.35,359.048 C126.15,361.315 144.583,362.182 157.65,361.649 C171.917,361.048 180.617,358.749 183.75,354.749 C185.583,352.349 186.917,348.732 187.75,343.899 C189.083,336.098 189.767,332.115 189.8,331.949 C190.333,327.049 191.401,319.348 193,308.848 C193.233,307.382 193.467,305.965 193.7,304.598 C193.833,303.532 193.983,302.498 194.15,301.498 C195.183,294.765 195.883,289.515 196.25,285.748 C196.517,282.781 196.616,279.415 196.55,275.648 C196.45,270.581 195.95,267.264 195.05,265.698 C194.35,264.498 192.85,263.331 190.55,262.198 C189.616,261.731 188.583,261.281 187.45,260.847 C185.217,260.014 182.533,259.214 179.4,258.448 C178.433,258.181 177.433,257.931 176.4,257.698 C176.267,257.665 176.117,257.632 175.95,257.597 C171.85,256.698 158.717,254.381 136.55,250.648 C136.283,250.581 136.017,250.531 135.75,250.498 L113.2,248.298 C110.633,248.198 108.133,248.114 105.7,248.048 C104.3,247.982 102.933,247.932 101.6,247.899 C69.6,246.798 52.083,246.315 49.05,246.449 C43.55,246.55 39.733,247.116 37.6,248.15 Z M186.1,187.1 C185.734,187.067 185.434,187.05 185.201,187.05 L184.6,187.05 C184.567,187.05 184.534,187.067 184.5,187.1 L178.9,187.1 L178.9,222.651 C179.033,223.251 179.2,223.751 179.4,224.151 L179.4,255.1 C182.333,256.067 184.967,257.1 187.3,258.201 L186.4,241.6 L186.4,220.6 C186.066,218.3 185.9,214.767 185.9,210 C186.566,199.467 186.9,193.783 186.9,192.95 C186.9,192.55 186.733,191.283 186.4,189.15 C186.267,188.316 186.167,187.634 186.1,187.1 Z M108.5,286.8 C110.967,283.734 112.883,283.833 114.25,287.1 C115.617,286.934 116.8,287.25 117.8,288.05 C119.1,289.083 119.834,290.717 120,292.95 C120.5,295.683 121.517,298.516 123.05,301.45 C123.05,301.483 123.067,301.516 123.1,301.55 C123.633,302.55 124.017,303.567 124.25,304.6 C124.55,305.833 124.633,307.1 124.5,308.401 C124.3,310.534 123.4,312.584 121.8,314.55 C119.433,317.484 116.167,318.75 112,318.35 C107.667,317.917 104.767,316.284 103.3,313.451 C102.533,311.918 102.234,310.168 102.4,308.201 C102.533,306.901 102.817,305.701 103.25,304.6 C103.65,303.6 104.167,302.684 104.8,301.85 C104.9,301.717 105,301.583 105.1,301.451 C106.267,299.751 106.967,297.718 107.2,295.35 C107.4,293.117 108.166,291.234 109.5,289.701 C109.733,289.401 109.967,289.151 110.2,288.951 C109.667,287.983 109.1,287.267 108.5,286.8 Z M113.6,296.4 C113.2,296.366 112.567,295.066 111.7,292.5 C111.633,292.233 111.533,291.983 111.4,291.75 C110.8,292.483 110.517,293.366 110.55,294.4 C110.584,295.233 110.7,296.549 110.9,298.349 C110.867,298.516 110.267,299.549 109.1,301.45 C108.833,301.849 108.55,302.283 108.25,302.75 C107.817,303.417 107.433,304.033 107.1,304.6 C106.067,306.3 105.517,307.534 105.45,308.3 C105.317,309.434 105.5,310.583 106,311.75 C106.8,313.684 108.283,314.75 110.45,314.95 C114.55,315.349 117.617,314.384 119.65,312.05 C120.75,310.75 121.367,309.467 121.5,308.2 C121.633,306.833 121.533,305.634 121.2,304.599 C121.067,304.299 120.933,304.016 120.8,303.749 C120.6,303.349 120.017,302.582 119.05,301.449 C118.917,301.315 118.783,301.166 118.65,300.999 C116.683,298.766 116.15,295.649 117.05,291.649 C116.65,291.548 116.1,291.432 115.4,291.298 C115.533,292.198 115.667,293.182 115.8,294.248 C115.767,294.814 115.517,295.314 115.05,295.748 C114.583,296.217 114.1,296.434 113.6,296.4 Z M195.75,312.15 C194.917,317.516 193.684,324.966 192.05,334.5 C191.684,337 191.151,341.1 190.45,346.8 C190.25,347.833 190.016,348.783 189.75,349.651 C190.184,349.317 190.65,348.967 191.15,348.6 C191.583,348.234 196.283,344.8 205.25,338.3 C218.917,328.3 225.95,321.366 226.35,317.5 C226.35,317.333 226.167,317.184 225.8,317.05 C224.434,316.55 222.734,315.901 220.7,315.1 L196.7,312.55 C196.333,312.417 196.017,312.283 195.75,312.15 Z" id="Shape" fill="#000000" fill-rule="nonzero"></path>
            <path d="M236.15,52.25 C237.417,51.817 238.049,52.883 238.049,55.45 C238.049,57.45 237.666,61.133 236.9,66.5 C236.466,69.3 235.966,72.617 235.4,76.45 C235.333,76.983 235.25,78.766 235.15,81.8 C235.116,82.533 235.083,83.2 235.049,83.8 C234.916,85.033 234.749,86.084 234.549,86.95 C234.416,87.617 234.299,88.317 234.199,89.05 C234.032,90.65 233.999,92.433 234.098,94.4 C233.865,96.3 232.348,97.25 229.548,97.25 C229.281,97.25 229.149,97.233 229.149,97.2 L229.199,97.1 C229.332,96.6 229.515,95.6 229.749,94.1 C229.949,92.633 230.216,90.666 230.549,88.2 C230.582,87.967 230.615,87.75 230.65,87.55 C231.25,82.883 231.549,80.067 231.549,79.1 C231.282,77.1 231.216,75.883 231.349,75.45 C231.349,75.416 232.499,73.633 234.799,70.1 C235.332,69.233 235.916,67.767 236.549,65.7 C237.216,63.533 237.549,61.883 237.549,60.75 C236.983,55.983 236.517,53.15 236.15,52.25 Z M128.05,55.75 C128.05,55.45 128.067,55.25 128.1,55.15 C128.133,55.084 128.233,54.983 128.4,54.85 L130.55,54.85 L130.55,56.35 C130.217,57.683 130.05,58.567 130.05,59 C130.05,64.133 130.933,67.767 132.7,69.9 C133.2,70.533 133.633,71.25 134,72.05 C134.867,73.95 135.3,76.3 135.3,79.1 L134.8,90.8 C134.8,92.167 134.917,93.584 135.15,95.05 C135.217,96.317 134.8,98.117 133.9,100.45 L130.55,100.5 C129.95,91.9 129.45,85.067 129.05,80 C128.917,78.533 128.817,77.233 128.75,76.1 C128.55,74 128.4,72.383 128.3,71.25 L128.3,57.2 C128.133,56.8 128.05,56.317 128.05,55.75 Z" id="Shape" fill="#656565"></path>
            <path d="M241.05,54.95 C241.184,55.05 241.333,55.15 241.5,55.25 C243.233,56.517 244.833,57.95 246.3,59.55 C246.401,59.65 246.5,59.75 246.6,59.85 C247.901,61.383 249.034,62.967 250,64.6 C252.2,68.467 253.3,72.7 253.3,77.3 C253.3,80.334 252.634,83.25 251.3,86.05 C248.8,91.25 244.467,93.85 238.3,93.85 C238.067,93.817 237.85,93.8 237.651,93.8 L237.651,93.6 C237.617,92.733 237.6,91.9 237.6,91.1 C237.534,88.733 237.55,86.55 237.651,84.55 C237.751,82.15 237.967,80.033 238.3,78.2 C239.533,70.8 240.184,66.85 240.25,66.35 C240.783,62.55 241.05,58.883 241.05,55.35 L241.05,54.95 Z M197.15,30.25 C196.65,30.15 196.366,30.1 196.299,30.1 L186.65,30 C186.15,29.9 185.866,29.85 185.799,29.85 L178.899,29.75 C178.399,29.65 178.116,29.6 178.049,29.6 L159.049,29.6 C152.216,30.367 147.483,30.916 144.849,31.25 C142.582,31.55 140.649,31.917 139.049,32.35 C139.416,31.95 139.799,31.583 140.199,31.25 C146.932,25.483 157.716,22.6 172.549,22.6 C191.615,22.6 207.766,25.4 220.999,31 C221.599,31.267 222.199,31.533 222.799,31.8 C220.599,31.567 215.349,31.084 207.049,30.35 L197.15,30.25 Z M260.55,331.3 C261.517,331.767 262.717,332.167 264.151,332.5 C266.451,333 274.501,334.033 288.3,335.6 L302.3,335.6 C313.401,333.934 319.401,332.984 320.3,332.75 C321.333,332.483 322.2,332.134 322.901,331.7 C323.001,332.233 323.05,332.717 323.05,333.15 C323.05,334.483 323.033,335.216 323,335.349 C322.866,336.016 322.434,336.549 321.7,336.95 C320.099,337.816 315.516,338.65 307.95,339.45 L292.3,339.45 C275.401,336.917 265.767,335.366 263.401,334.8 C261.8,334.434 260.867,333.901 260.6,333.2 C260.566,333.1 260.55,332.467 260.55,331.3 Z M121.4,59.3 C121.9,58.967 122.417,58.65 122.95,58.35 C123.717,57.916 124.45,57.533 125.15,57.2 C125.183,57.567 125.233,57.867 125.3,58.1 L125.3,71.75 C125.433,73.117 125.667,75.783 126,79.75 C126.033,80.217 126.083,80.667 126.15,81.1 C126.383,83.867 126.6,86.067 126.8,87.7 C127,89.367 126.933,92.633 126.6,97.5 C126.633,97.767 126.666,98.033 126.7,98.3 C126.533,98.234 126.367,98.183 126.2,98.15 C124.2,97.75 122.6,97.417 121.4,97.15 C116.467,96.017 113.517,93.75 112.55,90.35 C111.65,87.75 111.033,85.916 110.7,84.85 C110.1,83.083 109.8,81.367 109.8,79.7 C109.8,78.133 110.15,76.067 110.85,73.5 C111.583,70.867 112.317,68.983 113.05,67.85 C114.317,65.95 115.667,64.283 117.1,62.85 C118.467,61.483 119.9,60.3 121.4,59.3 Z" id="Shape" fill="#454545"></path>
            <path d="M233,61.35 C233.033,63.583 232.45,65.666 231.25,67.6 C228.85,71.433 224.55,73.35 218.35,73.35 C212.984,73.35 208.951,71.45 206.25,67.65 C204.417,65.084 203.5,62.45 203.5,59.75 C203.5,55.15 205.033,51.4 208.1,48.5 C210.934,45.867 214.317,44.517 218.25,44.45 C222.283,44.383 225.667,45.7 228.4,48.4 C228.466,48.467 228.516,48.533 228.549,48.6 C229.582,50.133 230.516,51.517 231.349,52.75 C232.45,55.183 233,58.05 233,61.35 Z M159.4,61.7 C159.4,64.166 158.9,66.3 157.9,68.1 C155.767,71.933 151.75,73.85 145.85,73.85 C141.183,73.85 137.833,71.85 135.8,67.85 C134.6,65.483 134,62.9 134,60.1 C134,56.666 135.317,53.733 137.95,51.3 C140.416,49.033 143.333,47.783 146.7,47.55 C150.2,47.283 153.117,48.25 155.45,50.45 C158.083,52.983 159.4,56.733 159.4,61.7 Z M150.15,57.2 C151.917,57.067 152.8,57.7 152.8,59.1 C152.667,59.367 152.417,59.8 152.05,60.4 C151.317,61.7 150.417,62.35 149.35,62.35 C148.117,62.35 147.5,61.767 147.5,60.6 C147.5,58.467 148.383,57.333 150.15,57.2 Z M154.75,53.75 C153.383,52.683 151.717,52.183 149.75,52.25 C147.783,52.35 146.117,53 144.75,54.2 C143.25,55.533 142.5,57.3 142.5,59.5 C142.5,59.567 142.667,60.783 143,63.15 C143.933,65.45 145.933,66.6 149,66.6 C151.9,66.6 154.083,65.433 155.55,63.1 C156.517,61.567 157,60.067 157,58.6 C157,56.533 156.25,54.917 154.75,53.75 Z M211.25,55.3 C211.583,55.167 211.967,55.084 212.4,55.05 C213.966,54.984 214.75,55.834 214.75,57.6 L214.75,57.95 C214.783,58.05 214.8,58.133 214.8,58.2 C214.767,58.467 214.651,58.75 214.45,59.05 C214.283,59.383 214.033,59.65 213.7,59.85 C213.134,60.25 212.4,60.433 211.5,60.4 L211.05,60.1 C211.017,60.2 211,60.117 211,59.85 C210.6,59.683 210.316,59.4 210.15,59 C210.049,58.733 210,58.3 210,57.7 C210,57.067 210.116,56.55 210.35,56.15 C210.55,55.75 210.85,55.467 211.25,55.3 Z M215,51 C213.267,50.433 211.783,50.45 210.55,51.05 C209.75,51.417 209.184,51.984 208.85,52.75 C208.083,53.217 207.517,53.867 207.151,54.7 C206.384,55.733 206.001,56.95 206.001,58.35 L207.301,61.65 C208.268,63.183 209.518,64.217 211.051,64.75 C211.885,65.317 213.284,65.6 215.251,65.6 C217.251,65.6 218.851,64.767 220.051,63.1 C221.018,61.767 221.501,60.433 221.501,59.1 C221.501,57.166 220.817,55.416 219.451,53.85 C218.25,52.483 216.767,51.533 215,51 Z" id="Shape" fill="#FFFFFF"></path>
            <path d="M311.9,238.35 C312.433,238.35 312.866,238.167 313.2,237.8 C313.433,237.5 313.55,237.167 313.55,236.8 C313.55,234.667 308.85,232.85 299.45,231.35 C290.016,229.817 285.3,230.05 285.3,232.05 C285.3,232.35 285.384,232.616 285.55,232.85 C285.817,233.284 285.866,233.583 285.7,233.75 C286,233.783 288.45,233.816 293.05,233.85 L299.45,233.951 C301.217,234.184 303.683,235.001 306.849,236.401 C309.816,237.7 311.5,238.35 311.9,238.35 Z M312.55,232.35 C313.116,232.35 313.567,232.167 313.901,231.8 C314.168,231.5 314.3,231.167 314.3,230.8 C314.3,229.8 312.033,228.184 307.5,225.95 C302.3,223.384 297.65,222.634 293.55,223.7 C291.017,224.033 289.533,224.2 289.1,224.2 C288.134,224.2 287.484,224.333 287.151,224.599 C286.918,224.766 286.8,225.133 286.8,225.7 C286.8,225.733 286.833,226.016 286.901,226.55 C287.201,227.083 287.951,227.35 289.151,227.35 C289.584,227.35 291.651,227.134 295.35,226.701 C299.184,226.701 303.117,227.651 307.151,229.551 C309.15,230.483 310.95,231.417 312.55,232.35 Z M319.95,233.25 C317.849,232.384 316.8,232.767 316.8,234.4 C316.8,234.433 317.05,235.066 317.55,236.299 C318.25,237.433 319.134,238.032 320.2,238.099 C320.099,238.7 320,239.299 319.9,239.9 C319.599,239.733 319.233,239.599 318.799,239.5 C316.966,239 316.049,239.533 316.049,241.1 L316.799,242.75 C317.365,243.616 318.082,244.134 318.949,244.3 C318.916,244.5 318.883,244.684 318.848,244.85 C318.581,244.717 318.282,244.617 317.949,244.55 C316.449,244.151 315.649,244.567 315.549,245.8 C315.516,245.767 315.483,245.75 315.449,245.75 C313.482,245.417 311.848,246.366 310.549,248.6 C309.049,251.134 308.299,254.884 308.299,259.85 C308.299,261.25 308.549,265.55 309.049,272.75 L309.049,273.95 C308.983,274.083 308.933,274.217 308.9,274.349 C308.2,276.65 307.417,278.483 306.549,279.849 C306.282,280.582 305.983,281.266 305.65,281.9 C305.049,283.099 304.233,284.15 303.2,285.049 C301.167,286.816 298.3,288.032 294.599,288.699 C293.832,287.966 292.999,287.133 292.099,286.199 C290.2,284.166 289.016,282.082 288.549,279.949 C288.349,276.848 287.749,275.082 286.749,274.649 C285.782,274.215 285.299,275.249 285.299,277.749 C285.299,277.815 285.799,279.949 286.799,284.149 C287.666,286.482 288.733,288.166 289.999,289.199 C289.232,289.232 288.433,289.249 287.599,289.249 C286.999,288.683 286.383,287.966 285.749,287.099 C284.115,284.933 283.183,282.266 282.949,279.099 C283.082,275.299 282.582,273.316 281.449,273.15 C280.348,272.983 279.799,274.433 279.799,277.5 C279.799,277.667 280.216,280.033 281.049,284.6 C281.582,286.534 282.233,288.05 282.999,289.151 C282.633,289.117 282.282,289.1 281.949,289.1 C281.348,288.201 280.765,287.3 280.199,286.401 C278.265,283.334 277.299,280.734 277.299,278.6 C277.633,276.767 277.799,275.651 277.799,275.25 C277.799,273.717 277.216,273.167 276.049,273.6 C274.883,274.034 274.299,275.701 274.299,278.6 C274.299,278.701 274.683,280.901 275.449,285.201 C275.383,285.135 275.332,285.067 275.299,285.001 C274.032,282.901 273.199,280.851 272.799,278.851 C272.566,276.051 271.966,274.301 270.999,273.601 C270.032,272.902 269.549,273.902 269.549,276.601 L270.299,283.101 C270.499,284.001 270.733,284.818 270.999,285.551 C270.832,285.451 270.666,285.351 270.499,285.251 C270.532,285.117 270.549,284.984 270.549,284.851 C270.549,284.818 270.099,284.001 269.199,282.402 C268.265,280.768 267.799,279.185 267.799,277.652 C268.133,275.885 268.299,274.785 268.299,274.351 C268.299,272.751 267.716,272.418 266.549,273.351 C265.383,274.318 264.799,275.735 264.799,277.601 L264.9,278.452 C264.333,276.886 264.049,275.185 264.049,273.351 C264.049,272.218 264.183,270.768 264.449,269.001 C264.716,269.067 265.032,269.101 265.399,269.101 C268.332,269.101 270.182,269.001 270.949,268.801 C271.682,268.601 272.049,268.117 272.049,267.351 C272.049,265.851 270.599,265.251 267.699,265.551 C266.565,265.652 265.666,265.818 264.999,266.051 C265.133,265.185 265.315,264.284 265.549,263.351 L265.65,263.351 C268.783,263.351 270.833,263.218 271.799,262.952 C272.799,262.719 273.299,262.185 273.299,261.351 C273.299,259.985 271.549,259.518 268.049,259.952 C267.383,259.919 266.799,259.935 266.299,260.002 C266.4,259.502 266.516,259.002 266.65,258.502 C267.283,258.735 268.083,258.852 269.049,258.852 C271.983,258.852 273.816,258.736 274.549,258.502 C275.216,258.269 275.549,257.735 275.549,256.902 C275.549,255.801 273.799,255.185 270.299,255.051 C269.199,254.985 268.282,255.001 267.549,255.101 C267.782,254.202 268.049,253.202 268.349,252.101 C268.783,252.435 269.349,252.601 270.049,252.601 C272.683,252.601 274.483,252.334 275.449,251.801 C276.015,251.468 276.299,250.985 276.299,250.351 C276.299,248.952 274.799,248.351 271.799,248.551 C270.733,248.617 269.865,248.735 269.199,248.902 C269.432,247.968 269.682,247.002 269.949,246.002 C270.416,246.235 271.065,246.352 271.899,246.352 C274.699,246.352 276.499,246.186 277.298,245.852 C277.798,245.653 278.048,245.236 278.048,244.602 C278.048,243.436 276.548,242.869 273.548,242.903 C272.382,242.903 271.448,243.003 270.748,243.203 C270.915,242.47 271.132,241.602 271.398,240.602 C271.831,240.769 272.415,240.852 273.148,240.852 C276.114,240.852 278.014,240.686 278.847,240.352 C279.314,240.153 279.547,239.736 279.547,239.102 C279.547,237.903 278.047,237.269 275.047,237.203 C273.814,237.17 272.847,237.269 272.148,237.503 C272.347,236.569 272.581,235.586 272.847,234.553 C273.514,234.753 274.497,234.853 275.797,234.853 C278.398,234.853 280.08,234.687 280.847,234.353 C281.314,234.154 281.547,233.737 281.547,233.103 C281.547,232.67 281.464,232.404 281.297,232.303 C280.664,231.836 279.164,231.603 276.797,231.603 C275.363,231.603 274.247,231.687 273.447,231.853 C273.513,231.553 273.58,231.253 273.647,230.954 C273.747,230.487 273.863,230.037 273.997,229.603 L274.297,229.603 C277.131,229.603 279.33,229.237 280.898,228.503 C282.165,227.937 282.797,227.319 282.797,226.653 C282.797,225.253 281.097,224.753 277.697,225.153 C276.73,225.253 275.897,225.386 275.197,225.552 C275.631,224.319 276.08,223.352 276.547,222.653 C277.08,221.786 277.78,221.052 278.648,220.453 C278.581,220.753 278.547,221.053 278.547,221.352 L278.648,222.252 C278.881,222.818 279.347,223.102 280.047,223.102 C281.58,221.002 282.648,219.486 283.247,218.552 C283.58,218.452 283.964,218.368 284.397,218.302 C283.997,219.002 283.796,219.769 283.796,220.602 L283.897,221.502 C284.13,222.068 284.596,222.352 285.296,222.352 C285.596,222.352 286.213,221.602 287.147,220.102 C287.78,219.102 288.197,218.369 288.397,217.903 C289.096,217.836 289.83,217.802 290.596,217.802 C290.063,218.569 289.796,219.502 289.796,220.602 L289.897,221.502 C290.13,222.068 290.596,222.352 291.296,222.352 C291.73,222.352 292.362,221.602 293.196,220.102 C293.762,219.002 294.112,218.203 294.246,217.703 L295.096,217.703 L295.197,217.703 C294.763,218.369 294.547,219.119 294.547,219.953 C294.547,219.986 294.58,220.269 294.648,220.803 C294.881,221.336 295.347,221.603 296.047,221.603 C296.681,221.603 297.247,221.02 297.747,219.853 C298.113,218.987 298.297,218.303 298.297,217.803 L298.297,217.753 C299.33,217.786 300.33,217.853 301.297,217.953 C300.797,218.72 300.547,219.47 300.547,220.203 C300.547,220.236 300.58,220.519 300.648,221.053 C300.881,221.586 301.347,221.853 302.047,221.853 C302.814,221.853 303.547,220.654 304.247,218.253 C310.947,219.086 315.613,220.953 318.247,223.853 C319.78,225.586 320.547,228.253 320.547,231.853 L320.547,233.503 C320.35,233.4 320.15,233.316 319.95,233.25 Z M311.5,242.75 C311.7,242.417 311.8,242.05 311.8,241.65 C311.8,240.75 310.25,239.599 307.151,238.2 C303.617,236.634 300.168,235.933 296.8,236.099 L288.8,236.099 L288.8,236.2 C285.8,235.967 284.3,236.583 284.3,238.05 C284.3,238.083 284.467,238.467 284.8,239.2 C285.533,239.833 286.95,239.833 289.05,239.2 L296.7,239.2 C298.134,239.366 299.8,239.616 301.7,239.95 C303.599,240.283 304.8,240.55 305.3,240.75 C305.667,240.917 306.484,241.45 307.75,242.35 C308.65,243.017 309.5,243.35 310.3,243.35 C310.8,243.35 311.2,243.15 311.5,242.75 Z M277.45,269.55 C277.683,269.651 278.316,269.7 279.349,269.7 C283.216,269.7 287.366,270.083 291.799,270.849 C292.832,271.049 294.933,271.733 298.099,272.9 C301.099,274.033 302.666,274.599 302.799,274.599 C303.299,274.599 303.716,274.45 304.049,274.15 C304.383,273.849 304.549,273.5 304.549,273.099 C304.549,271.933 302.316,270.65 297.849,269.249 C292.783,267.649 287.183,266.849 281.049,266.849 C279.15,266.849 277.983,266.95 277.549,267.15 C277.216,267.283 277.049,267.683 277.049,268.349 C277.05,269.017 277.184,269.417 277.45,269.55 Z M277.9,263.35 C278.133,263.85 278.599,264.1 279.299,264.1 C288.233,264.1 294.666,264.734 298.599,266 C299.499,266.267 300.533,266.684 301.7,267.25 C302.467,267.65 303.116,267.85 303.65,267.85 C304.116,267.85 304.516,267.701 304.849,267.401 C305.15,267.1 305.299,266.751 305.299,266.35 C305.299,265.151 302.949,263.917 298.249,262.651 C293.149,261.251 287.666,260.6 281.799,260.701 C279.133,260.468 277.799,261.084 277.799,262.551 C277.8,262.583 277.833,262.85 277.9,263.35 Z M281.8,258.1 C282.2,258.1 284.217,257.884 287.85,257.451 C288.451,257.451 291.384,258.151 296.651,259.551 C299.284,260.218 301.867,260.902 304.401,261.601 C304.867,261.601 305.267,261.452 305.6,261.152 C305.901,260.851 306.05,260.502 306.05,260.101 C306.05,258.068 301.634,256.351 292.8,254.952 C283.967,253.552 279.55,254.085 279.55,256.552 L279.651,257.202 C279.983,257.8 280.7,258.1 281.8,258.1 Z M307.55,253.5 C307.55,252.634 305.283,251.517 300.75,250.15 C295.55,248.583 290.483,248.016 285.55,248.45 C283.651,248.349 282.3,248.599 281.5,249.2 C281.033,249.566 280.8,250.016 280.8,250.55 C280.8,250.583 280.833,250.85 280.901,251.35 C281.134,251.85 281.6,252.1 282.3,252.1 C282.7,252.1 284.467,251.884 287.6,251.451 C293.467,251.451 297.817,252.067 300.651,253.301 C303.484,254.501 305.201,255.101 305.8,255.101 C306.967,255.1 307.55,254.566 307.55,253.5 Z M306.55,248 C307.283,248.4 307.95,248.6 308.55,248.6 C309.717,248.6 310.3,248.067 310.3,247 C310.3,245.167 305.85,243.517 296.95,242.05 C288.016,240.55 283.55,240.967 283.55,243.3 L283.7,243.95 C283.933,244.55 284.467,244.849 285.3,244.849 C293.901,244.849 300.033,245.483 303.7,246.749 C304.434,246.983 305.384,247.4 306.55,248 Z M293.15,299.3 C293.216,299.833 293.349,300.467 293.549,301.2 L293.299,306.4 C293.299,306.533 293.383,308.366 293.549,311.9 C293.65,312.966 293.766,313.866 293.9,314.599 C293.266,314.666 292.5,314.7 291.599,314.7 C290.533,314.366 289.599,314.099 288.799,313.9 C288.999,312.799 289.166,311.266 289.299,309.299 C289.365,307.299 289.433,305.733 289.499,304.599 C289.532,303.133 289.549,302.349 289.549,302.249 C289.582,302.016 289.599,301.766 289.599,301.499 C289.633,300.799 289.633,300.115 289.599,299.449 L289.599,299.348 L291.299,299.348 L293.15,299.3 Z M298.55,326.55 C298.95,325.684 299.184,324.484 299.25,322.95 C301.184,323.583 304.7,324.217 309.8,324.849 C317.967,325.816 322.05,326.9 322.05,328.099 C322.05,328.9 319.384,329.816 314.05,330.849 C309.35,331.749 305.401,332.283 302.2,332.45 L294.45,332.45 C295.217,332.316 295.75,332.099 296.05,331.8 C296.217,331.6 296.3,331.116 296.3,330.35 C296.366,329.984 296.366,329.634 296.3,329.3 C297.3,328.634 298.05,327.717 298.55,326.55 Z M283.7,323.1 C283.8,324.8 284,326 284.3,326.701 C284.8,327.867 285.651,328.767 286.85,329.401 C286.817,329.534 286.8,329.701 286.8,329.901 C286.8,329.934 286.884,330.384 287.05,331.251 C287.517,331.851 288.434,332.251 289.8,332.451 L288.3,332.451 C278,331.617 271.033,330.834 267.401,330.1 C264.967,329.6 262.85,328.8 261.05,327.701 C261.017,327.6 261,327.501 261,327.401 C262.267,326.901 264.65,326.184 268.15,325.251 C272.349,324.117 275.599,323.401 277.9,323.101 L283.7,323.101 L283.7,323.1 Z" id="Shape" fill="#ABABAB"></path>
            <path d="M311.35,254.1 C311.717,250.701 312.867,249.034 314.8,249.1 C317.967,249.234 319.55,252.901 319.55,260.1 C319.55,263.267 319.417,266.484 319.151,269.75 C318.784,273.684 318.284,276.634 317.651,278.6 C317.418,279.267 317.1,280.867 316.701,283.401 C316.334,285.401 315.85,287.001 315.251,288.201 C313.351,291.767 308.834,294.35 301.701,295.951 L295.6,296.1 C295.401,295.767 295.184,295.767 294.951,296.1 L291,296.2 C287.167,296.2 284.017,295.634 281.55,294.5 C279.976,293.461 278.893,292.828 278.3,292.6 C278.877,292.81 280.06,293.259 281.85,293.951 C284.55,294.718 287.817,295.1 291.651,295.1 C300.817,295.1 306.951,291.583 310.05,284.55 C311.05,282.283 311.684,279.75 311.95,276.95 C311.983,276.65 312,276.266 312,275.8 C312.2,274.866 312.3,273.95 312.3,273.05 C312.3,272.283 312.2,271.767 312,271.5 C311.934,270.5 311.833,269 311.7,267 C311.433,263.434 311.3,261.05 311.3,259.85 C311.134,257.75 311.15,255.833 311.35,254.1 Z M312.55,255.1 L312.85,256.8 C313.284,258 314.134,258.6 315.401,258.6 C316.467,258.6 317.217,258.1 317.651,257.1 C317.918,256.534 318.05,255.884 318.05,255.151 C318.05,252.784 317.134,251.484 315.3,251.251 C313.467,251.05 312.55,252.333 312.55,255.1 Z M286.55,319.25 C286.55,318.316 286.583,317.65 286.651,317.25 C286.984,317.25 288.651,317.45 291.651,317.85 C292.084,317.85 293.418,317.767 295.651,317.6 C296.084,318.967 296.3,320.267 296.3,321.5 C296.3,322.667 296.134,323.667 295.8,324.5 C295.067,326.3 293.717,327.2 291.75,327.2 C289.483,327.2 288,326.5 287.3,325.099 C286.8,324.134 286.55,322.184 286.55,319.25 Z M113.6,296.4 C114.1,296.433 114.583,296.216 115.05,295.75 C115.517,295.316 115.767,294.816 115.8,294.25 C115.667,293.184 115.533,292.2 115.4,291.3 C116.1,291.434 116.65,291.55 117.05,291.651 C116.15,295.651 116.683,298.767 118.65,301.001 C118.783,301.168 118.917,301.317 119.05,301.451 C120.017,302.584 120.6,303.35 120.8,303.751 C120.933,304.018 121.067,304.301 121.2,304.601 C121.533,305.635 121.633,306.834 121.5,308.202 C121.367,309.469 120.75,310.752 119.65,312.052 C117.617,314.386 114.55,315.352 110.45,314.952 C108.283,314.752 106.8,313.685 106,311.752 C105.5,310.585 105.317,309.436 105.45,308.302 C105.516,307.535 106.067,306.302 107.1,304.602 C107.433,304.036 107.817,303.419 108.25,302.752 C108.55,302.285 108.833,301.852 109.1,301.452 C110.267,299.552 110.867,298.518 110.9,298.351 C110.7,296.551 110.584,295.235 110.55,294.402 C110.517,293.368 110.8,292.485 111.4,291.752 C111.533,291.985 111.633,292.235 111.7,292.502 C112.567,295.066 113.2,296.366 113.6,296.4 Z" id="Shape" fill="#DBDBDB"></path>
            <path d="M253.45,200.25 C255.15,205.417 256.183,209.616 256.55,212.85 C257.484,221.984 258.8,232.25 260.5,243.651 C261.634,251.184 262.55,256.484 263.25,259.55 C261.783,265.783 261.05,270.417 261.05,273.45 C261.05,274.75 261.25,276.433 261.651,278.5 C262.084,280.8 262.55,282.217 263.05,282.75 C263.984,283.783 265.267,284.9 266.901,286.1 L266.901,286.201 C266.901,287.301 267.35,290.135 268.251,294.701 C268.817,297.6 269.351,299.867 269.851,301.501 L242.3,301.501 C242,300.268 241.7,298.984 241.401,297.651 C238.067,283.184 236.067,273.934 235.401,269.901 C234.901,266.767 233.934,258.567 232.501,245.3 C231.801,239 231.268,233.901 230.901,230 C229.934,227.934 228.617,225.35 226.951,222.25 C227.151,225.217 227.867,232.267 229.1,243.4 C230.6,257.099 231.701,266.25 232.401,270.849 C233.234,276.082 234.817,286.299 237.151,301.499 L197.35,301.499 C198.184,295.699 198.817,290.532 199.25,285.999 C200.05,281.399 200.45,277.849 200.45,275.349 C200.45,271.049 199.066,267.383 196.3,264.349 C194.8,262.749 192.85,261.249 190.45,259.849 L189.4,240.849 L189.4,219.4 C189.066,217.4 188.9,214.216 188.9,209.849 C189.566,199.582 189.9,194.033 189.9,193.2 C189.9,192.366 189.366,190.349 188.299,187.15 C189.032,187.15 189.516,187.116 189.749,187.049 C189.883,187.016 189.982,186.949 190.049,186.849 C198.683,186.249 202.999,184.832 202.999,182.599 C202.999,180.799 202.349,179.232 201.049,177.899 C198.549,175.333 197.032,173.649 196.499,172.849 C200.133,171.982 202.732,171.216 204.299,170.549 C206.266,169.682 207.332,168.749 207.499,167.749 C213.099,168.249 217.365,168.732 220.299,169.199 C229.999,170.699 236.582,172.749 240.049,175.349 C244.316,178.549 247.316,182.649 249.049,187.649 C249.917,190.217 251.384,194.417 253.45,200.25 Z M131,168.25 C133.9,168.017 138.467,167.217 144.7,165.85 C144.8,165.817 147.7,165.25 153.4,164.15 C153.9,164.717 154.783,165.45 156.05,166.35 C157.817,167.65 159.567,168.5 161.3,168.9 C161.234,168.9 161.183,168.917 161.15,168.95 C160.417,170.15 159.383,171.967 158.05,174.4 C156.017,178.233 155,180.717 155,181.85 C155,182.583 155.833,183.333 157.5,184.1 C159.667,185.067 162.883,185.684 167.15,185.951 C167.55,186.051 168,186.135 168.5,186.201 C169.367,186.334 170.75,186.534 172.65,186.801 C173.05,186.902 173.5,187.001 174,187.101 L175.2,187.101 C175.333,187.101 175.467,187.118 175.6,187.152 L175.65,187.152 C175.683,187.285 175.767,187.435 175.9,187.601 L175.9,223.601 L176.4,225.101 L176.4,254.2 C166.4,251.266 153.2,249.033 136.8,247.5 C137.2,242.2 137.4,237.983 137.4,234.85 C137.133,229.583 136.983,225.401 136.95,222.3 C136.85,222.467 136.766,222.651 136.7,222.85 C137.533,215.017 137.95,210.1 137.95,208.1 C137.95,207.6 137.883,207.267 137.75,207.1 C137.617,206.967 137.55,206.884 137.55,206.85 C135.517,208.384 134.25,211.833 133.75,217.201 C133.55,219.201 133.45,223.701 133.45,230.701 C133.45,233.1 133.5,234.751 133.6,235.651 C133.633,235.984 133.683,236.317 133.75,236.651 C133.65,240.151 133.5,243.668 133.3,247.201 L114.7,245.401 L114.7,245.451 C111.867,245.317 109.1,245.184 106.4,245.051 C107.867,238.918 109.05,233.685 109.95,229.351 C111.05,224.185 113.717,212.785 117.95,195.152 C119.617,188.485 121.533,182.885 123.7,178.352 C125.333,175.019 127.25,172.119 129.45,169.652 C129.717,169.352 129.983,168.952 130.25,168.452 C130.317,168.35 130.567,168.283 131,168.25 Z" id="Shape" fill="#199F66"></path>
            <path d="M171.25,54.6 C172.183,54.6 173.333,53.783 174.7,52.15 C175.4,51.283 176.183,50.283 177.05,49.15 C177.217,49.417 177.633,50.517 178.3,52.45 C179.167,54.217 180.317,55.1 181.75,55.1 C183.65,55.1 185.833,53.45 188.3,50.15 C188.667,50.483 189.45,51.517 190.651,53.25 C191.951,54.817 193.234,55.6 194.501,55.6 C195.701,55.6 196.534,54.983 197.001,53.75 C197.601,52.183 197.935,51.383 198.001,51.35 C198.101,51.416 198.518,51.983 199.251,53.05 C199.685,53.717 200.317,54.067 201.151,54.1 C200.717,55.833 200.501,57.7 200.501,59.7 C200.501,62.7 201.334,65.666 203.001,68.6 C206.034,73.933 211.117,76.6 218.251,76.6 C221.685,76.6 224.651,76.067 227.151,75 C227.184,75.433 227.234,76 227.3,76.7 L227.3,76.8 C227,78.033 226.783,79.383 226.651,80.85 C226.251,86.083 226.034,88.767 226.001,88.9 C226.201,90.834 225.784,93.65 224.751,97.35 C223.751,101.05 223.334,103.883 223.501,105.85 C222.734,109.683 221.784,115.867 220.651,124.4 C220.017,129.133 219.184,132.233 218.151,133.7 C216.918,135.467 214.434,136.55 210.701,136.95 C208.734,137.183 204.234,137.317 197.201,137.35 C197.067,137.317 196.934,137.283 196.801,137.25 L194.801,137.2 C194.735,137.2 194.668,137.183 194.601,137.15 C192.035,137.217 188.851,137.217 185.051,137.15 C175.818,137.05 166.884,136.45 158.251,135.35 C153.684,134.783 150.101,133.967 147.501,132.9 C146.434,132.433 145.184,131.167 143.751,129.1 C142.384,127.1 141.634,125.533 141.501,124.4 C140.401,115.733 139.651,109.383 139.251,105.35 C138.951,102.65 138.734,99.45 138.601,95.75 C138.468,91.517 138.351,88.317 138.251,86.15 C138.251,85.584 138.234,85.05 138.201,84.55 L138.301,78.85 C138.301,77.383 138.251,76.133 138.151,75.1 C140.284,76.433 142.868,77.1 145.901,77.1 C152.868,77.1 157.668,74.867 160.301,70.4 C161.701,68.033 162.401,65.183 162.401,61.85 C162.401,59.317 162.118,57.05 161.551,55.05 C162.118,54.817 163.068,54.084 164.401,52.85 C166.101,51.25 167.051,50.416 167.251,50.35 C167.618,50.717 167.934,51.567 168.201,52.9 C168.667,54.033 169.683,54.6 171.25,54.6 Z M175.75,77.85 C175.683,78.017 175.617,78.133 175.55,78.2 C175.517,78.233 175.5,78.483 175.5,78.95 C175.5,79.45 176,80.333 177,81.6 C178.333,83.267 179.833,84.1 181.5,84.1 C184.167,84.1 186.684,83.533 189.05,82.4 C191.35,81.3 192.5,80.2 192.5,79.1 C192.5,78.6 192.434,78.267 192.3,78.1 C192.134,77.967 192.05,77.883 192.05,77.85 C191.85,77.683 191.333,77.6 190.5,77.6 C189.767,77.6 188.85,78.15 187.75,79.25 C186.616,80.35 184.95,80.9 182.75,80.9 C181.15,80.9 179.833,80.4 178.8,79.4 C177.733,78.4 176.717,77.883 175.75,77.85 Z M144.4,91.35 C144.4,91.817 144.45,92.317 144.55,92.85 C144.717,93.95 145.05,94.95 145.55,95.85 C147.017,98.683 149.633,100.1 153.4,100.1 C159.733,100.1 162.9,97.05 162.9,90.95 C162.9,88.75 161.933,86.883 160,85.35 C158.233,83.916 156.117,83.117 153.65,82.95 C151.117,82.783 149,83.35 147.3,84.65 C145.367,86.183 144.4,88.417 144.4,91.35 Z M219.05,84.9 C217.616,83.933 215.901,83.45 213.901,83.45 C211.834,83.45 210.117,84 208.751,85.1 C207.185,86.367 206.401,88.15 206.401,90.45 C206.401,90.516 206.567,91.733 206.901,94.1 C207.934,96.433 210.184,97.6 213.651,97.6 C216.784,97.6 218.984,96.433 220.251,94.1 C221.018,92.7 221.401,90.983 221.401,88.95 C221.4,87.317 220.616,85.967 219.05,84.9 Z M169.5,149.1 C169.6,146.533 169.583,144.533 169.45,143.1 C169.317,141.666 168.867,140.65 168.1,140.05 C173.633,140.717 179.267,141.017 185,140.95 C188.267,140.916 191.066,140.817 193.4,140.65 C193.272,140.618 193.172,140.602 193.099,140.6 L193.7,140.6 C194.533,140.533 195.316,140.45 196.05,140.35 L196.05,140.6 L196.75,140.6 C196.184,142.133 195.767,143.8 195.5,145.6 C195.233,147.5 194.983,150.1 194.75,153.4 C194.583,156.033 194.5,157.85 194.5,158.85 L194.5,160.85 C193.3,162.517 191.783,164.916 189.95,168.05 C185.483,175.683 182.833,179.967 182,180.9 C178.9,175.1 176.5,170.733 174.8,167.8 C173.1,164.867 171.5,162.484 170,160.65 L170,160.45 C169.667,155.383 169.5,151.6 169.5,149.1 Z M205.4,101.35 C205.4,101.883 205.533,102.367 205.799,102.8 C205.933,103.067 206.183,103.433 206.549,103.9 C203.782,106.567 200.615,109.017 197.049,111.25 C190.016,115.65 183.049,117.85 176.149,117.85 C171.449,117.85 168.333,117.4 166.799,116.5 C166.632,116.4 166.249,116.083 165.649,115.55 C165.316,115.25 164.899,115.1 164.399,115.1 C163.899,115.1 163.549,115.183 163.349,115.35 L163.049,115.6 L162.999,115.7 C162.932,115.833 162.899,116.166 162.899,116.7 C162.899,117.733 163.616,118.617 165.049,119.35 C167.249,120.517 170.949,121.1 176.149,121.1 C183.916,121.1 191.249,118.916 198.149,114.55 C201.749,112.317 205.215,109.683 208.548,106.65 L208.798,107.1 C208.899,107.367 208.848,108.133 208.649,109.4 C208.682,110.533 209.265,111.1 210.399,111.1 C210.899,111.1 211.265,110.983 211.499,110.75 L211.799,110.4 C211.865,109.7 211.9,108.883 211.9,107.95 C211.9,106.817 210.816,104.666 208.65,101.5 C206.483,98.3 205.4,98.25 205.4,101.35 Z" id="Shape" fill="#FFD9AF"></path>
            <path d="M144.4,91.35 C144.4,88.416 145.367,86.183 147.3,84.65 C149,83.35 151.117,82.783 153.65,82.95 C156.117,83.117 158.233,83.916 160,85.35 C161.933,86.883 162.9,88.75 162.9,90.95 C162.9,97.05 159.733,100.1 153.4,100.1 C149.633,100.1 147.017,98.683 145.55,95.85 C145.05,94.95 144.717,93.95 144.55,92.85 C144.45,92.317 144.4,91.817 144.4,91.35 Z M219.05,84.9 C220.616,85.967 221.401,87.317 221.401,88.95 C221.401,90.983 221.017,92.7 220.251,94.1 C218.984,96.433 216.784,97.6 213.651,97.6 C210.184,97.6 207.934,96.433 206.901,94.1 C206.567,91.733 206.401,90.517 206.401,90.45 C206.401,88.15 207.184,86.367 208.751,85.1 C210.117,84 211.834,83.45 213.901,83.45 C215.9,83.45 217.616,83.933 219.05,84.9 Z" id="Shape" fill="#FFA78A"></path>
            <path d="M203,166.9 C203.033,167 203.066,167.067 203.1,167.1 C203.167,167.2 203.201,167.283 203.201,167.35 C203.301,167.35 203.401,167.367 203.501,167.4 C201.034,168.533 198.018,169.717 194.451,170.95 C193.817,171.183 193.501,171.817 193.501,172.85 C193.501,174.283 194.234,175.633 195.701,176.9 C197.567,178.533 198.834,180.183 199.501,181.85 C196.201,182.283 191.935,182.717 186.701,183.15 L186.651,183.15 C186.217,183.25 185.901,183.299 185.701,183.299 C185.6,183.299 185.534,183.282 185.501,183.249 C184.935,183.282 184.367,183.332 183.801,183.399 C185.301,181.465 187.718,177.982 191.051,172.949 C193.318,169.482 195.101,166.699 196.402,164.599 C196.435,164.566 196.468,164.549 196.502,164.549 C196.602,164.382 196.719,164.182 196.852,163.949 C197.419,162.982 197.869,162.499 198.203,162.499 C198.303,162.499 198.653,162.866 199.253,163.599 C199.387,163.699 199.52,163.816 199.653,163.949 C201.283,165.383 202.4,166.367 203,166.9 Z M164.05,165.7 C163.35,165.4 162.85,165.266 162.55,165.3 C162.35,165.234 162.133,165.167 161.9,165.1 C159.467,164.367 157.967,163.717 157.4,163.15 C158.3,162.75 160.467,161.817 163.9,160.35 C164.633,159.983 165.283,159.617 165.85,159.25 C165.983,160.317 167.367,162.65 170,166.25 C170.833,167.883 171.833,169.8 173,172 C175.4,176.567 177.367,179.95 178.9,182.15 C178.533,182.117 178.15,182.1 177.75,182.1 C169.35,181.833 162.933,181.433 158.5,180.9 C159.033,179.567 160.483,176.85 162.85,172.75 C164.416,169.983 165.4,168.167 165.8,167.3 C165.834,167.167 165.85,167.084 165.85,167.05 C165.85,166.65 165.25,166.2 164.05,165.7 Z M186.1,187.1 C186.167,187.634 186.267,188.317 186.401,189.151 C186.734,191.284 186.901,192.55 186.901,192.951 C186.901,193.784 186.567,199.468 185.901,210.001 C185.901,214.768 186.067,218.301 186.401,220.601 L186.401,241.601 L187.3,258.2 C184.967,257.099 182.333,256.066 179.4,255.099 L179.4,224.15 C179.2,223.75 179.033,223.25 178.9,222.65 L178.9,187.1 L184.5,187.1 C184.533,187.067 184.566,187.05 184.6,187.05 L185.201,187.05 C185.434,187.05 185.733,187.066 186.1,187.1 Z" id="Shape" fill="#097A4A"></path>
            <path d="M37.6,248.15 C39.733,247.116 43.55,246.549 49.05,246.45 C52.084,246.316 69.6,246.8 101.6,247.9 C102.933,247.933 104.3,247.983 105.7,248.049 C108.133,248.115 110.633,248.199 113.2,248.299 L135.75,250.499 C136.017,250.532 136.283,250.582 136.55,250.649 C158.717,254.382 171.85,256.699 175.95,257.598 C176.117,257.632 176.266,257.665 176.4,257.699 C177.433,257.932 178.433,258.182 179.4,258.449 C182.533,259.216 185.217,260.015 187.45,260.848 C188.583,261.282 189.616,261.732 190.55,262.199 C192.85,263.332 194.35,264.499 195.05,265.699 C195.95,267.265 196.45,270.582 196.55,275.649 C196.616,279.416 196.517,282.782 196.25,285.749 C195.884,289.516 195.184,294.766 194.15,301.499 C193.983,302.499 193.833,303.532 193.7,304.599 C193.467,305.966 193.233,307.383 193,308.849 C191.4,319.349 190.333,327.049 189.8,331.95 C189.767,332.116 189.083,336.099 187.75,343.9 C186.917,348.733 185.583,352.349 183.75,354.75 C180.617,358.75 171.917,361.05 157.65,361.65 C144.584,362.183 126.15,361.316 102.35,359.049 C73.383,356.249 55.733,352.532 49.4,347.9 C47.167,346.299 45.8,344.133 45.3,341.4 C44.467,337.2 43.933,334.849 43.7,334.349 C42.1,330.816 41.033,326.249 40.5,320.65 C40.133,314.483 39.75,310.016 39.35,307.25 C39.25,306.45 39.133,305.566 39,304.6 C38.9,303.634 38.783,302.583 38.65,301.451 C38.017,296.017 37.217,288.567 36.25,279.1 C34.717,263.934 34.05,255.284 34.25,253.151 C34.483,250.783 35.6,249.116 37.6,248.15 Z M108.5,286.8 C109.1,287.267 109.667,287.984 110.2,288.95 C109.967,289.15 109.733,289.4 109.5,289.7 C108.167,291.233 107.4,293.116 107.2,295.349 C106.967,297.716 106.266,299.749 105.1,301.45 C105,301.583 104.9,301.717 104.8,301.849 C104.167,302.683 103.65,303.599 103.25,304.599 C102.817,305.7 102.533,306.9 102.4,308.2 C102.233,310.167 102.533,311.917 103.3,313.45 C104.767,316.283 107.667,317.917 112,318.349 C116.167,318.749 119.433,317.483 121.8,314.549 C123.4,312.582 124.3,310.532 124.5,308.4 C124.633,307.099 124.55,305.833 124.25,304.599 C124.017,303.566 123.633,302.549 123.1,301.549 C123.067,301.516 123.05,301.483 123.05,301.449 C121.517,298.515 120.5,295.682 120,292.949 C119.833,290.716 119.1,289.082 117.8,288.049 C116.8,287.249 115.617,286.933 114.25,287.099 C112.883,283.833 110.967,283.733 108.5,286.8 Z" id="Shape" fill="#BDBDBD"></path>
            <path d="M195.75,312.15 C196.017,312.283 196.333,312.417 196.7,312.549 L220.7,315.099 C222.733,315.9 224.433,316.549 225.8,317.049 C226.167,317.183 226.35,317.332 226.35,317.499 C225.951,321.365 218.917,328.299 205.25,338.299 C196.283,344.799 191.583,348.233 191.15,348.599 C190.65,348.966 190.183,349.316 189.75,349.65 C190.017,348.783 190.25,347.833 190.45,346.799 C191.15,341.099 191.683,336.999 192.05,334.499 C193.684,324.967 194.917,317.517 195.75,312.15 Z" id="Shape" fill="#7E7E7E"></path>
        </g>
    </g>
</svg>
