<?xml version="1.0" encoding="UTF-8"?>
<svg width="331px" height="365px" viewBox="0 0 331 365" version="1.1" xmlns="http://www.w3.org/2000/svg" xmlns:xlink="http://www.w3.org/1999/xlink">
    <!-- Generator: Sketch 43.2 (39069) - http://www.bohemiancoding.com/sketch -->
    <title>webinar</title>
    <desc>Created with Sketch.</desc>
    <defs></defs>
    <g id="Page-1" stroke="none" stroke-width="1" fill="none" fill-rule="evenodd">
        <g id="webinar">
            <path d="M226.95,41 C226.783,41.233 226.7,41.717 226.7,42.45 C226.7,43.183 227.533,46.016 229.2,50.95 C229.566,52.083 229.9,53.233 230.2,54.4 C230.167,54.433 230.15,54.467 230.15,54.5 C229.516,54.067 228.9,53.7 228.299,53.4 C227.566,53 226.916,52.717 226.349,52.55 C226.349,52.584 226.366,52.633 226.4,52.7 C226.366,52.666 226.333,52.65 226.299,52.65 C225.433,52.417 224.999,53.317 224.999,55.35 C224.999,56.783 226.032,59.783 228.099,64.35 C223.566,64.983 221.049,66.7 220.549,69.5 C220.416,70.2 220.416,71.35 220.549,72.95 C220.65,74.317 220.582,75.283 220.349,75.85 C219.216,75.317 218.016,74.9 216.749,74.6 L216.599,74.65 C217.133,73.783 218.099,72.267 219.499,70.1 C219.966,69.333 220.482,68.083 221.049,66.35 C221.416,63.05 221.633,60.617 221.699,59.05 C221.633,58.25 221.582,57.567 221.549,57 C221.216,55.567 221.016,54.733 220.949,54.5 C220.049,52.5 219.015,50.75 217.848,49.25 C217.715,49.083 217.598,48.917 217.498,48.75 C217.465,48.75 217.448,48.767 217.448,48.8 C216.814,47.967 216.264,47.367 215.798,47 L213.048,44.6 C212.348,43.967 211.831,43.583 211.498,43.45 C211.298,43.317 211.098,43.183 210.898,43.05 C210.131,42.55 209.464,42.183 208.898,41.95 C208.198,41.683 207.681,41.633 207.347,41.8 C205.948,41.433 204.481,41.234 202.948,41.2 C198.148,41.1 194.081,42.6 190.748,45.7 C189.081,47.266 187.781,49.083 186.848,51.15 C185.215,48.45 183.831,47.1 182.699,47.1 C181.565,47.1 180.666,47.717 179.999,48.95 C179.466,50.317 179.115,51.133 178.949,51.4 C178.682,51.3 177.799,50.433 176.299,48.8 C174.933,47.334 173.9,46.6 173.199,46.6 C172.166,46.6 170.916,47.267 169.449,48.6 C167.582,50.333 166.515,51.267 166.249,51.4 C165.683,49.633 165.232,48.334 164.899,47.5 C164.299,45.967 163.232,45 161.699,44.6 C160.966,44.433 159.982,45.283 158.749,47.15 C157.382,49.25 156.299,50.417 155.499,50.65 C155.332,49.65 155.099,48.75 154.799,47.95 C154.233,46.383 153.449,45.6 152.449,45.6 C152.216,45.6 150.816,46.683 148.249,48.85 C146.782,50.083 145.716,51.1 145.049,51.9 C144.316,50.433 143.366,49.15 142.199,48.05 C139.332,45.383 135.732,44.217 131.399,44.55 C129.532,44.683 127.799,45.067 126.199,45.7 C126.232,45.666 126.265,45.633 126.299,45.6 C124.366,46.467 122.799,47.333 121.599,48.2 C119.866,49.2 118.549,50.416 117.649,51.85 L117.649,51.9 C117.583,51.867 117.532,51.85 117.499,51.85 C117.199,52.383 116.982,52.85 116.849,53.25 C116.582,53.983 116.066,55.667 115.299,58.3 C115.099,58.867 114.916,59.367 114.749,59.8 C114.849,64.5 115.732,67.867 117.399,69.9 C117.899,70.533 118.333,71.25 118.699,72.05 C118.866,72.45 119.032,72.867 119.199,73.3 C118.732,73.5 118.015,73.883 117.049,74.45 C115.549,75.317 114.549,75.75 114.049,75.75 L114.249,75.5 C114.749,72.967 114.982,71.133 114.949,70 C114.882,67.733 114.066,66.6 112.499,66.6 C111.999,66.6 111.399,66.717 110.699,66.95 C110.099,67.15 109.782,67.25 109.749,67.25 L109.749,67 C110.249,65.733 110.732,64.133 111.199,62.2 C111.732,59.967 111.999,58.2 111.999,56.9 C111.999,54.704 110.424,54.437 107.274,56.1 C107.301,55.985 107.342,55.885 107.399,55.8 C107.432,55.734 107.482,55.667 107.549,55.6 L107.499,55.6 C107.799,54.9 108.116,54.15 108.449,53.35 C110.282,49.083 111.199,46.717 111.199,46.25 C111.199,45.45 110.999,45.083 110.599,45.15 C110.466,44.883 110.266,44.65 109.999,44.45 C109.499,44.283 109.249,44.166 109.249,44.1 C109.249,43.933 110.332,42.4 112.499,39.5 C114.632,36.633 115.699,35.05 115.699,34.75 C115.699,34.35 115.632,34.05 115.499,33.85 C115.199,33.35 114.516,33.1 113.449,33.1 C112.982,33.1 112.382,33.233 111.649,33.5 C110.882,33.767 110.399,33.9 110.199,33.9 L110.249,33.85 C110.882,33.317 113.732,31.3 118.799,27.8 C123.066,24.867 125.199,23.183 125.199,22.75 C125.199,22.55 125.032,22.283 124.699,21.95 C124.265,21.583 123.932,21.3 123.699,21.1 C122.066,20.967 120.399,20.733 118.699,20.4 C119.132,20.233 120.499,19.483 122.799,18.15 C125.699,16.95 129.216,16.35 133.349,16.35 C137.549,16.35 140.332,16.65 141.699,17.25 C143.066,17.817 143.816,18.1 143.949,18.1 C144.449,18.1 144.832,18.033 145.099,17.9 L145.449,17.65 C145.449,17.45 145.499,17.267 145.599,17.1 C145.665,16.967 145.699,16.666 145.699,16.2 C145.699,15.467 144.982,14.317 143.549,12.75 C141.916,11.117 140.899,10.083 140.499,9.65 L141.699,9.35 L146.499,9.15 C146.766,9.15 148.366,9.817 151.299,11.15 C154.199,12.45 155.666,13.1 155.699,13.1 C156.432,13.1 156.949,12.783 157.249,12.15 C157.249,12.117 157.266,12.1 157.299,12.1 L157.449,12.1 C158.082,12.1 158.966,11.5 160.099,10.3 C161.332,8.967 162.466,8.15 163.499,7.85 C168.832,6.283 171.532,5.483 171.599,5.45 C174.166,4.783 177.283,4.183 180.95,3.65 L180.5,4.35 C180.233,4.717 178.7,5.85 175.9,7.75 C173.433,9.417 172.2,10.617 172.2,11.35 C172.2,11.85 172.25,12.2 172.349,12.4 C172.416,12.633 172.45,12.783 172.45,12.85 L172.75,13 C173.017,13.067 173.417,13.1 173.95,13.1 L186.7,9.85 L199.75,9.85 C200.384,10.017 201.55,10.183 203.25,10.35 L202.2,10.6 C199,11.767 197.283,12.4 197.05,12.5 C195.817,13.133 195.2,14 195.2,15.1 C195.2,15.733 198.8,17.75 206,21.15 C209.7,22.883 214.033,24.883 219,27.15 C222.366,28.95 224.95,31.334 226.75,34.3 C227.75,35.933 229.083,38.133 230.75,40.9 C228.783,40.3 227.517,40.333 226.95,41 Z" id="Shape" fill="#782121"></path>
            <path d="M226.95,41 C227.516,40.333 228.783,40.3 230.75,40.9 C229.083,38.133 227.75,35.933 226.75,34.3 C224.95,31.334 222.366,28.95 219,27.15 C214.033,24.883 209.7,22.883 206,21.15 C198.8,17.75 195.2,15.733 195.2,15.1 C195.2,14 195.816,13.133 197.05,12.5 C197.283,12.4 199,11.767 202.2,10.6 L203.25,10.35 C201.55,10.183 200.384,10.017 199.75,9.85 L186.7,9.85 L173.95,13.1 C173.417,13.1 173.016,13.067 172.75,13 L172.45,12.85 C172.45,12.783 172.417,12.633 172.349,12.4 C172.249,12.2 172.2,11.85 172.2,11.35 C172.2,10.617 173.433,9.416 175.9,7.75 C178.7,5.85 180.233,4.717 180.5,4.35 L180.95,3.65 C177.283,4.183 174.167,4.783 171.599,5.45 C171.533,5.483 168.832,6.283 163.499,7.85 C162.466,8.15 161.332,8.967 160.099,10.3 C158.966,11.5 158.082,12.1 157.449,12.1 L157.299,12.1 C157.266,12.1 157.249,12.117 157.249,12.15 C156.949,12.783 156.432,13.1 155.699,13.1 C155.665,13.1 154.199,12.45 151.299,11.15 C148.366,9.817 146.766,9.15 146.499,9.15 L141.699,9.35 L140.499,9.65 C140.899,10.084 141.916,11.117 143.549,12.75 C144.983,14.317 145.699,15.467 145.699,16.2 C145.699,16.666 145.665,16.967 145.599,17.1 C145.499,17.267 145.449,17.45 145.449,17.65 L145.099,17.9 C144.832,18.033 144.449,18.1 143.949,18.1 C143.816,18.1 143.066,17.817 141.699,17.25 C140.332,16.65 137.549,16.35 133.349,16.35 C129.216,16.35 125.699,16.95 122.799,18.15 C120.499,19.483 119.132,20.233 118.699,20.4 C120.399,20.733 122.066,20.967 123.699,21.1 C123.932,21.3 124.265,21.583 124.699,21.95 C125.032,22.283 125.199,22.55 125.199,22.75 C125.199,23.183 123.066,24.867 118.799,27.8 C113.733,31.3 110.882,33.317 110.249,33.85 L110.199,33.9 C110.399,33.9 110.882,33.767 111.649,33.5 C112.382,33.233 112.982,33.1 113.449,33.1 C114.515,33.1 115.199,33.35 115.499,33.85 C115.632,34.05 115.699,34.35 115.699,34.75 C115.699,35.05 114.632,36.633 112.499,39.5 C110.332,42.4 109.249,43.933 109.249,44.1 C109.249,44.166 109.499,44.283 109.999,44.45 C110.266,44.65 110.466,44.883 110.599,45.15 C110.999,45.084 111.199,45.45 111.199,46.25 C111.199,46.717 110.282,49.083 108.449,53.35 C108.116,54.15 107.799,54.9 107.499,55.6 L107.549,55.6 C107.483,55.666 107.432,55.733 107.399,55.8 C107.342,55.885 107.301,55.985 107.274,56.1 C110.424,54.437 111.999,54.704 111.999,56.9 C111.999,58.2 111.732,59.967 111.199,62.2 C110.732,64.133 110.249,65.733 109.749,67 L109.749,67.25 C109.782,67.25 110.099,67.15 110.699,66.95 C111.399,66.717 111.999,66.6 112.499,66.6 C114.066,66.6 114.882,67.733 114.949,70 C114.982,71.133 114.749,72.967 114.249,75.5 L114.049,75.75 C114.549,75.75 115.549,75.317 117.049,74.45 C118.016,73.883 118.733,73.5 119.199,73.3 C119.032,72.867 118.866,72.45 118.699,72.05 C118.332,71.25 117.899,70.533 117.399,69.9 C115.732,67.867 114.849,64.5 114.749,59.8 C114.916,59.367 115.099,58.867 115.299,58.3 C116.066,55.667 116.583,53.984 116.849,53.25 C116.982,52.85 117.199,52.383 117.499,51.85 C117.532,51.85 117.582,51.867 117.649,51.9 L117.649,51.85 C118.549,50.416 119.866,49.2 121.599,48.2 C122.799,47.333 124.366,46.467 126.299,45.6 C126.266,45.633 126.233,45.666 126.199,45.7 C127.799,45.067 129.532,44.683 131.399,44.55 C135.732,44.217 139.333,45.383 142.199,48.05 C143.366,49.15 144.316,50.433 145.049,51.9 C145.716,51.1 146.782,50.084 148.249,48.85 C150.816,46.683 152.216,45.6 152.449,45.6 C153.449,45.6 154.232,46.383 154.799,47.95 C155.099,48.75 155.333,49.65 155.499,50.65 C156.299,50.417 157.382,49.25 158.749,47.15 C159.982,45.283 160.966,44.433 161.699,44.6 C163.232,45 164.299,45.967 164.899,47.5 C165.232,48.333 165.683,49.633 166.249,51.4 C166.516,51.267 167.582,50.334 169.449,48.6 C170.916,47.267 172.166,46.6 173.199,46.6 C173.899,46.6 174.932,47.333 176.299,48.8 C177.799,50.433 178.683,51.3 178.949,51.4 C179.115,51.133 179.466,50.317 179.999,48.95 C180.666,47.717 181.565,47.1 182.699,47.1 C183.832,47.1 185.216,48.45 186.848,51.15 C187.782,49.084 189.081,47.267 190.748,45.7 C194.081,42.6 198.148,41.1 202.948,41.2 C204.481,41.233 205.948,41.433 207.347,41.8 C207.681,41.633 208.198,41.683 208.898,41.95 C209.464,42.183 210.131,42.55 210.898,43.05 C211.097,43.183 211.297,43.317 211.498,43.45 C211.831,43.583 212.348,43.967 213.048,44.6 L215.798,47 C216.265,47.367 216.815,47.967 217.448,48.8 C217.448,48.767 217.465,48.75 217.498,48.75 C217.598,48.917 217.715,49.083 217.848,49.25 C219.015,50.75 220.048,52.5 220.949,54.5 C221.015,54.733 221.216,55.567 221.549,57 C221.582,57.567 221.633,58.25 221.699,59.05 C221.633,60.617 221.416,63.05 221.049,66.35 C220.483,68.083 219.966,69.333 219.499,70.1 C218.099,72.267 217.133,73.783 216.599,74.65 L216.749,74.6 C218.016,74.9 219.216,75.317 220.349,75.85 C220.582,75.283 220.65,74.317 220.549,72.95 C220.416,71.35 220.416,70.2 220.549,69.5 C221.049,66.7 223.566,64.983 228.099,64.35 C226.033,59.783 224.999,56.783 224.999,55.35 C224.999,53.317 225.433,52.416 226.299,52.65 C226.332,52.65 226.365,52.667 226.4,52.7 C226.366,52.633 226.349,52.583 226.349,52.55 C226.916,52.717 227.566,53 228.299,53.4 C228.9,53.7 229.516,54.067 230.15,54.5 C230.15,54.467 230.167,54.433 230.2,54.4 C229.9,53.233 229.566,52.084 229.2,50.95 C227.533,46.016 226.7,43.183 226.7,42.45 C226.7,41.717 226.783,41.233 226.95,41 Z M230.75,44.85 C231.316,46.783 231.816,48.5 232.25,50 C232.417,51.067 232.65,52.55 232.95,54.45 C233.016,55.05 233.099,55.65 233.2,56.25 C233.333,56.517 233.417,56.95 233.45,57.55 C233.583,58.05 233.65,58.517 233.65,58.95 L233.65,59.4 C233.549,59.633 233.316,59.75 232.95,59.75 C232.116,59.75 231.083,59.317 229.849,58.45 C229.383,58.15 229.016,57.883 228.749,57.65 C228.716,57.584 228.683,57.55 228.649,57.55 C228.882,58.25 229.499,59.484 230.499,61.25 C231.832,63.583 232.499,65.033 232.499,65.6 C232.499,67.533 229.832,68.117 224.499,67.35 C224.499,68.817 224.416,70.717 224.249,73.05 C224.082,75.383 223.999,76.984 223.999,77.85 C223.999,78.517 223.916,79.017 223.749,79.35 C223.482,79.85 222.982,80.1 222.249,80.1 C221.449,80.1 220.032,79.5 217.999,78.3 C216.933,77.667 216.149,77.15 215.649,76.75 C215.615,76.983 215.598,77.2 215.598,77.4 L215.598,77.7 L215.598,78.05 C215.532,78.75 215.365,79.883 215.098,81.45 C214.632,84.083 214.248,86.583 213.949,88.95 C213.949,89.05 213.515,91.666 212.649,96.8 C212.482,97.9 212.348,99.017 212.249,100.15 C212.216,100.117 212.183,100.1 212.149,100.1 C211.515,104.4 211.132,107.416 210.999,109.15 C210.766,112.317 209.999,118.067 208.699,126.4 C208.532,127.267 208.065,128.65 207.299,130.55 C206.332,132.917 205.733,134.433 205.499,135.1 C205.399,135.433 205.332,135.983 205.299,136.75 C205.066,137.483 204.349,138.083 203.15,138.55 C200.183,139.717 193.7,140.383 183.7,140.55 L183.7,140.85 C183.7,143.95 183.483,147.767 183.05,152.3 C182.85,154.433 182.684,156.3 182.55,157.9 C182.85,157.967 183.217,158.117 183.651,158.35 C183.85,158.65 184.168,158.983 184.6,159.35 C185.067,159.717 185.717,160.217 186.55,160.85 C186.917,161.217 187.25,161.55 187.55,161.85 C188.317,162.65 189.083,163.517 189.85,164.45 C189.951,164.45 190.05,164.467 190.151,164.5 C194.918,165.633 197.701,166.25 198.501,166.35 C200.801,166.683 205.451,167.317 212.451,168.25 C218.517,169.117 222.117,169.9 223.251,170.6 C225.885,172.1 228.385,174.15 230.751,176.75 C232.951,179.15 234.401,181.283 235.101,183.15 C236.068,185.75 237.702,189.933 240.001,195.7 C240.334,196.566 240.635,197.4 240.901,198.2 C242.334,202.266 243.284,205.75 243.751,208.65 C244.851,215.683 246.101,224.25 247.501,234.349 C247.734,236.049 247.968,237.666 248.201,239.2 C248.168,239.766 248.184,240.384 248.251,241.05 C248.317,241.217 248.401,241.401 248.501,241.6 C248.501,242.467 248.668,243.767 249.001,245.5 C249.301,247.066 249.718,249.767 250.251,253.6 C250.551,255.467 250.834,258.117 251.101,261.55 C251.368,265.55 251.584,268.2 251.751,269.5 C252.36,275.086 252.96,279.619 253.551,283.1 C254.963,280.099 256.546,276.732 258.301,273 C262.601,264.467 265.718,259.033 267.652,256.7 C267.285,256.033 267.018,255.316 266.851,254.55 C266.685,253.55 266.601,253.033 266.601,253 C266.601,251.267 267.418,250.167 269.051,249.7 C268.918,249.099 268.818,248.467 268.751,247.8 C268.651,247 268.601,245.317 268.601,242.75 C268.601,239.816 268.985,237.634 269.751,236.2 C269.418,235.9 269.084,235.566 268.751,235.2 C267.651,233.967 267.101,233.15 267.101,232.75 C267.101,229.783 267.751,227.767 269.051,226.7 C266.751,225.167 265.601,224.2 265.601,223.8 C265.601,222.8 266.601,220.95 268.601,218.25 C269.001,217.717 269.351,217.3 269.652,217 C268.885,216.533 268.101,216.066 267.301,215.6 C263.867,213.6 262.051,212.55 261.851,212.451 C259.018,210.584 257.601,207.784 257.601,204.051 L257.601,203.652 C257.568,203.652 257.535,203.669 257.501,203.702 C257.168,203.868 256.617,203.952 255.851,203.952 C253.618,203.952 252.001,202.952 251.001,200.952 C250.401,198.919 250.101,197.851 250.101,197.752 C250.101,189.219 253.351,183.402 259.851,180.302 C262.251,179.135 264.485,178.702 266.551,179.002 C268.284,179.235 269.284,179.885 269.551,180.952 C272.185,180.052 275.117,181.135 278.351,184.202 C279.285,184.669 280.218,185.136 281.152,185.601 C281.585,179.035 286.818,178.568 296.851,184.202 C302.118,187.169 307.368,190.902 312.601,195.402 C312.601,196.335 312.068,197.518 311.001,198.952 C310.067,200.185 309.385,200.851 308.951,200.952 C314.718,204.618 317.6,207.185 317.6,208.652 C317.6,210.419 315.267,215.252 310.6,223.152 C305.6,231.685 301.85,235.952 299.35,235.952 C297.417,235.952 294.5,234.735 290.6,232.302 C290.3,232.736 289.884,233.202 289.35,233.702 C288.083,234.868 286.75,235.452 285.35,235.452 C284.017,235.452 282.617,235.052 281.151,234.252 C281.117,234.252 281.084,234.235 281.05,234.202 C280.783,234.636 280.467,235.118 280.1,235.652 C279.467,236.551 278.934,237.235 278.5,237.702 C278.9,238.402 279.1,239.101 279.1,239.802 L279.1,240.002 C280.434,239.735 282.434,239.636 285.1,239.702 C285.1,239.535 287.1,239.452 291.1,239.452 C291.367,239.719 291.717,240.035 292.151,240.402 L292.251,240.502 C292.851,240.469 293.635,240.452 294.601,240.452 C297.435,240.452 299.101,241.035 299.601,242.202 C299.902,242.835 299.902,243.702 299.601,244.802 C299.601,245.469 299.468,246.186 299.202,246.952 C298.768,248.219 298.068,249.052 297.101,249.452 L291.351,249.452 C290.785,250.785 290.035,251.452 289.101,251.452 C288.834,251.452 287.385,251.318 284.751,251.052 C283.284,250.886 281.918,250.769 280.651,250.702 C282.284,252.568 283.1,254.419 283.1,256.252 C283.1,258.318 282.6,259.719 281.6,260.452 L280.4,260.452 C281.667,260.985 284.599,265.068 289.2,272.702 C293.634,280.101 298.733,289.285 304.5,300.252 C304.678,300.547 304.986,301.03 305.425,301.702 L318.651,301.702 C318.651,301.735 318.668,301.752 318.701,301.752 C319.401,302.152 319.85,302.568 320.051,303.002 L320.051,303.952 C319.918,304.219 319.668,304.469 319.301,304.702 L307.376,304.702 C309.746,308.328 313.504,314.012 318.651,321.752 C326.617,334.152 330.6,341.485 330.6,343.752 C330.6,344.719 330.151,345.602 329.25,346.402 C328.05,347.468 326.333,348.002 324.1,348.002 C322.467,348.002 318.3,342.969 311.6,332.902 C305.367,323.468 300.701,315.551 297.6,309.152 C297.018,307.959 296.251,306.475 295.3,304.702 L279.425,304.702 C279.404,305.976 279.379,307.243 279.35,308.502 C279.184,315.769 279.1,325.852 279.1,338.752 C279.1,339.085 279.184,341.652 279.35,346.452 C279.05,351.219 277.634,354.068 275.1,355.002 L265.6,355.002 C264.833,354.636 264.367,354.118 264.201,353.452 C264.135,353.219 264.1,352.652 264.1,351.752 C264.1,344.985 265.034,330.019 266.901,306.852 C266.96,306.126 267.018,305.41 267.076,304.703 L256,304.703 C255.967,304.67 255.934,304.637 255.9,304.602 L253.95,304.602 C253.344,305.619 252.726,306.652 252.099,307.703 C241.433,325.569 232.249,340.336 224.549,352.003 C223.816,351.803 223.349,351.47 223.15,351.003 C223.083,350.836 223.049,350.47 223.049,349.903 C223.049,348.102 226.233,340.436 232.599,326.903 C237.813,316.178 241.405,308.745 243.374,304.602 L181.6,304.602 C181.401,306.036 181.184,307.502 180.951,309.002 C181.251,309.035 181.584,309.136 181.951,309.302 L205.551,311.852 C209.818,312.619 212.485,313.569 213.551,314.703 C214.018,315.203 214.185,316.137 214.051,317.503 C213.584,322.437 207.251,329.736 195.051,339.403 C191.218,342.403 186.435,345.903 180.701,349.903 C174.501,354.369 171.135,356.802 170.6,357.203 L170.55,357.153 C170.184,357.552 169.783,357.953 169.35,358.352 C166.083,361.453 156.55,363.369 140.75,364.102 C125.05,364.769 107.033,364.136 86.7,362.203 C57.633,359.403 39.133,354.903 31.2,348.703 C28.533,346.536 26.867,344.003 26.2,341.102 C25.933,338.036 25.6,335.903 25.2,334.703 C23.867,330.736 22.9,325.97 22.3,320.403 C21.734,314.003 21.25,309.186 20.85,305.953 C20.783,305.519 20.733,305.069 20.7,304.602 L2.85,304.602 C1.25,304.036 0.45,303.519 0.45,303.052 C0.45,302.686 0.9,302.153 1.8,301.452 L20.35,301.452 C19.55,294.252 18.666,285.636 17.7,275.601 C16.233,259.834 15.583,250.968 15.75,249.001 C16.05,245.867 21.367,244.051 31.7,243.551 C41.233,243.084 59.7,243.518 87.1,244.851 C88.1,241.051 88.95,237.818 89.65,235.152 C88.55,232.785 88,231.402 88,231.002 C88,230.535 88.017,230.285 88.05,230.252 C88.117,230.186 88.183,230.068 88.25,229.902 C89.083,229.968 89.9,230.335 90.7,231.002 C91.3,228.568 91.7,226.952 91.9,226.152 C93.667,218.652 94.983,213.002 95.85,209.202 C96.817,205.136 97.75,201.469 98.65,198.202 C99.183,196.101 99.717,194.169 100.25,192.402 C100.85,190.268 101.767,187.502 103,184.101 C104.833,178.934 105.833,176.101 106,175.601 C108.467,168.301 113.917,164.134 122.35,163.101 C123.75,162.901 127.2,162.718 132.7,162.551 C134.833,162.485 136.683,162.351 138.25,162.151 C139.317,161.118 141.683,159.668 145.35,157.801 C147.517,156.701 149.233,155.968 150.5,155.601 C150.333,154.534 150.217,153.384 150.15,152.151 C150.183,146.884 150.2,143.001 150.2,140.501 L150.25,139.701 C147.783,139.334 145.35,138.884 142.95,138.351 C141.083,137.951 138.9,137.618 136.4,137.351 C134.933,137.184 133.367,136.768 131.7,136.101 C129.533,135.201 127.617,133.734 125.95,131.701 C124.416,129.868 123.6,128.251 123.5,126.851 C123.333,124.751 122.95,121.634 122.35,117.501 C122.183,116.234 122.033,115.084 121.9,114.051 C121.733,112.151 121.633,110.934 121.6,110.401 L121.05,97.701 C120.85,92.034 120.667,87.751 120.5,84.851 L120.5,82.451 L120.1,78.651 C120.067,78.451 120.05,77.818 120.05,76.751 L120.05,76.651 C119.65,76.951 119.167,77.251 118.6,77.551 C116.633,78.585 114.767,79.101 113,79.101 C111.967,79.101 111.25,78.768 110.85,78.101 C110.617,77.734 110.5,77.351 110.5,76.951 C110.5,76.417 110.6,75.901 110.8,75.401 C110.867,75.168 110.95,74.884 111.05,74.551 C111.317,73.585 111.45,73.085 111.45,73.051 L111.45,71.201 C111.45,71.068 111.467,70.951 111.5,70.851 L111.5,70.251 C110.967,70.351 110.533,70.418 110.2,70.451 C109.567,70.551 109,70.601 108.5,70.601 L105.75,70.351 C105.583,70.184 105.5,69.684 105.5,68.851 C105.5,68.618 105.867,67.534 106.6,65.601 C107.367,63.568 107.833,62.051 108,61.051 C107.9,61.085 107.783,61.118 107.65,61.151 C107.15,61.284 106.084,61.501 104.45,61.801 L102.05,61.801 C101.65,61.534 101.45,61.301 101.45,61.101 C101.45,60.734 101.967,59.651 103,57.851 L103,57.5 C103.8,55.1 104.95,52.6 106.45,50 C107.117,48.833 107.75,47.867 108.35,47.1 L108.2,47.1 C106.766,47.1 105.933,46.767 105.7,46.1 L105.7,44.95 C105.7,44.083 106.2,42.883 107.2,41.35 C107.4,41.05 108.25,39.883 109.75,37.85 L110,37.6 C108.8,38.367 108,38.85 107.6,39.05 C106.967,39.417 106.416,39.6 105.95,39.6 C105.416,39.6 105.016,39.567 104.75,39.5 L104.45,39.35 C104.45,39.283 104.416,39.133 104.35,38.9 C104.25,38.7 104.2,38.35 104.2,37.85 C104.2,36.283 105.95,33.9 109.45,30.7 C112.183,28.166 115.117,25.883 118.25,23.85 C116.583,23.217 115.433,22.733 114.8,22.4 C113.734,21.9 113.2,21.25 113.2,20.45 C113.2,20.217 113.883,19.65 115.25,18.75 C116.883,17.683 118.75,16.717 120.85,15.85 C127.117,13.283 133.416,12.45 139.75,13.35 C138.983,12.25 138.2,11.367 137.4,10.7 C136.933,10.3 136.7,9.933 136.7,9.6 C136.7,6.433 139.967,5.533 146.5,6.9 C150.767,7.767 153.917,8.717 155.95,9.75 C156.683,8.183 159.2,6.517 163.5,4.75 C169.333,2.317 176.066,0.933 183.7,0.6 C184.433,0.733 184.9,1.05 185.099,1.55 C185.166,1.683 185.2,1.984 185.2,2.45 C185.2,3.217 185.016,3.85 184.65,4.35 C183.983,5.083 183.349,5.767 182.75,6.4 L182.5,6.85 C193,6.45 200.566,6.666 205.2,7.5 C207.967,8 209.8,8.783 210.7,9.85 C210.2,10.75 208.616,11.683 205.95,12.65 C202.217,13.983 200.217,14.717 199.95,14.85 C208.417,16.75 216.634,21.25 224.599,28.35 C231.999,34.95 235.7,40.317 235.7,44.45 C235.7,45.55 235.116,46.1 233.95,46.1 C233.516,46.1 233.016,45.933 232.45,45.6 C231.75,45.2 231.184,44.95 230.75,44.85 Z M217.7,61.35 C217.7,58.05 217.15,55.183 216.05,52.75 C215.217,51.517 214.283,50.133 213.25,48.6 C213.217,48.533 213.167,48.467 213.1,48.4 C210.367,45.7 206.984,44.383 202.951,44.45 C199.017,44.516 195.635,45.867 192.801,48.5 C189.735,51.4 188.201,55.15 188.201,59.75 C188.201,62.35 189.051,64.9 190.751,67.4 L190.751,67.15 C190.751,64.25 191.918,61.917 194.251,60.15 C196.385,58.55 198.968,57.767 202.001,57.8 C205.067,57.8 207.651,58.667 209.751,60.4 C212.084,62.334 213.251,65 213.251,68.4 C213.251,69.367 213.201,70.133 213.101,70.7 C214.235,69.867 215.185,68.833 215.952,67.6 C217.15,65.667 217.733,63.583 217.7,61.35 Z M307.1,199.2 C307.1,198.9 307.384,198.349 307.951,197.55 C308.484,196.75 308.751,196.2 308.751,195.901 C295.918,187.6 288.501,183.451 286.501,183.451 C286.435,183.451 285.968,184.135 285.101,185.501 C284.702,186.135 284.318,186.651 283.952,187.051 C293.851,192.152 301.585,196.402 307.152,199.801 C307.116,199.634 307.1,199.434 307.1,199.2 Z M314.6,208.5 C314.6,207.5 309.734,204.366 300,199.1 C296.467,197.167 289.3,193.434 278.5,187.901 C278.066,187.668 276.7,186.717 274.4,185.05 C272.799,183.884 271.583,183.333 270.75,183.401 C269.583,184.001 268.366,185.117 267.1,186.751 C266.067,188.084 265.284,189.301 264.75,190.401 C263.283,193.334 262.267,195.668 261.7,197.401 C260.967,199.701 260.599,202.117 260.599,204.651 C260.599,207.317 262.4,209.767 265.999,212.001 C268.133,213.334 271.832,215.468 277.099,218.401 C277.866,218.934 281.299,221.517 287.4,226.151 C293.533,230.517 297.583,232.701 299.549,232.701 C301.549,232.701 304.666,228.701 308.9,220.701 C311,216.667 312.9,212.6 314.6,208.5 Z M296.6,244.15 L292.5,244 C292.434,244.866 292.333,245.7 292.2,246.5 C293.2,246.366 294.5,246.267 296.099,246.2 C296.099,245.933 296.183,245.566 296.349,245.099 C296.517,244.634 296.6,244.316 296.6,244.15 Z M284.4,202 C285.533,202.8 286.099,203.934 286.099,205.4 C286.099,210.099 284.849,212.45 282.349,212.45 C279.116,212.45 276.966,211.766 275.9,210.4 C275.366,209.733 275.099,208.833 275.099,207.7 C275.099,203.866 276.933,201.717 280.599,201.25 C282.066,201.05 283.333,201.3 284.4,202 Z M279.1,204.2 C279.1,204.266 278.951,204.849 278.651,205.95 C278.484,206.616 278.3,207.183 278.1,207.65 C278.333,207.75 278.734,207.95 279.3,208.25 C279.967,208.517 280.734,208.75 281.6,208.95 C281.901,208.616 282.167,207.983 282.401,207.05 C282.634,206.25 282.751,205.616 282.751,205.151 C282.751,204.617 282.418,204.3 281.751,204.201 C281.717,204.2 280.833,204.2 279.1,204.2 Z M265.6,182.85 C264.667,182.416 263.984,182.2 263.55,182.2 C260.517,182.2 257.884,184.683 255.651,189.65 C253.951,193.316 253.1,195.917 253.1,197.45 C253.1,198.583 253.934,199.55 255.6,200.349 C256.6,200.849 257.3,201.316 257.701,201.749 C257.867,199.849 258.218,198.032 258.751,196.299 C259.551,193.733 260.918,190.849 262.851,187.65 C263.985,185.75 265.118,184.25 266.251,183.15 C266.05,183.05 265.833,182.95 265.6,182.85 Z M262.6,200.75 C262.6,197.75 264.434,195.4 268.1,193.7 C269.6,193 270.867,192.766 271.901,193 C273.034,193.3 273.6,194.116 273.6,195.45 C273.6,197.349 273.451,198.849 273.151,199.95 C272.384,202.616 270.867,203.95 268.6,203.95 C266.234,203.95 264.534,203.45 263.5,202.45 C262.9,201.884 262.6,201.316 262.6,200.75 Z M269.75,196.2 C268.083,196.233 267.083,196.717 266.75,197.65 C266.65,198.783 266.434,199.549 266.1,199.95 L266.1,200.4 L266.901,200.549 C267.334,200.65 267.8,200.699 268.3,200.699 C269.134,200.699 269.567,200.598 269.6,200.399 C269.6,200.332 269.667,200.149 269.8,199.848 C269.934,199.548 270,199.149 270,198.649 C270,198.282 269.95,197.882 269.85,197.449 C269.75,197.182 269.75,196.916 269.85,196.649 L269.75,196.2 Z M270.6,220.7 C269.934,222.033 269.6,222.766 269.6,222.9 C269.6,223.466 270.817,224.433 273.25,225.799 C273.65,225.865 274.1,225.966 274.6,226.099 C276.434,226.599 278.151,227.483 279.75,228.749 C280.717,229.516 281.384,230.199 281.75,230.799 C282.116,230.933 282.483,231.115 282.85,231.349 C283.817,231.916 284.717,232.2 285.55,232.2 C285.583,232.2 286.267,231.583 287.6,230.349 C286.901,229.849 286.184,229.332 285.451,228.799 C279.151,223.832 275.701,221.115 275.1,220.65 C274,219.816 272.833,219 271.6,218.2 L271.6,218.4 C271.6,218.6 271.267,219.366 270.6,220.7 Z M233.75,187.65 C232.017,182.65 229.017,178.549 224.75,175.35 C221.283,172.75 214.7,170.7 205,169.2 C202.066,168.733 197.8,168.25 192.2,167.75 C192.033,168.75 190.967,169.683 189,170.55 C187.434,171.217 184.833,171.984 181.2,172.85 C181.733,173.65 183.25,175.333 185.75,177.9 C187.05,179.233 187.7,180.8 187.7,182.6 C187.7,184.833 183.384,186.25 174.75,186.85 C174.684,186.951 174.583,187.017 174.45,187.05 C174.217,187.116 173.733,187.151 173,187.151 C174.066,190.35 174.6,192.367 174.6,193.201 C174.6,193.635 174.517,195.301 174.35,198.201 C174.184,200.968 173.934,204.85 173.6,209.85 C173.6,214.217 173.767,217.401 174.1,219.401 L174.1,240.85 L175.151,259.85 C177.55,261.25 179.501,262.75 181.001,264.35 C183.768,267.384 185.151,271.05 185.151,275.35 C185.151,277.85 184.751,281.401 183.951,286 C183.517,290.533 182.885,295.7 182.051,301.5 L221.851,301.5 C219.518,286.3 217.935,276.083 217.101,270.85 C216.402,266.25 215.301,257.1 213.801,243.401 C212.568,232.267 211.851,225.217 211.652,222.251 C213.318,225.351 214.635,227.935 215.601,230.001 C215.968,233.901 216.501,239.001 217.202,245.301 C218.636,258.568 219.601,266.768 220.101,269.902 C220.768,273.935 222.768,283.185 226.101,297.652 C226.402,298.985 226.702,300.268 227.001,301.502 L244.851,301.502 C245.37,300.444 247.585,295.77 251.501,287.477 C250.676,283.562 249.759,278.904 248.751,273.502 C248.418,271.868 247.851,267.118 247.051,259.252 C246.584,254.985 246.251,251.602 246.051,249.102 C245.784,247.436 245.501,245.619 245.201,243.653 C243.501,232.253 242.184,221.986 241.251,212.852 C240.885,209.619 239.851,205.419 238.151,200.252 C237.884,199.552 237.651,198.868 237.451,198.202 C235.75,193.434 234.517,189.917 233.75,187.65 Z M278.35,231.9 C276.684,231.266 274.6,230.45 272.1,229.45 C271.867,229.75 271.583,230.167 271.25,230.7 C270.816,231.4 270.6,231.9 270.6,232.2 C270.6,232.533 271.267,233.15 272.6,234.05 C272.667,234.083 272.734,234.134 272.8,234.2 C273.134,234.167 273.484,234.183 273.85,234.25 C274.684,234.384 275.467,234.733 276.201,235.3 C276.367,235.033 276.584,234.75 276.85,234.45 C277.75,233.45 278.25,232.6 278.35,231.9 Z M275.6,238.65 L271.6,238.45 L271.6,238.65 C271.6,243.583 271.75,247.216 272.05,249.549 C272.384,249.582 272.667,249.666 272.901,249.799 C274.201,249.4 275.1,248.199 275.6,246.199 C275.934,244.799 276.1,242.716 276.1,239.949 C276.1,239.416 276.05,239.082 275.951,238.949 C275.816,238.85 275.7,238.75 275.6,238.65 Z M283.85,247.7 L288.6,247.7 C288.6,247.3 288.767,246.8 289.1,246.2 L289.1,242.65 C287.867,242.683 286,242.816 283.5,243.049 C281.033,243.316 279.65,243.449 279.35,243.449 L279.1,243.449 L279.1,247.348 L279.1,247.548 C280.333,247.483 281.917,247.533 283.85,247.7 Z M276.6,252.95 L270.6,252.95 C270.367,253.016 270.117,253.083 269.85,253.15 C269.884,253.316 269.984,253.917 270.151,254.95 C270.251,255.783 270.401,256.433 270.6,256.9 C273.333,256.933 275.567,256.983 277.3,257.049 C278.934,257.15 279.866,257.199 280.1,257.199 L280.1,254.949 C280.067,254.848 279.55,254.149 278.55,252.848 C278.25,252.449 278,252.115 277.8,251.848 C277.467,252.316 277.066,252.684 276.6,252.95 Z M273.1,270.05 C273.201,270.583 273.201,271.151 273.1,271.75 C273.1,275.326 272.526,285.31 271.375,301.7 C271.305,302.677 271.229,303.677 271.15,304.7 C271.025,306.512 270.891,308.395 270.75,310.349 C269.116,332.549 267.9,346.4 267.1,351.9 L274.75,351.75 C275.884,348.116 276.366,343.366 276.2,337.5 C275.8,331 275.599,326.316 275.599,323.45 C276.09,315.817 276.399,309.567 276.525,304.7 C276.562,303.634 276.587,302.634 276.599,301.7 L276.599,300 C276.599,296.967 276.516,292.366 276.349,286.2 C276.183,280.533 276.099,277.483 276.099,277.05 C276.033,271.55 276.099,267.033 276.299,263.5 C276.365,262.366 276.449,261.434 276.549,260.7 C276.15,260.7 275.782,260.717 275.449,260.75 C275.549,261.017 275.598,261.35 275.598,261.75 C275.598,263.217 274.748,265.884 273.048,269.75 C273.05,269.85 273.066,269.95 273.1,270.05 Z M269.55,259 C267.984,262.8 263.283,272.55 255.45,288.25 C255.263,288.624 255.08,288.999 254.9,289.375 C254.162,290.844 253.445,292.277 252.75,293.675 C251.381,296.425 250.08,299.033 248.85,301.5 C248.324,302.56 247.806,303.593 247.3,304.6 C239.167,320.962 234.485,330.429 233.25,333 L233.35,333.15 C235.847,328.591 241.114,319.075 249.151,304.599 C249.712,303.59 250.287,302.557 250.876,301.499 C251.694,300.026 252.536,298.51 253.401,296.949 C253.96,295.949 254.526,294.931 255.1,293.899 C255.323,293.499 255.539,293.099 255.75,292.699 C266.117,274.074 272.101,263.391 273.7,260.649 C272.033,260.45 270.65,259.9 269.55,259 Z M279.1,262.95 C279.234,264.884 279.333,267.217 279.401,269.95 C281.434,271.816 284.35,276.333 288.151,283.5 C290.494,287.886 293.56,293.952 297.35,301.7 C297.819,302.674 298.302,303.674 298.8,304.7 C299.197,305.501 299.597,306.317 300,307.15 C302.967,313.049 307.667,320.9 314.1,330.7 C320.234,340.066 323.617,344.75 324.25,344.75 C324.783,344.75 325.316,344.65 325.85,344.45 C326.151,344.349 326.567,344.167 327.1,343.9 C325.22,340.015 317.478,326.948 303.875,304.7 C303.281,303.718 302.673,302.718 302.05,301.7 C301.523,300.846 300.989,299.979 300.45,299.099 C286.55,276.466 279.599,263.933 279.599,261.499 C279.599,260.933 279.7,260.582 279.9,260.449 L278.5,260.449 C278.7,261.15 278.9,261.983 279.1,262.95 Z M284.7,286.05 C282.599,282.45 280.884,279.484 279.55,277.151 C279.583,279.85 279.6,282.817 279.6,286.05 C279.6,291.386 279.559,296.603 279.475,301.7 L293.651,301.7 C291.392,297.61 288.408,292.394 284.7,286.05 Z M259,301.7 L267.325,301.7 C268.168,291.495 268.877,283.312 269.45,277.15 C266.478,282.865 262.454,290.074 257.375,298.775 C257.792,300.395 258,301.288 258,301.45 L258,301.5 L259,301.5 L259,301.7 Z M161.75,49.15 C160.883,50.283 160.1,51.283 159.4,52.15 C158.033,53.783 156.883,54.6 155.95,54.6 C154.383,54.6 153.367,54.033 152.9,52.9 C152.633,51.567 152.317,50.717 151.95,50.35 C151.75,50.416 150.8,51.25 149.1,52.85 C147.767,54.083 146.817,54.817 146.25,55.05 C146.817,57.05 147.1,59.317 147.1,61.85 C147.1,65.183 146.4,68.033 145,70.4 C142.367,74.867 137.567,77.1 130.6,77.1 C127.567,77.1 124.983,76.433 122.85,75.1 C122.95,76.133 123,77.383 123,78.85 L122.9,84.55 C122.933,85.05 122.95,85.584 122.95,86.15 C123.05,88.317 123.166,91.517 123.3,95.75 C123.433,99.45 123.65,102.65 123.95,105.35 C124.35,109.383 125.1,115.733 126.2,124.4 C126.333,125.533 127.083,127.1 128.45,129.1 C129.883,131.166 131.133,132.433 132.2,132.9 C134.8,133.967 138.383,134.783 142.95,135.35 C151.583,136.45 160.516,137.05 169.75,137.15 C173.55,137.217 176.733,137.217 179.3,137.15 C179.366,137.183 179.434,137.2 179.5,137.2 L181.5,137.25 C181.634,137.283 181.767,137.317 181.9,137.35 C188.933,137.317 193.433,137.183 195.4,136.95 C199.133,136.55 201.616,135.467 202.849,133.7 C203.883,132.233 204.716,129.133 205.349,124.4 C206.483,115.867 207.433,109.683 208.2,105.85 C208.033,103.883 208.45,101.05 209.45,97.35 C210.483,93.65 210.9,90.833 210.7,88.9 C210.733,88.767 210.95,86.084 211.349,80.85 C211.483,79.383 211.7,78.033 211.999,76.8 L211.999,76.7 C211.933,76 211.883,75.433 211.849,75 C209.349,76.067 206.383,76.6 202.95,76.6 C195.816,76.6 190.733,73.933 187.7,68.6 C186.033,65.666 185.2,62.7 185.2,59.7 C185.2,57.7 185.417,55.833 185.849,54.1 C185.016,54.067 184.383,53.717 183.95,53.05 C183.217,51.984 182.8,51.417 182.7,51.35 C182.634,51.383 182.3,52.183 181.7,53.75 C181.233,54.983 180.4,55.6 179.2,55.6 C177.933,55.6 176.65,54.817 175.349,53.25 C174.15,51.517 173.366,50.483 172.999,50.15 C170.532,53.45 168.349,55.1 166.449,55.1 C165.015,55.1 163.866,54.217 162.999,52.45 C162.333,50.517 161.917,49.417 161.75,49.15 Z M142.6,68.1 C143.6,66.3 144.1,64.166 144.1,61.7 C144.1,56.733 142.783,52.983 140.15,50.45 C137.817,48.25 134.9,47.283 131.4,47.55 C128.033,47.783 125.117,49.033 122.65,51.3 C120.017,53.734 118.7,56.667 118.7,60.1 C118.7,62.9 119.3,65.483 120.5,67.85 C120.667,68.183 120.85,68.5 121.05,68.8 C121.017,68.6 121,68.417 121,68.25 C121,65.317 122,62.95 124,61.15 C125.833,59.517 128.05,58.683 130.65,58.65 C133.25,58.617 135.45,59.417 137.25,61.05 C139.25,62.95 140.25,65.55 140.25,68.85 C140.25,69.65 140.133,70.45 139.9,71.25 C141,70.417 141.9,69.367 142.6,68.1 Z M167.45,80.9 C169.65,80.9 171.316,80.35 172.45,79.25 C173.55,78.15 174.467,77.6 175.2,77.6 C176.033,77.6 176.55,77.683 176.75,77.85 C176.75,77.883 176.833,77.967 177,78.1 C177.134,78.267 177.2,78.6 177.2,79.1 C177.2,80.2 176.05,81.3 173.75,82.4 C171.384,83.533 168.866,84.1 166.2,84.1 C164.533,84.1 163.033,83.267 161.7,81.6 C160.7,80.333 160.2,79.45 160.2,78.95 C160.2,78.483 160.217,78.233 160.25,78.2 C160.317,78.133 160.383,78.016 160.45,77.85 C161.416,77.883 162.433,78.4 163.5,79.4 C164.533,80.4 165.85,80.9 167.45,80.9 Z M203.75,70.1 C203.95,69.8 204.083,69.517 204.15,69.25 C203.417,68.517 202.683,67.983 201.95,67.65 C200.483,67.017 199.75,67.65 199.75,69.55 C199.75,69.95 199.983,70.3 200.45,70.6 C200.917,70.867 201.533,71 202.3,71 C202.866,71 203.35,70.7 203.75,70.1 Z M102.95,61.05 L103,61.05 L103,61 C102.967,61 102.95,61.017 102.95,61.05 Z M129.25,68.2 C128.883,68.467 128.65,68.783 128.55,69.15 C128.517,69.25 128.5,69.483 128.5,69.85 C128.5,70.317 128.667,70.733 129,71.1 C129.4,71.533 130,71.75 130.8,71.75 C131.734,71.75 132.383,71.483 132.75,70.95 C132.917,70.683 133,70.4 133,70.1 C133,69.8 132.833,69.533 132.5,69.3 C131.967,68.933 131.55,68.584 131.25,68.25 L129.25,68.2 Z M108.4,178.35 C106.233,182.883 104.317,188.483 102.65,195.15 C102.417,196.183 102.183,197.2 101.95,198.2 C98.117,214.099 95.683,224.483 94.65,229.349 C94.283,231.049 93.883,232.9 93.45,234.9 C94.483,236.933 95,238.349 95,239.15 C95,239.983 94.933,240.299 94.8,240.099 L94.55,240.4 C94.35,240.599 94,240.7 93.5,240.7 C93.167,240.7 92.767,240.433 92.3,239.9 C91.933,241.533 91.533,243.25 91.1,245.049 C93.8,245.183 96.567,245.316 99.4,245.449 L99.4,245.399 L118,247.199 C118.2,243.666 118.35,240.149 118.45,236.649 C118.383,236.315 118.333,235.982 118.3,235.649 C118.2,234.749 118.15,233.098 118.15,230.699 C118.15,223.699 118.25,219.199 118.45,217.199 C118.95,211.832 120.217,208.383 122.25,206.848 C122.25,206.882 122.317,206.965 122.45,207.098 C122.583,207.265 122.65,207.598 122.65,208.098 C122.65,210.098 122.233,215.015 121.4,222.848 C121.467,222.649 121.55,222.465 121.65,222.298 C121.683,225.399 121.834,229.581 122.1,234.848 C122.1,237.982 121.9,242.199 121.5,247.498 C137.9,249.031 151.1,251.265 161.1,254.198 L161.1,225.1 L160.6,223.6 L160.6,187.6 C160.467,187.434 160.383,187.284 160.35,187.151 L160.3,187.151 C160.167,187.117 160.033,187.1 159.9,187.1 L158.7,187.1 C158.2,187 157.75,186.901 157.35,186.8 C155.45,186.533 154.067,186.333 153.2,186.2 C152.7,186.134 152.25,186.05 151.85,185.95 C147.583,185.683 144.367,185.066 142.2,184.099 C140.533,183.332 139.7,182.583 139.7,181.849 C139.7,180.716 140.717,178.232 142.75,174.399 C144.083,171.966 145.117,170.149 145.85,168.949 C145.883,168.915 145.933,168.899 146,168.899 C144.267,168.499 142.517,167.649 140.75,166.349 C139.483,165.449 138.6,164.716 138.1,164.149 C132.4,165.249 129.5,165.816 129.4,165.849 C123.167,167.216 118.6,168.016 115.7,168.249 C115.266,168.282 115.016,168.349 114.95,168.449 C114.683,168.949 114.416,169.349 114.15,169.649 C111.95,172.117 110.033,175.017 108.4,178.35 Z M193.35,101.5 C195.517,104.667 196.6,106.817 196.6,107.95 C196.6,108.883 196.567,109.7 196.5,110.4 L196.2,110.75 C195.967,110.983 195.599,111.1 195.099,111.1 C193.966,111.1 193.383,110.533 193.349,109.4 C193.549,108.133 193.599,107.367 193.499,107.1 L193.249,106.65 C189.916,109.683 186.449,112.317 182.849,114.55 C175.95,118.917 168.616,121.1 160.849,121.1 C155.649,121.1 151.949,120.517 149.749,119.35 C148.316,118.617 147.599,117.733 147.599,116.7 C147.599,116.166 147.632,115.833 147.699,115.7 L147.749,115.6 L148.049,115.35 C148.249,115.183 148.599,115.1 149.099,115.1 C149.599,115.1 150.016,115.25 150.349,115.55 C150.949,116.084 151.332,116.4 151.499,116.5 C153.032,117.4 156.149,117.85 160.849,117.85 C167.749,117.85 174.716,115.65 181.749,111.25 C185.315,109.017 188.482,106.567 191.249,103.9 C190.883,103.433 190.633,103.067 190.499,102.8 C190.232,102.367 190.099,101.883 190.099,101.35 C190.1,98.25 191.184,98.3 193.35,101.5 Z M154.2,149.1 C154.2,151.6 154.367,155.383 154.7,160.45 L154.7,160.65 C156.2,162.483 157.8,164.867 159.5,167.8 C161.2,170.734 163.6,175.1 166.7,180.9 C167.533,179.967 170.183,175.683 174.65,168.05 C176.483,164.917 178,162.517 179.2,160.85 L179.2,158.85 C179.2,157.85 179.283,156.033 179.45,153.4 C179.683,150.1 179.933,147.5 180.2,145.6 C180.467,143.8 180.884,142.133 181.45,140.6 L180.75,140.6 L180.75,140.35 C180.017,140.45 179.233,140.533 178.4,140.6 L177.799,140.6 C177.872,140.601 177.972,140.618 178.099,140.65 C175.766,140.817 172.966,140.917 169.7,140.95 C163.967,141.016 158.333,140.717 152.8,140.05 C153.567,140.65 154.017,141.667 154.15,143.1 C154.283,144.533 154.3,146.533 154.2,149.1 Z M148.6,160.35 C145.166,161.817 143,162.75 142.1,163.15 C142.666,163.717 144.166,164.367 146.6,165.1 C146.833,165.166 147.05,165.233 147.25,165.3 C147.55,165.267 148.05,165.4 148.75,165.7 C149.95,166.2 150.55,166.65 150.55,167.05 C150.55,167.084 150.533,167.167 150.5,167.3 C150.1,168.167 149.117,169.984 147.55,172.75 C145.183,176.85 143.734,179.567 143.2,180.9 C147.633,181.433 154.05,181.834 162.45,182.1 C162.85,182.1 163.233,182.117 163.6,182.15 C162.067,179.95 160.1,176.567 157.7,172 C156.533,169.8 155.533,167.883 154.7,166.25 C152.067,162.65 150.683,160.317 150.55,159.25 C149.983,159.617 149.333,159.983 148.6,160.35 Z M187.7,166.9 C187.099,166.367 185.983,165.383 184.349,163.95 C184.216,163.817 184.082,163.7 183.95,163.6 C183.349,162.867 183,162.5 182.9,162.5 C182.566,162.5 182.116,162.983 181.549,163.95 C181.416,164.183 181.299,164.383 181.199,164.55 C181.166,164.55 181.133,164.567 181.098,164.6 C179.798,166.7 178.015,169.483 175.748,172.95 C172.415,177.983 169.998,181.467 168.498,183.4 C169.064,183.333 169.632,183.283 170.198,183.25 C170.231,183.283 170.298,183.3 170.398,183.3 C170.597,183.3 170.915,183.25 171.347,183.151 L171.398,183.151 C176.631,182.717 180.898,182.284 184.198,181.851 C183.531,180.184 182.264,178.534 180.398,176.901 C178.931,175.634 178.198,174.284 178.198,172.851 C178.198,171.818 178.514,171.184 179.148,170.951 C182.714,169.718 185.731,168.534 188.198,167.401 C188.097,167.368 187.998,167.351 187.898,167.351 C187.898,167.284 187.864,167.201 187.797,167.101 C187.767,167.067 187.733,167 187.7,166.9 Z M22.3,248.15 C20.3,249.116 19.183,250.783 18.95,253.15 C18.75,255.283 19.416,263.933 20.95,279.099 C21.916,288.566 22.717,296.016 23.35,301.45 C23.483,302.583 23.6,303.634 23.7,304.599 C23.833,305.566 23.95,306.45 24.05,307.249 C24.45,310.016 24.834,314.482 25.2,320.649 C25.733,326.249 26.8,330.815 28.4,334.348 C28.633,334.848 29.167,337.199 30,341.399 C30.5,344.132 31.867,346.298 34.1,347.899 C40.433,352.532 58.083,356.249 87.05,359.048 C110.85,361.315 129.283,362.182 142.35,361.649 C156.617,361.048 165.316,358.749 168.45,354.749 C170.283,352.349 171.616,348.732 172.45,343.899 C173.783,336.098 174.467,332.115 174.5,331.949 C175.033,327.049 176.1,319.348 177.7,308.848 C177.933,307.382 178.167,305.965 178.4,304.598 C178.533,303.532 178.683,302.498 178.849,301.498 C179.883,294.765 180.582,289.515 180.95,285.748 C181.217,282.781 181.316,279.415 181.25,275.648 C181.15,270.581 180.65,267.264 179.75,265.698 C179.05,264.498 177.55,263.331 175.25,262.198 C174.316,261.731 173.283,261.281 172.15,260.847 C169.917,260.014 167.233,259.214 164.1,258.448 C163.133,258.181 162.133,257.931 161.1,257.698 C160.967,257.665 160.817,257.632 160.65,257.597 C156.55,256.698 143.417,254.381 121.25,250.648 C120.983,250.581 120.717,250.531 120.45,250.498 L97.9,248.298 C95.334,248.198 92.834,248.114 90.4,248.048 C89,247.982 87.633,247.932 86.3,247.899 C54.3,246.798 36.783,246.315 33.75,246.449 C28.25,246.55 24.433,247.116 22.3,248.15 Z M169.9,187.05 L169.299,187.05 C169.266,187.05 169.233,187.067 169.199,187.1 L163.599,187.1 L163.599,222.651 C163.732,223.251 163.899,223.751 164.099,224.151 L164.099,255.1 C167.032,256.067 169.666,257.1 171.999,258.201 L171.099,241.6 L171.099,220.6 C170.766,218.3 170.599,214.767 170.599,210 C170.933,204.967 171.183,201.033 171.349,198.2 C171.516,195.134 171.599,193.384 171.599,192.95 C171.599,192.55 171.433,191.283 171.099,189.15 C170.966,188.316 170.866,187.633 170.799,187.099 C170.434,187.066 170.134,187.05 169.9,187.05 Z M85.5,240.65 C85.5,241.183 85.45,241.566 85.35,241.799 C85.217,242.032 85.1,242.216 85,242.349 C85.167,242.582 84.833,242.7 84,242.7 C83.433,242.7 82.6,241.5 81.5,239.099 C80.5,236.733 80,235.599 80,235.7 C80,233.366 80.917,233.233 82.75,235.3 C84.583,237.367 85.5,239.15 85.5,240.65 Z M110.25,236.3 C112.75,233.8 114,233.85 114,236.45 C114,236.783 113.083,237.917 111.25,239.849 C109.45,241.749 108.45,242.7 108.25,242.7 C107.717,242.7 107.317,242.667 107.05,242.599 L106.75,242.45 C106.75,242.417 106.717,242.349 106.65,242.25 C106.55,242.15 106.5,241.85 106.5,241.35 C106.5,240.483 107.75,238.8 110.25,236.3 Z M103,231.7 C103,232.599 102.667,234.316 102,236.849 C101.3,239.416 100.8,240.7 100.5,240.7 C99.667,240.7 99.167,240.033 99,238.7 L99,236.5 C99,234.434 99.067,233.1 99.2,232.5 C99.7,230.5 100.817,229.8 102.55,230.4 C102.55,230.5 102.633,230.616 102.8,230.75 C102.933,230.917 103,231.233 103,231.7 Z M94.9,288.95 C94.367,287.983 93.8,287.266 93.2,286.8 C95.666,283.734 97.583,283.833 98.95,287.1 C100.317,286.934 101.5,287.25 102.5,288.05 C103.8,289.083 104.533,290.717 104.7,292.95 C105.2,295.683 106.217,298.516 107.75,301.45 C107.75,301.483 107.767,301.516 107.8,301.55 C108.334,302.55 108.717,303.567 108.95,304.6 C109.25,305.833 109.333,307.1 109.2,308.401 C109,310.534 108.1,312.584 106.5,314.55 C104.133,317.484 100.867,318.75 96.7,318.35 C92.367,317.917 89.467,316.284 88,313.451 C87.233,311.918 86.933,310.168 87.1,308.201 C87.233,306.901 87.517,305.701 87.95,304.6 C88.35,303.6 88.867,302.684 89.5,301.85 C89.6,301.717 89.7,301.583 89.8,301.451 C90.967,299.751 91.667,297.718 91.9,295.35 C92.1,293.117 92.867,291.234 94.2,289.701 C94.433,289.4 94.667,289.15 94.9,288.95 Z M98.3,296.4 C97.9,296.366 97.267,295.066 96.4,292.5 C96.334,292.233 96.233,291.983 96.1,291.75 C95.5,292.483 95.217,293.366 95.25,294.4 C95.283,295.233 95.4,296.549 95.6,298.349 C95.567,298.516 94.967,299.549 93.8,301.45 C93.533,301.849 93.25,302.283 92.95,302.75 C92.516,303.417 92.133,304.033 91.8,304.6 C90.767,306.3 90.217,307.534 90.15,308.3 C90.017,309.434 90.2,310.583 90.7,311.75 C91.5,313.684 92.983,314.75 95.15,314.95 C99.25,315.349 102.317,314.384 104.35,312.05 C105.45,310.75 106.067,309.467 106.2,308.2 C106.333,306.833 106.233,305.634 105.9,304.599 C105.767,304.299 105.633,304.016 105.5,303.749 C105.3,303.349 104.717,302.582 103.75,301.449 C103.617,301.315 103.483,301.166 103.35,300.999 C101.383,298.766 100.85,295.649 101.75,291.649 C101.35,291.548 100.8,291.432 100.1,291.298 C100.233,292.198 100.367,293.182 100.5,294.248 C100.467,294.814 100.217,295.314 99.75,295.748 C99.283,296.217 98.8,296.434 98.3,296.4 Z M180.45,312.15 C179.616,317.516 178.384,324.966 176.75,334.5 C176.384,337 175.85,341.1 175.15,346.8 C174.95,347.833 174.716,348.783 174.45,349.651 C174.884,349.317 175.349,348.967 175.849,348.6 C176.283,348.234 180.983,344.8 189.95,338.3 C203.616,328.3 210.65,321.366 211.05,317.5 C211.05,317.333 210.866,317.184 210.5,317.05 C209.134,316.55 207.434,315.901 205.4,315.1 L181.4,312.55 C181.033,312.417 180.717,312.283 180.45,312.15 Z" id="Shape" fill="#000000" fill-rule="nonzero"></path>
            <path d="M217.7,61.35 C217.733,63.583 217.15,65.666 215.95,67.6 C215.183,68.833 214.233,69.867 213.099,70.7 C213.2,70.133 213.249,69.367 213.249,68.4 C213.249,65 212.082,62.334 209.749,60.4 C207.649,58.667 205.065,57.8 201.999,57.8 C198.966,57.767 196.383,58.55 194.249,60.15 C191.916,61.917 190.749,64.25 190.749,67.15 L190.749,67.4 C189.049,64.9 188.199,62.35 188.199,59.75 C188.199,55.15 189.732,51.4 192.799,48.5 C195.633,45.867 199.016,44.517 202.949,44.45 C206.982,44.383 210.365,45.7 213.098,48.4 C213.165,48.467 213.215,48.533 213.248,48.6 C214.281,50.133 215.215,51.517 216.048,52.75 C217.15,55.183 217.7,58.05 217.7,61.35 Z M142.6,68.1 C141.9,69.367 141,70.416 139.9,71.25 C140.133,70.45 140.25,69.65 140.25,68.85 C140.25,65.55 139.25,62.95 137.25,61.05 C135.45,59.417 133.25,58.617 130.65,58.65 C128.05,58.683 125.834,59.517 124,61.15 C122,62.95 121,65.317 121,68.25 C121,68.417 121.017,68.6 121.05,68.8 C120.85,68.5 120.667,68.183 120.5,67.85 C119.3,65.483 118.7,62.9 118.7,60.1 C118.7,56.666 120.016,53.733 122.65,51.3 C125.117,49.033 128.033,47.783 131.4,47.55 C134.9,47.283 137.817,48.25 140.15,50.45 C142.783,52.983 144.1,56.733 144.1,61.7 C144.1,64.167 143.6,66.3 142.6,68.1 Z M203.75,70.1 C203.35,70.7 202.866,71 202.3,71 C201.533,71 200.917,70.867 200.45,70.6 C199.983,70.3 199.75,69.95 199.75,69.55 C199.75,67.65 200.483,67.017 201.95,67.65 C202.683,67.983 203.417,68.517 204.15,69.25 C204.083,69.517 203.95,69.8 203.75,70.1 Z M129.25,68.2 L131.25,68.25 C131.55,68.583 131.967,68.933 132.5,69.3 C132.833,69.533 133,69.8 133,70.1 C133,70.4 132.917,70.683 132.75,70.95 C132.383,71.483 131.733,71.75 130.8,71.75 C130,71.75 129.4,71.533 129,71.1 C128.667,70.733 128.5,70.317 128.5,69.85 C128.5,69.483 128.517,69.25 128.55,69.15 C128.65,68.783 128.883,68.467 129.25,68.2 Z" id="Shape" fill="#FFFFFF"></path>
            <path d="M233.75,187.65 C234.517,189.917 235.75,193.433 237.45,198.2 C237.65,198.866 237.884,199.55 238.15,200.25 C239.849,205.417 240.883,209.616 241.25,212.85 C242.184,221.984 243.5,232.25 245.2,243.651 C245.5,245.617 245.783,247.434 246.05,249.1 C246.25,251.6 246.583,254.984 247.05,259.25 C247.85,267.116 248.417,271.866 248.75,273.5 C249.758,278.901 250.675,283.56 251.5,287.475 C247.584,295.768 245.368,300.443 244.85,301.5 L227,301.5 C226.7,300.267 226.4,298.983 226.1,297.65 C222.767,283.183 220.767,273.933 220.1,269.9 C219.6,266.766 218.634,258.566 217.201,245.299 C216.501,238.999 215.968,233.9 215.6,229.999 C214.634,227.933 213.317,225.349 211.651,222.249 C211.85,225.216 212.567,232.266 213.8,243.399 C215.3,257.098 216.401,266.249 217.1,270.848 C217.934,276.081 219.517,286.298 221.85,301.498 L182.05,301.498 C182.884,295.698 183.517,290.531 183.95,285.998 C184.75,281.398 185.15,277.848 185.15,275.348 C185.15,271.048 183.766,267.382 181,264.348 C179.5,262.748 177.55,261.248 175.15,259.848 L174.099,240.848 L174.099,219.4 C173.766,217.4 173.599,214.216 173.599,209.849 C173.933,204.849 174.183,200.966 174.349,198.2 C174.516,195.3 174.599,193.634 174.599,193.2 C174.599,192.366 174.066,190.349 172.999,187.15 C173.732,187.15 174.216,187.116 174.449,187.049 C174.582,187.016 174.682,186.949 174.749,186.849 C183.383,186.249 187.699,184.832 187.699,182.599 C187.699,180.799 187.049,179.232 185.749,177.899 C183.249,175.333 181.732,173.649 181.199,172.849 C184.832,171.982 187.432,171.216 188.999,170.549 C190.966,169.682 192.032,168.749 192.199,167.749 C197.799,168.249 202.065,168.732 204.999,169.199 C214.699,170.699 221.282,172.749 224.749,175.349 C229.017,178.55 232.017,182.65 233.75,187.65 Z M108.4,178.35 C110.033,175.017 111.95,172.117 114.15,169.65 C114.417,169.35 114.683,168.95 114.95,168.45 C115.016,168.35 115.266,168.283 115.7,168.25 C118.6,168.017 123.166,167.217 129.4,165.85 C129.5,165.817 132.4,165.25 138.1,164.15 C138.6,164.717 139.483,165.45 140.75,166.35 C142.517,167.65 144.267,168.5 146,168.9 C145.933,168.9 145.883,168.917 145.85,168.95 C145.117,170.15 144.083,171.967 142.75,174.4 C140.717,178.233 139.7,180.717 139.7,181.85 C139.7,182.583 140.533,183.333 142.2,184.1 C144.367,185.067 147.583,185.684 151.85,185.951 C152.25,186.051 152.7,186.135 153.2,186.201 C154.067,186.334 155.45,186.534 157.35,186.801 C157.75,186.902 158.2,187.001 158.7,187.101 L159.9,187.101 C160.033,187.101 160.167,187.118 160.3,187.152 L160.35,187.152 C160.383,187.285 160.467,187.435 160.6,187.601 L160.6,223.601 L161.1,225.101 L161.1,254.2 C151.1,251.266 137.9,249.033 121.5,247.5 C121.9,242.2 122.1,237.983 122.1,234.85 C121.833,229.583 121.683,225.401 121.65,222.3 C121.55,222.467 121.467,222.651 121.4,222.85 C122.233,215.017 122.65,210.1 122.65,208.1 C122.65,207.6 122.584,207.267 122.45,207.1 C122.317,206.967 122.25,206.884 122.25,206.85 C120.217,208.384 118.95,211.833 118.45,217.201 C118.25,219.201 118.15,223.701 118.15,230.701 C118.15,233.1 118.2,234.751 118.3,235.651 C118.334,235.984 118.383,236.317 118.45,236.651 C118.35,240.151 118.2,243.668 118,247.201 L99.4,245.401 L99.4,245.451 C96.567,245.317 93.8,245.184 91.1,245.051 C91.533,243.251 91.933,241.534 92.3,239.902 C92.767,240.435 93.167,240.702 93.5,240.702 C94,240.702 94.35,240.601 94.55,240.402 L94.8,240.101 C94.933,240.301 95,239.985 95,239.152 C95,238.351 94.483,236.935 93.45,234.902 C93.883,232.902 94.283,231.051 94.65,229.351 C95.683,224.485 98.117,214.101 101.95,198.202 C102.183,197.202 102.416,196.185 102.65,195.152 C104.317,188.483 106.233,182.883 108.4,178.35 Z M103,231.7 C103,231.233 102.933,230.917 102.8,230.75 C102.633,230.616 102.55,230.5 102.55,230.4 C100.817,229.799 99.7,230.5 99.2,232.5 C99.067,233.1 99,234.434 99,236.5 L99,238.7 C99.167,240.033 99.667,240.7 100.5,240.7 C100.8,240.7 101.3,239.417 102,236.849 C102.667,234.316 103,232.6 103,231.7 Z M110.25,236.3 C107.75,238.8 106.5,240.484 106.5,241.35 C106.5,241.85 106.55,242.151 106.65,242.25 C106.717,242.35 106.75,242.417 106.75,242.45 L107.05,242.599 C107.317,242.666 107.717,242.7 108.25,242.7 C108.45,242.7 109.45,241.75 111.25,239.849 C113.083,237.916 114,236.783 114,236.45 C114,233.85 112.75,233.8 110.25,236.3 Z" id="Shape" fill="#199F66"></path>
            <path d="M161.75,49.15 C161.917,49.417 162.333,50.517 163,52.45 C163.867,54.217 165.017,55.1 166.45,55.1 C168.349,55.1 170.533,53.45 173,50.15 C173.366,50.483 174.15,51.517 175.35,53.25 C176.651,54.817 177.934,55.6 179.201,55.6 C180.401,55.6 181.234,54.983 181.701,53.75 C182.301,52.183 182.635,51.383 182.701,51.35 C182.801,51.416 183.218,51.983 183.951,53.05 C184.385,53.717 185.017,54.067 185.85,54.1 C185.417,55.833 185.201,57.7 185.201,59.7 C185.201,62.7 186.034,65.666 187.701,68.6 C190.734,73.933 195.817,76.6 202.951,76.6 C206.385,76.6 209.35,76.067 211.85,75 C211.884,75.433 211.934,76 212,76.7 L212,76.8 C211.7,78.033 211.483,79.383 211.35,80.85 C210.951,86.083 210.734,88.767 210.701,88.9 C210.901,90.834 210.484,93.65 209.451,97.35 C208.451,101.05 208.034,103.883 208.201,105.85 C207.434,109.683 206.484,115.867 205.35,124.4 C204.717,129.133 203.884,132.233 202.85,133.7 C201.617,135.467 199.134,136.55 195.401,136.95 C193.434,137.183 188.934,137.317 181.901,137.35 C181.767,137.317 181.634,137.283 181.501,137.25 L179.501,137.2 C179.435,137.2 179.367,137.183 179.301,137.15 C176.735,137.217 173.551,137.217 169.751,137.15 C160.518,137.05 151.584,136.45 142.951,135.35 C138.384,134.783 134.801,133.967 132.201,132.9 C131.134,132.433 129.884,131.167 128.451,129.1 C127.084,127.1 126.334,125.533 126.201,124.4 C125.101,115.733 124.351,109.383 123.951,105.35 C123.651,102.65 123.434,99.45 123.301,95.75 C123.168,91.517 123.051,88.317 122.951,86.15 C122.951,85.584 122.934,85.05 122.901,84.55 L123.001,78.85 C123.001,77.383 122.951,76.133 122.851,75.1 C124.984,76.433 127.568,77.1 130.601,77.1 C137.568,77.1 142.368,74.867 145.001,70.4 C146.401,68.033 147.101,65.183 147.101,61.85 C147.101,59.317 146.818,57.05 146.251,55.05 C146.818,54.817 147.768,54.084 149.101,52.85 C150.801,51.25 151.751,50.416 151.951,50.35 C152.318,50.717 152.634,51.567 152.901,52.9 C153.368,54.033 154.384,54.6 155.951,54.6 C156.884,54.6 158.034,53.783 159.401,52.15 C160.1,51.283 160.883,50.283 161.75,49.15 Z M167.45,80.9 C165.849,80.9 164.533,80.4 163.5,79.4 C162.433,78.4 161.417,77.883 160.45,77.85 C160.383,78.017 160.317,78.133 160.25,78.2 C160.217,78.233 160.2,78.483 160.2,78.95 C160.2,79.45 160.7,80.333 161.7,81.6 C163.033,83.267 164.533,84.1 166.2,84.1 C168.866,84.1 171.384,83.533 173.75,82.4 C176.05,81.3 177.2,80.2 177.2,79.1 C177.2,78.6 177.134,78.267 177,78.1 C176.833,77.967 176.75,77.883 176.75,77.85 C176.55,77.683 176.033,77.6 175.2,77.6 C174.467,77.6 173.55,78.15 172.45,79.25 C171.316,80.35 169.65,80.9 167.45,80.9 Z M129.1,91.35 C129.1,91.817 129.15,92.317 129.25,92.85 C129.417,93.95 129.75,94.95 130.25,95.85 C131.717,98.683 134.333,100.1 138.1,100.1 C144.433,100.1 147.6,97.05 147.6,90.95 C147.6,88.75 146.633,86.883 144.7,85.35 C142.933,83.916 140.817,83.117 138.35,82.95 C135.817,82.783 133.7,83.35 132,84.65 C130.067,86.183 129.1,88.417 129.1,91.35 Z M206.1,88.95 C206.1,87.317 205.317,85.967 203.75,84.9 C202.316,83.933 200.6,83.45 198.6,83.45 C196.534,83.45 194.817,84 193.451,85.1 C191.885,86.367 191.1,88.15 191.1,90.45 C191.1,90.516 191.267,91.733 191.6,94.1 C192.634,96.433 194.884,97.6 198.35,97.6 C201.484,97.6 203.684,96.433 204.951,94.1 C205.717,92.7 206.1,90.983 206.1,88.95 Z M154.2,149.1 C154.3,146.533 154.283,144.533 154.15,143.1 C154.017,141.666 153.567,140.65 152.8,140.05 C158.334,140.717 163.967,141.017 169.7,140.95 C172.967,140.916 175.766,140.817 178.099,140.65 C177.972,140.618 177.872,140.602 177.799,140.6 L178.4,140.6 C179.233,140.533 180.016,140.45 180.75,140.35 L180.75,140.6 L181.45,140.6 C180.884,142.133 180.467,143.8 180.2,145.6 C179.933,147.5 179.683,150.1 179.45,153.4 C179.283,156.033 179.2,157.85 179.2,158.85 L179.2,160.85 C178,162.517 176.483,164.916 174.65,168.05 C170.183,175.683 167.533,179.967 166.7,180.9 C163.6,175.1 161.2,170.733 159.5,167.8 C157.8,164.867 156.2,162.484 154.7,160.65 L154.7,160.45 C154.367,155.383 154.2,151.6 154.2,149.1 Z M193.35,101.5 C191.184,98.3 190.1,98.25 190.1,101.35 C190.1,101.883 190.234,102.367 190.5,102.8 C190.634,103.067 190.884,103.433 191.25,103.9 C188.483,106.567 185.316,109.017 181.75,111.25 C174.717,115.65 167.75,117.85 160.85,117.85 C156.15,117.85 153.033,117.4 151.5,116.5 C151.333,116.4 150.95,116.083 150.35,115.55 C150.017,115.25 149.6,115.1 149.1,115.1 C148.6,115.1 148.25,115.183 148.05,115.35 L147.75,115.6 L147.7,115.7 C147.633,115.833 147.6,116.166 147.6,116.7 C147.6,117.733 148.317,118.617 149.75,119.35 C151.95,120.517 155.65,121.1 160.85,121.1 C168.616,121.1 175.95,118.916 182.85,114.55 C186.451,112.317 189.917,109.683 193.25,106.65 L193.5,107.1 C193.6,107.367 193.55,108.133 193.35,109.4 C193.384,110.533 193.967,111.1 195.1,111.1 C195.6,111.1 195.967,110.983 196.201,110.75 L196.501,110.4 C196.567,109.7 196.601,108.883 196.601,107.95 C196.6,106.817 195.517,104.667 193.35,101.5 Z" id="Shape" fill="#FFD9AF"></path>
            <path d="M129.1,91.35 C129.1,88.416 130.067,86.183 132,84.65 C133.7,83.35 135.817,82.783 138.35,82.95 C140.817,83.117 142.933,83.916 144.7,85.35 C146.633,86.883 147.6,88.75 147.6,90.95 C147.6,97.05 144.433,100.1 138.1,100.1 C134.333,100.1 131.717,98.683 130.25,95.85 C129.75,94.95 129.417,93.95 129.25,92.85 C129.15,92.317 129.1,91.817 129.1,91.35 Z M206.1,88.95 C206.1,90.983 205.717,92.7 204.951,94.1 C203.684,96.433 201.484,97.6 198.35,97.6 C194.884,97.6 192.634,96.433 191.6,94.1 C191.267,91.733 191.1,90.517 191.1,90.45 C191.1,88.15 191.884,86.367 193.451,85.1 C194.817,84 196.534,83.45 198.6,83.45 C200.6,83.45 202.317,83.933 203.75,84.9 C205.316,85.967 206.1,87.317 206.1,88.95 Z" id="Shape" fill="#FFA78A"></path>
            <path d="M187.7,166.9 C187.733,167 187.766,167.067 187.8,167.1 C187.866,167.2 187.901,167.283 187.901,167.35 C188.001,167.35 188.1,167.367 188.201,167.4 C185.734,168.533 182.718,169.717 179.151,170.95 C178.517,171.183 178.201,171.817 178.201,172.85 C178.201,174.283 178.934,175.633 180.401,176.9 C182.267,178.533 183.534,180.183 184.201,181.85 C180.901,182.283 176.635,182.717 171.401,183.15 L171.35,183.15 C170.917,183.25 170.6,183.299 170.401,183.299 C170.3,183.299 170.234,183.282 170.201,183.249 C169.635,183.282 169.067,183.332 168.501,183.399 C170.001,181.465 172.418,177.982 175.751,172.949 C178.018,169.482 179.801,166.699 181.101,164.599 C181.135,164.566 181.168,164.549 181.202,164.549 C181.302,164.382 181.419,164.182 181.552,163.949 C182.118,162.982 182.569,162.499 182.903,162.499 C183.003,162.499 183.352,162.866 183.953,163.599 C184.086,163.699 184.22,163.816 184.352,163.949 C185.983,165.383 187.1,166.367 187.7,166.9 Z M148.6,160.35 C149.333,159.983 149.983,159.617 150.55,159.25 C150.683,160.317 152.067,162.65 154.7,166.25 C155.533,167.883 156.533,169.8 157.7,172 C160.1,176.567 162.067,179.95 163.6,182.15 C163.233,182.117 162.85,182.1 162.45,182.1 C154.05,181.833 147.633,181.433 143.2,180.9 C143.733,179.567 145.183,176.85 147.55,172.75 C149.117,169.983 150.1,168.167 150.5,167.3 C150.533,167.167 150.55,167.084 150.55,167.05 C150.55,166.65 149.95,166.2 148.75,165.7 C148.05,165.4 147.55,165.266 147.25,165.3 C147.05,165.234 146.833,165.167 146.6,165.1 C144.166,164.367 142.666,163.717 142.1,163.15 C143,162.75 145.167,161.817 148.6,160.35 Z M169.9,187.05 C170.133,187.05 170.433,187.067 170.799,187.1 C170.865,187.634 170.966,188.317 171.099,189.151 C171.433,191.284 171.599,192.55 171.599,192.951 C171.599,193.385 171.516,195.135 171.349,198.201 C171.183,201.034 170.933,204.968 170.599,210.001 C170.599,214.768 170.766,218.301 171.099,220.601 L171.099,241.601 L172,258.2 C169.667,257.099 167.033,256.066 164.1,255.099 L164.1,224.15 C163.9,223.75 163.733,223.25 163.6,222.65 L163.6,187.1 L169.2,187.1 C169.233,187.067 169.266,187.05 169.3,187.05 C169.5,187.05 169.7,187.05 169.9,187.05 Z" id="Shape" fill="#097A4A"></path>
            <path d="M22.3,248.15 C24.433,247.116 28.25,246.549 33.75,246.45 C36.783,246.316 54.3,246.8 86.3,247.9 C87.633,247.933 89,247.983 90.4,248.049 C92.834,248.115 95.334,248.199 97.9,248.299 L120.45,250.499 C120.717,250.532 120.983,250.582 121.25,250.649 C143.417,254.382 156.55,256.699 160.65,257.598 C160.817,257.632 160.967,257.665 161.1,257.699 C162.133,257.932 163.133,258.182 164.1,258.449 C167.233,259.216 169.917,260.015 172.15,260.848 C173.283,261.282 174.316,261.732 175.25,262.199 C177.55,263.332 179.05,264.499 179.75,265.699 C180.65,267.265 181.15,270.582 181.25,275.649 C181.316,279.416 181.217,282.782 180.95,285.749 C180.583,289.516 179.884,294.766 178.849,301.499 C178.683,302.499 178.533,303.532 178.4,304.599 C178.167,305.966 177.933,307.383 177.7,308.849 C176.099,319.349 175.033,327.049 174.5,331.95 C174.467,332.116 173.783,336.099 172.45,343.9 C171.616,348.733 170.283,352.349 168.45,354.75 C165.316,358.75 156.617,361.05 142.35,361.65 C129.283,362.183 110.85,361.316 87.05,359.049 C58.084,356.249 40.433,352.532 34.1,347.9 C31.867,346.299 30.5,344.133 30,341.4 C29.167,337.2 28.633,334.849 28.4,334.349 C26.8,330.816 25.733,326.249 25.2,320.65 C24.833,314.483 24.45,310.016 24.05,307.25 C23.95,306.45 23.834,305.566 23.7,304.6 C23.6,303.634 23.483,302.583 23.35,301.451 C22.717,296.017 21.916,288.567 20.95,279.1 C19.416,263.934 18.75,255.284 18.95,253.151 C19.183,250.783 20.3,249.116 22.3,248.15 Z M94.9,288.95 C94.667,289.15 94.433,289.4 94.2,289.7 C92.867,291.233 92.1,293.116 91.9,295.349 C91.667,297.716 90.967,299.749 89.8,301.45 C89.7,301.583 89.6,301.717 89.5,301.849 C88.867,302.683 88.35,303.599 87.95,304.599 C87.516,305.7 87.233,306.9 87.1,308.2 C86.933,310.167 87.233,311.917 88,313.45 C89.467,316.283 92.367,317.917 96.7,318.349 C100.867,318.749 104.133,317.483 106.5,314.549 C108.1,312.582 109,310.532 109.2,308.4 C109.333,307.099 109.25,305.833 108.95,304.599 C108.717,303.566 108.333,302.549 107.8,301.549 C107.767,301.516 107.75,301.483 107.75,301.449 C106.217,298.515 105.2,295.682 104.7,292.949 C104.533,290.716 103.8,289.082 102.5,288.049 C101.5,287.249 100.317,286.933 98.95,287.099 C97.583,283.832 95.666,283.733 93.2,286.799 C93.8,287.267 94.367,287.983 94.9,288.95 Z" id="Shape" fill="#BDBDBD"></path>
            <path d="M98.3,296.4 C98.8,296.433 99.283,296.216 99.75,295.75 C100.217,295.316 100.467,294.816 100.5,294.25 C100.367,293.184 100.233,292.2 100.1,291.3 C100.8,291.434 101.35,291.55 101.75,291.651 C100.85,295.651 101.383,298.767 103.35,301.001 C103.483,301.168 103.617,301.317 103.75,301.451 C104.717,302.584 105.3,303.35 105.5,303.751 C105.633,304.018 105.767,304.301 105.9,304.601 C106.233,305.635 106.334,306.834 106.2,308.202 C106.067,309.469 105.45,310.752 104.35,312.052 C102.317,314.386 99.25,315.352 95.15,314.952 C92.983,314.752 91.5,313.685 90.7,311.752 C90.2,310.585 90.016,309.436 90.15,308.302 C90.217,307.535 90.767,306.302 91.8,304.602 C92.133,304.036 92.517,303.419 92.95,302.752 C93.25,302.285 93.533,301.852 93.8,301.452 C94.967,299.552 95.567,298.518 95.6,298.351 C95.4,296.551 95.283,295.235 95.25,294.402 C95.217,293.368 95.5,292.485 96.1,291.752 C96.233,291.985 96.333,292.235 96.4,292.502 C97.267,295.066 97.9,296.366 98.3,296.4 Z" id="Shape" fill="#DBDBDB"></path>
            <path d="M180.45,312.15 C180.717,312.283 181.033,312.417 181.4,312.549 L205.4,315.099 C207.433,315.9 209.133,316.549 210.5,317.049 C210.866,317.183 211.05,317.332 211.05,317.499 C210.651,321.365 203.616,328.299 189.95,338.299 C180.983,344.799 176.283,348.233 175.849,348.599 C175.349,348.966 174.883,349.316 174.45,349.65 C174.717,348.783 174.95,347.833 175.15,346.799 C175.849,341.099 176.383,336.999 176.75,334.499 C178.384,324.967 179.616,317.517 180.45,312.15 Z" id="Shape" fill="#7E7E7E"></path>
            <path d="M307.1,199.2 C307.1,199.433 307.117,199.634 307.151,199.8 C301.584,196.401 293.85,192.151 283.951,187.05 C284.317,186.651 284.701,186.134 285.1,185.5 C285.967,184.134 286.434,183.45 286.5,183.45 C288.5,183.45 295.917,187.599 308.75,195.9 C308.75,196.2 308.483,196.75 307.95,197.549 C307.384,198.35 307.1,198.9 307.1,199.2 Z M265.6,182.85 C265.833,182.95 266.05,183.05 266.25,183.15 C265.116,184.25 263.983,185.75 262.85,187.65 C260.917,190.849 259.55,193.733 258.75,196.299 C258.217,198.032 257.866,199.849 257.7,201.749 C257.3,201.315 256.599,200.849 255.599,200.349 C253.933,199.549 253.099,198.582 253.099,197.45 C253.099,195.917 253.95,193.316 255.65,189.65 C257.883,184.683 260.516,182.2 263.549,182.2 C263.983,182.2 264.667,182.417 265.6,182.85 Z M279.1,204.2 L281.75,204.2 C282.417,204.3 282.75,204.616 282.75,205.15 C282.75,205.616 282.634,206.25 282.4,207.049 C282.167,207.983 281.9,208.615 281.599,208.949 C280.733,208.749 279.966,208.515 279.299,208.249 C278.733,207.949 278.332,207.749 278.099,207.649 C278.299,207.182 278.483,206.615 278.65,205.949 C278.95,204.85 279.1,204.267 279.1,204.2 Z M270.6,220.7 C271.267,219.366 271.6,218.599 271.6,218.4 L271.6,218.2 C272.833,219 274,219.816 275.1,220.65 C275.701,221.116 279.151,223.833 285.451,228.799 C286.184,229.332 286.901,229.849 287.6,230.349 C286.267,231.582 285.583,232.2 285.55,232.2 C284.717,232.2 283.817,231.917 282.85,231.349 C282.484,231.116 282.117,230.933 281.75,230.799 C281.384,230.199 280.717,229.516 279.75,228.749 C278.15,227.482 276.434,226.599 274.6,226.099 C274.1,225.966 273.651,225.866 273.25,225.799 C270.816,224.433 269.6,223.466 269.6,222.9 C269.6,222.767 269.934,222.033 270.6,220.7 Z M269.75,196.2 L269.85,196.65 C269.75,196.917 269.75,197.183 269.85,197.45 C269.951,197.884 270,198.283 270,198.65 C270,199.15 269.934,199.549 269.8,199.849 C269.667,200.15 269.6,200.332 269.6,200.4 C269.567,200.599 269.134,200.7 268.3,200.7 C267.8,200.7 267.333,200.65 266.901,200.55 L266.1,200.4 L266.1,199.95 C266.434,199.55 266.651,198.783 266.75,197.65 C267.083,196.717 268.083,196.233 269.75,196.2 Z M276.6,252.95 C277.067,252.683 277.467,252.316 277.8,251.849 C278,252.116 278.25,252.45 278.55,252.849 C279.55,254.15 280.067,254.849 280.1,254.95 L280.1,257.2 C279.867,257.2 278.934,257.15 277.3,257.05 C275.567,256.984 273.333,256.934 270.6,256.901 C270.401,256.434 270.25,255.784 270.151,254.951 C269.984,253.918 269.884,253.317 269.85,253.151 C270.117,253.084 270.367,253.017 270.6,252.951 L276.6,252.951 L276.6,252.95 Z" id="Shape" fill="#7D7D7D"></path>
            <path d="M284.4,202 C283.333,201.3 282.066,201.05 280.599,201.25 C276.933,201.717 275.099,203.866 275.099,207.7 C275.099,208.833 275.366,209.733 275.9,210.4 C276.966,211.766 279.116,212.45 282.349,212.45 C284.849,212.45 286.099,210.099 286.099,205.4 C286.1,203.934 285.533,202.8 284.4,202 Z M296.6,244.15 C296.6,244.316 296.517,244.633 296.35,245.099 C296.184,245.566 296.1,245.933 296.1,246.2 C294.5,246.266 293.201,246.366 292.201,246.5 C292.334,245.7 292.434,244.866 292.501,244 L296.6,244.15 Z M314.6,208.5 C312.901,212.6 311,216.667 308.901,220.7 C304.668,228.7 301.55,232.7 299.55,232.7 C297.583,232.7 293.533,230.516 287.401,226.15 C281.3,221.516 277.867,218.933 277.1,218.4 C271.833,215.466 268.134,213.333 266,212 C262.4,209.767 260.6,207.316 260.6,204.65 C260.6,202.116 260.967,199.7 261.701,197.4 C262.267,195.667 263.284,193.333 264.751,190.4 C265.284,189.299 266.067,188.083 267.101,186.75 C268.368,185.116 269.584,184 270.751,183.4 C271.584,183.333 272.801,183.883 274.401,185.049 C276.701,186.716 278.067,187.666 278.501,187.9 C289.301,193.433 296.468,197.167 300.001,199.099 C309.733,204.366 314.6,207.5 314.6,208.5 Z M262.6,200.75 C262.6,201.316 262.901,201.884 263.5,202.45 C264.533,203.45 266.233,203.95 268.6,203.95 C270.867,203.95 272.384,202.616 273.151,199.95 C273.451,198.849 273.6,197.349 273.6,195.45 C273.6,194.116 273.034,193.3 271.901,193 C270.867,192.767 269.6,193 268.1,193.7 C264.434,195.4 262.6,197.75 262.6,200.75 Z M283.85,247.7 C281.917,247.533 280.333,247.483 279.1,247.55 L279.1,247.35 L279.1,243.451 L279.35,243.451 C279.651,243.451 281.034,243.317 283.5,243.051 C286,242.818 287.866,242.685 289.1,242.652 L289.1,246.202 C288.767,246.802 288.6,247.302 288.6,247.702 L283.85,247.702 L283.85,247.7 Z M275.6,238.65 C275.701,238.75 275.817,238.849 275.951,238.95 C276.051,239.083 276.1,239.417 276.1,239.95 C276.1,242.717 275.934,244.8 275.6,246.2 C275.1,248.2 274.201,249.4 272.901,249.8 C272.668,249.667 272.384,249.583 272.05,249.55 C271.75,247.217 271.6,243.583 271.6,238.651 L271.6,238.451 L275.6,238.65 Z M278.35,231.9 C278.25,232.599 277.75,233.45 276.85,234.45 C276.583,234.75 276.367,235.033 276.201,235.3 C275.468,234.734 274.684,234.384 273.85,234.25 C273.484,234.184 273.134,234.167 272.8,234.2 C272.734,234.134 272.667,234.083 272.6,234.05 C271.267,233.151 270.6,232.533 270.6,232.2 C270.6,231.9 270.817,231.4 271.25,230.7 C271.583,230.167 271.866,229.75 272.1,229.45 C274.6,230.45 276.684,231.267 278.35,231.9 Z M279.1,262.95 C278.901,261.983 278.701,261.15 278.5,260.45 L279.9,260.45 C279.7,260.583 279.599,260.933 279.599,261.5 C279.599,263.934 286.549,276.467 300.45,299.1 C300.989,299.98 301.522,300.846 302.05,301.701 C302.673,302.719 303.281,303.719 303.875,304.701 C317.478,326.949 325.22,340.016 327.1,343.901 C326.567,344.168 326.151,344.35 325.85,344.451 C325.317,344.651 324.784,344.751 324.25,344.751 C323.616,344.751 320.233,340.067 314.1,330.701 C307.667,320.901 302.967,313.051 300,307.151 C299.597,306.318 299.197,305.502 298.8,304.701 C298.302,303.675 297.819,302.675 297.35,301.701 C293.56,293.953 290.494,287.887 288.151,283.501 C284.35,276.334 281.434,271.817 279.401,269.951 C279.333,267.217 279.233,264.884 279.1,262.95 Z M269.55,259 C270.651,259.9 272.033,260.45 273.7,260.65 C272.1,263.392 266.117,274.075 255.75,292.7 C255.539,293.1 255.322,293.5 255.1,293.9 C254.526,294.932 253.959,295.95 253.401,296.95 C252.536,298.511 251.694,300.027 250.876,301.5 C250.287,302.558 249.712,303.591 249.151,304.6 C241.114,319.076 235.847,328.592 233.35,333.151 L233.25,333.001 C234.484,330.43 239.167,320.963 247.3,304.601 C247.806,303.594 248.323,302.561 248.85,301.501 C250.08,299.034 251.381,296.426 252.75,293.676 C253.445,292.279 254.162,290.845 254.9,289.376 C255.08,289 255.263,288.625 255.45,288.251 C263.283,272.55 267.983,262.8 269.55,259 Z M273.1,270.05 C273.067,269.95 273.05,269.85 273.05,269.75 C274.75,265.884 275.6,263.217 275.6,261.75 C275.6,261.35 275.55,261.017 275.451,260.75 C275.784,260.717 276.151,260.7 276.551,260.7 C276.451,261.433 276.367,262.366 276.301,263.5 C276.101,267.033 276.034,271.55 276.101,277.05 C276.101,277.484 276.185,280.533 276.351,286.2 C276.518,292.366 276.601,296.967 276.601,300 L276.601,301.7 C276.589,302.634 276.564,303.634 276.527,304.7 C276.401,309.567 276.092,315.817 275.601,323.45 C275.601,326.316 275.801,331 276.202,337.5 C276.368,343.366 275.886,348.116 274.752,351.75 L267.102,351.9 C267.903,346.4 269.119,332.549 270.752,310.349 C270.894,308.395 271.027,306.511 271.152,304.7 C271.231,303.677 271.306,302.677 271.377,301.7 C272.527,285.309 273.102,275.326 273.102,271.75 C273.2,271.15 273.2,270.583 273.1,270.05 Z" id="Shape" fill="#BCBCBC"></path>
        </g>
    </g>
</svg>
