<?xml version="1.0" encoding="UTF-8"?>
<svg width="315px" height="403px" viewBox="0 0 315 403" version="1.1" xmlns="http://www.w3.org/2000/svg" xmlns:xlink="http://www.w3.org/1999/xlink">
    <!-- Generator: Sketch 43.2 (39069) - http://www.bohemiancoding.com/sketch -->
    <title>writing</title>
    <desc>Created with Sketch.</desc>
    <defs></defs>
    <g id="Page-1" stroke="none" stroke-width="1" fill="none" fill-rule="evenodd">
        <g id="writing">
            <path d="M68.25,208.55 L67.95,208.25 L68,206.95 C68.3,207.083 68.6,207.233 68.9,207.4 C68.667,207.767 68.45,208.15 68.25,208.55 Z M208.55,327.7 C208.583,327.9 208.984,330.183 209.75,334.55 C208.783,336.684 207.767,338.8 206.7,340.901 C205.9,342.467 205.15,343.934 204.45,345.3 C204.05,342.901 203.5,340.033 202.8,336.7 C201.6,330.766 200.884,327.167 200.651,325.9 C200.384,324.299 200.367,322.233 200.6,319.7 C200.867,316.833 200.967,314.95 200.901,314.05 C200.668,310.85 198.901,308.2 195.6,306.1 C195.767,304.267 195.817,303 195.75,302.3 C195.45,298.167 192.583,294.95 187.15,292.651 L142.65,292.651 C142.783,290.284 142.867,288.151 142.9,286.251 L152.95,286.101 L154,285.7 L198.05,285.849 C201.484,286.016 203.45,288.499 203.95,293.299 C204.25,296.032 204.417,300.383 204.45,306.349 C204.783,308.849 205.45,312.416 206.45,317.049 C207.517,322.017 208.217,325.566 208.55,327.7 Z M191.9,43.85 C195.933,43.783 199.316,45.1 202.049,47.8 C202.115,47.867 202.166,47.933 202.199,48 C203.232,49.533 204.166,50.917 204.999,52.15 C206.099,54.584 206.649,57.45 206.649,60.75 C206.682,62.983 206.098,65.067 204.899,67 C204.132,68.233 203.182,69.267 202.048,70.1 C202.149,69.533 202.198,68.767 202.198,67.8 C202.198,64.4 201.031,61.734 198.698,59.8 C196.597,58.067 194.014,57.2 190.948,57.2 C187.915,57.166 185.331,57.95 183.198,59.55 C180.864,61.317 179.698,63.65 179.698,66.55 L179.698,66.8 C177.998,64.3 177.148,61.75 177.148,59.15 C177.148,54.55 178.681,50.8 181.748,47.9 C184.583,45.267 187.967,43.917 191.9,43.85 Z M208.6,389.7 C208.734,390.8 208.8,391.533 208.8,391.9 C208.8,393.2 203.167,394.783 191.901,396.65 C181.767,398.316 174.951,399.15 171.451,399.15 C154.851,399.15 143.468,398.066 137.301,395.9 L120.101,395.65 C119.167,395.15 118.468,392.333 118.001,387.2 C117.901,386.2 117.818,385.116 117.751,383.95 C117.451,379.183 117.301,373 117.301,365.4 C117.301,350.7 117.401,340.683 117.601,335.349 C117.734,332.216 117.901,329.316 118.101,326.65 L118.951,326.65 C119.884,326.65 120.684,326.4 121.351,325.9 L123.501,327.9 C126.034,330 128.018,331.216 129.451,331.549 C129.517,332.349 129.734,333.483 130.101,334.949 C130.434,336.282 130.801,337.265 131.201,337.899 C131.134,338.065 131.068,338.182 131.001,338.249 C130.968,338.282 130.951,338.532 130.951,338.999 C130.951,339.299 131.417,340.183 132.351,341.649 C133.384,343.315 134.251,344.149 134.951,344.149 C135.951,344.149 136.834,343.315 137.601,341.649 C138.167,340.348 138.451,339.282 138.451,338.449 L138.451,337.749 C139.118,336.849 139.451,335.749 139.451,334.449 L139.451,332.649 C142.451,331.815 143.951,329.999 143.951,327.199 L143.951,326.999 L143.951,326.699 L143.951,326.649 C143.818,325.149 143.284,323.382 142.351,321.348 C143.118,320.682 144.151,318.998 145.451,316.298 C147.118,312.798 147.951,310.465 147.951,309.298 C147.951,308.732 147.834,308.132 147.601,307.498 L191.401,307.648 C191.767,307.681 192.134,307.731 192.501,307.797 C193.635,308.03 194.584,308.597 195.351,309.497 C196.385,310.73 197.035,312.597 197.301,315.097 C197.568,317.431 197.735,320.914 197.801,325.547 L197.801,328.148 C198.135,330.648 198.801,334.214 199.801,338.847 C200.501,342.08 201.051,344.714 201.451,346.747 C201.584,347.613 201.734,348.53 201.901,349.497 C201.901,349.53 201.918,349.58 201.951,349.647 C201.418,350.447 200.918,351.197 200.451,351.897 C200.451,352.096 201.184,352.747 202.651,353.846 L202.651,353.897 C199.151,354.73 196.767,355.513 195.501,356.247 C193.801,357.247 192.951,358.797 192.951,360.897 C192.951,361.63 192.984,362.247 193.051,362.747 C190.751,359.613 187.701,358.747 183.902,360.147 C181.468,361.247 179.652,362.08 178.452,362.647 C176.252,363.647 174.452,364.147 173.052,364.147 C172.452,364.147 171.719,363.813 170.852,363.147 C170.019,362.48 169.136,362.147 168.203,362.147 C167.836,362.147 167.17,362.497 166.203,363.197 C165.269,363.897 164.786,364.247 164.753,364.247 L160.803,363.747 C160.237,363.681 159.953,364.181 159.953,365.247 C159.953,365.514 160.637,366.063 162.003,366.897 C163.437,367.73 164.503,368.147 165.203,368.147 C165.869,368.147 166.436,367.73 166.903,366.897 C167.369,366.063 167.736,365.647 168.003,365.647 C168.403,365.647 169.203,365.98 170.403,366.647 C171.569,367.313 172.336,367.647 172.703,367.647 C172.803,367.647 175.003,366.83 179.303,365.197 C183.637,363.563 186.187,362.747 186.953,362.747 C187.119,362.747 188.053,363.23 189.753,364.197 C191.42,365.164 192.319,365.647 192.453,365.647 C192.986,365.647 193.319,365.563 193.453,365.397 C193.553,365.296 193.637,365.13 193.703,364.897 L193.852,364.447 C195.052,365.547 197.335,365.98 200.703,365.747 C200.67,365.813 199.703,367.681 197.803,371.347 C197.17,372.614 196.654,373.731 196.253,374.698 C196.053,374.531 195.803,374.364 195.503,374.198 C193.77,373.165 190.92,372.648 186.953,372.648 C185.019,372.648 182.953,373.198 180.753,374.297 C178.553,375.363 177.069,375.898 176.303,375.898 C175.904,375.898 174.887,375.698 173.253,375.297 C171.653,374.863 170.637,374.648 170.203,374.648 C169.803,374.648 168.703,374.831 166.903,375.198 C165.136,375.564 164.036,375.748 163.602,375.748 C163.236,375.481 162.802,375.215 162.302,374.948 C161.368,374.415 160.419,374.148 159.452,374.148 C158.118,374.148 157.085,374.398 156.352,374.898 C155.585,375.398 154.785,375.648 153.952,375.648 C149.752,375.648 144.335,374.731 137.702,372.898 C135.735,372.364 134.418,372.181 133.752,372.347 C132.885,372.58 132.452,373.431 132.452,374.898 C132.452,375.131 132.552,375.347 132.752,375.547 C132.785,375.58 133.185,375.947 133.952,376.648 C135.285,376.047 136.252,375.797 136.852,375.898 C136.985,375.931 137.668,376.264 138.902,376.898 C141.802,378.398 146.985,379.148 154.452,379.148 C154.819,379.148 155.485,378.864 156.452,378.297 C157.386,377.697 158.252,377.398 159.052,377.398 C159.618,377.398 160.302,377.698 161.102,378.297 C161.869,378.863 162.653,379.148 163.453,379.148 C163.887,379.148 164.953,378.948 166.653,378.547 C168.386,378.113 169.453,377.898 169.852,377.898 C170.286,377.898 171.352,378.114 173.052,378.547 C174.752,378.947 175.802,379.148 176.202,379.148 C177.435,379.148 178.952,378.614 180.752,377.547 C182.552,376.447 184.652,375.898 187.052,375.898 C187.486,375.898 188.802,376.114 191.002,376.547 C193.235,376.947 194.552,377.148 194.952,377.148 L195.252,377.148 C195.052,377.781 194.952,378.248 194.952,378.547 C194.952,380.014 195.368,381.33 196.202,382.497 C197.101,383.73 198.368,384.664 200.002,385.297 C199.636,385.398 199.318,385.547 199.052,385.747 C198.386,386.447 197.702,387.08 197.002,387.647 C196.136,386.713 195.469,385.997 195.002,385.497 C194.102,384.563 193.085,383.947 191.952,383.647 C191.285,383.647 190.169,384.147 188.601,385.147 L186.202,386.647 C185.802,386.647 185.351,386.48 184.851,386.147 C184.351,385.813 183.885,385.647 183.452,385.647 C182.851,385.647 181.818,385.963 180.351,386.596 C178.851,387.197 177.885,387.496 177.452,387.496 C174.118,387.496 171.935,387.713 170.902,388.146 C169.835,388.545 168.902,388.746 168.101,388.746 C167.702,388.746 167.268,388.562 166.801,388.196 C166.334,387.829 165.885,387.646 165.451,387.646 C164.951,387.646 164.034,388.045 162.701,388.845 C161.367,389.612 160.635,389.995 160.501,389.995 C160.334,389.995 159.984,389.811 159.451,389.445 C158.85,389.011 158.35,388.745 157.951,388.645 C153.784,387.378 151.618,386.745 151.451,386.745 C151.218,387.012 150.134,387.145 148.201,387.145 C146.034,387.145 144.951,387.895 144.951,389.395 C144.951,390.228 145.034,390.728 145.201,390.895 L145.601,391.044 C145.968,391.11 146.417,391.145 146.951,391.145 C147.417,391.145 148.034,391.128 148.801,391.094 C149.534,391.094 150.268,391.195 151.001,391.395 C155.601,392.695 158.284,393.611 159.051,394.145 L160.951,394.145 C161.684,394.145 162.367,393.611 163.001,392.544 C163.635,391.444 164.385,390.895 165.251,390.895 C165.685,390.895 166.135,391.111 166.601,391.544 C167.101,391.944 167.551,392.145 167.952,392.145 C168.386,392.145 169.136,391.828 170.202,391.195 C170.768,390.861 171.452,390.428 172.252,389.895 L175.452,389.745 C176.818,389.745 178.152,389.611 179.452,389.345 C180.719,389.045 182.002,388.896 183.302,388.896 C183.802,388.896 184.186,389.196 184.452,389.795 C184.719,390.361 185.219,390.646 185.952,390.646 C186.785,390.646 187.768,390.029 188.902,388.795 C190.035,387.528 190.801,386.896 191.202,386.896 C191.935,386.896 192.935,387.612 194.202,389.045 C195.469,390.445 196.636,391.146 197.702,391.146 C198.402,391.146 200.152,389.663 202.952,386.696 C202.952,386.396 202.935,386.163 202.902,385.996 C203.768,386.096 204.702,386.146 205.702,386.146 C206.535,386.146 207.335,386.112 208.101,386.045 C208.3,387.517 208.467,388.733 208.6,389.7 Z M129.1,49.85 C131.733,52.383 133.05,56.133 133.05,61.1 C133.05,63.567 132.55,65.7 131.55,67.5 C130.85,68.767 129.95,69.817 128.85,70.65 C129.083,69.85 129.2,69.05 129.2,68.25 C129.2,64.95 128.2,62.35 126.2,60.45 C124.4,58.817 122.2,58.016 119.6,58.05 C117,58.084 114.783,58.917 112.95,60.55 C110.95,62.35 109.95,64.717 109.95,67.65 C109.95,67.817 109.967,68 110,68.2 C109.8,67.9 109.617,67.583 109.45,67.25 C108.25,64.883 107.65,62.3 107.65,59.5 C107.65,56.067 108.967,53.133 111.6,50.7 C114.067,48.433 116.983,47.183 120.35,46.95 C123.85,46.683 126.767,47.65 129.1,49.85 Z M192.7,69.5 C192.3,70.1 191.816,70.4 191.25,70.4 C190.483,70.4 189.866,70.267 189.4,70 C188.933,69.7 188.7,69.35 188.7,68.95 C188.7,67.05 189.433,66.416 190.9,67.05 C191.633,67.383 192.366,67.917 193.099,68.65 C193.033,68.917 192.9,69.2 192.7,69.5 Z M117.95,70.5 C117.617,70.133 117.45,69.717 117.45,69.25 C117.45,68.883 117.467,68.65 117.5,68.55 C117.6,68.183 117.833,67.867 118.2,67.6 L120.2,67.65 C120.5,67.983 120.916,68.334 121.45,68.7 C121.783,68.933 121.95,69.2 121.95,69.5 C121.95,69.8 121.867,70.083 121.7,70.35 C121.333,70.883 120.683,71.15 119.75,71.15 C118.95,71.15 118.35,70.933 117.95,70.5 Z M139.9,282.65 L139.95,282.65 L139.95,283.049 L139.95,283.249 L139.95,283.574 C139.942,283.234 139.925,282.926 139.9,282.65 Z M142.5,295.75 L186.25,295.9 C189.684,296.066 191.65,298.549 192.15,303.349 C192.183,303.683 192.216,304.033 192.25,304.4 L147.3,304.4 C147.3,304.466 146.984,304.549 146.35,304.65 L146,304.65 C145.433,303.883 144.75,303.083 143.95,302.25 C143.25,301.517 142.65,300.983 142.15,300.65 C142.283,298.917 142.4,297.283 142.5,295.75 Z M130.95,286.75 L130.95,289.3 C130.95,289.533 130.983,290.8 131.05,293.1 L126.2,293.151 C126.633,290.684 127.133,288.584 127.7,286.85 C128.9,286.816 129.983,286.783 130.95,286.75 Z M121.55,296.7 C123.183,296.599 124.133,296.5 124.4,296.4 L131.1,296.299 C131.133,297.365 131.166,298.549 131.2,299.849 C130.8,299.916 130.35,300.016 129.85,300.15 C129.583,300.216 129.35,300.283 129.15,300.349 C129.084,300.316 129.017,300.283 128.95,300.249 C128.817,298.315 127.933,297.249 126.3,297.049 C125.033,296.849 123.667,297.216 122.2,298.15 C121.533,297.417 120.9,296.983 120.3,296.849 C120.267,296.816 120.234,296.783 120.2,296.749 C120.7,296.75 121.15,296.733 121.55,296.7 Z M92.75,231.65 C93.083,230.983 93.433,230.266 93.8,229.5 C93.867,229.6 93.917,229.7 93.95,229.8 L93.75,230.95 L93.5,231.3 C93.333,231.5 93.083,231.616 92.75,231.65 Z M182.4,342.45 C183.066,342.917 184,343.15 185.2,343.15 C186.433,343.15 187.183,343.049 187.45,342.849 C187.65,342.716 187.816,342.266 187.95,341.499 C186.983,339.599 184.316,338.649 179.95,338.649 C178.717,338.649 177.634,339.032 176.7,339.798 C175.733,340.531 174.7,340.899 173.599,340.899 C171.9,340.899 169.799,340.548 167.299,339.848 C164.566,339.015 162.615,338.449 161.449,338.149 C157.449,337.115 155.449,338.032 155.449,340.899 C155.449,341.166 155.532,341.382 155.699,341.548 C155.732,341.614 156.149,341.982 156.949,342.649 C159.049,341.815 160.416,341.399 161.049,341.399 C164.516,341.399 167.216,341.865 169.15,342.798 C171.116,343.698 172.716,344.149 173.95,344.149 C174.849,344.149 175.75,343.749 176.65,342.949 C177.583,342.149 179.116,341.749 181.25,341.749 C181.384,341.75 181.767,341.983 182.4,342.45 Z M112.45,324.65 C112.95,325.316 113.733,325.816 114.8,326.15 C114.834,328.783 114.933,331.65 115.1,334.75 L114.3,365.7 C114.3,375.167 114.4,381.134 114.6,383.599 C112.967,381.499 112.15,371.516 112.15,353.65 C112.15,339.858 112.25,330.191 112.45,324.65 Z M158.1,353.65 C159.267,352.983 160.167,352.65 160.8,352.65 L168.05,351.9 C168.484,351.9 169.384,352.116 170.75,352.549 C172.15,352.949 173.05,353.15 173.45,353.15 C177.583,353.15 181.016,352.816 183.75,352.15 C186.217,351.583 187.45,350.933 187.45,350.2 C187.45,349.7 187.384,349.366 187.25,349.2 C187.083,349.033 187,348.933 187,348.9 C186.467,348.766 185.384,348.7 183.75,348.7 L183.75,348.875 C183.748,348.79 183.731,348.731 183.7,348.7 C183.172,348.667 182.613,348.65 182.025,348.65 C182.192,348.644 182.55,348.561 183.099,348.4 C182.599,348.266 181.816,348.233 180.749,348.299 C179.049,348.4 177.883,348.549 177.249,348.749 C175.716,349.516 174.482,349.899 173.549,349.899 L163.549,349.899 C161.483,349.899 159.883,350.149 158.749,350.649 C157.649,351.149 156.499,351.399 155.299,351.399 C154.632,351.399 153.733,351.115 152.599,350.548 C151.432,349.948 150.466,349.649 149.699,349.649 C147.999,349.649 145.482,350.115 142.149,351.048 C138.816,351.948 136.782,352.399 136.049,352.399 C135.849,352.399 134.632,352.282 132.399,352.048 C130.432,351.848 129.199,351.798 128.699,351.899 C128.632,352.065 128.566,352.182 128.499,352.249 C128.466,352.282 128.449,352.532 128.449,352.999 C128.449,353.933 128.799,354.565 129.499,354.899 C130.532,355.399 132.682,355.649 135.949,355.649 C137.349,355.649 139.449,355.166 142.249,354.199 C145.049,353.232 147.616,352.749 149.949,352.749 C150.015,352.749 150.649,353.065 151.849,353.699 C153.316,354.332 154.599,354.649 155.699,354.649 C156.133,354.65 156.933,354.316 158.1,353.65 Z M134.95,339.75 L134.7,339.75 C134.567,339.283 134.45,338.917 134.35,338.65 L135.2,338.65 C135.1,338.983 135.017,339.35 134.95,339.75 Z" id="Shape" fill="#FFFFFF"></path>
            <path d="M207.95,26.55 C202.983,24.283 198.65,22.283 194.95,20.55 C187.75,17.15 184.15,15.133 184.15,14.5 C184.15,13.4 184.766,12.533 186,11.9 C186.233,11.8 187.95,11.167 191.15,10 L192.2,9.75 C190.5,9.583 189.333,9.417 188.7,9.25 L175.65,9.25 L162.9,12.5 C162.366,12.5 161.966,12.467 161.7,12.4 L161.4,12.25 C161.4,12.183 161.366,12.033 161.299,11.8 C161.199,11.6 161.15,11.25 161.15,10.75 C161.15,10.017 162.383,8.817 164.849,7.15 C167.65,5.25 169.183,4.117 169.45,3.75 L169.9,3.05 C166.233,3.584 163.116,4.183 160.549,4.85 C160.483,4.883 157.782,5.683 152.449,7.25 C151.415,7.55 150.282,8.367 149.049,9.7 C147.916,10.9 147.032,11.5 146.399,11.5 L146.249,11.5 C146.216,11.5 146.199,11.517 146.199,11.55 C145.899,12.183 145.382,12.5 144.649,12.5 C144.616,12.5 143.149,11.85 140.249,10.55 C137.316,9.217 135.716,8.55 135.449,8.55 L130.649,8.75 L129.449,9.05 C129.849,9.484 130.866,10.517 132.499,12.15 C133.932,13.717 134.649,14.867 134.649,15.6 C134.649,16.067 134.616,16.367 134.549,16.5 C134.449,16.667 134.399,16.85 134.399,17.05 L134.049,17.3 C133.782,17.433 133.399,17.5 132.899,17.5 C132.766,17.5 132.016,17.217 130.649,16.65 C129.282,16.05 126.499,15.75 122.299,15.75 C118.166,15.75 114.649,16.35 111.749,17.55 C109.449,18.883 108.082,19.633 107.649,19.8 C109.349,20.133 111.016,20.367 112.649,20.5 C112.882,20.7 113.216,20.983 113.649,21.35 C113.982,21.683 114.149,21.95 114.149,22.15 C114.149,22.584 112.016,24.267 107.749,27.2 C102.682,30.7 99.832,32.717 99.199,33.25 L99.149,33.3 C99.349,33.3 99.833,33.167 100.599,32.9 C101.332,32.633 101.932,32.5 102.399,32.5 C103.466,32.5 104.149,32.75 104.449,33.25 C104.582,33.45 104.649,33.75 104.649,34.15 C104.649,34.45 103.583,36.033 101.449,38.9 C99.282,41.8 98.199,43.334 98.199,43.5 C98.199,43.567 98.449,43.683 98.949,43.85 C99.216,44.05 99.415,44.283 99.549,44.55 C99.949,44.484 100.149,44.85 100.149,45.65 C100.149,46.117 99.232,48.483 97.399,52.75 C97.066,53.55 96.749,54.3 96.449,55 L96.499,55 C96.432,55.067 96.382,55.133 96.349,55.2 C96.282,55.3 96.249,55.4 96.249,55.5 C99.382,53.833 100.949,54.1 100.949,56.3 C100.949,57.6 100.682,59.367 100.149,61.6 C99.682,63.533 99.199,65.133 98.699,66.4 L98.699,66.65 C98.732,66.65 99.049,66.55 99.649,66.35 C100.349,66.117 100.949,66 101.449,66 C103.015,66 103.832,67.133 103.899,69.4 C103.932,70.533 103.699,72.367 103.199,74.9 L102.999,75.15 C103.499,75.15 104.499,74.717 105.999,73.85 C106.966,73.283 107.682,72.9 108.149,72.7 C107.982,72.266 107.816,71.85 107.649,71.45 C107.282,70.65 106.849,69.933 106.349,69.3 C104.682,67.267 103.799,63.9 103.699,59.2 C103.866,58.766 104.049,58.266 104.249,57.7 C105.016,55.067 105.532,53.383 105.799,52.65 C105.932,52.25 106.149,51.783 106.449,51.25 C106.482,51.25 106.532,51.267 106.599,51.3 L106.599,51.25 C107.499,49.817 108.816,48.6 110.549,47.6 C111.749,46.733 113.316,45.867 115.249,45 C115.216,45.033 115.182,45.067 115.149,45.1 C116.749,44.467 118.482,44.083 120.349,43.95 C124.682,43.617 128.282,44.783 131.149,47.45 C132.316,48.55 133.266,49.833 133.999,51.3 C134.666,50.5 135.732,49.484 137.199,48.25 C139.765,46.083 141.165,45 141.399,45 C142.399,45 143.182,45.783 143.749,47.35 C144.049,48.15 144.282,49.05 144.449,50.05 C145.249,49.817 146.332,48.65 147.699,46.55 C148.932,44.683 149.915,43.834 150.649,44 C152.182,44.4 153.249,45.367 153.849,46.9 C154.182,47.733 154.632,49.033 155.199,50.8 C155.466,50.667 156.532,49.734 158.399,48 C159.865,46.667 161.115,46 162.149,46 C162.848,46 163.882,46.733 165.249,48.2 C166.749,49.833 167.633,50.7 167.899,50.8 C168.065,50.533 168.416,49.717 168.949,48.35 C169.615,47.117 170.515,46.5 171.649,46.5 C172.782,46.5 174.166,47.85 175.798,50.55 C176.732,48.484 178.031,46.667 179.698,45.1 C183.031,42 187.097,40.5 191.898,40.6 C193.431,40.633 194.898,40.833 196.297,41.2 C196.631,41.033 197.148,41.083 197.847,41.35 C198.414,41.583 199.08,41.95 199.847,42.45 C200.047,42.583 200.247,42.717 200.448,42.85 C200.781,42.983 201.298,43.367 201.998,44 L204.748,46.4 C205.215,46.767 205.765,47.367 206.398,48.2 C206.398,48.166 206.415,48.15 206.448,48.15 C206.548,48.317 206.665,48.483 206.798,48.65 C207.965,50.15 208.998,51.9 209.899,53.9 C209.965,54.133 210.166,54.967 210.499,56.4 C210.532,56.967 210.582,57.65 210.649,58.45 C210.582,60.016 210.365,62.45 209.999,65.75 C209.433,67.483 208.916,68.733 208.449,69.5 C207.049,71.667 206.082,73.183 205.549,74.05 L205.7,74 C206.967,74.3 208.167,74.717 209.3,75.25 C209.533,74.683 209.6,73.717 209.5,72.35 C209.366,70.75 209.366,69.6 209.5,68.9 C210,66.1 212.517,64.383 217.05,63.75 C214.984,59.183 213.95,56.183 213.95,54.75 C213.95,52.717 214.384,51.817 215.25,52.05 C215.283,52.05 215.316,52.067 215.35,52.1 C215.317,52.033 215.3,51.983 215.3,51.95 C215.866,52.117 216.517,52.4 217.25,52.8 C217.85,53.1 218.467,53.467 219.1,53.9 C219.1,53.867 219.117,53.834 219.151,53.8 C218.85,52.633 218.517,51.484 218.151,50.35 C216.484,45.416 215.651,42.583 215.651,41.85 C215.651,41.117 215.734,40.633 215.901,40.4 C216.467,39.733 217.734,39.7 219.701,40.3 C218.034,37.533 216.701,35.334 215.701,33.7 C213.9,30.733 211.316,28.35 207.95,26.55 Z M68.9,207.4 C70.334,204.7 71.75,202.116 73.15,199.65 C75.483,195.517 77.717,191.717 79.85,188.25 C80.483,186.75 82.033,184.75 84.5,182.25 C87.9,178.75 91.933,175.367 96.6,172.1 C105.467,165.933 112.817,162.633 118.65,162.2 L118.65,162.05 C119.584,162.017 120.584,161.984 121.65,161.95 C123.783,161.883 125.633,161.75 127.2,161.55 C128.266,160.517 130.633,159.067 134.3,157.2 C136.467,156.1 138.183,155.367 139.45,155 C139.283,153.933 139.166,152.783 139.1,151.55 C139.133,146.283 139.15,142.4 139.15,139.9 L139.2,139.1 C136.733,138.733 134.3,138.283 131.9,137.75 C130.033,137.35 127.85,137.017 125.35,136.75 C123.883,136.583 122.317,136.167 120.65,135.5 C118.483,134.6 116.567,133.133 114.9,131.1 C113.367,129.267 112.55,127.65 112.45,126.25 C112.283,124.15 111.9,121.033 111.3,116.9 C111.133,115.633 110.984,114.483 110.85,113.45 C110.683,111.55 110.583,110.333 110.55,109.8 L110,97.1 C109.8,91.433 109.617,87.15 109.45,84.25 L109.45,81.85 L109.05,78.05 C109.017,77.85 109,77.217 109,76.15 L109,76.05 C108.6,76.35 108.117,76.65 107.55,76.95 C105.584,77.983 103.717,78.5 101.95,78.5 C100.916,78.5 100.2,78.167 99.8,77.5 C99.567,77.133 99.45,76.75 99.45,76.35 C99.45,75.817 99.55,75.3 99.75,74.8 C99.817,74.567 99.9,74.283 100,73.95 C100.267,72.983 100.4,72.483 100.4,72.45 L100.4,70.6 C100.4,70.467 100.417,70.35 100.45,70.25 L100.45,69.65 C99.916,69.75 99.483,69.817 99.15,69.85 C98.517,69.95 97.95,70 97.45,70 L94.7,69.75 C94.533,69.583 94.45,69.083 94.45,68.25 C94.45,68.017 94.817,66.933 95.55,65 C96.317,62.967 96.783,61.45 96.95,60.45 C96.85,60.483 96.733,60.516 96.6,60.55 C96.1,60.683 95.033,60.9 93.4,61.2 L91,61.2 C90.6,60.933 90.4,60.7 90.4,60.5 C90.4,60.133 90.917,59.05 91.95,57.25 L91.95,56.9 C92.75,54.5 93.9,52 95.4,49.4 C96.067,48.233 96.7,47.267 97.3,46.5 L97.15,46.5 C95.717,46.5 94.883,46.167 94.65,45.5 L94.65,44.35 C94.65,43.483 95.15,42.283 96.15,40.75 C96.35,40.45 97.2,39.283 98.7,37.25 L98.95,37 C97.75,37.767 96.95,38.25 96.55,38.45 C95.917,38.817 95.367,39 94.9,39 C94.367,39 93.967,38.967 93.7,38.9 L93.4,38.75 C93.4,38.683 93.367,38.533 93.3,38.3 C93.2,38.1 93.15,37.75 93.15,37.25 C93.15,35.683 94.9,33.3 98.4,30.1 C101.133,27.567 104.067,25.283 107.2,23.25 C105.533,22.617 104.383,22.133 103.75,21.8 C102.683,21.3 102.15,20.65 102.15,19.85 C102.15,19.617 102.834,19.05 104.2,18.15 C105.833,17.084 107.7,16.117 109.8,15.25 C116.067,12.683 122.367,11.85 128.7,12.75 C127.933,11.65 127.15,10.767 126.35,10.1 C125.883,9.7 125.65,9.333 125.65,9 C125.65,5.833 128.917,4.933 135.45,6.3 C139.717,7.167 142.867,8.117 144.9,9.15 C145.633,7.584 148.15,5.917 152.45,4.15 C158.283,1.717 165.016,0.334 172.65,0 C173.383,0.133 173.849,0.45 174.049,0.95 C174.115,1.083 174.15,1.383 174.15,1.85 C174.15,2.617 173.966,3.25 173.599,3.75 C172.933,4.483 172.299,5.167 171.7,5.8 L171.45,6.25 C181.95,5.85 189.516,6.067 194.15,6.9 C196.917,7.4 198.75,8.183 199.65,9.25 C199.15,10.15 197.566,11.083 194.9,12.05 C191.167,13.383 189.167,14.117 188.9,14.25 C197.366,16.15 205.583,20.65 213.549,27.75 C220.949,34.35 224.65,39.717 224.65,43.85 C224.65,44.95 224.066,45.5 222.9,45.5 C222.466,45.5 221.966,45.333 221.4,45 C220.7,44.6 220.133,44.35 219.7,44.25 C220.266,46.183 220.766,47.9 221.2,49.4 C221.366,50.467 221.599,51.95 221.9,53.85 C221.966,54.45 222.049,55.05 222.15,55.65 C222.283,55.917 222.366,56.35 222.4,56.95 C222.533,57.45 222.599,57.916 222.599,58.35 L222.599,58.8 C222.499,59.033 222.266,59.15 221.9,59.15 C221.066,59.15 220.033,58.717 218.799,57.85 C218.332,57.55 217.966,57.283 217.699,57.05 C217.666,56.984 217.633,56.95 217.598,56.95 C217.831,57.65 218.449,58.883 219.449,60.65 C220.782,62.983 221.449,64.433 221.449,65 C221.449,66.933 218.782,67.517 213.449,66.75 C213.449,68.217 213.365,70.117 213.199,72.45 C213.032,74.783 212.949,76.383 212.949,77.25 C212.949,77.917 212.865,78.417 212.699,78.75 C212.432,79.25 211.932,79.5 211.199,79.5 C210.399,79.5 208.982,78.9 206.949,77.7 C205.883,77.067 205.098,76.55 204.598,76.15 C204.565,76.383 204.548,76.6 204.548,76.8 L204.548,77.1 L204.548,77.45 C204.482,78.15 204.315,79.283 204.048,80.85 C203.581,83.483 203.198,85.983 202.899,88.35 C202.899,88.45 202.465,91.067 201.598,96.2 C201.432,97.3 201.298,98.416 201.199,99.55 C201.166,99.517 201.133,99.5 201.098,99.5 C200.465,103.8 200.081,106.817 199.949,108.55 C199.716,111.717 198.949,117.467 197.649,125.8 C197.482,126.667 197.015,128.05 196.249,129.95 C195.282,132.317 194.683,133.833 194.449,134.5 C194.348,134.833 194.282,135.383 194.249,136.15 C194.016,136.883 193.299,137.483 192.099,137.95 C189.133,139.117 182.65,139.783 172.65,139.95 L172.65,140.25 C172.65,143.35 172.433,147.167 172,151.7 C171.8,153.833 171.634,155.7 171.5,157.3 C171.8,157.367 172.167,157.517 172.6,157.75 C172.8,158.05 173.117,158.383 173.55,158.75 C174.017,159.117 174.667,159.617 175.5,160.25 C175.866,160.617 176.2,160.95 176.5,161.25 C177.267,162.05 178.033,162.917 178.8,163.85 C178.901,163.85 179,163.867 179.1,163.9 C183.867,165.033 186.651,165.65 187.451,165.75 C189.751,166.083 194.401,166.717 201.401,167.65 C207.467,168.517 211.067,169.3 212.201,170 C212.267,170.033 212.334,170.067 212.401,170.1 C212.334,170.267 212.284,170.416 212.251,170.55 C213.151,170.984 214.151,171.5 215.251,172.1 C219.817,174.6 222.968,176.633 224.701,178.2 C225.6,179.666 227.251,181.95 229.651,185.05 C231.751,187.783 233.184,189.917 233.951,191.45 C235.718,195.117 237.484,199.666 239.251,205.099 C239.851,206.933 241.251,211.533 243.451,218.9 C245.117,224.667 248.001,233.683 252.1,245.95 C255.134,256.217 256.75,264.95 256.951,272.15 L313.1,272.15 C313.167,272.183 313.234,272.216 313.3,272.25 C314.267,272.75 314.75,273.3 314.75,273.9 C314.75,274.333 314.3,274.75 313.4,275.15 L256.9,275.15 C256.433,284.049 252.533,301.549 245.2,327.65 C237.433,355.316 232.516,369.15 230.45,369.15 C228.717,369.15 226.217,368.333 222.95,366.7 C222.816,371.3 222.233,374.816 221.2,377.25 C219.3,381.684 215.933,384.467 211.099,385.6 C211.266,386.867 211.416,387.967 211.549,388.901 C211.716,390.334 211.799,391.334 211.799,391.901 C211.799,393.668 208.799,395.668 202.799,397.901 C194.766,400.901 184.349,402.401 171.549,402.401 C160.416,402.401 151.999,401.967 146.299,401.1 C141.999,400.067 139.016,399.417 137.349,399.151 L120.299,398.901 C117.632,398.201 115.849,394.267 114.949,387.1 C111.982,386.1 110.149,381.067 109.449,372 C109.249,369.667 109.149,363.65 109.149,353.95 L109.949,323 C109.915,322.4 109.882,321.8 109.849,321.2 C100.616,316.8 94.582,313.566 91.749,311.5 C88.249,309.033 84.266,306 79.799,302.4 C75.166,298.667 71.382,295.45 68.449,292.75 C62.816,287.583 58.415,281.717 55.249,275.15 L1.149,275.15 C0.916,275.083 0.699,275.016 0.499,274.95 C0.332,274.683 0.249,274.384 0.249,274.05 C0.249,273.116 0.832,272.484 1.999,272.151 L53.899,272.151 C51.599,266.584 50.449,261.084 50.449,255.651 C50.449,246.384 56.249,230.934 67.849,209.3 C67.982,209.033 68.116,208.783 68.249,208.55 C68.45,208.15 68.667,207.767 68.9,207.4 Z M212.5,173.8 C212.1,173.6 211.717,173.417 211.35,173.25 L211.35,173.3 C207.55,171.367 201.75,169.8 193.951,168.6 C191.017,168.133 186.751,167.65 181.151,167.15 C180.984,168.15 179.918,169.084 177.951,169.95 C176.385,170.617 173.784,171.383 170.151,172.25 C170.684,173.05 172.201,174.733 174.701,177.3 C176.001,178.633 176.651,180.2 176.651,182 C176.651,184.233 172.334,185.65 163.701,186.25 C163.635,186.35 163.534,186.417 163.401,186.45 C163.168,186.516 162.684,186.55 161.951,186.55 C163.017,189.75 163.551,191.767 163.551,192.6 C163.551,193.033 163.468,194.7 163.301,197.6 C163.135,200.367 162.885,204.25 162.551,209.25 C162.551,213.616 162.718,216.8 163.051,218.8 L163.301,244.8 C163.601,244.934 163.818,245.75 163.951,247.25 C163.951,251.25 163.984,254.25 164.051,256.25 L164.451,265.25 C164.551,267.884 164.668,270.184 164.801,272.15 L207.152,272.15 C206.785,268.417 206.468,264.75 206.202,261.15 C205.002,246.716 204.219,236.866 203.851,231.599 C203.618,228.299 203.435,224.9 203.301,221.4 C203.402,216.433 203.451,213.849 203.451,213.65 C203.551,210.95 203.468,208.733 203.201,207 C203.135,206.566 203.051,206.2 202.951,205.9 L202.951,205 C202.951,203.634 202.984,202.45 203.051,201.45 C205.084,201.583 206.135,203.183 206.201,206.25 C206.367,211.184 206.451,213.667 206.451,213.7 C206.451,214.433 206.468,215.233 206.501,216.099 C208.101,217.332 210.034,219.766 212.301,223.4 C212.801,224.233 213.334,225.116 213.902,226.049 C214.002,226.216 214.101,226.4 214.202,226.599 C217.035,231.599 219.868,237.383 222.702,243.95 C225.868,251.45 227.802,256.384 228.502,258.75 C229.735,262.85 230.386,267.316 230.452,272.15 L230.452,272.9 C230.452,273.566 230.419,274.316 230.351,275.15 C229.718,281.25 226.818,292.316 221.652,308.349 C218.551,317.983 215.568,326.383 212.702,333.549 C211.935,335.383 211.185,337.15 210.452,338.849 C209.552,340.916 208.669,342.866 207.802,344.7 C208.736,344.866 210.035,345.283 211.702,345.95 C212.669,346.349 213.802,346.849 215.101,347.45 C216.601,348.15 218.301,349 220.202,350 C226.035,353.033 230.085,355.517 232.351,357.45 C232.518,356.849 232.685,356.266 232.851,355.7 C236.152,344.733 239.318,333.866 242.351,323.099 C249.452,297.933 253.301,281.95 253.902,275.15 C253.935,274.549 253.952,274.016 253.952,273.549 L253.952,272.15 C253.719,265.683 251.985,256.95 248.752,245.95 C244.585,233.25 241.818,224.75 240.452,220.45 C239.185,216.183 238.136,212.667 237.302,209.9 C237.002,209 236.752,208.2 236.552,207.5 C236.519,207.434 236.502,207.384 236.502,207.35 C234.835,201.817 233.318,197.433 231.952,194.201 C231.118,192.267 229.919,190.151 228.351,187.851 C226.652,185.384 224.885,183.234 223.051,181.401 C220.55,178.867 217.033,176.333 212.5,173.8 Z M207.9,243.05 C208.5,249.85 208.849,254.717 208.95,257.651 C209.083,261.951 209.433,266.784 210,272.151 L227.45,272.151 C227.349,267.55 226.717,263.284 225.55,259.35 C224.55,256.083 222.517,251.184 219.45,244.651 C217.183,239.884 213.5,234.117 208.4,227.35 C207.833,226.583 207.299,225.867 206.799,225.201 C206.832,226.201 206.883,227.267 206.949,228.401 C207.017,231.866 207.333,236.75 207.9,243.05 Z M227.35,275.15 L142.2,275.15 C142.133,276.216 142.067,277.183 142,278.049 C142.433,278.782 142.717,279.466 142.85,280.099 C142.916,280.433 142.95,281.4 142.95,282.999 L153,282.849 C153.633,282.749 153.95,282.666 153.95,282.599 L198.95,282.599 C204.384,284.9 207.25,288.116 207.55,292.249 C207.616,293.149 207.517,295.032 207.25,297.899 C207.017,300.432 207.033,302.499 207.3,304.098 C207.533,305.365 208.25,308.965 209.45,314.899 C210.45,319.598 211.116,323.365 211.45,326.199 C211.483,326.399 211.65,327.416 211.95,329.249 C214.116,323.749 215.9,318.166 217.3,312.499 C219.234,306.199 221.017,300.249 222.651,294.649 C225.316,285.483 226.884,278.983 227.35,275.15 Z M208.55,327.7 C208.217,325.566 207.517,322.016 206.45,317.05 C205.45,312.417 204.783,308.85 204.45,306.35 C204.417,300.384 204.25,296.034 203.95,293.3 C203.45,288.5 201.483,286.017 198.05,285.85 L154,285.7 L152.95,286.099 L142.9,286.249 C142.867,288.149 142.783,290.282 142.65,292.649 L187.15,292.649 C192.583,294.949 195.45,298.166 195.75,302.298 C195.816,302.998 195.767,304.265 195.6,306.098 C198.901,308.199 200.667,310.848 200.901,314.048 C200.967,314.948 200.867,316.831 200.6,319.698 C200.367,322.231 200.384,324.298 200.651,325.898 C200.884,327.165 201.6,330.764 202.8,336.698 C203.5,340.031 204.05,342.898 204.45,345.298 C205.15,343.932 205.9,342.465 206.7,340.899 C207.766,338.798 208.783,336.682 209.75,334.548 C208.983,330.184 208.583,327.9 208.55,327.7 Z M231.15,361.4 C228.883,360.167 224.683,357.5 218.549,353.4 C217.549,352.733 216.633,352.116 215.799,351.549 C214.466,350.683 213.282,349.9 212.249,349.199 C209.883,347.666 208.183,346.598 207.149,345.999 C206.949,346.399 206.749,346.799 206.548,347.199 C206.048,348.133 205.565,349.015 205.098,349.848 C204.831,350.315 204.565,350.782 204.298,351.248 C204.565,351.415 204.948,351.632 205.448,351.898 C207.014,352.764 209.681,354.264 213.448,356.398 C214.382,356.931 215.382,357.498 216.448,358.097 C216.614,358.198 216.764,358.281 216.898,358.347 C221.665,361.08 226.014,363.381 229.948,365.247 C230.35,363.95 230.75,362.667 231.15,361.4 Z M212.55,360.6 C210.05,358.967 207.934,357.567 206.2,356.401 C206.066,356.267 205.933,356.168 205.8,356.1 C205.134,356.434 204.267,356.767 203.2,357.1 C202.733,357.267 202.233,357.417 201.7,357.55 C197.866,358.583 195.95,359.783 195.95,361.151 C195.95,361.717 195.983,362.134 196.05,362.401 C196.484,362.401 198.783,362.317 202.95,362.151 C203.417,362.151 203.816,362.234 204.15,362.401 C204.516,362.534 204.816,362.784 205.049,363.151 C205.316,363.55 205.449,363.918 205.449,364.251 C205.182,364.718 204.932,365.185 204.699,365.651 C203.699,367.384 202.699,369.134 201.699,370.901 C199.199,375.401 197.949,378.001 197.949,378.701 C197.949,379.867 198.449,380.817 199.449,381.551 C200.716,382.451 202.716,382.902 205.449,382.902 C206.182,382.902 206.883,382.885 207.549,382.851 C208.65,382.751 209.683,382.618 210.65,382.452 C215.75,381.419 218.816,378.652 219.849,374.152 C220.283,372.285 220.349,370.118 220.049,367.652 C219.849,366.485 219.699,365.585 219.599,364.952 C218.999,364.585 218.383,364.219 217.749,363.851 C216.649,363.218 215.516,362.518 214.349,361.751 C213.75,361.384 213.15,361 212.55,360.6 Z M208.6,389.7 C208.467,388.733 208.3,387.516 208.1,386.05 C207.333,386.116 206.534,386.151 205.701,386.151 C204.701,386.151 203.767,386.1 202.901,386.001 C202.934,386.168 202.951,386.401 202.951,386.701 C200.151,389.668 198.401,391.151 197.701,391.151 C196.635,391.151 195.468,390.451 194.201,389.05 C192.934,387.616 191.934,386.901 191.201,386.901 C190.801,386.901 190.034,387.534 188.901,388.8 C187.767,390.033 186.784,390.651 185.951,390.651 C185.218,390.651 184.718,390.367 184.451,389.8 C184.184,389.2 183.801,388.901 183.301,388.901 C182.001,388.901 180.718,389.05 179.451,389.35 C178.151,389.617 176.817,389.75 175.451,389.75 L172.251,389.9 C171.451,390.433 170.768,390.866 170.201,391.2 C169.135,391.833 168.385,392.15 167.951,392.15 C167.551,392.15 167.1,391.95 166.6,391.549 C166.134,391.115 165.684,390.9 165.25,390.9 C164.384,390.9 163.634,391.45 163,392.549 C162.366,393.615 161.684,394.15 160.95,394.15 L159.05,394.15 C158.283,393.616 155.6,392.7 151,391.4 C150.267,391.2 149.533,391.099 148.8,391.099 C148.033,391.133 147.417,391.15 146.95,391.15 C146.416,391.15 145.967,391.116 145.6,391.049 L145.2,390.9 C145.033,390.733 144.95,390.233 144.95,389.4 C144.95,387.9 146.033,387.15 148.2,387.15 C150.133,387.15 151.217,387.016 151.45,386.75 C151.617,386.75 153.783,387.384 157.95,388.65 C158.349,388.75 158.849,389.016 159.45,389.45 C159.983,389.816 160.333,390 160.5,390 C160.634,390 161.366,389.616 162.7,388.85 C164.033,388.05 164.95,387.651 165.45,387.651 C165.884,387.651 166.333,387.834 166.8,388.201 C167.267,388.567 167.7,388.751 168.1,388.751 C168.901,388.751 169.833,388.551 170.901,388.151 C171.934,387.717 174.117,387.501 177.451,387.501 C177.885,387.501 178.85,387.201 180.35,386.601 C181.817,385.968 182.85,385.652 183.451,385.652 C183.885,385.652 184.35,385.818 184.85,386.152 C185.35,386.485 185.8,386.652 186.201,386.652 L188.6,385.152 C190.167,384.152 191.284,383.652 191.951,383.652 C193.084,383.952 194.1,384.568 195.001,385.502 C195.468,386.002 196.135,386.719 197.001,387.652 C197.701,387.085 198.385,386.452 199.051,385.752 C199.318,385.552 199.635,385.402 200.001,385.302 C198.367,384.669 197.101,383.736 196.201,382.502 C195.367,381.335 194.951,380.019 194.951,378.552 C194.951,378.252 195.051,377.785 195.251,377.153 L194.951,377.153 C194.551,377.153 193.234,376.953 191.001,376.552 C188.801,376.118 187.484,375.903 187.051,375.903 C184.652,375.903 182.551,376.453 180.751,377.552 C178.951,378.618 177.435,379.153 176.201,379.153 C175.801,379.153 174.751,378.953 173.051,378.552 C171.351,378.118 170.284,377.903 169.851,377.903 C169.452,377.903 168.385,378.119 166.652,378.552 C164.952,378.952 163.885,379.153 163.452,379.153 C162.652,379.153 161.868,378.869 161.101,378.302 C160.301,377.702 159.618,377.403 159.051,377.403 C158.251,377.403 157.385,377.703 156.451,378.302 C155.484,378.868 154.818,379.153 154.451,379.153 C146.984,379.153 141.801,378.403 138.901,376.903 C137.668,376.269 136.984,375.936 136.851,375.903 C136.251,375.802 135.284,376.052 133.951,376.653 C133.184,375.953 132.784,375.586 132.751,375.552 C132.551,375.352 132.451,375.136 132.451,374.903 C132.451,373.436 132.884,372.586 133.751,372.352 C134.418,372.186 135.734,372.369 137.701,372.903 C144.334,374.736 149.751,375.653 153.951,375.653 C154.784,375.653 155.584,375.403 156.351,374.903 C157.084,374.403 158.117,374.153 159.451,374.153 C160.418,374.153 161.367,374.42 162.301,374.953 C162.801,375.22 163.235,375.486 163.601,375.753 C164.035,375.753 165.135,375.569 166.902,375.203 C168.702,374.836 169.801,374.653 170.202,374.653 C170.636,374.653 171.652,374.869 173.252,375.302 C174.886,375.702 175.902,375.903 176.302,375.903 C177.069,375.903 178.552,375.369 180.752,374.302 C182.952,373.202 185.019,372.653 186.952,372.653 C190.919,372.653 193.768,373.17 195.502,374.203 C195.802,374.369 196.052,374.536 196.252,374.703 C196.652,373.736 197.169,372.619 197.802,371.352 C199.702,367.686 200.669,365.819 200.702,365.752 C197.335,365.985 195.052,365.552 193.851,364.452 L193.702,364.902 C193.636,365.135 193.552,365.301 193.452,365.402 C193.318,365.568 192.985,365.652 192.452,365.652 C192.318,365.652 191.419,365.169 189.752,364.202 C188.052,363.235 187.118,362.752 186.952,362.752 C186.185,362.752 183.636,363.568 179.302,365.202 C175.002,366.835 172.802,367.652 172.702,367.652 C172.335,367.652 171.568,367.318 170.402,366.652 C169.202,365.985 168.402,365.652 168.002,365.652 C167.735,365.652 167.368,366.068 166.902,366.902 C166.435,367.735 165.868,368.152 165.202,368.152 C164.502,368.152 163.435,367.735 162.002,366.902 C160.636,366.068 159.952,365.518 159.952,365.252 C159.952,364.186 160.235,363.686 160.802,363.752 L164.752,364.252 C164.785,364.252 165.269,363.902 166.202,363.202 C167.169,362.502 167.835,362.152 168.202,362.152 C169.136,362.152 170.018,362.485 170.851,363.152 C171.718,363.818 172.452,364.152 173.051,364.152 C174.451,364.152 176.251,363.652 178.451,362.652 C179.651,362.085 181.468,361.252 183.901,360.152 C187.701,358.752 190.751,359.618 193.05,362.752 C192.984,362.252 192.95,361.636 192.95,360.902 C192.95,358.801 193.8,357.252 195.5,356.252 C196.767,355.519 199.15,354.735 202.65,353.902 L202.65,353.851 C201.183,352.751 200.45,352.101 200.45,351.902 C200.917,351.202 201.417,350.452 201.95,349.652 C201.917,349.585 201.9,349.535 201.9,349.502 C201.733,348.535 201.583,347.618 201.45,346.752 C201.05,344.719 200.5,342.085 199.8,338.852 C198.8,334.219 198.134,330.653 197.8,328.153 L197.8,325.552 C197.734,320.919 197.567,317.436 197.3,315.102 C197.033,312.602 196.384,310.736 195.35,309.502 C194.583,308.602 193.634,308.035 192.5,307.802 C192.134,307.736 191.767,307.686 191.4,307.653 L147.6,307.503 C147.833,308.137 147.95,308.736 147.95,309.303 C147.95,310.47 147.117,312.803 145.45,316.303 C144.15,319.003 143.117,320.687 142.35,321.353 C143.283,323.387 143.817,325.154 143.95,326.654 L143.95,326.704 L143.95,327.004 L143.95,327.204 C143.95,330.004 142.45,331.82 139.45,332.654 L139.45,334.454 C139.45,335.754 139.117,336.853 138.45,337.754 L138.45,338.454 C138.45,339.287 138.166,340.353 137.6,341.654 C136.833,343.32 135.95,344.154 134.95,344.154 C134.25,344.154 133.383,343.32 132.35,341.654 C131.416,340.187 130.95,339.303 130.95,339.004 C130.95,338.537 130.967,338.287 131,338.254 C131.067,338.188 131.133,338.07 131.2,337.904 C130.8,337.27 130.433,336.287 130.1,334.954 C129.733,333.487 129.517,332.353 129.45,331.554 C128.016,331.221 126.033,330.004 123.5,327.905 L121.35,325.905 C120.683,326.405 119.883,326.655 118.95,326.655 L118.1,326.655 C117.9,329.321 117.733,332.221 117.6,335.354 C117.4,340.688 117.3,350.705 117.3,365.405 C117.3,373.005 117.45,379.188 117.75,383.955 C117.817,385.121 117.9,386.205 118,387.205 C118.467,392.338 119.167,395.155 120.1,395.655 L137.3,395.905 C143.467,398.071 154.85,399.155 171.45,399.155 C174.95,399.155 181.766,398.321 191.9,396.655 C203.167,394.788 208.799,393.205 208.799,391.905 C208.8,391.533 208.733,390.8 208.6,389.7 Z M191.9,43.85 C187.966,43.916 184.583,45.267 181.75,47.9 C178.684,50.8 177.15,54.55 177.15,59.15 C177.15,61.75 178,64.3 179.7,66.8 L179.7,66.55 C179.7,63.65 180.866,61.317 183.2,59.55 C185.333,57.95 187.917,57.167 190.95,57.2 C194.016,57.2 196.599,58.067 198.7,59.8 C201.033,61.734 202.2,64.4 202.2,67.8 C202.2,68.767 202.15,69.533 202.05,70.1 C203.184,69.267 204.134,68.233 204.901,67 C206.1,65.067 206.684,62.983 206.651,60.75 C206.651,57.45 206.1,54.583 205.001,52.15 C204.168,50.917 203.234,49.533 202.201,48 C202.168,47.933 202.117,47.867 202.051,47.8 C199.316,45.1 195.934,43.783 191.9,43.85 Z M151.95,51.85 C151.283,49.916 150.867,48.817 150.7,48.55 C149.833,49.683 149.05,50.683 148.35,51.55 C146.983,53.183 145.833,54 144.9,54 C143.334,54 142.317,53.433 141.85,52.3 C141.583,50.967 141.267,50.117 140.9,49.75 C140.7,49.817 139.75,50.65 138.05,52.25 C136.717,53.483 135.767,54.217 135.2,54.45 C135.766,56.45 136.05,58.717 136.05,61.25 C136.05,64.583 135.35,67.433 133.95,69.8 C131.317,74.267 126.516,76.5 119.55,76.5 C116.517,76.5 113.933,75.833 111.8,74.5 C111.9,75.533 111.95,76.783 111.95,78.25 L111.85,83.95 C111.883,84.45 111.9,84.983 111.9,85.55 C112,87.717 112.117,90.917 112.25,95.15 C112.383,98.85 112.6,102.05 112.9,104.75 C113.3,108.783 114.05,115.133 115.15,123.8 C115.283,124.933 116.033,126.5 117.4,128.5 C118.834,130.567 120.084,131.833 121.15,132.3 C123.75,133.367 127.334,134.183 131.9,134.75 C140.533,135.85 149.467,136.45 158.7,136.55 C162.5,136.617 165.683,136.617 168.25,136.55 C168.316,136.584 168.384,136.6 168.45,136.6 L170.45,136.65 C170.583,136.683 170.717,136.717 170.849,136.75 C177.883,136.717 182.383,136.583 184.349,136.35 C188.082,135.95 190.566,134.867 191.799,133.1 C192.832,131.633 193.666,128.533 194.299,123.8 C195.433,115.267 196.383,109.084 197.15,105.25 C196.983,103.283 197.4,100.45 198.4,96.75 C199.433,93.05 199.849,90.233 199.65,88.3 C199.683,88.167 199.9,85.484 200.299,80.25 C200.433,78.783 200.65,77.433 200.949,76.2 L200.949,76.1 C200.883,75.4 200.832,74.833 200.799,74.4 C198.299,75.467 195.332,76 191.9,76 C184.766,76 179.683,73.333 176.65,68 C174.983,65.067 174.15,62.1 174.15,59.1 C174.15,57.1 174.366,55.233 174.799,53.5 C173.966,53.467 173.332,53.117 172.9,52.45 C172.167,51.383 171.75,50.817 171.65,50.75 C171.583,50.783 171.25,51.583 170.65,53.15 C170.183,54.383 169.349,55 168.15,55 C166.883,55 165.599,54.217 164.299,52.65 C163.099,50.917 162.316,49.883 161.949,49.55 C159.482,52.85 157.299,54.5 155.399,54.5 C153.967,54.5 152.817,53.617 151.95,51.85 Z M129.1,49.85 C126.767,47.65 123.85,46.683 120.35,46.95 C116.983,47.183 114.067,48.433 111.6,50.7 C108.967,53.133 107.65,56.067 107.65,59.5 C107.65,62.3 108.25,64.883 109.45,67.25 C109.617,67.583 109.8,67.9 110,68.2 C109.967,68 109.95,67.817 109.95,67.65 C109.95,64.717 110.95,62.35 112.95,60.55 C114.783,58.917 117,58.084 119.6,58.05 C122.2,58.017 124.4,58.817 126.2,60.45 C128.2,62.35 129.2,64.95 129.2,68.25 C129.2,69.05 129.083,69.85 128.85,70.65 C129.95,69.817 130.85,68.767 131.55,67.5 C132.55,65.7 133.05,63.567 133.05,61.1 C133.05,56.133 131.733,52.383 129.1,49.85 Z M161.4,78.65 C162.5,77.55 163.417,77 164.15,77 C164.983,77 165.5,77.083 165.7,77.25 C165.7,77.283 165.783,77.367 165.95,77.5 C166.083,77.667 166.15,78 166.15,78.5 C166.15,79.6 165,80.7 162.7,81.8 C160.333,82.933 157.816,83.5 155.15,83.5 C153.483,83.5 151.983,82.667 150.65,81 C149.65,79.733 149.15,78.85 149.15,78.35 C149.15,77.883 149.167,77.633 149.2,77.6 C149.266,77.533 149.333,77.416 149.4,77.25 C150.367,77.283 151.383,77.8 152.45,78.8 C153.483,79.8 154.8,80.3 156.4,80.3 C158.6,80.3 160.267,79.75 161.4,78.65 Z M192.7,69.5 C192.9,69.2 193.033,68.917 193.099,68.65 C192.366,67.917 191.633,67.383 190.9,67.05 C189.433,66.417 188.7,67.05 188.7,68.95 C188.7,69.35 188.933,69.7 189.4,70 C189.866,70.267 190.483,70.4 191.25,70.4 C191.816,70.4 192.3,70.1 192.7,69.5 Z M117.95,70.5 C118.35,70.933 118.95,71.15 119.75,71.15 C120.683,71.15 121.333,70.883 121.7,70.35 C121.867,70.083 121.95,69.8 121.95,69.5 C121.95,69.2 121.783,68.933 121.45,68.7 C120.916,68.333 120.5,67.983 120.2,67.65 L118.2,67.6 C117.833,67.867 117.6,68.183 117.5,68.55 C117.467,68.65 117.45,68.883 117.45,69.25 C117.45,69.717 117.617,70.133 117.95,70.5 Z M91.95,60.4 C91.916,60.4 91.9,60.417 91.9,60.45 L91.95,60.45 L91.95,60.4 Z M83.4,188.9 L83.45,188.9 C81.617,192.067 79.533,195.65 77.2,199.65 C75.933,201.783 74.6,204.033 73.2,206.4 C72.733,207.266 72.266,208.133 71.8,209 C71.433,209.634 71.084,210.283 70.75,210.95 C59.217,232.349 53.45,247.217 53.45,255.55 C53.45,261.151 54.7,266.684 57.2,272.151 C57.467,272.784 57.75,273.401 58.05,274.001 C58.25,274.401 58.45,274.784 58.65,275.151 C61.883,281.184 66.567,286.967 72.7,292.501 C84.166,302.867 96.516,311.268 109.75,317.701 C110.05,317.834 110.367,317.984 110.7,318.151 C110.867,318.217 111.233,318.384 111.8,318.651 C112.033,317.751 112.417,316.634 112.95,315.3 C113.75,313.067 114.916,310.2 116.45,306.7 C117.217,304.967 117.883,303.55 118.45,302.45 C118.583,302.15 118.7,301.849 118.8,301.55 L118.85,301.5 L118.8,301.5 C118.7,301.434 118.617,301.366 118.55,301.3 C118.183,301 117.817,300.717 117.45,300.45 C116.717,299.884 116.016,299.333 115.35,298.8 C114.05,297.8 112.85,296.884 111.75,296.05 C107.983,293.083 105.183,290.833 103.35,289.3 C96.916,284 91.783,279.283 87.95,275.151 C86.983,274.117 86.117,273.117 85.35,272.151 C82.35,268.55 80.5,265.467 79.8,262.901 C78.467,266.001 77.183,268.751 75.95,271.151 C75.217,270.951 74.75,270.617 74.55,270.151 C74.484,269.984 74.45,269.668 74.45,269.201 C74.45,265.567 78.783,254.367 87.45,235.6 C88.416,233.467 89.35,231.467 90.25,229.6 C90.75,228.467 91.25,227.384 91.75,226.35 C97.55,213.651 100.45,207.117 100.45,206.75 C100.45,205.75 100.783,205.116 101.45,204.85 L101.45,203.75 L101.5,202.45 C103.2,201.849 104.283,202.533 104.75,204.5 C104.817,204.866 104.883,205.55 104.95,206.55 C105.05,206.717 105.1,207.033 105.1,207.5 C105.1,208.2 105.05,209.267 104.95,210.7 C104.916,217.233 104.683,222.884 104.25,227.65 C104.317,229.616 104.417,231.816 104.55,234.25 C104.55,237.05 104.4,240.717 104.1,245.25 C104.033,245.217 103.983,245.217 103.95,245.25 L103.95,253.75 C104.283,256.517 104.45,260.65 104.45,266.15 C104.45,267.216 104.383,269.216 104.25,272.15 L132.45,272.15 C132.183,270.683 131.933,268.816 131.7,266.549 C131.2,260.082 130.95,256.816 130.95,256.749 C130.95,255.115 131.067,253.615 131.3,252.249 C130.9,252.315 130.45,252.365 129.95,252.399 L129.95,265.149 C130.317,265.416 130.55,265.615 130.65,265.749 C130.85,266.049 130.95,266.466 130.95,266.999 C130.95,268.099 130.367,268.649 129.2,268.649 C127.933,268.649 127.183,267.065 126.95,263.899 L126.95,258.999 L126.95,252.249 C127.35,250.383 128.533,249.232 130.5,248.799 C131.2,248.633 131.783,248.599 132.25,248.699 C132.45,248.166 132.667,247.682 132.9,247.249 C134.033,245.149 135.467,243.999 137.2,243.799 C138.867,243.599 140.3,244.316 141.5,245.949 C142.8,247.716 143.45,250.115 143.45,253.149 C143.45,256.416 143.217,261.115 142.75,267.249 C142.617,269.016 142.5,270.649 142.4,272.149 L150,272.149 C150.033,264.215 150.117,257.482 150.25,251.949 C150.183,251.916 150.117,251.899 150.05,251.899 L150.05,224.499 L149.55,222.999 L149.55,186.999 C149.417,186.832 149.334,186.682 149.3,186.549 L149.25,186.549 C149.117,186.516 148.983,186.499 148.85,186.499 L147.65,186.499 C147.15,186.399 146.7,186.299 146.3,186.199 C144.4,185.932 143.017,185.732 142.15,185.599 C141.65,185.532 141.2,185.449 140.8,185.349 C136.533,185.082 133.317,184.466 131.15,183.499 C129.483,182.732 128.65,181.982 128.65,181.249 C128.65,180.116 129.667,177.632 131.7,173.799 C133.033,171.366 134.067,169.549 134.8,168.349 C134.834,168.316 134.883,168.299 134.95,168.299 C133.217,167.899 131.467,167.049 129.7,165.749 C128.733,165.082 128,164.499 127.5,163.999 C126.467,164.166 125.1,164.366 123.4,164.599 C121.067,164.966 119.283,165.232 118.05,165.399 C118.084,165.266 118.117,165.149 118.15,165.049 C117.983,165.049 117.834,165.066 117.7,165.099 C111,166.432 103.666,169.882 95.7,175.449 C93.6,176.915 90.983,179.582 87.85,183.449 C86.017,185.717 84.533,187.533 83.4,188.9 Z M179.05,100.75 C179.05,97.65 180.134,97.7 182.3,100.9 C184.467,104.067 185.55,106.217 185.55,107.35 C185.55,108.283 185.517,109.1 185.45,109.8 L185.15,110.15 C184.917,110.383 184.549,110.5 184.049,110.5 C182.916,110.5 182.332,109.933 182.299,108.8 C182.499,107.533 182.549,106.767 182.449,106.5 L182.199,106.05 C178.865,109.084 175.399,111.717 171.799,113.95 C164.9,118.317 157.566,120.5 149.799,120.5 C144.599,120.5 140.899,119.917 138.699,118.75 C137.265,118.017 136.549,117.133 136.549,116.1 C136.549,115.567 136.583,115.233 136.649,115.1 L136.699,115 L136.999,114.75 C137.199,114.583 137.549,114.5 138.049,114.5 C138.549,114.5 138.966,114.65 139.299,114.95 C139.899,115.483 140.282,115.8 140.449,115.9 C141.982,116.8 145.099,117.25 149.799,117.25 C156.699,117.25 163.666,115.05 170.699,110.65 C174.265,108.417 177.432,105.967 180.199,103.3 C179.832,102.834 179.582,102.467 179.449,102.2 C179.184,101.767 179.05,101.283 179.05,100.75 Z M167.35,140 L166.75,140 C166.823,140.001 166.923,140.018 167.05,140.05 C164.717,140.217 161.917,140.317 158.651,140.35 C152.917,140.416 147.284,140.117 141.751,139.45 C142.518,140.05 142.968,141.067 143.101,142.5 C143.234,143.933 143.251,145.933 143.151,148.5 C143.151,151 143.318,154.783 143.651,159.85 L143.651,160.05 C145.151,161.883 146.751,164.267 148.451,167.2 C150.151,170.133 152.551,174.5 155.651,180.3 C156.484,179.367 159.135,175.084 163.601,167.45 C165.435,164.317 166.952,161.916 168.152,160.25 L168.152,158.25 C168.152,157.25 168.235,155.433 168.402,152.8 C168.635,149.5 168.885,146.9 169.152,145 C169.419,143.2 169.835,141.533 170.402,140 L169.702,140 L169.702,139.75 C168.967,139.85 168.184,139.933 167.35,140 Z M137.55,159.75 C134.117,161.217 131.95,162.15 131.05,162.55 C131.617,163.117 133.117,163.767 135.55,164.5 C135.783,164.567 136,164.633 136.2,164.7 C136.5,164.666 137,164.8 137.7,165.1 C138.9,165.6 139.5,166.05 139.5,166.45 C139.5,166.483 139.483,166.567 139.45,166.7 C139.05,167.567 138.067,169.383 136.5,172.15 C134.133,176.25 132.683,178.967 132.15,180.3 C136.584,180.834 143,181.234 151.4,181.5 C151.8,181.5 152.183,181.517 152.55,181.55 C151.017,179.35 149.05,175.967 146.65,171.4 C145.483,169.2 144.483,167.283 143.65,165.65 C141.017,162.05 139.633,159.717 139.5,158.65 C138.933,159.017 138.283,159.383 137.55,159.75 Z M160.3,182.55 L160.35,182.55 C165.583,182.117 169.85,181.683 173.151,181.25 C172.484,179.583 171.217,177.933 169.35,176.3 C167.884,175.033 167.151,173.683 167.151,172.25 C167.151,171.217 167.467,170.583 168.1,170.35 C171.667,169.117 174.684,167.933 177.151,166.8 C177.05,166.767 176.951,166.75 176.85,166.75 C176.85,166.683 176.817,166.6 176.75,166.5 C176.717,166.467 176.684,166.4 176.65,166.3 C176.049,165.767 174.933,164.783 173.299,163.35 C173.166,163.217 173.032,163.1 172.9,163 C172.299,162.267 171.95,161.9 171.849,161.9 C171.516,161.9 171.066,162.383 170.499,163.35 C170.365,163.583 170.249,163.783 170.149,163.95 C170.115,163.95 170.082,163.967 170.048,164 C168.748,166.1 166.965,168.883 164.698,172.35 C161.364,177.383 158.948,180.867 157.448,182.8 C158.014,182.734 158.581,182.683 159.148,182.65 C159.181,182.683 159.248,182.7 159.347,182.7 C159.55,182.7 159.866,182.65 160.3,182.55 Z M158.15,186.5 L152.549,186.5 L152.549,222.05 C152.682,222.651 152.849,223.151 153.049,223.55 L153.049,247.151 C153.083,247.217 153.132,247.284 153.199,247.35 C153.199,247.684 153.216,248.05 153.249,248.451 L153.199,249.701 C153.199,251.635 153.265,253.334 153.399,254.801 L153.399,257.751 C153.266,258.751 153.116,259.834 152.949,261.001 C153.182,263.734 153.332,267.451 153.399,272.151 L161.799,272.151 C161.599,269.084 161.416,265.284 161.249,260.751 C161.183,258.617 161.115,256.834 161.049,255.401 C160.983,255.401 160.916,255.418 160.849,255.451 L160.049,241.001 L160.049,220.001 C159.716,217.701 159.549,214.168 159.549,209.401 C159.883,204.367 160.133,200.434 160.299,197.601 C160.466,194.534 160.549,192.784 160.549,192.351 C160.549,191.951 160.383,190.684 160.049,188.551 C159.916,187.718 159.816,187.034 159.749,186.501 C159.383,186.468 159.082,186.451 158.849,186.451 L158.249,186.451 C158.217,186.45 158.184,186.467 158.15,186.5 Z M133.95,256.95 C133.95,259.683 134.2,262.516 134.7,265.45 C135.133,268.016 135.383,270.25 135.45,272.15 L135.45,272.9 L135.45,273.95 C136.617,274.016 137.783,274.417 138.95,275.15 L138.95,266.65 C139.95,262.45 140.45,258 140.45,253.299 C139.983,249.233 139.317,247.199 138.45,247.199 C135.95,247.199 134.45,248.799 133.95,251.999 C133.717,253.6 133.717,255.25 133.95,256.95 Z M139.9,282.65 C139.867,281.75 139.8,281.033 139.7,280.5 C139.433,280.233 139.183,280 138.95,279.8 L138.95,279.651 C137.983,278.884 136.35,278.467 134.05,278.401 C134.117,279.8 134.183,281.434 134.25,283.3 C134.283,284.3 134.317,285.384 134.35,286.55 C134.383,288.517 134.416,290.684 134.45,293.05 L134.45,296.25 L134.45,299.8 L134.45,304.85 C134.416,305.784 134.4,306.867 134.4,308.1 L134.4,308.951 C134.767,309.418 135.133,309.901 135.5,310.401 C136.333,311.467 137.183,312.651 138.05,313.951 C138.15,314.084 138.25,314.234 138.35,314.401 L138.15,312.701 C138.084,312.6 138.017,312.534 137.95,312.501 L137.95,303.151 C138.45,300.884 138.85,298.567 139.15,296.201 C139.283,295.1 139.4,294.017 139.5,292.951 C139.633,291.385 139.75,289.817 139.85,288.251 C139.883,288.051 139.916,287.851 139.95,287.651 L139.95,284.701 L139.95,283.576 L139.95,283.251 L139.95,283.051 L139.95,282.652 L139.9,282.652 L139.9,282.65 Z M130.95,276.75 C131.15,276.116 131.433,275.583 131.8,275.15 L93.9,275.15 C98.1,280.349 100.783,283.466 101.95,284.5 C103.783,285.934 108.367,289.017 115.7,293.75 C116.6,293.717 117.9,293.65 119.6,293.55 C120.433,293.484 121.166,293.434 121.8,293.401 C122.433,286.934 124.033,283.701 126.6,283.701 C127.333,283.701 128.783,283.651 130.95,283.551 L130.95,276.75 Z M130.95,286.75 C129.983,286.783 128.9,286.816 127.7,286.85 C127.133,288.583 126.633,290.684 126.2,293.151 L131.05,293.1 C130.984,290.8 130.95,289.534 130.95,289.3 L130.95,286.75 Z M142.5,295.75 C142.4,297.283 142.283,298.917 142.15,300.65 C142.65,300.983 143.25,301.516 143.95,302.25 C144.75,303.083 145.433,303.884 146,304.65 L146.35,304.65 C146.983,304.549 147.3,304.466 147.3,304.4 L192.25,304.4 C192.217,304.033 192.184,303.683 192.15,303.349 C191.65,298.549 189.683,296.066 186.25,295.9 L142.5,295.75 Z M92.75,231.65 C90.45,236.15 89.183,238.733 88.95,239.4 C87.65,242.866 85.617,248.216 82.85,255.45 C82.217,257.016 81.617,258.516 81.05,259.95 C82.45,260.917 84.767,263.5 88,267.7 C89.233,269.3 90.4,270.783 91.5,272.15 L101.4,272.15 L101.4,271.849 C101.267,269.983 101.2,267.766 101.2,265.2 C101.2,263 101.283,261.333 101.45,260.2 L101.45,250.849 C101.283,247.683 101.067,243.816 100.8,239.249 C100.834,238.183 100.867,237.115 100.9,236.049 C100.834,235.716 100.783,235.383 100.75,235.049 C100.65,234.15 100.6,232.499 100.6,230.099 L100.6,228.549 C100.5,228.316 100.45,227.983 100.45,227.549 L100.5,226.449 L100.6,226.449 C100.633,221.515 100.733,218.232 100.9,216.598 C100.933,216.098 100.983,215.632 101.05,215.199 C100.017,217.299 98.767,219.782 97.3,222.649 C95.967,225.215 94.8,227.499 93.8,229.499 C93.433,230.267 93.083,230.983 92.75,231.65 Z M121.55,296.7 C121.15,296.733 120.7,296.75 120.2,296.75 C120.233,296.783 120.266,296.816 120.3,296.85 C120.9,296.984 121.533,297.417 122.2,298.151 C123.666,297.217 125.033,296.85 126.3,297.05 C127.933,297.25 128.817,298.317 128.95,300.25 C129.016,300.283 129.083,300.316 129.15,300.35 C129.35,300.284 129.584,300.217 129.85,300.151 C130.35,300.017 130.8,299.918 131.2,299.85 C131.166,298.55 131.133,297.367 131.1,296.3 L124.4,296.401 C124.133,296.5 123.183,296.6 121.55,296.7 Z M122.75,302.05 C122.217,302.317 121.717,302.667 121.25,303.1 C121.083,303.701 120.833,304.5 120.5,305.5 C119.933,307.066 119.15,309.134 118.15,311.7 C117.417,313.5 116.767,315.099 116.2,316.5 C116.133,316.733 116.083,316.983 116.05,317.25 C115.65,319.884 115.283,321.6 114.95,322.4 C115.583,322.7 116.733,323 118.4,323.299 C118.6,323.332 118.8,323.365 119,323.4 C119.867,318.733 120.583,315.133 121.15,312.599 C121.483,311.2 121.85,309.883 122.25,308.65 C122.617,307.483 123.033,306.4 123.5,305.4 C124.133,303.866 124.867,302.483 125.7,301.25 C124.733,301.316 123.85,301.55 123.05,301.95 C122.95,301.983 122.85,302.017 122.75,302.05 Z M123.3,321.35 C123.2,322.083 123.067,322.75 122.9,323.35 C123.467,323.617 124.1,323.951 124.8,324.35 C125.467,324.951 126.533,325.717 128,326.651 C130.8,328.418 132.933,329.317 134.4,329.35 L134.45,329.35 C135.117,329.284 135.867,329.217 136.7,329.151 C136.766,329.117 136.817,329.1 136.85,329.1 C138.85,328.934 140.117,328.451 140.65,327.651 C140.85,327.35 140.95,327.017 140.95,326.651 C140.95,324.85 138.867,321.017 134.7,315.151 C132.633,312.251 131.083,309.918 130.05,308.151 C129.984,308.05 129.933,307.967 129.9,307.901 C129.167,306.634 128.717,305.668 128.55,305.001 C128.484,304.801 128.45,304.635 128.45,304.501 L128.45,304.401 C128.183,304.234 127.967,304.084 127.8,303.951 C127.633,304.317 127.467,304.718 127.3,305.151 C127.033,305.717 126.734,306.35 126.4,307.05 C126.167,307.55 125.95,308.033 125.75,308.5 C124.35,311.566 123.583,313.566 123.45,314.5 C123.35,315.2 123.3,317.483 123.3,321.35 Z M112.45,324.65 C112.25,330.191 112.15,339.858 112.15,353.65 C112.15,371.516 112.967,381.5 114.6,383.599 C114.4,381.133 114.3,375.166 114.3,365.7 L115.1,334.75 C114.933,331.65 114.833,328.783 114.8,326.15 C113.733,325.816 112.95,325.316 112.45,324.65 Z M182.4,342.45 C181.766,341.983 181.383,341.75 181.25,341.75 C179.116,341.75 177.583,342.15 176.65,342.95 C175.75,343.75 174.849,344.15 173.95,344.15 C172.717,344.15 171.116,343.7 169.15,342.799 C167.216,341.865 164.516,341.4 161.049,341.4 C160.416,341.4 159.049,341.816 156.949,342.65 C156.149,341.983 155.732,341.616 155.699,341.549 C155.532,341.383 155.449,341.166 155.449,340.9 C155.449,338.033 157.449,337.116 161.449,338.15 C162.615,338.45 164.565,339.016 167.299,339.849 C169.799,340.549 171.9,340.9 173.599,340.9 C174.7,340.9 175.733,340.533 176.7,339.799 C177.634,339.032 178.717,338.65 179.95,338.65 C184.316,338.65 186.983,339.599 187.95,341.5 C187.816,342.267 187.65,342.717 187.45,342.85 C187.183,343.05 186.433,343.151 185.2,343.151 C184,343.15 183.066,342.917 182.4,342.45 Z M144.5,307.95 C144.067,307.283 143.383,306.45 142.45,305.45 C142.217,305.217 142.016,305 141.85,304.8 C141.783,305.901 141.717,306.967 141.65,308 C141.55,309.1 141.467,310.167 141.4,311.2 C141.433,311.433 141.45,311.7 141.45,312 C141.45,312.7 141.533,313.75 141.7,315.15 C141.733,315.45 141.766,315.75 141.8,316.049 C143.9,311.582 144.95,309.299 144.95,309.199 C144.95,308.866 144.8,308.45 144.5,307.95 Z M132.4,332.45 C132.7,333.316 132.967,334.3 133.2,335.4 L136.45,335.4 L136.45,333.1 C135.983,333.134 135.483,333.151 134.95,333.151 C133.85,333.15 133,332.917 132.4,332.45 Z M134.95,339.75 C135.016,339.35 135.1,338.983 135.2,338.65 L134.35,338.65 C134.45,338.917 134.567,339.283 134.7,339.75 L134.95,339.75 Z M158.1,353.65 C156.933,354.316 156.134,354.65 155.701,354.65 C154.601,354.65 153.318,354.333 151.851,353.7 C150.651,353.066 150.018,352.75 149.951,352.75 C147.618,352.75 145.051,353.233 142.251,354.2 C139.451,355.167 137.351,355.65 135.951,355.65 C132.684,355.65 130.534,355.4 129.501,354.9 C128.801,354.566 128.451,353.933 128.451,353 C128.451,352.533 128.468,352.283 128.501,352.25 C128.568,352.184 128.634,352.066 128.701,351.9 C129.201,351.799 130.434,351.849 132.401,352.049 C134.634,352.282 135.851,352.4 136.051,352.4 C136.784,352.4 138.818,351.95 142.151,351.049 C145.484,350.115 148.001,349.65 149.701,349.65 C150.468,349.65 151.434,349.95 152.601,350.549 C153.734,351.115 154.634,351.4 155.301,351.4 C156.501,351.4 157.652,351.15 158.751,350.65 C159.885,350.15 161.484,349.9 163.551,349.9 L173.551,349.9 C174.485,349.9 175.718,349.516 177.251,348.75 C177.885,348.55 179.051,348.4 180.751,348.3 C181.817,348.234 182.601,348.267 183.101,348.401 C182.552,348.562 182.194,348.645 182.027,348.651 C182.615,348.651 183.173,348.668 183.702,348.701 C183.733,348.732 183.75,348.791 183.752,348.876 L183.752,348.701 C185.386,348.701 186.469,348.767 187.002,348.901 C187.002,348.934 187.085,349.034 187.252,349.201 C187.386,349.367 187.452,349.701 187.452,350.201 C187.452,350.934 186.219,351.584 183.752,352.151 C181.019,352.817 177.585,353.151 173.452,353.151 C173.052,353.151 172.152,352.951 170.752,352.55 C169.386,352.116 168.485,351.901 168.052,351.901 L160.802,352.651 C160.167,352.65 159.267,352.983 158.1,353.65 Z" id="Shape" fill="#000000" fill-rule="nonzero"></path>
            <path d="M207.95,26.55 C211.316,28.35 213.9,30.734 215.7,33.7 C216.7,35.333 218.033,37.533 219.7,40.3 C217.733,39.7 216.467,39.734 215.9,40.4 C215.733,40.633 215.65,41.117 215.65,41.85 C215.65,42.583 216.483,45.416 218.15,50.35 C218.516,51.483 218.849,52.633 219.15,53.8 C219.116,53.834 219.099,53.867 219.099,53.9 C218.466,53.467 217.849,53.1 217.249,52.8 C216.516,52.4 215.865,52.117 215.299,51.95 C215.299,51.983 215.316,52.033 215.349,52.1 C215.316,52.067 215.283,52.05 215.249,52.05 C214.383,51.817 213.949,52.717 213.949,54.75 C213.949,56.183 214.982,59.183 217.049,63.75 C212.516,64.383 209.999,66.1 209.499,68.9 C209.365,69.6 209.365,70.75 209.499,72.35 C209.599,73.717 209.532,74.683 209.299,75.25 C208.166,74.717 206.966,74.3 205.699,74 L205.549,74.05 C206.082,73.183 207.049,71.667 208.449,69.5 C208.916,68.733 209.432,67.483 209.999,65.75 C210.365,62.45 210.582,60.017 210.649,58.45 C210.582,57.65 210.532,56.967 210.499,56.4 C210.166,54.967 209.966,54.133 209.899,53.9 C208.999,51.9 207.965,50.15 206.798,48.65 C206.665,48.483 206.548,48.317 206.448,48.15 C206.415,48.15 206.398,48.167 206.398,48.2 C205.764,47.367 205.214,46.766 204.748,46.4 L202,44 C201.3,43.367 200.783,42.983 200.45,42.85 C200.25,42.717 200.05,42.583 199.849,42.45 C199.082,41.95 198.416,41.583 197.849,41.35 C197.15,41.083 196.633,41.033 196.299,41.2 C194.9,40.833 193.433,40.633 191.9,40.6 C187.099,40.5 183.033,42 179.7,45.1 C178.033,46.666 176.733,48.483 175.8,50.55 C174.167,47.85 172.783,46.5 171.651,46.5 C170.517,46.5 169.617,47.117 168.951,48.35 C168.418,49.717 168.067,50.533 167.901,50.8 C167.634,50.7 166.751,49.834 165.251,48.2 C163.885,46.733 162.851,46 162.151,46 C161.117,46 159.867,46.667 158.401,48 C156.534,49.733 155.467,50.667 155.201,50.8 C154.634,49.033 154.184,47.734 153.851,46.9 C153.251,45.367 152.184,44.4 150.651,44 C149.918,43.833 148.934,44.683 147.701,46.55 C146.334,48.65 145.251,49.817 144.451,50.05 C144.284,49.05 144.051,48.15 143.751,47.35 C143.184,45.783 142.401,45 141.401,45 C141.168,45 139.768,46.083 137.201,48.25 C135.734,49.483 134.667,50.5 134.001,51.3 C133.268,49.834 132.318,48.55 131.151,47.45 C128.284,44.783 124.684,43.617 120.351,43.95 C118.484,44.083 116.751,44.467 115.151,45.1 C115.184,45.067 115.218,45.033 115.251,45 C113.318,45.867 111.751,46.733 110.551,47.6 C108.818,48.6 107.501,49.817 106.601,51.25 L106.601,51.3 C106.534,51.267 106.484,51.25 106.451,51.25 C106.151,51.783 105.934,52.25 105.801,52.65 C105.534,53.383 105.018,55.067 104.251,57.7 C104.051,58.266 103.868,58.766 103.701,59.2 C103.801,63.9 104.684,67.266 106.351,69.3 C106.851,69.933 107.284,70.65 107.651,71.45 C107.818,71.85 107.984,72.266 108.151,72.7 C107.684,72.9 106.968,73.283 106.001,73.85 C104.501,74.717 103.501,75.15 103.001,75.15 L103.201,74.9 C103.701,72.367 103.934,70.533 103.901,69.4 C103.835,67.133 103.018,66 101.451,66 C100.951,66 100.351,66.117 99.651,66.35 C99.051,66.55 98.734,66.65 98.701,66.65 L98.701,66.4 C99.201,65.133 99.684,63.533 100.151,61.6 C100.684,59.367 100.951,57.6 100.951,56.3 C100.951,54.1 99.384,53.834 96.251,55.5 C96.251,55.4 96.284,55.3 96.351,55.2 C96.384,55.133 96.434,55.067 96.501,55 L96.451,55 C96.751,54.3 97.068,53.55 97.401,52.75 C99.234,48.483 100.151,46.117 100.151,45.65 C100.151,44.85 99.951,44.483 99.551,44.55 C99.418,44.283 99.218,44.05 98.951,43.85 C98.451,43.683 98.201,43.567 98.201,43.5 C98.201,43.333 99.284,41.8 101.451,38.9 C103.584,36.033 104.651,34.45 104.651,34.15 C104.651,33.75 104.585,33.45 104.451,33.25 C104.151,32.75 103.468,32.5 102.401,32.5 C101.934,32.5 101.335,32.633 100.601,32.9 C99.834,33.167 99.351,33.3 99.151,33.3 L99.201,33.25 C99.834,32.717 102.684,30.7 107.751,27.2 C112.018,24.266 114.151,22.583 114.151,22.15 C114.151,21.95 113.984,21.683 113.651,21.35 C113.218,20.983 112.884,20.7 112.651,20.5 C111.018,20.367 109.351,20.133 107.651,19.8 C108.085,19.633 109.451,18.883 111.751,17.55 C114.651,16.35 118.168,15.75 122.301,15.75 C126.501,15.75 129.284,16.05 130.651,16.65 C132.018,17.217 132.768,17.5 132.901,17.5 C133.401,17.5 133.784,17.433 134.051,17.3 L134.401,17.05 C134.401,16.85 134.451,16.667 134.551,16.5 C134.618,16.367 134.651,16.067 134.651,15.6 C134.651,14.867 133.934,13.717 132.501,12.15 C130.868,10.517 129.851,9.483 129.451,9.05 L130.651,8.75 L135.451,8.55 C135.718,8.55 137.318,9.217 140.251,10.55 C143.151,11.85 144.618,12.5 144.651,12.5 C145.384,12.5 145.901,12.183 146.201,11.55 C146.201,11.517 146.218,11.5 146.251,11.5 L146.401,11.5 C147.034,11.5 147.918,10.9 149.051,9.7 C150.284,8.367 151.418,7.55 152.451,7.25 C157.784,5.683 160.484,4.883 160.551,4.85 C163.117,4.183 166.235,3.583 169.902,3.05 L169.452,3.75 C169.185,4.117 167.652,5.25 164.851,7.15 C162.385,8.817 161.152,10.017 161.152,10.75 C161.152,11.25 161.202,11.6 161.301,11.8 C161.367,12.033 161.402,12.183 161.402,12.25 L161.702,12.4 C161.969,12.467 162.368,12.5 162.902,12.5 L175.652,9.25 L188.702,9.25 C189.335,9.417 190.502,9.583 192.202,9.75 L191.15,10 C187.95,11.167 186.233,11.8 186,11.9 C184.767,12.533 184.15,13.4 184.15,14.5 C184.15,15.133 187.75,17.15 194.95,20.55 C198.65,22.283 202.983,24.283 207.95,26.55 Z" id="Shape" fill="#782121"></path>
            <path d="M212.5,173.8 C217.033,176.334 220.55,178.867 223.05,181.4 C224.884,183.233 226.651,185.383 228.35,187.85 C229.917,190.15 231.117,192.267 231.951,194.2 C233.317,197.433 234.834,201.816 236.501,207.349 C236.501,207.383 236.518,207.433 236.551,207.499 C236.751,208.199 237.001,208.999 237.301,209.899 C238.135,212.666 239.185,216.182 240.451,220.449 C241.817,224.749 244.584,233.249 248.751,245.949 C251.984,256.949 253.718,265.682 253.951,272.149 L253.951,273.548 C253.951,274.014 253.934,274.548 253.901,275.149 C253.3,281.949 249.451,297.932 242.35,323.098 C239.317,333.865 236.151,344.732 232.85,355.699 C232.684,356.265 232.517,356.848 232.35,357.449 C230.083,355.515 226.034,353.032 220.201,349.999 C218.301,348.999 216.6,348.149 215.1,347.449 C213.8,346.848 212.667,346.348 211.701,345.949 C210.034,345.282 208.734,344.865 207.801,344.699 C208.668,342.865 209.551,340.916 210.451,338.848 C211.184,337.149 211.934,335.382 212.701,333.548 C215.567,326.382 218.551,317.982 221.651,308.348 C226.817,292.315 229.717,281.248 230.35,275.149 C230.417,274.315 230.451,273.565 230.451,272.899 L230.451,272.149 C230.385,267.315 229.734,262.848 228.501,258.749 C227.801,256.383 225.867,251.449 222.701,243.949 C219.867,237.383 217.034,231.598 214.201,226.598 C214.1,226.399 214.001,226.215 213.901,226.048 C213.334,225.114 212.8,224.232 212.3,223.399 C210.033,219.765 208.1,217.332 206.5,216.098 C206.467,215.232 206.45,214.432 206.45,213.699 C206.45,213.666 206.366,211.182 206.2,206.249 C206.134,203.183 205.083,201.582 203.05,201.449 C202.984,202.449 202.95,203.633 202.95,204.999 L202.95,205.899 C203.05,206.199 203.134,206.565 203.2,206.999 C203.467,208.732 203.55,210.949 203.45,213.649 C203.45,213.848 203.4,216.432 203.3,221.399 C203.434,224.899 203.616,228.298 203.85,231.598 C204.217,236.865 205,246.715 206.201,261.149 C206.468,264.749 206.784,268.416 207.151,272.149 L164.8,272.149 C164.667,270.182 164.55,267.882 164.45,265.249 L164.05,256.249 C163.984,254.249 163.95,251.249 163.95,247.249 C163.816,245.749 163.599,244.933 163.3,244.799 L163.05,218.799 C162.717,216.799 162.55,213.615 162.55,209.249 C162.884,204.249 163.134,200.366 163.3,197.599 C163.467,194.699 163.55,193.032 163.55,192.599 C163.55,191.766 163.017,189.749 161.95,186.549 C162.683,186.549 163.167,186.516 163.4,186.449 C163.533,186.415 163.633,186.349 163.7,186.249 C172.333,185.649 176.65,184.232 176.65,181.999 C176.65,180.199 176,178.632 174.7,177.299 C172.2,174.733 170.683,173.049 170.15,172.249 C173.783,171.382 176.383,170.616 177.95,169.949 C179.917,169.082 180.983,168.149 181.15,167.149 C186.75,167.649 191.016,168.132 193.95,168.599 C201.75,169.799 207.55,171.366 211.349,173.299 L211.349,173.249 C211.717,173.417 212.1,173.6 212.5,173.8 Z M83.4,188.9 C84.533,187.533 86.017,185.717 87.85,183.45 C90.983,179.583 93.6,176.916 95.7,175.45 C103.666,169.883 111,166.433 117.7,165.1 C117.833,165.067 117.983,165.05 118.15,165.05 C118.117,165.15 118.084,165.267 118.05,165.4 C119.283,165.233 121.067,164.967 123.4,164.6 C125.1,164.367 126.467,164.166 127.5,164 C128,164.5 128.733,165.083 129.7,165.75 C131.467,167.05 133.217,167.9 134.95,168.3 C134.883,168.3 134.833,168.317 134.8,168.35 C134.067,169.55 133.033,171.367 131.7,173.8 C129.666,177.633 128.65,180.117 128.65,181.25 C128.65,181.983 129.483,182.733 131.15,183.5 C133.317,184.467 136.533,185.083 140.8,185.35 C141.2,185.45 141.65,185.533 142.15,185.6 C143.017,185.733 144.4,185.933 146.3,186.2 C146.7,186.3 147.15,186.4 147.65,186.5 L148.85,186.5 C148.983,186.5 149.117,186.517 149.25,186.55 L149.3,186.55 C149.334,186.683 149.417,186.834 149.55,187 L149.55,223 L150.05,224.5 L150.05,251.9 C150.117,251.9 150.183,251.917 150.25,251.95 C150.117,257.483 150.033,264.217 150,272.15 L142.4,272.15 C142.5,270.65 142.617,269.016 142.75,267.25 C143.217,261.116 143.45,256.417 143.45,253.15 C143.45,250.116 142.8,247.716 141.5,245.95 C140.3,244.316 138.867,243.599 137.2,243.8 C135.467,244 134.033,245.151 132.9,247.25 C132.667,247.684 132.45,248.167 132.25,248.7 C131.783,248.599 131.2,248.634 130.5,248.8 C128.533,249.234 127.35,250.384 126.95,252.25 L126.95,259 L126.95,263.9 C127.183,267.066 127.933,268.65 129.2,268.65 C130.367,268.65 130.95,268.099 130.95,267 C130.95,266.467 130.85,266.05 130.65,265.75 C130.55,265.616 130.317,265.417 129.95,265.15 L129.95,252.4 C130.45,252.366 130.9,252.316 131.3,252.25 C131.067,253.616 130.95,255.116 130.95,256.75 C130.95,256.816 131.2,260.083 131.7,266.55 C131.933,268.817 132.183,270.684 132.45,272.151 L104.25,272.151 C104.383,269.217 104.45,267.217 104.45,266.151 C104.45,260.651 104.283,256.517 103.95,253.751 L103.95,245.251 C103.983,245.218 104.033,245.218 104.1,245.251 C104.4,240.718 104.55,237.051 104.55,234.251 C104.417,231.817 104.317,229.617 104.25,227.651 C104.683,222.884 104.917,217.234 104.95,210.701 C105.05,209.267 105.1,208.201 105.1,207.501 C105.1,207.034 105.05,206.718 104.95,206.551 C104.883,205.551 104.817,204.867 104.75,204.501 C104.283,202.534 103.2,201.851 101.5,202.451 L101.45,203.751 L101.45,204.851 C100.783,205.118 100.45,205.751 100.45,206.751 C100.45,207.117 97.55,213.651 91.75,226.351 C91.25,227.385 90.75,228.468 90.25,229.601 C89.35,231.468 88.417,233.468 87.45,235.601 C78.783,254.368 74.45,265.568 74.45,269.202 C74.45,269.669 74.483,269.985 74.55,270.152 C74.75,270.618 75.217,270.952 75.95,271.152 C77.183,268.752 78.467,266.002 79.8,262.902 C80.5,265.468 82.35,268.551 85.35,272.152 C86.117,273.118 86.983,274.118 87.95,275.152 C91.783,279.285 96.916,284.002 103.35,289.301 C105.183,290.834 107.983,293.084 111.75,296.051 C112.85,296.885 114.05,297.801 115.35,298.801 C116.017,299.334 116.717,299.885 117.45,300.451 C117.817,300.718 118.183,301.001 118.55,301.301 C118.617,301.367 118.7,301.435 118.8,301.501 L118.85,301.501 L118.8,301.551 C118.7,301.851 118.584,302.152 118.45,302.451 C117.883,303.551 117.217,304.968 116.45,306.701 C114.916,310.201 113.75,313.067 112.95,315.301 C112.416,316.635 112.033,317.751 111.8,318.652 C111.234,318.385 110.867,318.218 110.7,318.152 C110.367,317.985 110.05,317.835 109.75,317.702 C96.517,311.268 84.167,302.868 72.7,292.502 C66.567,286.969 61.883,281.186 58.65,275.152 C58.45,274.785 58.25,274.402 58.05,274.002 C57.75,273.402 57.467,272.785 57.2,272.152 C54.7,266.685 53.45,261.152 53.45,255.551 C53.45,247.218 59.217,232.351 70.75,210.951 C71.083,210.284 71.433,209.635 71.8,209.001 C72.267,208.135 72.734,207.268 73.2,206.401 C74.6,204.034 75.933,201.784 77.2,199.651 C79.533,195.651 81.617,192.068 83.45,188.901 L83.4,188.901 L83.4,188.9 Z" id="Shape" fill="#199F66"></path>
            <path d="M212.55,360.6 C213.151,361 213.75,361.384 214.35,361.75 C215.517,362.517 216.651,363.217 217.75,363.85 C218.384,364.217 219,364.583 219.6,364.951 C219.701,365.584 219.85,366.484 220.05,367.651 C220.35,370.117 220.283,372.284 219.85,374.151 C218.817,378.651 215.75,381.418 210.651,382.451 C209.684,382.617 208.651,382.751 207.55,382.85 C206.884,382.884 206.184,382.901 205.45,382.901 C202.717,382.901 200.717,382.451 199.45,381.55 C198.45,380.817 197.95,379.866 197.95,378.7 C197.95,378 199.2,375.4 201.7,370.9 C202.7,369.133 203.7,367.383 204.7,365.65 C204.933,365.183 205.183,364.716 205.45,364.25 C205.45,363.917 205.316,363.55 205.05,363.15 C204.817,362.783 204.517,362.533 204.151,362.4 C203.817,362.233 203.418,362.15 202.951,362.15 C198.784,362.316 196.484,362.4 196.051,362.4 C195.985,362.133 195.951,361.716 195.951,361.15 C195.951,359.783 197.867,358.583 201.701,357.549 C202.234,357.416 202.734,357.266 203.201,357.099 C204.267,356.766 205.135,356.433 205.801,356.099 C205.935,356.166 206.068,356.266 206.201,356.4 C207.934,357.566 210.05,358.967 212.55,360.6 Z M151.95,51.85 C152.817,53.617 153.967,54.5 155.4,54.5 C157.3,54.5 159.483,52.85 161.95,49.55 C162.316,49.883 163.099,50.917 164.3,52.65 C165.6,54.217 166.884,55 168.151,55 C169.35,55 170.184,54.383 170.651,53.15 C171.251,51.584 171.584,50.783 171.651,50.75 C171.751,50.817 172.168,51.383 172.901,52.45 C173.334,53.117 173.967,53.467 174.8,53.5 C174.366,55.233 174.151,57.1 174.151,59.1 C174.151,62.1 174.984,65.067 176.651,68 C179.684,73.333 184.767,76 191.901,76 C195.334,76 198.3,75.467 200.8,74.4 C200.833,74.834 200.884,75.4 200.95,76.1 L200.95,76.2 C200.65,77.433 200.433,78.783 200.3,80.25 C199.901,85.483 199.684,88.167 199.651,88.3 C199.85,90.234 199.434,93.05 198.401,96.75 C197.401,100.45 196.984,103.283 197.151,105.25 C196.384,109.083 195.434,115.267 194.3,123.8 C193.667,128.533 192.833,131.633 191.8,133.1 C190.567,134.867 188.083,135.95 184.35,136.35 C182.384,136.583 177.884,136.717 170.85,136.75 C170.717,136.717 170.583,136.683 170.451,136.65 L168.451,136.6 C168.385,136.6 168.317,136.583 168.251,136.55 C165.685,136.617 162.501,136.617 158.701,136.55 C149.468,136.45 140.534,135.85 131.901,134.75 C127.335,134.183 123.751,133.367 121.151,132.3 C120.085,131.834 118.835,130.567 117.401,128.5 C116.034,126.5 115.284,124.933 115.151,123.8 C114.051,115.133 113.301,108.783 112.901,104.75 C112.601,102.05 112.384,98.85 112.251,95.15 C112.118,90.917 112.001,87.717 111.901,85.55 C111.901,84.984 111.884,84.45 111.851,83.95 L111.951,78.25 C111.951,76.783 111.901,75.533 111.801,74.5 C113.934,75.833 116.518,76.5 119.551,76.5 C126.518,76.5 131.318,74.267 133.951,69.8 C135.351,67.433 136.051,64.584 136.051,61.25 C136.051,58.717 135.768,56.45 135.201,54.45 C135.767,54.217 136.718,53.483 138.051,52.25 C139.751,50.65 140.701,49.817 140.901,49.75 C141.268,50.117 141.585,50.967 141.851,52.3 C142.318,53.433 143.334,54 144.901,54 C145.835,54 146.984,53.183 148.351,51.55 C149.051,50.683 149.834,49.683 150.701,48.55 C150.867,48.817 151.283,49.917 151.95,51.85 Z M136.55,90.35 C136.55,88.15 135.584,86.283 133.65,84.75 C131.883,83.317 129.767,82.517 127.3,82.35 C124.767,82.183 122.65,82.75 120.95,84.05 C119.016,85.584 118.05,87.817 118.05,90.75 C118.05,91.217 118.1,91.717 118.2,92.25 C118.367,93.35 118.7,94.35 119.2,95.25 C120.666,98.083 123.283,99.5 127.05,99.5 C133.383,99.5 136.55,96.45 136.55,90.35 Z M161.4,78.65 C160.266,79.75 158.599,80.3 156.4,80.3 C154.8,80.3 153.483,79.8 152.45,78.8 C151.383,77.8 150.367,77.283 149.4,77.25 C149.334,77.417 149.267,77.533 149.2,77.6 C149.166,77.633 149.15,77.883 149.15,78.35 C149.15,78.85 149.65,79.733 150.65,81 C151.983,82.667 153.483,83.5 155.15,83.5 C157.817,83.5 160.333,82.933 162.7,81.8 C165,80.7 166.15,79.6 166.15,78.5 C166.15,78 166.083,77.667 165.95,77.5 C165.783,77.367 165.7,77.283 165.7,77.25 C165.5,77.083 164.983,77 164.15,77 C163.417,77 162.5,77.55 161.4,78.65 Z M180.05,89.85 C180.05,89.916 180.217,91.133 180.55,93.5 C181.583,95.833 183.833,97 187.3,97 C190.434,97 192.634,95.833 193.901,93.5 C194.668,92.1 195.05,90.383 195.05,88.35 C195.05,86.717 194.267,85.367 192.7,84.3 C191.266,83.334 189.55,82.85 187.55,82.85 C185.484,82.85 183.767,83.4 182.401,84.5 C180.833,85.767 180.05,87.55 180.05,89.85 Z M167.35,140 C168.184,139.933 168.967,139.85 169.701,139.75 L169.701,140 L170.401,140 C169.834,141.533 169.418,143.2 169.151,145 C168.884,146.9 168.634,149.5 168.401,152.8 C168.234,155.433 168.151,157.25 168.151,158.25 L168.151,160.25 C166.951,161.917 165.434,164.317 163.6,167.45 C159.134,175.083 156.484,179.367 155.65,180.3 C152.55,174.5 150.15,170.133 148.45,167.2 C146.75,164.266 145.15,161.883 143.65,160.05 L143.65,159.85 C143.317,154.783 143.15,151 143.15,148.5 C143.25,145.933 143.233,143.933 143.1,142.5 C142.967,141.067 142.517,140.05 141.75,139.45 C147.283,140.117 152.917,140.416 158.65,140.35 C161.917,140.317 164.716,140.217 167.049,140.05 C166.922,140.018 166.822,140.002 166.749,140 C166.953,140 167.153,140 167.35,140 Z M179.05,100.75 C179.05,101.283 179.184,101.767 179.45,102.2 C179.583,102.467 179.833,102.833 180.2,103.3 C177.433,105.967 174.266,108.417 170.7,110.65 C163.667,115.05 156.7,117.25 149.8,117.25 C145.1,117.25 141.984,116.8 140.45,115.9 C140.283,115.8 139.9,115.483 139.3,114.95 C138.967,114.65 138.55,114.5 138.05,114.5 C137.55,114.5 137.2,114.583 137,114.75 L136.7,115 L136.65,115.1 C136.584,115.233 136.55,115.567 136.55,116.1 C136.55,117.133 137.267,118.017 138.7,118.75 C140.9,119.917 144.6,120.5 149.8,120.5 C157.567,120.5 164.901,118.317 171.8,113.95 C175.401,111.717 178.866,109.083 182.2,106.05 L182.45,106.5 C182.55,106.767 182.5,107.533 182.3,108.8 C182.333,109.933 182.917,110.5 184.05,110.5 C184.55,110.5 184.917,110.383 185.151,110.15 L185.451,109.8 C185.517,109.1 185.551,108.283 185.551,107.35 C185.551,106.217 184.468,104.067 182.301,100.9 C180.134,97.7 179.05,97.65 179.05,100.75 Z M123.3,321.35 C123.3,317.484 123.35,315.201 123.45,314.5 C123.583,313.566 124.35,311.566 125.75,308.5 C125.95,308.033 126.167,307.55 126.4,307.05 C126.733,306.35 127.033,305.717 127.3,305.151 C127.467,304.717 127.633,304.317 127.8,303.951 C127.967,304.084 128.183,304.234 128.45,304.401 L128.45,304.501 C128.45,304.635 128.483,304.801 128.55,305.001 C128.717,305.668 129.167,306.635 129.9,307.901 C129.933,307.967 129.983,308.05 130.05,308.151 C131.084,309.918 132.633,312.251 134.7,315.151 C138.867,321.017 140.95,324.85 140.95,326.651 C140.95,327.017 140.85,327.35 140.65,327.651 C140.117,328.451 138.85,328.934 136.85,329.1 C136.817,329.1 136.767,329.117 136.7,329.151 C135.867,329.217 135.117,329.284 134.45,329.35 L134.4,329.35 C132.933,329.317 130.8,328.417 128,326.651 C126.533,325.717 125.467,324.951 124.8,324.35 C124.1,323.951 123.467,323.617 122.9,323.35 C123.067,322.75 123.2,322.083 123.3,321.35 Z M144.5,307.95 C144.8,308.45 144.95,308.866 144.95,309.2 C144.95,309.3 143.9,311.583 141.8,316.05 C141.767,315.75 141.734,315.45 141.7,315.151 C141.533,313.751 141.45,312.701 141.45,312.001 C141.45,311.701 141.433,311.435 141.4,311.201 C141.467,310.168 141.55,309.1 141.65,308.001 C141.717,306.968 141.783,305.901 141.85,304.801 C142.017,305.001 142.217,305.218 142.45,305.451 C143.383,306.45 144.067,307.283 144.5,307.95 Z" id="Shape" fill="#FFD9AF"></path>
            <path d="M136.55,90.35 C136.55,96.45 133.383,99.5 127.05,99.5 C123.283,99.5 120.667,98.083 119.2,95.25 C118.7,94.35 118.367,93.35 118.2,92.25 C118.1,91.717 118.05,91.217 118.05,90.75 C118.05,87.817 119.017,85.583 120.95,84.05 C122.65,82.75 124.766,82.183 127.3,82.35 C129.767,82.517 131.883,83.317 133.65,84.75 C135.583,86.283 136.55,88.15 136.55,90.35 Z M180.05,89.85 C180.05,87.55 180.833,85.767 182.401,84.5 C183.767,83.4 185.484,82.85 187.55,82.85 C189.55,82.85 191.267,83.333 192.7,84.3 C194.266,85.367 195.05,86.717 195.05,88.35 C195.05,90.383 194.667,92.1 193.901,93.5 C192.634,95.833 190.434,97 187.3,97 C183.833,97 181.583,95.833 180.55,93.5 C180.217,91.133 180.05,89.917 180.05,89.85 Z" id="Shape" fill="#FFA78A"></path>
            <path d="M231.15,361.4 C230.75,362.667 230.349,363.95 229.95,365.25 C226.016,363.384 221.667,361.083 216.9,358.35 C216.766,358.284 216.616,358.201 216.45,358.1 C215.384,357.5 214.384,356.934 213.45,356.401 C209.683,354.267 207.016,352.767 205.45,351.901 C204.95,351.634 204.566,351.418 204.3,351.251 C204.567,350.784 204.833,350.317 205.1,349.851 C205.567,349.018 206.05,348.135 206.55,347.202 C206.75,346.802 206.95,346.402 207.151,346.002 C208.184,346.602 209.884,347.669 212.251,349.202 C213.284,349.902 214.468,350.685 215.801,351.552 C216.635,352.118 217.551,352.736 218.551,353.403 C224.684,357.5 228.884,360.167 231.15,361.4 Z M158.15,186.5 C158.183,186.467 158.216,186.45 158.25,186.45 L158.85,186.45 C159.083,186.45 159.384,186.467 159.75,186.5 C159.816,187.033 159.917,187.717 160.05,188.55 C160.384,190.683 160.55,191.95 160.55,192.35 C160.55,192.783 160.467,194.533 160.3,197.6 C160.134,200.433 159.884,204.366 159.55,209.4 C159.55,214.167 159.717,217.7 160.05,220 L160.05,241 L160.85,255.45 C160.917,255.417 160.984,255.4 161.05,255.4 C161.116,256.833 161.184,258.616 161.25,260.75 C161.417,265.283 161.6,269.083 161.8,272.15 L153.4,272.15 C153.334,267.45 153.183,263.733 152.95,261 C153.117,259.833 153.266,258.75 153.4,257.75 L153.4,254.8 C153.267,253.333 153.2,251.634 153.2,249.7 L153.25,248.45 C153.217,248.05 153.2,247.683 153.2,247.349 C153.133,247.283 153.083,247.216 153.05,247.15 L153.05,223.55 C152.85,223.151 152.683,222.651 152.55,222.05 L152.55,186.5 L158.15,186.5 Z M160.3,182.55 C159.866,182.65 159.55,182.7 159.35,182.7 C159.25,182.7 159.184,182.683 159.151,182.65 C158.584,182.683 158.017,182.733 157.451,182.8 C158.951,180.867 161.367,177.383 164.701,172.35 C166.968,168.883 168.751,166.1 170.051,164 C170.084,163.967 170.117,163.95 170.152,163.95 C170.252,163.783 170.368,163.583 170.502,163.35 C171.068,162.383 171.519,161.9 171.852,161.9 C171.953,161.9 172.302,162.267 172.903,163 C173.036,163.1 173.17,163.217 173.302,163.35 C174.936,164.783 176.052,165.767 176.653,166.3 C176.686,166.4 176.719,166.467 176.753,166.5 C176.819,166.6 176.853,166.683 176.853,166.75 C176.954,166.75 177.053,166.767 177.154,166.8 C174.687,167.933 171.671,169.117 168.103,170.35 C167.47,170.583 167.154,171.217 167.154,172.25 C167.154,173.683 167.887,175.033 169.353,176.3 C171.22,177.933 172.487,179.584 173.154,181.25 C169.853,181.683 165.587,182.117 160.353,182.55 L160.3,182.55 L160.3,182.55 Z M137.55,159.75 C138.283,159.383 138.933,159.017 139.5,158.65 C139.633,159.717 141.017,162.05 143.65,165.65 C144.483,167.283 145.483,169.2 146.65,171.4 C149.05,175.967 151.017,179.35 152.55,181.55 C152.183,181.517 151.8,181.5 151.4,181.5 C143,181.233 136.584,180.833 132.15,180.3 C132.683,178.967 134.133,176.25 136.5,172.15 C138.067,169.383 139.05,167.567 139.45,166.7 C139.483,166.567 139.5,166.483 139.5,166.45 C139.5,166.05 138.9,165.6 137.7,165.1 C137,164.8 136.5,164.666 136.2,164.7 C136,164.633 135.783,164.567 135.55,164.5 C133.117,163.767 131.617,163.117 131.05,162.55 C131.95,162.15 134.117,161.217 137.55,159.75 Z M122.75,302.05 C122.85,302.017 122.95,301.984 123.05,301.95 C123.85,301.55 124.734,301.316 125.7,301.25 C124.867,302.483 124.133,303.866 123.5,305.4 C123.033,306.4 122.617,307.483 122.25,308.65 C121.85,309.883 121.483,311.2 121.15,312.599 C120.584,315.133 119.867,318.733 119,323.4 C118.8,323.366 118.6,323.333 118.4,323.299 C116.733,322.999 115.584,322.699 114.95,322.4 C115.283,321.599 115.65,319.883 116.05,317.25 C116.084,316.983 116.133,316.733 116.2,316.5 C116.766,315.1 117.416,313.5 118.15,311.7 C119.15,309.134 119.933,307.066 120.5,305.5 C120.833,304.5 121.083,303.7 121.25,303.1 C121.717,302.667 122.217,302.316 122.75,302.05 Z" id="Shape" fill="#097A4A"></path>
            <path d="M139.9,282.65 C139.925,282.925 139.942,283.234 139.95,283.575 L139.95,284.7 L139.95,287.65 C139.916,287.849 139.883,288.049 139.85,288.25 C139.75,289.816 139.633,291.384 139.5,292.95 C139.4,294.016 139.283,295.099 139.15,296.2 C138.85,298.566 138.45,300.884 137.95,303.15 L137.95,312.5 C138.016,312.533 138.083,312.6 138.15,312.7 L138.35,314.4 C138.25,314.233 138.15,314.083 138.05,313.95 C137.183,312.65 136.334,311.467 135.5,310.4 C135.133,309.9 134.767,309.417 134.4,308.95 L134.4,308.099 C134.4,306.866 134.417,305.783 134.45,304.849 L134.45,299.799 L134.45,296.249 L134.45,293.049 C134.416,290.683 134.383,288.516 134.35,286.549 C134.317,285.383 134.283,284.299 134.25,283.299 C134.183,281.433 134.117,279.799 134.05,278.4 C136.35,278.466 137.984,278.883 138.95,279.65 L138.95,279.799 C139.183,279.999 139.433,280.233 139.7,280.499 C139.8,281.033 139.867,281.75 139.9,282.65 Z M133.95,256.95 C133.717,255.25 133.717,253.599 133.95,252 C134.45,248.8 135.95,247.2 138.45,247.2 C139.317,247.2 139.983,249.233 140.45,253.3 C140.45,258 139.95,262.45 138.95,266.651 L138.95,275.151 C137.783,274.418 136.617,274.017 135.45,273.951 L135.45,272.901 L135.45,272.151 C135.383,270.251 135.133,268.017 134.7,265.451 C134.2,262.517 133.95,259.684 133.95,256.95 Z M132.4,332.45 C133,332.917 133.85,333.15 134.95,333.15 C135.483,333.15 135.983,333.133 136.45,333.099 L136.45,335.4 L133.2,335.4 C132.967,334.3 132.7,333.316 132.4,332.45 Z" id="Shape" fill="#CCCCCC"></path>
        </g>
    </g>
</svg>