<?xml version="1.0" encoding="UTF-8"?>
<svg width="549px" height="364px" viewBox="0 0 549 364" version="1.1" xmlns="http://www.w3.org/2000/svg" xmlns:xlink="http://www.w3.org/1999/xlink">
    <!-- Generator: Sketch 43.2 (39069) - http://www.bohemiancoding.com/sketch -->
    <title>Group</title>
    <desc>Created with Sketch.</desc>
    <defs></defs>
    <g id="Page-1" stroke="none" stroke-width="1" fill="none" fill-rule="evenodd">
        <g id="Group">
            <path d="M538.75,15.5 C538.917,15.867 538.9,16.517 538.7,17.45 L534.1,17.45 C534.034,17.416 533.951,17.383 533.85,17.35 L533.651,17.4 L530.6,17.4 L530.6,17.45 L514.3,17.45 L511.7,17.75 L456.3,17.45 L450.7,17.75 L409.2,17.75 C382.967,16.517 360.333,15.583 341.3,14.95 L318.45,14.75 L315.8,14.45 L281.8,14.45 L279.55,14.75 L277.25,14.75 C277.217,14.683 277.2,14.617 277.2,14.55 L276.349,14.55 L276.2,14.5 L272.1,14.5 C270.8,14.533 269.701,14.583 268.8,14.65 C268.5,14.683 268.2,14.717 267.901,14.75 L267.251,14.75 C267.051,14.783 266.868,14.8 266.701,14.8 C266.501,14.834 266.067,14.9 265.401,15 C262.967,15.567 261.534,15.883 261.1,15.95 L261,15.85 C260.4,15.983 260,16.05 259.8,16.05 L259.651,16.05 C259.118,16.183 258.6,16.35 258.1,16.55 C258.134,15.984 258.201,15.383 258.3,14.75 C258.434,13.95 258.917,13.3 259.75,12.8 C259.85,12.4 260.434,12.067 261.5,11.8 C261.533,11.633 261.65,11.55 261.85,11.55 C261.884,11.55 261.984,11.584 262.151,11.65 C264.017,11.217 266.918,10.9 270.85,10.7 L279.651,10.65 L279.951,10.55 L283.551,10.5 L283.851,10.45 L290.101,10.45 L290.251,10.5 L291.451,10.5 C293.784,10.333 295.017,10.233 295.151,10.2 L322.8,9.95 C327.867,9.317 331.151,9 332.651,9 C333.484,9 337.368,9.15 344.3,9.45 L366.4,9.7 L367.299,9.95 L406.55,10 C407.017,10.067 408.6,10.233 411.3,10.5 C413.901,10.7 415.401,10.85 415.8,10.95 L429.9,11.2 C430.266,11.3 440.7,11.416 461.2,11.55 C471.467,11.617 481.7,11.667 491.9,11.7 C492.2,11.8 494.183,11.933 497.849,12.1 C501.516,12.267 503.483,12.383 503.749,12.45 L516.899,12.7 C523.298,14.5 528.548,15.467 532.649,15.6 C534.75,15.7 536.783,15.667 538.75,15.5 Z M485.075,363.4 C481.472,352.739 479.131,345.556 478.05,341.849 C472.45,323.349 468.45,309.7 466.05,300.9 C463.717,291.866 461.917,285.016 460.651,280.349 C458.451,272.082 456.501,265.332 454.8,260.099 C454.067,257.799 453.283,254.366 452.45,249.799 C451.516,244.733 450.8,241.266 450.3,239.4 C449.967,237.7 449.583,236.066 449.151,234.5 L449.151,234.4 C449.118,234.132 449.084,233.866 449.05,233.599 C448.984,233.099 448.867,232.616 448.7,232.15 C448.667,232.083 448.65,232.033 448.65,232 C448.816,231.967 449,231.95 449.2,231.95 C450.3,231.883 451.4,231.816 452.5,231.75 C452.533,232.017 452.634,232.483 452.8,233.15 L452.651,233.15 C455.284,246.116 461.684,269.45 471.85,303.15 C477.447,321.713 483.646,341.797 490.451,363.4 L485.075,363.4 Z M307.025,363.4 C307.97,357.885 312.095,345.968 319.4,327.65 C328.099,306.65 332.733,295.382 333.299,293.849 C336.299,285.816 338.549,279.799 340.049,275.799 C342.749,268.666 345.199,262.782 347.4,258.15 C348.466,255.882 350.133,252.833 352.4,249 C354.766,244.967 356.4,242.017 357.299,240.15 C357.532,239.65 358.016,238.183 358.749,235.75 C358.883,235.35 359.016,234.983 359.149,234.65 C360.048,234.616 362.382,234.566 366.149,234.5 L366.548,234.5 C345.285,283.068 328.436,326.035 315.998,363.4 L307.025,363.4 Z M262.2,12.45 C262.136,12.482 262.086,12.499 262.05,12.5 L262.3,12.5 C262.267,12.467 262.233,12.45 262.2,12.45 Z" id="Shape" fill="#4F4F4F"></path>
            <path d="M538.75,15.5 C536.783,15.667 534.75,15.7 532.65,15.6 C528.549,15.467 523.299,14.5 516.9,12.7 L503.75,12.45 C503.483,12.383 501.517,12.266 497.85,12.1 C494.184,11.933 492.201,11.8 491.901,11.7 C481.701,11.666 471.467,11.617 461.201,11.55 C440.701,11.417 430.267,11.3 429.901,11.2 L415.8,10.95 C415.401,10.85 413.901,10.7 411.3,10.5 C408.6,10.233 407.017,10.067 406.55,10 L367.3,9.95 L366.4,9.7 L344.3,9.45 C337.367,9.15 333.484,9 332.651,9 C331.151,9 327.868,9.317 322.8,9.95 L295.15,10.2 C295.016,10.233 293.783,10.333 291.45,10.5 L290.25,10.5 L290.1,10.45 L283.85,10.45 L283.55,10.5 L279.95,10.55 L279.65,10.65 L270.849,10.7 C266.916,10.9 264.016,11.217 262.15,11.65 C261.983,11.584 261.883,11.55 261.849,11.55 C261.65,11.55 261.533,11.633 261.499,11.8 C260.433,12.067 259.849,12.4 259.749,12.8 C258.916,13.3 258.433,13.95 258.299,14.75 C258.199,15.383 258.133,15.983 258.099,16.55 C258.599,16.35 259.117,16.183 259.65,16.05 L259.799,16.05 C259.999,16.05 260.4,15.984 260.999,15.85 L261.099,15.95 C261.533,15.883 262.966,15.567 265.4,15 C266.066,14.9 266.5,14.833 266.7,14.8 C266.867,14.8 267.05,14.783 267.25,14.75 L267.9,14.75 C268.2,14.717 268.5,14.683 268.799,14.65 C269.699,14.584 270.799,14.533 272.099,14.5 L276.2,14.5 L276.349,14.55 L277.2,14.55 C277.2,14.617 277.217,14.683 277.25,14.75 L279.55,14.75 L281.8,14.45 L315.8,14.45 L318.45,14.75 L341.3,14.95 C360.333,15.583 382.967,16.516 409.2,17.75 L450.7,17.75 L456.3,17.45 L511.7,17.75 L514.3,17.45 L530.6,17.45 L530.6,17.4 L533.651,17.4 L533.85,17.35 C533.951,17.383 534.034,17.416 534.1,17.45 L538.701,17.45 C538.9,16.517 538.917,15.867 538.75,15.5 Z M540.45,20.7 C539.75,20.7 538.983,20.717 538.15,20.75 C537.716,20.683 537.216,20.633 536.65,20.6 L527.549,20.6 C527.516,20.567 527.499,20.517 527.499,20.45 L513.449,20.5 L510.799,20.95 L411.299,20.95 C404.933,20.583 382.766,19.6 344.799,18 L319.299,17.95 L316.699,17.5 L281.049,17.5 L278.799,17.95 L272.749,17.95 C268.549,18.516 265.232,19.067 262.799,19.6 C262.532,19.666 262.266,19.733 261.999,19.8 C261.799,19.867 261.582,19.95 261.349,20.05 L261.349,19.85 C260.849,19.983 260.45,20.1 260.15,20.2 C259.617,20.367 259.099,20.55 258.599,20.75 C255.733,22.55 254.299,24.317 254.299,26.05 C254.299,29.584 254.816,32.05 255.849,33.45 C256.95,34.95 258.783,36.033 261.349,36.7 C262.983,37.1 264.9,37.35 267.099,37.45 L293.299,37.2 L294.299,36.95 L307.299,36.7 L308.299,36.45 L332.699,36.25 C338.666,35.55 346.032,35.117 354.799,34.95 L478.299,34.95 C479.666,35.016 483.849,35.233 490.849,35.6 C495.216,35.833 499.7,36.033 504.299,36.2 L521.049,36.75 L536.749,36.7 C536.716,36.666 536.716,36.65 536.749,36.65 L539.549,36.65 L539.849,36.65 L539.849,36.7 C542.416,36.567 544.082,36.05 544.849,35.15 C545.15,34.783 545.299,34 545.299,32.8 C545.299,30.867 544.933,28.883 544.199,26.85 C543.333,24.517 542.083,22.467 540.45,20.7 Z M316,363.4 C328.438,326.035 345.287,283.068 366.55,234.5 L366.151,234.5 C362.384,234.566 360.05,234.616 359.151,234.65 C359.017,234.983 358.884,235.349 358.751,235.75 C358.018,238.184 357.534,239.65 357.301,240.15 C356.402,242.016 354.768,244.966 352.402,249 C350.135,252.833 348.468,255.883 347.402,258.15 C345.202,262.783 342.752,268.667 340.051,275.799 C338.551,279.799 336.301,285.816 333.301,293.849 C332.735,295.382 328.101,306.65 319.402,327.65 C312.097,345.968 307.972,357.885 307.027,363.4 L304.051,363.4 C305.095,357.008 309.595,343.875 317.551,324 C326.718,302.033 331.334,290.983 331.402,290.85 C331.935,289.583 334.285,283.317 338.452,272.05 C341.386,264.083 344.119,257.85 346.652,253.35 C350.051,247.184 353.101,240.934 355.801,234.6 C355.902,234.401 355.985,234.201 356.051,234 L350.201,234 C349.468,234.033 348.784,234.066 348.151,234.1 C348.084,234.167 348.017,234.25 347.951,234.35 C347.418,234.284 346.885,234.234 346.35,234.201 C339.583,234.534 336.184,234.701 336.151,234.701 L330.55,234.701 C329.917,234.801 329.317,234.918 328.75,235.051 C328.417,235.117 328.117,235.201 327.85,235.301 C327.05,235.168 326.5,235.068 326.201,235.001 L313.451,235.001 C313.051,235.101 311.984,235.201 310.251,235.301 C308.651,235.402 307.501,235.451 306.801,235.451 L268.801,234.951 C267.902,234.718 264.235,234.384 257.801,233.951 C255.768,232.284 254.584,229.551 254.251,225.751 C254.284,221.251 254.301,218.001 254.301,216.001 C254.301,214.234 254.485,212.968 254.851,212.201 C254.885,207.067 254.952,200.534 255.051,192.6 C255.218,180.8 255.301,171.967 255.301,166.1 C255.635,160.367 255.635,156 255.301,153 L255.301,130.5 C256.101,123.467 256.584,116.15 256.751,108.55 C256.784,106.75 256.801,99.683 256.801,87.35 C256.801,84.983 257.218,79.267 258.051,70.2 C258.885,61.133 259.301,51.75 259.301,42.05 C259.301,41.517 259.418,41.017 259.652,40.55 C256.518,39.484 254.252,37.55 252.851,34.75 C251.818,32.75 251.301,30.017 251.301,26.55 C251.301,23.45 251.885,21.183 253.051,19.75 C253.518,19.183 254.101,18.65 254.801,18.15 C254.868,15.617 255.402,13.45 256.402,11.65 C258.235,8.317 261.351,7.117 265.752,8.05 L269.1,8 C269.767,8 270.1,7.983 270.1,7.95 L279.85,7.95 C284.317,7.65 289.467,7.317 295.3,6.95 L323.8,6.75 C325.134,6.583 328.467,6.333 333.8,6 C333.8,5.967 335.35,5.967 338.45,6 C341.583,6.033 343.367,6.1 343.8,6.2 C358.8,6.367 366.583,6.533 367.151,6.7 L405.8,6.95 C406.267,7.016 407.934,7.15 410.8,7.35 C413.533,7.517 415.067,7.65 415.401,7.75 C424.967,7.883 430.05,8.033 430.651,8.2 L491.751,8.45 C492.051,8.55 494.034,8.683 497.701,8.85 C501.368,9.017 503.35,9.133 503.651,9.2 L516.751,9.45 C529.418,10.383 537.168,11.383 540.001,12.45 C541.135,12.883 541.751,13.4 541.851,14 C541.952,14.367 541.918,14.967 541.751,15.8 C541.751,16.5 541.668,17.117 541.501,17.65 C544.234,20.45 546.084,23.017 547.051,25.35 C547.885,27.35 548.301,29.833 548.301,32.8 C548.301,35.234 548.084,36.75 547.652,37.35 C546.518,38.916 544.002,39.783 540.101,39.95 C540.168,41.25 540.235,42.166 540.301,42.7 L540.301,63.7 L539.801,65.2 L539.801,103.75 L540.301,105.25 L540.301,124.75 L539.801,126.25 L539.801,152.2 C539.935,153.8 540.301,159.833 540.902,170.3 C541.335,177.866 541.801,183.934 542.301,188.5 L542.301,208.45 C543.301,211.483 543.801,215.849 543.801,221.55 C543.801,222.05 543.784,222.35 543.751,222.45 C543.651,222.717 543.584,222.9 543.551,223 L543.301,223.25 C543.135,223.383 542.801,223.45 542.301,223.45 C542.001,223.45 541.735,223.349 541.501,223.15 C540.534,224.016 538.817,224.766 536.351,225.4 C534.018,226 524.168,227.516 506.801,229.95 L483.55,230 C476.651,230.2 467.85,230.667 457.151,231.4 C457.251,231.933 457.251,232.5 457.151,233.099 L457.151,235.099 C457.151,235.2 457.134,235.299 457.1,235.4 C457.234,236.433 457.384,237.583 457.55,238.849 C458.783,246.183 460.283,252.933 462.05,259.099 C463.35,263.599 465.283,270.366 467.85,279.4 C470.151,287.266 472.267,294 474.201,299.599 C478.135,311.099 482.968,326.033 488.701,344.4 C491.038,351.898 492.972,358.231 494.501,363.4 L490.451,363.4 C483.646,341.797 477.447,321.713 471.85,303.15 C461.684,269.45 455.284,246.116 452.651,233.15 L452.8,233.15 C452.634,232.483 452.533,232.016 452.5,231.75 C451.4,231.816 450.3,231.883 449.2,231.95 C449,231.95 448.816,231.967 448.65,232 C448.65,232.033 448.667,232.083 448.7,232.15 C448.867,232.616 448.983,233.099 449.05,233.599 C449.083,233.866 449.117,234.132 449.151,234.4 L449.151,234.5 C449.584,236.066 449.967,237.7 450.3,239.4 C450.8,241.266 451.517,244.733 452.45,249.799 C453.283,254.365 454.066,257.799 454.8,260.099 C456.5,265.332 458.45,272.082 460.651,280.349 C461.918,285.016 463.717,291.866 466.05,300.9 C468.45,309.7 472.45,323.349 478.05,341.849 C479.131,345.556 481.473,352.739 485.075,363.4 L480.075,363.4 C479.123,360.298 478.114,356.848 477.05,353.049 C470.651,328.249 466.234,311.766 463.8,303.599 C460.533,292.433 456.217,276.882 450.85,256.95 C448.184,247.116 446.151,239.45 444.75,233.95 L444.95,233.95 C444.65,233.283 444.417,232.733 444.25,232.3 C439.55,232.6 434.6,232.866 429.4,233.1 C426.799,232.734 423.766,232.667 420.299,232.901 C417.433,233.067 414.866,233.418 412.599,233.951 C412.566,233.85 412.549,233.767 412.549,233.701 C409.383,233.801 406.133,233.884 402.799,233.951 L381.1,234 C376.434,234.2 373.868,234.35 373.401,234.45 C372.401,234.45 371.401,234.467 370.401,234.5 C368.368,239.467 365.567,246.167 362.001,254.6 C357.534,265.1 351.168,279.951 342.901,299.151 C337.168,312.751 330.734,330.168 323.6,351.401 C322,356.169 320.6,360.169 319.401,363.401 L316,363.401 L316,363.4 Z M536.95,39.95 L522.3,39.95 L518.55,39.5 L504.8,39.45 C502.667,39.35 498.367,39.117 491.901,38.75 C487.501,38.483 483.134,38.3 478.8,38.2 L354.45,38 C353.45,38.367 351.25,38.65 347.849,38.85 C345.95,38.95 340.766,39.15 332.299,39.45 L307.799,39.7 L306.799,39.95 L293.799,40.2 L292.799,40.45 C288.032,40.483 283.233,40.533 278.4,40.6 C274.167,40.666 270.816,40.733 268.349,40.8 C267.483,41.234 266.716,41.45 266.049,41.45 C264.916,41.45 263.832,41.383 262.799,41.25 L262.799,48 C262.799,52.167 262.383,58.1 261.549,65.8 C260.716,73.5 260.299,83.25 260.299,95.05 C260.299,107.283 259.633,119.35 258.299,131.25 L258.299,152.25 C258.799,155.65 258.799,159.05 258.299,162.45 L258.299,184.2 L258.549,183.8 C258.716,183.6 258.799,183.767 258.799,184.3 C258.799,184.734 258.832,187.167 258.9,191.6 C258.933,196.401 258.9,200.034 258.799,202.5 C258.766,204.5 258.9,207.5 259.199,211.5 C259.166,214.233 258.582,216.65 257.449,218.75 C257.549,220.217 257.749,222.066 258.049,224.3 C258.549,228.067 258.799,230.217 258.799,230.75 C263.966,231.083 267.133,231.4 268.299,231.7 L302.299,231.95 C304.666,231.75 311.15,231.849 321.749,232.25 C322.782,232.283 323.782,232.316 324.749,232.35 C324.883,232.117 325.149,232.017 325.549,232.05 C327.316,232.083 329.099,231.967 330.9,231.7 L334.65,231.7 C334.783,231.599 334.917,231.516 335.049,231.45 L351.299,231.45 C352.966,231.483 354.383,231.3 355.549,230.9 L405.299,230.75 C407.799,230.65 410.282,230.55 412.749,230.45 C412.815,230.417 412.899,230.417 412.999,230.45 C415.799,230.316 418.616,230.183 421.449,230.05 L421.449,229.75 C421.616,229.816 421.782,229.9 421.949,230 C431.315,229.566 440.633,229.083 449.899,228.55 C462.166,227.85 473.632,227.317 484.298,226.95 L507.298,226.7 C511.298,226.167 517.598,225.4 526.198,224.4 C533.097,223.4 537.264,222.266 538.698,221 C539.198,220.533 539.681,220.1 540.148,219.7 C540.047,219.066 539.964,218.366 539.898,217.599 L539.297,209.249 L539.297,189.449 C538.797,184.949 538.33,178.865 537.898,171.199 C537.297,160.832 536.931,154.765 536.797,152.999 L536.797,125.249 C537.297,118.482 537.297,111.482 536.797,104.249 L536.797,84 C537.131,84.567 537.297,84.433 537.297,83.6 C536.964,74.367 536.964,67.5 537.297,63 L537.297,43.5 C537.167,42.5 537.05,41.317 536.95,39.95 Z M501.3,59.8 C501.3,60.533 500.134,61.417 497.8,62.45 C495.5,63.45 493.583,63.95 492.05,63.95 C478.184,60.317 470.234,58.5 468.2,58.5 C465.3,58.5 463.3,58.75 462.2,59.25 C461.099,59.717 459.384,59.95 457.05,59.95 C456.651,59.95 456.033,59.8 455.2,59.5 C454.367,59.167 453.733,59 453.3,59 C452.2,59.5 451.033,60 449.8,60.5 C447.267,61.467 444.934,61.95 442.8,61.95 C439.767,61.95 437.901,61.583 437.2,60.85 C436.467,60.083 435.55,59.7 434.45,59.7 C433.016,59.7 431.516,60 429.95,60.6 C428.417,61.166 427.117,61.45 426.05,61.45 C425.651,61.45 424.651,61.25 423.05,60.85 C421.45,60.416 420.434,60.2 420,60.2 C419.867,60.2 418.566,60.666 416.1,61.6 C413.634,62.5 411.701,62.95 410.3,62.95 C408.1,62.95 406.384,62.633 405.151,62 C404.35,61.333 403.901,61 403.8,61 C401.434,61 399.967,61.333 399.401,62 C398.834,62.633 397.217,62.95 394.55,62.95 C388.651,62.95 384.484,62.3 382.05,61 C381.05,60.333 380.35,59.867 379.95,59.6 C379.217,59.2 378.384,59 377.45,59 C377.316,59 374.099,60.483 367.8,63.45 C366.3,63.45 364.05,62.8 361.05,61.5 C358.05,60.167 356.434,59.5 356.2,59.5 C352.867,59.5 349.733,60.583 346.8,62.75 C343.867,64.883 341.734,65.95 340.401,65.95 C338.501,65.95 337.134,65.217 336.3,63.75 C335.734,62.083 335.267,61.067 334.901,60.7 C334.067,60.967 332.834,62.15 331.201,64.25 C332.334,65.25 332.901,65.817 332.901,65.95 C332.901,66.583 332.668,67 332.201,67.2 C331.868,67.367 331.184,67.45 330.151,67.45 L327.651,67.2 C327.651,67.133 327.618,66.983 327.55,66.75 C327.45,66.55 327.401,66.2 327.401,65.7 C327.401,64.733 328.084,63.233 329.451,61.2 C331.151,58.7 332.968,57.45 334.901,57.45 C336.001,57.45 337.151,58.333 338.35,60.1 C339.517,61.833 340.234,62.7 340.5,62.7 C340.766,62.7 342.767,61.666 346.5,59.6 C350.267,57.5 353.066,56.45 354.9,56.45 C357.2,56.45 359.466,57.083 361.7,58.35 C363.934,59.617 365.683,60.25 366.95,60.25 C367.65,60.25 369.533,59.533 372.599,58.1 C375.666,56.666 377.483,55.95 378.049,55.95 C378.983,55.95 379.749,56.15 380.349,56.55 C380.749,56.783 381.383,57.217 382.249,57.85 C384.416,59.083 388.499,59.7 394.499,59.7 C396.266,59.7 397.732,59.416 398.899,58.85 C400.098,58.25 401.315,57.95 402.548,57.95 C404.315,57.95 405.482,58.25 406.048,58.85 C406.581,59.416 407.998,59.7 410.298,59.7 C412.865,59.7 414.899,59.25 416.399,58.35 C417.899,57.416 419.116,56.95 420.048,56.95 C420.482,56.95 421.482,57.166 423.048,57.6 C424.615,58 425.598,58.2 425.998,58.2 C426.632,58.2 427.915,57.916 429.848,57.35 C431.748,56.75 433.232,56.45 434.298,56.45 C435.298,56.45 436.615,56.833 438.248,57.6 C439.882,58.333 441.465,58.7 442.998,58.7 C445.432,58.7 447.781,58.383 450.048,57.75 C452.348,57.083 454.098,56.75 455.298,56.75 C458.165,56.75 461.615,56.3 465.649,55.4 C467.782,54.9 471.132,55.334 475.699,56.7 C479.999,56.467 483.499,57.05 486.199,58.45 C489.032,59.95 490.966,60.7 491.999,60.7 C494.166,60.7 495.832,60.25 496.999,59.35 C498.199,58.416 498.966,57.95 499.299,57.95 C499.999,57.95 500.532,58.233 500.9,58.8 C501.167,59.167 501.3,59.5 501.3,59.8 Z M497.3,78.35 C494.033,77.916 492.184,77.7 491.75,77.7 C488.783,77.7 485.967,78.117 483.3,78.95 C480.634,79.783 473.867,80.2 463,80.2 C459.934,80.2 457.617,80.5 456.05,81.1 C454.484,81.666 453.067,81.95 451.8,81.95 C446.967,81.95 441.833,81.25 436.401,79.85 C432.701,78.883 430.3,78.1 429.201,77.5 C426.1,77.7 420.968,78.15 413.801,78.85 C405.902,79.617 401.568,80.15 400.801,80.45 C399.601,81.183 398.251,81.867 396.751,82.5 C393.817,83.8 391.168,84.45 388.801,84.45 C385.534,84.45 382.935,83.833 381.001,82.6 C379.067,81.333 377.751,80.7 377.051,80.7 C375.385,80.7 373.735,81.166 372.101,82.1 C370.435,83 369.418,83.45 369.051,83.45 C368.518,83.45 368.118,83.416 367.851,83.35 L367.551,83.2 C367.551,83.133 367.518,83.05 367.451,82.95 C367.35,82.85 367.301,82.55 367.301,82.05 C367.301,81.25 368.351,80.3 370.451,79.2 C372.684,78.033 374.885,77.45 377.051,77.45 C378.118,77.45 379.801,78.083 382.101,79.35 C384.435,80.583 386.668,81.2 388.801,81.2 C391.468,81.2 394.068,80.583 396.601,79.35 C397.869,78.75 398.935,78.117 399.801,77.45 C404.468,75.617 408.618,74.766 412.251,74.9 C417.817,75.167 420.834,75.267 421.301,75.2 C426.301,74.533 431.034,74.883 435.501,76.25 C440.935,77.917 446.317,78.75 451.651,78.75 C459.451,78.75 468.284,78.033 478.151,76.6 C483.05,75.9 487.517,75.183 491.55,74.45 C492.384,74.45 496.134,74.783 502.8,75.45 C503.8,76.283 504.3,76.833 504.3,77.1 C504.3,77.5 504.184,77.883 503.95,78.25 C503.65,78.717 503.266,78.95 502.8,78.95 C502.4,78.95 500.566,78.75 497.3,78.35 Z M262.2,12.45 C262.233,12.45 262.266,12.467 262.3,12.5 L262.05,12.5 C262.086,12.499 262.136,12.482 262.2,12.45 Z M444.05,104.2 C446.217,104.2 448.134,103.833 449.8,103.1 C451.467,102.333 453.05,101.95 454.55,101.95 C456.25,101.95 458.117,102.416 460.151,103.35 C462.184,104.25 463.984,104.7 465.55,104.7 C465.984,104.7 468.067,104.5 471.8,104.1 C475.567,103.666 477.651,103.45 478.05,103.45 C478.884,103.45 482.85,103.867 489.95,104.7 C489.95,104.733 490.016,104.817 490.15,104.95 C490.25,105.117 490.299,105.45 490.299,105.95 C490.299,106.383 490.066,106.817 489.599,107.25 C489.066,107.717 488.466,107.95 487.799,107.95 C487.4,107.95 485.733,107.75 482.799,107.35 C479.9,106.916 478.233,106.7 477.799,106.7 C477.4,106.7 475.366,106.916 471.699,107.35 C468.032,107.75 465.982,107.95 465.549,107.95 C463.549,107.95 461.4,107.5 459.099,106.6 C456.766,105.666 455.249,105.2 454.549,105.2 C452.683,105.2 451.016,105.583 449.549,106.35 C448.049,107.083 446.216,107.45 444.049,107.45 C441.65,107.45 439.633,107 437.999,106.1 C436.366,105.166 435.532,104.7 435.499,104.7 C433.699,104.7 432.482,105.433 431.849,106.9 C431.117,108.667 430.433,109.683 429.799,109.95 C429.099,109.683 428.65,109.317 428.449,108.85 C428.348,108.65 428.299,108.35 428.299,107.95 C428.299,103.717 429.849,101.8 432.949,102.2 C433.416,102.266 435.082,102.65 437.949,103.35 C440.35,103.917 442.384,104.2 444.05,104.2 Z" id="Shape" fill="#000000" fill-rule="nonzero"></path>
            <path d="M540.45,20.7 C542.083,22.467 543.333,24.516 544.2,26.85 C544.933,28.883 545.3,30.867 545.3,32.8 C545.3,34 545.151,34.783 544.85,35.15 C544.083,36.05 542.417,36.567 539.85,36.7 L539.85,36.65 L539.55,36.65 L536.75,36.65 C536.717,36.65 536.717,36.667 536.75,36.7 L521.05,36.75 L504.3,36.2 C499.7,36.033 495.217,35.833 490.85,35.6 C483.85,35.233 479.667,35.017 478.3,34.95 L354.8,34.95 C346.033,35.117 338.667,35.55 332.7,36.25 L308.3,36.45 L307.3,36.7 L294.3,36.95 L293.3,37.2 L267.1,37.45 C264.901,37.35 262.984,37.1 261.35,36.7 C258.784,36.033 256.951,34.95 255.85,33.45 C254.817,32.05 254.3,29.583 254.3,26.05 C254.3,24.317 255.734,22.55 258.6,20.75 C259.1,20.55 259.618,20.367 260.151,20.2 C260.451,20.1 260.85,19.983 261.35,19.85 L261.35,20.05 C261.583,19.95 261.8,19.867 262,19.8 C262.267,19.734 262.533,19.667 262.8,19.6 C265.234,19.067 268.55,18.517 272.75,17.95 L278.8,17.95 L281.05,17.5 L316.7,17.5 L319.3,17.95 L344.8,18 C382.767,19.6 404.934,20.583 411.3,20.95 L510.8,20.95 L513.45,20.5 L527.5,20.45 C527.5,20.516 527.517,20.567 527.55,20.6 L536.651,20.6 C537.217,20.633 537.717,20.683 538.151,20.75 C538.983,20.717 539.75,20.7 540.45,20.7 Z" id="Shape" fill="#757575"></path>
            <path d="M497.3,78.35 C500.567,78.75 502.401,78.95 502.8,78.95 C503.267,78.95 503.651,78.717 503.95,78.25 C504.183,77.883 504.3,77.5 504.3,77.1 C504.3,76.833 503.8,76.283 502.8,75.45 C496.134,74.783 492.384,74.45 491.55,74.45 C487.517,75.183 483.05,75.9 478.151,76.6 C468.284,78.033 459.451,78.75 451.651,78.75 C446.317,78.75 440.934,77.917 435.501,76.25 C431.034,74.883 426.301,74.533 421.301,75.2 C420.834,75.266 417.818,75.166 412.251,74.9 C408.618,74.767 404.468,75.617 399.801,77.45 C398.935,78.117 397.868,78.75 396.601,79.35 C394.068,80.583 391.468,81.2 388.801,81.2 C386.668,81.2 384.435,80.583 382.101,79.35 C379.801,78.083 378.119,77.45 377.051,77.45 C374.885,77.45 372.685,78.033 370.451,79.2 C368.35,80.3 367.301,81.25 367.301,82.05 C367.301,82.55 367.351,82.85 367.451,82.95 C367.517,83.05 367.551,83.133 367.551,83.2 L367.851,83.35 C368.119,83.416 368.518,83.45 369.051,83.45 C369.418,83.45 370.435,83 372.101,82.1 C373.735,81.166 375.385,80.7 377.051,80.7 C377.751,80.7 379.068,81.333 381.001,82.6 C382.935,83.833 385.534,84.45 388.801,84.45 C391.168,84.45 393.818,83.8 396.751,82.5 C398.251,81.867 399.601,81.183 400.801,80.45 C401.568,80.15 405.902,79.617 413.801,78.85 C420.968,78.15 426.101,77.7 429.201,77.5 C430.301,78.1 432.701,78.883 436.401,79.85 C441.834,81.25 446.967,81.95 451.8,81.95 C453.067,81.95 454.484,81.666 456.05,81.1 C457.617,80.5 459.934,80.2 463,80.2 C473.867,80.2 480.634,79.783 483.3,78.95 C485.967,78.117 488.783,77.7 491.75,77.7 C492.184,77.7 494.033,77.917 497.3,78.35 Z M501.3,59.8 C501.3,59.5 501.167,59.167 500.901,58.8 C500.534,58.234 500.001,57.95 499.3,57.95 C498.967,57.95 498.2,58.416 497,59.35 C495.833,60.25 494.167,60.7 492,60.7 C490.967,60.7 489.033,59.95 486.2,58.45 C483.5,57.05 480,56.467 475.7,56.7 C471.134,55.333 467.783,54.9 465.65,55.4 C461.617,56.3 458.167,56.75 455.299,56.75 C454.099,56.75 452.349,57.083 450.049,57.75 C447.782,58.383 445.433,58.7 442.999,58.7 C441.466,58.7 439.883,58.333 438.249,57.6 C436.616,56.833 435.299,56.45 434.299,56.45 C433.233,56.45 431.749,56.75 429.849,57.35 C427.916,57.916 426.633,58.2 425.999,58.2 C425.599,58.2 424.616,58 423.049,57.6 C421.483,57.166 420.483,56.95 420.049,56.95 C419.116,56.95 417.9,57.416 416.4,58.35 C414.9,59.25 412.867,59.7 410.299,59.7 C407.999,59.7 406.582,59.416 406.049,58.85 C405.483,58.25 404.316,57.95 402.549,57.95 C401.316,57.95 400.099,58.25 398.9,58.85 C397.733,59.416 396.266,59.7 394.5,59.7 C388.5,59.7 384.417,59.083 382.25,57.85 C381.384,57.217 380.75,56.783 380.35,56.55 C379.75,56.15 378.984,55.95 378.05,55.95 C377.484,55.95 375.667,56.666 372.6,58.1 C369.534,59.533 367.651,60.25 366.951,60.25 C365.684,60.25 363.934,59.617 361.701,58.35 C359.468,57.083 357.201,56.45 354.901,56.45 C353.067,56.45 350.267,57.5 346.501,59.6 C342.768,61.666 340.768,62.7 340.501,62.7 C340.234,62.7 339.518,61.833 338.351,60.1 C337.152,58.333 336.001,57.45 334.902,57.45 C332.968,57.45 331.152,58.7 329.452,61.2 C328.085,63.233 327.402,64.733 327.402,65.7 C327.402,66.2 327.452,66.55 327.551,66.75 C327.618,66.983 327.652,67.133 327.652,67.2 L330.152,67.45 C331.185,67.45 331.869,67.367 332.202,67.2 C332.669,67 332.902,66.583 332.902,65.95 C332.902,65.817 332.335,65.25 331.202,64.25 C332.835,62.15 334.068,60.967 334.902,60.7 C335.268,61.067 335.735,62.083 336.301,63.75 C337.135,65.217 338.501,65.95 340.402,65.95 C341.735,65.95 343.869,64.883 346.801,62.75 C349.735,60.583 352.868,59.5 356.201,59.5 C356.434,59.5 358.051,60.167 361.051,61.5 C364.051,62.8 366.301,63.45 367.801,63.45 C374.101,60.483 377.318,59 377.451,59 C378.385,59 379.218,59.2 379.951,59.6 C380.35,59.867 381.051,60.333 382.051,61 C384.485,62.3 388.652,62.95 394.551,62.95 C397.218,62.95 398.834,62.633 399.402,62 C399.968,61.333 401.435,61 403.801,61 C403.902,61 404.351,61.333 405.152,62 C406.385,62.633 408.101,62.95 410.301,62.95 C411.701,62.95 413.635,62.5 416.101,61.6 C418.568,60.666 419.869,60.2 420.001,60.2 C420.435,60.2 421.451,60.416 423.051,60.85 C424.652,61.25 425.652,61.45 426.051,61.45 C427.118,61.45 428.418,61.166 429.951,60.6 C431.517,60 433.017,59.7 434.451,59.7 C435.551,59.7 436.468,60.083 437.201,60.85 C437.901,61.583 439.767,61.95 442.801,61.95 C444.935,61.95 447.268,61.467 449.801,60.5 C451.034,60 452.201,59.5 453.301,59 C453.735,59 454.368,59.167 455.201,59.5 C456.034,59.8 456.651,59.95 457.051,59.95 C459.385,59.95 461.101,59.717 462.201,59.25 C463.301,58.75 465.301,58.5 468.201,58.5 C470.234,58.5 478.184,60.317 492.051,63.95 C493.584,63.95 495.501,63.45 497.801,62.45 C500.134,61.417 501.3,60.533 501.3,59.8 Z M536.95,39.95 C537.05,41.317 537.167,42.5 537.3,43.5 L537.3,63 C536.967,67.5 536.967,74.367 537.3,83.6 C537.3,84.433 537.134,84.567 536.8,84 L536.8,104.25 C537.3,111.483 537.3,118.483 536.8,125.25 L536.8,153 C536.934,154.767 537.3,160.833 537.901,171.2 C538.334,178.866 538.8,184.95 539.3,189.45 L539.3,209.25 L539.901,217.6 C539.967,218.367 540.05,219.067 540.151,219.701 C539.684,220.1 539.201,220.534 538.701,221.001 C537.267,222.268 533.1,223.401 526.201,224.401 C517.6,225.401 511.301,226.168 507.301,226.701 L484.301,226.951 C473.635,227.317 462.168,227.85 449.902,228.551 C440.635,229.084 431.318,229.568 421.952,230.001 C421.785,229.901 421.619,229.817 421.452,229.751 L421.452,230.051 C418.619,230.185 415.802,230.318 413.002,230.451 C412.902,230.418 412.818,230.418 412.752,230.451 C410.285,230.551 407.802,230.651 405.302,230.751 L355.552,230.901 C354.386,231.3 352.969,231.484 351.302,231.451 L335.052,231.451 C334.919,231.517 334.785,231.6 334.653,231.701 L330.903,231.701 C329.102,231.968 327.319,232.084 325.552,232.051 C325.153,232.018 324.886,232.117 324.752,232.351 C323.785,232.318 322.785,232.285 321.752,232.251 C311.152,231.851 304.669,231.751 302.302,231.951 L268.302,231.701 C267.136,231.401 263.969,231.084 258.802,230.751 C258.802,230.218 258.552,228.067 258.052,224.301 C257.752,222.068 257.552,220.218 257.452,218.751 C258.585,216.651 259.169,214.234 259.202,211.501 C258.902,207.501 258.768,204.501 258.802,202.501 C258.903,200.034 258.936,196.401 258.903,191.601 C258.836,187.168 258.802,184.735 258.802,184.301 C258.802,183.768 258.719,183.601 258.552,183.801 L258.302,184.201 L258.302,162.451 C258.802,159.051 258.802,155.651 258.302,152.251 L258.302,131.251 C259.636,119.351 260.302,107.284 260.302,95.051 C260.302,83.251 260.719,73.501 261.552,65.801 C262.386,58.101 262.802,52.168 262.802,48.001 L262.802,41.251 C263.835,41.384 264.919,41.451 266.052,41.451 C266.719,41.451 267.486,41.234 268.352,40.801 C270.819,40.735 274.169,40.668 278.403,40.601 C283.236,40.534 288.036,40.484 292.802,40.451 L293.802,40.201 L306.802,39.951 L307.802,39.701 L332.302,39.451 C340.769,39.151 345.952,38.951 347.852,38.851 C351.252,38.651 353.453,38.368 354.453,38.001 L478.803,38.201 C483.137,38.301 487.503,38.484 491.904,38.751 C498.371,39.118 502.671,39.351 504.803,39.451 L518.553,39.501 L522.303,39.951 L536.95,39.951 L536.95,39.95 Z M444.05,104.2 C442.384,104.2 440.35,103.916 437.95,103.35 C435.083,102.65 433.417,102.267 432.95,102.2 C429.849,101.8 428.3,103.717 428.3,107.95 C428.3,108.35 428.35,108.65 428.45,108.85 C428.65,109.317 429.099,109.683 429.8,109.95 C430.434,109.683 431.117,108.666 431.85,106.9 C432.484,105.433 433.701,104.7 435.5,104.7 C435.533,104.7 436.367,105.166 438,106.1 C439.634,107 441.65,107.45 444.05,107.45 C446.217,107.45 448.05,107.083 449.55,106.35 C451.017,105.583 452.684,105.2 454.55,105.2 C455.25,105.2 456.767,105.666 459.1,106.6 C461.401,107.5 463.55,107.95 465.55,107.95 C465.984,107.95 468.033,107.75 471.7,107.35 C475.367,106.916 477.4,106.7 477.8,106.7 C478.234,106.7 479.901,106.916 482.8,107.35 C485.734,107.75 487.401,107.95 487.8,107.95 C488.467,107.95 489.067,107.717 489.6,107.25 C490.067,106.817 490.3,106.383 490.3,105.95 C490.3,105.45 490.25,105.117 490.151,104.95 C490.017,104.817 489.951,104.733 489.951,104.7 C482.85,103.867 478.885,103.45 478.051,103.45 C477.652,103.45 475.568,103.666 471.801,104.1 C468.068,104.5 465.985,104.7 465.551,104.7 C463.985,104.7 462.185,104.25 460.152,103.35 C458.119,102.416 456.252,101.95 454.551,101.95 C453.051,101.95 451.468,102.333 449.801,103.1 C448.134,103.833 446.217,104.2 444.05,104.2 Z" id="Shape" fill="#FFFFFF"></path>
            <path d="M204.15,152.2 C205.017,154.134 205.75,156.05 206.35,157.95 C206.35,161.917 204.933,165.349 202.1,168.25 C197.767,172.717 190.633,174.95 180.7,174.95 C172.5,174.95 166.016,172.616 161.25,167.95 C157.717,164.483 155.95,161.099 155.95,157.8 C155.95,155.667 156.3,153.75 157,152.05 C156.066,152.45 155.033,152.901 153.9,153.401 C153.834,153.701 153.783,154.034 153.75,154.401 C153.55,156.034 153.45,157.217 153.45,157.951 C153.45,162.117 154.233,167.135 155.8,173.001 C155.9,173.367 157.617,179.117 160.95,190.251 C165.95,206.851 168.45,222.168 168.45,236.201 L168.45,240.701 C168.283,243.193 167.783,244.443 166.95,244.451 C167.288,244.455 167.755,244.705 168.35,245.201 C168.95,245.701 170.316,245.951 172.45,245.951 C175.883,245.951 179.233,246.168 182.5,246.6 C184.133,246.8 185.667,247 187.1,247.201 C198.6,247.201 205.416,246.1 207.55,243.901 C208.283,243.1 208.567,242.067 208.4,240.8 C208.033,239.366 207.85,238.333 207.85,237.7 L207.85,226.75 C208.483,216.883 208.983,209.533 209.35,204.7 C209.583,202.066 210.483,194.667 212.05,182.5 C213.25,173.233 213.85,165.917 213.85,160.55 C213.85,158.151 213.583,156.017 213.05,154.151 C208.883,152.451 205.517,151.017 202.95,149.85 C203.35,150.517 203.75,151.3 204.15,152.2 Z M247.425,363.4 C246.692,360.445 245.999,356.195 245.35,350.65 C245.083,348.183 244.25,338.383 242.85,321.25 C242.451,316.184 241.884,307.967 241.151,296.6 C240.284,283.734 239.85,276.383 239.85,274.55 C239.85,274.383 240.201,266.033 240.901,249.5 C240.534,248.866 240.234,248.35 240.001,247.95 L239.001,247.95 C238.567,247.683 238.201,247.366 237.901,247 L235.851,244.4 C235.551,244.033 235.268,243.716 235.001,243.45 L235.001,243.2 C234.034,241.866 233.101,240.233 232.201,238.3 C230.034,233.6 228.951,230.35 228.951,228.55 C228.951,225.151 229.651,224.517 231.051,226.651 C232.118,228.284 232.968,230.317 233.601,232.751 C233.734,233.051 233.884,233.418 234.051,233.851 L235.801,238.051 C236.768,240.318 238.351,242.668 240.551,245.101 C240.751,245.101 240.968,245.118 241.201,245.152 C241.668,245.051 242.135,244.968 242.6,244.902 C242.701,244.835 242.833,244.768 243,244.702 L243.55,244.702 C244.184,244.568 244.767,244.419 245.3,244.252 C245.401,244.219 245.5,244.202 245.6,244.202 C250.934,242.268 256.667,239.302 262.8,235.302 C265.7,233.403 268.067,231.618 269.901,229.952 C271.168,228.785 272.168,227.685 272.901,226.652 C273.134,226.285 273.35,225.952 273.55,225.652 C273.617,225.685 273.684,225.735 273.75,225.801 L273.85,225.701 C276.517,222.668 277.85,219.834 277.85,217.201 C277.85,216.968 274.434,210.001 267.6,196.301 C262.767,186.634 259.651,180.367 258.25,177.501 C257.917,177.401 257.634,177.334 257.4,177.301 C255.933,174.968 253.833,172.718 251.099,170.551 C246.433,166.784 240.683,163.918 233.849,161.951 C228.082,159.918 222.399,157.801 216.799,155.6 C216.833,156.6 216.849,158.333 216.849,160.8 C216.849,161.667 215.982,170.901 214.249,188.5 C212.349,207.366 211.216,219.95 210.849,226.25 L210.849,245.45 C210.815,245.55 210.716,245.733 210.549,246 C210.416,246.333 210.349,246.75 210.349,247.25 C210.349,247.35 210.766,250.333 211.599,256.2 C212.432,262.633 212.849,267.333 212.849,270.3 C212.849,270.6 212.915,271.5 213.049,273 C213.149,274.633 213.083,276.05 212.849,277.25 C212.116,281.05 209.866,282.95 206.099,282.95 C201.065,282.95 193.966,282.483 184.799,281.55 C175.599,280.583 169.816,279.717 167.449,278.95 C165.949,278.45 165.199,277.5 165.199,276.099 C165.466,274.566 165.549,273.533 165.449,272.999 C165.116,271.399 164.849,269.099 164.649,266.099 C164.516,263.866 164.449,262.166 164.449,260.999 C164.449,260.199 164.549,258.065 164.749,254.599 C165.016,250.632 165.266,247.416 165.499,244.95 L165.849,244.7 C166.08,244.534 166.447,244.451 166.949,244.45 C166.115,244.435 165.615,242.935 165.449,239.95 L165.449,235.3 C165.449,223.3 162.949,208.533 157.949,191 C154.682,179.566 152.966,173.5 152.799,172.8 C151.233,166.667 150.449,161.75 150.449,158.05 C150.449,156.85 150.499,155.734 150.599,154.7 C149.065,155.266 147.382,155.884 145.549,156.55 C136.549,159.817 129.516,162.134 124.449,163.5 C116.649,165.6 110.799,168.3 106.899,171.6 C104.499,173.633 101.933,177 99.199,181.701 C93.565,191.267 89.582,198.168 87.249,202.401 C80.249,214.901 76.749,222.251 76.749,224.451 C76.749,225.718 78.116,227.501 80.849,229.801 C83.616,232.134 87.082,234.435 91.249,236.701 C101.649,242.367 110.999,245.201 119.299,245.201 C119.899,245.201 121.183,242.234 123.149,236.301 C125.416,229.601 127.349,225.318 128.949,223.451 C129.949,224.317 130.449,225.067 130.449,225.701 C130.449,226.668 128.949,230.751 125.949,237.951 C122.915,245.284 121.082,248.951 120.449,248.951 C119.116,248.951 117.799,248.901 116.499,248.801 C116.266,249.301 115.982,249.902 115.649,250.601 C115.749,251.068 115.816,251.584 115.849,252.152 C115.982,253.952 116.032,256.634 115.999,260.202 C116.499,265.435 116.815,270.535 116.949,275.502 C117.282,286.169 117.782,296.568 118.449,306.702 C118.716,311.435 119.199,322.002 119.899,338.402 C120.378,350.027 120.695,358.361 120.849,363.402 L117.474,363.402 C117.001,360.94 116.71,358.256 116.599,355.351 C116.632,348.551 116.582,343.501 116.449,340.202 C116.116,326.902 115.782,316.902 115.449,310.202 C113.949,283.335 113.015,265.368 112.649,256.302 C111.849,257.736 110.933,259.352 109.899,261.153 C104.499,270.686 98.766,279.885 92.699,288.753 C74.866,314.886 61.282,327.953 51.949,327.953 C46.716,327.953 41.632,318.586 36.699,299.852 C33.999,289.519 31.415,276.486 28.949,260.752 C27.849,253.219 27.015,247.568 26.449,243.802 C25.415,237.202 24.415,231.602 23.449,227.002 C23.249,226.035 22.882,223.135 22.349,218.302 C21.949,214.736 21.316,212.035 20.449,210.202 C20.182,209.601 18.866,208.851 16.499,207.952 C15.032,207.685 13.899,207.302 13.099,206.802 C8.266,205.236 5.732,204.368 5.499,204.202 C3.099,202.568 1.666,201.152 1.199,199.952 C1.133,199.806 1.083,199.532 1.049,199.127 L0.949,199.052 C0.949,198.934 0.974,198.825 1.024,198.727 C0.974,198.114 0.949,197.305 0.949,196.302 C0.949,193.903 2.216,191.153 4.749,188.052 C8.616,183.319 14.183,180.952 21.449,180.952 C28.482,180.952 33.932,182.002 37.799,184.101 C38.499,184.468 39.599,185.168 41.099,186.202 C41.999,186.868 42.732,187.202 43.299,187.202 C44.199,187.202 45.999,186.068 48.699,183.802 C51.699,181.236 53.549,179.802 54.249,179.502 C57.016,178.269 59.866,177.802 62.799,178.102 C65.899,178.436 67.449,179.552 67.449,181.453 C67.449,183.686 63.782,188.286 56.449,195.253 C49.116,202.187 45.449,205.869 45.449,206.303 C45.449,215.103 50.199,237.17 59.699,272.503 L59.949,272.503 C64.015,260.437 67.182,251.22 69.449,244.853 C72.382,236.62 74.582,231.303 76.049,228.904 C74.316,226.97 73.449,225.487 73.449,224.454 C73.449,221.754 77.216,213.687 84.749,200.254 C90.149,190.587 94.216,183.654 96.949,179.454 C100.315,174.087 103.015,170.52 105.049,168.754 C109.249,165.12 115.733,162.188 124.499,159.954 C125.666,159.654 132.332,157.254 144.499,152.754 C147.032,151.854 149.299,151.104 151.299,150.504 C151.499,149.604 151.766,148.771 152.099,148.004 C153.899,143.704 157.032,141.554 161.499,141.554 C161.532,139.454 161.649,137.87 161.849,136.804 C154.882,134.004 149.399,129.354 145.399,122.854 C145.333,122.721 145.249,122.587 145.149,122.455 L144.949,122.455 C142.949,122.455 141.532,121.505 140.699,119.604 C140.199,118.504 139.949,117.371 139.949,116.205 C134.515,117.505 130.915,115.072 129.149,108.905 C128.349,106.138 127.949,101.938 127.949,96.305 C127.949,95.605 128.049,93.822 128.249,90.955 C128.482,87.855 128.716,85.271 128.949,83.205 C128.949,82.572 129.032,81.538 129.199,80.105 C129.265,79.538 129.315,79.038 129.349,78.605 C128.649,77.938 128.182,76.888 127.949,75.455 L127.949,71.805 C127.949,69.472 128.315,67.855 129.049,66.955 C129.583,66.288 130.249,66.138 131.049,66.505 C130.816,65.072 130.699,63.838 130.699,62.805 C130.699,60.438 131.199,57.989 132.199,55.455 C132.032,55.088 131.882,54.688 131.749,54.255 L131.449,52.955 C131.449,50.855 131.866,48.171 132.699,44.905 C133.599,41.205 134.616,38.822 135.749,37.755 L135.749,37.705 C134.749,37.905 133.732,37.905 132.699,37.705 C132.699,37.638 132.665,37.488 132.599,37.255 C132.499,37.055 132.449,36.705 132.449,36.205 C132.449,35.405 133.499,33.438 135.599,30.305 C137.665,27.172 139.132,25.305 139.999,24.705 L140.949,24.255 L141.199,24.005 L137.449,23.955 C136.582,23.655 135.999,23.305 135.699,22.905 C135.532,22.638 135.449,22.272 135.449,21.805 C135.449,20.705 137.649,19.122 142.049,17.055 C145.282,15.489 148.416,14.205 151.449,13.205 C150.649,12.138 149.765,11.305 148.799,10.705 C148.233,10.372 147.949,9.905 147.949,9.305 C147.949,7.805 149.049,6.705 151.249,6.005 C153.183,5.372 155.582,5.155 158.449,5.355 C161.282,5.555 163.682,6.088 165.649,6.955 C166.982,7.555 167.916,8.222 168.449,8.955 C169.082,7.822 170.382,6.671 172.349,5.505 C174.982,3.905 178.182,2.605 181.949,1.605 C185.782,0.605 188.999,0.238 191.599,0.505 C194.499,0.838 195.949,1.938 195.949,3.805 C195.949,4.372 195.632,4.905 194.999,5.405 C193.366,6.738 192.433,7.522 192.199,7.755 C198.999,8.622 203.315,9.455 205.149,10.255 C206.616,10.855 207.466,12.005 207.699,13.705 L207.699,13.755 C213.265,14.822 217.349,16.138 219.949,17.705 C222.282,19.138 223.449,20.805 223.449,22.705 C223.449,25.038 221.699,25.705 218.199,24.705 C220.265,26.338 222.149,28.505 223.849,31.205 C225.582,34.005 226.449,36.338 226.449,38.205 C226.449,38.572 226.199,39.088 225.699,39.755 C225.199,40.422 224.949,40.855 224.949,41.055 C224.949,41.089 225.282,42.138 225.949,44.205 C226.616,46.238 226.949,47.655 226.949,48.455 C226.949,49.988 226.665,50.938 226.099,51.305 C226.932,53.005 227.349,55.005 227.349,57.305 L227.349,57.855 C227.749,57.955 227.949,58.705 227.949,60.105 C227.949,61.538 227.099,67.655 225.399,78.455 C223.599,90.055 222.199,97.722 221.199,101.455 C217.165,116.288 211.582,126.655 204.449,132.555 C202.415,134.222 200.149,135.621 197.649,136.755 C198.049,137.422 198.299,138.338 198.399,139.505 C199.766,139.772 201.716,140.505 204.249,141.705 C209.516,144.238 212.599,146.172 213.499,147.505 C214.232,148.738 214.849,149.871 215.349,150.905 C221.249,153.238 227.632,155.922 234.499,158.955 C241.999,161.222 248.149,164.188 252.949,167.854 C256.116,170.288 258.499,172.871 260.098,175.604 C262.032,178.137 265.032,183.488 269.098,191.655 C276.932,207.354 280.848,215.905 280.848,217.304 C280.848,219.471 280.149,222.104 278.748,225.204 C278.115,226.603 277.432,227.77 276.698,228.704 C277.865,230.37 279.331,232.804 281.097,236.004 C284.064,241.37 286.231,245.604 287.597,248.704 C287.997,245.637 288.431,242.404 288.898,239.004 C292.964,209.404 295.547,188.671 296.648,176.804 C296.514,176.704 296.381,176.537 296.248,176.304 C296.215,176.304 296.165,176.321 296.098,176.354 C296.098,176.254 296.116,176.171 296.149,176.104 C294.882,174.071 292.282,168.521 288.348,159.455 C288.348,157.51 289.899,155.035 292.998,152.03 C293.428,151.469 293.977,150.878 294.648,150.255 C295.202,149.74 295.768,149.266 296.347,148.83 C296.385,144.406 296.468,141.131 296.597,139.005 C296.732,136.877 296.965,134.477 297.297,131.805 C297.165,131.662 297.065,131.513 296.997,131.355 C296.897,131.156 296.847,130.855 296.847,130.456 C296.847,121.723 297.681,115.239 299.347,111.006 C300.814,107.273 302.648,105.789 304.847,106.556 C306.532,107.161 308.032,108.878 309.347,111.706 C309.777,111.961 310.185,113.019 310.573,114.881 C310.745,115.386 310.903,115.903 311.048,116.431 C311.005,116.543 310.963,116.668 310.923,116.806 C311.213,118.6 311.488,120.867 311.748,123.606 C312.454,131.208 312.82,137.316 312.848,141.931 L312.848,142.056 C313.706,141.843 314.607,141.643 315.548,141.456 C315.468,141.404 315.384,141.354 315.298,141.306 C316.298,141.162 317.315,140.745 318.348,140.056 C318.561,139.918 318.752,139.785 318.923,139.657 C318.984,139.673 319.042,139.689 319.098,139.707 C319.964,139.966 320.789,140.225 321.574,140.481 C321.669,140.475 321.761,140.467 321.848,140.457 C321.929,140.524 322.004,140.591 322.074,140.657 C328.208,142.736 331.983,144.903 333.399,147.157 C334.065,148.223 334.432,149.556 334.499,151.157 C334.499,152.123 334.449,153.723 334.349,155.957 C334.349,162.057 333.683,167.24 332.349,171.507 C330.283,178.14 326.832,182.123 321.999,183.457 C321.565,189.49 321.349,197.64 321.349,207.907 L321.349,208.957 L321.349,209.307 L321.349,210.658 L321.4,211.258 C321.367,211.591 321.367,211.942 321.4,212.308 L321.4,212.358 C321.466,213.959 321.583,215.425 321.75,216.758 L321.55,222.558 C321.484,222.858 321.417,223.175 321.35,223.508 C321.384,223.808 321.417,224.124 321.451,224.458 C321.551,225.357 321.635,226.341 321.701,227.408 C321.834,228.841 321.951,230.458 322.051,232.258 C322.251,235.458 322.351,237.442 322.351,238.208 C322.351,239.975 322.168,243.925 321.801,250.058 C321.834,250.891 321.851,251.475 321.851,251.808 C321.851,252.541 321.735,253.525 321.501,254.758 C321.334,256.925 321.168,259.291 321.001,261.858 C320.135,274.358 319.584,281.475 319.351,283.209 C317.385,298.142 315.251,308.259 312.952,313.559 C309.485,321.493 303.869,325.459 296.101,325.459 C295.801,325.459 295.518,325.442 295.251,325.409 C287.851,323.275 280.918,317.842 274.451,309.108 C271.751,305.442 269.118,301.141 266.551,296.209 C264.351,291.775 263.034,289.192 262.601,288.459 C259.535,283.392 255.301,275.809 249.902,265.709 C247.702,261.575 245.919,258.176 244.551,255.509 C244.318,255.176 244.051,254.809 243.751,254.409 C243.618,257.842 243.317,264.575 242.851,274.608 C242.851,280.108 244.135,295.875 246.702,321.909 C248.762,342.805 250.278,356.638 251.252,363.409 L247.425,363.409 L247.425,363.4 Z M303.35,111.2 C302.731,111.2 302.231,111.65 301.85,112.55 C301.917,112.841 301.951,113.291 301.951,113.9 C301.951,116.667 301.701,120.85 301.201,126.45 C300.944,129.286 300.745,131.711 300.6,133.724 C300.625,135.578 300.708,137.437 300.85,139.299 L300.85,146.449 C301.87,146.092 302.811,145.883 303.675,145.824 C305.193,144.746 307.151,143.804 309.55,142.999 C309.482,142.241 309.432,141.308 309.401,140.199 C309.393,139.436 309.385,138.754 309.376,138.149 C309.359,135.967 309.351,134.851 309.351,134.798 C309.351,133.97 309.244,132.328 309.027,129.873 C308.917,128.578 308.775,127.053 308.601,125.298 C308.101,120.198 307.851,116.748 307.851,114.948 C307.851,114.749 307.86,114.557 307.876,114.373 C306.868,112.258 305.36,111.2 303.35,111.2 Z M309.95,155.95 C313.884,154.283 317.183,153.45 319.849,153.45 C320.983,153.45 321.483,154 321.349,155.099 C321.349,155.384 316.158,157.459 305.775,161.325 C305.466,161.643 305.158,161.951 304.849,162.25 L304.849,165.95 C304.916,165.95 304.867,166 304.7,166.099 C304.634,166.2 304.849,166.249 305.349,166.249 C306.983,166.249 308.916,165.916 311.15,165.249 C314.65,164.216 316.683,163.633 317.25,163.499 C317.884,163.365 319.017,162.883 320.65,162.049 C322.049,161.316 323.117,160.949 323.849,160.949 C324.849,160.949 325.483,161.199 325.749,161.699 C325.815,161.832 325.849,162.133 325.849,162.598 C325.849,163.532 323.266,164.899 318.099,166.699 C313.662,168.233 309.963,169.125 306.999,169.374 C307.558,170.644 308.341,172.668 309.349,175.449 C312.15,174.549 317.316,172.882 324.849,170.449 C325.849,171.249 326.349,171.749 326.349,171.949 C326.349,172.682 324.016,174.015 319.349,175.949 C314.582,177.949 311.082,178.949 308.849,178.949 C307.249,178.949 306.183,177.716 305.65,175.249 L305.349,171.949 C305.349,170.919 305.383,170.086 305.45,169.449 L305.349,169.449 C304.333,169.449 303.533,169.199 302.95,168.699 C302.661,167.919 302.303,167.018 301.875,165.999 C301.869,165.534 301.861,165.143 301.85,164.824 C301.03,165.443 300.196,165.984 299.35,166.449 C298.583,165.749 298.184,165.383 298.151,165.348 C297.951,165.149 297.85,164.932 297.85,164.699 C297.85,164.387 298.634,163.519 300.201,162.098 C300.161,162.012 300.12,161.928 300.076,161.848 C300.126,161.804 300.177,161.762 300.225,161.723 C300.228,161.835 300.228,161.952 300.225,162.074 C300.469,161.85 300.736,161.617 301.026,161.374 C300.945,161.333 300.87,161.291 300.8,161.249 C301.035,161.045 301.285,160.828 301.55,160.599 C301.682,160.486 301.807,160.377 301.925,160.275 C302.334,159.991 302.76,159.7 303.2,159.4 C305.867,157.366 307.2,155.466 307.2,153.7 C307.2,149.279 305.217,147.888 301.25,149.525 C297.461,152.916 294.444,155.631 292.2,157.674 L292.2,157.749 C291.634,158.541 291.349,159.207 291.349,159.749 C291.349,160.716 292.516,162.949 294.849,166.449 C295.193,166.983 295.518,167.5 295.825,167.999 C296.925,171.074 298.266,173.05 299.849,173.924 L299.849,174.199 C299.849,182.299 299.033,192.216 297.4,203.949 C296.5,210.582 295.066,220.348 293.099,233.249 C292.266,239.516 291.133,249.982 289.7,264.649 C288.167,277.282 286.217,286.215 283.849,291.449 C282.849,291.249 282.349,290.416 282.349,288.949 C282.349,287.848 283.832,276.416 286.799,254.649 C284.366,250.548 281.582,245.598 278.449,239.798 C276.315,235.831 274.799,232.881 273.899,230.948 C273.866,230.948 273.832,230.965 273.798,230.998 C271.565,233.031 268.432,235.331 264.399,237.898 C256.366,242.998 249.682,246.347 244.348,247.948 L243.798,247.948 C244.831,249.648 246.065,251.898 247.498,254.698 C248.898,257.131 250.682,260.215 252.848,263.948 C253.748,265.548 255.482,268.898 258.048,273.998 C260.215,278.298 262.065,281.698 263.598,284.198 C263.665,284.331 265.116,287.198 267.949,292.798 C270.515,297.965 273.065,302.331 275.598,305.899 C280.732,313.232 286.232,318.249 292.098,320.949 C292.831,321.615 293.831,321.949 295.098,321.949 C295.965,321.949 296.765,321.799 297.498,321.499 C305.598,321.032 311.048,314.949 313.848,303.249 C314.748,299.416 315.399,294.849 315.798,289.549 C316.031,284.716 316.215,281.849 316.348,280.949 C316.815,278.282 317.449,270.932 318.248,258.899 C318.748,251.098 319.081,245.416 319.248,241.848 C319.015,236.015 318.831,230.765 318.698,226.098 C318.465,221.965 318.347,219.665 318.347,219.199 C318.347,217.565 318.365,216.082 318.398,214.749 C318.365,212.282 318.347,210.049 318.347,208.049 C318.814,198.115 319.131,190.066 319.297,183.9 C318.898,183.933 318.497,183.95 318.097,183.95 C317.131,183.95 316.547,183.616 316.347,182.95 L316.347,181.95 C316.347,181.75 316.997,181.417 318.297,180.95 C319.097,180.883 319.898,180.633 320.697,180.2 C321.164,180.033 321.68,179.866 322.247,179.7 C326.347,177.733 328.797,174.5 329.597,170 C330.297,166.134 330.714,163.75 330.847,162.85 C331.181,160.484 331.347,158.134 331.347,155.8 C331.347,151.866 330.198,148.967 327.898,147.1 C326.797,146.201 324.281,145.067 320.347,143.701 C320.223,143.656 320.098,143.614 319.972,143.576 C315.852,144.393 313.477,144.902 312.847,145.1 C310.875,145.663 309.184,146.38 307.773,147.25 C309.156,148.648 309.847,151.016 309.847,154.35 C309.847,154.896 309.714,155.496 309.448,156.151 C309.613,156.087 309.78,156.021 309.95,155.95 Z M186.7,3.5 C182.9,3.9 179.266,5.25 175.8,7.55 C172.667,9.984 170.55,11.45 169.45,11.95 C169.15,11.683 168.9,11.467 168.7,11.3 C168.633,11.467 168.55,11.6 168.45,11.7 C168.316,11.867 167.983,11.95 167.45,11.95 C166.816,11.95 166.383,11.783 166.15,11.45 C165.917,10.983 165.65,10.617 165.35,10.35 C164.183,9.25 160.933,8.7 155.6,8.7 L151.45,9 C151.683,9.567 153.033,10.367 155.5,11.4 C157.8,12.367 158.95,13.383 158.95,14.45 C158.95,14.55 158.8,14.75 158.5,15.05 C158.133,15.417 157.783,15.717 157.45,15.95 C152.85,16.05 149.45,16.65 147.25,17.75 C145.517,19.017 144.017,19.833 142.75,20.2 L141.2,20.75 L146.45,20.95 C147.45,21.883 147.95,22.433 147.95,22.6 C147.95,22.933 146.467,24.217 143.5,26.45 C140.233,28.916 138.133,31.1 137.2,33 L137.2,33.25 C137.3,33.25 137.516,33.2 137.85,33.1 C138.25,33 138.7,32.95 139.2,32.95 C140.7,32.95 141.45,33.567 141.45,34.8 C141.45,34.933 140.367,37.267 138.2,41.8 C137.066,44.167 136.233,46.45 135.7,48.65 C135.833,48.483 135.983,48.317 136.15,48.15 C138.75,45.584 141.85,44.15 145.45,43.85 C149.15,43.517 152.25,44.517 154.75,46.85 L154.8,46.9 C155.5,46.4 156.65,45.75 158.25,44.95 C161.55,43.25 163.383,42.266 163.75,42 C164.65,41.4 165.717,40.417 166.95,39.05 C168.617,37.183 169.633,36.067 170,35.7 C173.4,32.467 175.35,32 175.85,34.3 C176.117,35.533 176.066,37.5 175.7,40.2 C175.833,40.1 177.416,38.85 180.45,36.45 C182.516,34.783 184.1,33.95 185.2,33.95 C186.9,33.95 187.783,34.9 187.85,36.8 C187.883,37.834 187.75,39.4 187.45,41.5 C187.783,41.5 189.283,40.667 191.95,39 C194.65,37.3 196.316,36.45 196.95,36.45 C197.25,36.45 199.266,37.817 203,40.55 C205.667,42.484 207.883,44.267 209.65,45.9 C210.817,45.5 212.067,45.233 213.4,45.1 C217.167,44.733 220.367,45.55 223,47.55 C223.467,47.917 223.9,48.3 224.3,48.7 C223.367,46.4 221.917,42.65 219.95,37.45 C219.95,36.683 220,36.183 220.1,35.95 C220.433,35.317 221.217,35.083 222.45,35.25 C222.316,34.95 220.8,33.1 217.9,29.7 C215.267,26.567 213.95,24.65 213.95,23.95 C213.95,23.083 214.1,22.55 214.4,22.35 C215,21.983 216.7,21.6 219.5,21.2 C218.1,20 216.6,19.1 215,18.5 C212.233,17.467 207.383,16.783 200.45,16.45 C199.583,16.15 199,15.8 198.7,15.4 C198.533,15.133 198.45,14.767 198.45,14.3 C198.45,13.633 199.3,12.933 201,12.2 C200.467,12.166 200.25,12.1 200.35,12 C200.45,11.833 200.433,11.717 200.3,11.65 C199.533,11.317 195.584,11.084 188.45,10.95 C187.783,10.383 187.383,10.016 187.25,9.85 C187.05,9.683 186.95,9.467 186.95,9.2 C186.95,8.233 187.516,7.3 188.65,6.4 C189.283,5.867 190.4,4.967 192,3.7 C191.967,3.567 190.2,3.5 186.7,3.5 Z M213.4,48.35 C213,48.383 212.633,48.433 212.3,48.5 C212.334,48.567 212.383,48.633 212.45,48.7 C211.95,49.533 211.2,49.95 210.2,49.95 L210.1,49.95 C210.134,49.951 210.168,49.968 210.2,50 C214.7,51.9 216.95,54.883 216.95,58.95 C216.95,61.15 216.467,63.083 215.5,64.75 C214.633,66.283 213.45,67.4 211.95,68.1 C212.783,68.166 213.65,68.2 214.55,68.2 C218.217,68.2 220.95,66.283 222.75,62.45 C223.65,60.55 224.184,58.717 224.35,56.95 C224.35,53.983 223.217,51.7 220.95,50.1 C218.85,48.633 216.333,48.05 213.4,48.35 Z M184.45,38 C179.016,41.967 175.766,43.95 174.7,43.95 C173.033,43.95 172.166,43.1 172.1,41.4 C172.333,39.5 172.45,38.367 172.45,38 C170.283,40.167 168.15,42.183 166.05,44.05 C161.917,47.65 159.05,49.45 157.45,49.45 C157.25,49.45 157.033,49.416 156.8,49.35 C158.234,51.75 158.95,54.817 158.95,58.55 C158.95,60.15 158.867,61.55 158.7,62.75 C158.6,64.783 158.217,66.8 157.55,68.8 C156.45,71.933 154.834,73.817 152.7,74.45 C152.2,74.016 151.95,73.783 151.95,73.75 C151.95,73.617 152.666,72.783 154.1,71.25 C154.9,70.383 155.55,69.367 156.05,68.2 C153.984,70.033 150.867,70.95 146.7,70.95 C140.867,70.95 136.733,69.383 134.3,66.25 C134.7,68.117 135.1,70.583 135.5,73.65 C136.934,84.983 138.383,93.55 139.85,99.35 C140.45,101.783 141.117,104.1 141.85,106.3 C142.883,105.4 144.083,104.95 145.45,104.95 C147.117,104.95 148.45,106.55 149.45,109.75 C149.95,111.383 150.283,113.067 150.45,114.8 C150.45,116.567 150.117,118.134 149.45,119.5 C149.183,120.033 148.9,120.483 148.6,120.85 C155.4,131.451 164.783,136.75 176.75,136.75 C190.35,136.75 200.167,133.55 206.2,127.15 C211.1,121.917 215.35,111.95 218.95,97.25 C219.516,94.917 220.066,91.5 220.6,87 C221.2,81.8 221.65,78.367 221.95,76.7 C222.117,75.7 222.316,73.983 222.55,71.55 C222.684,70.084 222.834,68.834 223,67.8 C220.8,70.234 218,71.45 214.6,71.45 C209.633,71.45 205.867,70.5 203.3,68.6 C203.967,69.633 204.934,71.083 206.2,72.95 L206.05,73.45 C206.05,73.617 205.85,73.7 205.45,73.7 C204.783,73.7 203.117,71.7 200.45,67.7 C200.016,67.033 199.766,66.1 199.7,64.9 L199.7,62.95 C199.533,62.15 199.45,61.266 199.45,60.3 C199.45,55.9 200.9,52.283 203.8,49.45 C204.434,48.817 205.117,48.25 205.85,47.75 C205.083,47.217 204.233,46.6 203.3,45.9 C199.834,43.233 197.633,41.183 196.7,39.75 C194.733,41.05 193.066,42.133 191.7,43 C189.166,44.633 187.583,45.45 186.95,45.45 C185.016,45.45 184.016,44.383 183.95,42.25 C184.283,39.883 184.45,38.467 184.45,38 Z M207.75,54.45 C207.717,54.449 207.7,54.432 207.7,54.4 C207.604,54.432 207.521,54.448 207.45,54.45 L207.75,54.45 Z M204.45,60.7 C204.916,61.6 205.55,62.05 206.35,62.05 C207.816,62.05 208.85,61.567 209.45,60.6 C209.783,60.1 209.95,59.567 209.95,59 C209.95,57.033 208.95,56.117 206.95,56.25 C204.95,56.383 203.95,57.25 203.95,58.85 C203.95,59.417 204.117,60.033 204.45,60.7 Z M188.25,82.45 C188.383,82.617 188.45,82.95 188.45,83.45 C188.45,84.217 187.45,85.15 185.45,86.25 C183.416,87.383 181.583,87.95 179.95,87.95 C177.95,87.95 176.467,87.45 175.5,86.45 C174.7,85.583 174.517,84.766 174.95,84 L175.35,83.75 C175.583,83.55 175.95,83.45 176.45,83.45 C176.883,83.45 177.483,83.666 178.25,84.1 C179.05,84.5 179.65,84.7 180.05,84.7 C182.184,84.7 183.834,84.283 185,83.45 C186.167,82.617 187.167,82.2 188,82.2 C188,82.233 188.083,82.317 188.25,82.45 Z M210.45,99.8 C210.45,100.8 209.833,102.734 208.6,105.6 C207.066,109.1 205.2,112.383 203,115.45 C196.566,124.45 189.133,128.95 180.7,128.95 C173.7,128.95 166.617,124.533 159.45,115.7 C156.95,112.666 154.75,109.467 152.85,106.1 C151.25,103.233 150.45,101.433 150.45,100.7 C150.45,99.8 152.416,99.1 156.35,98.6 C160.75,98.067 170.117,97.433 184.45,96.7 C188.416,96.333 192.3,96.35 196.1,96.75 C202.933,97.45 207.217,97.85 208.95,97.95 C209.683,98.083 210.15,98.4 210.35,98.9 C210.417,99.033 210.45,99.333 210.45,99.8 Z M206.45,101.2 L206.45,101 C202.183,100.6 193.867,100.55 181.5,100.85 C168.133,101.183 159.617,101.8 155.95,102.7 C155.983,102.8 156.516,104.083 157.55,106.55 C158.917,109.417 160.434,112.033 162.1,114.4 C167.467,121.934 173.617,125.7 180.55,125.7 C186.584,125.7 192.7,122.283 198.9,115.45 C201.334,112.75 203.283,110.016 204.75,107.25 C206.15,104.55 206.717,102.533 206.45,101.2 Z M198.4,142.8 C198.367,143.533 198.283,144.317 198.15,145.151 C198.184,145.151 198.233,145.168 198.3,145.201 C198.467,145.301 198.633,145.401 198.8,145.501 C200.934,145.734 204.867,146.918 210.6,149.051 C209.166,147.185 207.267,145.768 204.9,144.801 C201.934,143.902 199.883,143.268 198.75,142.902 C198.617,142.866 198.5,142.833 198.4,142.8 Z M197.85,149.7 C197.85,151 197.833,151.8 197.8,152.099 C197.633,154.366 197.15,155.983 196.35,156.95 C194.55,155.316 193.683,152.366 193.75,148.099 C194.117,143.599 194.316,140.233 194.35,137.999 C190.183,139.299 185.467,139.949 180.2,139.949 C174.233,139.949 168.9,139.182 164.2,137.649 C164.7,139.848 164.95,143.315 164.95,148.048 C164.95,154.649 164.45,157.948 163.45,157.948 C162.383,157.948 161.733,155.798 161.5,151.498 L161.45,151.498 C159.783,153.665 158.95,155.748 158.95,157.748 C158.95,160.448 160.7,163.265 164.2,166.198 C168.533,169.864 173.983,171.698 180.55,171.698 C190.084,171.698 196.684,169.731 200.35,165.798 C202.35,163.632 203.35,161.048 203.35,158.048 C203.35,157.081 202.55,155.649 200.95,153.748 C199.083,151.483 198.05,150.134 197.85,149.7 Z M181.1,254.95 C182.7,255.783 184.1,256.2 185.3,256.2 C185.867,256.2 186.55,255.833 187.35,255.099 C188.117,254.332 188.816,253.95 189.45,253.95 C190.016,253.95 190.783,254.25 191.75,254.849 C192.717,255.416 193.316,255.7 193.55,255.7 C193.984,255.7 194.767,255.5 195.9,255.099 C197.033,254.666 197.8,254.45 198.2,254.45 C199.666,254.45 201.05,254.95 202.35,255.95 C203.017,256.45 203.517,256.95 203.85,257.45 C203.85,258.45 203.183,258.95 201.85,258.95 C201.45,258.95 200.833,258.75 200,258.349 C199.167,257.95 198.533,257.749 198.1,257.749 C197.7,257.749 196.933,257.949 195.8,258.349 C194.667,258.749 193.883,258.95 193.45,258.95 C192.25,258.95 191.45,258.766 191.05,258.4 C190.35,257.766 189.834,257.366 189.5,257.2 C188.5,258.7 187.15,259.45 185.45,259.45 C184.117,259.45 182.783,258.917 181.45,257.849 C180.15,256.749 179.117,256.2 178.35,256.2 C177.316,256.2 176.75,256.516 176.65,257.15 C176.483,258.15 176.084,258.917 175.45,259.45 C174.683,259.183 174.217,258.833 174.05,258.4 C173.984,258.233 173.95,257.866 173.95,257.299 C173.95,253.365 175.117,251.933 177.45,252.999 C178.15,253.333 179.367,253.983 181.1,254.95 Z M177.75,249.6 C171.75,249 168.483,248.701 167.95,248.701 C167.95,251.401 167.783,255.567 167.45,261.201 C167.45,263.634 167.633,266.434 168,269.6 C168.467,273.5 169.033,275.701 169.7,276.201 C177.933,276.468 183.95,277.001 187.75,277.801 C192.25,278.701 197.25,279.334 202.75,279.701 L209,279.701 C209.167,279.168 209.35,277.534 209.55,274.801 C209.75,272.367 209.85,270.867 209.85,270.301 C209.85,269.101 209.45,265.084 208.65,258.251 C207.817,251.151 207.383,247.401 207.35,247.001 C205.083,247.567 201.433,248.284 196.4,249.151 C191.367,250.017 188.383,250.451 187.45,250.451 C186.983,250.45 183.75,250.167 177.75,249.6 Z M195.95,268.45 C195.816,268.45 194.933,268.95 193.3,269.95 C191.667,270.95 190.3,271.45 189.2,271.45 C187.633,271.45 186.217,271 184.95,270.099 C183.683,269.166 182.6,268.7 181.7,268.7 C181.3,268.7 180.933,268.917 180.6,269.349 C180.267,269.749 179.883,269.95 179.45,269.95 C178.65,269.95 178.15,269.616 177.95,268.95 L177.95,267.95 C177.95,267.05 178.217,266.417 178.75,266.05 C179.316,265.651 180.3,265.45 181.7,265.45 C183.433,265.45 184.983,265.917 186.35,266.849 C187.683,267.749 188.583,268.2 189.05,268.2 C189.95,268.2 192.667,267.2 197.2,265.2 C201.3,263.866 203.35,264.667 203.35,267.599 L203.3,268.349 C203.1,268.882 202.617,269.249 201.85,269.45 L198.45,269.45 C198.25,269.383 197.867,269.183 197.3,268.849 C196.867,268.583 196.417,268.45 195.95,268.45 Z M7.975,189.45 C7.813,189.612 7.655,189.778 7.5,189.95 C7.154,190.335 6.838,190.71 6.55,191.075 C11.174,191.26 19.307,192.968 30.95,196.2 C30.916,196.233 30.766,196.616 30.5,197.349 C30.367,197.749 30.017,197.95 29.45,197.95 C28.016,197.95 24.55,197.4 19.05,196.3 C13.758,195.241 8.874,194.633 4.4,194.475 C4.1,195.192 3.95,195.851 3.95,196.451 C3.95,196.817 3.983,197.168 4.05,197.501 C6.013,197.294 8.897,197.361 12.7,197.701 C20.533,198.401 24.45,199.317 24.45,200.451 C24.45,201.017 24.217,201.434 23.75,201.701 C23.45,201.867 23.184,201.951 22.95,201.951 C22.383,201.817 21.5,201.651 20.3,201.451 C18.226,201.087 13.684,200.795 6.675,200.576 C6.737,200.599 6.795,200.624 6.85,200.651 C7.783,201.117 9.916,201.717 13.25,202.451 C13.45,202.484 13.633,202.534 13.8,202.6 C13.834,202.567 13.867,202.55 13.9,202.55 C14,202.517 14.417,202.616 15.15,202.85 C18.084,203.717 23.867,204.5 32.5,205.201 C32.5,205.234 32.583,205.317 32.75,205.451 C32.883,205.617 32.95,205.951 32.95,206.451 C32.95,207.117 32.633,207.551 32,207.751 C30.733,208.218 27.883,208.451 23.45,208.451 L22.95,208.451 C23.183,209.151 23.35,209.901 23.45,210.701 C23.65,212.6 24.1,215.267 24.8,218.701 C25.767,223.267 26.317,225.951 26.45,226.751 C26.45,226.784 27.317,232.218 29.05,243.051 C30.117,249.518 31.084,254.985 31.95,259.451 C35.05,275.418 37.316,286.301 38.75,292.1 C41.783,304.3 45.45,315.167 49.75,324.701 L54,324.701 C72.066,313.934 86.934,297.301 98.6,274.801 C101.433,269.334 104.733,262.402 108.5,254.001 C109.7,251.534 110.816,249.617 111.85,248.251 C103.883,246.884 95.867,243.634 87.8,238.501 C84.133,236.134 80.984,233.734 78.35,231.301 C77.717,233.201 76.533,236.318 74.8,240.652 C71.633,248.652 69.95,252.935 69.75,253.502 C69.217,255.169 67.733,259.702 65.3,267.102 C63.467,272.135 62,275.236 60.9,276.403 C61.233,277.269 61.617,278.236 62.05,279.302 C64.65,285.903 65.95,290.035 65.95,291.702 C65.95,292.169 65.916,292.452 65.85,292.552 C65.75,292.653 65.7,292.802 65.7,293.002 L65.45,293.252 C65.283,293.385 64.95,293.452 64.45,293.452 C63.65,293.452 62.25,290.052 60.25,283.252 C59.05,279.219 58.233,276.352 57.8,274.652 C55.533,270.185 52.6,259.268 49,241.902 C44.633,218.502 42.45,206.768 42.45,206.702 C42.45,204.835 45.85,200.452 52.65,193.552 C60.017,186.085 63.8,182.153 64,181.752 C63.967,181.618 63.617,181.469 62.95,181.302 C62.25,181.102 61.6,181.002 61,181.002 C57.5,181.002 54.05,182.585 50.65,185.752 C48.584,187.686 47.4,188.752 47.1,188.952 C45.833,189.952 44.617,190.452 43.45,190.452 C42.316,190.452 41.217,190.118 40.15,189.452 C38.917,188.552 37.867,187.851 37,187.351 C33.5,185.251 28.35,184.202 21.55,184.202 C19.847,184.202 18.247,184.36 16.75,184.677 C17.416,184.739 18.115,184.814 18.85,184.903 C27.017,185.903 32.05,187.753 33.95,190.453 C33.883,190.753 33.8,191.019 33.7,191.253 C33.5,191.72 33.083,191.953 32.45,191.953 C31.883,191.953 29.85,191.386 26.35,190.253 C22.817,189.086 19.433,188.503 16.2,188.503 C15.8,188.503 14.467,188.67 12.2,189.003 C9.967,189.303 8.633,189.453 8.2,189.453 C8.121,189.45 8.046,189.45 7.975,189.45 Z M149.9,55.45 C149.434,56.15 149.2,56.833 149.2,57.5 C149.2,57.533 149.333,58.083 149.6,59.15 C150.1,59.617 150.617,60.167 151.15,60.8 L151.5,60.8 C153.367,60.8 154.583,60.267 155.15,59.2 C155.45,58.633 155.55,58.083 155.45,57.55 C155.45,55.183 154.367,54.033 152.2,54.1 C152.033,54.1 151.883,54.117 151.75,54.15 C150.95,54.55 150.333,54.983 149.9,55.45 Z M148,50.05 C148.8,49.55 149.783,49.15 150.95,48.85 C151.217,48.783 151.483,48.733 151.75,48.7 C150.017,47.467 147.917,46.983 145.45,47.25 C142.683,47.55 140.283,48.7 138.25,50.7 C136.05,52.833 134.95,55.367 134.95,58.3 C134.95,64.567 138.833,67.7 146.6,67.7 C149,67.7 150.95,67.266 152.45,66.4 C152.083,66.433 151.666,66.45 151.2,66.45 C148.333,66.45 146.316,65.633 145.15,64 C144.45,63.433 143.883,62.75 143.45,61.95 C142.783,60.75 142.45,59.283 142.45,57.55 C142.45,54.05 144.3,51.55 148,50.05 Z M132.5,79.4 C132.333,80.8 132.15,82.483 131.95,84.45 C131.283,90.85 130.95,94.883 130.95,96.55 C130.95,98.75 131.1,101.283 131.4,104.15 C131.9,108.817 132.667,111.667 133.7,112.7 L138.95,112.7 C138.95,111.5 139.316,110.2 140.05,108.8 C139.45,105.7 139.084,103.933 138.95,103.5 C138.016,100.4 136.483,93.733 134.35,83.5 C134.017,81.967 133.717,80.517 133.45,79.15 C133.15,79.283 132.833,79.367 132.5,79.4 Z M159.45,148.35 C160.05,147.784 160.717,147.317 161.45,146.951 L161.45,144.701 L161.45,143.1 C160.916,143.201 160.383,143.35 159.85,143.55 C157.117,144.517 155.367,146.5 154.6,149.5 C156.633,148.9 158.25,148.517 159.45,148.35 Z" id="Shape" fill="#000000" fill-rule="nonzero"></path>
            <path d="M186.7,3.5 C190.2,3.5 191.967,3.567 192,3.7 C190.4,4.967 189.283,5.867 188.65,6.4 C187.517,7.3 186.95,8.233 186.95,9.2 C186.95,9.467 187.05,9.683 187.25,9.85 C187.383,10.017 187.783,10.383 188.45,10.95 C195.583,11.083 199.533,11.317 200.3,11.65 C200.434,11.717 200.45,11.834 200.35,12 C200.25,12.1 200.467,12.167 201,12.2 C199.3,12.933 198.45,13.633 198.45,14.3 C198.45,14.767 198.533,15.133 198.7,15.4 C199,15.8 199.583,16.15 200.45,16.45 C207.383,16.783 212.233,17.467 215,18.5 C216.6,19.1 218.1,20 219.5,21.2 C216.7,21.6 215,21.983 214.4,22.35 C214.1,22.55 213.95,23.083 213.95,23.95 C213.95,24.65 215.266,26.567 217.9,29.7 C220.8,33.1 222.317,34.95 222.45,35.25 C221.217,35.083 220.433,35.317 220.1,35.95 C220,36.183 219.95,36.683 219.95,37.45 C221.916,42.65 223.367,46.4 224.3,48.7 C223.9,48.3 223.467,47.916 223,47.55 C220.367,45.55 217.167,44.734 213.4,45.1 C212.067,45.233 210.817,45.5 209.65,45.9 C207.883,44.267 205.667,42.483 203,40.55 C199.267,37.817 197.25,36.45 196.95,36.45 C196.316,36.45 194.65,37.3 191.95,39 C189.283,40.667 187.783,41.5 187.45,41.5 C187.75,39.4 187.883,37.833 187.85,36.8 C187.783,34.9 186.9,33.95 185.2,33.95 C184.1,33.95 182.516,34.783 180.45,36.45 C177.416,38.85 175.833,40.1 175.7,40.2 C176.066,37.5 176.117,35.533 175.85,34.3 C175.35,32 173.4,32.467 170,35.7 C169.633,36.067 168.617,37.183 166.95,39.05 C165.717,40.417 164.65,41.4 163.75,42 C163.383,42.267 161.55,43.25 158.25,44.95 C156.65,45.75 155.5,46.4 154.8,46.9 L154.75,46.85 C152.25,44.517 149.15,43.517 145.45,43.85 C141.85,44.15 138.75,45.583 136.15,48.15 C135.983,48.317 135.834,48.483 135.7,48.65 C136.233,46.45 137.066,44.167 138.2,41.8 C140.367,37.267 141.45,34.933 141.45,34.8 C141.45,33.567 140.7,32.95 139.2,32.95 C138.7,32.95 138.25,33 137.85,33.1 C137.517,33.2 137.3,33.25 137.2,33.25 L137.2,33 C138.133,31.1 140.233,28.917 143.5,26.45 C146.467,24.217 147.95,22.933 147.95,22.6 C147.95,22.433 147.45,21.883 146.45,20.95 L141.2,20.75 L142.75,20.2 C144.017,19.833 145.517,19.016 147.25,17.75 C149.45,16.65 152.85,16.05 157.45,15.95 C157.783,15.717 158.133,15.416 158.5,15.05 C158.8,14.75 158.95,14.55 158.95,14.45 C158.95,13.383 157.8,12.367 155.5,11.4 C153.033,10.367 151.684,9.567 151.45,9 L155.6,8.7 C160.933,8.7 164.183,9.25 165.35,10.35 C165.65,10.617 165.916,10.983 166.15,11.45 C166.383,11.783 166.817,11.95 167.45,11.95 C167.983,11.95 168.316,11.867 168.45,11.7 C168.55,11.6 168.633,11.467 168.7,11.3 C168.9,11.467 169.15,11.683 169.45,11.95 C170.55,11.45 172.666,9.983 175.8,7.55 C179.267,5.25 182.9,3.9 186.7,3.5 Z" id="Shape" fill="#483A31"></path>
            <path d="M213.4,48.35 C216.334,48.05 218.85,48.633 220.95,50.1 C223.217,51.7 224.35,53.983 224.35,56.95 C224.183,58.717 223.65,60.55 222.75,62.45 C220.95,66.283 218.217,68.2 214.55,68.2 C213.65,68.2 212.783,68.166 211.95,68.1 C213.45,67.4 214.633,66.283 215.5,64.75 C216.467,63.083 216.95,61.15 216.95,58.95 C216.95,54.883 214.7,51.9 210.2,50 C210.168,49.968 210.134,49.951 210.1,49.95 L210.2,49.95 C211.2,49.95 211.95,49.533 212.45,48.7 C212.383,48.633 212.333,48.567 212.3,48.5 C212.633,48.433 213,48.383 213.4,48.35 Z M204.45,60.7 C204.117,60.033 203.95,59.416 203.95,58.85 C203.95,57.25 204.95,56.383 206.95,56.25 C208.95,56.117 209.95,57.033 209.95,59 C209.95,59.567 209.783,60.1 209.45,60.6 C208.85,61.567 207.816,62.05 206.35,62.05 C205.55,62.05 204.917,61.6 204.45,60.7 Z M206.45,101.2 C206.717,102.533 206.15,104.55 204.75,107.25 C203.283,110.017 201.333,112.75 198.9,115.45 C192.7,122.283 186.584,125.7 180.55,125.7 C173.617,125.7 167.467,121.933 162.1,114.4 C160.433,112.033 158.916,109.417 157.55,106.55 C156.517,104.084 155.984,102.8 155.95,102.7 C159.617,101.8 168.133,101.183 181.5,100.85 C193.867,100.55 202.184,100.6 206.45,101 L206.45,101.2 L206.45,101.2 Z M195.95,268.45 C196.416,268.45 196.867,268.583 197.3,268.849 C197.867,269.183 198.25,269.382 198.45,269.45 L201.85,269.45 C202.617,269.25 203.1,268.883 203.3,268.349 L203.35,267.599 C203.35,264.666 201.3,263.866 197.2,265.2 C192.666,267.2 189.95,268.2 189.05,268.2 C188.584,268.2 187.684,267.75 186.35,266.849 C184.983,265.916 183.433,265.45 181.7,265.45 C180.3,265.45 179.316,265.65 178.75,266.05 C178.217,266.417 177.95,267.05 177.95,267.95 L177.95,268.95 C178.15,269.616 178.65,269.95 179.45,269.95 C179.883,269.95 180.266,269.75 180.6,269.349 C180.933,268.916 181.3,268.7 181.7,268.7 C182.6,268.7 183.683,269.167 184.95,270.099 C186.217,270.999 187.633,271.45 189.2,271.45 C190.3,271.45 191.666,270.95 193.3,269.95 C194.934,268.95 195.816,268.45 195.95,268.45 Z M177.75,249.6 C183.75,250.167 186.983,250.451 187.45,250.451 C188.383,250.451 191.367,250.017 196.4,249.151 C201.434,248.284 205.084,247.567 207.35,247.001 C207.383,247.401 207.816,251.151 208.65,258.251 C209.45,265.084 209.85,269.101 209.85,270.301 C209.85,270.867 209.75,272.367 209.55,274.801 C209.35,277.534 209.167,279.168 209,279.701 L202.75,279.701 C197.25,279.334 192.25,278.701 187.75,277.801 C183.95,277.001 177.934,276.468 169.7,276.201 C169.033,275.701 168.467,273.501 168,269.6 C167.633,266.434 167.45,263.633 167.45,261.201 C167.783,255.567 167.95,251.401 167.95,248.701 C168.483,248.7 171.75,249 177.75,249.6 Z M181.1,254.95 C179.367,253.983 178.15,253.333 177.45,253 C175.117,251.934 173.95,253.366 173.95,257.3 C173.95,257.866 173.983,258.234 174.05,258.401 C174.217,258.834 174.684,259.184 175.45,259.451 C176.083,258.918 176.483,258.151 176.65,257.151 C176.75,256.517 177.317,256.201 178.35,256.201 C179.117,256.201 180.15,256.751 181.45,257.85 C182.783,258.917 184.117,259.451 185.45,259.451 C187.15,259.451 188.5,258.701 189.5,257.201 C189.833,257.367 190.35,257.767 191.05,258.401 C191.45,258.767 192.25,258.951 193.45,258.951 C193.883,258.951 194.666,258.751 195.8,258.35 C196.934,257.951 197.7,257.75 198.1,257.75 C198.533,257.75 199.166,257.95 200,258.35 C200.833,258.75 201.45,258.951 201.85,258.951 C203.183,258.951 203.85,258.451 203.85,257.451 C203.517,256.951 203.017,256.451 202.35,255.951 C201.05,254.951 199.666,254.451 198.2,254.451 C197.8,254.451 197.033,254.668 195.9,255.1 C194.767,255.5 193.983,255.701 193.55,255.701 C193.317,255.701 192.717,255.418 191.75,254.85 C190.783,254.25 190.017,253.951 189.45,253.951 C188.816,253.951 188.117,254.334 187.35,255.1 C186.55,255.833 185.867,256.201 185.3,256.201 C184.1,256.2 182.7,255.783 181.1,254.95 Z M149.9,55.45 C150.334,54.983 150.95,54.55 151.75,54.15 C151.883,54.117 152.033,54.1 152.2,54.1 C154.367,54.033 155.45,55.183 155.45,57.55 C155.55,58.084 155.45,58.633 155.15,59.2 C154.584,60.266 153.367,60.8 151.5,60.8 L151.15,60.8 C150.617,60.167 150.1,59.617 149.6,59.15 C149.333,58.084 149.2,57.533 149.2,57.5 C149.2,56.833 149.434,56.15 149.9,55.45 Z M148,50.05 C144.3,51.55 142.45,54.05 142.45,57.55 C142.45,59.283 142.783,60.75 143.45,61.95 C143.883,62.75 144.45,63.433 145.15,64 C146.317,65.633 148.334,66.45 151.2,66.45 C151.666,66.45 152.083,66.433 152.45,66.4 C150.95,67.267 149,67.7 146.6,67.7 C138.833,67.7 134.95,64.567 134.95,58.3 C134.95,55.367 136.05,52.834 138.25,50.7 C140.283,48.7 142.684,47.55 145.45,47.25 C147.916,46.983 150.016,47.467 151.75,48.7 C151.483,48.733 151.217,48.783 150.95,48.85 C149.783,49.15 148.8,49.55 148,50.05 Z" id="Shape" fill="#FFFFFF"></path>
            <path d="M312.85,141.925 C313.27,141.779 313.836,141.588 314.55,141.35 C314.803,141.35 315.053,141.333 315.3,141.3 C315.386,141.349 315.47,141.399 315.55,141.45 C314.609,141.637 313.708,141.837 312.85,142.05 L312.85,141.925 Z M309.95,155.95 C309.78,156.02 309.613,156.087 309.45,156.15 C309.717,155.495 309.849,154.895 309.849,154.349 C309.849,151.015 309.158,148.648 307.775,147.249 C309.186,146.379 310.878,145.662 312.849,145.099 C313.479,144.901 315.854,144.392 319.974,143.575 C320.1,143.613 320.225,143.655 320.349,143.7 C324.283,145.066 326.799,146.2 327.9,147.099 C330.2,148.966 331.349,151.866 331.349,155.799 C331.349,158.133 331.183,160.483 330.849,162.849 C330.716,163.749 330.299,166.133 329.599,169.999 C328.799,174.499 326.349,177.732 322.249,179.699 C321.683,179.865 321.166,180.032 320.699,180.199 C319.899,180.632 319.098,180.882 318.299,180.949 C316.999,181.416 316.349,181.749 316.349,181.949 L316.349,182.949 C316.549,183.615 317.133,183.949 318.099,183.949 C318.499,183.949 318.9,183.932 319.299,183.899 C319.133,190.065 318.816,198.115 318.349,208.048 C318.349,210.048 318.367,212.281 318.4,214.748 C318.367,216.081 318.349,217.564 318.349,219.198 C318.349,219.665 318.466,221.965 318.7,226.097 C318.833,230.764 319.016,236.014 319.25,241.847 C319.083,245.414 318.75,251.097 318.25,258.898 C317.45,270.931 316.816,278.281 316.35,280.948 C316.217,281.847 316.034,284.715 315.8,289.548 C315.401,294.848 314.75,299.415 313.85,303.248 C311.05,314.948 305.6,321.031 297.5,321.498 C296.767,321.798 295.967,321.948 295.1,321.948 C293.833,321.948 292.833,321.614 292.1,320.948 C286.234,318.248 280.734,313.231 275.6,305.898 C273.067,302.331 270.517,297.964 267.951,292.797 C265.118,287.197 263.668,284.33 263.6,284.197 C262.067,281.697 260.217,278.297 258.05,273.997 C255.484,268.897 253.75,265.547 252.85,263.947 C250.684,260.214 248.901,257.13 247.5,254.697 C246.066,251.897 244.833,249.647 243.8,247.947 L244.35,247.947 C249.684,246.346 256.368,242.997 264.401,237.897 C268.434,235.33 271.567,233.03 273.8,230.997 C273.833,230.964 273.867,230.947 273.901,230.947 C274.8,232.88 276.317,235.83 278.451,239.797 C281.584,245.597 284.368,250.547 286.801,254.648 C283.834,276.415 282.351,287.847 282.351,288.948 C282.351,290.415 282.851,291.248 283.851,291.448 C286.218,286.215 288.168,277.281 289.702,264.648 C291.136,249.981 292.268,239.514 293.101,233.248 C295.068,220.348 296.501,210.581 297.402,203.948 C299.035,192.215 299.851,182.298 299.851,174.198 L299.851,173.923 C298.268,173.049 296.926,171.073 295.827,167.998 C295.52,167.499 295.195,166.982 294.851,166.448 C292.518,162.948 291.351,160.715 291.351,159.748 C291.351,159.206 291.635,158.54 292.202,157.748 L292.202,157.673 C294.446,155.63 297.463,152.914 301.252,149.524 C305.219,147.886 307.202,149.278 307.202,153.699 C307.202,155.466 305.869,157.365 303.202,159.399 C302.762,159.699 302.336,159.99 301.927,160.274 C301.809,160.377 301.684,160.485 301.552,160.598 C301.287,160.827 301.037,161.044 300.802,161.248 C300.871,161.29 300.947,161.332 301.028,161.373 C300.738,161.616 300.471,161.85 300.227,162.073 C300.23,161.952 300.23,161.835 300.227,161.722 C300.178,161.761 300.127,161.803 300.078,161.847 C300.122,161.927 300.163,162.011 300.203,162.097 C298.637,163.518 297.852,164.385 297.852,164.698 C297.852,164.931 297.953,165.148 298.153,165.347 C298.186,165.381 298.586,165.747 299.352,166.448 C300.198,165.983 301.032,165.442 301.852,164.823 C301.864,165.141 301.872,165.533 301.877,165.998 C302.305,167.018 302.663,167.918 302.952,168.698 C303.535,169.198 304.336,169.448 305.351,169.448 L305.452,169.448 C305.386,170.085 305.351,170.918 305.351,171.948 L305.652,175.248 C306.185,177.715 307.252,178.948 308.851,178.948 C311.084,178.948 314.584,177.948 319.351,175.948 C324.018,174.014 326.351,172.681 326.351,171.948 C326.351,171.748 325.851,171.248 324.851,170.448 C317.318,172.881 312.152,174.548 309.351,175.448 C308.343,172.667 307.56,170.642 307.001,169.373 C309.965,169.124 313.664,168.232 318.101,166.698 C323.268,164.898 325.851,163.531 325.851,162.597 C325.851,162.131 325.818,161.83 325.751,161.698 C325.484,161.198 324.851,160.948 323.851,160.948 C323.119,160.948 322.051,161.314 320.652,162.048 C319.018,162.882 317.885,163.364 317.252,163.498 C316.686,163.632 314.652,164.215 311.152,165.248 C308.919,165.915 306.985,166.248 305.351,166.248 C304.851,166.248 304.635,166.198 304.702,166.098 C304.869,165.998 304.919,165.949 304.851,165.949 L304.851,162.249 C305.16,161.95 305.468,161.643 305.777,161.324 C316.16,157.459 321.351,155.384 321.351,155.098 C321.485,153.998 320.985,153.449 319.851,153.449 C317.184,153.45 313.884,154.283 309.95,155.95 Z M303.35,111.2 C305.361,111.2 306.869,112.258 307.875,114.375 C307.858,114.559 307.85,114.751 307.85,114.95 C307.85,116.75 308.1,120.2 308.6,125.3 C308.774,127.055 308.915,128.58 309.026,129.875 C309.243,132.33 309.35,133.972 309.35,134.8 C309.35,134.853 309.359,135.969 309.375,138.151 C309.385,138.755 309.393,139.438 309.4,140.201 C309.431,141.309 309.481,142.243 309.549,143.001 C307.15,143.807 305.192,144.748 303.674,145.826 C302.81,145.885 301.868,146.094 300.849,146.451 L300.849,139.301 C300.707,137.439 300.624,135.58 300.599,133.726 C300.744,131.712 300.943,129.288 301.2,126.452 C301.7,120.851 301.95,116.669 301.95,113.902 C301.95,113.293 301.917,112.843 301.849,112.552 C302.23,111.65 302.73,111.2 303.35,111.2 Z M184.45,38 C184.45,38.467 184.283,39.883 183.95,42.25 C184.016,44.383 185.016,45.45 186.95,45.45 C187.583,45.45 189.166,44.633 191.7,43 C193.066,42.133 194.733,41.05 196.7,39.75 C197.633,41.183 199.833,43.233 203.3,45.9 C204.234,46.6 205.084,47.217 205.85,47.75 C205.117,48.25 204.433,48.817 203.8,49.45 C200.9,52.283 199.45,55.9 199.45,60.3 C199.45,61.267 199.533,62.15 199.7,62.95 L199.7,64.9 C199.766,66.1 200.016,67.033 200.45,67.7 C203.117,71.7 204.783,73.7 205.45,73.7 C205.85,73.7 206.05,73.617 206.05,73.45 L206.2,72.95 C204.933,71.083 203.967,69.633 203.3,68.6 C205.867,70.5 209.633,71.45 214.6,71.45 C218,71.45 220.8,70.233 223,67.8 C222.833,68.834 222.684,70.084 222.55,71.55 C222.317,73.984 222.117,75.7 221.95,76.7 C221.65,78.367 221.2,81.8 220.6,87 C220.066,91.5 219.517,94.917 218.95,97.25 C215.35,111.95 211.1,121.917 206.2,127.15 C200.166,133.549 190.35,136.75 176.75,136.75 C164.783,136.75 155.4,131.45 148.6,120.85 C148.9,120.484 149.183,120.034 149.45,119.5 C150.117,118.134 150.45,116.566 150.45,114.8 C150.283,113.067 149.95,111.383 149.45,109.75 C148.45,106.55 147.117,104.95 145.45,104.95 C144.083,104.95 142.883,105.4 141.85,106.3 C141.117,104.1 140.45,101.783 139.85,99.35 C138.383,93.55 136.933,84.983 135.5,73.65 C135.1,70.584 134.7,68.117 134.3,66.25 C136.734,69.383 140.867,70.95 146.7,70.95 C150.867,70.95 153.983,70.033 156.05,68.2 C155.55,69.367 154.9,70.383 154.1,71.25 C152.666,72.783 151.95,73.617 151.95,73.75 C151.95,73.783 152.2,74.017 152.7,74.45 C154.833,73.817 156.45,71.933 157.55,68.8 C158.217,66.8 158.6,64.783 158.7,62.75 C158.867,61.55 158.95,60.15 158.95,58.55 C158.95,54.817 158.233,51.75 156.8,49.35 C157.033,49.416 157.25,49.45 157.45,49.45 C159.05,49.45 161.916,47.65 166.05,44.05 C168.15,42.183 170.283,40.167 172.45,38 C172.45,38.367 172.333,39.5 172.1,41.4 C172.166,43.1 173.033,43.95 174.7,43.95 C175.767,43.95 179.017,41.967 184.45,38 Z M210.45,99.8 C210.45,99.334 210.416,99.033 210.35,98.9 C210.15,98.4 209.683,98.084 208.95,97.95 C207.217,97.85 202.933,97.45 196.1,96.75 C192.3,96.35 188.416,96.333 184.45,96.7 C170.117,97.433 160.75,98.067 156.35,98.6 C152.416,99.1 150.45,99.8 150.45,100.7 C150.45,101.433 151.25,103.233 152.85,106.1 C154.75,109.467 156.95,112.666 159.45,115.7 C166.617,124.533 173.7,128.95 180.7,128.95 C189.133,128.95 196.566,124.45 203,115.45 C205.2,112.383 207.066,109.1 208.6,105.6 C209.833,102.733 210.45,100.8 210.45,99.8 Z M188.25,82.45 C188.083,82.317 188,82.233 188,82.2 C187.167,82.2 186.167,82.617 185,83.45 C183.833,84.283 182.184,84.7 180.05,84.7 C179.65,84.7 179.05,84.5 178.25,84.1 C177.483,83.666 176.883,83.45 176.45,83.45 C175.95,83.45 175.583,83.55 175.35,83.75 L174.95,84 C174.516,84.767 174.7,85.583 175.5,86.45 C176.467,87.45 177.95,87.95 179.95,87.95 C181.583,87.95 183.416,87.383 185.45,86.25 C187.45,85.15 188.45,84.217 188.45,83.45 C188.45,82.95 188.383,82.617 188.25,82.45 Z M197.85,149.7 C198.05,150.134 199.083,151.483 200.95,153.75 C202.55,155.65 203.35,157.083 203.35,158.05 C203.35,161.05 202.35,163.634 200.35,165.8 C196.683,169.734 190.083,171.7 180.55,171.7 C173.984,171.7 168.533,169.866 164.2,166.2 C160.7,163.266 158.95,160.45 158.95,157.75 C158.95,155.75 159.783,153.667 161.45,151.5 L161.5,151.5 C161.733,155.8 162.383,157.95 163.45,157.95 C164.45,157.95 164.95,154.65 164.95,148.05 C164.95,143.317 164.7,139.85 164.2,137.651 C168.9,139.184 174.233,139.951 180.2,139.951 C185.467,139.951 190.183,139.301 194.35,138.001 C194.316,140.234 194.117,143.601 193.75,148.101 C193.684,152.368 194.55,155.318 196.35,156.952 C197.15,155.985 197.633,154.368 197.8,152.101 C197.833,151.8 197.85,151 197.85,149.7 Z M7.975,189.45 L8.2,189.45 C8.633,189.45 9.967,189.3 12.2,189 C14.467,188.667 15.8,188.5 16.2,188.5 C19.433,188.5 22.817,189.083 26.35,190.25 C29.85,191.383 31.883,191.95 32.45,191.95 C33.083,191.95 33.5,191.717 33.7,191.25 C33.8,191.017 33.883,190.75 33.95,190.45 C32.05,187.75 27.016,185.9 18.85,184.9 C18.115,184.811 17.415,184.736 16.75,184.674 C18.247,184.358 19.847,184.199 21.55,184.199 C28.35,184.199 33.5,185.249 37,187.348 C37.867,187.848 38.917,188.548 40.15,189.449 C41.217,190.115 42.317,190.449 43.45,190.449 C44.617,190.449 45.833,189.949 47.1,188.949 C47.4,188.749 48.583,187.682 50.65,185.749 C54.05,182.583 57.5,181 61,181 C61.6,181 62.25,181.1 62.95,181.3 C63.617,181.467 63.967,181.616 64,181.75 C63.8,182.15 60.017,186.083 52.65,193.55 C45.85,200.45 42.45,204.833 42.45,206.7 C42.45,206.766 44.633,218.5 49,241.9 C52.6,259.266 55.533,270.183 57.8,274.65 C58.234,276.349 59.05,279.216 60.25,283.25 C62.25,290.05 63.65,293.45 64.45,293.45 C64.95,293.45 65.283,293.383 65.45,293.25 L65.7,293 C65.7,292.8 65.75,292.65 65.85,292.55 C65.916,292.45 65.95,292.167 65.95,291.7 C65.95,290.033 64.65,285.9 62.05,279.3 C61.617,278.234 61.234,277.267 60.9,276.401 C62,275.234 63.467,272.133 65.3,267.1 C67.734,259.701 69.217,255.167 69.75,253.5 C69.95,252.934 71.633,248.65 74.8,240.65 C76.533,236.316 77.717,233.2 78.35,231.299 C80.983,233.733 84.133,236.132 87.8,238.499 C95.867,243.632 103.883,246.882 111.85,248.249 C110.816,249.615 109.7,251.532 108.5,253.999 C104.733,262.399 101.434,269.332 98.6,274.799 C86.933,297.299 72.066,313.933 54,324.699 L49.75,324.699 C45.45,315.166 41.783,304.299 38.75,292.098 C37.316,286.298 35.05,275.415 31.95,259.449 C31.083,254.982 30.117,249.515 29.05,243.049 C27.317,232.216 26.45,226.782 26.45,226.749 C26.317,225.949 25.766,223.266 24.8,218.699 C24.1,215.265 23.65,212.598 23.45,210.699 C23.35,209.899 23.183,209.149 22.95,208.449 L23.45,208.449 C27.883,208.449 30.733,208.216 32,207.749 C32.633,207.549 32.95,207.115 32.95,206.449 C32.95,205.949 32.883,205.615 32.75,205.449 C32.583,205.315 32.5,205.232 32.5,205.199 C23.867,204.499 18.083,203.716 15.15,202.848 C14.417,202.615 14,202.515 13.9,202.548 C13.867,202.548 13.834,202.565 13.8,202.598 C13.633,202.532 13.45,202.482 13.25,202.449 C9.917,201.716 7.783,201.115 6.85,200.649 C6.795,200.622 6.737,200.597 6.675,200.574 C13.684,200.793 18.226,201.085 20.3,201.449 C21.5,201.649 22.383,201.815 22.95,201.949 C23.183,201.949 23.45,201.865 23.75,201.699 C24.217,201.432 24.45,201.015 24.45,200.449 C24.45,199.315 20.533,198.399 12.7,197.699 C8.896,197.359 6.012,197.292 4.05,197.499 C3.984,197.166 3.95,196.815 3.95,196.449 C3.95,195.849 4.1,195.19 4.4,194.473 C8.874,194.631 13.758,195.24 19.05,196.298 C24.55,197.399 28.017,197.948 29.45,197.948 C30.016,197.948 30.367,197.748 30.5,197.347 C30.767,196.614 30.917,196.231 30.95,196.198 C19.307,192.966 11.174,191.258 6.55,191.073 C6.838,190.708 7.154,190.333 7.5,189.948 C7.655,189.778 7.813,189.612 7.975,189.45 Z" id="Shape" fill="#FFD3B9"></path>
            <path d="M247.425,363.4 L120.85,363.4 C120.696,358.359 120.379,350.025 119.9,338.4 C119.2,322 118.717,311.433 118.45,306.7 C117.783,296.566 117.283,286.167 116.95,275.5 C116.816,270.533 116.5,265.434 116,260.2 C116.033,256.633 115.983,253.95 115.85,252.15 C115.816,251.583 115.75,251.066 115.65,250.599 C115.983,249.9 116.267,249.299 116.5,248.799 C117.8,248.9 119.117,248.949 120.45,248.949 C121.083,248.949 122.916,245.282 125.95,237.949 C128.95,230.749 130.45,226.666 130.45,225.699 C130.45,225.065 129.95,224.315 128.95,223.449 C127.35,225.315 125.416,229.598 123.15,236.299 C121.184,242.233 119.9,245.199 119.3,245.199 C111,245.199 101.65,242.365 91.25,236.699 C87.083,234.432 83.617,232.132 80.85,229.799 C78.117,227.499 76.75,225.716 76.75,224.449 C76.75,222.249 80.25,214.899 87.25,202.399 C89.583,198.166 93.566,191.265 99.2,181.699 C101.933,176.999 104.5,173.632 106.9,171.598 C110.8,168.298 116.65,165.598 124.45,163.498 C129.516,162.132 136.55,159.814 145.55,156.548 C147.383,155.882 149.067,155.265 150.6,154.698 C150.5,155.731 150.45,156.847 150.45,158.048 C150.45,161.748 151.233,166.665 152.8,172.798 C152.967,173.498 154.684,179.565 157.95,190.998 C162.95,208.531 165.45,223.298 165.45,235.298 L165.45,239.948 C165.616,242.933 166.116,244.433 166.95,244.448 C166.448,244.449 166.081,244.532 165.85,244.698 L165.5,244.948 C165.267,247.415 165.017,250.631 164.75,254.597 C164.55,258.064 164.45,260.198 164.45,260.997 C164.45,262.164 164.516,263.863 164.65,266.097 C164.85,269.097 165.117,271.398 165.45,272.997 C165.55,273.53 165.467,274.563 165.2,276.097 C165.2,277.497 165.95,278.448 167.45,278.948 C169.816,279.715 175.6,280.581 184.8,281.548 C193.967,282.482 201.067,282.948 206.1,282.948 C209.867,282.948 212.117,281.048 212.85,277.248 C213.083,276.048 213.15,274.631 213.05,272.998 C212.917,271.498 212.85,270.598 212.85,270.298 C212.85,267.331 212.433,262.631 211.6,256.198 C210.767,250.331 210.35,247.347 210.35,247.248 C210.35,246.748 210.416,246.331 210.55,245.998 C210.717,245.731 210.817,245.548 210.85,245.448 L210.85,226.248 C211.217,219.948 212.35,207.364 214.25,188.498 C215.983,170.898 216.85,161.665 216.85,160.798 C216.85,158.331 216.833,156.598 216.8,155.598 C222.4,157.798 228.084,159.915 233.85,161.949 C240.683,163.916 246.433,166.782 251.1,170.549 C253.833,172.716 255.934,174.966 257.401,177.299 C257.634,177.332 257.918,177.4 258.251,177.499 C259.651,180.365 262.768,186.632 267.601,196.299 C274.435,209.999 277.851,216.966 277.851,217.199 C277.851,219.832 276.518,222.666 273.851,225.699 L273.751,225.799 C273.685,225.733 273.618,225.683 273.551,225.65 C273.351,225.95 273.135,226.283 272.902,226.65 C272.169,227.683 271.169,228.783 269.902,229.95 C268.068,231.616 265.702,233.4 262.801,235.3 C256.668,239.3 250.935,242.267 245.601,244.2 C245.501,244.2 245.402,244.217 245.301,244.25 C244.768,244.417 244.185,244.566 243.551,244.7 L243,244.7 C242.833,244.766 242.7,244.833 242.6,244.9 C242.134,244.966 241.667,245.049 241.201,245.15 C240.968,245.116 240.751,245.099 240.551,245.099 C238.351,242.666 236.768,240.316 235.801,238.049 L234.051,233.849 C233.884,233.416 233.735,233.049 233.601,232.749 C232.968,230.315 232.118,228.282 231.051,226.649 C229.651,224.515 228.951,225.149 228.951,228.548 C228.951,230.348 230.034,233.598 232.201,238.298 C233.101,240.232 234.034,241.864 235.001,243.198 L235.001,243.448 C235.268,243.715 235.551,244.031 235.851,244.398 L237.901,246.998 C238.201,247.364 238.568,247.682 239.001,247.948 L240.001,247.948 C240.234,248.347 240.534,248.864 240.901,249.498 C240.201,266.031 239.85,274.381 239.85,274.548 C239.85,276.381 240.284,283.732 241.151,296.598 C241.884,307.965 242.451,316.182 242.85,321.248 C244.25,338.382 245.083,348.182 245.35,350.648 C245.999,356.195 246.691,360.445 247.425,363.4 Z M204.15,152.2 C203.75,151.3 203.35,150.516 202.95,149.849 C205.516,151.016 208.883,152.45 213.05,154.15 C213.584,156.016 213.85,158.15 213.85,160.549 C213.85,165.916 213.25,173.233 212.05,182.499 C210.484,194.666 209.584,202.065 209.35,204.699 C208.983,209.532 208.483,216.882 207.85,226.749 L207.85,237.699 C207.85,238.332 208.033,239.365 208.4,240.799 C208.567,242.066 208.283,243.099 207.55,243.9 C205.417,246.099 198.6,247.2 187.1,247.2 C185.666,247 184.133,246.8 182.5,246.599 C179.233,246.166 175.883,245.95 172.45,245.95 C170.316,245.95 168.95,245.7 168.35,245.2 C167.755,244.704 167.288,244.454 166.95,244.45 C167.783,244.442 168.283,243.192 168.45,240.7 L168.45,236.2 C168.45,222.167 165.95,206.849 160.95,190.25 C157.617,179.116 155.9,173.366 155.8,173 C154.234,167.134 153.45,162.116 153.45,157.95 C153.45,157.217 153.55,156.033 153.75,154.4 C153.783,154.033 153.833,153.7 153.9,153.4 C155.033,152.9 156.067,152.45 157,152.049 C156.3,153.749 155.95,155.666 155.95,157.799 C155.95,161.099 157.717,164.483 161.25,167.949 C166.017,172.615 172.5,174.949 180.7,174.949 C190.633,174.949 197.766,172.716 202.1,168.249 C204.933,165.349 206.35,161.916 206.35,157.949 C205.75,156.05 205.017,154.134 204.15,152.2 Z" id="Shape" fill="#9DB0B7"></path>
        </g>
    </g>
</svg>
