<?xml version="1.0" encoding="UTF-8"?>
<svg width="299px" height="266px" viewBox="0 0 299 266" version="1.1" xmlns="http://www.w3.org/2000/svg" xmlns:xlink="http://www.w3.org/1999/xlink">
    <title>Group</title>
    <defs>
        <path d="M212.2,36.55 C206.333,36.017 197.733,37.217 186.4,40.15 C176.366,42.683 171.15,44.367 170.75,45.2 C156.717,43.533 138.7,41.916 116.7,40.35 C116.033,40.35 115.35,40.367 114.65,40.4 C113.283,39.3 111.334,38.133 108.8,36.9 C104.967,35.267 102.267,34.05 100.7,33.25 C94,31.217 88.483,29.667 84.15,28.6 C75.917,26.567 71.8,26.666 71.8,28.9 C71.8,29.4 74.45,30.2 79.75,31.3 C87.983,32.967 94.35,34.417 98.85,35.65 C99.717,35.883 102.183,37.133 106.25,39.4 C107.15,39.9 107.983,40.334 108.75,40.7 C103.15,41.133 96.6,41.95 89.1,43.15 C76.233,45.183 69.8,47.217 69.8,49.25 C69.8,49.317 69.9,49.433 70.1,49.6 C70.566,49.933 70.967,50.233 71.3,50.5 C76.967,48.4 81.783,47.017 85.75,46.35 C89.85,45.65 99.75,44.533 115.45,43 L129.35,43.2 C148.517,44.533 160.633,45.633 165.7,46.5 C169.3,47.067 176.766,48.417 188.099,50.55 C190.9,50.95 196.749,52.383 205.65,54.85 C213.516,56.983 218.616,58.05 220.95,58.05 C221.483,58.05 222.233,57.4 223.2,56.1 C208.633,51.9 196.816,49.05 187.75,47.55 C184.483,47.017 180.816,46.484 176.75,45.95 C178.883,45.35 181.967,44.333 186,42.9 C194.833,40.433 205.066,39.2 216.7,39.2 C220.634,39.2 223.333,39.467 224.8,40 C226.267,40.5 227.401,40.75 228.2,40.75 C229.266,40.75 229.95,40.633 230.25,40.4 C230.35,40.334 230.5,39.95 230.7,39.25 C229.7,39.017 228.816,38.667 228.05,38.2 C227.151,37.7 226.5,37.383 226.1,37.25 C224.134,36.617 219.5,36.383 212.2,36.55 L212.2,36.55 Z M198.55,17.4 C203.083,19.467 207.8,21.05 212.7,22.15 C228.866,25.683 241.683,30 251.15,35.1 C256.483,37.967 263.083,42.75 270.95,49.45 C276.65,54.283 281.717,64.4 286.15,79.8 C287.116,83.1 287.966,86.317 288.7,89.45 L288.7,89.8 C288.7,91.6 289.134,94.417 290,98.25 C290.967,102.583 291.5,105.267 291.6,106.3 C292,111.267 292.201,116.917 292.201,123.25 C292.201,132.95 290.401,143.233 286.801,154.1 C283.268,164.701 278.451,174.55 272.351,183.651 C262.118,198.951 247.718,211.434 229.152,221.1 C208.452,231.833 185.785,237.201 161.152,237.201 L159.252,237.201 C158.186,237.267 157.019,237.301 155.752,237.301 C153.852,237.301 151.202,237.101 147.802,236.701 C145.002,236.367 142.952,236.067 141.652,235.801 C139.685,235.534 138.152,235.301 137.052,235.101 L136.902,235.101 L135.602,235.051 C103.235,230.051 77.002,221.902 56.902,210.601 C44.235,203.501 31.885,193.402 19.852,180.301 C12.485,172.268 7.269,162.318 4.202,150.451 C1.935,141.651 0.802,131.367 0.802,119.6 C0.802,108.401 2.852,96.517 6.952,83.951 C11.719,69.251 18.635,56.101 27.702,44.501 C38.369,30.801 51.318,20.218 66.552,12.751 C84.219,4.184 104.402,0.101 127.102,0.501 L150.852,0.501 C164.486,2.534 176.502,6.201 186.903,11.501 C189.566,12.833 193.45,14.8 198.55,17.4 L198.55,17.4 Z" id="path-1"></path>
        <path d="M202.75,17.6 C207.983,19.833 212.967,21.467 217.7,22.5 C233.099,25.833 245.533,30.033 255,35.1 C260.7,38.166 267.816,43.267 276.35,50.4 C282.217,55.3 287.451,65.75 292.05,81.75 C293.217,85.883 294.234,89.85 295.1,93.65 C295.567,96.75 295.917,98.917 296.151,100.15 C296.418,101.65 296.817,104.383 297.35,108.35 C297.55,111.017 297.734,114.333 297.901,118.3 C298.1,122.8 298.201,125.45 298.201,126.25 C298.201,135.95 296.251,146.483 292.35,157.85 C288.85,168.017 283.934,178.417 277.6,189.05 C271.067,198.484 261.534,207.634 249,216.5 C224.066,234.233 195.8,243.1 164.2,243.1 C162.7,243.1 161.2,243.017 159.7,242.85 L158.4,242.85 C152.667,242.35 148.85,242 146.95,241.8 C143.916,241.467 141.75,241.134 140.45,240.8 L139.2,240.8 C105.4,235.567 78.566,227.417 58.7,216.35 C50.8,211.917 43.467,206.767 36.7,200.901 C32.3,197.034 26.916,191.701 20.55,184.901 C12.783,176.567 7.35,166.384 4.25,154.35 C1.95,145.55 0.8,134.967 0.8,122.6 C0.8,114.3 2.267,104.6 5.2,93.5 C9.233,78.267 15.283,64.55 23.35,52.35 C33.683,36.683 46.75,24.533 62.55,15.9 C81.617,5.5 104.167,0.533 130.2,1 L130.2,0.8 L153.2,0.8 C165.099,2.133 177.05,5.6 189.05,11.2 C192.184,12.667 196.75,14.8 202.75,17.6 L202.75,17.6 Z M201.55,20.4 C196.45,17.8 192.567,15.834 189.901,14.5 C179.501,9.2 167.484,5.533 153.85,3.5 L130.1,3.5 C107.4,3.1 87.217,7.183 69.55,15.75 C54.317,23.217 41.367,33.8 30.7,47.5 C21.633,59.1 14.717,72.25 9.95,86.95 C5.85,99.516 3.8,111.4 3.8,122.599 C3.8,134.366 4.933,144.65 7.2,153.45 C10.266,165.316 15.483,175.266 22.85,183.3 C34.883,196.401 47.233,206.5 59.9,213.6 C80,224.901 106.233,233.05 138.6,238.05 L139.9,238.1 L140.05,238.1 C141.15,238.3 142.683,238.534 144.65,238.8 C145.95,239.067 148,239.366 150.8,239.7 C154.2,240.099 156.85,240.3 158.75,240.3 C160.017,240.3 161.184,240.267 162.25,240.2 L164.15,240.2 C188.783,240.2 211.45,234.833 232.15,224.099 C250.716,214.433 265.116,201.95 275.349,186.65 C281.45,177.549 286.266,167.7 289.799,157.099 C293.4,146.233 295.199,135.95 295.199,126.249 C295.199,119.916 294.999,114.266 294.598,109.299 C294.498,108.266 293.965,105.583 292.998,101.249 C292.132,97.416 291.698,94.599 291.698,92.799 L291.698,92.449 C290.965,89.316 290.114,86.099 289.148,82.799 C284.714,67.399 279.648,57.282 273.948,52.449 C266.081,45.749 259.481,40.966 254.148,38.099 C244.681,32.999 231.864,28.682 215.698,25.149 C210.8,24.05 206.083,22.467 201.55,20.4 L201.55,20.4 Z M215.2,39.55 C222.5,39.383 227.134,39.617 229.099,40.25 C229.499,40.383 230.15,40.7 231.049,41.2 C231.816,41.666 232.699,42.016 233.699,42.25 C233.499,42.95 233.348,43.333 233.249,43.4 C232.949,43.633 232.266,43.75 231.199,43.75 C230.399,43.75 229.265,43.5 227.799,43 C226.332,42.467 223.633,42.2 219.699,42.2 C208.065,42.2 197.832,43.433 188.999,45.9 C184.966,47.334 181.882,48.35 179.749,48.95 C183.815,49.483 187.482,50.016 190.749,50.55 C199.815,52.05 211.632,54.9 226.199,59.1 C225.232,60.4 224.482,61.05 223.949,61.05 C221.615,61.05 216.515,59.984 208.649,57.85 C199.749,55.383 193.899,53.95 191.098,53.55 C179.765,51.417 172.298,50.067 168.699,49.5 C163.632,48.633 151.515,47.533 132.349,46.2 L118.449,46 C102.749,47.533 92.849,48.65 88.749,49.35 C84.782,50.017 79.966,51.4 74.299,53.5 C73.966,53.233 73.566,52.933 73.099,52.6 C72.899,52.433 72.799,52.317 72.799,52.25 C72.799,50.217 79.233,48.183 92.099,46.15 C99.599,44.95 106.149,44.133 111.749,43.7 C110.982,43.333 110.149,42.9 109.249,42.4 C105.182,40.133 102.716,38.883 101.849,38.65 C97.349,37.417 90.982,35.967 82.749,34.3 C77.449,33.2 74.799,32.4 74.799,31.9 C74.799,29.667 78.916,29.567 87.149,31.6 C91.482,32.666 96.999,34.217 103.699,36.25 C105.265,37.05 107.966,38.267 111.799,39.9 C114.333,41.133 116.282,42.3 117.649,43.4 C118.349,43.367 119.032,43.35 119.699,43.35 C141.699,44.916 159.716,46.533 173.749,48.2 C174.149,47.367 179.365,45.683 189.399,43.15 C200.733,40.217 209.333,39.017 215.2,39.55 L215.2,39.55 Z" id="path-3"></path>
        <path d="M133.9,24.85 C132.4,30.55 130.667,35.883 128.7,40.85 C124.833,50.65 120.8,57.233 116.599,60.6 C120.332,59.967 123.332,59.383 125.599,58.85 C133.666,56.983 141.166,53.633 148.099,48.8 C149.299,47.967 154.883,42.717 164.849,33.05 C172.082,26.017 175.7,23.85 175.7,26.55 C175.7,29.55 174.033,33.65 170.7,38.85 C166.8,44.817 161.733,50.4 155.5,55.6 C138.467,69.733 117.95,76.8 93.95,76.8 C91.349,76.8 88.816,76.05 86.349,74.55 C85.849,74.217 85.4,73.917 84.999,73.65 C81.433,75.084 76.582,75.8 70.449,75.8 C63.015,75.8 56.966,74.45 52.299,71.75 C46.899,71.283 39.583,68.283 30.349,62.75 C21.415,57.45 15.665,53.133 13.099,49.8 C8.299,43.6 5.082,38.834 3.449,35.5 C1.349,31.233 0.299,26.617 0.299,21.65 C0.299,18.017 0.766,16.3 1.699,16.5 C2.432,16.7 3.582,18.217 5.149,21.05 C6.049,22.717 7.532,25.6 9.599,29.7 C11.466,33.3 12.949,35.75 14.049,37.05 C19.682,43.65 26.466,48.817 34.399,52.55 C36.232,53.417 38.583,54.383 41.449,55.45 C41.015,52.95 40.799,50.166 40.799,47.1 C40.799,40.967 41.882,38.083 44.049,38.45 C46.416,38.817 49.132,43.35 52.199,52.05 C54.399,55.617 57.432,57.867 61.299,58.8 C59.866,57.533 58.483,55.867 57.149,53.8 C56.182,52.367 54.416,48.95 51.849,43.55 C50.482,40.75 49.665,37.567 49.399,34 C49.333,33.167 49.299,29.967 49.299,24.4 C49.299,19.567 49.932,13.95 51.199,7.55 C52.532,0.984 54.332,-0.766 56.599,2.3 C56.999,4 57.199,6.85 57.199,10.85 C57.199,15.883 57.232,18.8 57.299,19.6 C57.532,23.133 58.216,25.967 59.349,28.1 C61.282,31.7 64.266,35.3 68.299,38.9 C69.399,39.9 70.449,40.8 71.449,41.6 C71.949,37.467 72.199,34.7 72.199,33.3 C73.265,26.1 75.216,19.5 78.049,13.5 C79.116,11.167 80.032,9.683 80.799,9.05 C81.099,7.817 82.032,6.8 83.599,6 C85.366,5.1 87.483,4.65 89.95,4.65 C92.483,4.683 94.599,5.2 96.3,6.2 C98.234,7.333 99.2,8.916 99.2,10.95 C99.2,12.683 98.7,14.05 97.7,15.05 L97.7,15.3 C97.7,15.5 96.45,17.867 93.95,22.4 C91.45,26.9 90.2,31.15 90.2,35.15 C90.2,36.717 90.533,40.017 91.2,45.05 C91.866,50.117 92.2,53.65 92.2,55.65 L92.2,57 C94.099,55.133 97.133,52.967 101.3,50.5 C111.1,44.7 116.984,40.817 118.95,38.85 C121.45,36.35 124.667,31.5 128.599,24.3 C131.9,18.267 134.15,15.183 135.349,15.05 C135.349,15.084 135.416,15.167 135.549,15.3 C135.65,15.467 135.699,15.8 135.699,16.3 C135.7,17.367 135.1,20.217 133.9,24.85 L133.9,24.85 Z M112.85,48.6 C112.083,49.166 109.883,50.367 106.25,52.2 C102.517,54.067 99.833,55.283 98.2,55.85 C96.933,56.283 95.599,57.45 94.2,59.35 C93.233,60.783 92.45,61.867 91.849,62.6 C91.816,63.033 91.766,63.45 91.7,63.85 C91.667,64.15 91.633,64.433 91.599,64.7 C93.299,64.133 95.632,63.65 98.599,63.25 C101.9,62.817 104.933,62.4 107.7,62 L107.7,61.9 C107.7,61.867 108.5,61.267 110.099,60.1 C112.132,58.5 114.049,56.717 115.849,54.75 C121.783,48.283 125.9,40.733 128.2,32.1 L128.099,31.85 C124.733,37.45 119.65,43.033 112.85,48.6 L112.85,48.6 Z M160.8,42 C156.767,45.833 153.083,48.9 149.75,51.2 C137.55,59.633 123.083,63.85 106.35,63.85 C104.25,63.85 101.217,64.483 97.25,65.75 C94.417,66.65 92.267,67.467 90.8,68.2 C90.467,69.2 90.067,69.916 89.6,70.35 C89.401,70.817 89,71.3 88.401,71.8 C90.567,72.967 92.401,73.55 93.901,73.55 C110.067,73.55 124.784,70.3 138.05,63.8 C151.583,57.167 161.267,48.25 167.1,37.05 L167.1,36.8 C166.2,37.133 164.1,38.867 160.8,42 L160.8,42 Z M85.5,11.9 C86.467,12.633 87.783,13.183 89.45,13.55 L93.849,13.55 C94.95,13.117 95.632,12.75 95.9,12.45 C96.099,12.217 96.2,11.783 96.2,11.15 C96.2,9.817 95.183,8.817 93.15,8.15 C90.549,7.35 87.4,8 83.7,10.1 C84.1,10.433 84.7,11.033 85.5,11.9 L85.5,11.9 Z M75.3,59.55 C75.4,59.883 75.65,60.05 76.05,60.05 C76.283,60.05 76.5,59.984 76.7,59.85 C76.967,59.916 77.217,59.983 77.45,60.05 C78.516,60.383 80.8,61.9 84.3,64.6 C85.467,65.5 86.45,66.283 87.25,66.95 C87.483,65.916 87.717,64.85 87.95,63.75 C88.783,59.95 89.2,57.217 89.2,55.55 C89.2,53.317 88.866,49.933 88.2,45.4 C87.533,40.9 87.2,37.567 87.2,35.4 C87.2,30.567 87.7,26.8 88.7,24.1 C89.766,21.3 91.516,18.817 93.95,16.65 C93.25,16.75 92.5,16.8 91.7,16.8 C87.366,16.8 84.25,15.717 82.349,13.55 C82.082,13.25 81.849,12.95 81.65,12.65 C81.116,14.317 80.167,17.017 78.799,20.75 C76.466,27.717 75.266,33.167 75.199,37.1 C75.132,44.2 74.966,49.233 74.699,52.2 C74.399,55.2 73.999,57.567 73.499,59.3 C74.133,59.367 74.733,59.45 75.3,59.55 L75.3,59.55 Z M53.95,8.85 C53.283,13.283 52.75,16.416 52.35,18.25 C52.25,18.717 52.2,20.767 52.2,24.4 C52.2,32.367 53,38.167 54.6,41.8 C56.633,46.5 61.383,52.317 68.85,59.25 L69.3,59.25 C69.467,57.117 69.933,53.183 70.7,47.45 C70.733,47.25 70.766,47.05 70.8,46.85 C69.433,46.65 67.933,45.683 66.3,43.95 C62.467,41.683 59.433,36.583 57.2,28.65 C55.2,21.55 54.2,14.95 54.2,8.85 L53.95,8.85 L53.95,8.85 Z M44.1,45.2 C43.9,45.967 43.8,46.6 43.8,47.1 C43.8,53.1 44.734,57.85 46.6,61.35 C50.566,68.817 58.35,72.55 69.95,72.55 C76.55,72.55 80.9,72.067 83,71.1 C83.267,70.967 83.533,70.8 83.8,70.6 L83.85,70.55 C84.05,70.35 84.25,70.183 84.451,70.05 C84.751,69.75 85.084,69.6 85.451,69.6 C81.951,66.233 76.451,63.933 68.951,62.7 C64.517,61.933 61.718,61.4 60.551,61.1 C57.551,60.367 55.101,59.283 53.201,57.85 C50.868,56.117 49.051,53.583 47.751,50.25 C46.251,46.35 45.184,44.033 44.551,43.3 L44.551,43.35 C44.483,43.75 44.333,44.367 44.1,45.2 L44.1,45.2 Z M43.85,62.9 C43.15,61.533 42.566,60 42.1,58.3 C36.4,58.1 28.983,54.05 19.85,46.15 C13.883,40.983 9.367,36.45 6.3,32.55 C8.267,39.917 13.584,46.767 22.25,53.1 C28.183,57.433 36.083,61.8 45.95,66.2 C45.15,65.167 44.45,64.067 43.85,62.9 L43.85,62.9 Z" id="path-5"></path>
        <path d="M106.85,40.6 C113.651,35.033 118.734,29.45 122.1,23.85 L122.201,24.1 C119.901,32.733 115.784,40.283 109.85,46.75 C108.05,48.717 106.133,50.5 104.1,52.1 C102.5,53.267 101.701,53.867 101.701,53.9 L101.701,54 C98.934,54.4 95.901,54.817 92.6,55.25 C89.633,55.65 87.3,56.133 85.6,56.7 C85.633,56.433 85.667,56.15 85.701,55.85 C85.767,55.45 85.817,55.033 85.85,54.6 C86.451,53.867 87.234,52.783 88.201,51.35 C89.6,49.45 90.934,48.283 92.201,47.85 C93.834,47.283 96.517,46.067 100.251,44.2 C103.883,42.367 106.083,41.167 106.85,40.6 L106.85,40.6 Z M70.7,51.85 C70.5,51.983 70.283,52.05 70.05,52.05 C69.65,52.05 69.4,51.883 69.3,51.55 L69.3,51.05 C69.3,50.717 69.8,48.867 70.8,45.5 C71.8,42.133 72.3,38.667 72.3,35.1 L71.8,23.65 C71.8,19.75 72.8,15.75 74.8,11.65 C75.567,10.117 76.25,9.033 76.85,8.4 C77.484,7.767 77.8,7.867 77.8,8.7 C77.8,9.2 77.05,10.883 75.55,13.75 C74.05,17.15 73.3,20.383 73.3,23.45 L73.8,35.2 C73.8,37.9 73.55,40.983 73.05,44.45 C72.45,48.65 71.667,51.117 70.7,51.85 L70.7,51.85 Z M47.95,0.85 L48.2,0.85 C48.2,6.95 49.2,13.55 51.2,20.65 C53.433,28.584 56.467,33.683 60.3,35.95 C61.933,37.683 63.433,38.65 64.8,38.85 C64.767,39.05 64.734,39.25 64.7,39.45 C63.933,45.183 63.467,49.117 63.3,51.25 L62.85,51.25 C55.383,44.317 50.633,38.5 48.6,33.8 C47,30.167 46.2,24.367 46.2,16.4 C46.2,12.767 46.25,10.717 46.35,10.25 C46.75,8.417 47.283,5.283 47.95,0.85 L47.95,0.85 Z M37.85,54.9 C38.45,56.067 39.15,57.167 39.95,58.2 C30.083,53.8 22.183,49.433 16.25,45.1 C7.583,38.767 2.267,31.916 0.3,24.55 C3.367,28.45 7.883,32.984 13.85,38.15 C22.983,46.05 30.4,50.1 36.1,50.3 C36.566,52 37.15,53.533 37.85,54.9 L37.85,54.9 Z" id="path-7"></path>
        <path d="M117.8,30 C121.1,26.867 123.2,25.133 124.1,24.8 L124.1,25.05 C118.267,36.25 108.583,45.167 95.05,51.8 C81.783,58.3 67.067,61.55 50.901,61.55 C49.401,61.55 47.567,60.967 45.401,59.8 C46.001,59.3 46.401,58.817 46.6,58.35 C47.067,57.916 47.467,57.2 47.8,56.2 C49.267,55.467 51.417,54.65 54.25,53.75 C58.217,52.483 61.25,51.85 63.35,51.85 C80.083,51.85 94.55,47.633 106.75,39.2 C110.083,36.9 113.767,33.833 117.8,30 L117.8,30 Z M32.3,47.55 C31.734,47.45 31.133,47.367 30.5,47.3 C31,45.567 31.4,43.2 31.7,40.2 C31.967,37.233 32.133,32.2 32.2,25.1 C32.266,21.166 33.467,15.717 35.8,8.75 C37.167,5.017 38.116,2.317 38.651,0.65 C38.85,0.95 39.084,1.25 39.35,1.55 C41.25,3.717 44.367,4.8 48.701,4.8 C49.501,4.8 50.251,4.75 50.951,4.65 C48.517,6.817 46.767,9.3 45.701,12.1 C44.701,14.8 44.201,18.567 44.201,23.4 C44.201,25.567 44.534,28.9 45.201,33.4 C45.867,37.933 46.201,41.317 46.201,43.55 C46.201,45.217 45.784,47.95 44.951,51.75 C44.718,52.85 44.484,53.917 44.251,54.95 C43.451,54.283 42.468,53.5 41.301,52.6 C37.801,49.9 35.518,48.383 34.451,48.05 C34.218,47.984 33.968,47.917 33.701,47.85 C34.667,47.117 35.451,44.65 36.051,40.45 C36.551,36.983 36.801,33.9 36.801,31.2 L36.301,19.45 C36.301,16.383 37.051,13.15 38.551,9.75 C40.051,6.883 40.801,5.2 40.801,4.7 C40.801,3.867 40.485,3.766 39.851,4.4 C39.251,5.033 38.568,6.117 37.801,7.65 C35.801,11.75 34.801,15.75 34.801,19.65 L35.301,31.1 C35.301,34.666 34.801,38.133 33.801,41.5 C32.801,44.867 32.301,46.717 32.301,47.05 L32.301,47.55 L32.3,47.55 Z M1.1,33.2 C1.333,32.367 1.483,31.75 1.55,31.35 L1.55,31.3 C2.183,32.033 3.25,34.35 4.75,38.25 C6.05,41.583 7.867,44.117 10.2,45.85 C12.1,47.283 14.55,48.367 17.55,49.1 C18.717,49.4 21.517,49.933 25.95,50.7 C33.45,51.933 38.95,54.233 42.45,57.6 C42.083,57.6 41.75,57.75 41.45,58.05 C41.25,58.183 41.05,58.35 40.849,58.55 L40.799,58.6 C40.532,58.8 40.266,58.967 39.999,59.1 C37.899,60.067 33.549,60.55 26.949,60.55 C15.349,60.55 7.565,56.817 3.599,49.35 C1.732,45.85 0.799,41.1 0.799,35.1 C0.8,34.6 0.9,33.967 1.1,33.2 L1.1,33.2 Z" id="path-9"></path>
        <path d="M2.5,4.9 C1.7,4.033 1.1,3.433 0.7,3.1 C4.4,1 7.55,0.35 10.15,1.15 C12.183,1.817 13.2,2.817 13.2,4.15 C13.2,4.783 13.099,5.217 12.9,5.45 C12.632,5.75 11.95,6.117 10.849,6.55 L6.45,6.55 C4.783,6.183 3.467,5.633 2.5,4.9 L2.5,4.9 Z" id="path-11"></path>
        <path d="M45.5,0.55 C51.033,-0.45 53.8,1.917 53.8,7.65 C53.8,8.117 52.567,9.65 50.1,12.25 C46.5,15.95 43.617,18.967 41.45,21.3 C32.617,30.9 27.066,38.817 24.8,45.05 C20.8,55.783 18.5,62.5 17.9,65.2 C17.167,68.367 16.8,73.733 16.8,81.3 C16.8,118.366 31.3,145.116 60.3,161.55 C67.334,165.55 77.3,169.783 90.2,174.25 C95.1,175.917 98.383,177.167 100.05,178 C102.55,179.233 103.8,180.467 103.8,181.7 C103.8,183 103.217,184.349 102.05,185.75 C100.484,187.65 98.4,188.6 95.8,188.6 C62.967,188.6 37.633,173.701 19.8,143.901 C13.4,133.168 8.45,121.251 4.95,108.151 C2.183,97.717 0.8,88.8 0.8,81.401 C0.8,66.734 3.567,52.917 9.1,39.951 C13.733,29.017 19.8,19.751 27.3,12.151 C33.967,5.417 40.033,1.55 45.5,0.55 L45.5,0.55 Z" id="path-13"></path>
    </defs>
    <g id="Page-1" stroke="none" stroke-width="1" fill="none" fill-rule="evenodd">
        <g id="Group">
            <g id="Group-3" transform="translate(3.000000, 25.000000)">
                <mask id="mask-2" fill="white">
                    <use xlink:href="#path-1"></use>
                </mask>
                <g id="Clip-2"></g>
                <polygon id="Fill-1" fill="#C32B08" mask="url(#mask-2)" points="-4.198 -4.5258 297.201 -4.5258 297.201 242.301 -4.198 242.301"></polygon>
            </g>
            <g id="Group-6" transform="translate(0.000000, 22.000000)">
                <mask id="mask-4" fill="white">
                    <use xlink:href="#path-3"></use>
                </mask>
                <g id="Clip-5"></g>
                <polygon id="Fill-4" fill="#000000" mask="url(#mask-4)" points="-4.2 -4.2 303.201 -4.2 303.201 248.1 -4.2 248.1"></polygon>
            </g>
            <g id="Group-9" transform="translate(69.000000, 0.000000)">
                <mask id="mask-6" fill="white">
                    <use xlink:href="#path-5"></use>
                </mask>
                <g id="Clip-8"></g>
                <polygon id="Fill-7" fill="#000000" mask="url(#mask-6)" points="-4.701 -4.1639 180.7 -4.1639 180.7 81.8 -4.701 81.8"></polygon>
            </g>
            <g id="Group-12" transform="translate(75.000000, 8.000000)">
                <mask id="mask-8" fill="white">
                    <use xlink:href="#path-7"></use>
                </mask>
                <g id="Clip-11"></g>
                <polygon id="Fill-10" fill="#669A1F" mask="url(#mask-8)" points="-4.7 -4.15 127.201 -4.15 127.201 63.2 -4.7 63.2"></polygon>
            </g>
            <g id="Group-15" transform="translate(112.000000, 12.000000)">
                <mask id="mask-10" fill="white">
                    <use xlink:href="#path-9"></use>
                </mask>
                <g id="Clip-14"></g>
                <polygon id="Fill-13" fill="#4C6F1D" mask="url(#mask-10)" points="-4.201 -4.35 129.1 -4.35 129.1 66.55 -4.201 66.55"></polygon>
            </g>
            <g id="Group-18" transform="translate(152.000000, 7.000000)">
                <mask id="mask-12" fill="white">
                    <use xlink:href="#path-11"></use>
                </mask>
                <g id="Clip-17"></g>
                <polygon id="Fill-16" fill="#395D0A" mask="url(#mask-12)" points="-4.3 -4.181 18.2 -4.181 18.2 11.55 -4.3 11.55"></polygon>
            </g>
            <g id="Group-21" transform="translate(12.000000, 56.000000)">
                <mask id="mask-14" fill="white">
                    <use xlink:href="#path-13"></use>
                </mask>
                <g id="Clip-20"></g>
                <polygon id="Fill-19" fill="#D63510" mask="url(#mask-14)" points="-4.2 -4.6728 108.8 -4.6728 108.8 193.6 -4.2 193.6"></polygon>
            </g>
        </g>
    </g>
</svg>
