<?xml version="1.0" encoding="UTF-8"?>
<svg width="757px" height="781px" viewBox="0 0 757 781" version="1.1" xmlns="http://www.w3.org/2000/svg" xmlns:xlink="http://www.w3.org/1999/xlink">
    <!-- Generator: Sketch 43.2 (39069) - http://www.bohemiancoding.com/sketch -->
    <title>Group</title>
    <desc>Created with Sketch.</desc>
    <defs></defs>
    <g id="Page-1" stroke="none" stroke-width="1" fill="none" fill-rule="evenodd">
        <g id="Group" transform="translate(-1.000000, 0.000000)">
            <path d="M251.05,10.005 C252.35,9.872 253.667,9.772 255,9.705 C270.533,8.938 285.466,11.538 299.8,17.505 C300.767,17.905 301.717,18.321 302.65,18.755 C303.417,17.155 304.2,15.638 305,14.205 C311.667,2.072 315,2.105 315,14.305 C315,16.172 314.15,19.322 312.45,23.755 C322.15,29.388 330.967,36.571 338.9,45.305 C339.733,46.205 340.55,47.122 341.35,48.055 C353.05,40.688 361.767,37.188 367.5,37.555 C367.5,37.755 367.75,38.188 368.25,38.855 C368.75,39.522 369,40.838 369,42.805 C369,44.672 362.716,49.705 350.15,57.905 C349.85,58.105 349.567,58.288 349.3,58.455 C354,65.255 358.117,72.655 361.65,80.655 C361.783,80.555 361.933,80.455 362.1,80.355 C371.8,74.622 378.267,71.688 381.5,71.555 C381.5,71.755 381.75,72.188 382.25,72.855 C382.75,73.522 383,74.838 383,76.805 C383,80.472 379.033,84.438 371.1,88.705 C369.167,89.672 367.45,90.538 365.95,91.305 C366.117,91.838 366.3,92.388 366.5,92.955 C369.767,102.355 372.283,112.272 374.05,122.705 C379.95,120.372 385.1,119.322 389.5,119.555 C389.5,119.755 389.75,120.188 390.25,120.855 C390.75,121.522 391,122.838 391,124.805 C391,127.305 387.3,130.488 379.899,134.355 C378.5,135.088 377.149,135.772 375.849,136.405 C376.616,144.105 376.999,152.072 376.999,160.305 C376.999,166.638 376.915,173.138 376.749,179.805 C379.949,179.672 383.532,179.588 387.499,179.555 C387.499,179.755 387.749,180.188 388.249,180.855 C388.749,181.522 388.999,182.838 388.999,184.805 C388.999,186.572 387.032,188.505 383.099,190.605 C381.033,191.705 378.749,192.588 376.249,193.255 C375.782,204.355 375.082,215.938 374.148,228.005 C377.415,227.272 381.199,226.455 385.499,225.555 C385.499,225.755 385.749,226.188 386.249,226.855 C386.749,227.522 386.999,228.838 386.999,230.805 C386.999,232.805 383.683,235.572 377.049,239.105 C375.683,239.838 374.365,240.505 373.099,241.105 C372.266,250.238 371.332,259.639 370.299,269.305 C373.532,268.772 377.266,268.188 381.499,267.555 C381.499,267.755 381.749,268.188 382.249,268.855 C382.749,269.522 382.999,270.838 382.999,272.805 C382.999,275.472 380.332,278.088 374.999,280.655 C372.932,281.655 370.849,282.455 368.749,283.055 C367.649,292.155 366.565,300.905 365.499,309.305 C366.166,309.372 366.832,309.455 367.499,309.555 C367.499,309.755 367.749,310.188 368.249,310.855 C368.749,311.522 368.999,312.838 368.999,314.805 C368.999,317.338 367.315,319.472 363.949,321.205 C362.982,328.605 361.999,335.722 360.999,342.555 C360.999,344.689 361.215,346.739 361.649,348.705 C361.882,349.871 362.332,351.654 362.999,354.055 C372.332,348.888 380.532,342.272 387.599,334.205 C386.665,332.571 385.733,330.821 384.799,328.955 C383.599,326.555 382.999,325.422 382.999,325.555 C382.999,319.722 384.216,316.455 386.648,315.755 C388.749,315.188 391.548,316.555 395.048,319.855 C395.648,320.422 396.265,321.039 396.898,321.705 C397.898,320.105 398.881,318.455 399.848,316.755 C403.315,310.588 406.715,303.221 410.048,294.655 C410.114,294.522 411.614,290.455 414.548,282.455 C410.848,278.889 408.998,277.255 408.998,277.555 C408.998,271.022 412.182,269.022 418.548,271.555 C423.348,258.588 428.265,248.572 433.298,241.505 C430.598,237.672 429.248,235.772 429.248,235.805 C429.248,230.172 430.715,227.455 433.647,227.655 C435.681,227.788 438.347,229.355 441.647,232.355 C450.948,224.555 463.248,220.622 478.547,220.555 C479.181,217.888 479.58,215.722 479.747,214.055 C484.78,212.255 488.097,212.355 489.697,214.355 C490.73,215.622 491.247,218.355 491.247,222.555 C491.214,222.655 491.197,222.772 491.197,222.905 C493.497,223.838 495.714,225.072 497.846,226.605 C501.746,229.338 505.329,233.072 508.596,237.805 C510.063,239.872 511.463,242.138 512.796,244.605 C516.696,244.338 521.013,244.655 525.746,245.555 C525.746,245.755 525.996,246.188 526.496,246.855 C526.996,247.522 527.246,248.838 527.246,250.805 C527.246,252.772 526.796,254.138 525.895,254.905 C525.128,255.572 523.595,256.138 521.295,256.605 C520.328,256.805 519.378,257.005 518.445,257.205 C519.144,259.105 519.828,261.072 520.495,263.105 C523.528,272.372 525.795,281.938 527.295,291.805 C531.295,291.638 535.945,291.888 541.245,292.555 C543.578,294.722 545.012,296.072 545.545,296.605 C546.679,297.738 547.245,298.472 547.245,298.805 C547.245,300.672 546.828,302.005 545.995,302.805 C545.161,303.605 543.561,304.238 541.195,304.705 C537.128,305.172 533.028,305.722 528.894,306.355 C528.928,306.922 528.961,307.488 528.995,308.055 C528.995,316.155 527.861,325.088 525.595,334.855 C532.995,336.755 537.545,338.989 539.245,341.555 C538.911,341.989 538.661,342.671 538.495,343.605 C538.295,344.905 538.179,345.671 538.144,345.905 C537.611,347.672 535.978,348.555 533.245,348.555 C529.078,348.555 525.345,348.355 522.045,347.955 C520.945,351.455 519.729,355.055 518.395,358.755 C516.829,363.088 515.179,367.272 513.446,371.305 C519.612,375.072 524.213,378.822 527.246,382.555 C527.079,383.655 526.763,384.689 526.296,385.655 C525.396,387.589 523.713,388.555 521.246,388.555 C517.846,388.555 513.346,386.855 507.746,383.455 C502.812,393.021 497.379,401.521 491.446,408.955 C492.046,409.654 492.662,410.388 493.296,411.154 C496.73,415.221 498.713,417.854 499.246,419.054 C499.112,419.154 498.263,420.204 496.696,422.204 C495.496,423.77 494.345,424.554 493.246,424.554 C490.379,424.554 486.729,422.837 482.296,419.404 C474.73,427.438 466.846,434.304 458.646,440.005 C460.48,443.671 462.013,447.355 463.247,451.055 C463.113,451.155 462.264,452.205 460.697,454.205 C459.497,455.771 458.346,456.555 457.247,456.555 C454.98,456.555 451.813,453.305 447.747,446.805 C445.913,447.805 444.063,448.755 442.197,449.655 C435.964,452.655 428.663,455.339 420.297,457.706 C421.931,461.139 423.58,464.839 425.247,468.806 C425.247,470.906 425.08,472.156 424.747,472.556 L424.247,472.556 C424.08,472.889 423.813,473.223 423.447,473.556 C422.68,474.223 421.28,474.556 419.247,474.556 C414.88,474.556 410.931,469.99 407.396,460.856 C405.497,461.256 403.546,461.639 401.546,462.006 C393.713,463.473 388.396,464.606 385.596,465.405 C382.563,466.239 379.896,467.222 377.596,468.355 C377.662,468.388 377.73,468.439 377.796,468.505 C380.629,470.904 383.029,472.588 384.996,473.555 C384.662,473.989 384.412,474.671 384.246,475.605 C384.013,476.939 383.862,477.706 383.796,477.905 C383.23,479.672 381.629,480.555 378.996,480.555 C375.696,480.555 372.062,479.322 368.096,476.855 C364.696,482.388 362.996,490.122 362.996,500.055 C362.996,500.822 363.146,503.005 363.446,506.605 C393.246,506.972 414.779,511.305 428.046,519.605 C436.68,525.039 440.996,531.272 440.996,538.305 C440.996,539.671 440.496,541.105 439.496,542.605 C440.629,546.405 441.496,551.072 442.096,556.605 C442.763,562.706 443.113,570.122 443.146,578.855 C443.146,583.555 443.096,589.372 442.997,596.305 C442.997,608.272 442.913,617.239 442.747,623.205 C442.48,633.005 442.014,642.338 441.347,651.205 C443.913,648.838 446.63,646.538 449.497,644.305 C453.896,640.871 456.464,638.905 457.197,638.405 C460.13,636.539 463.78,634.939 468.146,633.605 C474.513,631.671 485.263,629.572 500.396,627.305 C498.03,623.171 495.913,614.838 494.046,602.305 C493.18,596.572 492.412,590.222 491.746,583.255 L490.996,575.055 C490.996,572.255 491.829,566.705 493.496,558.405 C495.263,549.472 497.412,540.489 499.946,531.456 C506.713,507.155 513.062,493.189 518.996,489.556 C535.196,479.756 550.496,474.723 564.895,474.456 C577.062,474.223 588.162,477.389 598.196,483.956 C605.296,488.556 611.362,494.473 616.395,501.706 C616.696,501.539 616.996,501.372 617.295,501.206 C621.328,499.105 626.845,497.639 633.845,496.806 C649.446,494.906 666.212,496.339 684.145,501.106 C704.979,506.639 721.729,515.589 734.395,527.957 C749.628,542.79 757.246,561.24 757.246,583.307 C757.246,585.373 756.895,589.324 756.196,595.157 C755.229,603.191 753.946,610.574 752.345,617.307 C748.446,633.873 743.378,643.807 737.145,647.107 C739.579,653.507 741.529,660.257 742.996,667.357 C744.496,674.791 745.246,681.441 745.246,687.307 C745.246,692.441 744.513,698.04 743.046,704.107 C740.912,712.941 737.513,720.857 732.846,727.857 C719.379,748.157 697.43,758.307 666.996,758.307 C638.395,758.307 611.779,751.457 587.145,737.757 C578.746,733.123 571.029,727.906 563.996,722.107 C560.796,719.507 558.096,717.107 555.895,714.907 C554.729,718.307 553.762,721.774 552.996,725.307 C552.662,726.774 551.246,729.957 548.746,734.857 C545.213,741.657 541.229,747.923 536.796,753.657 C523.029,771.424 507.763,780.307 490.996,780.307 C462.362,780.307 440.529,768.491 425.496,744.857 C423.662,741.958 421.979,738.941 420.446,735.807 C416.379,740.941 411.779,743.873 406.645,744.607 C402.378,746.874 397.329,749.024 391.496,751.057 C367.962,759.324 336.462,764.574 296.996,766.807 L216.996,766.807 C183.329,764.673 157.229,761.29 138.696,756.657 C135.196,755.791 132.046,754.89 129.246,753.958 C129.413,753.524 129.579,753.074 129.746,752.607 C119.613,748.407 111.379,741.157 105.046,730.857 C101.513,725.09 98.813,718.691 96.946,711.657 C95.746,707.157 95.113,703.541 95.046,700.807 C91.746,687.474 88.413,671.357 85.046,652.457 C81.446,632.257 78.029,610.123 74.796,586.057 C72.263,565.857 70.996,555.691 70.996,555.557 C70.863,551.89 70.812,549.224 70.846,547.557 C70.946,544.757 71.446,542.407 72.346,540.507 C73.313,538.507 75.013,536.59 77.446,534.757 C79.046,527.957 85.413,522.24 96.546,517.607 C111.446,511.374 133.313,508.041 162.146,507.607 C159.479,500.541 151.712,493.557 138.846,486.657 C133.513,493.258 129.896,496.557 127.996,496.557 C125.929,496.557 124.312,496.39 123.146,496.057 L121.996,495.557 C121.996,495.357 121.829,495.04 121.496,494.607 C121.163,494.208 120.996,493.024 120.996,491.057 C120.996,490.757 121.796,489.39 123.396,486.957 C124.696,484.957 126.063,483.04 127.496,481.207 C127.062,481.007 126.629,480.807 126.196,480.606 C121.963,478.773 113.213,475.356 99.946,470.356 C97.779,469.523 95.813,468.756 94.046,468.056 C91.946,470.723 90.263,472.223 88.996,472.556 C85.796,469.823 84.179,468.44 84.146,468.406 C83.379,467.639 82.996,466.69 82.996,465.556 C82.996,465.056 83.196,464.289 83.596,463.256 C83.163,462.989 82.796,462.756 82.496,462.556 C72.863,455.589 64.296,448.456 56.796,441.156 C56.163,441.59 55.563,442.056 54.996,442.556 C52.263,440.256 50.613,438.872 50.046,438.406 C49.346,437.806 48.996,437.356 48.996,437.056 C48.996,435.922 49.196,434.823 49.596,433.756 C39.163,422.389 31.28,410.672 25.946,398.606 C24.513,395.339 23.229,391.99 22.096,388.556 L20.996,388.556 C15.962,388.556 12.462,387.24 10.496,384.606 C9.496,383.24 8.996,381.723 8.996,380.056 C8.996,378.156 9.046,377.156 9.146,377.056 C9.513,376.69 9.796,376.19 9.996,375.556 C10.196,375.556 12.096,375.389 15.696,375.056 C16.663,374.956 17.563,374.889 18.396,374.856 C17.863,372.29 17.396,369.69 16.996,367.056 C16.229,361.789 15.679,355.906 15.346,349.406 C13.813,348.606 12.179,347.673 10.446,346.606 C4.146,342.707 0.996,339.856 0.996,338.056 C0.996,336.156 1.046,335.156 1.146,335.056 C1.513,334.69 1.796,334.19 1.996,333.556 C5.263,332.523 9.596,332.94 14.996,334.806 C14.996,326.273 18.079,315.889 24.246,303.656 C25.779,300.589 27.379,297.706 29.046,295.006 C25.013,290.906 22.996,288.923 22.996,289.056 C22.996,279.489 25.763,276.173 31.296,279.106 C32.729,279.839 34.346,281.006 36.146,282.606 C36.513,282.939 36.896,283.29 37.296,283.656 C39.196,281.423 41.163,279.356 43.196,277.456 C45.063,275.723 46.979,274.14 48.946,272.706 C58.513,265.773 68.246,263.273 78.146,265.206 C78.913,260.539 79.363,256.823 79.496,254.056 C85.263,252.223 88.863,252.706 90.296,255.506 C90.763,256.406 90.996,259.006 90.996,263.306 C90.596,265.473 90.196,267.539 89.796,269.506 C98.396,274.173 106.829,282.123 115.096,293.356 C119.396,290.089 124.196,289.489 129.496,291.556 C129.496,291.756 129.746,292.189 130.246,292.856 C130.746,293.523 130.996,294.839 130.996,296.806 C130.996,298.773 128.679,301.456 124.046,304.856 C123.779,305.056 123.496,305.273 123.196,305.506 C124.463,307.606 125.729,309.789 126.996,312.056 C129.263,318.289 132.929,330.123 137.996,347.556 C140.229,347.356 142.729,347.356 145.496,347.556 C145.496,347.756 145.746,348.19 146.246,348.856 C146.746,349.523 146.996,350.839 146.996,352.806 C146.996,355.339 145.346,357.622 142.046,359.656 C141.913,359.757 141.779,359.84 141.646,359.906 C145.513,372.973 148.696,383.09 151.196,390.257 C162.563,423.123 173.746,439.557 184.746,439.557 C185.646,439.557 186.562,439.324 187.496,438.857 C184.596,432.491 180.946,422.208 176.546,408.007 C171.546,407.04 167.363,406.224 163.996,405.557 C163.996,405.357 163.829,405.04 163.496,404.607 C163.163,404.208 162.996,403.024 162.996,401.057 C162.996,398.123 164.579,395.873 167.746,394.307 C169.013,393.707 170.429,393.257 171.996,392.957 C166.529,374.29 161.363,355.323 156.496,336.057 C152.363,335.357 149.529,334.024 147.996,332.057 C147.263,331.123 146.879,330.09 146.846,328.957 L146.996,327.557 C146.996,324.757 147.446,322.957 148.346,322.157 C149.146,321.457 150.646,321.274 152.846,321.607 C152.88,321.607 152.913,321.624 152.946,321.657 C152.279,318.957 151.63,316.257 150.996,313.557 C147.863,294.857 145.146,278.024 142.846,263.057 C140.38,262.857 137.763,262.69 134.996,262.557 C132.263,260.324 130.613,258.907 130.046,258.307 C129.346,257.607 128.996,256.69 128.996,255.557 C128.996,252.89 130.579,250.607 133.746,248.707 C135.679,247.54 137.863,246.707 140.296,246.207 C136.963,223.707 134.779,206.407 133.746,194.307 C126.579,190.674 122.996,188.257 122.996,187.057 C122.996,184.257 124.163,182.407 126.496,181.507 C128.196,180.874 130.363,180.79 132.996,181.257 L132.996,180.807 C132.996,163.907 134.379,147.957 137.146,132.957 C136.613,132.524 136.079,132.09 135.546,131.657 C127.179,124.824 122.996,120.624 122.996,119.057 C122.996,109.99 128.829,109.59 140.496,117.857 C141.396,114.324 142.396,110.84 143.496,107.407 C146.196,98.874 149.379,90.84 153.046,83.307 C152.546,82.74 152.046,82.174 151.546,81.607 C149.179,78.874 147.146,76.124 145.446,73.357 C143.813,70.757 142.996,68.99 142.996,68.057 C142.996,66.157 143.046,65.157 143.146,65.057 C143.513,64.69 143.796,64.19 143.996,63.557 C148.029,63.824 153.179,66.44 159.446,71.407 C162.979,65.44 166.88,59.807 171.146,54.507 C175.846,48.64 180.863,43.34 186.196,38.607 C184.963,36.607 183.796,34.507 182.696,32.307 C181.563,30.074 180.996,28.824 180.996,28.557 C180.996,26.49 181.079,25.124 181.246,24.457 L181.496,24.057 C186.496,23.657 191.462,25.79 196.396,30.457 C200.796,27.29 205.396,24.457 210.196,21.957 C218.63,17.557 227.313,14.34 236.246,12.307 C236.513,12.24 236.779,12.174 237.046,12.107 C237.079,7.141 237.229,3.141 237.496,0.107 L237.496,0.057 C242.529,-0.243 246.029,0.69 247.996,2.857 C249.296,4.291 250.062,6.474 250.296,9.407 C250.329,9.607 250.346,9.824 250.346,10.057 C250.583,10.021 250.816,10.005 251.05,10.005 Z M348.95,326.055 C348.317,326.222 347.667,326.388 347,326.555 C345.633,325.422 344.55,324.522 343.75,323.855 C342.95,323.188 342.417,322.738 342.15,322.505 C341.383,321.838 341,321.355 341,321.055 C341,317.822 343.267,314.905 347.8,312.305 C349.233,311.472 350.75,310.805 352.35,310.305 C353.65,300.572 354.784,291.972 355.75,284.505 C354.517,284.405 353.316,284.255 352.15,284.055 L350,283.555 C350,283.355 349.833,283.038 349.5,282.605 C349.167,282.205 349,281.022 349,279.055 C349,277.155 349.45,275.688 350.35,274.655 C351.284,273.588 352.933,272.705 355.3,272.005 C355.733,271.872 356.417,271.705 357.35,271.505 C358.483,262.272 359.483,253.288 360.35,244.555 L360,244.555 C357.933,244.555 356.316,244.388 355.15,244.055 L354,243.555 C354,243.355 353.833,243.038 353.5,242.605 C353.167,242.205 353,241.022 353,239.055 C353,235.488 355.667,232.872 361,231.205 C361.2,231.139 361.4,231.088 361.6,231.055 C362.7,218.355 363.55,206.188 364.15,194.555 C362.25,194.522 360.083,194.355 357.65,194.055 L354,193.555 C354,193.355 353.833,193.038 353.5,192.605 C353.167,192.205 353,191.022 353,189.055 C353,185.455 355.15,183.022 359.45,181.755 C360.783,181.355 362.533,181.022 364.7,180.755 C364.9,173.622 365,166.721 365,160.055 C365.133,156.688 365.216,153.505 365.25,150.505 C365.316,147.071 365.3,143.738 365.2,140.505 C365.134,140.538 365.067,140.555 365,140.555 C361.8,137.822 360.183,136.438 360.15,136.405 C359.383,135.638 359,134.688 359,133.555 C359,131.655 360.8,129.605 364.4,127.405 C363.233,115.905 361,105.288 357.7,95.555 C355.667,96.688 354.1,97.688 353,98.555 C350.333,96.355 348.716,95.005 348.15,94.505 C347.383,93.838 347,93.355 347,93.055 C347,91.322 349.267,88.855 353.8,85.655 C350.167,77.555 345.767,70.338 340.6,64.005 C334.5,67.805 330.634,69.988 329,70.555 C326.333,68.355 324.716,67.005 324.15,66.505 C323.383,65.838 323,65.355 323,65.055 C323,63.355 324.75,60.905 328.25,57.705 C329.316,56.705 330.5,55.722 331.8,54.755 C324.267,47.955 315.533,42.538 305.6,38.505 C303.933,41.405 302.4,43.422 301,44.555 C298.267,42.322 296.617,40.905 296.05,40.305 C295.35,39.605 295,38.688 295,37.555 C295,37.188 295.233,36.355 295.7,35.055 C288.6,32.955 280.967,31.455 272.8,30.555 C266.733,29.888 260.383,29.555 253.75,29.555 L253.6,29.555 C252.4,29.555 251.233,29.572 250.1,29.605 C250.3,30.705 250.6,31.688 251,32.555 L250,37.055 L249,37.805 C248.333,38.305 247,38.555 245,38.555 C241.066,38.555 238.517,35.905 237.35,30.605 C225.217,32.238 214.2,35.755 204.3,41.155 C204.767,42.155 205,42.955 205,43.555 C205,46.888 204.833,48.388 204.5,48.055 L203.25,49.305 C202.417,50.138 201,50.555 199,50.555 C197.367,50.555 195.583,49.722 193.65,48.055 C192.117,49.222 190.6,50.438 189.1,51.705 C180.7,58.938 173.467,67.855 167.4,78.455 C168.933,79.922 170.4,81.422 171.8,82.955 C173.933,85.255 175,86.538 175,86.805 C175,90.638 172.667,92.555 168,92.555 C165.933,92.555 163.7,91.838 161.3,90.405 C159.767,93.838 158.333,97.405 157,101.105 C154.233,108.838 151.933,117.005 150.1,125.605 C151.467,126.838 152.833,128.139 154.2,129.505 C158.134,133.338 160.4,135.855 161,137.055 C160.867,137.155 160.05,138.205 158.55,140.205 C157.383,141.772 156.2,142.555 155,142.555 C153.066,142.555 150.583,141.738 147.55,140.105 C146.983,144.005 146.5,148.005 146.1,152.105 C145.367,159.838 145,168.822 145,179.055 C145,181.288 145.033,183.538 145.1,185.805 C149.267,188.138 153.233,191.222 157,195.055 C156.867,195.155 156.017,196.205 154.45,198.205 C153.25,199.772 152.1,200.555 151,200.555 C149.633,200.555 147.833,200.188 145.6,199.455 C146.367,214.288 148.017,229.805 150.55,246.005 C153.283,246.438 155.867,247.288 158.3,248.555 C162.967,250.988 166.533,254.655 169,259.555 C168.2,261.155 167.133,262.372 165.8,263.205 C164.3,264.105 162.367,264.555 160,264.555 C158.867,264.555 156.75,264.405 153.65,264.105 C157.216,283.072 161.883,302.922 167.65,323.655 C169.617,323.721 171.567,323.688 173.5,323.555 C173.5,323.755 173.75,324.188 174.25,324.855 C174.75,325.522 175,326.838 175,328.805 C175,330.805 174.017,332.572 172.05,334.105 C171.683,334.405 171.3,334.671 170.9,334.905 C171.267,336.172 171.633,337.439 172,338.706 C176.333,353.206 182.216,371.922 189.65,394.855 C191.017,395.355 192.367,395.939 193.7,396.605 C198.967,399.206 203.4,402.689 207,407.055 C206.867,407.155 206.05,408.205 204.55,410.205 C203.383,411.771 202.2,412.555 201,412.555 C200.767,412.555 198.633,412.189 194.6,411.455 C197.534,422.255 199,430.038 199,434.805 L199,435.705 C199.667,436.205 200.183,436.888 200.55,437.755 C200.85,438.555 201,439.821 201,441.555 C201,444.555 199.683,447.072 197.05,449.105 C195.317,450.472 193.217,451.439 190.75,452.005 C188.983,452.371 187.066,452.555 185,452.555 C178.767,452.555 172.8,449.522 167.1,443.455 C162.933,438.988 158.9,432.904 155,425.205 C149.833,415.038 142.267,394.988 132.3,365.055 C132.033,364.222 131.767,363.388 131.5,362.555 C129.667,362.522 128.216,362.355 127.15,362.055 L126,361.555 C126,361.355 125.833,361.038 125.5,360.605 C125.167,360.206 125,359.022 125,357.055 C125,354.822 125.883,352.921 127.65,351.355 C121.716,334.388 116.466,321.139 111.9,311.605 C109.667,309.705 108.417,308.605 108.15,308.305 C107.383,307.505 107,306.588 107,305.555 C107,305.055 107.2,304.338 107.6,303.405 C101.167,292.205 94.3,284.655 87,280.755 C85.066,287.255 83.066,291.188 81,292.555 C77.966,291.688 76.1,290.372 75.4,288.605 C75.133,287.972 75,286.455 75,284.055 C75,283.122 75.3,280.972 75.9,277.605 C75.5,277.572 75.117,277.555 74.75,277.555 C62.683,277.555 52.633,282.272 44.6,291.705 C44.967,292.139 45.333,292.605 45.7,293.105 C48.5,296.772 50.267,299.422 51,301.055 L50,307.055 L49,307.805 C48.433,308.238 47.417,308.488 45.95,308.555 L45,308.555 C43.833,308.555 41.2,306.672 37.1,302.905 C36.534,303.905 36,304.955 35.5,306.055 C34.966,307.155 34.466,308.272 34,309.405 C30.333,317.872 28,326.505 27,335.305 C27,337.038 27.033,338.772 27.1,340.505 C31.034,342.871 33,344.972 33,346.805 C33,349.072 32.167,350.655 30.5,351.555 C29.8,351.921 28.933,352.189 27.9,352.355 C28.7,360.122 30.083,367.605 32.05,374.805 C33.95,374.939 35.767,375.189 37.5,375.555 C37.5,375.755 37.75,376.189 38.25,376.855 C38.75,377.522 39,378.838 39,380.805 C39,383.038 37.883,384.788 35.65,386.055 C40.883,400.222 48.55,413.155 58.65,424.855 C62.25,423.588 66.533,423.822 71.5,425.555 C71.5,425.755 71.75,426.189 72.25,426.855 C72.75,427.522 73,428.838 73,430.805 C73,432.705 72.517,434.072 71.55,434.905 C71.083,435.305 70.383,435.689 69.45,436.055 C75.583,441.788 82.384,447.189 89.85,452.255 C94.183,446.654 98.733,443.755 103.5,443.555 C103.5,443.755 103.75,444.189 104.25,444.855 C104.75,445.522 105,446.838 105,448.805 C105,450.105 103.417,453.405 100.25,458.705 C103.25,460.171 108.7,462.055 116.6,464.354 C125.2,466.887 132.034,469.054 137.1,470.854 C140.867,467.654 144.333,465.887 147.5,465.554 C147.5,465.754 147.75,466.188 148.25,466.854 C148.75,467.521 149,468.837 149,470.804 C149,471.67 148.433,473.071 147.3,475.004 C164.467,483.07 173.7,493.587 175,506.554 C175.833,515.054 176.667,526.204 177.5,540.004 C177.767,540.17 178.033,540.337 178.3,540.504 C181.433,542.57 183,544.004 183,544.804 C183,547.071 182.167,548.654 180.5,549.554 C179.867,549.887 179.083,550.154 178.15,550.354 C178.65,559.254 178.933,565.304 179,568.504 C196.566,569.537 216.733,570.054 239.5,570.054 C248.1,570.054 256.466,569.954 264.6,569.754 C268.867,569.653 273.067,569.521 277.2,569.354 C307.233,568.121 333.917,565.404 357.25,561.205 C356.083,557.404 355.033,551.722 354.1,544.154 C353.067,543.255 352.384,542.671 352.05,542.404 C351.35,541.804 351,541.354 351,541.054 C351,539.154 351.733,537.387 353.2,535.754 C353.134,534.987 353.067,534.221 353,533.454 C351.667,511.12 351,499.82 351,499.554 C351,493.92 351.033,490.654 351.1,489.754 C351.634,483.82 353.117,478.554 355.55,473.954 C356.45,472.254 357.467,470.653 358.6,469.153 C356.2,466.82 355,465.12 355,464.053 C355,462.153 355.05,461.153 355.15,461.053 C355.517,460.687 355.8,460.187 356,459.553 C359.433,457.553 363.433,457.919 368,460.653 C371.533,458.487 375.6,456.82 380.2,455.653 C388.333,455.454 396.45,454.287 404.55,452.153 C404.383,451.52 404.217,450.87 404.05,450.204 L403,445.804 C403,433.571 406.717,433.688 414.149,446.154 C414.616,446.955 415.099,447.788 415.599,448.654 C420.165,446.921 424.733,444.871 429.299,442.505 C433.365,440.404 437.382,438.071 441.349,435.505 C441.283,435.404 441.216,435.288 441.149,435.154 C439.892,432.938 439.259,431.989 439.25,432.304 C439.251,426.637 440.2,423.321 442.1,422.354 C443.767,421.521 446,422.521 448.8,425.354 C449.666,426.254 450.567,427.271 451.5,428.404 C457.633,423.738 463.633,418.505 469.5,412.705 C469.8,412.404 470.1,412.121 470.399,411.854 C471.132,411.221 471.849,410.637 472.549,410.104 C467.683,404.738 465.249,402.221 465.249,402.554 C465.249,390.62 470.732,389.438 481.699,399.004 C482.098,399.37 482.515,399.737 482.949,400.104 C489.249,392.871 494.665,385.371 499.199,377.604 C492.565,372.67 489.249,369.488 489.249,368.054 C489.249,366.154 489.299,365.154 489.398,365.054 C489.765,364.688 490.048,364.188 490.249,363.554 C493.482,362.521 498.382,363.554 504.949,366.654 C506.182,363.921 507.332,361.171 508.398,358.404 C509.965,354.304 511.315,350.121 512.449,345.854 C510.615,345.188 509.049,344.404 507.749,343.504 C504.749,341.471 503.249,338.987 503.249,336.054 C503.249,334.154 503.299,333.154 503.398,333.054 C503.765,332.688 504.048,332.188 504.249,331.554 C507.216,331.554 510.865,331.92 515.199,332.654 C516.398,324.987 516.999,317.038 516.999,308.804 L516.999,308.254 C516.398,308.354 515.815,308.454 515.249,308.554 C512.582,306.354 510.966,305.004 510.398,304.504 C509.631,303.837 509.249,303.354 509.249,303.054 C509.249,299.887 510.482,297.387 512.949,295.554 C513.549,295.121 514.216,294.721 514.949,294.354 C513.216,285.288 511.049,276.871 508.449,269.104 C507.449,266.171 506.449,263.421 505.449,260.854 C505.382,260.721 505.332,260.604 505.299,260.504 C503.066,261.171 501.049,261.854 499.249,262.554 C496.582,260.354 494.966,259.004 494.398,258.504 C494.298,258.404 494.199,258.32 494.098,258.254 C493.532,257.72 493.248,257.32 493.248,257.054 C493.248,255.821 493.814,254.421 494.948,252.854 C494.981,252.788 495.031,252.721 495.097,252.654 C496.198,251.154 497.663,249.821 499.497,248.654 C498.464,246.954 497.431,245.404 496.396,244.004 C493.43,240.104 490.296,237.304 486.997,235.604 C484.597,241.271 482.014,244.921 479.247,246.554 C477.947,245.387 476.33,244.004 474.396,242.404 C473.629,241.771 473.247,241.321 473.247,241.054 C473.247,240.021 473.78,237.604 474.847,233.804 C466.847,234.771 459.614,238.737 453.147,245.704 C455.88,249.571 457.248,251.937 457.248,252.804 C457.248,254.904 457.081,256.154 456.748,256.554 L456.248,256.554 C456.081,256.887 455.814,257.221 455.448,257.554 C454.681,258.221 453.281,258.554 451.248,258.554 C449.647,258.554 447.748,257.671 445.548,255.904 C442.281,261.137 438.932,267.72 435.498,275.654 C434.897,277.021 434.164,278.787 433.298,280.954 C435.398,282.654 437.498,284.504 439.598,286.504 C443.365,290.037 445.248,292.137 445.248,292.804 C445.248,294.904 445.081,296.154 444.748,296.554 L444.248,296.554 C444.081,296.887 443.814,297.221 443.448,297.554 C442.681,298.221 441.281,298.554 439.248,298.554 C436.281,298.554 432.564,297.071 428.098,294.104 C427.365,295.971 426.598,297.954 425.798,300.054 C419.364,316.654 413.531,329.471 408.298,338.504 C409.432,340.804 410.331,342.987 410.998,345.054 C410.864,345.154 410.048,346.204 408.548,348.204 C407.381,349.77 406.198,350.554 404.998,350.554 C403.598,350.554 402.182,350.188 400.748,349.454 C391.248,360.853 379.998,366.554 366.998,366.554 C357.498,366.554 351.648,362.738 349.448,355.104 C348.781,352.67 348.498,349.988 348.598,347.054 C348.865,344.521 348.998,343.188 348.998,343.054 C348.998,341.254 349.131,338.804 349.398,335.704 C349.598,333.304 349.865,330.52 350.198,327.353 C350.265,326.787 350.331,326.22 350.398,325.653 C349.933,325.788 349.45,325.921 348.95,326.055 Z M237.55,67.455 C239.85,70.488 241,72.272 241,72.805 C241,74.905 240.833,76.155 240.5,76.555 L240,76.555 C239.833,76.888 239.566,77.222 239.2,77.555 C238.433,78.222 237.033,78.555 235,78.555 C231.667,78.555 228,75.738 224,70.105 C220.667,64.505 219,61.738 219,61.805 C219,53.005 222.667,52.022 230,58.855 C232.466,61.188 234.983,64.055 237.55,67.455 Z M194,114.104 C190.667,108.671 189,106.154 189,106.554 C189,97.421 192.667,96.104 200,102.604 C202.367,104.737 204.883,107.454 207.55,110.754 C209.85,113.621 211,115.22 211,115.554 C211,118.887 210.833,120.387 210.5,120.054 L209.25,121.304 C208.417,122.137 207,122.554 205,122.554 C201.733,122.555 198.066,119.738 194,114.104 Z M247,104.805 C247,102.505 247.017,101.138 247.05,100.705 L247.5,98.055 C254.066,95.822 258.633,98.422 261.2,105.855 C261.533,106.889 262.4,110.222 263.8,115.855 C264.8,119.922 265.867,122.822 267,124.555 L266,129.055 L265,129.805 C264.333,130.305 263,130.555 261,130.555 C257.733,130.555 254.433,126.355 251.1,117.955 C248.367,111.122 247,106.738 247,104.805 Z M283.05,67.805 C280.65,70.572 278.633,72.155 277,72.555 C273.933,69.955 272.283,68.505 272.05,68.205 C271.35,67.472 271,66.588 271,65.555 C271,62.488 272.367,59.172 275.1,55.605 C275.5,55.072 275.933,54.539 276.4,54.005 C279.767,50.071 283.267,48.355 286.9,48.855 C287.733,48.955 288.6,49.188 289.5,49.555 C289.5,49.755 289.75,50.188 290.25,50.855 C290.75,51.522 291,52.838 291,54.805 C291,54.938 290.983,55.105 290.95,55.305 C290.65,56.938 288.967,59.888 285.9,64.155 C284.9,65.521 283.95,66.738 283.05,67.805 Z M307.25,152.155 C311.283,153.188 314.85,155.672 317.95,159.605 C318.083,159.805 318.233,160.005 318.4,160.205 C321.466,164.238 323,167.605 323,170.305 C323,172.405 322.917,173.405 322.75,173.305 L322.5,172.555 C322.1,173.722 321.683,174.572 321.25,175.105 C320.75,175.738 319.966,176.172 318.9,176.405 C318.333,176.505 317.7,176.555 317,176.555 C316.433,176.555 313.617,173.238 308.55,166.605 C308.183,166.139 307.833,165.688 307.5,165.255 C303.167,159.522 301,156.455 301,156.055 C301,154.155 301.05,153.155 301.15,153.055 C301.517,152.688 301.8,152.188 302,151.555 C303.833,151.488 305.583,151.688 307.25,152.155 Z M264.4,206.705 C257.667,212.538 253.2,215.822 251,216.555 C248.333,214.355 246.716,213.005 246.15,212.505 C245.383,211.838 245,211.355 245,211.055 C245,208.555 248.75,204.372 256.25,198.505 C263.917,192.538 269.667,189.555 273.5,189.555 C273.5,189.755 273.75,190.188 274.25,190.855 C274.75,191.522 275,192.838 275,194.805 C275,196.638 271.466,200.604 264.4,206.705 Z M267.6,444.255 C267.4,444.355 267.2,444.455 267,444.555 C265.7,443.388 264.083,442.005 262.15,440.405 C261.383,439.772 261,439.322 261,439.055 C264.6,432.888 268.2,427.522 271.8,422.955 C272.867,421.555 273.933,420.238 275,419.005 C280.7,412.404 284.667,410.022 286.9,411.855 C288.3,412.989 289,415.805 289,420.305 C289,423.472 286.9,427.421 282.7,432.155 C282.4,432.489 282.083,432.839 281.75,433.206 C277.283,437.972 272.566,441.654 267.6,444.255 Z M232,554.555 C228.966,554.555 224.617,552.088 218.95,547.155 C213.65,542.522 211,539.489 211,538.055 C211,536.155 211.05,535.155 211.15,535.055 C211.517,534.689 211.8,534.189 212,533.555 C215.3,533.555 220.617,535.605 227.95,539.705 C235.317,543.805 239,546.838 239,548.805 C239,552.638 236.667,554.555 232,554.555 Z M260.6,540.555 C259.333,539.522 258.517,538.838 258.15,538.505 C257.383,537.838 257,537.355 257,537.055 C257,535.955 257.9,534.121 259.7,531.555 C260.267,530.722 260.933,529.805 261.7,528.805 C264.667,524.972 267.833,521.572 271.2,518.605 C271.467,518.372 271.733,518.138 272,517.905 C276.267,514.239 279.7,512.339 282.3,512.206 C285.433,512.039 287,514.489 287,519.556 C287,520.69 283.25,524.74 275.75,531.706 C274.183,533.139 272.767,534.456 271.5,535.655 C266.767,539.888 263.933,542.189 263,542.555 C262.066,541.788 261.267,541.121 260.6,540.555 Z M487.25,264.805 C487.25,266.872 485.066,270.688 480.7,276.255 C476.099,282.055 472.283,285.488 469.25,286.555 C467.95,285.388 466.333,284.005 464.399,282.405 C463.632,281.772 463.25,281.322 463.25,281.055 C463.25,278.288 465.783,274.238 470.85,268.905 C476.317,263.138 481.284,260.022 485.75,259.555 C485.75,259.755 486,260.188 486.5,260.855 C487,261.521 487.25,262.838 487.25,264.805 Z M432.25,317.555 C436.816,317.888 441.3,320.772 445.7,326.205 C449.399,330.772 451.25,334.138 451.25,336.305 C451.25,338.405 451.166,339.405 451,339.305 L450.75,338.555 C450.35,339.722 449.934,340.572 449.5,341.105 C448.767,342.072 447.35,342.555 445.25,342.555 C441.883,342.555 438.55,339.239 435.25,332.605 C432.583,327.238 431.25,323.722 431.25,322.055 C431.25,320.155 431.3,319.155 431.399,319.055 C431.767,318.688 432.05,318.188 432.25,317.555 Z M470.8,322.854 C470.633,322.721 470.5,322.604 470.4,322.504 C469.633,321.837 469.251,321.354 469.251,321.054 C469.251,320.087 470.601,317.771 473.301,314.104 C475.001,311.804 476.718,309.704 478.451,307.804 C479.684,306.371 480.951,305.054 482.251,303.854 C485.984,300.288 488.968,298.437 491.201,298.304 C493.334,298.171 494.617,299.637 495.051,302.704 C495.185,303.537 495.251,304.487 495.251,305.554 C495.251,308.387 493.551,311.937 490.15,316.204 C489.784,316.638 489.4,317.087 489.001,317.554 C484.468,322.854 479.884,325.854 475.251,326.554 C473.083,324.755 471.6,323.521 470.8,322.854 Z M425.25,373.404 L425.25,374.304 C425.25,375.971 424.717,377.438 423.649,378.704 C423.083,379.37 421.616,380.653 419.25,382.554 C418.083,381.554 416.916,380.354 415.75,378.954 C414.283,377.187 412.816,375.103 411.35,372.704 C408.451,367.937 407,364.137 407,361.304 C407,359.238 407.083,357.738 407.25,356.804 L407.5,356.054 C412.6,353.554 417.033,355.254 420.8,361.154 C423.533,365.488 425.017,369.571 425.25,373.404 Z M235,450.555 C231.933,447.955 230.283,446.505 230.05,446.205 C229.35,445.472 229,444.588 229,443.555 C229,441.222 230.933,438.121 234.8,434.255 C239.1,429.888 243.333,427.654 247.5,427.555 C247.5,427.755 247.75,428.189 248.25,428.855 C248.75,429.522 249,430.838 249,432.805 C249,434.305 247.3,437.421 243.9,442.155 C240.233,447.188 237.267,449.988 235,450.555 Z M219,465.555 C219,467.255 217.167,470.272 213.5,474.605 C209.933,478.872 207.1,481.522 205,482.555 C202.267,480.255 200.617,478.871 200.05,478.405 C199.35,477.805 199,477.355 199,477.055 C199,474.022 200.05,470.939 202.15,467.805 C204.017,464.939 206.3,462.671 209,461.005 C211.733,459.305 214.033,458.755 215.9,459.355 C217.966,460.021 219,462.088 219,465.555 Z M194,497.555 C197.733,497.555 202.466,499.439 208.2,503.205 C213.933,506.938 216.867,510.055 217,512.555 L216,517.055 L215,517.805 C214.333,518.305 213,518.555 211,518.555 C207.5,518.555 203.5,516.088 199,511.155 C195,506.756 193,503.722 193,502.055 C193,500.155 193.05,499.155 193.15,499.055 C193.517,498.688 193.8,498.188 194,497.555 Z M247,504.555 C243.933,501.955 242.283,500.505 242.05,500.205 C241.35,499.472 241,498.588 241,497.555 C241,495.421 242.8,492.439 246.4,488.605 C250.633,484.138 255,481.789 259.5,481.555 C259.5,481.755 259.75,482.189 260.25,482.855 C260.75,483.522 261,484.838 261,486.805 C261,488.305 259.3,491.421 255.9,496.155 C252.233,501.188 249.267,503.988 247,504.555 Z M372.1,391.555 C371.367,389.989 371,388.655 371,387.555 C371,378.522 374.899,377.572 382.7,384.705 C384.133,386.005 385.649,387.538 387.25,389.305 C388.45,390.605 389.684,392.038 390.95,393.605 C393.283,396.505 394.633,398.322 395,399.055 C394.133,400.388 393.366,401.455 392.7,402.255 C392.333,402.722 391.95,403.121 391.55,403.455 C390.55,404.188 389.366,404.555 388,404.555 C386.833,404.555 385.717,404.421 384.649,404.155 C380.983,403.222 377.766,400.706 375,396.605 C373.733,394.705 372.767,393.021 372.1,391.555 Z M110.25,342.854 C110.75,343.521 111,344.837 111,346.804 C111,348.604 109.75,351.688 107.25,356.054 C104.383,361.054 101.633,363.887 99,364.554 C96.267,362.321 94.617,360.904 94.05,360.304 C93.35,359.604 93,358.688 93,357.554 C93,354.521 94.25,351.387 96.75,348.154 C99.983,343.988 104.233,341.788 109.5,341.554 C109.5,341.755 109.75,342.188 110.25,342.854 Z M107,387.005 C109.767,385.272 112.066,384.689 113.9,385.255 C115.966,385.888 117,387.988 117,391.555 C117,393.088 115.167,396.022 111.5,400.355 C108,404.489 105.167,407.222 103,408.555 C99.933,405.955 98.283,404.505 98.05,404.205 C97.35,403.472 97,402.588 97,401.555 C97,399.088 98.05,396.405 100.15,393.505 C102.083,390.805 104.367,388.638 107,387.005 Z M135,418.305 C135,421.171 133.333,424.939 130,429.605 C126.667,434.239 124,436.555 122,436.555 C121.433,436.555 120.9,436.538 120.4,436.505 C119.067,436.439 117.983,436.288 117.15,436.055 L116,435.555 C116,435.355 115.833,435.038 115.5,434.605 C115.433,434.505 115.367,434.372 115.3,434.206 C115.1,433.605 115,432.556 115,431.056 C115,428.589 116.05,425.622 118.15,422.156 C120.117,418.856 122.4,416.106 125,413.906 C127.8,411.54 130.1,410.59 131.9,411.056 C133.966,411.588 135,414.005 135,418.305 Z M151.85,456.354 C149.95,452.654 149,450.054 149,448.554 C149,446.488 149.083,445.12 149.25,444.454 L149.5,444.054 C153.6,444.054 157.583,445.571 161.45,448.604 C164.85,451.271 166.7,453.871 167,456.404 L167,457.054 L166,463.054 L165,463.804 C164.333,464.304 163,464.554 161,464.554 C157.733,464.554 154.767,461.988 152.1,456.854 C152,456.688 151.917,456.521 151.85,456.354 Z M85.5,309.555 C85.5,309.755 85.75,310.188 86.25,310.855 C86.75,311.522 87,312.838 87,314.805 C87,316.572 84.683,321.338 80.05,329.105 C75.483,336.739 72.8,340.555 72,340.555 C69.933,340.555 68.316,340.388 67.15,340.055 L66,339.555 C66,339.355 65.833,339.038 65.5,338.605 C65.167,338.206 65,337.022 65,335.055 C65,334.421 65.383,332.955 66.15,330.655 C67.15,327.688 68.367,324.905 69.8,322.305 C74.167,314.438 79.4,310.188 85.5,309.555 Z M39.6,340.154 C43.1,341.121 47.067,343.188 51.5,346.354 C52.433,347.021 53.316,347.688 54.15,348.354 C58.283,351.587 60.567,354.321 61,356.554 L60,361.054 L59,361.804 C58.867,361.904 58.716,362.004 58.55,362.104 C57.783,362.404 56.6,362.554 55,362.554 C51.367,362.554 47.933,361.287 44.7,358.754 C43.267,357.62 41.867,356.237 40.5,354.604 C36.833,350.238 35,346.721 35,344.054 C35,342.154 35.05,341.154 35.15,341.054 C35.517,340.688 35.8,340.188 36,339.554 C37.133,339.621 38.333,339.821 39.6,340.154 Z M57.1,389.854 C57.634,390.021 58.2,390.221 58.8,390.455 C61.933,391.688 64.85,393.438 67.55,395.705 C70.383,398.071 72.2,400.354 73,402.555 L72,407.055 L70.5,407.805 C69.867,408.105 69.05,408.322 68.05,408.455 C67.417,408.521 66.733,408.555 66,408.555 C62.833,408.555 58.7,406.239 53.6,401.605 C49.2,397.072 47,394.888 47,395.055 C47,391.955 48.2,390.055 50.6,389.355 C52.333,388.854 54.5,389.021 57.1,389.854 Z M325.7,96.455 C320.833,102.322 317.267,105.688 315,106.555 C312.7,104.688 311.167,103.388 310.4,102.655 C310.267,102.522 310.15,102.405 310.05,102.305 C309.35,101.605 309,100.688 309,99.555 C309,99.422 309.117,99.138 309.35,98.705 C309.65,98.172 310.15,97.372 310.85,96.305 C312.317,94.005 313.95,91.822 315.75,89.755 C321.183,83.488 326.433,80.088 331.5,79.555 C331.5,79.755 331.75,80.188 332.25,80.855 C332.75,81.522 333,82.838 333,84.805 C333,86.671 330.566,90.555 325.7,96.455 Z M352.25,126.854 C352.75,127.521 353,128.837 353,130.804 C353,132.204 350.933,135.321 346.8,140.154 C342.467,145.187 339.2,147.987 337,148.554 C334.267,146.254 332.617,144.871 332.05,144.404 C331.35,143.804 331,143.354 331,143.054 C331,141.287 333.066,138.187 337.2,133.754 C342.1,128.521 346.867,125.787 351.5,125.554 C351.5,125.755 351.75,126.188 352.25,126.854 Z M459.25,386.805 C459.25,388.605 455.267,392.072 447.3,397.205 C439.6,402.104 434.916,404.555 433.25,404.555 C431.184,404.555 429.399,404.388 427.899,404.055 L426.25,403.555 C426.25,403.355 426.083,403.038 425.75,402.605 C425.416,402.206 425.25,401.022 425.25,399.055 C425.25,398.322 426.434,396.772 428.8,394.405 C431.366,391.839 434.25,389.439 437.45,387.206 C446.316,381.039 453.083,379.155 457.75,381.556 C457.75,381.756 458,382.19 458.5,382.856 C459,383.521 459.25,384.838 459.25,386.805 Z M601.45,499.455 C590.316,490.854 573,486.555 549.5,486.555 C532.5,486.555 519.649,500.905 510.95,529.605 C506.616,544.005 503.967,558.489 503,573.055 C503,593.421 505.666,610.005 511,622.805 L510.5,625.805 C516.333,625.005 522.666,624.171 529.5,623.305 C532.467,622.939 536.767,621.205 542.399,618.105 C545.566,616.338 550.333,613.638 556.7,610.005 C561.899,607.338 565.75,606.205 568.25,606.605 C569.45,606.805 570.434,607.338 571.2,608.206 C575,609.772 579.599,613.039 585,618.006 C591.233,623.739 596.733,630.056 601.5,636.956 C606.5,644.223 609,649.756 609,653.556 C609,657.256 608.35,661.006 607.05,664.806 C605.317,669.806 602.967,672.306 600,672.306 L599.35,672.306 C598.65,673.139 597.701,673.973 596.5,674.806 C594.5,676.206 591.017,678.106 586.05,680.506 C580.35,683.306 576.434,685.339 574.3,686.606 C570.267,689.04 567.5,691.44 566,693.806 C564.5,696.172 563.116,698.589 561.85,701.056 C564.284,702.056 567.633,704.156 571.9,707.356 C582.701,715.389 589.867,720.54 593.4,722.806 C616.633,737.806 641.084,745.306 666.751,745.306 C691.351,745.306 709.685,736.656 721.751,719.356 C725.817,713.523 728.9,707.056 731.001,699.957 C732.501,694.923 733.251,690.873 733.251,687.807 C733.251,669.64 729.884,655.224 723.15,644.557 C717.717,635.923 709.251,628.724 697.751,622.957 C693.65,620.923 688.251,618.606 681.551,616.007 C673.917,613.14 668.151,610.906 664.251,609.307 C650.018,603.507 638.601,597.007 630.001,589.807 C624.468,585.173 621.218,576.557 620.251,563.957 C619.951,548.656 619.167,537.19 617.9,529.557 C616.734,522.691 614.717,516.691 611.85,511.557 C611.65,511.224 611.467,510.89 611.3,510.557 C608.666,506.188 605.383,502.488 601.45,499.455 Z M622.25,511.555 C624.95,517.022 626.533,522.189 627,527.055 C627.133,527.955 627.283,529.072 627.45,530.405 C629.25,529.839 631.349,529.355 633.75,528.956 C643.85,527.256 654.649,527.689 666.149,530.256 C679.583,533.256 690.366,538.639 698.5,546.405 C708.333,555.772 713.25,567.822 713.25,582.555 C713.25,590.788 712.95,596.371 712.35,599.305 C711.484,603.405 710.117,606.538 708.25,608.705 C716.416,613.638 723.434,621.005 729.3,630.805 C730.567,628.472 732.383,625.255 734.75,621.155 C741.083,609.289 744.25,597.006 744.25,584.305 C744.25,567.538 739.934,552.972 731.3,540.605 C716.666,519.572 691.484,509.055 655.75,509.055 C637.149,509.055 625.983,509.888 622.25,511.555 Z M333.5,215.555 C333.5,215.755 333.75,216.188 334.25,216.855 C334.75,217.522 335,218.838 335,220.805 C335,222.472 332.883,225.672 328.65,230.405 C324.417,235.105 320.617,238.438 317.25,240.405 C317.15,240.471 317.066,240.522 317,240.555 C314.066,238.055 312.45,236.638 312.15,236.305 C311.383,235.505 311,234.588 311,233.555 C311,229.855 312.9,225.922 316.7,221.755 C317.3,221.088 317.933,220.471 318.6,219.905 C322.867,216.138 327.833,214.688 333.5,215.555 Z M271.25,242.455 L271.5,242.055 C277.433,239.022 281.9,240.905 284.9,247.705 C285.333,248.672 286.333,251.538 287.9,256.305 C289,259.538 290.033,261.622 291,262.555 L290,267.055 L289,267.805 C288.333,268.305 287,268.555 285,268.555 C282.267,268.555 279.117,264.988 275.55,257.855 C272.517,251.722 271,247.955 271,246.555 C271,244.488 271.083,243.122 271.25,242.455 Z M268.95,303.555 C264.817,308.355 261.5,310.688 259,310.555 C256.267,308.255 254.617,306.872 254.05,306.405 C253.35,305.805 253,305.355 253,305.055 C253,303.288 255.066,300.188 259.2,295.755 C264.1,290.522 268.867,287.788 273.5,287.555 C273.5,287.755 273.75,288.188 274.25,288.855 C274.75,289.522 275,290.838 275,292.805 C275,295.305 272.983,298.888 268.95,303.555 Z M321.95,293.805 C327.183,289.405 332.367,287.322 337.5,287.555 C337.5,287.755 337.75,288.188 338.25,288.855 C338.75,289.522 339,290.838 339,292.805 C339,294.838 336.65,297.522 331.95,300.855 C326.417,304.488 322.767,307.055 321,308.555 C318.267,306.255 316.617,304.872 316.05,304.405 C315.35,303.805 315,303.355 315,303.055 C315,300.755 317.316,297.671 321.95,293.805 Z M198.45,166.305 C199.65,164.438 201.017,162.672 202.55,161.005 C207.25,156.038 212.233,153.555 217.5,153.555 C217.5,153.755 217.75,154.188 218.25,154.855 C218.75,155.522 219,156.838 219,158.805 C219,160.905 216.5,164.155 211.5,168.555 L204,174.555 C201.933,174.555 200.316,174.388 199.15,174.055 L198,173.555 C198,173.355 197.833,173.038 197.5,172.605 C197.167,172.205 197,171.022 197,169.055 C197,168.755 197.483,167.838 198.45,166.305 Z M201,220.805 C201,224.638 198.667,226.555 194,226.555 C191.767,226.555 187.95,223.238 182.55,216.605 C177.517,210.438 175,206.922 175,206.055 C175,204.155 175.05,203.155 175.15,203.055 C175.517,202.688 175.8,202.188 176,201.555 C182.1,201.455 188.083,204.538 193.95,210.805 C195.85,212.872 197.583,215.088 199.15,217.455 C200.383,219.354 201,220.471 201,220.805 Z M177.9,141.005 C179.966,141.405 181,143.588 181,147.555 C181,149.255 179.233,152.222 175.7,156.455 C172.233,160.555 169.333,163.255 167,164.555 C164.333,162.355 162.716,161.005 162.15,160.505 C161.383,159.838 161,159.355 161,159.055 C161,157.055 162.05,154.505 164.15,151.405 C166.15,148.405 168.433,145.888 171,143.855 C173.8,141.622 176.1,140.671 177.9,141.005 Z M243.5,257.555 C243.5,257.755 243.75,258.188 244.25,258.855 C244.75,259.522 245,260.838 245,262.805 C245,264.305 242.35,267.855 237.05,273.455 C231.95,278.788 228.6,281.822 227,282.555 C225.7,281.388 224.083,280.005 222.15,278.405 C221.383,277.772 221,277.322 221,277.055 C221,274.422 223.816,270.572 229.45,265.505 C235.216,260.338 239.9,257.688 243.5,257.555 Z M203.9,314.805 C207.067,317.638 210.216,321.188 213.35,325.455 C216.317,329.488 218.2,332.689 219,335.055 C218.867,335.155 218.05,336.205 216.55,338.205 C215.383,339.771 214.2,340.555 213,340.555 C209.867,340.555 205.233,336.739 199.1,329.105 C193.7,321.672 191,318.155 191,318.555 C191,313.222 192.316,310.422 194.95,310.155 C197.183,309.955 200.167,311.505 203.9,314.805 Z M253.3,349.455 C259.533,342.955 264.933,339.654 269.5,339.555 C269.5,339.755 269.75,340.189 270.25,340.855 C270.75,341.522 271,342.838 271,344.805 C271,346.739 268.267,350.638 262.8,356.505 C257.4,362.305 253.467,365.654 251,366.555 C249.7,365.388 248.083,364.005 246.15,362.405 C245.383,361.772 245,361.322 245,361.055 C245,360.388 245.783,358.921 247.35,356.655 C249.05,354.222 251.033,351.821 253.3,349.455 Z M237,386.104 C240,389.337 243.216,393.337 246.65,398.104 C249.55,402.238 251,404.471 251,404.804 C251,406.904 250.833,408.154 250.5,408.554 C250.333,408.754 250.167,408.754 250,408.554 C249.833,408.887 249.566,409.221 249.2,409.554 C248.433,410.221 247.033,410.554 245,410.554 C241.633,410.554 236.966,406.738 231,399.104 C229.033,396.538 227.133,393.854 225.3,391.054 C223.767,388.654 223,387.321 223,387.054 C223,376.354 227.667,376.038 237,386.104 Z M163.05,519.255 C159.45,519.955 150.417,521.154 135.95,522.855 C122.983,524.355 113.283,525.939 106.85,527.605 C100.717,529.206 96.083,531.155 92.95,533.456 C92.65,534.723 91.617,537.072 89.85,540.506 L89.85,540.606 C90.15,542.406 90.583,543.889 91.15,545.056 C93.083,549.256 97.517,552.889 104.45,555.956 C116.717,561.389 136.9,565.256 165,567.556 C163.833,563.19 163.183,557.323 163.05,549.956 L163.05,547.706 C161.85,547.105 160.667,546.422 159.5,545.655 C155.167,542.855 153,540.655 153,539.055 C153,533.621 156.417,531.772 163.25,533.505 C163.283,531.805 163.316,529.988 163.35,528.055 C163.417,524.655 163.45,521.705 163.45,519.205 C163.316,519.205 163.183,519.222 163.05,519.255 Z M388.25,418.854 C388.75,419.521 389,420.837 389,422.804 C389,425.204 386.133,428.771 380.399,433.504 C374.599,438.304 369.466,441.32 365,442.554 C362.333,440.354 360.716,439.004 360.15,438.504 C359.383,437.837 359,437.354 359,437.054 C359,434.221 362.716,430.287 370.15,425.254 C377.55,420.254 383.333,417.688 387.5,417.554 C387.5,417.755 387.75,418.188 388.25,418.854 Z M316.5,343.604 C311.5,346.837 307,349.821 303,352.554 C301.8,351.521 300.8,350.688 300,350.054 C299,349.221 298.35,348.67 298.05,348.404 C297.35,347.804 297,347.354 297,347.054 C297,346.62 298.25,344.704 300.75,341.304 C301.216,340.67 301.683,340.054 302.15,339.454 C304.517,336.387 306.8,333.77 309,331.603 C317,323.703 321,324.603 321,334.303 C321,338.071 319.5,341.171 316.5,343.604 Z M288,373.555 C290.633,372.288 293.066,371.921 295.3,372.455 C297.5,372.988 299.5,374.455 301.3,376.854 C302.1,377.887 303.417,380.004 305.25,383.205 C306.716,385.838 307.966,387.621 309,388.555 L308,393.055 L307,393.805 C306.333,394.305 305,394.555 303,394.555 C300.167,394.555 296.683,392.055 292.55,387.055 C292.45,386.921 292.35,386.788 292.25,386.655 C288.75,382.388 287,379.522 287,378.055 C287,376.155 287.05,375.155 287.15,375.055 C287.517,374.688 287.8,374.188 288,373.555 Z M325.05,418.654 C328.25,415.421 331.233,412.771 334,410.705 C342.667,404.238 347,405.188 347,413.555 C347,415.689 344.517,418.722 339.55,422.655 C334.583,426.589 330.733,428.555 328,428.555 C325.933,428.555 324.316,428.388 323.15,428.055 L322,427.555 C322,427.355 321.833,427.038 321.5,426.605 C321.167,426.206 321,425.022 321,423.055 C321,422.854 322.35,421.388 325.05,418.654 Z M324.95,464.555 C327.65,464.588 329,466.921 329,471.555 C329,474.489 326.35,478.305 321.05,483.005 C318.183,485.538 314.167,488.722 309,492.555 C305.933,489.955 304.283,488.505 304.05,488.205 C303.35,487.472 303,486.588 303,485.555 C303,484.155 304.35,481.722 307.05,478.255 C309.817,474.689 312.8,471.605 316,469.005 C319.7,465.972 322.683,464.488 324.95,464.555 Z M335.5,511.555 C335.5,511.755 335.75,512.189 336.25,512.855 C336.75,513.522 337,514.838 337,516.805 C337,519.439 333.867,523.171 327.6,528.005 C321.967,532.371 318.767,534.555 318,534.555 C315.933,534.555 314.316,534.388 313.15,534.055 L312,533.555 C312,533.355 311.833,533.038 311.5,532.605 C311.167,532.206 311,531.022 311,529.055 C311,526.722 313.9,523.338 319.7,518.905 C325.767,514.238 331.033,511.788 335.5,511.555 Z M365,524.805 C365.133,526.371 365.267,527.888 365.4,529.355 C370.466,528.289 376.5,528.355 383.5,529.555 C383.5,529.755 383.75,530.189 384.25,530.855 C384.75,531.522 385,532.838 385,534.805 C385,536.705 384.55,538.055 383.649,538.855 C382.882,539.522 381.349,540.105 379.049,540.605 C374.382,541.572 370.232,542.555 366.599,543.555 C366.866,546.822 366.999,548.822 366.999,549.555 L366.999,559.305 C369.432,558.805 371.815,558.288 374.148,557.755 C399.881,551.855 417.499,544.955 426.999,537.055 C426.699,536.855 425.415,535.555 423.148,533.155 C421.282,531.189 418.798,529.555 415.699,528.256 C406.665,524.456 389.648,521.973 364.649,520.806 C364.75,522.071 364.867,523.404 365,524.805 Z M383.25,567.854 C354.983,574.654 320.716,579.104 280.45,581.205 C275.983,581.404 271.467,581.604 266.9,581.805 C253.233,582.305 238.933,582.555 224,582.555 C161.667,582.555 118.85,576.239 95.55,563.605 C90.417,560.838 86.367,557.772 83.4,554.405 C83.133,555.339 83,556.138 83,556.805 C83,560.871 83.917,570.455 85.75,585.555 C87.983,604.288 90.716,622.588 93.95,640.455 C98.95,668.121 104.35,690.738 110.15,708.305 L110.05,708.305 C111.483,712.005 112.967,716.171 114.5,720.805 C115.566,723.805 118.066,726.655 122,729.355 C124.8,731.255 129.133,733.539 135,736.206 C141.167,739.006 145.5,741.006 148,742.206 C151.033,742.839 154.283,743.522 157.75,744.256 C180.35,748.989 199.1,752.339 214,754.306 L295.5,753.806 C318.533,751.773 337.983,749.372 353.85,746.606 C360.683,745.406 366.85,744.139 372.35,742.806 C379.951,740.973 386.3,738.99 391.4,736.856 C395.434,735.19 400.55,732.422 406.751,728.556 C407.351,728.19 407.935,727.839 408.501,727.506 C410.667,725.006 412.584,722.556 414.251,720.155 C414.15,719.855 414.051,719.555 413.951,719.256 C411.984,712.69 411.001,707.956 411.001,705.056 C411.001,695.69 414.634,685.339 421.9,674.006 C423.6,671.372 425.417,668.806 427.35,666.306 C428.284,656.24 429.15,642.74 429.951,625.806 C430.65,610.539 431.001,600.622 431.001,596.056 C431.001,594.389 430.334,585.023 429.001,567.956 C428.501,561.522 428.101,556.189 427.801,551.956 C419.367,556.756 408.034,561.155 393.801,565.155 C393.201,565.289 392.617,565.439 392.051,565.605 C389.184,566.371 386.25,567.121 383.25,567.854 Z M669.5,541.055 L642,541.055 C640.934,541.421 638.483,542.505 634.649,544.305 C632.45,545.338 630.483,545.921 628.75,546.055 C628.783,546.788 628.833,547.555 628.899,548.355 C629.533,557.689 630.399,565.088 631.5,570.555 C632.8,576.989 640.483,583.121 654.55,588.955 C662.25,592.088 675.3,596.638 693.7,602.604 C694.366,600.904 695.467,598.604 697,595.705 C699.666,590.671 701,586.788 701,584.055 C701,579.055 700.666,575.138 700,572.305 C699.267,569.038 697.85,566.005 695.75,563.205 C692.517,558.871 683.767,551.488 669.5,541.055 Z M595,659.305 C596.333,656.972 597,654.972 597,653.305 C597,649.138 592.533,643.155 583.6,635.355 C575.201,627.989 569.666,624.305 567,624.305 L566.2,624.305 C562.3,626.705 556.75,628.989 549.55,631.155 C544.517,632.689 536.517,634.772 525.55,637.405 C512.783,640.472 503.6,642.756 498,644.256 C475.166,650.489 457.983,657.539 446.45,665.405 C443.916,667.138 441.583,668.956 439.45,670.855 C428.483,680.456 423,691.939 423,705.305 C423,709.405 424.233,714.572 426.7,720.805 C427,721.572 427.316,722.338 427.649,723.105 C430.416,729.638 434.049,735.706 438.549,741.305 C452.216,758.305 470.032,766.805 491.999,766.805 C505.032,766.805 515.749,761.355 524.148,750.455 C529.082,744.055 535.082,732.088 542.148,714.555 C549.115,697.255 555.265,685.288 560.598,678.655 C569.199,667.855 580.199,662.405 593.598,662.305 C593.934,661.371 594.399,660.371 595,659.305 Z" id="Shape" fill="#000000" fill-rule="nonzero"></path>
            <path d="M348.95,326.055 C349.083,326.188 349.233,326.322 349.4,326.455 C349.7,326.755 349.966,327.055 350.2,327.355 C349.867,330.522 349.6,333.305 349.4,335.706 C348.8,337.605 348.033,339.956 347.1,342.756 C344.433,350.889 343.1,357.239 343.1,361.806 C343.1,366.306 344.65,372.073 347.75,379.106 C351.517,387.74 355.8,392.056 360.6,392.056 C364.5,392.056 368.333,391.889 372.1,391.556 C372.767,393.023 373.734,394.706 375,396.606 C377.767,400.707 380.983,403.223 384.649,404.156 C385.716,404.423 386.833,404.556 388,404.556 C389.366,404.556 390.55,404.19 391.55,403.456 C391.95,403.122 392.333,402.723 392.7,402.256 C393.366,401.456 394.133,400.389 395,399.056 C394.633,398.323 393.283,396.506 390.95,393.606 C389.683,392.04 388.45,390.606 387.25,389.306 C397.25,387.139 406.75,383.69 415.75,378.956 C416.916,380.355 418.083,381.556 419.25,382.556 C421.616,380.656 423.083,379.372 423.649,378.706 C424.716,377.439 425.25,375.973 425.25,374.306 L425.25,373.406 C427.25,372.073 429.217,370.69 431.149,369.257 C446.75,357.691 459.966,342.224 470.799,322.857 C471.599,323.524 473.082,324.757 475.249,326.557 C479.882,325.857 484.466,322.857 488.999,317.557 C489.398,317.09 489.782,316.64 490.148,316.207 C493.548,311.94 495.249,308.391 495.249,305.557 C495.249,304.49 495.183,303.54 495.049,302.707 C494.615,299.641 493.332,298.174 491.199,298.307 C488.966,298.44 485.982,300.29 482.249,303.857 C480.949,305.057 479.683,306.374 478.449,307.807 C485.549,292.207 490.765,275.69 494.098,258.257 C494.199,258.323 494.298,258.407 494.398,258.507 C494.965,259.007 496.582,260.357 499.249,262.557 C501.049,261.857 503.065,261.174 505.299,260.507 C505.332,260.607 505.382,260.723 505.449,260.857 C506.449,263.424 507.449,266.174 508.449,269.107 C511.049,276.874 513.216,285.291 514.949,294.357 C514.216,294.724 513.549,295.124 512.949,295.557 C510.482,297.39 509.249,299.89 509.249,303.057 C509.249,303.357 509.632,303.84 510.398,304.507 C510.965,305.007 512.582,306.357 515.249,308.557 C515.815,308.457 516.398,308.357 516.999,308.257 L516.999,308.807 C516.999,317.04 516.398,324.99 515.199,332.657 C510.865,331.924 507.216,331.557 504.249,331.557 C504.049,332.191 503.766,332.691 503.398,333.057 C503.298,333.157 503.249,334.157 503.249,336.057 C503.249,338.991 504.749,341.474 507.749,343.507 C509.049,344.406 510.615,345.191 512.449,345.857 C511.315,350.124 509.966,354.307 508.398,358.407 C507.332,361.174 506.182,363.924 504.949,366.657 C498.382,363.557 493.482,362.524 490.249,363.557 C490.049,364.191 489.766,364.691 489.398,365.057 C489.298,365.157 489.249,366.157 489.249,368.057 C489.249,369.491 492.565,372.673 499.199,377.607 C494.665,385.374 489.249,392.874 482.949,400.107 C482.515,399.741 482.098,399.374 481.699,399.007 C470.732,389.441 465.249,390.623 465.249,402.557 C465.249,402.224 467.683,404.741 472.549,410.107 C471.849,410.64 471.132,411.224 470.399,411.857 C470.099,412.124 469.799,412.407 469.5,412.708 C463.633,418.508 457.633,423.741 451.5,428.407 C450.566,427.274 449.666,426.258 448.8,425.357 C446,422.524 443.767,421.524 442.1,422.357 C440.201,423.324 439.251,426.64 439.25,432.307 C439.26,431.992 439.893,432.941 441.149,435.157 C441.216,435.291 441.283,435.407 441.349,435.508 C437.382,438.074 433.366,440.407 429.299,442.508 C424.733,444.874 420.165,446.924 415.599,448.657 C415.099,447.791 414.616,446.958 414.149,446.157 C406.716,433.691 403,433.574 403,445.807 L404.05,450.207 C404.217,450.873 404.383,451.523 404.55,452.156 C396.45,454.29 388.333,455.457 380.2,455.656 C375.599,456.823 371.533,458.49 368,460.656 C363.433,457.923 359.433,457.556 356,459.556 C355.8,460.19 355.517,460.69 355.15,461.056 C355.05,461.156 355,462.156 355,464.056 C355,465.122 356.2,466.823 358.6,469.156 C357.467,470.656 356.45,472.257 355.55,473.957 C353.117,478.557 351.633,483.823 351.1,489.757 C351.034,490.656 351,493.923 351,499.557 C351,499.824 351.667,511.123 353,533.457 C353.066,534.224 353.133,534.99 353.2,535.757 C351.733,537.39 351,539.156 351,541.057 C351,541.357 351.35,541.807 352.05,542.407 C352.383,542.674 353.067,543.258 354.1,544.157 C355.034,551.724 356.083,557.407 357.25,561.208 C333.917,565.407 307.233,568.124 277.2,569.357 C273.067,569.524 268.867,569.657 264.6,569.757 C263.2,561.59 261.967,552.957 260.9,543.857 C260.8,542.691 260.7,541.59 260.6,540.557 C261.267,541.123 262.067,541.79 263,542.557 C263.933,542.191 266.767,539.89 271.5,535.657 C272.767,534.458 274.183,533.14 275.75,531.708 C283.25,524.741 287,520.691 287,519.558 C287,514.492 285.433,512.041 282.3,512.208 C279.7,512.341 276.267,514.241 272,517.907 C271.733,518.14 271.466,518.374 271.2,518.607 C267.833,521.574 264.667,524.974 261.7,528.807 C260.933,529.807 260.267,530.724 259.7,531.557 C259.3,527.623 259.1,525.623 259.1,525.557 C259.1,503.923 261.6,478.673 266.6,449.807 C266.9,448.107 267.233,446.257 267.6,444.257 C272.567,441.656 277.284,437.974 281.75,433.207 C282.083,432.84 282.4,432.49 282.7,432.156 C286.9,427.423 289,423.473 289,420.306 C289,415.806 288.3,412.99 286.9,411.856 C284.667,410.023 280.7,412.406 275,419.006 C273.933,420.239 272.867,421.556 271.8,422.956 C274.667,408.789 278.433,391.056 283.1,369.756 C290.867,334.389 296.367,306.356 299.6,285.656 C304.6,253.789 307.1,224.506 307.1,197.806 C307.1,194.973 307.217,185.589 307.45,169.656 C307.483,168.123 307.5,166.656 307.5,165.256 C307.833,165.689 308.183,166.139 308.55,166.606 C313.617,173.239 316.433,176.556 317,176.556 C317.7,176.556 318.333,176.506 318.9,176.406 C319.966,176.173 320.75,175.739 321.25,175.106 C321.683,174.573 322.1,173.723 322.5,172.556 L322.75,173.306 C322.917,173.406 323,172.406 323,170.306 C323,167.606 321.466,164.239 318.4,160.206 C318.233,160.006 318.083,159.806 317.95,159.606 C314.85,155.673 311.283,153.189 307.25,152.156 C307.183,151.123 307.117,150.156 307.05,149.256 C306.05,137.156 301.9,118.589 294.6,93.556 C292.134,85.256 288.284,76.673 283.05,67.806 C283.95,66.739 284.9,65.523 285.9,64.156 C288.966,59.889 290.65,56.939 290.95,55.306 C290.983,55.106 291,54.939 291,54.806 C291,52.839 290.75,51.523 290.25,50.856 C289.75,50.189 289.5,49.756 289.5,49.556 C288.6,49.189 287.733,48.956 286.9,48.856 C283.267,48.356 279.767,50.073 276.4,54.006 C275.933,54.539 275.5,55.072 275.1,55.606 C269.1,47.173 261.933,38.489 253.6,29.556 L253.75,29.556 C260.383,29.556 266.733,29.889 272.8,30.556 C280.967,31.456 288.6,32.956 295.7,35.056 C295.233,36.356 295,37.189 295,37.556 C295,38.689 295.35,39.606 296.05,40.306 C296.617,40.906 298.267,42.323 301,44.556 C302.4,43.423 303.933,41.406 305.6,38.506 C315.534,42.539 324.267,47.956 331.8,54.756 C330.5,55.722 329.317,56.706 328.25,57.706 C324.75,60.906 323,63.356 323,65.056 C323,65.356 323.383,65.839 324.15,66.506 C324.716,67.006 326.333,68.356 329,70.556 C330.633,69.989 334.5,67.806 340.6,64.006 C345.767,70.339 350.167,77.556 353.8,85.656 C349.267,88.856 347,91.323 347,93.056 C347,93.356 347.383,93.839 348.15,94.506 C348.716,95.006 350.333,96.356 353,98.556 C354.1,97.689 355.667,96.689 357.7,95.556 C361,105.289 363.233,115.906 364.4,127.406 C360.8,129.606 359,131.656 359,133.556 C359,134.689 359.383,135.639 360.15,136.406 C360.183,136.439 361.8,137.823 365,140.556 C365.066,140.556 365.133,140.539 365.2,140.506 C365.3,143.739 365.317,147.072 365.25,150.506 C365.216,153.506 365.133,156.689 365,160.056 C365,166.723 364.9,173.623 364.7,180.756 C362.533,181.023 360.783,181.356 359.45,181.756 C355.15,183.023 353,185.456 353,189.056 C353,191.023 353.167,192.206 353.5,192.606 C353.833,193.04 354,193.356 354,193.556 L357.65,194.056 C360.083,194.356 362.25,194.523 364.15,194.556 C363.55,206.189 362.7,218.356 361.6,231.056 C361.4,231.089 361.2,231.139 361,231.206 C355.667,232.873 353,235.489 353,239.056 C353,241.023 353.167,242.206 353.5,242.606 C353.833,243.04 354,243.356 354,243.556 L355.15,244.056 C356.317,244.389 357.933,244.556 360,244.556 L360.35,244.556 C359.483,253.289 358.483,262.273 357.35,271.506 C356.417,271.706 355.733,271.873 355.3,272.006 C352.933,272.706 351.283,273.589 350.35,274.656 C349.45,275.689 349,277.156 349,279.056 C349,281.023 349.167,282.206 349.5,282.606 C349.833,283.04 350,283.356 350,283.556 L352.15,284.056 C353.317,284.256 354.517,284.406 355.75,284.506 C354.783,291.972 353.65,300.572 352.35,310.306 C350.75,310.806 349.233,311.473 347.8,312.306 C343.267,314.906 341,317.823 341,321.056 C341,321.356 341.383,321.839 342.15,322.506 C342.417,322.739 342.95,323.189 343.75,323.856 C344.55,324.523 345.633,325.423 347,326.556 C347.667,326.388 348.316,326.221 348.95,326.055 Z M251.05,10.005 C250.817,10.005 250.583,10.022 250.35,10.055 C250.35,9.822 250.333,9.605 250.3,9.405 C250.566,9.604 250.816,9.805 251.05,10.005 Z M39.6,340.154 C37.267,330.354 35.4,320.104 34,309.404 C34.466,308.271 34.966,307.154 35.5,306.054 C36,304.954 36.533,303.904 37.1,302.904 C41.2,306.671 43.833,308.554 45,308.554 L45.95,308.554 C47.417,308.487 48.433,308.237 49,307.804 L50,307.054 L51,301.054 C50.267,299.421 48.5,296.771 45.7,293.104 C45.333,292.604 44.967,292.138 44.6,291.704 C52.634,282.271 62.683,277.554 74.75,277.554 C75.117,277.554 75.5,277.571 75.9,277.604 C75.3,280.971 75,283.121 75,284.054 C75,286.454 75.133,287.971 75.4,288.604 C76.1,290.371 77.966,291.687 81,292.554 C83.066,291.187 85.066,287.254 87,280.754 C94.3,284.654 101.167,292.204 107.6,303.404 C107.2,304.337 107,305.054 107,305.554 C107,306.587 107.383,307.504 108.15,308.304 C108.417,308.604 109.667,309.704 111.9,311.604 C116.466,321.138 121.716,334.387 127.65,351.354 C125.883,352.92 125,354.821 125,357.054 C125,359.021 125.167,360.204 125.5,360.604 C125.833,361.038 126,361.354 126,361.554 L127.15,362.054 C128.216,362.354 129.667,362.521 131.5,362.554 C131.767,363.387 132.033,364.221 132.3,365.054 C142.267,394.988 149.833,415.037 155,425.204 C158.9,432.903 162.933,438.987 167.1,443.454 C172.8,449.52 178.767,452.554 185,452.554 C187.066,452.554 188.983,452.37 190.75,452.004 C185.417,454.471 177.5,455.938 167,456.403 C166.7,453.87 164.85,451.27 161.45,448.603 C157.583,445.57 153.6,444.053 149.5,444.053 L149.25,444.453 C149.083,445.119 149,446.486 149,448.553 C149,450.053 149.95,452.653 151.85,456.353 C125.617,454.919 103.367,445.62 85.1,428.454 C78.9,422.62 73.217,415.954 68.05,408.454 C69.05,408.32 69.867,408.103 70.5,407.804 L72,407.054 L73,402.554 C72.2,400.354 70.383,398.071 67.55,395.704 C64.85,393.437 61.933,391.687 58.8,390.454 C58.2,390.221 57.633,390.02 57.1,389.853 C53.4,382.487 50.067,374.537 47.1,366.003 C46.267,363.603 45.467,361.187 44.7,358.753 C47.933,361.286 51.367,362.553 55,362.553 C56.6,362.553 57.783,362.403 58.55,362.103 C58.717,362.003 58.867,361.903 59,361.803 L60,361.053 L61,356.553 C60.566,354.32 58.283,351.586 54.15,348.353 C53.317,347.687 52.433,347.02 51.5,346.353 C47.066,343.188 43.1,341.121 39.6,340.154 Z M135,418.305 C135,414.005 133.966,411.588 131.9,411.055 C130.1,410.588 127.8,411.538 125,413.905 C122.4,416.105 120.117,418.855 118.15,422.155 C116.05,425.622 115,428.589 115,431.055 C115,432.555 115.1,433.605 115.3,434.205 C115.367,434.371 115.433,434.505 115.5,434.604 C115.833,435.038 116,435.354 116,435.554 L117.15,436.054 C117.983,436.287 119.067,436.438 120.4,436.504 C120.9,436.537 121.433,436.554 122,436.554 C124,436.554 126.667,434.238 130,429.604 C133.333,424.938 135,421.171 135,418.305 Z M107,387.005 C104.367,388.638 102.083,390.805 100.15,393.505 C98.05,396.404 97,399.088 97,401.555 C97,402.588 97.35,403.472 98.05,404.205 C98.283,404.505 99.933,405.955 103,408.555 C105.167,407.222 108,404.489 111.5,400.355 C115.167,396.022 117,393.088 117,391.555 C117,387.989 115.966,385.888 113.9,385.255 C112.066,384.688 109.767,385.271 107,387.005 Z M110.25,342.854 C109.75,342.188 109.5,341.754 109.5,341.554 C104.233,341.787 99.983,343.988 96.75,348.154 C94.25,351.387 93,354.521 93,357.554 C93,358.688 93.35,359.604 94.05,360.304 C94.617,360.904 96.267,362.321 99,364.554 C101.633,363.887 104.383,361.054 107.25,356.054 C109.75,351.688 111,348.604 111,346.804 C111,344.838 110.75,343.521 110.25,342.854 Z M85.5,309.555 C79.4,310.188 74.167,314.438 69.8,322.305 C68.367,324.905 67.15,327.688 66.15,330.655 C65.383,332.955 65,334.421 65,335.055 C65,337.022 65.167,338.205 65.5,338.605 C65.833,339.039 66,339.355 66,339.555 L67.15,340.055 C68.317,340.388 69.933,340.555 72,340.555 C72.8,340.555 75.483,336.739 80.05,329.105 C84.683,321.338 87,316.572 87,314.805 C87,312.838 86.75,311.522 86.25,310.855 C85.75,310.188 85.5,309.755 85.5,309.555 Z M352.25,126.854 C351.75,126.187 351.5,125.754 351.5,125.554 C346.867,125.787 342.1,128.521 337.2,133.754 C333.067,138.187 331,141.287 331,143.054 C331,143.354 331.35,143.804 332.05,144.404 C332.617,144.871 334.267,146.254 337,148.554 C339.2,147.987 342.466,145.187 346.8,140.154 C350.933,135.321 353,132.204 353,130.804 C353,128.838 352.75,127.521 352.25,126.854 Z M325.7,96.455 C330.567,90.555 333,86.672 333,84.805 C333,82.838 332.75,81.522 332.25,80.855 C331.75,80.188 331.5,79.755 331.5,79.555 C326.433,80.088 321.183,83.488 315.75,89.755 C313.95,91.821 312.316,94.005 310.85,96.305 C310.15,97.372 309.65,98.172 309.35,98.705 C309.117,99.139 309,99.422 309,99.555 C309,100.688 309.35,101.605 310.05,102.305 C310.15,102.405 310.267,102.522 310.4,102.655 C311.167,103.388 312.7,104.688 315,106.555 C317.267,105.688 320.833,102.321 325.7,96.455 Z M496.399,244.005 C497.433,245.405 498.466,246.955 499.5,248.655 C497.666,249.822 496.2,251.155 495.1,252.655 C495.234,251.822 495.367,250.971 495.5,250.105 C495.833,248.038 496.133,246.005 496.399,244.005 Z M459.25,386.805 C459.25,384.838 459,383.522 458.5,382.855 C458,382.189 457.75,381.755 457.75,381.555 C453.083,379.155 446.316,381.038 437.45,387.205 C434.25,389.438 431.366,391.838 428.8,394.404 C426.434,396.771 425.25,398.321 425.25,399.054 C425.25,401.021 425.416,402.204 425.75,402.604 C426.083,403.038 426.25,403.354 426.25,403.554 L427.899,404.054 C429.399,404.387 431.183,404.554 433.25,404.554 C434.916,404.554 439.6,402.104 447.3,397.204 C455.267,392.071 459.25,388.604 459.25,386.805 Z M333.5,215.555 C327.833,214.688 322.867,216.138 318.6,219.905 C317.933,220.471 317.3,221.088 316.7,221.755 C312.9,225.922 311,229.855 311,233.555 C311,234.588 311.383,235.505 312.15,236.305 C312.45,236.638 314.067,238.055 317,240.555 C317.066,240.522 317.15,240.472 317.25,240.405 C320.617,238.438 324.417,235.105 328.65,230.405 C332.883,225.672 335,222.471 335,220.805 C335,218.838 334.75,217.522 334.25,216.855 C333.75,216.188 333.5,215.755 333.5,215.555 Z M321.95,293.805 C317.317,297.672 315,300.755 315,303.055 C315,303.355 315.35,303.805 316.05,304.405 C316.617,304.872 318.267,306.255 321,308.555 C322.767,307.055 326.417,304.488 331.95,300.855 C336.65,297.522 339,294.838 339,292.805 C339,290.838 338.75,289.522 338.25,288.855 C337.75,288.188 337.5,287.755 337.5,287.555 C332.367,287.321 327.183,289.405 321.95,293.805 Z M324.95,464.555 C322.683,464.489 319.7,465.972 316,469.005 C312.8,471.605 309.816,474.689 307.05,478.255 C304.35,481.722 303,484.154 303,485.555 C303,486.588 303.35,487.472 304.05,488.205 C304.283,488.505 305.933,489.955 309,492.555 C314.167,488.722 318.183,485.538 321.05,483.005 C326.35,478.305 329,474.488 329,471.555 C329,466.921 327.65,464.588 324.95,464.555 Z M325.05,418.654 C322.35,421.387 321,422.854 321,423.054 C321,425.021 321.167,426.204 321.5,426.604 C321.833,427.038 322,427.354 322,427.554 L323.15,428.054 C324.317,428.387 325.933,428.554 328,428.554 C330.733,428.554 334.583,426.587 339.55,422.654 C344.517,418.721 347,415.688 347,413.554 C347,405.188 342.667,404.238 334,410.704 C331.233,412.771 328.25,415.421 325.05,418.654 Z M288,373.555 C287.8,374.189 287.517,374.689 287.15,375.055 C287.05,375.155 287,376.155 287,378.055 C287,379.522 288.75,382.388 292.25,386.655 C292.35,386.789 292.45,386.922 292.55,387.055 C296.683,392.055 300.167,394.555 303,394.555 C305,394.555 306.333,394.305 307,393.805 L308,393.055 L309,388.555 C307.966,387.621 306.716,385.838 305.25,383.205 C303.417,380.005 302.1,377.888 301.3,376.854 C299.5,374.455 297.5,372.988 295.3,372.455 C293.066,371.921 290.633,372.288 288,373.555 Z M316.5,343.604 C319.5,341.17 321,338.071 321,334.304 C321,324.604 317,323.704 309,331.604 C306.8,333.771 304.517,336.387 302.15,339.455 C301.683,340.055 301.216,340.671 300.75,341.305 C298.25,344.705 297,346.621 297,347.055 C297,347.355 297.35,347.805 298.05,348.405 C298.35,348.672 299,349.222 300,350.055 C300.8,350.689 301.8,351.522 303,352.555 C307,349.821 311.5,346.838 316.5,343.604 Z M388.25,418.854 C387.75,418.188 387.5,417.754 387.5,417.554 C383.333,417.688 377.55,420.254 370.15,425.254 C362.716,430.287 359,434.221 359,437.054 C359,437.354 359.383,437.837 360.15,438.504 C360.716,439.004 362.333,440.354 365,442.554 C369.466,441.321 374.6,438.304 380.399,433.504 C386.132,428.771 389,425.204 389,422.804 C389,420.838 388.75,419.521 388.25,418.854 Z M335.5,511.555 C331.033,511.788 325.767,514.239 319.7,518.905 C313.9,523.339 311,526.722 311,529.055 C311,531.022 311.167,532.205 311.5,532.605 C311.833,533.039 312,533.355 312,533.555 L313.15,534.055 C314.317,534.388 315.933,534.555 318,534.555 C318.767,534.555 321.966,532.371 327.6,528.005 C333.867,523.171 337,519.439 337,516.805 C337,514.838 336.75,513.522 336.25,512.855 C335.75,512.188 335.5,511.755 335.5,511.555 Z" id="Shape" fill="#1F8900"></path>
            <path d="M275.1,55.604 C272.367,59.171 271,62.487 271,65.554 C271,66.587 271.35,67.471 272.05,68.204 C272.283,68.504 273.933,69.954 277,72.554 C278.633,72.154 280.65,70.571 283.05,67.804 C288.283,76.671 292.133,85.254 294.6,93.554 C301.9,118.587 306.05,137.154 307.05,149.254 C307.117,150.154 307.183,151.121 307.25,152.154 C305.583,151.687 303.833,151.487 302,151.554 C301.8,152.187 301.517,152.687 301.15,153.054 C301.05,153.154 301,154.154 301,156.054 C301,156.454 303.167,159.521 307.5,165.254 C307.5,166.654 307.483,168.121 307.45,169.654 C307.217,185.587 307.1,194.97 307.1,197.804 C307.1,224.504 304.6,253.787 299.6,285.654 C296.367,306.354 290.867,334.387 283.1,369.754 C278.433,391.054 274.667,408.787 271.8,422.954 C268.2,427.52 264.6,432.887 261,439.054 C261,439.321 261.383,439.771 262.15,440.404 C264.083,442.005 265.7,443.387 267,444.554 C267.2,444.454 267.4,444.354 267.6,444.254 C267.233,446.254 266.9,448.104 266.6,449.804 C261.6,478.67 259.1,503.92 259.1,525.554 C259.1,525.62 259.3,527.62 259.7,531.554 C257.9,534.12 257,535.954 257,537.054 C257,537.354 257.383,537.837 258.15,538.504 C258.517,538.837 259.333,539.521 260.6,540.554 C260.7,541.587 260.8,542.688 260.9,543.854 C261.966,552.955 263.2,561.587 264.6,569.754 C256.467,569.954 248.1,570.054 239.5,570.054 C216.733,570.054 196.566,569.537 179,568.504 C178.933,565.304 178.65,559.254 178.15,550.354 C179.083,550.154 179.867,549.887 180.5,549.554 C182.167,548.654 183,547.071 183,544.804 C183,544.004 181.433,542.571 178.3,540.504 C178.033,540.337 177.767,540.17 177.5,540.004 C176.667,526.204 175.833,515.054 175,506.554 C173.7,493.587 164.466,483.071 147.3,475.004 C148.433,473.07 149,471.67 149,470.804 C149,468.837 148.75,467.521 148.25,466.854 C147.75,466.188 147.5,465.754 147.5,465.554 C144.333,465.887 140.867,467.654 137.1,470.854 C132.034,469.054 125.2,466.887 116.6,464.354 C108.7,462.054 103.25,460.17 100.25,458.705 C103.417,453.404 105,450.104 105,448.805 C105,446.838 104.75,445.522 104.25,444.855 C103.75,444.189 103.5,443.755 103.5,443.555 C98.733,443.755 94.183,446.655 89.85,452.255 C82.384,447.189 75.583,441.788 69.45,436.055 C70.384,435.689 71.083,435.305 71.55,434.905 C72.517,434.072 73,432.706 73,430.805 C73,428.838 72.75,427.522 72.25,426.855 C71.75,426.189 71.5,425.755 71.5,425.555 C66.533,423.822 62.25,423.588 58.65,424.855 C48.55,413.155 40.883,400.222 35.65,386.055 C37.883,384.788 39,383.038 39,380.805 C39,378.838 38.75,377.522 38.25,376.855 C37.75,376.189 37.5,375.755 37.5,375.555 C35.767,375.189 33.95,374.939 32.05,374.805 C30.083,367.605 28.7,360.121 27.9,352.355 C28.933,352.189 29.8,351.921 30.5,351.555 C32.167,350.655 33,349.072 33,346.805 C33,344.972 31.033,342.871 27.1,340.505 C27.034,338.772 27,337.038 27,335.305 C28,326.505 30.333,317.872 34,309.405 C35.4,320.105 37.267,330.355 39.6,340.155 C38.333,339.822 37.134,339.622 36,339.555 C35.8,340.189 35.517,340.689 35.15,341.055 C35.05,341.155 35,342.155 35,344.055 C35,346.722 36.833,350.239 40.5,354.605 C41.867,356.239 43.267,357.622 44.7,358.755 C45.467,361.189 46.267,363.605 47.1,366.005 C50.067,374.538 53.4,382.488 57.1,389.855 C54.5,389.022 52.333,388.855 50.6,389.355 C48.2,390.055 47,391.956 47,395.055 C47,394.888 49.2,397.072 53.6,401.605 C58.7,406.239 62.833,408.555 66,408.555 C66.733,408.555 67.417,408.522 68.05,408.455 C73.217,415.955 78.9,422.621 85.1,428.455 C103.367,445.621 125.617,454.921 151.85,456.354 C151.917,456.521 152,456.688 152.1,456.854 C154.767,461.988 157.733,464.554 161,464.554 C163,464.554 164.333,464.304 165,463.804 L166,463.054 L167,457.054 L167,456.404 C177.5,455.938 185.417,454.471 190.75,452.005 C193.216,451.439 195.316,450.472 197.05,449.105 C199.683,447.072 201,444.555 201,441.555 C201,439.822 200.85,438.555 200.55,437.755 C200.183,436.888 199.667,436.205 199,435.705 L199,434.805 C199,430.038 197.533,422.255 194.6,411.455 C198.634,412.188 200.767,412.555 201,412.555 C202.2,412.555 203.383,411.772 204.55,410.205 C206.05,408.205 206.867,407.154 207,407.055 C203.4,402.689 198.966,399.205 193.7,396.605 C192.367,395.939 191.017,395.355 189.65,394.855 C182.216,371.921 176.333,353.206 172,338.706 C171.633,337.439 171.267,336.172 170.9,334.905 C171.3,334.672 171.683,334.405 172.05,334.105 C174.017,332.572 175,330.805 175,328.805 C175,326.838 174.75,325.522 174.25,324.855 C173.75,324.188 173.5,323.755 173.5,323.555 C171.566,323.688 169.617,323.722 167.65,323.655 C161.883,302.922 157.216,283.072 153.65,264.105 C156.75,264.405 158.867,264.555 160,264.555 C162.367,264.555 164.3,264.105 165.8,263.205 C167.133,262.372 168.2,261.155 169,259.555 C166.533,254.655 162.966,250.988 158.3,248.555 C155.867,247.288 153.283,246.438 150.55,246.005 C148.017,229.805 146.367,214.288 145.6,199.455 C147.833,200.188 149.634,200.555 151,200.555 C152.1,200.555 153.25,199.772 154.45,198.205 C156.017,196.205 156.867,195.155 157,195.055 C153.233,191.222 149.267,188.138 145.1,185.805 C145.034,183.538 145,181.288 145,179.055 C145,168.822 145.367,159.838 146.1,152.105 C146.5,148.005 146.983,144.005 147.55,140.105 C150.583,141.738 153.067,142.555 155,142.555 C156.2,142.555 157.383,141.772 158.55,140.205 C160.05,138.205 160.867,137.155 161,137.055 C160.4,135.855 158.133,133.338 154.2,129.505 C152.833,128.138 151.467,126.838 150.1,125.605 C151.933,117.005 154.233,108.838 157,101.105 C158.333,97.405 159.767,93.838 161.3,90.405 C163.7,91.838 165.933,92.555 168,92.555 C172.667,92.555 175,90.638 175,86.805 C175,86.538 173.933,85.255 171.8,82.955 C170.4,81.422 168.933,79.922 167.4,78.455 C173.466,67.855 180.7,58.938 189.1,51.705 C190.6,50.438 192.117,49.222 193.65,48.055 C195.583,49.722 197.367,50.555 199,50.555 C201,50.555 202.417,50.138 203.25,49.305 L204.5,48.055 C204.833,48.388 205,46.888 205,43.555 C205,42.955 204.767,42.155 204.3,41.155 C214.2,35.755 225.217,32.238 237.35,30.605 C238.517,35.905 241.067,38.555 245,38.555 C247,38.555 248.333,38.305 249,37.805 L250,37.055 L251,32.555 C250.6,31.688 250.3,30.705 250.1,29.605 C251.233,29.572 252.4,29.555 253.6,29.555 C261.933,38.488 269.1,47.171 275.1,55.604 Z M247,104.805 C247,106.738 248.367,111.122 251.1,117.955 C254.433,126.355 257.733,130.555 261,130.555 C263,130.555 264.333,130.305 265,129.805 L266,129.055 L267,124.555 C265.867,122.822 264.8,119.922 263.8,115.855 C262.4,110.222 261.533,106.889 261.2,105.855 C258.634,98.422 254.067,95.822 247.5,98.055 L247.05,100.705 C247.017,101.138 247,102.505 247,104.805 Z M194,114.104 C198.066,119.737 201.733,122.554 205,122.554 C207,122.554 208.417,122.137 209.25,121.304 L210.5,120.054 C210.833,120.387 211,118.887 211,115.554 C211,115.221 209.85,113.621 207.55,110.754 C204.883,107.454 202.367,104.737 200,102.604 C192.667,96.104 189,97.421 189,106.554 C189,106.155 190.667,108.671 194,114.104 Z M237.55,67.455 C234.983,64.055 232.467,61.188 230,58.855 C222.667,52.022 219,53.005 219,61.805 C219,61.738 220.667,64.505 224,70.105 C228,75.738 231.667,78.555 235,78.555 C237.033,78.555 238.433,78.222 239.2,77.555 C239.567,77.222 239.833,76.888 240,76.555 L240.5,76.555 C240.833,76.155 241,74.905 241,72.805 C241,72.271 239.85,70.488 237.55,67.455 Z M264.4,206.705 C271.466,200.605 275,196.639 275,194.805 C275,192.838 274.75,191.522 274.25,190.855 C273.75,190.188 273.5,189.755 273.5,189.555 C269.667,189.555 263.917,192.538 256.25,198.505 C248.75,204.372 245,208.555 245,211.055 C245,211.355 245.383,211.838 246.15,212.505 C246.716,213.005 248.333,214.355 251,216.555 C253.2,215.821 257.667,212.538 264.4,206.705 Z M232,554.555 C236.667,554.555 239,552.638 239,548.805 C239,546.838 235.316,543.805 227.95,539.705 C220.617,535.604 215.3,533.555 212,533.555 C211.8,534.189 211.517,534.689 211.15,535.055 C211.05,535.155 211,536.155 211,538.055 C211,539.489 213.65,542.522 218.95,547.155 C224.617,552.088 228.966,554.555 232,554.555 Z M494.1,258.255 C490.767,275.688 485.55,292.205 478.451,307.805 C476.718,309.705 475.001,311.805 473.301,314.105 C470.601,317.772 469.251,320.088 469.251,321.055 C469.251,321.355 469.634,321.838 470.4,322.505 C470.501,322.605 470.633,322.721 470.8,322.855 C459.967,342.222 446.75,357.689 431.15,369.255 C429.217,370.689 427.251,372.071 425.251,373.404 C425.018,369.571 423.534,365.488 420.801,361.154 C417.034,355.255 412.601,353.554 407.501,356.054 L407.251,356.804 C407.084,357.738 407.001,359.238 407.001,361.304 C407.001,364.137 408.451,367.938 411.351,372.704 C412.818,375.103 414.285,377.187 415.751,378.954 C406.751,383.687 397.251,387.137 387.251,389.304 C385.65,387.537 384.134,386.004 382.701,384.704 C374.9,377.57 371.001,378.52 371.001,387.554 C371.001,388.654 371.368,389.988 372.101,391.554 C368.334,391.887 364.501,392.054 360.601,392.054 C355.801,392.054 351.518,387.738 347.751,379.104 C344.651,372.071 343.101,366.304 343.101,361.804 C343.101,357.238 344.434,350.887 347.101,342.754 C348.035,339.954 348.801,337.604 349.401,335.704 C349.134,338.804 349.001,341.254 349.001,343.054 C349.001,343.188 348.868,344.521 348.601,347.054 C348.501,349.988 348.785,352.67 349.451,355.104 C351.651,362.738 357.501,366.554 367.001,366.554 C380.001,366.554 391.251,360.854 400.751,349.454 C402.185,350.187 403.601,350.554 405.001,350.554 C406.201,350.554 407.384,349.771 408.551,348.204 C410.051,346.204 410.867,345.153 411.001,345.054 C410.334,342.988 409.435,340.804 408.301,338.504 C413.534,329.47 419.367,316.654 425.801,300.054 C426.601,297.954 427.367,295.971 428.101,294.104 C432.568,297.071 436.285,298.554 439.251,298.554 C441.284,298.554 442.685,298.221 443.451,297.554 C443.817,297.221 444.084,296.887 444.251,296.554 L444.751,296.554 C445.084,296.154 445.251,294.904 445.251,292.804 C445.251,292.137 443.367,290.037 439.601,286.504 C437.501,284.504 435.401,282.654 433.301,280.954 C434.167,278.787 434.901,277.021 435.501,275.654 C438.935,267.72 442.284,261.137 445.551,255.904 C447.751,257.671 449.651,258.554 451.251,258.554 C453.284,258.554 454.685,258.221 455.451,257.554 C455.817,257.221 456.084,256.887 456.251,256.554 L456.751,256.554 C457.084,256.154 457.251,254.904 457.251,252.804 C457.251,251.937 455.884,249.571 453.15,245.704 C459.617,238.737 466.85,234.771 474.85,233.804 C473.784,237.604 473.25,240.021 473.25,241.054 C473.25,241.321 473.633,241.771 474.399,242.404 C476.333,244.004 477.95,245.387 479.25,246.554 C482.017,244.921 484.6,241.271 487,235.604 C490.3,237.304 493.434,240.104 496.399,244.004 C496.132,246.004 495.833,248.037 495.5,250.104 C495.366,250.971 495.233,251.821 495.1,252.654 C495.034,252.72 494.984,252.787 494.951,252.854 C493.817,254.421 493.251,255.821 493.251,257.054 C493.25,257.321 493.533,257.721 494.1,258.255 Z M432.25,317.555 C432.05,318.188 431.767,318.688 431.399,319.055 C431.299,319.155 431.25,320.155 431.25,322.055 C431.25,323.722 432.583,327.238 435.25,332.605 C438.55,339.239 441.883,342.555 445.25,342.555 C447.35,342.555 448.767,342.072 449.5,341.105 C449.934,340.572 450.35,339.722 450.75,338.555 L451,339.305 C451.166,339.405 451.25,338.405 451.25,336.305 C451.25,334.138 449.399,330.772 445.7,326.205 C441.3,320.771 436.816,317.888 432.25,317.555 Z M487.25,264.805 C487.25,262.838 487,261.522 486.5,260.855 C486,260.188 485.75,259.755 485.75,259.555 C481.283,260.022 476.316,263.138 470.85,268.905 C465.784,274.238 463.25,278.288 463.25,281.055 C463.25,281.322 463.633,281.772 464.399,282.405 C466.333,284.005 467.95,285.388 469.25,286.555 C472.283,285.488 476.1,282.055 480.7,276.255 C485.066,270.688 487.25,266.872 487.25,264.805 Z M247,504.555 C249.267,503.989 252.233,501.189 255.9,496.155 C259.3,491.422 261,488.305 261,486.805 C261,484.838 260.75,483.522 260.25,482.855 C259.75,482.189 259.5,481.755 259.5,481.555 C255,481.788 250.633,484.138 246.4,488.605 C242.8,492.439 241,495.421 241,497.555 C241,498.588 241.35,499.472 242.05,500.205 C242.283,500.505 243.933,501.955 247,504.555 Z M194,497.555 C193.8,498.189 193.517,498.689 193.15,499.055 C193.05,499.155 193,500.155 193,502.055 C193,503.722 195,506.755 199,511.155 C203.5,516.089 207.5,518.555 211,518.555 C213,518.555 214.333,518.305 215,517.805 L216,517.055 L217,512.555 C216.867,510.055 213.933,506.939 208.2,503.205 C202.466,499.438 197.733,497.555 194,497.555 Z M219,465.555 C219,462.088 217.966,460.022 215.9,459.355 C214.033,458.755 211.733,459.305 209,461.005 C206.3,462.671 204.017,464.939 202.15,467.805 C200.05,470.939 199,474.022 199,477.055 C199,477.355 199.35,477.805 200.05,478.405 C200.617,478.872 202.267,480.256 205,482.555 C207.1,481.522 209.933,478.871 213.5,474.605 C217.167,470.271 219,467.255 219,465.555 Z M235,450.555 C237.267,449.989 240.233,447.189 243.9,442.155 C247.3,437.422 249,434.305 249,432.805 C249,430.838 248.75,429.522 248.25,428.855 C247.75,428.189 247.5,427.755 247.5,427.555 C243.333,427.655 239.1,429.888 234.8,434.255 C230.933,438.121 229,441.222 229,443.555 C229,444.588 229.35,445.472 230.05,446.205 C230.283,446.505 231.933,447.955 235,450.555 Z M268.95,303.555 C272.983,298.888 275,295.305 275,292.805 C275,290.838 274.75,289.522 274.25,288.855 C273.75,288.188 273.5,287.755 273.5,287.555 C268.867,287.788 264.1,290.522 259.2,295.755 C255.067,300.188 253,303.288 253,305.055 C253,305.355 253.35,305.805 254.05,306.405 C254.617,306.872 256.267,308.255 259,310.555 C261.5,310.688 264.816,308.354 268.95,303.555 Z M271.25,242.455 C271.083,243.122 271,244.488 271,246.555 C271,247.955 272.517,251.722 275.55,257.855 C279.117,264.988 282.267,268.555 285,268.555 C287,268.555 288.333,268.305 289,267.805 L290,267.055 L291,262.555 C290.033,261.622 289,259.538 287.9,256.305 C286.333,251.538 285.333,248.672 284.9,247.705 C281.9,240.905 277.433,239.022 271.5,242.055 L271.25,242.455 Z M177.9,141.005 C176.1,140.672 173.8,141.622 171,143.855 C168.433,145.889 166.15,148.405 164.15,151.405 C162.05,154.505 161,157.055 161,159.055 C161,159.355 161.383,159.838 162.15,160.505 C162.716,161.005 164.333,162.355 167,164.555 C169.333,163.255 172.233,160.555 175.7,156.455 C179.233,152.222 181,149.255 181,147.555 C181,143.588 179.966,141.405 177.9,141.005 Z M201,220.805 C201,220.472 200.383,219.355 199.15,217.455 C197.583,215.088 195.85,212.872 193.95,210.805 C188.083,204.538 182.1,201.455 176,201.555 C175.8,202.188 175.517,202.688 175.15,203.055 C175.05,203.155 175,204.155 175,206.055 C175,206.922 177.517,210.438 182.55,216.605 C187.95,223.238 191.767,226.555 194,226.555 C198.667,226.555 201,224.638 201,220.805 Z M198.45,166.305 C197.483,167.838 197,168.755 197,169.055 C197,171.022 197.167,172.205 197.5,172.605 C197.833,173.039 198,173.355 198,173.555 L199.15,174.055 C200.317,174.388 201.933,174.555 204,174.555 L211.5,168.555 C216.5,164.155 219,160.905 219,158.805 C219,156.838 218.75,155.522 218.25,154.855 C217.75,154.188 217.5,153.755 217.5,153.555 C212.233,153.555 207.25,156.038 202.55,161.005 C201.017,162.671 199.65,164.438 198.45,166.305 Z M237,386.104 C227.667,376.038 223,376.354 223,387.054 C223,387.321 223.767,388.654 225.3,391.054 C227.133,393.854 229.033,396.537 231,399.104 C236.966,406.738 241.633,410.554 245,410.554 C247.033,410.554 248.433,410.221 249.2,409.554 C249.567,409.221 249.833,408.887 250,408.554 C250.167,408.754 250.333,408.754 250.5,408.554 C250.833,408.154 251,406.904 251,404.804 C251,404.471 249.55,402.238 246.65,398.104 C243.216,393.338 240,389.338 237,386.104 Z M253.3,349.455 C251.033,351.821 249.05,354.222 247.35,356.654 C245.784,358.921 245,360.387 245,361.054 C245,361.321 245.383,361.771 246.15,362.404 C248.083,364.005 249.7,365.387 251,366.554 C253.466,365.654 257.4,362.304 262.8,356.504 C268.267,350.637 271,346.737 271,344.804 C271,342.837 270.75,341.521 270.25,340.854 C269.75,340.188 269.5,339.754 269.5,339.554 C264.933,339.654 259.533,342.955 253.3,349.455 Z M203.9,314.805 C200.167,311.505 197.183,309.955 194.95,310.155 C192.317,310.422 191,313.221 191,318.555 C191,318.155 193.7,321.672 199.1,329.105 C205.233,336.739 209.867,340.555 213,340.555 C214.2,340.555 215.383,339.772 216.55,338.205 C218.05,336.205 218.867,335.154 219,335.055 C218.2,332.689 216.316,329.488 213.35,325.455 C210.216,321.188 207.066,317.638 203.9,314.805 Z M243.5,257.555 C239.9,257.688 235.216,260.338 229.45,265.505 C223.817,270.571 221,274.422 221,277.055 C221,277.322 221.383,277.772 222.15,278.405 C224.083,280.005 225.7,281.388 227,282.555 C228.6,281.822 231.95,278.788 237.05,273.455 C242.35,267.855 245,264.305 245,262.805 C245,260.838 244.75,259.522 244.25,258.855 C243.75,258.188 243.5,257.755 243.5,257.555 Z" id="Shape" fill="#54C234"></path>
            <path d="M163.05,519.255 C163.183,519.222 163.317,519.205 163.45,519.205 C163.45,521.705 163.417,524.654 163.35,528.055 C163.317,529.989 163.284,531.805 163.25,533.505 C156.417,531.772 153,533.621 153,539.055 C153,540.655 155.167,542.855 159.5,545.655 C160.667,546.422 161.85,547.105 163.05,547.706 L163.05,549.956 C163.183,557.322 163.833,563.189 165,567.556 C136.9,565.256 116.716,561.389 104.45,555.956 C97.517,552.889 93.083,549.256 91.15,545.056 C90.583,543.889 90.15,542.406 89.85,540.606 L89.85,540.506 C91.617,537.072 92.65,534.723 92.95,533.456 C96.083,531.155 100.717,529.206 106.85,527.605 C113.284,525.939 122.983,524.355 135.95,522.855 C150.417,521.154 159.45,519.955 163.05,519.255 Z M365,524.805 C364.867,523.405 364.75,522.072 364.65,520.805 C389.65,521.972 406.666,524.455 415.7,528.255 C418.8,529.555 421.283,531.189 423.149,533.154 C425.416,535.554 426.7,536.854 427,537.054 C417.5,544.954 399.883,551.854 374.149,557.754 C371.816,558.287 369.433,558.804 367,559.304 L367,549.554 C367,548.821 366.867,546.821 366.6,543.554 C370.233,542.554 374.383,541.571 379.05,540.604 C381.35,540.104 382.883,539.521 383.65,538.854 C384.55,538.054 385.001,536.705 385.001,534.804 C385.001,532.837 384.751,531.521 384.251,530.854 C383.751,530.188 383.501,529.754 383.501,529.554 C376.501,528.354 370.467,528.287 365.401,529.354 C365.267,527.888 365.133,526.371 365,524.805 Z" id="Shape" fill="#A47704"></path>
            <path d="M353.85,746.604 C337.983,749.371 318.534,751.771 295.5,753.804 L214,754.304 C199.1,752.337 180.35,748.988 157.75,744.254 C154.283,743.521 151.033,742.837 148,742.204 C145.5,741.004 141.167,739.004 135,736.204 C129.133,733.537 124.8,731.254 122,729.353 C118.066,726.653 115.566,723.803 114.5,720.803 C112.966,716.169 111.483,712.003 110.05,708.303 L110.15,708.303 C104.35,690.737 98.95,668.119 93.95,640.453 C90.717,622.586 87.983,604.286 85.75,585.553 C83.917,570.453 83,560.869 83,556.803 C83,556.136 83.133,555.336 83.4,554.403 C86.367,557.77 90.417,560.837 95.55,563.603 C118.85,576.237 161.667,582.553 224,582.553 C238.933,582.553 253.233,582.303 266.9,581.803 C271.466,581.603 275.983,581.403 280.45,581.203 C320.717,579.102 354.983,574.652 383.25,567.852 C383.583,573.019 384.533,580.835 386.1,591.302 C388.1,604.569 389.1,614.069 389.1,619.802 C389.1,647.402 387.267,668.736 383.6,683.802 C380.666,695.736 374.617,709.635 365.45,725.502 C361.183,732.702 358.3,737.686 356.8,740.452 C355.433,742.921 354.45,744.972 353.85,746.604 Z M122.5,596.104 C121.033,590.771 119.2,586.804 117,584.205 C114.867,581.705 113.033,581.205 111.5,582.705 C109.833,584.338 109,588.038 109,593.805 C109,598.905 109.566,606.955 110.7,617.955 C112.533,635.788 115.317,652.104 119.05,666.904 C130.75,713.505 149.4,736.804 175,736.804 C177.5,736.804 179.333,736.504 180.5,735.904 C182.167,735.038 183,733.421 183,731.054 C183,730.721 181.683,730.337 179.05,729.904 C175.35,729.271 171.983,728.304 168.95,727.005 C157.85,722.238 148.367,712.338 140.5,697.305 C137.966,692.371 135.95,685.655 134.45,677.155 C132.483,665.855 131.167,659.072 130.5,656.805 C129.066,651.972 128.117,645.088 127.65,636.155 C127.183,627.189 126.3,620.489 125,616.055 C125,608.788 124.167,602.138 122.5,596.104 Z" id="Shape" fill="#EAB42B"></path>
            <path d="M122.5,596.104 C124.167,602.137 125,608.788 125,616.054 C126.3,620.488 127.183,627.188 127.65,636.154 C128.117,645.088 129.067,651.971 130.5,656.804 C131.167,659.071 132.483,665.854 134.45,677.154 C135.95,685.654 137.967,692.371 140.5,697.304 C148.367,712.337 157.85,722.238 168.95,727.004 C171.983,728.304 175.35,729.271 179.05,729.903 C181.683,730.337 183,730.72 183,731.053 C183,733.419 182.167,735.036 180.5,735.903 C179.333,736.504 177.5,736.803 175,736.803 C149.4,736.803 130.75,713.503 119.05,666.903 C115.317,652.103 112.533,635.787 110.7,617.954 C109.567,606.954 109,598.903 109,593.804 C109,588.037 109.833,584.337 111.5,582.704 C113.033,581.204 114.867,581.704 117,584.204 C119.2,586.805 121.033,590.771 122.5,596.104 Z" id="Shape" fill="#FFE197"></path>
            <path d="M353.85,746.604 C354.45,744.971 355.433,742.92 356.8,740.455 C358.3,737.688 361.183,732.705 365.45,725.505 C374.617,709.638 380.666,695.738 383.6,683.805 C387.267,668.739 389.1,647.405 389.1,619.805 C389.1,614.072 388.1,604.572 386.1,591.305 C384.534,580.838 383.583,573.022 383.25,567.855 C386.25,567.122 389.184,566.372 392.05,565.605 C392.616,565.439 393.2,565.289 393.8,565.155 C408.033,561.155 419.366,556.756 427.8,551.956 C428.1,556.189 428.5,561.522 429,567.956 C430.333,585.022 431,594.389 431,596.056 C431,600.622 430.649,610.539 429.95,625.806 C429.149,642.74 428.283,656.24 427.349,666.306 C425.415,668.806 423.599,671.372 421.899,674.006 C414.633,685.338 411,695.688 411,705.055 C411,707.955 411.983,712.689 413.95,719.255 C414.05,719.555 414.149,719.855 414.25,720.154 C412.583,722.554 410.666,725.005 408.5,727.505 C407.934,727.838 407.35,728.189 406.75,728.555 C400.55,732.421 395.434,735.189 391.399,736.855 C386.299,738.989 379.95,740.972 372.349,742.805 C366.85,744.138 360.683,745.404 353.85,746.604 Z" id="Shape" fill="#CB9816"></path>
            <path d="M564.85,520.154 C572.817,520.154 578.717,521.071 582.55,522.904 C585.517,524.338 587.5,526.505 588.5,529.404 C589.066,531.071 589.633,533.621 590.2,537.054 C591,539.887 592.633,541.92 595.099,543.154 C598.2,542.387 600.099,540.671 600.799,538.005 C600.999,537.272 601.099,534.988 601.099,531.154 C601.099,519.387 596.832,510.288 588.299,503.854 C580.532,497.988 571.132,495.471 560.099,496.304 C548.933,497.137 539.533,501.154 531.899,508.354 C523.366,516.387 519.099,526.821 519.099,539.654 C519.099,541.788 519.45,543.604 520.149,545.104 C521.016,547.071 522.666,549.087 525.099,551.154 C526.099,550.554 527.466,548.455 529.2,544.854 C531.467,540.154 533.416,536.654 535.05,534.354 C541.75,524.888 551.684,520.154 564.85,520.154 Z M601.45,499.455 C605.383,502.488 608.666,506.188 611.3,510.555 C611.467,510.888 611.65,511.222 611.85,511.555 C614.717,516.689 616.734,522.689 617.9,529.555 C619.167,537.189 619.951,548.655 620.251,563.955 C621.218,576.555 624.468,585.171 630.001,589.805 C638.601,597.005 650.018,603.505 664.251,609.305 C668.15,610.905 673.917,613.138 681.551,616.005 C688.251,618.605 693.651,620.921 697.751,622.955 C709.251,628.722 717.718,635.921 723.15,644.555 C729.883,655.222 733.251,669.638 733.251,687.805 C733.251,690.871 732.501,694.921 731.001,699.955 C728.9,707.055 725.817,713.521 721.751,719.354 C709.685,736.654 691.351,745.304 666.751,745.304 C641.084,745.304 616.634,737.804 593.4,722.804 C589.867,720.537 582.701,715.387 571.9,707.354 C567.633,704.154 564.284,702.054 561.85,701.054 C563.117,698.587 564.5,696.17 566,693.804 C567.5,691.438 570.267,689.037 574.3,686.604 C576.434,685.337 580.35,683.304 586.05,680.504 C591.017,678.104 594.5,676.204 596.5,674.804 C597.7,673.971 598.649,673.137 599.35,672.304 L600,672.304 C602.967,672.304 605.316,669.804 607.05,664.804 C608.35,661.004 609,657.254 609,653.554 C609,649.754 606.5,644.221 601.5,636.954 C596.733,630.054 591.233,623.737 585,618.004 C579.6,613.037 575,609.771 571.2,608.204 C570.433,607.337 569.45,606.804 568.25,606.603 C565.75,606.204 561.899,607.336 556.7,610.003 C550.333,613.636 545.566,616.336 542.399,618.103 C536.766,621.204 532.466,622.937 529.5,623.303 C522.666,624.169 516.333,625.003 510.5,625.803 L511,622.803 C505.666,610.003 503,593.419 503,573.053 C503.967,558.487 506.616,544.003 510.95,529.603 C519.649,500.903 532.5,486.553 549.5,486.553 C573,486.555 590.316,490.854 601.45,499.455 Z M597,710.604 C601.434,713.67 606.633,716.621 612.6,719.455 C629.467,727.421 645.633,731.404 661.1,731.404 C682.967,731.404 698.984,725.571 709.15,713.904 C715.784,706.271 719.1,697.938 719.1,688.904 C719.1,682.705 717.434,675.404 714.1,667.005 C711.067,659.439 707.4,652.638 703.1,646.605 C698.734,640.539 695.067,637.171 692.1,636.505 C688.767,635.738 687.1,638.705 687.1,645.404 C687.1,647.904 688.1,652.154 690.1,658.154 C692.1,664.154 693.1,668.404 693.1,670.904 C693.534,678.005 691.367,684.821 686.6,691.354 C677.166,704.387 659.5,710.904 633.6,710.904 C628.067,710.904 622.367,708.988 616.5,705.154 C613.467,703.188 611.217,701.871 609.75,701.205 C607.017,700.005 604.133,699.404 601.1,699.404 C597.3,699.404 594.633,699.938 593.1,701.005 C591.767,701.904 591.1,703.371 591.1,705.404 C591.1,706.205 593.066,707.938 597,710.604 Z" id="Shape" fill="#EB5615"></path>
            <path d="M564.85,520.154 C551.684,520.154 541.75,524.887 535.05,534.354 C533.416,536.654 531.467,540.154 529.2,544.854 C527.467,548.455 526.099,550.554 525.099,551.154 C522.665,549.088 521.016,547.071 520.149,545.104 C519.45,543.604 519.099,541.788 519.099,539.654 C519.099,526.821 523.366,516.387 531.899,508.354 C539.533,501.154 548.933,497.137 560.099,496.304 C571.132,495.471 580.533,497.988 588.299,503.854 C596.832,510.288 601.099,519.387 601.099,531.154 C601.099,534.988 600.999,537.271 600.799,538.005 C600.099,540.671 598.199,542.388 595.099,543.154 C592.632,541.921 590.999,539.887 590.2,537.054 C589.633,533.62 589.066,531.071 588.5,529.404 C587.5,526.505 585.517,524.338 582.55,522.904 C578.717,521.071 572.816,520.154 564.85,520.154 Z M597,710.604 C593.066,707.938 591.1,706.205 591.1,705.404 C591.1,703.371 591.767,701.904 593.1,701.005 C594.633,699.939 597.3,699.404 601.1,699.404 C604.133,699.404 607.017,700.005 609.75,701.205 C611.217,701.871 613.467,703.188 616.5,705.154 C622.366,708.988 628.066,710.904 633.6,710.904 C659.5,710.904 677.166,704.387 686.6,691.354 C691.367,684.821 693.534,678.004 693.1,670.904 C693.1,668.404 692.1,664.154 690.1,658.154 C688.1,652.154 687.1,647.904 687.1,645.404 C687.1,638.705 688.767,635.738 692.1,636.505 C695.067,637.171 698.734,640.538 703.1,646.605 C707.4,652.638 711.067,659.439 714.1,667.005 C717.434,675.404 719.1,682.705 719.1,688.904 C719.1,697.938 715.784,706.271 709.15,713.904 C698.984,725.571 682.967,731.404 661.1,731.404 C645.633,731.404 629.467,727.421 612.6,719.455 C606.633,716.621 601.434,713.671 597,710.604 Z" id="Shape" fill="#FF6E30"></path>
            <path d="M622.25,511.555 C625.983,509.888 637.149,509.055 655.75,509.055 C691.483,509.055 716.666,519.572 731.3,540.605 C739.934,552.972 744.25,567.539 744.25,584.305 C744.25,597.005 741.083,609.288 734.75,621.155 C732.383,625.256 730.566,628.472 729.3,630.805 C723.434,621.005 716.416,613.638 708.25,608.705 C710.116,606.538 711.483,603.404 712.35,599.305 C712.951,596.371 713.25,590.788 713.25,582.555 C713.25,567.822 708.333,555.772 698.5,546.405 C690.366,538.638 679.583,533.256 666.149,530.256 C654.649,527.69 643.849,527.256 633.75,528.956 C631.35,529.355 629.25,529.839 627.45,530.405 C627.283,529.072 627.133,527.956 627,527.055 C626.533,522.188 624.95,517.021 622.25,511.555 Z" id="Shape" fill="#4AB5EB"></path>
            <path d="M595,659.305 C594.399,660.371 593.934,661.371 593.6,662.305 C580.201,662.405 569.201,667.855 560.6,678.655 C555.267,685.289 549.117,697.256 542.15,714.555 C535.084,732.088 529.084,744.055 524.15,750.455 C515.751,761.354 505.034,766.805 492.001,766.805 C470.034,766.805 452.218,758.305 438.551,741.305 C434.051,735.705 430.417,729.638 427.651,723.105 C427.318,722.338 427.002,721.572 426.702,720.805 C424.235,714.572 423.002,709.405 423.002,705.305 C423.002,691.939 428.485,680.455 439.452,670.855 C441.585,668.956 443.918,667.138 446.452,665.405 C457.985,657.539 475.168,650.489 498.002,644.256 C503.602,642.756 512.785,640.473 525.552,637.405 C536.519,634.772 544.519,632.689 549.552,631.155 C556.752,628.989 562.302,626.706 566.202,624.305 L567.002,624.305 C569.668,624.305 575.202,627.989 583.602,635.355 C592.536,643.155 597.002,649.138 597.002,653.305 C597,654.972 596.333,656.972 595,659.305 Z M525,717.305 C525,712.838 523.684,711.105 521.05,712.105 C519.217,712.805 515.883,715.405 511.05,719.905 C504.883,725.672 500.533,729.506 498,731.405 C492.767,735.339 488.35,737.305 484.75,737.305 C478.45,737.305 473.517,735.472 469.95,731.805 C467.717,729.472 466.467,728.205 466.2,728.005 C464.733,726.871 463,726.305 461,726.305 C458.899,726.305 457.399,726.788 456.5,727.755 C455.833,728.955 455.333,729.805 455,730.305 C455,734.439 456.316,738.121 458.95,741.355 C463.849,747.322 472.533,750.305 485,750.305 C500,750.305 511.017,745.805 518.05,736.805 C522.684,730.838 525,724.338 525,717.305 Z" id="Shape" fill="#FFFFFF"></path>
            <path d="M525,717.305 C525,724.338 522.684,730.838 518.05,736.805 C511.017,745.805 500,750.305 485,750.305 C472.533,750.305 463.85,747.322 458.95,741.355 C456.316,738.122 455,734.439 455,730.305 C455.333,729.805 455.833,728.955 456.5,727.755 C457.399,726.788 458.899,726.305 461,726.305 C463,726.305 464.733,726.871 466.2,728.005 C466.467,728.205 467.717,729.472 469.95,731.805 C473.516,735.472 478.45,737.305 484.75,737.305 C488.35,737.305 492.767,735.338 498,731.405 C500.533,729.506 504.883,725.672 511.05,719.905 C515.883,715.405 519.217,712.805 521.05,712.105 C523.684,711.104 525,712.838 525,717.305 Z" id="Shape" fill="#C4EBFF"></path>
        </g>
    </g>
</svg>
